<?xml version="1.0" standalone="no"?>
<!DOCTYPE svg PUBLIC "-//W3C//DTD SVG 1.1//EN" "http://www.w3.org/Graphics/SVG/1.1/DTD/svg11.dtd" >
<svg>
<metadata>
Created by FontForge 20090622 at Sat Feb 25 19:25:07 2017
 By deploy user
Copyright &#194;&#169; 2013 ParaType Inc., ParaType Ltd. All rights reserved. wf-rip
</metadata>
<defs>
<font id="Foros-Regular" horiz-adv-x="596" >
  <font-face 
    font-family="Foros Regular"
    font-weight="400"
    font-stretch="normal"
    units-per-em="1000"
    panose-1="2 11 5 3 2 2 3 2 2 4"
    ascent="779"
    descent="-221"
    x-height="498"
    cap-height="700"
    bbox="-454 -236 1288 941"
    underline-thickness="50"
    underline-position="-50"
    unicode-range="U+0020-U+FEFF"
  />
<missing-glyph horiz-adv-x="210" 
 />
    <glyph glyph-name="afii10017.var.accented" unicode="&#x410;`" horiz-adv-x="676" 
d="M665 0h-94l-90 232h-286l-90 -232h-94l274 700h106zM338 607l-116 -304h232zM286 740l99 174h89l-121 -174h-67z" />
    <glyph glyph-name="afii10022.var.accented" unicode="&#x415;`" 
d="M175 73h366v-73h-453v700h442v-73h-355v-236h310v-73h-310v-245zM243 740l99 174h89l-121 -174h-67z" />
    <glyph glyph-name="afii10026.var.accented" unicode="&#x418;`" horiz-adv-x="714" 
d="M626 700v-700h-87v570l-361 -570h-90v700h87v-570l361 570h90zM273 740l99 174h89l-121 -174h-67z" />
    <glyph glyph-name="afii10032.var.accented" unicode="&#x41e;`" horiz-adv-x="736" 
d="M656 530q25 -72 25 -180t-25 -180q-43 -130 -169 -168q-51 -16 -119 -16t-119 16q-126 38 -169 168q-25 72 -25 180t25 180q43 130 169 168q51 16 119 16t119 -16q126 -38 169 -168zM534 126q57 67 57 224q0 156 -57 224q-55 67 -166 67q-110 0 -167 -67
q-56 -68 -56 -224t56 -224q57 -67 167 -67q111 0 166 67zM311 740l99 174h89l-121 -174h-67z" />
    <glyph glyph-name="afii10037.var.accented" unicode="&#x423;`" horiz-adv-x="629" 
d="M534 700h94l-244 -536q-47 -105 -92 -142q-44 -36 -112 -36q-33 0 -63 5l4 75q23 -5 43 -5q45 0 73 25t63 100h-57l-242 514h99l222 -479zM238 740l99 174h89l-121 -174h-67z" />
    <glyph glyph-name="afii10045.var.accented" unicode="&#x42b;`" horiz-adv-x="870" 
d="M782 0h-87v700h87v-700zM175 338v-263q68 -16 129 -16q189 0 189 147t-189 147q-56 0 -129 -15zM88 17v683h87v-286q79 12 132 12q276 0 276 -220t-276 -220q-108 0 -219 31zM343 740l99 174h89l-121 -174h-67z" />
    <glyph glyph-name="afii10047.var.accented" unicode="&#x42d;`" horiz-adv-x="624" 
d="M256 -14q-79 0 -201 26l13 80q117 -33 186 -33q111 0 165 62t59 193h-326v73h326q-6 130 -59.5 192t-164.5 62q-69 0 -186 -33l-13 83q130 23 201 23q154 0 233.5 -88t79.5 -276t-79.5 -276t-233.5 -88zM221 740l99 174h89l-121 -174h-67z" />
    <glyph glyph-name="afii10048.var.accented" unicode="&#x42e;`" horiz-adv-x="1036" 
d="M674 641q-110 0 -163.5 -68.5t-53.5 -222.5t53.5 -222.5t163.5 -68.5t163.5 68.5t53.5 222.5t-53.5 222.5t-163.5 68.5zM175 700v-312h193q7 187 101 262q80 64 205 64q131 0 213 -71q94 -81 94 -293t-94 -293q-82 -71 -213 -71q-122 0 -206 64q-93 74 -100 265h-193
v-315h-87v700h87zM383 740l99 174h89l-121 -174h-67z" />
    <glyph glyph-name="afii10049.var.accented" unicode="&#x42f;`" horiz-adv-x="639" 
d="M330 364h134v263q-89 14 -134 14q-94 0 -135.5 -35t-41.5 -104q0 -138 177 -138zM298 291l-165 -297l-93 18l169 294q-145 39 -145 197q0 211 265 211q95 0 222 -30v-684h-87v291h-166zM276 740l99 174h89l-121 -174h-67z" />
    <glyph glyph-name="afii10023.var.accented" unicode="&#x401;`" 
d="M192 891v-128h-78v128h78zM507 891v-128h-78v128h78zM175 73h366v-73h-453v700h442v-73h-355v-236h310v-73h-310v-245zM222 740l99 174h89l-121 -174h-67z" />
    <glyph glyph-name="afii10065.var.accented" unicode="&#x430;`" horiz-adv-x="522" 
d="M44 138q0 76 49 118.5t153 42.5q47 0 121 -10v43q0 60 -24 88t-89 28q-58 0 -159 -33l-13 71q122 26 174 26q108 0 148 -49q41 -49 41 -129v-334h-76v28q-83 -42 -158 -42q-84 0 -125.5 40t-41.5 112zM252 235q-70 0 -99 -24.5t-29 -72.5q0 -88 99 -88q65 0 144 39v137
q-75 9 -115 9zM189 588l99 174h83l-121 -174h-61z" />
    <glyph glyph-name="afii10070.var.accented" unicode="&#x435;`" horiz-adv-x="560" 
d="M304 50q88 0 184 28l15 -64q-103 -28 -203 -28q-128 0 -189 65t-61 198q0 131 60.5 197t175.5 66q124 0 174 -69q50 -68 50 -194v-17h-380q5 -97 44.5 -139.5t129.5 -42.5zM286 448q-138 0 -154 -153h299q-5 78 -38.5 115.5t-106.5 37.5zM224 588l99 174h83l-121 -174
h-61z" />
    <glyph glyph-name="afii10074.var.accented" unicode="&#x438;`" horiz-adv-x="580" 
d="M503 498v-498h-78v388l-270 -388h-78v498h78v-388l270 388h78zM216 588l99 174h83l-121 -174h-61z" />
    <glyph glyph-name="afii10080.var.accented" unicode="&#x43e;`" horiz-adv-x="588" 
d="M169 398q-39 -50 -39 -149t39 -149t125 -50t125 50q39 49 39 149q0 99 -39 149t-125 50t-125 -50zM294 512q244 0 244 -263t-244 -263t-244 263t244 263zM234 588l99 174h83l-121 -174h-61z" />
    <glyph glyph-name="afii10085.var.accented" unicode="&#x443;`" horiz-adv-x="528" 
d="M104 -150q45 0 74 23q30 23 59 103l10 27h-49l-187 495h87l169 -460l163 460h87l-207 -545q-34 -91 -79.5 -129t-119.5 -38q-32 0 -52 4l6 64q17 -4 39 -4zM214 588l99 174h83l-121 -174h-61z" />
    <glyph glyph-name="afii10093.var.accented" unicode="&#x44b;`" horiz-adv-x="716" 
d="M639 498v-498h-78v498h78zM270 270q-53 0 -115 -14v-192q62 -14 115 -14q129 0 129 110t-129 110zM77 498h78v-176q69 12 117 12q207 0 207 -174t-207 -174q-84 0 -195 29v483zM292 588l99 174h83l-121 -174h-61z" />
    <glyph glyph-name="afii10095.var.accented" unicode="&#x44d;`" horiz-adv-x="497" 
d="M203 -14q-55 0 -153 21l13 71q78 -28 137 -28q81 0 121 40t45 128h-256v63h256q-5 87 -45 127t-121 40q-59 0 -137 -28l-13 71q98 21 153 21q124 0 184 -64t60 -199t-60 -199t-184 -64zM179 588l99 174h83l-121 -174h-61z" />
    <glyph glyph-name="afii10096.var.accented" unicode="&#x44e;`" horiz-adv-x="803" 
d="M514 448q-82 0 -120.5 -49.5t-38.5 -149.5t38.5 -149.5t120.5 -49.5q159 0 159 199t-159 199zM514 -14q-225 0 -238 232h-121v-218h-78v498h78v-217h121q14 231 238 231q239 0 239 -263t-239 -263zM331 588l99 174h83l-121 -174h-61z" />
    <glyph glyph-name="afii10097.var.accented" unicode="&#x44f;`" horiz-adv-x="520" 
d="M443 0h-78v196h-123l-128 -203l-81 18l127 195q-110 33 -110 149q0 74 49.5 115.5t144.5 41.5q79 0 199 -23v-489zM247 260h118v175q-68 13 -118 13q-117 0 -117 -93q0 -95 117 -95zM220 588l99 174h83l-121 -174h-61z" />
    <glyph glyph-name="afii10071.var.accented" unicode="&#x451;`" horiz-adv-x="560" 
d="M166 740v-128h-78v128h78zM475 740v-128h-78v128h78zM304 50q88 0 184 28l15 -64q-103 -28 -203 -28q-128 0 -189 65t-61 198q0 131 60.5 197t175.5 66q124 0 174 -69q50 -68 50 -194v-17h-380q5 -97 44.5 -139.5t129.5 -42.5zM286 448q-138 0 -154 -153h299
q-5 78 -38.5 115.5t-106.5 37.5zM190 588l99 174h83l-121 -174h-61z" />
    <glyph glyph-name="fi" unicode="fi" horiz-adv-x="506" 
d="M432 741v-129h-84v74q-25 4 -46 4q-70 0 -93 -36q-22 -34 -22 -114v-42h242v-498h-78v434h-164v-434h-78v434h-77v64h77v45q0 110 44.5 160.5t142.5 50.5q52 0 136 -13z" />
    <glyph glyph-name="fl" unicode="fl" horiz-adv-x="506" 
d="M295 498v-64h-108v-434h-78v434h-77v64h77v45q0 110 44.5 160.5t142.5 50.5q55 0 133 -13v-741h-78v685q-32 5 -49 5q-70 0 -93 -36q-22 -34 -22 -114v-42h108z" />
    <glyph glyph-name=".notdef" horiz-adv-x="210" 
 />
    <glyph glyph-name=".null" horiz-adv-x="0" 
 />
    <glyph glyph-name="nonmarkingreturn" horiz-adv-x="333" 
 />
    <glyph glyph-name="space" unicode=" " horiz-adv-x="210" 
 />
    <glyph glyph-name="exclam" unicode="!" horiz-adv-x="250" 
d="M80 700h90l-11 -492h-68zM167 107v-107h-84v107h84z" />
    <glyph glyph-name="quotedbl" unicode="&#x22;" horiz-adv-x="308" 
d="M116 700l-5 -244h-76l-5 244h86zM278 700l-5 -244h-76l-5 244h86z" />
    <glyph glyph-name="numbersign" unicode="#" horiz-adv-x="683" 
d="M386 232l35 196h-124l-35 -196h124zM449 167l-29 -167h-74l29 167h-124l-29 -167h-74l29 167h-116l12 65h115l35 196h-116l11 65h116l29 167h74l-29 -167h124l29 167h74l-29 -167h116l-11 -65h-116l-35 -196h117l-12 -65h-116z" />
    <glyph glyph-name="dollar" unicode="$" horiz-adv-x="576" 
d="M261 790h66v-118q67 -4 168 -25l-11 -79q-87 27 -157 35v-237q57 -9 96.5 -27.5t60 -45t29 -55t8.5 -64.5q0 -169 -194 -186v-118h-66v117q-84 3 -208 32l13 82q94 -39 195 -45v245q-102 16 -147.5 60.5t-45.5 129.5q0 170 193 182v117zM436 173q0 44 -21 73t-88 45v-234
q109 15 109 116zM153 491q0 -51 25 -77.5t83 -37.5v227q-108 -11 -108 -112z" />
    <glyph glyph-name="percent" unicode="%" horiz-adv-x="935" 
d="M613 660h70l-361 -660h-70zM232 674q171 0 171 -189t-171 -189t-171 189t171 189zM232 353q104 0 104 132t-104 132t-104 -132t104 -132zM703 -14q-171 0 -171 189t171 189t171 -189t-171 -189zM703 307q-104 0 -104 -132t104 -132t104 132t-104 132z" />
    <glyph glyph-name="ampersand" unicode="&#x26;" horiz-adv-x="687" 
d="M97 497q0 177 236 177q69 0 162 -18l-11 -75q-90 25 -150 25q-83 0 -117.5 -29.5t-34.5 -84.5q0 -59 35 -87.5t119 -28.5q275 0 329 3v-75h-45q-29 1 -75 1v-289q-138 -30 -231 -30q-144 0 -202 51q-57 53 -57 142q0 69 29 110t94 62q-39 18 -60 57.5t-21 88.5zM316 308
q-95 0 -135 -31t-40 -96q0 -64 40 -95.5t134 -31.5q66 0 141 18v235q-65 1 -140 1z" />
    <glyph glyph-name="quotesingle" unicode="'" horiz-adv-x="146" 
d="M116 700l-5 -244h-76l-5 244h86z" />
    <glyph glyph-name="parenleft" unicode="(" horiz-adv-x="355" 
d="M315 -146l-10 -64q-88 6 -139.5 51.5t-77 148.5t-27.5 280q2 177 27.5 279.5t77 148.5t139.5 52l10 -64q-44 -4 -73.5 -21.5t-53.5 -61.5t-35.5 -126t-11.5 -207t11.5 -207t35.5 -126t53.5 -61.5t73.5 -21.5z" />
    <glyph glyph-name="parenright" unicode=")" horiz-adv-x="355" 
d="M40 686l10 64q88 -6 139.5 -52t77 -148.5t27.5 -279.5q-2 -177 -27.5 -280t-77 -148.5t-139.5 -51.5l-10 64q44 4 73.5 21.5t53.5 61.5t35.5 126t11.5 207t-11.5 207t-35.5 126t-53.5 61.5t-73.5 21.5z" />
    <glyph glyph-name="asterisk" unicode="*" horiz-adv-x="578" 
d="M251 700h76l-18 -172l140 101l38 -65l-157 -71l157 -71l-38 -65l-140 100l18 -171h-76l17 171l-139 -100l-38 65l156 71l-156 71l38 65l139 -101z" />
    <glyph glyph-name="plus" unicode="+" horiz-adv-x="578" 
d="M507 366v-64h-185v-186h-66v186h-185v64h185v186h66v-186h185z" />
    <glyph glyph-name="comma" unicode="," horiz-adv-x="264" 
d="M81 -140l9 247h93l-41 -247h-61z" />
    <glyph glyph-name="hyphen" unicode="-" horiz-adv-x="478" 
d="M390 297v-70h-302v70h302z" />
    <glyph glyph-name="period" unicode="." horiz-adv-x="264" 
d="M174 107v-107h-84v107h84z" />
    <glyph glyph-name="slash" unicode="/" horiz-adv-x="399" 
d="M296 700h81l-341 -870h-81z" />
    <glyph glyph-name="zero" unicode="0" horiz-adv-x="708" 
d="M566 591q73 -82 73 -261q0 -180 -73 -262q-72 -82 -212 -82t-213 82q-72 82 -72 262q0 178 72 261q74 83 213 83q140 0 212 -83zM504 119q49 64 49 211t-49 211q-50 65 -150 65t-150 -65q-49 -64 -49 -211t49 -211q50 -65 150 -65t150 65z" />
    <glyph glyph-name="one" unicode="1" horiz-adv-x="416" 
d="M276 660v-660h-84v592h-153v68h237z" />
    <glyph glyph-name="two" unicode="2" horiz-adv-x="599" 
d="M530 473q0 -88 -48 -136q-47 -47 -160 -73l-16 -4q-96 -23 -127 -62q-31 -40 -31 -130h380v-68h-459v68q0 109 44 168q44 60 167 88l16 4q80 20 114 48q34 30 34 96q0 134 -157 134q-86 0 -184 -32l-11 76q120 24 195 24q122 0 182.5 -53.5t60.5 -147.5z" />
    <glyph glyph-name="three" unicode="3" horiz-adv-x="574" 
d="M505 179q0 -90 -58 -142q-59 -51 -200 -51q-95 0 -207 25l12 76q104 -33 195 -33q93 0 132.5 32t39.5 95q0 57 -36 92q-37 35 -140 35q-51 0 -101 -3v73q57 -4 101 -4q82 0 118.5 29t36.5 88q0 56 -34.5 85.5t-117.5 29.5q-72 0 -170 -29l-11 75q103 22 181 22
q237 0 237 -177q0 -113 -91 -150q113 -38 113 -168z" />
    <glyph glyph-name="four" unicode="4" horiz-adv-x="641" 
d="M590 235v-68h-106v-167h-84v167h-360v92l337 401h107v-425h106zM106 235h294v357z" />
    <glyph glyph-name="five" unicode="5" horiz-adv-x="614" 
d="M287 54q92 0 132 33.5t40 108.5q0 72 -39 107t-133 35q-58 0 -189 -20v342h401v-68h-317v-195q62 9 111 9q252 0 252 -210t-250 -210q-92 0 -226 29l12 77q114 -38 206 -38z" />
    <glyph glyph-name="six" unicode="6" horiz-adv-x="655" 
d="M595 200q0 -214 -242 -214q-141 0 -212.5 83.5t-71.5 260.5q0 186 75 265t220 79q71 0 193 -20l-11 -76q-103 28 -182 28q-105 0 -152.5 -53t-54.5 -161q105 21 192 21q128 0 187 -59t59 -154zM509 199q0 72 -40 109t-130 37q-85 0 -183 -22q0 -117 37 -188
q44 -81 157 -81q159 0 159 145z" />
    <glyph glyph-name="seven" unicode="7" horiz-adv-x="522" 
d="M30 660h462v-68q-194 -351 -252 -592h-89q36 139 95 273q63 143 154 319h-370v68z" />
    <glyph glyph-name="eight" unicode="8" horiz-adv-x="668" 
d="M194 85q38 -31 140 -31t140 31q39 31 39 94q0 61 -39 93q-40 32 -140 32t-140 -32q-39 -32 -39 -93q0 -63 39 -94zM207 399q35 -29 127 -29t127 29q35 30 35 89t-35 88q-35 30 -127 30t-127 -30q-35 -29 -35 -88t35 -89zM69 175q0 127 114 166q-96 39 -96 154
q0 179 247 179t247 -179q0 -115 -96 -154q114 -39 114 -166q0 -96 -65 -142.5t-200 -46.5t-200 46.5t-65 142.5z" />
    <glyph glyph-name="nine" unicode="9" horiz-adv-x="655" 
d="M60 460q0 214 242 214q141 0 212.5 -83.5t71.5 -260.5q0 -186 -75 -265t-220 -79q-71 0 -193 20l11 76q103 -28 182 -28q105 0 152.5 53t54.5 161q-105 -21 -192 -21q-129 0 -188 59q-58 58 -58 154zM146 461q0 -72 40 -109t130 -37q85 0 183 22q0 117 -38 188
q-42 81 -156 81q-159 0 -159 -145z" />
    <glyph glyph-name="colon" unicode=":" horiz-adv-x="264" 
d="M174 107v-107h-84v107h84zM174 498v-107h-84v107h84z" />
    <glyph glyph-name="semicolon" unicode=";" horiz-adv-x="264" 
d="M174 498v-107h-84v107h84zM81 -140l9 247h93l-41 -247h-61z" />
    <glyph glyph-name="less" unicode="&#x3c;" horiz-adv-x="578" 
d="M507 427l-356 -94l356 -94v-68l-436 123v78l436 123v-68z" />
    <glyph glyph-name="equal" unicode="=" horiz-adv-x="578" 
d="M71 407v64h436v-64h-436zM71 197v64h436v-64h-436z" />
    <glyph glyph-name="greater" unicode="&#x3e;" horiz-adv-x="578" 
d="M71 171v68l356 94l-356 94v68l436 -123v-78z" />
    <glyph glyph-name="question" unicode="?" horiz-adv-x="574" 
d="M249 107v-107h-84v107h84zM165 208v146h41q107 0 151.5 36.5t44.5 109.5q0 68 -41 107t-155 39q-44 0 -108 -15l-12 74q64 9 121 9q281 0 281 -214q0 -195 -239 -213v-79h-84z" />
    <glyph glyph-name="at" unicode="@" horiz-adv-x="1028" 
d="M668 0h-40v28q-82 -42 -158 -42q-84 0 -125.5 40t-41.5 112q0 76 49 118.5t153 42.5q47 0 121 -10v43q0 60 -24 88t-89 28q-59 0 -159 -33l-13 71q122 26 174 26q108 0 148 -49q41 -49 41 -129v-270q174 20 174 225q0 184 -86 273t-277 89q-94 0 -157 -19t-111 -63
q-94 -87 -94 -320q0 -219 84 -311q84 -91 278 -91q148 0 283 34l12 -62q-175 -35 -295 -35q-213 0 -320 101q-112 106 -112 364q0 264 116 368q111 97 316 97q222 0 326 -106t104 -319q0 -59 -15 -109.5t-46.5 -91.5t-86.5 -64.5t-129 -23.5zM511 235q-70 0 -99 -24.5
t-29 -72.5q0 -88 99 -88q64 0 144 39v137q-75 9 -115 9z" />
    <glyph glyph-name="A" unicode="A" horiz-adv-x="676" 
d="M665 0h-94l-90 232h-286l-90 -232h-94l274 700h106zM338 607l-116 -304h232z" />
    <glyph glyph-name="B" unicode="B" horiz-adv-x="671" 
d="M616 191q0 -85 -50 -140q-59 -65 -224 -65q-120 0 -254 30v668q133 30 233 30q143 0 199 -48q55 -48 55 -137q0 -115 -88 -155q129 -41 129 -183zM175 626v-227h144q91 0 130.5 30t39.5 91q0 60 -39 90.5t-131 30.5q-57 0 -144 -15zM526 193q0 63 -41 98q-41 36 -146 36
h-164v-253q89 -15 164 -15q101 0 144 33.5t43 100.5z" />
    <glyph glyph-name="C" unicode="C" horiz-adv-x="624" 
d="M368 714q71 0 201 -23l-13 -83q-117 33 -186 33q-118 0 -171.5 -70t-53.5 -221t53.5 -221t171.5 -70q69 0 186 33l13 -80q-122 -26 -201 -26q-154 0 -233.5 88t-79.5 276t79.5 276t233.5 88z" />
    <glyph glyph-name="D" unicode="D" horiz-adv-x="723" 
d="M88 16v668q114 30 225 30q191 0 273 -94q82 -92 82 -270q0 -177 -82 -271q-82 -93 -273 -93q-111 0 -225 30zM175 626v-552q65 -15 137 -15q141 0 203.5 70.5t62.5 220.5t-62.5 220.5t-203.5 70.5q-73 0 -137 -15z" />
    <glyph glyph-name="E" unicode="E" 
d="M175 73h366v-73h-453v700h442v-73h-355v-236h310v-73h-310v-245z" />
    <glyph glyph-name="F" unicode="F" horiz-adv-x="556" 
d="M175 299v-299h-87v700h424v-73h-337v-255h308v-73h-308z" />
    <glyph glyph-name="G" unicode="G" horiz-adv-x="702" 
d="M368 -14q-313 0 -313 364q0 197 82 280q83 84 231 84q95 0 230 -27l-13 -82q-119 36 -217 36q-114 0 -168.5 -70t-54.5 -221q0 -150 53.5 -220.5t169.5 -70.5q83 0 167 21v264h87v-324q-130 -34 -254 -34z" />
    <glyph glyph-name="H" unicode="H" horiz-adv-x="710" 
d="M622 700v-700h-87v318h-360v-318h-87v700h87v-309h360v309h87z" />
    <glyph glyph-name="I" unicode="I" horiz-adv-x="263" 
d="M175 0h-87v700h87v-700z" />
    <glyph glyph-name="J" unicode="J" horiz-adv-x="466" 
d="M136 -14q-58 0 -114 8l12 78q54 -14 101 -14q91 0 127 41q37 40 37 156v445h87v-448q0 -136 -56 -201t-194 -65z" />
    <glyph glyph-name="K" unicode="K" horiz-adv-x="657" 
d="M537 -10l-327 365l285 345h108l-287 -339l319 -349zM88 700h87v-700h-87v700z" />
    <glyph glyph-name="L" unicode="L" horiz-adv-x="527" 
d="M175 73h330v-73h-417v700h87v-627z" />
    <glyph glyph-name="M" unicode="M" horiz-adv-x="902" 
d="M451 129q33 90 38 101l187 470h108l48 -700h-86l-27 448q-3 52 -3 145q-35 -101 -53 -146l-178 -447h-68l-178 447q-18 45 -53 146q0 -93 -3 -145l-27 -448h-86l48 700h108l187 -470q5 -11 38 -101z" />
    <glyph glyph-name="N" unicode="N" horiz-adv-x="716" 
d="M542 700h86v-700h-108l-301 498q-37 62 -50 92q5 -63 5 -102v-488h-86v700h108l301 -498q37 -62 50 -92q-5 63 -5 102v488z" />
    <glyph glyph-name="O" unicode="O" horiz-adv-x="736" 
d="M656 530q25 -72 25 -180t-25 -180q-43 -130 -169 -168q-51 -16 -119 -16t-119 16q-126 38 -169 168q-25 72 -25 180t25 180q43 130 169 168q51 16 119 16t119 -16q126 -38 169 -168zM534 126q57 67 57 224q0 156 -57 224q-55 67 -166 67q-110 0 -167 -67
q-56 -68 -56 -224t56 -224q57 -67 167 -67q111 0 166 67z" />
    <glyph glyph-name="P" unicode="P" horiz-adv-x="615" 
d="M175 626v-273q86 -14 133 -14q177 0 177 151t-177 151q-54 0 -133 -15zM175 0h-87v683q134 31 222 31q265 0 265 -224t-265 -224q-53 0 -135 14v-280z" />
    <glyph glyph-name="Q" unicode="Q" horiz-adv-x="736" 
d="M681 350q0 -339 -272 -362q8 -83 30 -161l-90 -9q-19 83 -22 170q-272 23 -272 362q0 211 96 293q83 71 217 71t217 -71q96 -82 96 -293zM534 126q57 67 57 224q0 156 -57 224q-55 67 -166 67q-110 0 -167 -67q-56 -68 -56 -224t56 -224q57 -67 167 -67q111 0 166 67z
" />
    <glyph glyph-name="R" unicode="R" horiz-adv-x="639" 
d="M336 301h-161v-301h-87v684q126 30 222 30q265 0 265 -206q0 -158 -150 -192l174 -304l-93 -18zM175 627v-253h134q177 0 177 133q0 134 -177 134q-47 0 -134 -14z" />
    <glyph glyph-name="S" unicode="S" horiz-adv-x="601" 
d="M297 59q159 0 159 125q0 48 -22 77q-27 40 -117 52l-35 5q-113 16 -164.5 63.5t-51.5 138.5q0 96 59.5 145t174.5 49q79 0 218 -29l-12 -83q-124 39 -205 39q-145 0 -145 -121q0 -57 31.5 -85.5t107.5 -39.5l35 -5q122 -17 169 -71q47 -53 47 -134q0 -199 -249 -199
q-99 0 -247 35l14 87q59 -23 127 -37q66 -12 106 -12z" />
    <glyph glyph-name="T" unicode="T" horiz-adv-x="621" 
d="M599 700v-73h-245v-627h-87v627h-245v73h577z" />
    <glyph glyph-name="U" unicode="U" horiz-adv-x="726" 
d="M559 248v452h87v-454q0 -138 -68.5 -199t-214.5 -61t-214.5 61t-68.5 199v454h87v-452q0 -108 45 -149q46 -40 151 -40q106 0 150 40q46 40 46 149z" />
    <glyph glyph-name="V" unicode="V" horiz-adv-x="680" 
d="M669 700l-280 -700h-100l-278 700h95l233 -599l235 599h95z" />
    <glyph glyph-name="W" unicode="W" horiz-adv-x="1022" 
d="M541 477l-30 108l-30 -108l-142 -477h-100l-209 700h90l140 -498q13 -44 30 -109q17 64 31 109l148 498h84l148 -498q14 -45 31 -109q17 65 30 109l140 498h90l-209 -700h-100z" />
    <glyph glyph-name="X" unicode="X" horiz-adv-x="680" 
d="M42 700h108l190 -286l190 286h108l-239 -345l248 -355h-108l-199 296l-199 -296h-108l248 355z" />
    <glyph glyph-name="Y" unicode="Y" horiz-adv-x="651" 
d="M325 351h1l220 349h104l-281 -436v-264h-87v264l-281 436h104z" />
    <glyph glyph-name="Z" unicode="Z" horiz-adv-x="608" 
d="M154 73h404v-73h-508v73l391 554h-378v73h482v-73z" />
    <glyph glyph-name="bracketleft" unicode="[" horiz-adv-x="340" 
d="M270 -136v-64h-182v940h182v-64h-104v-812h104z" />
    <glyph glyph-name="backslash" unicode="\" horiz-adv-x="399" 
d="M377 0h-81l-274 700h81z" />
    <glyph glyph-name="bracketright" unicode="]" horiz-adv-x="340" 
d="M252 740v-940h-182v64h104v812h-104v64h182z" />
    <glyph glyph-name="asciicircum" unicode="^" horiz-adv-x="494" 
d="M22 244l187 456h76l187 -456h-76l-149 370l-149 -370h-76z" />
    <glyph glyph-name="underscore" unicode="_" horiz-adv-x="430" 
d="M430 -138v-64h-430v64h430z" />
    <glyph glyph-name="grave" unicode="`" horiz-adv-x="500" 
d="M280 588l-121 174h83l99 -174h-61z" />
    <glyph glyph-name="a" unicode="a" horiz-adv-x="522" 
d="M44 138q0 76 49 118.5t153 42.5q47 0 121 -10v43q0 60 -24 88t-89 28q-58 0 -159 -33l-13 71q122 26 174 26q108 0 148 -49q41 -49 41 -129v-334h-76v28q-83 -42 -158 -42q-84 0 -125.5 40t-41.5 112zM252 235q-70 0 -99 -24.5t-29 -72.5q0 -88 99 -88q65 0 144 39v137
q-75 9 -115 9z" />
    <glyph glyph-name="b" unicode="b" horiz-adv-x="580" 
d="M450 249q0 109 -33 154t-109 45q-53 0 -153 -44v-336q72 -18 137 -18q83 0 120.5 49.5t37.5 149.5zM77 740h78v-273q97 45 168 45q104 0 155.5 -62.5t51.5 -200.5q0 -111 -46 -183q-52 -80 -192 -80q-89 0 -215 34v720z" />
    <glyph glyph-name="c" unicode="c" horiz-adv-x="497" 
d="M294 512q56 0 153 -21l-13 -71q-78 28 -137 28q-88 0 -127.5 -47t-39.5 -152t39.5 -152t127.5 -47q59 0 137 28l13 -71q-97 -21 -153 -21q-124 0 -184 64t-60 199t60 199t184 64z" />
    <glyph glyph-name="d" unicode="d" horiz-adv-x="580" 
d="M425 94v310q-100 44 -153 44q-76 0 -109 -45t-33 -154t33 -154t109 -45q53 0 153 44zM257 -14q-104 0 -155.5 62.5t-51.5 200.5t51.5 200.5t155.5 62.5q71 0 168 -45v273h78v-740h-76v32q-99 -46 -170 -46z" />
    <glyph glyph-name="e" unicode="e" horiz-adv-x="560" 
d="M304 50q88 0 184 28l15 -64q-103 -28 -203 -28q-128 0 -189 65t-61 198q0 131 60.5 197t175.5 66q124 0 174 -69q50 -68 50 -194v-17h-380q5 -97 44.5 -139.5t129.5 -42.5zM286 448q-138 0 -154 -153h299q-5 78 -38.5 115.5t-106.5 37.5z" />
    <glyph glyph-name="f" unicode="f" horiz-adv-x="367" 
d="M335 498v-64h-148v-434h-78v434h-77v64h77v45q0 110 44.5 160.5t142.5 50.5q37 0 82 -6l-8 -68q-39 10 -68 10q-70 0 -93 -36q-22 -34 -22 -114v-42h148z" />
    <glyph glyph-name="g" unicode="g" horiz-adv-x="580" 
d="M425 94v310q-100 44 -153 44q-76 0 -109 -45t-33 -154t33 -154t109 -45q53 0 153 44zM257 -14q-104 0 -155.5 62.5t-51.5 200.5t51.5 200.5t155.5 62.5q69 0 170 -46v32h76v-469q0 -120 -43 -177q-48 -66 -198 -66q-84 0 -196 26l14 72q96 -34 181 -34q102 0 133 40
q31 38 31 135v6q-99 -45 -168 -45z" />
    <glyph glyph-name="h" unicode="h" horiz-adv-x="575" 
d="M77 740h78v-273q113 45 175 45q83 0 125.5 -45t42.5 -128v-339h-78v336q0 59 -24.5 85.5t-83.5 26.5q-52 0 -157 -44v-404h-78v740z" />
    <glyph glyph-name="i" unicode="i" horiz-adv-x="232" 
d="M155 498v-498h-78v498h78zM158 740v-128h-84v128h84z" />
    <glyph glyph-name="j" unicode="j" horiz-adv-x="235" 
d="M80 498h78v-491q0 -216 -191 -221l-9 64q69 4 95.5 42.5t26.5 116.5v489zM161 740v-128h-84v128h84z" />
    <glyph glyph-name="k" unicode="k" horiz-adv-x="526" 
d="M77 740h78v-740h-78v740zM283 266l223 -258l-89 -16l-229 270l200 236h98z" />
    <glyph glyph-name="l" unicode="l" horiz-adv-x="232" 
d="M77 740h78v-740h-78v740z" />
    <glyph glyph-name="m" unicode="m" horiz-adv-x="870" 
d="M474 0h-78v336q0 59 -21.5 85.5t-76.5 26.5q-47 0 -143 -44v-404h-78v498h76v-32q96 46 163 46q85 0 127 -56q118 56 182 56q168 0 168 -173v-339h-78v336q0 59 -23 85.5t-81 26.5q-52 0 -144 -46q7 -29 7 -63v-339z" />
    <glyph glyph-name="n" unicode="n" horiz-adv-x="575" 
d="M498 339v-339h-78v336q0 59 -24.5 85.5t-83.5 26.5q-52 0 -157 -44v-404h-78v498h76v-32q113 46 177 46q83 0 125.5 -45t42.5 -128z" />
    <glyph glyph-name="o" unicode="o" horiz-adv-x="588" 
d="M169 398q-39 -50 -39 -149t39 -149t125 -50t125 50q39 49 39 149q0 99 -39 149t-125 50t-125 -50zM294 512q244 0 244 -263t-244 -263t-244 263t244 263z" />
    <glyph glyph-name="p" unicode="p" horiz-adv-x="580" 
d="M155 31v-231h-78v698h76v-32q99 46 170 46q104 0 155.5 -62.5t51.5 -200.5t-51.5 -200.5t-155.5 -62.5q-71 0 -168 45zM155 404v-310q100 -44 153 -44q76 0 109 45t33 154t-33 154t-109 45q-53 0 -153 -44z" />
    <glyph glyph-name="q" unicode="q" horiz-adv-x="580" 
d="M503 -200h-78v231q-97 -45 -168 -45q-104 0 -155.5 62.5t-51.5 200.5t51.5 200.5t155.5 62.5q71 0 170 -46v32h76v-698zM425 94v310q-100 44 -153 44q-76 0 -109 -45t-33 -154t33 -154t109 -45q53 0 153 44z" />
    <glyph glyph-name="r" unicode="r" horiz-adv-x="341" 
d="M324 512l6 -71q-88 -4 -175 -43v-398h-78v498h76v-36q86 45 171 50z" />
    <glyph glyph-name="s" unicode="s" horiz-adv-x="485" 
d="M240 -14q-86 0 -190 27l15 77q95 -40 178 -40q52 0 79.5 20.5t27.5 57.5t-21 58t-77 29l-28 4q-81 12 -118.5 49t-37.5 103q0 64 45 102.5t125 38.5q59 0 168 -23l-14 -74q-91 33 -157 33q-45 0 -66.5 -21.5t-21.5 -53.5q0 -38 22.5 -58.5t75.5 -28.5l28 -4
q85 -12 121 -50t36 -102q0 -68 -47 -106t-143 -38z" />
    <glyph glyph-name="t" unicode="t" horiz-adv-x="454" 
d="M107 498v142h78v-142h200v-64h-200v-254q0 -72 24.5 -101t94.5 -29q40 0 93 12l7 -63q-62 -13 -111 -13q-101 0 -143.5 45.5t-42.5 146.5v256h-77v64h77z" />
    <glyph glyph-name="u" unicode="u" horiz-adv-x="575" 
d="M77 159v339h78v-336q0 -59 24.5 -85.5t83.5 -26.5q52 0 157 44v404h78v-498h-76v32q-113 -46 -177 -46q-83 0 -125.5 45t-42.5 128z" />
    <glyph glyph-name="v" unicode="v" horiz-adv-x="528" 
d="M11 498h87l166 -405l166 405h87l-210 -498h-86z" />
    <glyph glyph-name="w" unicode="w" horiz-adv-x="828" 
d="M549 0l-104 299l-31 96l-31 -96l-104 -299h-84l-173 498h80l103 -306q14 -37 34 -107q18 60 34 105l104 308h74l104 -308q16 -45 34 -105q20 70 34 107l103 306h80l-173 -498h-84z" />
    <glyph glyph-name="x" unicode="x" horiz-adv-x="520" 
d="M126 498l134 -188l134 188h99l-184 -245l191 -253h-99l-141 197l-141 -197h-99l190 253l-183 245h99z" />
    <glyph glyph-name="y" unicode="y" horiz-adv-x="528" 
d="M104 -150q45 0 74 23q30 23 59 103l10 27h-49l-187 495h87l169 -460l163 460h87l-207 -545q-34 -91 -79.5 -129t-119.5 -38q-32 0 -52 4l6 64q17 -4 39 -4z" />
    <glyph glyph-name="z" unicode="z" horiz-adv-x="488" 
d="M142 64h302v-64h-400v64l293 370h-284v64h382v-64z" />
    <glyph glyph-name="braceleft" unicode="{" horiz-adv-x="411" 
d="M139 271v-2q89 -50 89 -203q0 -104 27 -154.5t90 -57.5l-10 -64q-99 11 -142 72t-43 200q0 47 -6 77q-7 34 -30 61t-62 38v64q40 10 63 39q22 28 28.5 56.5t6.5 80.5q0 139 43 200t142 72l10 -64q-63 -7 -90 -57.5t-27 -154.5q0 -153 -89 -203z" />
    <glyph glyph-name="bar" unicode="|" horiz-adv-x="214" 
d="M149 740v-940h-84v940h84z" />
    <glyph glyph-name="braceright" unicode="}" horiz-adv-x="411" 
d="M272 269v2q-89 50 -89 203q0 104 -27 154.5t-90 57.5l10 64q98 -10 141 -72q44 -62 44 -200q0 -46 6 -78q7 -33 30 -60t62 -38v-64q-41 -11 -64 -40q-21 -26 -27.5 -55.5t-6.5 -80.5q0 -138 -44 -200q-43 -62 -141 -72l-10 64q63 7 90 57.5t27 154.5q0 153 89 203z" />
    <glyph glyph-name="asciitilde" unicode="~" horiz-adv-x="865" 
d="M456 222l-66 19q-114 32 -141 32q-36 0 -59.5 -16.5t-47.5 -58.5l-41 42q54 93 148 93q46 0 160 -32l66 -19q114 -32 141 -32q36 0 59.5 16.5t47.5 58.5l41 -42q-54 -93 -148 -93q-46 0 -160 32z" />
    <glyph glyph-name="uni00A0" unicode="&#xa0;" horiz-adv-x="210" 
 />
    <glyph glyph-name="exclamdown" unicode="&#xa1;" horiz-adv-x="250" 
d="M91 292h68l11 -492h-90zM83 393v107h84v-107h-84z" />
    <glyph glyph-name="cent" unicode="&#xa2;" horiz-adv-x="497" 
d="M266 511v151h61v-152q51 -3 120 -19l-13 -71q-54 18 -107 26v-394q47 4 107 26l13 -71q-69 -16 -120 -19v-152h-61v151q-111 7 -163.5 70.5t-52.5 191.5t52.5 191.5t163.5 70.5zM130 249q0 -96 32.5 -143.5t103.5 -54.5v395q-71 -7 -103.5 -54t-32.5 -143z" />
    <glyph glyph-name="sterling" unicode="&#xa3;" horiz-adv-x="637" 
d="M593 68v-68h-454v301h-78v65h78v41q0 133 59.5 200t190.5 67q71 0 183 -18l-11 -76q-106 26 -167 26q-96 0 -134 -44q-37 -43 -37 -147v-49h219v-65h-219v-233h370z" />
    <glyph glyph-name="currency" unicode="&#xa4;" horiz-adv-x="674" 
d="M460 465q-38 45 -123 45t-123 -45q-37 -44 -37 -135t37 -135q38 -45 123 -45t123 45q37 44 37 135t-37 135zM550 589l47 -47l-66 -66q34 -55 34 -146q0 -88 -35 -147l67 -67l-47 -47l-65 64q-55 -40 -148 -40t-149 40l-64 -64l-47 47l67 67q-35 56 -35 147t34 146l-66 66
l47 47l63 -64q59 42 150 42q93 0 149 -42z" />
    <glyph glyph-name="yen" unicode="&#xa5;" horiz-adv-x="649" 
d="M325 331l205 329h100l-183 -286h135v-61h-176l-40 -64v-14h216v-61h-216v-174h-83v174h-216v61h216v14l-42 64h-174v61h135l-183 286h100z" />
    <glyph glyph-name="brokenbar" unicode="&#xa6;" horiz-adv-x="214" 
d="M149 740v-406h-84v406h84zM149 206v-406h-84v406h84z" />
    <glyph glyph-name="section" unicode="&#xa7;" horiz-adv-x="638" 
d="M442 95v-1q75 -38 75 -119q0 -142 -218 -142q-78 0 -190 23l12 76q103 -31 177 -31q81 0 107 20q27 19 27 56q0 39 -27.5 57.5t-98.5 27.5l-32 4q-204 26 -204 188q0 130 126 158v1q-75 37 -75 119q0 142 218 142q78 0 190 -23l-12 -76q-103 31 -177 31q-80 0 -108 -20
q-26 -20 -26 -56q0 -39 27.5 -57.5t98.5 -27.5l32 -4q204 -25 204 -188q0 -129 -126 -158zM306 133h28q148 4 148 121q0 53 -33.5 82t-117.5 38h-28q-148 -4 -148 -121q0 -53 33.5 -82t117.5 -38z" />
    <glyph glyph-name="dieresis" unicode="&#xa8;" horiz-adv-x="500" 
d="M165 740v-128h-78v128h78zM413 740v-128h-78v128h78z" />
    <glyph glyph-name="copyright" unicode="&#xa9;" horiz-adv-x="864" 
d="M770 528q24 -72 24 -178t-24 -179q-43 -130 -186 -169q-61 -16 -152 -16q-90 0 -153 16q-142 39 -185 169q-24 73 -24 179t24 178q44 134 185 169q66 17 153 17t152 -17q142 -35 186 -169zM661 108q72 68 72 242t-72 242q-71 67 -229 67t-229 -67q-72 -68 -72 -242
t72 -242q71 -67 229 -67t229 67zM226 350q0 130 55 189t161 59q45 0 138 -17l-11 -68q-78 23 -123 23q-75 0 -109.5 -45t-34.5 -141q0 -97 34.5 -142t109.5 -45q48 0 123 24l11 -67q-86 -18 -138 -18q-107 0 -161.5 58.5t-54.5 189.5z" />
    <glyph glyph-name="ordfeminine" unicode="&#xaa;" horiz-adv-x="482" 
d="M44 338q0 145 182 145q32 0 109 -9v38q0 54 -22 79.5t-80 25.5q-51 0 -143 -30l-12 64q110 23 157 23q92 0 131 -41.5t39 -118.5v-300h-69v25q-74 -38 -142 -38q-76 0 -113 36t-37 101zM231 425q-63 0 -89 -22t-26 -65q0 -79 89 -79q58 0 130 35v123q-77 8 -104 8z" />
    <glyph glyph-name="guillemotleft" unicode="&#xab;" horiz-adv-x="423" 
d="M152 450h74l-128 -188l128 -188h-74l-130 188zM327 450h74l-128 -188l128 -188h-74l-130 188z" />
    <glyph glyph-name="logicalnot" unicode="&#xac;" horiz-adv-x="578" 
d="M71 282v64h436v-252h-66v188h-370z" />
    <glyph glyph-name="uni00AD" unicode="&#xad;" horiz-adv-x="478" 
d="M390 297v-70h-302v70h302z" />
    <glyph glyph-name="registered" unicode="&#xae;" horiz-adv-x="768" 
d="M620 641q78 -72 78 -254q0 -181 -78 -255q-78 -72 -236 -72t-236 72q-78 74 -78 255q0 182 78 254q77 73 236 73t236 -73zM580 173q57 61 57 214t-57 214t-196 61t-196 -61t-57 -214t57 -214t196 -61t196 61zM390 352h-80v-166h-62v390q80 17 130 17q154 0 154 -120
q0 -88 -80 -109l94 -170l-66 -10zM310 536v-133h68q91 0 91 70q0 69 -91 69q-28 0 -68 -6z" />
    <glyph glyph-name="overscore" unicode="&#xaf;" horiz-adv-x="500" 
d="M421 708v-64h-342v64h342z" />
    <glyph glyph-name="degree" unicode="&#xb0;" horiz-adv-x="432" 
d="M216 674q160 0 160 -159t-160 -159t-160 159t160 159zM145 593q-23 -25 -23 -78t23 -79q23 -24 71 -24t71 24q23 26 23 79t-23 78q-22 25 -71 25t-71 -25z" />
    <glyph glyph-name="plusminus" unicode="&#xb1;" horiz-adv-x="578" 
d="M507 482v-64h-185v-186h-66v186h-185v64h185v186h66v-186h185zM71 78v64h436v-64h-436z" />
    <glyph glyph-name="twosuperior" unicode="&#xb2;" horiz-adv-x="395" 
d="M326 557q0 -48 -26 -74.5t-89 -41.5l-9 -3q-47 -11 -63 -30.5t-16 -64.5h202v-46h-256v46q0 59 25 91t89 47l9 2q43 10 59.5 25t16.5 47q0 66 -80 66q-50 0 -100 -18l-8 51q75 14 109 14q69 0 103 -29.5t34 -81.5z" />
    <glyph glyph-name="threesuperior" unicode="&#xb3;" horiz-adv-x="369" 
d="M300 395q0 -106 -144 -106q-49 0 -116 14l8 50q57 -19 105 -19t68 16t20 48q0 31 -20 47t-69 16q-24 0 -56 -2v49q13 0 26 -0.5t20 -1t10 -0.5q43 0 60.5 14.5t17.5 43.5q0 57 -77 57q-44 0 -92 -16l-8 50q58 12 103 12q132 0 132 -98q0 -61 -49 -82q61 -21 61 -92z" />
    <glyph glyph-name="acute" unicode="&#xb4;" horiz-adv-x="500" 
d="M159 588l99 174h83l-121 -174h-61z" />
    <glyph glyph-name="mu" unicode="&#xb5;" horiz-adv-x="575" 
d="M420 94v404h78v-498h-76v32q-92 -46 -154 -46q-76 0 -117 32l2 -218h-76v698h78v-336q0 -56 23 -85q17 -19 48 -25t82 4t112 38z" />
    <glyph glyph-name="mu" unicode="&#x3bc;" horiz-adv-x="575" 
d="M420 94v404h78v-498h-76v32q-92 -46 -154 -46q-76 0 -117 32l2 -218h-76v698h78v-336q0 -56 23 -85q17 -19 48 -25t82 4t112 38z" />
    <glyph glyph-name="paragraph" unicode="&#xb6;" horiz-adv-x="606" 
d="M263 -150v417q-115 0 -163.5 46.5t-48.5 149.5q0 98 46 147q47 50 166 50h243v-810h-78v746h-87v-746h-78z" />
    <glyph glyph-name="middot" unicode="&#xb7;" horiz-adv-x="265" 
d="M175 315v-106h-85v106h85z" />
    <glyph glyph-name="cedilla" unicode="&#xb8;" horiz-adv-x="500" 
d="M230 -88q-31 0 -64 -3l13 101h56l-6 -50h10q54 0 83 -26t29 -72q0 -49 -29.5 -73.5t-82.5 -24.5q-42 0 -89 10l7 52q40 -14 73 -14q37 -4 52 23t0 54t-52 23z" />
    <glyph glyph-name="onesuperior" unicode="&#xb9;" horiz-adv-x="325" 
d="M175 660v-363h-58v317h-79v46h137z" />
    <glyph glyph-name="ordmasculine" unicode="&#xba;" horiz-adv-x="560" 
d="M167 571q-35 -46 -35 -134t35 -134q36 -45 113 -45q78 0 112 45q36 45 36 134t-36 134q-35 45 -112 45t-113 -45zM280 674q220 0 220 -237t-220 -237t-220 237t220 237z" />
    <glyph glyph-name="guillemotright" unicode="&#xbb;" horiz-adv-x="423" 
d="M197 74l128 188l-128 188h74l130 -188l-130 -188h-74zM22 74l128 188l-128 188h74l130 -188l-130 -188h-74z" />
    <glyph glyph-name="onequarter" unicode="&#xbc;" horiz-adv-x="646" 
d="M437 660h55l-374 -660h-55zM175 660v-363h-58v317h-79v46h137zM595 134v-46h-56v-88h-57v88h-192v59l179 216h70v-229h56zM337 134h145v177z" />
    <glyph glyph-name="onehalf" unicode="&#xbd;" horiz-adv-x="687" 
d="M437 660h55l-374 -660h-55zM175 660v-363h-58v317h-79v46h137zM618 260q0 -48 -26 -74.5t-89 -41.5l-9 -3q-47 -11 -63 -30.5t-16 -64.5h202v-46h-256v46q0 59 25 91t89 47l9 2q43 10 59.5 25t16.5 47q0 66 -80 66q-50 0 -100 -18l-8 51q75 14 109 14q69 0 103 -29.5
t34 -81.5z" />
    <glyph glyph-name="threequarters" unicode="&#xbe;" horiz-adv-x="751" 
d="M542 660h55l-374 -660h-55zM300 395q0 -106 -144 -106q-49 0 -116 14l8 50q57 -19 105 -19t68 16t20 48q0 31 -20 47t-69 16q-24 0 -56 -2v49q13 0 26 -0.5t20 -1t10 -0.5q43 0 60.5 14.5t17.5 43.5q0 57 -77 57q-44 0 -92 -16l-8 50q58 12 103 12q132 0 132 -98
q0 -61 -49 -82q61 -21 61 -92zM700 134v-46h-56v-88h-57v88h-192v59l179 216h70v-229h56zM442 134h145v177z" />
    <glyph glyph-name="questiondown" unicode="&#xbf;" horiz-adv-x="574" 
d="M325 393v107h84v-107h-84zM368 146q-107 0 -151.5 -36.5t-44.5 -109.5q0 -68 41 -107t155 -39q44 0 108 15l12 -74q-65 -9 -121 -9q-281 0 -281 214q0 195 239 213v79h84v-146h-41z" />
    <glyph glyph-name="Agrave" unicode="&#xc0;" horiz-adv-x="676" 
d="M665 0h-94l-90 232h-286l-90 -232h-94l274 700h106zM338 607l-116 -304h232zM334 740l-121 174h89l99 -174h-67z" />
    <glyph glyph-name="Aacute" unicode="&#xc1;" horiz-adv-x="676" 
d="M665 0h-94l-90 232h-286l-90 -232h-94l274 700h106zM338 607l-116 -304h232zM288 740l99 174h89l-121 -174h-67z" />
    <glyph glyph-name="Acircumflex" unicode="&#xc2;" horiz-adv-x="676" 
d="M665 0h-94l-90 232h-286l-90 -232h-94l274 700h106zM338 607l-116 -304h232zM286 914h104l105 -174h-65l-92 125l-92 -125h-65z" />
    <glyph glyph-name="Atilde" unicode="&#xc3;" horiz-adv-x="676" 
d="M665 0h-94l-90 232h-286l-90 -232h-94l274 700h106zM338 607l-116 -304h232zM505 889l35 -51q-31 -38 -56 -52.5t-63 -14.5q-44 0 -99 29q-46 24 -69 24q-26 0 -43.5 -11.5t-38.5 -42.5l-35 51q31 38 56 52.5t63 14.5q44 0 99 -29q46 -24 69 -24q27 0 44 11.5t38 42.5z
" />
    <glyph glyph-name="Adieresis" unicode="&#xc4;" horiz-adv-x="676" 
d="M665 0h-94l-90 232h-286l-90 -232h-94l274 700h106zM338 607l-116 -304h232zM245 891v-128h-78v128h78zM509 891v-128h-78v128h78z" />
    <glyph glyph-name="Aring" unicode="&#xc5;" horiz-adv-x="676" 
d="M665 0h-94l-90 232h-286l-90 -232h-94l274 700h106zM338 607l-116 -304h232zM338 941q113 0 113 -112t-113 -112t-113 112t113 112zM291 881q-15 -17 -15 -52t15 -52q15 -16 47 -16t47 16q15 17 15 52t-15 52q-15 16 -47 16t-47 -16z" />
    <glyph glyph-name="AE" unicode="&#xc6;" horiz-adv-x="1009" 
d="M245 364h256v263h-155zM954 73v-73h-453v290h-284l-111 -290h-95l274 700h658v-73h-355v-236h310v-73h-310v-245h366z" />
    <glyph glyph-name="Ccedilla" unicode="&#xc7;" horiz-adv-x="624" 
d="M396 -13l-3 -27h10q54 0 83 -26t29 -72q0 -49 -29.5 -73.5t-82.5 -24.5q-42 0 -89 10l7 52q40 -14 73 -14q37 -4 52 23t0 54t-52 23q-31 0 -64 -3l10 78q-285 14 -285 363q0 188 79.5 276t233.5 88q71 0 201 -23l-13 -83q-117 33 -186 33q-118 0 -171.5 -70t-53.5 -221
t53.5 -221t171.5 -70q69 0 186 33l13 -80q-96 -22 -173 -25z" />
    <glyph glyph-name="Egrave" unicode="&#xc8;" 
d="M175 73h366v-73h-453v700h442v-73h-355v-236h310v-73h-310v-245zM306 740l-121 174h89l99 -174h-67z" />
    <glyph glyph-name="Eacute" unicode="&#xc9;" 
d="M175 73h366v-73h-453v700h442v-73h-355v-236h310v-73h-310v-245zM245 740l99 174h89l-121 -174h-67z" />
    <glyph glyph-name="Ecircumflex" unicode="&#xca;" 
d="M175 73h366v-73h-453v700h442v-73h-355v-236h310v-73h-310v-245zM257 914h104l105 -174h-65l-92 125l-92 -125h-65z" />
    <glyph glyph-name="Edieresis" unicode="&#xcb;" 
d="M175 73h366v-73h-453v700h442v-73h-355v-236h310v-73h-310v-245zM216 891v-128h-78v128h78zM480 891v-128h-78v128h78z" />
    <glyph glyph-name="Igrave" unicode="&#xcc;" horiz-adv-x="263" 
d="M175 0h-87v700h87v-700zM119 740l-121 174h89l99 -174h-67z" />
    <glyph glyph-name="Iacute" unicode="&#xcd;" horiz-adv-x="263" 
d="M175 0h-87v700h87v-700zM77 740l99 174h89l-121 -174h-67z" />
    <glyph glyph-name="Icircumflex" unicode="&#xce;" horiz-adv-x="263" 
d="M175 0h-87v700h87v-700zM80 914h104l105 -174h-65l-92 125l-92 -125h-65z" />
    <glyph glyph-name="Idieresis" unicode="&#xcf;" horiz-adv-x="263" 
d="M84 891v-128h-76v128h76zM255 891v-128h-76v128h76zM175 0h-87v700h87v-700z" />
    <glyph glyph-name="Eth" unicode="&#xd0;" horiz-adv-x="735" 
d="M21 386h79v298q114 30 225 30q191 0 273 -94q82 -92 82 -270q0 -177 -82 -271q-82 -93 -273 -93q-111 0 -225 30v299h-79v71zM318 315h-131v-241q65 -15 137 -15q141 0 203.5 70.5t62.5 220.5t-62.5 220.5t-203.5 70.5q-72 0 -137 -15v-240h131v-71z" />
    <glyph glyph-name="Ntilde" unicode="&#xd1;" horiz-adv-x="716" 
d="M542 700h86v-700h-108l-301 498q-37 62 -50 92q5 -63 5 -102v-488h-86v700h108l301 -498q37 -62 50 -92q-5 63 -5 102v488zM525 889l35 -51q-31 -38 -56 -52.5t-63 -14.5q-44 0 -99 29q-46 24 -69 24q-26 0 -43.5 -11.5t-38.5 -42.5l-35 51q31 38 56 52.5t63 14.5
q44 0 99 -29q46 -24 69 -24q27 0 44 11.5t38 42.5z" />
    <glyph glyph-name="Ograve" unicode="&#xd2;" horiz-adv-x="736" 
d="M656 530q25 -72 25 -180t-25 -180q-43 -130 -169 -168q-51 -16 -119 -16t-119 16q-126 38 -169 168q-25 72 -25 180t25 180q43 130 169 168q51 16 119 16t119 -16q126 -38 169 -168zM534 126q57 67 57 224q0 156 -57 224q-55 67 -166 67q-110 0 -167 -67
q-56 -68 -56 -224t56 -224q57 -67 167 -67q111 0 166 67zM384 740l-121 174h89l99 -174h-67z" />
    <glyph glyph-name="Oacute" unicode="&#xd3;" horiz-adv-x="736" 
d="M656 530q25 -72 25 -180t-25 -180q-43 -130 -169 -168q-51 -16 -119 -16t-119 16q-126 38 -169 168q-25 72 -25 180t25 180q43 130 169 168q51 16 119 16t119 -16q126 -38 169 -168zM534 126q57 67 57 224q0 156 -57 224q-55 67 -166 67q-110 0 -167 -67
q-56 -68 -56 -224t56 -224q57 -67 167 -67q111 0 166 67zM336 740l99 174h89l-121 -174h-67z" />
    <glyph glyph-name="Ocircumflex" unicode="&#xd4;" horiz-adv-x="736" 
d="M656 530q25 -72 25 -180t-25 -180q-43 -130 -169 -168q-51 -16 -119 -16t-119 16q-126 38 -169 168q-25 72 -25 180t25 180q43 130 169 168q51 16 119 16t119 -16q126 -38 169 -168zM534 126q57 67 57 224q0 156 -57 224q-55 67 -166 67q-110 0 -167 -67
q-56 -68 -56 -224t56 -224q57 -67 167 -67q111 0 166 67zM316 914h104l105 -174h-65l-92 125l-92 -125h-65z" />
    <glyph glyph-name="Otilde" unicode="&#xd5;" horiz-adv-x="736" 
d="M656 530q25 -72 25 -180t-25 -180q-43 -130 -169 -168q-51 -16 -119 -16t-119 16q-126 38 -169 168q-25 72 -25 180t25 180q43 130 169 168q51 16 119 16t119 -16q126 -38 169 -168zM534 126q57 67 57 224q0 156 -57 224q-55 67 -166 67q-110 0 -167 -67
q-56 -68 -56 -224t56 -224q57 -67 167 -67q111 0 166 67zM535 889l35 -51q-31 -38 -56 -52.5t-63 -14.5q-44 0 -99 29q-46 24 -69 24q-26 0 -43.5 -11.5t-38.5 -42.5l-35 51q31 38 56 52.5t63 14.5q44 0 99 -29q46 -24 69 -24q27 0 44 11.5t38 42.5z" />
    <glyph glyph-name="Odieresis" unicode="&#xd6;" horiz-adv-x="736" 
d="M656 530q25 -72 25 -180t-25 -180q-43 -130 -169 -168q-51 -16 -119 -16t-119 16q-126 38 -169 168q-25 72 -25 180t25 180q43 130 169 168q51 16 119 16t119 -16q126 -38 169 -168zM534 126q57 67 57 224q0 156 -57 224q-55 67 -166 67q-110 0 -167 -67
q-56 -68 -56 -224t56 -224q57 -67 167 -67q111 0 166 67zM275 891v-128h-78v128h78zM539 891v-128h-78v128h78z" />
    <glyph glyph-name="multiply" unicode="&#xd7;" horiz-adv-x="578" 
d="M112 465l46 46l131 -130l131 130l46 -46l-130 -131l130 -131l-46 -46l-131 130l-131 -130l-46 46l130 131z" />
    <glyph glyph-name="Oslash" unicode="&#xd8;" horiz-adv-x="736" 
d="M591 350q0 163 -65 234l-256 -509q41 -16 98 -16q113 0 168 68.5t55 222.5zM145 350q0 -163 65 -234l255 508q-45 17 -97 17q-113 0 -168 -68.5t-55 -222.5zM536 765h81l-53 -105q117 -85 117 -310q0 -211 -96 -293q-83 -71 -217 -71q-73 0 -133 20l-35 -71h-81l53 105
q-117 86 -117 310q0 211 96 293q83 71 217 71q72 0 132 -20z" />
    <glyph glyph-name="Ugrave" unicode="&#xd9;" horiz-adv-x="726" 
d="M559 248v452h87v-454q0 -138 -68.5 -199t-214.5 -61t-214.5 61t-68.5 199v454h87v-452q0 -108 45 -149q46 -40 151 -40q106 0 150 40q46 40 46 149zM363 740l-121 174h89l99 -174h-67z" />
    <glyph glyph-name="Uacute" unicode="&#xda;" horiz-adv-x="726" 
d="M559 248v452h87v-454q0 -138 -68.5 -199t-214.5 -61t-214.5 61t-68.5 199v454h87v-452q0 -108 45 -149q46 -40 151 -40q106 0 150 40q46 40 46 149zM309 740l99 174h89l-121 -174h-67z" />
    <glyph glyph-name="Ucircumflex" unicode="&#xdb;" horiz-adv-x="726" 
d="M559 248v452h87v-454q0 -138 -68.5 -199t-214.5 -61t-214.5 61t-68.5 199v454h87v-452q0 -108 45 -149q46 -40 151 -40q106 0 150 40q46 40 46 149zM311 914h104l105 -174h-65l-92 125l-92 -125h-65z" />
    <glyph glyph-name="Udieresis" unicode="&#xdc;" horiz-adv-x="726" 
d="M559 248v452h87v-454q0 -138 -68.5 -199t-214.5 -61t-214.5 61t-68.5 199v454h87v-452q0 -108 45 -149q46 -40 151 -40q106 0 150 40q46 40 46 149zM270 891v-128h-78v128h78zM534 891v-128h-78v128h78z" />
    <glyph glyph-name="Yacute" unicode="&#xdd;" horiz-adv-x="651" 
d="M325 351h1l220 349h104l-281 -436v-264h-87v264l-281 436h104zM268 740l99 174h89l-121 -174h-67z" />
    <glyph glyph-name="Thorn" unicode="&#xde;" horiz-adv-x="615" 
d="M175 493v-273q86 -14 133 -14q177 0 177 151t-177 151q-54 0 -133 -15zM88 700h87v-133q92 14 135 14q265 0 265 -224t-265 -224q-53 0 -135 14v-147h-87v700z" />
    <glyph glyph-name="germandbls" unicode="&#xdf;" horiz-adv-x="631" 
d="M338 355h-80v64h66q140 0 140 136q0 65 -34.5 100t-104.5 35q-64 0 -101.5 -39t-37.5 -120v-531h-78v355h-69v64h69v113q0 108 55 165t162 57q62 0 106.5 -16.5t67.5 -46t33 -62t10 -71.5q0 -110 -80 -161q119 -47 119 -197q0 -214 -237 -214q-41 0 -86 5v65q44 -6 80 -6
q85 0 124 38t39 114q0 153 -163 153z" />
    <glyph glyph-name="agrave" unicode="&#xe0;" horiz-adv-x="522" 
d="M44 138q0 76 49 118.5t153 42.5q47 0 121 -10v43q0 60 -24 88t-89 28q-58 0 -159 -33l-13 71q122 26 174 26q108 0 148 -49q41 -49 41 -129v-334h-76v28q-83 -42 -158 -42q-84 0 -125.5 40t-41.5 112zM252 235q-70 0 -99 -24.5t-29 -72.5q0 -88 99 -88q65 0 144 39v137
q-75 9 -115 9zM269 588l-121 174h83l99 -174h-61z" />
    <glyph glyph-name="aacute" unicode="&#xe1;" horiz-adv-x="522" 
d="M44 138q0 76 49 118.5t153 42.5q47 0 121 -10v43q0 60 -24 88t-89 28q-58 0 -159 -33l-13 71q122 26 174 26q108 0 148 -49q41 -49 41 -129v-334h-76v28q-83 -42 -158 -42q-84 0 -125.5 40t-41.5 112zM252 235q-70 0 -99 -24.5t-29 -72.5q0 -88 99 -88q65 0 144 39v137
q-75 9 -115 9zM196 588l99 174h83l-121 -174h-61z" />
    <glyph glyph-name="acircumflex" unicode="&#xe2;" horiz-adv-x="522" 
d="M44 138q0 76 49 118.5t153 42.5q47 0 121 -10v43q0 60 -24 88t-89 28q-58 0 -159 -33l-13 71q122 26 174 26q108 0 148 -49q41 -49 41 -129v-334h-76v28q-83 -42 -158 -42q-84 0 -125.5 40t-41.5 112zM252 235q-70 0 -99 -24.5t-29 -72.5q0 -88 99 -88q65 0 144 39v137
q-75 9 -115 9zM210 762h98l99 -174h-61l-87 125l-87 -125h-61z" />
    <glyph glyph-name="atilde" unicode="&#xe3;" horiz-adv-x="522" 
d="M44 138q0 76 49 118.5t153 42.5q47 0 121 -10v43q0 60 -24 88t-89 28q-58 0 -159 -33l-13 71q122 26 174 26q108 0 148 -49q41 -49 41 -129v-334h-76v28q-83 -42 -158 -42q-84 0 -125.5 40t-41.5 112zM252 235q-70 0 -99 -24.5t-29 -72.5q0 -88 99 -88q65 0 144 39v137
q-75 9 -115 9zM399 732l32 -48q-28 -35 -51.5 -48.5t-58.5 -13.5q-43 0 -92 27q-41 22 -64 22q-24 0 -40.5 -11t-35.5 -39l-32 48q28 35 51.5 48.5t58.5 13.5q43 0 92 -27q41 -22 64 -22q24 0 40.5 11t35.5 39z" />
    <glyph glyph-name="adieresis" unicode="&#xe4;" horiz-adv-x="522" 
d="M44 138q0 76 49 118.5t153 42.5q47 0 121 -10v43q0 60 -24 88t-89 28q-58 0 -159 -33l-13 71q122 26 174 26q108 0 148 -49q41 -49 41 -129v-334h-76v28q-83 -42 -158 -42q-84 0 -125.5 40t-41.5 112zM252 235q-70 0 -99 -24.5t-29 -72.5q0 -88 99 -88q65 0 144 39v137
q-75 9 -115 9zM159 740v-128h-78v128h78zM407 740v-128h-78v128h78z" />
    <glyph glyph-name="aring" unicode="&#xe5;" horiz-adv-x="522" 
d="M44 138q0 76 49 118.5t153 42.5q47 0 121 -10v43q0 60 -24 88t-89 28q-58 0 -159 -33l-13 71q122 26 174 26q108 0 148 -49q41 -49 41 -129v-334h-76v28q-83 -42 -158 -42q-84 0 -125.5 40t-41.5 112zM252 235q-70 0 -99 -24.5t-29 -72.5q0 -88 99 -88q65 0 144 39v137
q-75 9 -115 9zM246 786q113 0 113 -112t-113 -112t-113 112t113 112zM199 726q-15 -16 -15 -52t15 -52t47 -16t47 16t15 52t-15 52t-47 16t-47 -16z" />
    <glyph glyph-name="ae" unicode="&#xe6;" horiz-adv-x="875" 
d="M252 235q-70 0 -99 -24.5t-29 -72.5q0 -88 99 -88q65 0 144 39v137q-75 9 -115 9zM601 448q-137 0 -154 -153h299q-5 78 -38.5 115.5t-106.5 37.5zM619 50q88 0 184 28l15 -64q-103 -28 -203 -28q-118 0 -178 54v-40h-68v28q-83 -42 -158 -42q-84 0 -125.5 40t-41.5 112
q0 76 49 118.5t153 42.5q47 0 121 -10v43q0 60 -24 88t-89 28q-58 0 -159 -33l-13 71q122 26 174 26q122 0 164 -71q62 71 181 71q125 0 174 -69q50 -68 50 -194v-17h-380q5 -97 44.5 -139.5t129.5 -42.5z" />
    <glyph glyph-name="ccedilla" unicode="&#xe7;" horiz-adv-x="497" 
d="M320 -88q-31 0 -64 -3l10 78q-111 7 -163.5 70.5t-52.5 191.5q0 135 60 199t184 64q56 0 153 -21l-13 -71q-78 28 -137 28q-88 0 -127.5 -47t-39.5 -152t39.5 -152t127.5 -47q59 0 137 28l13 -71q-78 -16 -125 -20l-3 -27h10q54 0 83 -26t29 -72q0 -49 -29.5 -73.5
t-82.5 -24.5q-42 0 -89 10l7 52q40 -14 73 -14q37 -4 52 23t0 54t-52 23z" />
    <glyph glyph-name="egrave" unicode="&#xe8;" horiz-adv-x="560" 
d="M304 50q88 0 184 28l15 -64q-103 -28 -203 -28q-128 0 -189 65t-61 198q0 131 60.5 197t175.5 66q124 0 174 -69q50 -68 50 -194v-17h-380q5 -97 44.5 -139.5t129.5 -42.5zM286 448q-138 0 -154 -153h299q-5 78 -38.5 115.5t-106.5 37.5zM283 588l-121 174h83l99 -174
h-61z" />
    <glyph glyph-name="eacute" unicode="&#xe9;" horiz-adv-x="560" 
d="M304 50q88 0 184 28l15 -64q-103 -28 -203 -28q-128 0 -189 65t-61 198q0 131 60.5 197t175.5 66q124 0 174 -69q50 -68 50 -194v-17h-380q5 -97 44.5 -139.5t129.5 -42.5zM286 448q-138 0 -154 -153h299q-5 78 -38.5 115.5t-106.5 37.5zM235 588l99 174h83l-121 -174
h-61z" />
    <glyph glyph-name="ecircumflex" unicode="&#xea;" horiz-adv-x="560" 
d="M304 50q88 0 184 28l15 -64q-103 -28 -203 -28q-128 0 -189 65t-61 198q0 131 60.5 197t175.5 66q124 0 174 -69q50 -68 50 -194v-17h-380q5 -97 44.5 -139.5t129.5 -42.5zM286 448q-138 0 -154 -153h299q-5 78 -38.5 115.5t-106.5 37.5zM238 762h98l99 -174h-61l-87 125
l-87 -125h-61z" />
    <glyph glyph-name="edieresis" unicode="&#xeb;" horiz-adv-x="560" 
d="M304 50q88 0 184 28l15 -64q-103 -28 -203 -28q-128 0 -189 65t-61 198q0 131 60.5 197t175.5 66q124 0 174 -69q50 -68 50 -194v-17h-380q5 -97 44.5 -139.5t129.5 -42.5zM286 448q-138 0 -154 -153h299q-5 78 -38.5 115.5t-106.5 37.5zM194 740v-128h-78v128h78z
M442 740v-128h-78v128h78z" />
    <glyph glyph-name="igrave" unicode="&#xec;" horiz-adv-x="232" 
d="M123 588l-121 174h83l99 -174h-61zM155 498v-498h-78v498h78z" />
    <glyph glyph-name="iacute" unicode="&#xed;" horiz-adv-x="232" 
d="M155 498v-498h-78v498h78zM53 588l99 174h83l-121 -174h-61z" />
    <glyph glyph-name="icircumflex" unicode="&#xee;" horiz-adv-x="232" 
d="M67 762h98l99 -174h-61l-87 125l-87 -125h-61zM155 498v-498h-78v498h78z" />
    <glyph glyph-name="idieresis" unicode="&#xef;" horiz-adv-x="232" 
d="M155 498v-498h-78v498h78zM85 740v-128h-72v128h72zM219 740v-128h-72v128h72z" />
    <glyph glyph-name="eth" unicode="&#xf0;" horiz-adv-x="604" 
d="M449 465q-19 79 -60 153l-73 -47l-31 44l76 50q-34 48 -53 70l68 43q27 -34 51 -70l88 58l31 -45l-90 -59q93 -167 93 -382q0 -294 -255 -294q-244 0 -244 260q0 130 55 195t175 65q72 0 169 -41zM130 246q0 -99 40 -147.5t124 -48.5q174 0 174 225q0 66 -8 122
q-88 45 -174 45q-87 0 -121.5 -46.5t-34.5 -149.5z" />
    <glyph glyph-name="ntilde" unicode="&#xf1;" horiz-adv-x="575" 
d="M498 339v-339h-78v336q0 59 -24.5 85.5t-83.5 26.5q-52 0 -157 -44v-404h-78v498h76v-32q113 46 177 46q83 0 125.5 -45t42.5 -128zM443 732l32 -48q-28 -35 -51.5 -48.5t-58.5 -13.5q-43 0 -92 27q-41 22 -64 22q-24 0 -40.5 -11t-35.5 -39l-32 48q28 35 51.5 48.5
t58.5 13.5q43 0 92 -27q41 -22 64 -22q24 0 40.5 11t35.5 39z" />
    <glyph glyph-name="ograve" unicode="&#xf2;" horiz-adv-x="588" 
d="M169 398q-39 -50 -39 -149t39 -149t125 -50t125 50q39 49 39 149q0 99 -39 149t-125 50t-125 -50zM294 512q244 0 244 -263t-244 -263t-244 263t244 263zM305 588l-121 174h83l99 -174h-61z" />
    <glyph glyph-name="oacute" unicode="&#xf3;" horiz-adv-x="588" 
d="M169 398q-39 -50 -39 -149t39 -149t125 -50t125 50q39 49 39 149q0 99 -39 149t-125 50t-125 -50zM294 512q244 0 244 -263t-244 -263t-244 263t244 263zM251 588l99 174h83l-121 -174h-61z" />
    <glyph glyph-name="ocircumflex" unicode="&#xf4;" horiz-adv-x="588" 
d="M169 398q-39 -50 -39 -149t39 -149t125 -50t125 50q39 49 39 149q0 99 -39 149t-125 50t-125 -50zM294 512q244 0 244 -263t-244 -263t-244 263t244 263zM245 762h98l99 -174h-61l-87 125l-87 -125h-61z" />
    <glyph glyph-name="otilde" unicode="&#xf5;" horiz-adv-x="588" 
d="M449 732l32 -48q-28 -35 -51.5 -48.5t-58.5 -13.5q-43 0 -92 27q-41 22 -64 22q-24 0 -40.5 -11t-35.5 -39l-32 48q28 35 51.5 48.5t58.5 13.5q43 0 92 -27q41 -22 64 -22q24 0 40.5 11t35.5 39zM169 398q-39 -50 -39 -149t39 -149t125 -50t125 50q39 49 39 149
q0 99 -39 149t-125 50t-125 -50zM294 512q244 0 244 -263t-244 -263t-244 263t244 263z" />
    <glyph glyph-name="odieresis" unicode="&#xf6;" horiz-adv-x="588" 
d="M169 398q-39 -50 -39 -149t39 -149t125 -50t125 50q39 49 39 149q0 99 -39 149t-125 50t-125 -50zM294 512q244 0 244 -263t-244 -263t-244 263t244 263zM209 740v-128h-78v128h78zM457 740v-128h-78v128h78z" />
    <glyph glyph-name="divide" unicode="&#xf7;" horiz-adv-x="578" 
d="M331 574v-107h-84v107h84zM331 201v-107h-84v107h84zM71 302v64h436v-64h-436z" />
    <glyph glyph-name="oslash" unicode="&#xf8;" horiz-adv-x="588" 
d="M458 249q0 118 -55 166l-163 -359q24 -6 54 -6q85 0 124.5 49.5t39.5 149.5zM130 249q0 -120 55 -166l162 359q-24 6 -53 6q-85 0 -124.5 -49.5t-39.5 -149.5zM402 563h68l-37 -82q105 -59 105 -232q0 -263 -244 -263q-46 0 -82 9l-27 -60h-67l37 82q-105 59 -105 232
q0 263 244 263q44 0 81 -9z" />
    <glyph glyph-name="ugrave" unicode="&#xf9;" horiz-adv-x="575" 
d="M77 159v339h78v-336q0 -59 24.5 -85.5t83.5 -26.5q52 0 157 44v404h78v-498h-76v32q-113 -46 -177 -46q-83 0 -125.5 45t-42.5 128zM293 588l-121 174h83l99 -174h-61z" />
    <glyph glyph-name="uacute" unicode="&#xfa;" horiz-adv-x="575" 
d="M77 159v339h78v-336q0 -59 24.5 -85.5t83.5 -26.5q52 0 157 44v404h78v-498h-76v32q-113 -46 -177 -46q-83 0 -125.5 45t-42.5 128zM219 588l99 174h83l-121 -174h-61z" />
    <glyph glyph-name="ucircumflex" unicode="&#xfb;" horiz-adv-x="575" 
d="M77 159v339h78v-336q0 -59 24.5 -85.5t83.5 -26.5q52 0 157 44v404h78v-498h-76v32q-113 -46 -177 -46q-83 0 -125.5 45t-42.5 128zM239 762h98l99 -174h-61l-87 125l-87 -125h-61z" />
    <glyph glyph-name="udieresis" unicode="&#xfc;" horiz-adv-x="575" 
d="M77 159v339h78v-336q0 -59 24.5 -85.5t83.5 -26.5q52 0 157 44v404h78v-498h-76v32q-113 -46 -177 -46q-83 0 -125.5 45t-42.5 128zM203 740v-128h-78v128h78zM451 740v-128h-78v128h78z" />
    <glyph glyph-name="yacute" unicode="&#xfd;" horiz-adv-x="528" 
d="M104 -150q45 0 74 23q30 23 59 103l10 27h-49l-187 495h87l169 -460l163 460h87l-207 -545q-34 -91 -79.5 -129t-119.5 -38q-32 0 -52 4l6 64q17 -4 39 -4zM219 588l99 174h83l-121 -174h-61z" />
    <glyph glyph-name="thorn" unicode="&#xfe;" horiz-adv-x="580" 
d="M155 404v-310q100 -44 153 -44q76 0 109 45t33 154t-33 154t-109 45q-53 0 -153 -44zM323 512q104 0 155.5 -62.5t51.5 -200.5t-51.5 -200.5t-155.5 -62.5q-71 0 -168 45v-231h-78v940h78v-273q101 45 168 45z" />
    <glyph glyph-name="ydieresis" unicode="&#xff;" horiz-adv-x="528" 
d="M104 -150q45 0 74 23q30 23 59 103l10 27h-49l-187 495h87l169 -460l163 460h87l-207 -545q-34 -91 -79.5 -129t-119.5 -38q-32 0 -52 4l6 64q17 -4 39 -4zM179 740v-128h-78v128h78zM427 740v-128h-78v128h78z" />
    <glyph glyph-name="dotlessi" unicode="&#x131;" horiz-adv-x="232" 
d="M155 498v-498h-78v498h78z" />
    <glyph glyph-name="Lslash" unicode="&#x141;" horiz-adv-x="539" 
d="M187 73h330v-73h-417v349l-79 -24v73l79 24v278h87v-251l160 49v-73l-160 -49v-303z" />
    <glyph glyph-name="lslash" unicode="&#x142;" horiz-adv-x="284" 
d="M253 444l-72 -22v-422h-78v398l-72 -22v68l72 22v274h78v-250l72 22v-68z" />
    <glyph glyph-name="OE" unicode="&#x152;" horiz-adv-x="1073" 
d="M652 73h366v-73h-453v40q-73 -54 -197 -54q-134 0 -217 71q-96 82 -96 293t96 293q83 71 217 71q124 0 197 -55v41h442v-73h-355v-236h310v-73h-310v-245zM565 150v400q-70 91 -197 91q-113 0 -168 -68.5t-55 -222.5t55 -222.5t168 -68.5q127 0 197 91z" />
    <glyph glyph-name="oe" unicode="&#x153;" horiz-adv-x="968" 
d="M169 398q-39 -50 -39 -149t39 -149t125 -50t125 50q39 49 39 149q0 99 -39 149t-125 50t-125 -50zM694 448q-138 0 -154 -153h299q-5 78 -38.5 115.5t-106.5 37.5zM712 50q88 0 184 28l15 -64q-103 -28 -203 -28q-151 0 -210 92q-59 -92 -204 -92q-244 0 -244 263
t244 263q144 0 204 -94q58 94 196 94q124 0 174 -69q50 -68 50 -194v-17h-380q5 -97 44.5 -139.5t129.5 -42.5z" />
    <glyph glyph-name="Scaron" unicode="&#x160;" horiz-adv-x="601" 
d="M297 59q159 0 159 125q0 48 -22 77q-27 40 -117 52l-35 5q-113 16 -164.5 63.5t-51.5 138.5q0 96 59.5 145t174.5 49q79 0 218 -29l-12 -83q-124 39 -205 39q-145 0 -145 -121q0 -57 31.5 -85.5t107.5 -39.5l35 -5q122 -17 169 -71q47 -53 47 -134q0 -199 -249 -199
q-99 0 -247 35l14 87q59 -23 127 -37q66 -12 106 -12zM393 914h65l-105 -174h-104l-105 174h65l92 -125z" />
    <glyph glyph-name="scaron" unicode="&#x161;" horiz-adv-x="485" 
d="M240 -14q-86 0 -190 27l15 77q95 -40 178 -40q52 0 79.5 20.5t27.5 57.5t-21 58t-77 29l-28 4q-81 12 -118.5 49t-37.5 103q0 64 45 102.5t125 38.5q59 0 168 -23l-14 -74q-91 33 -157 33q-45 0 -66.5 -21.5t-21.5 -53.5q0 -38 22.5 -58.5t75.5 -28.5l28 -4
q85 -12 121 -50t36 -102q0 -68 -47 -106t-143 -38zM341 762h61l-99 -174h-98l-99 174h61l87 -125z" />
    <glyph glyph-name="Ydieresis" unicode="&#x178;" horiz-adv-x="651" 
d="M325 351h1l220 349h104l-281 -436v-264h-87v264l-281 436h104zM233 891v-128h-78v128h78zM497 891v-128h-78v128h78z" />
    <glyph glyph-name="Zcaron" unicode="&#x17d;" horiz-adv-x="608" 
d="M154 73h404v-73h-508v73l391 554h-378v73h482v-73zM396 914h65l-105 -174h-104l-105 174h65l92 -125z" />
    <glyph glyph-name="zcaron" unicode="&#x17e;" horiz-adv-x="488" 
d="M142 64h302v-64h-400v64l293 370h-284v64h382v-64zM331 762h61l-99 -174h-98l-99 174h61l87 -125z" />
    <glyph glyph-name="florin" unicode="&#x192;" horiz-adv-x="502" 
d="M405 391v-68h-178l-65 -383h-84l65 383h-102v68h114l9 54q37 229 232 229q34 0 78 -4l-10 -75q-42 11 -68 11q-75 0 -105 -40q-31 -40 -44 -126l-8 -49h166z" />
    <glyph glyph-name="circumflex" unicode="&#x2c6;" horiz-adv-x="500" 
d="M201 762h98l99 -174h-61l-87 125l-87 -125h-61z" />
    <glyph glyph-name="caron" unicode="&#x2c7;" horiz-adv-x="500" 
d="M337 762h61l-99 -174h-98l-99 174h61l87 -125z" />
    <glyph glyph-name="breve" unicode="&#x2d8;" horiz-adv-x="500" 
d="M83 701l52 36q36 -60 115 -60t115 60l52 -36q-54 -86 -167 -86t-167 86z" />
    <glyph glyph-name="dotaccent" unicode="&#x2d9;" horiz-adv-x="500" 
d="M292 740v-128h-84v128h84z" />
    <glyph glyph-name="ring" unicode="&#x2da;" horiz-adv-x="500" 
d="M250 786q113 0 113 -112t-113 -112t-113 112t113 112zM203 726q-15 -16 -15 -52t15 -52t47 -16t47 16t15 52t-15 52t-47 16t-47 -16z" />
    <glyph glyph-name="ogonek" unicode="&#x2db;" horiz-adv-x="500" 
d="M150 -138q0 42 38 89l49 59h64l-65 -86q-24 -31 -24 -61q0 -24 15 -37.5t42 -13.5q36 0 75 14l7 -52q-49 -10 -89 -10q-54 0 -83 25.5t-29 72.5z" />
    <glyph glyph-name="tilde" unicode="&#x2dc;" horiz-adv-x="500" 
d="M405 732l32 -48q-28 -35 -51.5 -48.5t-58.5 -13.5q-43 0 -92 27q-41 22 -64 22q-24 0 -40.5 -11t-35.5 -39l-32 48q28 35 51.5 48.5t58.5 13.5q43 0 92 -27q41 -22 64 -22q24 0 40.5 11t35.5 39z" />
    <glyph glyph-name="hungarumlaut" unicode="&#x2dd;" horiz-adv-x="500" 
d="M74 588l99 174h83l-121 -174h-61zM244 588l99 174h83l-121 -174h-61z" />
    <glyph glyph-name="acutecomb" unicode="&#x301;" horiz-adv-x="0" 
d="M-361 588l99 174h83l-121 -174h-61z" />
    <glyph glyph-name="uni0394" unicode="&#x394;" horiz-adv-x="690" 
d="M345 615l-210 -542h420zM651 0h-612v73l249 627h114l249 -627v-73z" />
    <glyph glyph-name="uni0394" unicode="&#x2206;" horiz-adv-x="690" 
d="M345 615l-210 -542h420zM651 0h-612v73l249 627h114l249 -627v-73z" />
    <glyph glyph-name="uni03A9" unicode="&#x3a9;" horiz-adv-x="752" 
d="M156 416q0 -84 31 -159q32 -78 116 -184v-73h-217v73h126q-146 169 -146 350q0 140 82 215.5t228 75.5t228 -75.5t82 -215.5q0 -181 -146 -350h126v-73h-217v73q84 106 116 184q31 75 31 159q0 109 -55.5 167t-164.5 58t-164.5 -58t-55.5 -167z" />
    <glyph glyph-name="uni03A9" unicode="&#x2126;" horiz-adv-x="752" 
d="M156 416q0 -84 31 -159q32 -78 116 -184v-73h-217v73h126q-146 169 -146 350q0 140 82 215.5t228 75.5t228 -75.5t82 -215.5q0 -181 -146 -350h126v-73h-217v73q84 106 116 184q31 75 31 159q0 109 -55.5 167t-164.5 58t-164.5 -58t-55.5 -167z" />
    <glyph glyph-name="pi" unicode="&#x3c0;" horiz-adv-x="605" 
d="M564 434h-56v-434h-78v434h-255v-434h-78v434h-56v64h523v-64z" />
    <glyph glyph-name="afii10023" unicode="&#x401;" 
d="M175 73h366v-73h-453v700h442v-73h-355v-236h310v-73h-310v-245zM216 891v-128h-78v128h78zM480 891v-128h-78v128h78z" />
    <glyph glyph-name="afii10051" unicode="&#x402;" horiz-adv-x="811" 
d="M599 627h-271v-235q97 17 146 17q146 0 214 -68.5t68 -213.5q0 -117 -50.5 -192t-152.5 -95l-8 73q70 19 96 71t25 142q0 111 -40 160q-41 50 -160 50q-54 0 -138 -15v-321h-87v627h-219v73h577v-73z" />
    <glyph glyph-name="afii10052" unicode="&#x403;" horiz-adv-x="534" 
d="M512 700v-73h-337v-627h-87v700h424zM235 740l99 174h89l-121 -174h-67z" />
    <glyph glyph-name="afii10053" unicode="&#x404;" horiz-adv-x="624" 
d="M368 -14q-154 0 -233.5 88t-79.5 276t79.5 276t233.5 88q71 0 201 -23l-13 -83q-117 33 -186 33q-111 0 -164.5 -62t-59.5 -192h326v-73h-326q5 -131 59 -193t165 -62q69 0 186 33l13 -80q-122 -26 -201 -26z" />
    <glyph glyph-name="afii10054" unicode="&#x405;" horiz-adv-x="601" 
d="M297 59q159 0 159 125q0 48 -22 77q-27 40 -117 52l-35 5q-113 16 -164.5 63.5t-51.5 138.5q0 96 59.5 145t174.5 49q79 0 218 -29l-12 -83q-124 39 -205 39q-145 0 -145 -121q0 -57 31.5 -85.5t107.5 -39.5l35 -5q122 -17 169 -71q47 -53 47 -134q0 -199 -249 -199
q-99 0 -247 35l14 87q59 -23 127 -37q66 -12 106 -12z" />
    <glyph glyph-name="afii10055" unicode="&#x406;" horiz-adv-x="263" 
d="M175 0h-87v700h87v-700z" />
    <glyph glyph-name="afii10056" unicode="&#x407;" horiz-adv-x="263" 
d="M84 891v-128h-76v128h76zM255 891v-128h-76v128h76zM175 0h-87v700h87v-700z" />
    <glyph glyph-name="afii10057" unicode="&#x408;" horiz-adv-x="466" 
d="M136 -14q-58 0 -114 8l12 78q54 -14 101 -14q91 0 127 41q37 40 37 156v445h87v-448q0 -136 -56 -201t-194 -65z" />
    <glyph glyph-name="afii10058" unicode="&#x409;" horiz-adv-x="1061" 
d="M613 338v-263q68 -16 129 -16q189 0 189 147t-189 147q-56 0 -129 -15zM526 17v610h-295v-95q0 -264 -38 -386q-38 -120 -130 -164l-46 64q36 19 56.5 43.5t38.5 73.5q38 97 38 370v167h463v-286q79 12 132 12q276 0 276 -220t-276 -220q-108 0 -219 31z" />
    <glyph glyph-name="afii10059" unicode="&#x40a;" horiz-adv-x="1070" 
d="M622 338v-263q68 -16 129 -16q189 0 189 147t-189 147q-57 0 -129 -15zM535 17v301h-360v-318h-87v700h87v-309h360v309h87v-286q80 12 132 12q276 0 276 -220t-276 -220q-108 0 -219 31z" />
    <glyph glyph-name="afii10060" unicode="&#x40b;" horiz-adv-x="801" 
d="M599 627h-271v-234q86 16 146 16q138 0 205 -59t67 -188v-162h-87v159q0 96 -42 136q-43 41 -151 41q-54 0 -138 -15v-321h-87v627h-219v73h577v-73z" />
    <glyph glyph-name="afii10061" unicode="&#x40c;" horiz-adv-x="657" 
d="M537 -10l-327 365l285 345h108l-287 -339l319 -349zM88 700h87v-700h-87v700zM263 740l99 174h89l-121 -174h-67z" />
    <glyph glyph-name="afii10062" unicode="&#x40e;" horiz-adv-x="629" 
d="M534 700h94l-244 -536q-47 -105 -92 -142q-44 -36 -112 -36q-33 0 -63 5l4 75q23 -5 43 -5q45 0 73 25t63 100h-57l-242 514h99l222 -479zM135 847l56 39q39 -65 124 -65t124 65l56 -39q-59 -93 -180 -93t-180 93z" />
    <glyph glyph-name="afii10145" unicode="&#x40f;" horiz-adv-x="710" 
d="M395 0l5 -150h-88l3 150h-227v700h87v-627h360v627h87v-700h-227z" />
    <glyph glyph-name="afii10017" unicode="&#x410;" horiz-adv-x="676" 
d="M665 0h-94l-90 232h-286l-90 -232h-94l274 700h106zM338 607l-116 -304h232z" />
    <glyph glyph-name="afii10018" unicode="&#x411;" horiz-adv-x="671" 
d="M175 327v-253q89 -15 156 -15q103 0 149 36t46 106t-46 106t-149 36q-73 0 -156 -16zM533 627h-358v-225q96 14 158 14q283 0 283 -215t-283 -215q-113 0 -245 30v684h445v-73z" />
    <glyph glyph-name="afii10019" unicode="&#x412;" horiz-adv-x="671" 
d="M616 191q0 -85 -50 -140q-59 -65 -224 -65q-120 0 -254 30v668q133 30 233 30q143 0 199 -48q55 -48 55 -137q0 -115 -88 -155q129 -41 129 -183zM175 626v-227h144q91 0 130.5 30t39.5 91q0 60 -39 90.5t-131 30.5q-57 0 -144 -15zM526 193q0 63 -41 98q-41 36 -146 36
h-164v-253q89 -15 164 -15q101 0 144 33.5t43 100.5z" />
    <glyph glyph-name="afii10020" unicode="&#x413;" horiz-adv-x="534" 
d="M512 700v-73h-337v-627h-87v700h424z" />
    <glyph glyph-name="afii10021" unicode="&#x414;" horiz-adv-x="731" 
d="M22 -130v203h49q46 56 74.5 176.5t28.5 297.5v153h447v-627h77v-203h-76l-9 130h-506l-9 -130h-76zM534 627h-280v-82q0 -321 -89 -472h369v554z" />
    <glyph glyph-name="afii10022" unicode="&#x415;" 
d="M175 73h366v-73h-453v700h442v-73h-355v-236h310v-73h-310v-245z" />
    <glyph glyph-name="afii10024" unicode="&#x416;" horiz-adv-x="961" 
d="M524 0h-87v700h87v-700zM846 -10l-287 365l239 345h102l-240 -339l279 -346zM61 700h102l239 -345l-287 -365l-93 25l279 346z" />
    <glyph glyph-name="afii10025" unicode="&#x417;" 
d="M509 526q0 -115 -89 -157q63 -23 92 -66.5t29 -113.5q0 -46 -12 -80.5t-41 -63.5t-85 -44t-138 -15q-102 0 -226 26l12 81q111 -34 214 -34q96 0 141 33t45 100q0 59 -40 96q-38 37 -148 37q-60 0 -111 -3v78q68 -2 107 -2q88 0 125.5 29.5t37.5 91.5q0 54 -34 88
t-129 34q-75 0 -183 -29l-13 81q118 21 197 21q132 0 190.5 -47t58.5 -141z" />
    <glyph glyph-name="afii10026" unicode="&#x418;" horiz-adv-x="714" 
d="M626 700v-700h-87v570l-361 -570h-90v700h87v-570l361 570h90z" />
    <glyph glyph-name="afii10027" unicode="&#x419;" horiz-adv-x="714" 
d="M626 700v-700h-87v570l-361 -570h-90v700h87v-570l361 570h90zM177 847l56 39q39 -65 124 -65t124 65l56 -39q-59 -93 -180 -93t-180 93z" />
    <glyph glyph-name="afii10028" unicode="&#x41a;" horiz-adv-x="657" 
d="M537 -10l-327 365l285 345h108l-287 -339l319 -349zM88 700h87v-700h-87v700z" />
    <glyph glyph-name="afii10029" unicode="&#x41b;" horiz-adv-x="701" 
d="M613 700v-700h-87v627h-295v-95q0 -264 -38 -386q-38 -120 -130 -164l-46 64q36 19 56.5 43.5t38.5 73.5q38 97 38 370v167h463z" />
    <glyph glyph-name="afii10030" unicode="&#x41c;" horiz-adv-x="902" 
d="M451 129q33 90 38 101l187 470h108l48 -700h-86l-27 448q-3 52 -3 145q-35 -101 -53 -146l-178 -447h-68l-178 447q-18 45 -53 146q0 -93 -3 -145l-27 -448h-86l48 700h108l187 -470q5 -11 38 -101z" />
    <glyph glyph-name="afii10031" unicode="&#x41d;" horiz-adv-x="710" 
d="M622 700v-700h-87v318h-360v-318h-87v700h87v-309h360v309h87z" />
    <glyph glyph-name="afii10032" unicode="&#x41e;" horiz-adv-x="736" 
d="M656 530q25 -72 25 -180t-25 -180q-43 -130 -169 -168q-51 -16 -119 -16t-119 16q-126 38 -169 168q-25 72 -25 180t25 180q43 130 169 168q51 16 119 16t119 -16q126 -38 169 -168zM534 126q57 67 57 224q0 156 -57 224q-55 67 -166 67q-110 0 -167 -67
q-56 -68 -56 -224t56 -224q57 -67 167 -67q111 0 166 67z" />
    <glyph glyph-name="afii10033" unicode="&#x41f;" horiz-adv-x="710" 
d="M622 700v-700h-87v627h-360v-627h-87v700h534z" />
    <glyph glyph-name="afii10034" unicode="&#x420;" horiz-adv-x="615" 
d="M175 626v-273q86 -14 133 -14q177 0 177 151t-177 151q-54 0 -133 -15zM175 0h-87v683q134 31 222 31q265 0 265 -224t-265 -224q-53 0 -135 14v-280z" />
    <glyph glyph-name="afii10035" unicode="&#x421;" horiz-adv-x="624" 
d="M368 714q71 0 201 -23l-13 -83q-117 33 -186 33q-118 0 -171.5 -70t-53.5 -221t53.5 -221t171.5 -70q69 0 186 33l13 -80q-122 -26 -201 -26q-154 0 -233.5 88t-79.5 276t79.5 276t233.5 88z" />
    <glyph glyph-name="afii10036" unicode="&#x422;" horiz-adv-x="621" 
d="M599 700v-73h-245v-627h-87v627h-245v73h577z" />
    <glyph glyph-name="afii10037" unicode="&#x423;" horiz-adv-x="629" 
d="M534 700h94l-244 -536q-47 -105 -92 -142q-44 -36 -112 -36q-33 0 -63 5l4 75q23 -5 43 -5q45 0 73 25t63 100h-57l-242 514h99l222 -479z" />
    <glyph glyph-name="afii10038" unicode="&#x424;" horiz-adv-x="879" 
d="M398 101v498q-132 0 -192.5 -61t-60.5 -188t60.5 -188t192.5 -61zM483 28v-88h-87v88q-341 0 -341 322t341 322v88h87v-88q341 0 341 -322t-341 -322zM481 599v-498q132 0 192.5 61t60.5 188t-60.5 188t-192.5 61z" />
    <glyph glyph-name="afii10039" unicode="&#x425;" horiz-adv-x="680" 
d="M42 700h108l190 -286l190 286h108l-239 -345l248 -355h-108l-199 296l-199 -296h-108l248 355z" />
    <glyph glyph-name="afii10040" unicode="&#x426;" horiz-adv-x="729" 
d="M699 73v-203h-76l-9 130h-526v700h87v-627h360v627h87v-627h77z" />
    <glyph glyph-name="afii10041" unicode="&#x427;" horiz-adv-x="648" 
d="M560 0h-87v282q-86 -16 -146 -16q-138 0 -205 59t-67 188v187h87v-184q0 -96 42 -137q41 -40 151 -40q54 0 138 15v346h87v-700z" />
    <glyph glyph-name="afii10042" unicode="&#x428;" horiz-adv-x="965" 
d="M175 73h264v627h87v-627h264v627h87v-700h-789v700h87v-627z" />
    <glyph glyph-name="afii10043" unicode="&#x429;" horiz-adv-x="984" 
d="M869 0h-781v700h87v-627h264v627h87v-627h264v627h87v-627h77v-203h-76z" />
    <glyph glyph-name="afii10044" unicode="&#x42a;" horiz-adv-x="733" 
d="M285 338v-263q68 -16 129 -16q189 0 189 147t-189 147q-57 0 -129 -15zM198 17v610h-176v73h263v-286q79 12 132 12q276 0 276 -220t-276 -220q-108 0 -219 31z" />
    <glyph glyph-name="afii10045" unicode="&#x42b;" horiz-adv-x="870" 
d="M782 0h-87v700h87v-700zM175 338v-263q68 -16 129 -16q189 0 189 147t-189 147q-56 0 -129 -15zM88 17v683h87v-286q79 12 132 12q276 0 276 -220t-276 -220q-108 0 -219 31z" />
    <glyph glyph-name="afii10046" unicode="&#x42c;" horiz-adv-x="623" 
d="M175 338v-263q68 -16 129 -16q189 0 189 147t-189 147q-56 0 -129 -15zM88 17v683h87v-286q79 12 132 12q276 0 276 -220t-276 -220q-108 0 -219 31z" />
    <glyph glyph-name="afii10047" unicode="&#x42d;" horiz-adv-x="624" 
d="M256 -14q-79 0 -201 26l13 80q117 -33 186 -33q111 0 165 62t59 193h-326v73h326q-6 130 -59.5 192t-164.5 62q-69 0 -186 -33l-13 83q130 23 201 23q154 0 233.5 -88t79.5 -276t-79.5 -276t-233.5 -88z" />
    <glyph glyph-name="afii10048" unicode="&#x42e;" horiz-adv-x="1036" 
d="M674 641q-110 0 -163.5 -68.5t-53.5 -222.5t53.5 -222.5t163.5 -68.5t163.5 68.5t53.5 222.5t-53.5 222.5t-163.5 68.5zM175 700v-312h193q7 187 101 262q80 64 205 64q131 0 213 -71q94 -81 94 -293t-94 -293q-82 -71 -213 -71q-122 0 -206 64q-93 74 -100 265h-193
v-315h-87v700h87z" />
    <glyph glyph-name="afii10049" unicode="&#x42f;" horiz-adv-x="639" 
d="M330 364h134v263q-89 14 -134 14q-94 0 -135.5 -35t-41.5 -104q0 -138 177 -138zM298 291l-165 -297l-93 18l169 294q-145 39 -145 197q0 211 265 211q95 0 222 -30v-684h-87v291h-166z" />
    <glyph glyph-name="afii10065" unicode="&#x430;" horiz-adv-x="522" 
d="M44 138q0 76 49 118.5t153 42.5q47 0 121 -10v43q0 60 -24 88t-89 28q-58 0 -159 -33l-13 71q122 26 174 26q108 0 148 -49q41 -49 41 -129v-334h-76v28q-83 -42 -158 -42q-84 0 -125.5 40t-41.5 112zM252 235q-70 0 -99 -24.5t-29 -72.5q0 -88 99 -88q65 0 144 39v137
q-75 9 -115 9z" />
    <glyph glyph-name="afii10066" unicode="&#x431;" horiz-adv-x="604" 
d="M138 457q105 49 182 49q234 0 234 -260t-244 -260q-135 0 -195 79.5t-60 254.5q0 141 30.5 226.5t85 124t145.5 53.5q148 23 188 34l11 -69q-32 -9 -56 -13l-70 -11l-60 -9q-101 -18 -143 -65t-48 -134zM474 246q0 103 -36.5 149.5t-119.5 46.5q-68 0 -181 -46
q-1 -28 -1 -106q0 -122 41.5 -181t132.5 -59q81 0 122.5 47t41.5 149z" />
    <glyph glyph-name="afii10067" unicode="&#x432;" horiz-adv-x="549" 
d="M501 134q0 -72 -49.5 -110t-162.5 -38q-87 0 -212 31v469q122 26 199 26q194 0 194 -133q0 -79 -67 -112q98 -29 98 -133zM421 139q0 89 -134 89h-132v-159q75 -19 134 -19q70 0 101 22t31 67zM275 448q-55 0 -120 -13v-145h119q118 0 118 79t-117 79z" />
    <glyph glyph-name="afii10068" unicode="&#x433;" horiz-adv-x="403" 
d="M77 498h315v-64h-237v-434h-78v498z" />
    <glyph glyph-name="afii10069" unicode="&#x434;" horiz-adv-x="600" 
d="M496 -140l-8 140h-404l-8 -140h-65v204h45q46 51 68 140q23 94 23 195v99h350v-434h64v-204h-65zM419 434h-202v-37q0 -227 -78 -333h280v370z" />
    <glyph glyph-name="afii10070" unicode="&#x435;" horiz-adv-x="560" 
d="M304 50q88 0 184 28l15 -64q-103 -28 -203 -28q-128 0 -189 65t-61 198q0 131 60.5 197t175.5 66q124 0 174 -69q50 -68 50 -194v-17h-380q5 -97 44.5 -139.5t129.5 -42.5zM286 448q-138 0 -154 -153h299q-5 78 -38.5 115.5t-106.5 37.5z" />
    <glyph glyph-name="afii10072" unicode="&#x436;" horiz-adv-x="794" 
d="M436 0h-78v498h78v-498zM691 -8l-222 270l187 236h95l-188 -231l211 -255zM43 498h95l187 -236l-222 -270l-83 20l211 255z" />
    <glyph glyph-name="afii10073" unicode="&#x437;" horiz-adv-x="470" 
d="M422 133q0 -147 -228 -147q-81 0 -172 20l15 73q78 -29 157 -29t113.5 22t34.5 67q0 44 -35.5 66t-116.5 22q-32 0 -78 -3v68q62 -2 78 -2q130 0 130 79t-121 79q-63 0 -137 -24l-15 71q91 17 147 17q204 0 204 -136q0 -82 -72 -112q54 -22 75 -53.5t21 -77.5z" />
    <glyph glyph-name="afii10074" unicode="&#x438;" horiz-adv-x="580" 
d="M503 498v-498h-78v388l-270 -388h-78v498h78v-388l270 388h78z" />
    <glyph glyph-name="afii10075" unicode="&#x439;" horiz-adv-x="580" 
d="M503 498v-498h-78v388l-270 -388h-78v498h78v-388l270 388h78zM119 701l52 36q36 -60 115 -60t115 60l52 -36q-54 -86 -167 -86t-167 86z" />
    <glyph glyph-name="afii10076" unicode="&#x43a;" horiz-adv-x="526" 
d="M77 498h78v-498h-78v498zM283 266l223 -258l-89 -16l-229 270l200 236h98z" />
    <glyph glyph-name="afii10077" unicode="&#x43b;" horiz-adv-x="551" 
d="M474 498v-498h-78v434h-200v-46q0 -165 -29 -261q-28 -92 -103 -142l-49 54q65 45 87 121q22 75 22 230v108h350z" />
    <glyph glyph-name="afii10078" unicode="&#x43c;" horiz-adv-x="724" 
d="M343 143l19 -47q7 16 18 47q16 40 22 52l132 303h95l31 -498h-76l-14 288q-2 74 -2 124q-22 -63 -45 -116l-129 -296h-64l-129 296q-23 53 -45 116q0 -50 -2 -124l-14 -288h-76l31 498h95l132 -303q8 -16 21 -52z" />
    <glyph glyph-name="afii10079" unicode="&#x43d;" horiz-adv-x="570" 
d="M493 498v-498h-78v225h-260v-225h-78v498h78v-209h260v209h78z" />
    <glyph glyph-name="afii10080" unicode="&#x43e;" horiz-adv-x="588" 
d="M169 398q-39 -50 -39 -149t39 -149t125 -50t125 50q39 49 39 149q0 99 -39 149t-125 50t-125 -50zM294 512q244 0 244 -263t-244 -263t-244 263t244 263z" />
    <glyph glyph-name="afii10081" unicode="&#x43f;" horiz-adv-x="570" 
d="M493 498v-498h-78v434h-260v-434h-78v498h416z" />
    <glyph glyph-name="afii10082" unicode="&#x440;" horiz-adv-x="580" 
d="M155 31v-231h-78v698h76v-32q99 46 170 46q104 0 155.5 -62.5t51.5 -200.5t-51.5 -200.5t-155.5 -62.5q-71 0 -168 45zM155 404v-310q100 -44 153 -44q76 0 109 45t33 154t-33 154t-109 45q-53 0 -153 -44z" />
    <glyph glyph-name="afii10083" unicode="&#x441;" horiz-adv-x="497" 
d="M294 512q56 0 153 -21l-13 -71q-78 28 -137 28q-88 0 -127.5 -47t-39.5 -152t39.5 -152t127.5 -47q59 0 137 28l13 -71q-97 -21 -153 -21q-124 0 -184 64t-60 199t60 199t184 64z" />
    <glyph glyph-name="afii10084" unicode="&#x442;" horiz-adv-x="456" 
d="M11 434v64h434v-64h-178v-434h-78v434h-178z" />
    <glyph glyph-name="afii10085" unicode="&#x443;" horiz-adv-x="528" 
d="M104 -150q45 0 74 23q30 23 59 103l10 27h-49l-187 495h87l169 -460l163 460h87l-207 -545q-34 -91 -79.5 -129t-119.5 -38q-32 0 -52 4l6 64q17 -4 39 -4z" />
    <glyph glyph-name="afii10086" unicode="&#x444;" horiz-adv-x="758" 
d="M341 50v398q-118 0 -165 -44q-46 -43 -46 -155q0 -113 46 -156t165 -43zM418 -14v-186h-78v186q-152 0 -221 61.5t-69 201.5t69 201.5t221 61.5v228h78v-228q152 0 221 -61.5t69 -201.5t-69 -201.5t-221 -61.5zM417 448v-398q118 0 164 43q47 44 47 156q0 111 -47 155
t-164 44z" />
    <glyph glyph-name="afii10087" unicode="&#x445;" horiz-adv-x="520" 
d="M126 498l134 -188l134 188h99l-184 -245l191 -253h-99l-141 197l-141 -197h-99l190 253l-183 245h99z" />
    <glyph glyph-name="afii10088" unicode="&#x446;" horiz-adv-x="587" 
d="M554 -140h-65l-8 140h-404v498h78v-434h257v434h78v-434h64v-204z" />
    <glyph glyph-name="afii10089" unicode="&#x447;" horiz-adv-x="520" 
d="M365 254v244h78v-498h-78v190q-68 -11 -114 -11q-196 0 -196 183v136h78v-134q0 -62 30 -91.5t100 -29.5q42 0 102 11z" />
    <glyph glyph-name="afii10090" unicode="&#x448;" horiz-adv-x="818" 
d="M653 498h78v-498h-654v498h78v-434h210v434h78v-434h210v434z" />
    <glyph glyph-name="afii10091" unicode="&#x449;" horiz-adv-x="828" 
d="M795 -140h-65l-8 140h-645v498h78v-434h210v434h78v-434h210v434h78v-434h64v-204z" />
    <glyph glyph-name="afii10092" unicode="&#x44a;" horiz-adv-x="611" 
d="M364 270q-53 0 -115 -14v-192q62 -14 115 -14q129 0 129 110t-129 110zM171 15v419h-149v64h227v-176q69 12 117 12q207 0 207 -174t-207 -174q-84 0 -195 29z" />
    <glyph glyph-name="afii10093" unicode="&#x44b;" horiz-adv-x="716" 
d="M270 270q-53 0 -115 -14v-192q62 -14 115 -14q129 0 129 110t-129 110zM77 498h78v-176q69 12 117 12q207 0 207 -174t-207 -174q-84 0 -195 29v483zM639 498v-498h-78v498h78z" />
    <glyph glyph-name="afii10094" unicode="&#x44c;" horiz-adv-x="517" 
d="M270 270q-53 0 -115 -14v-192q62 -14 115 -14q129 0 129 110t-129 110zM77 498h78v-176q69 12 117 12q207 0 207 -174t-207 -174q-84 0 -195 29v483z" />
    <glyph glyph-name="afii10095" unicode="&#x44d;" horiz-adv-x="497" 
d="M203 -14q-55 0 -153 21l13 71q78 -28 137 -28q81 0 121 40t45 128h-256v63h256q-5 87 -45 127t-121 40q-59 0 -137 -28l-13 71q98 21 153 21q124 0 184 -64t60 -199t-60 -199t-184 -64z" />
    <glyph glyph-name="afii10096" unicode="&#x44e;" horiz-adv-x="803" 
d="M514 448q-82 0 -120.5 -49.5t-38.5 -149.5t38.5 -149.5t120.5 -49.5q159 0 159 199t-159 199zM514 -14q-225 0 -238 232h-121v-218h-78v498h78v-217h121q14 231 238 231q239 0 239 -263t-239 -263z" />
    <glyph glyph-name="afii10097" unicode="&#x44f;" horiz-adv-x="520" 
d="M443 0h-78v196h-123l-128 -203l-81 18l127 195q-110 33 -110 149q0 74 49.5 115.5t144.5 41.5q79 0 199 -23v-489zM247 260h118v175q-68 13 -118 13q-117 0 -117 -93q0 -95 117 -95z" />
    <glyph glyph-name="afii10071" unicode="&#x451;" horiz-adv-x="560" 
d="M304 50q88 0 184 28l15 -64q-103 -28 -203 -28q-128 0 -189 65t-61 198q0 131 60.5 197t175.5 66q124 0 174 -69q50 -68 50 -194v-17h-380q5 -97 44.5 -139.5t129.5 -42.5zM286 448q-138 0 -154 -153h299q-5 78 -38.5 115.5t-106.5 37.5zM196 740v-128h-78v128h78z
M444 740v-128h-78v128h78z" />
    <glyph glyph-name="afii10099" unicode="&#x452;" horiz-adv-x="613" 
d="M458 94v219q0 59 -24.5 85.5t-83.5 26.5q-52 0 -157 -44v-381h-78v582h-70v59h70v99h78v-99h186v-59h-186v-138q113 45 175 45q83 0 125.5 -45t42.5 -128v-224q0 -167 -49 -231q-48 -66 -162 -75l-7 64q82 8 110 57q30 49 30 187z" />
    <glyph glyph-name="afii10100" unicode="&#x453;" horiz-adv-x="403" 
d="M77 498h315v-64h-237v-434h-78v498zM172 588l99 174h83l-121 -174h-61z" />
    <glyph glyph-name="afii10101" unicode="&#x454;" horiz-adv-x="497" 
d="M294 512q56 0 153 -21l-13 -71q-78 28 -137 28q-81 0 -121 -40t-45 -127h256v-63h-256q5 -88 45 -128t121 -40q59 0 137 28l13 -71q-97 -21 -153 -21q-124 0 -184 64t-60 199t60 199t184 64z" />
    <glyph glyph-name="afii10102" unicode="&#x455;" horiz-adv-x="485" 
d="M240 -14q-86 0 -190 27l15 77q95 -40 178 -40q52 0 79.5 20.5t27.5 57.5t-21 58t-77 29l-28 4q-81 12 -118.5 49t-37.5 103q0 64 45 102.5t125 38.5q59 0 168 -23l-14 -74q-91 33 -157 33q-45 0 -66.5 -21.5t-21.5 -53.5q0 -38 22.5 -58.5t75.5 -28.5l28 -4
q85 -12 121 -50t36 -102q0 -68 -47 -106t-143 -38z" />
    <glyph glyph-name="afii10103" unicode="&#x456;" horiz-adv-x="232" 
d="M155 498v-498h-78v498h78zM158 740v-128h-84v128h84z" />
    <glyph glyph-name="afii10104" unicode="&#x457;" horiz-adv-x="232" 
d="M155 498v-498h-78v498h78zM85 740v-128h-72v128h72zM219 740v-128h-72v128h72z" />
    <glyph glyph-name="afii10105" unicode="&#x458;" horiz-adv-x="235" 
d="M80 498h78v-491q0 -216 -191 -221l-9 64q69 4 95.5 42.5t26.5 116.5v489zM161 740v-128h-84v128h84z" />
    <glyph glyph-name="afii10106" unicode="&#x459;" horiz-adv-x="836" 
d="M589 270q-53 0 -115 -14v-192q62 -14 115 -14q129 0 129 110t-129 110zM396 434h-200v-46q0 -165 -29 -261q-28 -92 -103 -142l-49 54q65 45 87 121q22 75 22 230v108h350v-176q69 12 117 12q207 0 207 -174t-207 -174q-84 0 -195 29v419z" />
    <glyph glyph-name="afii10107" unicode="&#x45a;" horiz-adv-x="855" 
d="M608 270q-53 0 -115 -14v-192q62 -14 115 -14q129 0 129 110t-129 110zM415 15v210h-260v-225h-78v498h78v-209h260v209h78v-176q69 12 117 12q207 0 207 -174t-207 -174q-84 0 -195 29z" />
    <glyph glyph-name="afii10108" unicode="&#x45b;" horiz-adv-x="613" 
d="M115 740h78v-99h186v-59h-186v-138q113 45 175 45q83 0 125.5 -45t42.5 -128v-316h-78v313q0 59 -24.5 85.5t-83.5 26.5q-52 0 -157 -44v-381h-78v582h-70v59h70v99z" />
    <glyph glyph-name="afii10109" unicode="&#x45c;" horiz-adv-x="526" 
d="M77 498h78v-498h-78v498zM283 266l223 -258l-89 -16l-229 270l200 236h98zM212 588l99 174h83l-121 -174h-61z" />
    <glyph glyph-name="afii10110" unicode="&#x45e;" horiz-adv-x="528" 
d="M104 -150q45 0 74 23q30 23 59 103l10 27h-49l-187 495h87l169 -460l163 460h87l-207 -545q-34 -91 -79.5 -129t-119.5 -38q-32 0 -52 4l6 64q17 -4 39 -4zM97 701l52 36q36 -60 115 -60t115 60l52 -36q-54 -86 -167 -86t-167 86z" />
    <glyph glyph-name="afii10193" unicode="&#x45f;" horiz-adv-x="570" 
d="M415 498h78v-498h-169v-180h-78v180h-169v498h78v-434h260v434z" />
    <glyph glyph-name="afii10050" unicode="&#x490;" horiz-adv-x="534" 
d="M512 810v-183h-337v-627h-87v700h349l7 110h68z" />
    <glyph glyph-name="afii10098" unicode="&#x491;" horiz-adv-x="403" 
d="M331 615h61v-181h-237v-434h-78v498h247z" />
    <glyph glyph-name="uni1E9E" unicode="&#x1e9e;" horiz-adv-x="639" 
d="M544 543l-171 -149q108 -7 159.5 -56t51.5 -145q0 -97 -57 -150q-58 -53 -204 -53q-2 0 -11 0.5t-26 1t-34 0.5v73q42 -2 67 -2q97 0 136 31t39 100q0 71 -41.5 101t-134.5 30h-66v60l200 175q-15 42 -45.5 61.5t-92.5 19.5q-78 0 -112.5 -36.5t-34.5 -119.5v-485h-87
v483q0 120 59.5 175.5t175.5 55.5q109 0 164 -40.5t65 -130.5z" />
    <glyph glyph-name="uni2010" unicode="&#x2010;" horiz-adv-x="478" 
d="M390 297v-70h-302v70h302z" />
    <glyph glyph-name="uni2011" unicode="&#x2011;" horiz-adv-x="478" 
d="M390 297v-70h-302v70h302z" />
    <glyph glyph-name="figuredash" unicode="&#x2012;" horiz-adv-x="671" 
d="M583 367v-60h-495v60h495z" />
    <glyph glyph-name="endash" unicode="&#x2013;" horiz-adv-x="671" 
d="M583 292v-60h-495v60h495z" />
    <glyph glyph-name="emdash" unicode="&#x2014;" horiz-adv-x="851" 
d="M763 292v-60h-675v60h675z" />
    <glyph glyph-name="quoteleft" unicode="&#x2018;" horiz-adv-x="142" 
d="M121 700l-9 -241h-91l40 241h60z" />
    <glyph glyph-name="quoteright" unicode="&#x2019;" horiz-adv-x="142" 
d="M21 459l9 241h91l-40 -241h-60z" />
    <glyph glyph-name="quotesinglbase" unicode="&#x201a;" horiz-adv-x="142" 
d="M21 -137l9 241h91l-40 -241h-60z" />
    <glyph glyph-name="quotedblleft" unicode="&#x201c;" horiz-adv-x="291" 
d="M270 700l-9 -241h-91l40 241h60zM121 700l-9 -241h-91l40 241h60z" />
    <glyph glyph-name="quotedblright" unicode="&#x201d;" horiz-adv-x="291" 
d="M21 459l9 241h91l-40 -241h-60zM170 459l9 241h91l-40 -241h-60z" />
    <glyph glyph-name="quotedblbase" unicode="&#x201e;" horiz-adv-x="291" 
d="M21 -137l9 241h91l-40 -241h-60zM170 -137l9 241h91l-40 -241h-60z" />
    <glyph glyph-name="dagger" unicode="&#x2020;" horiz-adv-x="532" 
d="M471 455v-64h-166v-541h-78v541h-166v64h166v245h78v-245h166z" />
    <glyph glyph-name="daggerdbl" unicode="&#x2021;" horiz-adv-x="532" 
d="M305 391v-232h166v-64h-166v-245h-78v245h-166v64h166v232h-166v64h166v245h78v-245h166v-64h-166z" />
    <glyph glyph-name="bullet" unicode="&#x2022;" horiz-adv-x="538" 
d="M269 156q-59 0 -87.5 25.5t-28.5 80.5t28.5 80.5t87.5 25.5q116 0 116 -106t-116 -106z" />
    <glyph glyph-name="ellipsis" unicode="&#x2026;" horiz-adv-x="792" 
d="M174 107v-107h-84v107h84zM438 107v-107h-84v107h84zM702 107v-107h-84v107h84z" />
    <glyph glyph-name="perthousand" unicode="&#x2030;" horiz-adv-x="1349" 
d="M613 660h70l-361 -660h-70zM232 674q171 0 171 -189t-171 -189t-171 189t171 189zM232 353q104 0 104 132t-104 132t-104 -132t104 -132zM703 -14q-171 0 -171 189t171 189t171 -189t-171 -189zM703 307q-104 0 -104 -132t104 -132t104 132t-104 132zM1117 -14
q-171 0 -171 189t171 189t171 -189t-171 -189zM1117 307q-104 0 -104 -132t104 -132t104 132t-104 132z" />
    <glyph glyph-name="guilsinglleft" unicode="&#x2039;" horiz-adv-x="248" 
d="M152 450h74l-128 -188l128 -188h-74l-130 188z" />
    <glyph glyph-name="guilsinglright" unicode="&#x203a;" horiz-adv-x="248" 
d="M22 74l128 188l-128 188h74l130 -188l-130 -188h-74z" />
    <glyph glyph-name="fraction" unicode="&#x2044;" horiz-adv-x="363" 
d="M29 -40l230 740h75l-230 -740h-75z" />
    <glyph glyph-name="Euro" unicode="&#x20ac;" horiz-adv-x="711" 
d="M165 330q0 3 0.5 8t1 15t0.5 18h-111l9 61h107q38 242 289 242q68 0 190 -22l-13 -78q-109 31 -175 31q-175 0 -206 -173h295l-9 -61h-292q-1 -11 -1 -41q0 -28 1 -37h281l-11 -61h-264q14 -90 64 -133.5t142 -43.5q67 0 176 31l12 -75q-107 -25 -190 -25
q-253 0 -290 246h-114l9 61h100q-1 9 -1 37z" />
    <glyph glyph-name="uni20B4" unicode="&#x20b4;" horiz-adv-x="724" 
d="M654 431v-61h-584v61h421q13 25 13 60q0 114 -137 114q-72 0 -192 -36l-12 77q122 28 205 28q221 0 221 -183q0 -30 -11 -60h76zM70 231v61h584v-61h-421q-12 -29 -12 -58q0 -118 150 -118q104 0 220 46l13 -80q-138 -35 -233 -35q-235 0 -235 188q0 26 9 57h-75z" />
    <glyph glyph-name="uni20B6" unicode="&#x20b6;" horiz-adv-x="649" 
d="M231 130v-130h-82v130h-99v61h99v69h-99v69h99v316q130 29 210 29q250 0 250 -207t-250 -207h-128v-69h195v-61h-195zM231 592v-263h126q167 0 167 138t-167 138q-47 0 -126 -13z" />
    <glyph glyph-name="uni20B6" unicode="&#x20cf;" horiz-adv-x="649" 
d="M231 130v-130h-82v130h-99v61h99v69h-99v69h99v316q130 29 210 29q250 0 250 -207t-250 -207h-128v-69h195v-61h-195zM231 592v-263h126q167 0 167 138t-167 138q-47 0 -126 -13z" />
    <glyph glyph-name="uni20B6" unicode="&#x20ce;" horiz-adv-x="649" 
d="M231 130v-130h-82v130h-99v61h99v69h-99v69h99v316q130 29 210 29q250 0 250 -207t-250 -207h-128v-69h195v-61h-195zM231 592v-263h126q167 0 167 138t-167 138q-47 0 -126 -13z" />
    <glyph glyph-name="uni20B6" unicode="&#x20cd;" horiz-adv-x="649" 
d="M231 130v-130h-82v130h-99v61h99v69h-99v69h99v316q130 29 210 29q250 0 250 -207t-250 -207h-128v-69h195v-61h-195zM231 592v-263h126q167 0 167 138t-167 138q-47 0 -126 -13z" />
    <glyph glyph-name="uni20B6" unicode="&#x20cc;" horiz-adv-x="649" 
d="M231 130v-130h-82v130h-99v61h99v69h-99v69h99v316q130 29 210 29q250 0 250 -207t-250 -207h-128v-69h195v-61h-195zM231 592v-263h126q167 0 167 138t-167 138q-47 0 -126 -13z" />
    <glyph glyph-name="uni20B6" unicode="&#x20cb;" horiz-adv-x="649" 
d="M231 130v-130h-82v130h-99v61h99v69h-99v69h99v316q130 29 210 29q250 0 250 -207t-250 -207h-128v-69h195v-61h-195zM231 592v-263h126q167 0 167 138t-167 138q-47 0 -126 -13z" />
    <glyph glyph-name="uni20B6" unicode="&#x20ca;" horiz-adv-x="649" 
d="M231 130v-130h-82v130h-99v61h99v69h-99v69h99v316q130 29 210 29q250 0 250 -207t-250 -207h-128v-69h195v-61h-195zM231 592v-263h126q167 0 167 138t-167 138q-47 0 -126 -13z" />
    <glyph glyph-name="uni20B6" unicode="&#x20c9;" horiz-adv-x="649" 
d="M231 130v-130h-82v130h-99v61h99v69h-99v69h99v316q130 29 210 29q250 0 250 -207t-250 -207h-128v-69h195v-61h-195zM231 592v-263h126q167 0 167 138t-167 138q-47 0 -126 -13z" />
    <glyph glyph-name="uni20B6" unicode="&#x20c8;" horiz-adv-x="649" 
d="M231 130v-130h-82v130h-99v61h99v69h-99v69h99v316q130 29 210 29q250 0 250 -207t-250 -207h-128v-69h195v-61h-195zM231 592v-263h126q167 0 167 138t-167 138q-47 0 -126 -13z" />
    <glyph glyph-name="uni20B6" unicode="&#x20c7;" horiz-adv-x="649" 
d="M231 130v-130h-82v130h-99v61h99v69h-99v69h99v316q130 29 210 29q250 0 250 -207t-250 -207h-128v-69h195v-61h-195zM231 592v-263h126q167 0 167 138t-167 138q-47 0 -126 -13z" />
    <glyph glyph-name="uni20B6" unicode="&#x20c6;" horiz-adv-x="649" 
d="M231 130v-130h-82v130h-99v61h99v69h-99v69h99v316q130 29 210 29q250 0 250 -207t-250 -207h-128v-69h195v-61h-195zM231 592v-263h126q167 0 167 138t-167 138q-47 0 -126 -13z" />
    <glyph glyph-name="uni20B6" unicode="&#x20c5;" horiz-adv-x="649" 
d="M231 130v-130h-82v130h-99v61h99v69h-99v69h99v316q130 29 210 29q250 0 250 -207t-250 -207h-128v-69h195v-61h-195zM231 592v-263h126q167 0 167 138t-167 138q-47 0 -126 -13z" />
    <glyph glyph-name="uni20B6" unicode="&#x20c4;" horiz-adv-x="649" 
d="M231 130v-130h-82v130h-99v61h99v69h-99v69h99v316q130 29 210 29q250 0 250 -207t-250 -207h-128v-69h195v-61h-195zM231 592v-263h126q167 0 167 138t-167 138q-47 0 -126 -13z" />
    <glyph glyph-name="uni20B6" unicode="&#x20c3;" horiz-adv-x="649" 
d="M231 130v-130h-82v130h-99v61h99v69h-99v69h99v316q130 29 210 29q250 0 250 -207t-250 -207h-128v-69h195v-61h-195zM231 592v-263h126q167 0 167 138t-167 138q-47 0 -126 -13z" />
    <glyph glyph-name="uni20B6" unicode="&#x20c2;" horiz-adv-x="649" 
d="M231 130v-130h-82v130h-99v61h99v69h-99v69h99v316q130 29 210 29q250 0 250 -207t-250 -207h-128v-69h195v-61h-195zM231 592v-263h126q167 0 167 138t-167 138q-47 0 -126 -13z" />
    <glyph glyph-name="uni20B6" unicode="&#x20c1;" horiz-adv-x="649" 
d="M231 130v-130h-82v130h-99v61h99v69h-99v69h99v316q130 29 210 29q250 0 250 -207t-250 -207h-128v-69h195v-61h-195zM231 592v-263h126q167 0 167 138t-167 138q-47 0 -126 -13z" />
    <glyph glyph-name="uni20B6" unicode="&#x20c0;" horiz-adv-x="649" 
d="M231 130v-130h-82v130h-99v61h99v69h-99v69h99v316q130 29 210 29q250 0 250 -207t-250 -207h-128v-69h195v-61h-195zM231 592v-263h126q167 0 167 138t-167 138q-47 0 -126 -13z" />
    <glyph glyph-name="uni20B6" unicode="&#x20bf;" horiz-adv-x="649" 
d="M231 130v-130h-82v130h-99v61h99v69h-99v69h99v316q130 29 210 29q250 0 250 -207t-250 -207h-128v-69h195v-61h-195zM231 592v-263h126q167 0 167 138t-167 138q-47 0 -126 -13z" />
    <glyph glyph-name="uni20B6" unicode="&#x20be;" horiz-adv-x="649" 
d="M231 130v-130h-82v130h-99v61h99v69h-99v69h99v316q130 29 210 29q250 0 250 -207t-250 -207h-128v-69h195v-61h-195zM231 592v-263h126q167 0 167 138t-167 138q-47 0 -126 -13z" />
    <glyph glyph-name="uni20B6" unicode="&#x20bd;" horiz-adv-x="649" 
d="M231 130v-130h-82v130h-99v61h99v69h-99v69h99v316q130 29 210 29q250 0 250 -207t-250 -207h-128v-69h195v-61h-195zM231 592v-263h126q167 0 167 138t-167 138q-47 0 -126 -13z" />
    <glyph glyph-name="uni20B6" unicode="&#x20bc;" horiz-adv-x="649" 
d="M231 130v-130h-82v130h-99v61h99v69h-99v69h99v316q130 29 210 29q250 0 250 -207t-250 -207h-128v-69h195v-61h-195zM231 592v-263h126q167 0 167 138t-167 138q-47 0 -126 -13z" />
    <glyph glyph-name="uni20B6" unicode="&#x20bb;" horiz-adv-x="649" 
d="M231 130v-130h-82v130h-99v61h99v69h-99v69h99v316q130 29 210 29q250 0 250 -207t-250 -207h-128v-69h195v-61h-195zM231 592v-263h126q167 0 167 138t-167 138q-47 0 -126 -13z" />
    <glyph glyph-name="uni20B6" unicode="&#x20ba;" horiz-adv-x="649" 
d="M231 130v-130h-82v130h-99v61h99v69h-99v69h99v316q130 29 210 29q250 0 250 -207t-250 -207h-128v-69h195v-61h-195zM231 592v-263h126q167 0 167 138t-167 138q-47 0 -126 -13z" />
    <glyph glyph-name="uni20B6" unicode="&#x20b9;" horiz-adv-x="649" 
d="M231 130v-130h-82v130h-99v61h99v69h-99v69h99v316q130 29 210 29q250 0 250 -207t-250 -207h-128v-69h195v-61h-195zM231 592v-263h126q167 0 167 138t-167 138q-47 0 -126 -13z" />
    <glyph glyph-name="uni20B6" unicode="&#x20b7;" horiz-adv-x="649" 
d="M231 130v-130h-82v130h-99v61h99v69h-99v69h99v316q130 29 210 29q250 0 250 -207t-250 -207h-128v-69h195v-61h-195zM231 592v-263h126q167 0 167 138t-167 138q-47 0 -126 -13z" />
    <glyph glyph-name="afii61352" unicode="&#x2116;" horiz-adv-x="1148" 
d="M1076 199v-57h-336v57h336zM908 674q185 0 185 -188t-185 -188t-185 188t185 188zM820 585q-28 -31 -28 -99t28 -99q29 -32 88 -32q58 0 87 32t29 99t-29 99t-87 32q-59 0 -88 -32zM542 700h86v-700h-108l-301 498q-37 62 -50 92q5 -63 5 -102v-488h-86v700h108l301 -498
q37 -62 50 -92q-5 63 -5 102v488z" />
    <glyph glyph-name="trademark" unicode="&#x2122;" horiz-adv-x="1014" 
d="M421 700v-50h-130v-335h-60v335h-130v50h320zM697 401l6.5 19.5t8.5 24t5 12.5l94 243h75l27 -385h-59l-13 231q-2 50 -2 80l-27 -79l-90 -232h-50l-89 232l-16 42q-11 31 -12 37q0 -67 -1 -80l-14 -231h-58l26 385h76l94 -243q8 -20 19 -56z" />
    <glyph glyph-name="partialdiff" unicode="&#x2202;" horiz-adv-x="604" 
d="M449 465q-37 151 -141 270l68 43q173 -209 173 -498q0 -294 -255 -294q-244 0 -244 260q0 130 55 195t175 65q72 0 169 -41zM130 246q0 -99 40 -147.5t124 -48.5q174 0 174 225q0 66 -8 122q-88 45 -174 45q-87 0 -121.5 -46.5t-34.5 -149.5z" />
    <glyph glyph-name="product" unicode="&#x220f;" horiz-adv-x="800" 
d="M722 700v-73h-60v-777h-87v777h-350v-777h-87v777h-60v73h644z" />
    <glyph glyph-name="summation" unicode="&#x2211;" horiz-adv-x="608" 
d="M168 627l242 -343l-255 -361h403v-73h-508v73l254 361l-242 343v73h480v-73h-374z" />
    <glyph glyph-name="minus" unicode="&#x2212;" horiz-adv-x="578" 
d="M71 302v64h436v-64h-436z" />
    <glyph glyph-name="uni2215" unicode="&#x2215;" horiz-adv-x="399" 
d="M296 700h81l-341 -870h-81z" />
    <glyph glyph-name="radical" unicode="&#x221a;" horiz-adv-x="612" 
d="M573 660v-68h-74l-191 -608h-92l-124 392h-53v68h122l70 -230q12 -39 31 -121q16 72 35 135l130 432h146z" />
    <glyph glyph-name="infinity" unicode="&#x221e;" horiz-adv-x="976" 
d="M406 272l32 61l-32 61q-33 63 -63 84q-28 22 -76 22q-62 0 -91 -41t-29 -126t29 -126t91 -41q47 0 76 21q30 23 63 85zM570 394l-32 -61l32 -61q32 -61 62 -85q30 -21 77 -21q62 0 91 41t29 126t-29 126t-91 41q-48 0 -77 -22t-62 -84zM510 229l-22 42l-22 -42
q-34 -65 -79.5 -96t-119.5 -31q-197 0 -197 231t197 231q74 0 119.5 -31t79.5 -96l22 -42l22 42q34 65 79.5 96t119.5 31q197 0 197 -231t-197 -231q-74 0 -119.5 31t-79.5 96z" />
    <glyph glyph-name="integral" unicode="&#x222b;" horiz-adv-x="357" 
d="M154 184l-35 81q-52 120 -52 200q0 209 211 209v-68q-70 0 -97.5 -33.5t-27.5 -108.5q0 -63 50 -178l35 -81q52 -120 52 -200q0 -209 -211 -209v68q70 0 97.5 33.5t27.5 108.5q0 63 -50 178z" />
    <glyph glyph-name="approxequal" unicode="&#x2248;" horiz-adv-x="578" 
d="M304 469q54 -26 94 -26q30 0 51 12t41 42l28 -56q-53 -62 -120 -62q-47 0 -124 31q-54 26 -94 26q-30 0 -51 -12t-41 -42l-28 56q53 62 120 62q47 0 124 -31zM304 259q54 -26 94 -26q30 0 51 12t41 42l28 -56q-53 -62 -120 -62q-47 0 -124 31q-54 26 -94 26
q-30 0 -51 -12t-41 -42l-28 56q53 62 120 62q47 0 124 -31z" />
    <glyph glyph-name="notequal" unicode="&#x2260;" horiz-adv-x="578" 
d="M71 407v64h233l59 176h64l-59 -176h139v-64h-161l-49 -146h210v-64h-232l-60 -176h-64l60 176h-140v64h161l50 146h-211z" />
    <glyph glyph-name="lessequal" unicode="&#x2264;" horiz-adv-x="578" 
d="M71 253l436 -123v-66l-436 123v66zM507 530l-356 -94l356 -94v-68l-436 123v78l436 123v-68z" />
    <glyph glyph-name="greaterequal" unicode="&#x2265;" horiz-adv-x="578" 
d="M507 187l-436 -123v66l436 123v-66zM71 274v68l356 94l-356 94v68l436 -123v-78z" />
    <glyph glyph-name="lozenge" unicode="&#x25ca;" horiz-adv-x="632" 
d="M326 724l262 -396l-262 -396h-20l-262 396l262 396h20zM125 328l191 -289l191 289l-191 289z" />
    <glyph glyph-name="uniF400" unicode="&#xf400;" horiz-adv-x="0" 
d="M-361 588l99 174h83l-121 -174h-61z" />
    <glyph glyph-name="uniF401" unicode="&#xf401;" horiz-adv-x="0" 
d="M-454 740l99 174h89l-121 -174h-67z" />
    <glyph glyph-name="uniF408" unicode="&#xf408;" horiz-adv-x="500" 
d="M198 914h104l105 -174h-65l-92 125l-92 -125h-65z" />
    <glyph glyph-name="uniF40C" unicode="&#xf40c;" horiz-adv-x="500" 
d="M250 941q113 0 113 -112t-113 -112t-113 112t113 112zM203 881q-15 -17 -15 -52t15 -52q15 -16 47 -16t47 16q15 17 15 52t-15 52q-15 16 -47 16t-47 -16z" />
    <glyph glyph-name="uniF40D" unicode="&#xf40d;" horiz-adv-x="500" 
d="M417 889l35 -51q-31 -38 -56 -52.5t-63 -14.5q-44 0 -99 29q-46 24 -69 24q-26 0 -43.5 -11.5t-38.5 -42.5l-35 51q31 38 56 52.5t63 14.5q44 0 99 -29q46 -24 69 -24q27 0 44 11.5t38 42.5z" />
    <glyph glyph-name="uniF6BA" unicode="&#xf6ba;" horiz-adv-x="478" 
d="M390 372v-70h-302v70h302z" />
    <glyph glyph-name="uniF6BB" unicode="&#xf6bb;" horiz-adv-x="671" 
d="M583 367v-60h-495v60h495z" />
    <glyph glyph-name="uniF6BC" unicode="&#xf6bc;" horiz-adv-x="851" 
d="M763 367v-60h-675v60h675z" />
    <glyph glyph-name="uniF6C9" unicode="&#xf6c9;" horiz-adv-x="500" 
d="M156 740l99 174h89l-121 -174h-67z" />
    <glyph glyph-name="uniF6CA" unicode="&#xf6ca;" horiz-adv-x="500" 
d="M342 914h65l-105 -174h-104l-105 174h65l92 -125z" />
    <glyph glyph-name="uniF6CB" unicode="&#xf6cb;" horiz-adv-x="500" 
d="M157 891v-128h-78v128h78zM421 891v-128h-78v128h78z" />
    <glyph glyph-name="uniF6CE" unicode="&#xf6ce;" horiz-adv-x="500" 
d="M277 740l-121 174h89l99 -174h-67z" />
    <glyph glyph-name="uniF6D1" unicode="&#xf6d1;" horiz-adv-x="500" 
d="M70 847l56 39q39 -65 124 -65t124 65l56 -39q-58 -93 -180 -93t-180 93z" />
    <glyph glyph-name="uniF6D4" unicode="&#xf6d4;" horiz-adv-x="500" 
d="M83 701l52 36q36 -60 115 -60t115 60l52 -36q-54 -86 -167 -86t-167 86z" />
    <glyph glyph-name="uniF8FF" unicode="&#xf8ff;" horiz-adv-x="790" 
d="M569 788q1 -5 1 -23q0 -71 -51 -122q-53 -51 -97 -51l-14 2q-1 4 -1 19q0 58 47 111q48 52 115 64zM735 197q-55 -119 -100 -167q-44 -47 -100 -47q-28 0 -64 16q-38 16 -60 16q-25 0 -64 -16t-62 -16q-64 0 -126 86q-104 143 -104 291q0 101 59 172q58 70 160 70
q27 0 73 -17q48 -17 63 -17q14 0 60 17q48 17 74 17q104 0 175 -80q-98 -63 -98 -160q0 -114 114 -165z" />
    <glyph glyph-name="uniFEFF" unicode="&#xfeff;" horiz-adv-x="0" 
 />
    <glyph glyph-name="NULL" horiz-adv-x="0" 
 />
    <glyph glyph-name="CR" horiz-adv-x="333" 
 />
    <glyph glyph-name="afii10065.ss04" horiz-adv-x="580" 
d="M425 94v310q-100 44 -153 44q-76 0 -109 -45t-33 -154t33 -154t109 -45q53 0 153 44zM427 498h76v-498h-76v32q-99 -46 -170 -46q-104 0 -155.5 62.5t-51.5 200.5t51.5 200.5t155.5 62.5q71 0 170 -46v32z" />
    <glyph glyph-name="afii10043.ss04" horiz-adv-x="948" 
d="M781 311v389h87v-390q0 -164 -84 -240q-83 -75 -268 -83q8 -94 29 -160l-91 -9q-17 68 -21 169q-186 7 -269.5 83t-83.5 240v390h87v-389q0 -133 61 -190q61 -56 202 -61v640h87v-640q158 2 214 73q50 65 50 178z" />
    <glyph glyph-name="afii10042.ss04" horiz-adv-x="948" 
d="M430 700h87v-640q158 2 214 73q50 65 50 178v389h87v-390q0 -173 -94 -249q-93 -75 -300 -75q-206 0 -301 75q-93 77 -93 249v390h87v-389q0 -133 61 -190q61 -56 202 -61v640z" />
    <glyph glyph-name="t.ss04" horiz-adv-x="368" 
d="M20 434v64h125v193h78v-193h125v-64h-125v-434h-78v434h-125z" />
    <glyph glyph-name="afii10067.ss04" horiz-adv-x="600" 
d="M550 200q0 -107 -58.5 -160.5t-182.5 -53.5q-108 0 -232 34v512q0 108 55 165t162 57q110 0 163.5 -51.5t53.5 -144.5q0 -111 -80 -161q119 -45 119 -197zM433 555q0 64 -34.5 99.5t-104.5 35.5q-67 0 -103 -40.5t-36 -119.5v-111h138q140 0 140 136zM470 203
q0 152 -163 152h-152v-287q66 -18 152 -18q163 0 163 153z" />
    <glyph glyph-name="afii10059.ss04" horiz-adv-x="1089" 
d="M641 338v-263q68 -16 129 -16q189 0 189 147t-189 147q-56 0 -129 -15zM515 28l-283 470q-37 62 -50 92q5 -63 5 -102v-488h-86v700h108l301 -498q37 -62 50 -92q-5 63 -5 102v488h86v-286q79 12 132 12q276 0 276 -220t-276 -220q-45 0 -122 11q-78 11 -136 31z" />
    <glyph glyph-name="a.ss04" horiz-adv-x="580" 
d="M425 94v310q-100 44 -153 44q-76 0 -109 -45t-33 -154t33 -154t109 -45q53 0 153 44zM427 498h76v-498h-76v32q-99 -46 -170 -46q-104 0 -155.5 62.5t-51.5 200.5t51.5 200.5t155.5 62.5q71 0 170 -46v32z" />
    <glyph glyph-name="afii10084.ss04" horiz-adv-x="372" 
d="M22 434v64h125v193h78v-193h125v-64h-125v-434h-78v434h-125z" />
    <glyph glyph-name="afii10021.ss04" horiz-adv-x="723" 
d="M88 16v668q114 30 225 30q191 0 273 -94q82 -92 82 -270q0 -177 -82 -271q-82 -93 -273 -93q-111 0 -225 30zM175 626v-552q65 -15 137 -15q141 0 203.5 70.5t62.5 220.5t-62.5 220.5t-203.5 70.5q-73 0 -137 -15z" />
    <glyph glyph-name="afii10145.ss04" horiz-adv-x="726" 
d="M559 248v452h87v-454q0 -128 -58.5 -189.5t-182.5 -69.5l2 -137h-88l2 137q-124 8 -182.5 69.5t-58.5 189.5v454h87v-452q0 -108 45 -149q46 -40 151 -40q106 0 150 40q46 40 46 149z" />
    <glyph glyph-name="afii10040.ss04" horiz-adv-x="726" 
d="M559 248v452h87v-454q0 -82 -24 -136l115 -77l-45 -68l-118 79q-65 -58 -211 -58t-214.5 61t-68.5 199v454h87v-452q0 -108 45 -149q46 -40 151 -40q106 0 150 40q46 40 46 149z" />
    <glyph glyph-name="cyracute" horiz-adv-x="500" 
d="M159 588l99 174h83l-121 -174h-61z" />
    <glyph glyph-name="afii10098.ss04" horiz-adv-x="238" 
d="M80 203v273q0 137 51 203.5t157 71.5h9l8 120h57v-187q-21 1 -63 1q-71 0 -106 -49t-35 -161v-273q0 -147 -23.5 -246t-79.5 -170l-67 32q48 57 70 147.5t22 237.5z" />
    <glyph glyph-name="afii10076.ss04" horiz-adv-x="526" 
d="M77 740h78v-740h-78v740zM283 266l223 -258l-89 -16l-229 270l200 236h98z" />
    <glyph glyph-name="afii10037.ss04" horiz-adv-x="651" 
d="M325 351h1l220 349h104l-281 -436v-264h-87v264l-281 436h104z" />
    <glyph glyph-name="afii10041.ss04" horiz-adv-x="649" 
d="M324 358h1q101 0 141 42q41 43 41 149v151h87v-154q0 -123 -59 -188t-167 -71v-287h-87v287q-108 6 -167 71t-59 188v154h87v-151q0 -106 41 -149q41 -42 141 -42z" />
    <glyph glyph-name="afii10068.ss04" horiz-adv-x="238" 
d="M158 475v-273q0 -147 -23.5 -246t-79.5 -170l-67 32q48 57 70 147.5t22 237.5v273q0 137 51 203.5t157 71.5l74 3v-70q-20 1 -63 1q-71 0 -106 -49t-35 -161z" />
    <glyph glyph-name="afii10069.ss04" horiz-adv-x="580" 
d="M425 94v310q-100 44 -153 44q-76 0 -109 -45t-33 -154t33 -154t109 -45q53 0 153 44zM257 -14q-104 0 -155.5 62.5t-51.5 200.5t51.5 200.5t155.5 62.5q71 0 168 -45v273h78v-740h-76v32q-99 -46 -170 -46z" />
    <glyph glyph-name="afii10073.ss04" horiz-adv-x="505" 
d="M461 -11q0 -203 -258 -203q-83 0 -196 27l13 73q94 -36 182 -36q96 0 137.5 34.5t41.5 105.5t-42.5 105.5t-139.5 34.5q-55 0 -102 -3v68q62 -2 102 -2q160 0 160 127q0 128 -151 128q-71 0 -164 -28l-12 71q111 21 171 21q124 0 179 -47.5t55 -139.5q0 -121 -85 -158
q109 -43 109 -178z" />
    <glyph glyph-name="afii10068.ss04.alt" horiz-adv-x="384" 
d="M373 509l-2 -70q-43 3 -74 3q-73 0 -142 -18v-424h-78v478q98 34 205 34q52 0 91 -3z" />
    <glyph glyph-name="afii10069.ss04.alt" horiz-adv-x="604" 
d="M449 465q-37 151 -141 270l68 43q173 -209 173 -498q0 -294 -255 -294q-244 0 -244 260q0 130 55 195t175 65q72 0 169 -41zM130 246q0 -99 40 -147.5t124 -48.5q174 0 174 225q0 66 -8 122q-88 45 -174 45q-87 0 -121.5 -46.5t-34.5 -149.5z" />
    <glyph glyph-name="afii10074.ss04" horiz-adv-x="575" 
d="M77 159v339h78v-336q0 -59 24.5 -85.5t83.5 -26.5q52 0 157 44v404h78v-498h-76v32q-113 -46 -177 -46q-83 0 -125.5 45t-42.5 128z" />
    <glyph glyph-name="afii10075.ss04" horiz-adv-x="575" 
d="M77 159v339h78v-336q0 -59 24.5 -85.5t83.5 -26.5q52 0 157 44v404h78v-498h-76v32q-113 -46 -177 -46q-83 0 -125.5 45t-42.5 128zM121 701l52 36q36 -60 115 -60t115 60l52 -36q-54 -86 -167 -86t-167 86z" />
    <glyph glyph-name="afii10077.ss04" horiz-adv-x="528" 
d="M430 0l-166 405l-166 -405h-87l210 498h86l210 -498h-87z" />
    <glyph glyph-name="afii10081.ss04" horiz-adv-x="575" 
d="M498 339v-339h-78v336q0 59 -24.5 85.5t-83.5 26.5q-52 0 -157 -44v-404h-78v498h76v-32q113 46 177 46q83 0 125.5 -45t42.5 -128z" />
    <glyph glyph-name="afii10088.ss04" horiz-adv-x="595" 
d="M497 -140l-8 140l-67 32q-113 -46 -177 -46q-83 0 -125.5 45t-42.5 128v339h78v-336q0 -59 24.5 -85.5t83.5 -26.5q52 0 157 44v404h78v-425l64 -30v-183h-65z" />
    <glyph glyph-name="afii10090.ss04" horiz-adv-x="870" 
d="M396 498h78v-336q0 -59 21.5 -85.5t76.5 -26.5q47 0 143 44v404h78v-498h-76v32q-96 -46 -163 -46q-85 0 -127 56q-118 -56 -182 -56q-168 0 -168 173v339h78v-336q0 -59 23 -85.5t81 -26.5q52 0 144 46q-7 29 -7 63v339z" />
    <glyph glyph-name="afii10091.ss04" horiz-adv-x="890" 
d="M792 -140l-8 140l-67 32q-96 -46 -163 -46q-85 0 -127 56q-118 -56 -182 -56q-168 0 -168 173v339h78v-336q0 -59 23 -85.5t81 -26.5q52 0 144 46q-7 29 -7 63v339h78v-336q0 -59 21.5 -85.5t76.5 -26.5q47 0 143 44v404h78v-425l64 -30v-183h-65z" />
    <glyph glyph-name="afii10100.ss04" horiz-adv-x="384" 
d="M373 509l-2 -70q-43 3 -74 3q-73 0 -142 -18v-424h-78v478q98 34 205 34q52 0 91 -3zM156 588l99 174h83l-121 -174h-61z" />
    <glyph glyph-name="afii10098.ss04.alt" horiz-adv-x="384" 
d="M77 0v478q98 34 205 34h24l6 103h61v-176q-43 3 -76 3q-73 0 -142 -18v-424h-78z" />
    <glyph glyph-name="afii10106.ss04" horiz-adv-x="809" 
d="M430 0l-166 405l-166 -405h-87l210 498h86l79 -187q126 23 178 23q207 0 207 -174t-207 -174q-58 0 -134 14zM562 270q-55 0 -150 -22l82 -194q23 -4 68 -4q129 0 129 110t-129 110z" />
    <glyph glyph-name="cyrAcute" horiz-adv-x="500" 
d="M156 740l99 174h89l-121 -174h-67z" />
    <glyph glyph-name="afii10109.ss04" horiz-adv-x="526" 
d="M77 740h78v-740h-78v740zM283 266l223 -258l-89 -16l-229 270l200 236h98zM230 588l99 174h83l-121 -174h-61z" />
    <glyph glyph-name="afii10044.ss04" horiz-adv-x="623" 
d="M84 0v66h480v-66h-480zM364 472q-53 0 -115 -14v-192q62 -14 115 -14q129 0 129 110t-129 110zM171 217v419h-149v64h227v-176q69 12 117 12q207 0 207 -174t-207 -174q-84 0 -195 29z" />
    <glyph glyph-name="afii10068_afii10103.ss04_" horiz-adv-x="464" 
d="M390 498v-498h-78v498h78zM158 468v-266q0 -147 -23.5 -246t-79.5 -170l-67 32q48 57 70 147.5t22 237.5v266q0 142 53.5 210t169.5 72l66 2v-70q-19 1 -58 1q-82 0 -117.5 -49.5t-35.5 -166.5z" />
    <glyph glyph-name="afii10046.ss04" horiz-adv-x="540" 
d="M88 0v66h393v-66h-393zM281 472q-53 0 -115 -14v-192q62 -14 115 -14q129 0 129 110t-129 110zM88 700h78v-176q69 12 117 12q207 0 207 -174t-207 -174q-84 0 -195 29v483z" />
    <glyph glyph-name="nbspace" horiz-adv-x="230" 
 />
    <glyph glyph-name="afii10031.ss04" horiz-adv-x="716" 
d="M542 700h86v-700h-108l-301 498q-37 62 -50 92q5 -63 5 -102v-488h-86v700h108l301 -498q37 -62 50 -92q-5 63 -5 102v488z" />
    <glyph glyph-name="at.ss01" horiz-adv-x="1028" 
d="M505 -14q-115 0 -158 42q-44 44 -44 114q0 71 44 113q43 43 158 43q45 0 121 -14v48q0 60 -24 88t-89 28q-59 0 -159 -33l-13 71q122 26 174 26q108 0 148 -49q41 -49 41 -129v-261q174 41 174 236q0 342 -363 342q-94 0 -157 -19t-111 -63q-94 -87 -94 -320
q0 -219 84 -311q84 -91 278 -91q148 0 283 34l12 -62q-175 -35 -295 -35q-213 0 -320 101q-112 106 -112 364q0 264 116 368q111 97 316 97q216 0 323 -103.5t107 -301.5q0 -171 -108 -247t-332 -76zM506 234q-71 0 -97 -22.5t-26 -69.5t26 -69.5t97 -22.5q54 0 120 8v160
q-68 16 -120 16z" />
    <glyph glyph-name="b.ss02" horiz-adv-x="671" 
d="M616 191q0 -85 -50 -140q-59 -65 -224 -65q-120 0 -254 30v668q133 30 233 30q143 0 199 -48q55 -48 55 -137q0 -115 -88 -155q129 -41 129 -183zM175 626v-227h144q91 0 130.5 30t39.5 91q0 60 -39 90.5t-131 30.5q-57 0 -144 -15zM526 193q0 63 -41 98q-41 36 -146 36
h-164v-253q89 -15 164 -15q101 0 144 33.5t43 100.5z" />
    <glyph glyph-name="c.ss02" horiz-adv-x="624" 
d="M368 714q71 0 201 -23l-13 -83q-117 33 -186 33q-118 0 -171.5 -70t-53.5 -221t53.5 -221t171.5 -70q69 0 186 33l13 -80q-122 -26 -201 -26q-154 0 -233.5 88t-79.5 276t79.5 276t233.5 88z" />
    <glyph glyph-name="d.ss02" horiz-adv-x="723" 
d="M88 16v668q114 30 225 30q191 0 273 -94q82 -92 82 -270q0 -177 -82 -271q-82 -93 -273 -93q-111 0 -225 30zM175 626v-552q65 -15 137 -15q141 0 203.5 70.5t62.5 220.5t-62.5 220.5t-203.5 70.5q-73 0 -137 -15z" />
    <glyph glyph-name="f.ss02" horiz-adv-x="556" 
d="M175 299v-299h-87v700h424v-73h-337v-255h308v-73h-308z" />
    <glyph glyph-name="g.ss02" horiz-adv-x="702" 
d="M368 -14q-313 0 -313 364q0 197 82 280q83 84 231 84q95 0 230 -27l-13 -82q-119 36 -217 36q-114 0 -168.5 -70t-54.5 -221q0 -150 53.5 -220.5t169.5 -70.5q83 0 167 21v264h87v-324q-130 -34 -254 -34z" />
    <glyph glyph-name="h.ss02" horiz-adv-x="710" 
d="M622 700v-700h-87v318h-360v-318h-87v700h87v-309h360v309h87z" />
    <glyph glyph-name="i.ss02" horiz-adv-x="263" 
d="M175 0h-87v700h87v-700z" />
    <glyph glyph-name="j.ss02" horiz-adv-x="466" 
d="M136 -14q-58 0 -114 8l12 78q54 -14 101 -14q91 0 127 41q37 40 37 156v445h87v-448q0 -136 -56 -201t-194 -65z" />
    <glyph glyph-name="k.ss02" horiz-adv-x="657" 
d="M537 -10l-327 365l285 345h108l-287 -339l319 -349zM88 700h87v-700h-87v700z" />
    <glyph glyph-name="l.ss02" horiz-adv-x="527" 
d="M175 73h330v-73h-417v700h87v-627z" />
    <glyph glyph-name="o.ss02" horiz-adv-x="736" 
d="M656 530q25 -72 25 -180t-25 -180q-43 -130 -169 -168q-51 -16 -119 -16t-119 16q-126 38 -169 168q-25 72 -25 180t25 180q43 130 169 168q51 16 119 16t119 -16q126 -38 169 -168zM534 126q57 67 57 224q0 156 -57 224q-55 67 -166 67q-110 0 -167 -67
q-56 -68 -56 -224t56 -224q57 -67 167 -67q111 0 166 67z" />
    <glyph glyph-name="p.ss02" horiz-adv-x="615" 
d="M175 626v-273q86 -14 133 -14q177 0 177 151t-177 151q-54 0 -133 -15zM175 0h-87v683q134 31 222 31q265 0 265 -224t-265 -224q-53 0 -135 14v-280z" />
    <glyph glyph-name="q.ss02" horiz-adv-x="736" 
d="M681 350q0 -339 -272 -362q8 -83 30 -161l-90 -9q-19 83 -22 170q-272 23 -272 362q0 211 96 293q83 71 217 71t217 -71q96 -82 96 -293zM534 126q57 67 57 224q0 156 -57 224q-55 67 -166 67q-110 0 -167 -67q-56 -68 -56 -224t56 -224q57 -67 167 -67q111 0 166 67z
" />
    <glyph glyph-name="r.ss02" horiz-adv-x="639" 
d="M336 301h-161v-301h-87v684q126 30 222 30q265 0 265 -206q0 -158 -150 -192l174 -304l-93 -18zM175 627v-253h134q177 0 177 133q0 134 -177 134q-47 0 -134 -14z" />
    <glyph glyph-name="s.ss02" horiz-adv-x="601" 
d="M297 59q159 0 159 125q0 48 -22 77q-27 40 -117 52l-35 5q-113 16 -164.5 63.5t-51.5 138.5q0 96 59.5 145t174.5 49q79 0 218 -29l-12 -83q-124 39 -205 39q-145 0 -145 -121q0 -57 31.5 -85.5t107.5 -39.5l35 -5q122 -17 169 -71q47 -53 47 -134q0 -199 -249 -199
q-99 0 -247 35l14 87q59 -23 127 -37q66 -12 106 -12z" />
    <glyph glyph-name="t.ss02" horiz-adv-x="621" 
d="M599 700v-73h-245v-627h-87v627h-245v73h577z" />
    <glyph glyph-name="afii10193.ss04" horiz-adv-x="575" 
d="M249 -180v130h78v-130h-78zM77 159v339h78v-336q0 -59 24.5 -85.5t83.5 -26.5q52 0 157 44v404h78v-498h-76v32q-113 -46 -177 -46q-83 0 -125.5 45t-42.5 128z" />
    <glyph glyph-name="w.ss02" horiz-adv-x="1022" 
d="M541 477l-30 108l-30 -108l-142 -477h-100l-209 700h90l140 -498q13 -44 30 -109q17 64 31 109l148 498h84l148 -498q14 -45 31 -109q17 65 30 109l140 498h90l-209 -700h-100z" />
    <glyph glyph-name="x.ss02" horiz-adv-x="680" 
d="M42 700h108l190 -286l190 286h108l-239 -345l248 -355h-108l-199 296l-199 -296h-108l248 355z" />
    <glyph glyph-name="y.ss02" horiz-adv-x="651" 
d="M325 351h1l220 349h104l-281 -436v-264h-87v264l-281 436h104z" />
    <glyph glyph-name="z.ss02" horiz-adv-x="608" 
d="M154 73h404v-73h-508v73l391 554h-378v73h482v-73z" />
    <glyph glyph-name="a.ss01" horiz-adv-x="522" 
d="M247 234q-71 0 -97 -22.5t-26 -69.5t26 -69.5t97 -22.5q57 0 120 16v152q-68 16 -120 16zM367 284v48q0 60 -24 88t-89 28q-58 0 -159 -33l-13 71q122 26 174 26q108 0 148 -49q41 -49 41 -129v-316q-117 -32 -199 -32q-114 0 -158 42q-44 44 -44 114q0 71 44 113
q43 43 158 43q45 0 121 -14z" />
    <glyph glyph-name="b.ss01" horiz-adv-x="580" 
d="M155 431v-364q73 -17 137 -17q83 0 120.5 49.5t37.5 149.5t-37.5 149.5t-120.5 49.5q-64 0 -137 -17zM77 740h78v-243q75 15 137 15q141 0 192 -81q46 -71 46 -182t-46 -183q-52 -80 -192 -80q-113 0 -215 34v720z" />
    <glyph glyph-name="d.ss01" horiz-adv-x="580" 
d="M425 67v364q-73 17 -137 17q-83 0 -120.5 -49.5t-37.5 -149.5t37.5 -149.5t120.5 -49.5q64 0 137 17zM425 497v243h78v-720q-102 -34 -215 -34q-140 0 -192 80q-46 72 -46 183t46 182q51 81 192 81q62 0 137 -15z" />
    <glyph glyph-name="g.ss01" horiz-adv-x="580" 
d="M425 69v362q-76 17 -137 17q-79 0 -118.5 -47.5t-39.5 -150.5t39.5 -150.5t118.5 -47.5q61 0 137 17zM288 -12q-118 0 -178 63t-60 199t60 199t178 63q95 0 215 -34v-449q0 -92 -23 -145q-20 -49 -71.5 -72.5t-146.5 -25.5q-84 0 -196 26l14 72q96 -34 181 -34
q101 0 134 42q29 36 30 110q-73 -14 -137 -14z" />
    <glyph glyph-name="h.ss01" horiz-adv-x="575" 
d="M77 740h78v-241q62 13 127 13q107 0 161.5 -52t54.5 -151v-309h-78v306q0 73 -32.5 107.5t-107.5 34.5q-65 0 -125 -15v-433h-78v740z" />
    <glyph glyph-name="m.ss01" horiz-adv-x="870" 
d="M474 0h-78v306q0 73 -29.5 107.5t-97.5 34.5q-59 0 -114 -15v-433h-78v478q96 34 194 34q87 0 140 -41q96 41 176 41q206 0 206 -203v-309h-78v306q0 73 -31 107.5t-102 34.5q-61 0 -130 -30q22 -43 22 -109v-309z" />
    <glyph glyph-name="n.ss01" horiz-adv-x="575" 
d="M498 309v-309h-78v306q0 73 -32.5 107.5t-107.5 34.5q-65 0 -125 -15v-433h-78v478q98 34 205 34t161.5 -52t54.5 -151z" />
    <glyph glyph-name="thorn.ss01" horiz-adv-x="580" 
d="M155 431v-364q73 -17 137 -17q83 0 120.5 49.5t37.5 149.5t-37.5 149.5t-120.5 49.5q-64 0 -137 -17zM77 740h78v-242q161 34 255 -7q86 -37 109 -142q11 -46 11 -100q0 -55 -11 -101q-15 -73 -71 -119t-156 -43q-62 0 -137 15v-201h-78v940z" />
    <glyph glyph-name="afii10074.ss04.accented" horiz-adv-x="575" 
d="M77 159v339h78v-336q0 -59 24.5 -85.5t83.5 -26.5q52 0 157 44v404h78v-498h-76v32q-113 -46 -177 -46q-83 0 -125.5 45t-42.5 128zM219 588l99 174h83l-121 -174h-61z" />
    <glyph glyph-name="afii10065.ss04.accented" horiz-adv-x="580" 
d="M425 94v310q-100 44 -153 44q-76 0 -109 -45t-33 -154t33 -154t109 -45q53 0 153 44zM427 498h76v-498h-76v32q-99 -46 -170 -46q-104 0 -155.5 62.5t-51.5 200.5t51.5 200.5t155.5 62.5q71 0 170 -46v32zM229 588l99 174h83l-121 -174h-61z" />
    <glyph glyph-name="afii10058.ss04" horiz-adv-x="1039" 
d="M580 0l-238 599l-236 -599h-95l281 700h100l121 -298q141 24 210 24q276 0 276 -220t-276 -220q-64 0 -143 14zM540 335l108 -271q40 -5 72 -5q189 0 189 147t-189 147q-75 0 -180 -18z" />
    <glyph glyph-name="afii10029.ss04" horiz-adv-x="686" 
d="M11 0l281 700h100l283 -700h-95l-238 599l-236 -599h-95z" />
    <glyph glyph-name="afii10021.ss04.alt" horiz-adv-x="724" 
d="M362 607l-204 -534h408zM12 -130v203h52l245 627h106l245 -627h52v-203h-77l-8 130h-530l-8 -130h-77z" />
    <glyph glyph-name="afii10068_afii10076.ss04_ss04" horiz-adv-x="767" 
d="M158 495v-293q0 -147 -23.5 -246t-79.5 -170l-67 32q48 57 70 147.5t22 237.5v293q0 129 56 193.5t158 64.5q30 0 102 -5v-749h-78v689q-9 1 -26 1q-68 0 -101 -45.5t-33 -149.5zM524 266l223 -258l-89 -16l-229 270l200 236h98z" />
    <glyph glyph-name="adieresis.ss01" horiz-adv-x="522" 
d="M247 234q-71 0 -97 -22.5t-26 -69.5t26 -69.5t97 -22.5q57 0 120 16v152q-68 16 -120 16zM367 284v48q0 60 -24 88t-89 28q-58 0 -159 -33l-13 71q122 26 174 26q108 0 148 -49q41 -49 41 -129v-316q-117 -32 -199 -32q-114 0 -158 42q-44 44 -44 114q0 71 44 113
q43 43 158 43q45 0 121 -14zM159 740v-128h-78v128h78zM407 740v-128h-78v128h78z" />
    <glyph glyph-name="atilde.ss01" horiz-adv-x="522" 
d="M247 234q-71 0 -97 -22.5t-26 -69.5t26 -69.5t97 -22.5q57 0 120 16v152q-68 16 -120 16zM367 284v48q0 60 -24 88t-89 28q-58 0 -159 -33l-13 71q122 26 174 26q108 0 148 -49q41 -49 41 -129v-316q-117 -32 -199 -32q-114 0 -158 42q-44 44 -44 114q0 71 44 113
q43 43 158 43q45 0 121 -14zM399 732l32 -48q-28 -35 -51.5 -48.5t-58.5 -13.5q-43 0 -92 27q-41 22 -64 22q-24 0 -40.5 -11t-35.5 -39l-32 48q28 35 51.5 48.5t58.5 13.5q43 0 92 -27q41 -22 64 -22q24 0 40.5 11t35.5 39z" />
    <glyph glyph-name="aring.ss01" horiz-adv-x="522" 
d="M247 234q-71 0 -97 -22.5t-26 -69.5t26 -69.5t97 -22.5q57 0 120 16v152q-68 16 -120 16zM367 284v48q0 60 -24 88t-89 28q-58 0 -159 -33l-13 71q122 26 174 26q108 0 148 -49q41 -49 41 -129v-316q-117 -32 -199 -32q-114 0 -158 42q-44 44 -44 114q0 71 44 113
q43 43 158 43q45 0 121 -14zM251 786q113 0 113 -112t-113 -112t-113 112t113 112zM204 726q-15 -16 -15 -52t15 -52t47 -16t47 16t15 52t-15 52t-47 16t-47 -16z" />
    <glyph glyph-name="ntilde.ss01" horiz-adv-x="575" 
d="M447 732l32 -48q-28 -35 -51.5 -48.5t-58.5 -13.5q-43 0 -92 27q-41 22 -64 22q-24 0 -40.5 -11t-35.5 -39l-32 48q28 35 51.5 48.5t58.5 13.5q43 0 92 -27q41 -22 64 -22q24 0 40.5 11t35.5 39zM498 309v-309h-78v306q0 73 -32.5 107.5t-107.5 34.5q-65 0 -125 -15v-433
h-78v478q98 34 205 34t161.5 -52t54.5 -151z" />
    <glyph glyph-name="uacute.ss01" horiz-adv-x="575" 
d="M77 189v309h78v-306q0 -73 32.5 -107.5t107.5 -34.5q65 0 125 15v433h78v-478q-98 -34 -205 -34t-161.5 52t-54.5 151zM219 588l99 174h83l-121 -174h-61z" />
    <glyph glyph-name="ugrave.ss01" horiz-adv-x="575" 
d="M77 189v309h78v-306q0 -73 32.5 -107.5t107.5 -34.5q65 0 125 15v433h78v-478q-98 -34 -205 -34t-161.5 52t-54.5 151zM293 588l-121 174h83l99 -174h-61z" />
    <glyph glyph-name="ucircumflex.ss01" horiz-adv-x="575" 
d="M77 189v309h78v-306q0 -73 32.5 -107.5t107.5 -34.5q65 0 125 15v433h78v-478q-98 -34 -205 -34t-161.5 52t-54.5 151zM239 762h98l99 -174h-61l-87 125l-87 -125h-61z" />
    <glyph glyph-name="udieresis.ss01" horiz-adv-x="575" 
d="M77 189v309h78v-306q0 -73 32.5 -107.5t107.5 -34.5q65 0 125 15v433h78v-478q-98 -34 -205 -34t-161.5 52t-54.5 151zM203 740v-128h-78v128h78zM451 740v-128h-78v128h78z" />
    <glyph glyph-name="mu.ss01" horiz-adv-x="575" 
d="M420 65v433h78v-478q-102 -34 -205 -34q-92 0 -142 38l2 -224h-76v698h78v-306q0 -73 32.5 -107.5t107.5 -34.5q65 0 125 15z" />
    <glyph glyph-name="ordfeminine.ss01" horiz-adv-x="482" 
d="M227 424q-63 0 -87 -20t-24 -63q0 -42 24 -62t87 -20q50 0 108 14v137q-64 14 -108 14zM335 469v43q0 54 -22 79.5t-80 25.5q-51 0 -143 -30l-12 64q110 23 157 23q92 0 131 -41.5t39 -118.5v-284q-107 -29 -179 -29q-102 0 -143 38q-39 37 -39 102t39 102q41 39 143 39
q41 0 109 -13z" />
    <glyph glyph-name="ae.ss01" horiz-adv-x="875" 
d="M247 234q-71 0 -97 -22.5t-26 -69.5t26 -69.5t97 -22.5q57 0 120 16v152q-68 16 -120 16zM601 448q-137 0 -154 -153h299q-5 78 -38.5 115.5t-106.5 37.5zM619 50q88 0 184 28l15 -64q-103 -28 -203 -28q-118 0 -180 56v-27q-114 -29 -189 -29q-114 0 -158 42
q-44 44 -44 114q0 71 44 113q43 43 158 43q45 0 121 -14v48q0 60 -24 88t-89 28q-58 0 -159 -33l-13 71q122 26 174 26q123 0 165 -72q60 72 180 72q125 0 174 -69q50 -68 50 -194v-17h-380q5 -97 44.5 -139.5t129.5 -42.5z" />
    <glyph glyph-name="afii10066.ss02" horiz-adv-x="671" 
d="M175 327v-253q89 -15 156 -15q103 0 149 36t46 106t-46 106t-149 36q-73 0 -156 -16zM533 627h-358v-225q96 14 158 14q283 0 283 -215t-283 -215q-113 0 -245 30v684h445v-73z" />
    <glyph glyph-name="afii10068.ss02" horiz-adv-x="534" 
d="M512 700v-73h-337v-627h-87v700h424z" />
    <glyph glyph-name="afii10072.ss02" horiz-adv-x="961" 
d="M524 0h-87v700h87v-700zM846 -10l-287 365l239 345h102l-240 -339l279 -346zM61 700h102l239 -345l-287 -365l-93 25l279 346z" />
    <glyph glyph-name="afii10073.ss02" 
d="M509 526q0 -115 -89 -157q63 -23 92 -66.5t29 -113.5q0 -46 -12 -80.5t-41 -63.5t-85 -44t-138 -15q-102 0 -226 26l12 81q111 -34 214 -34q96 0 141 33t45 100q0 59 -40 96q-38 37 -148 37q-60 0 -111 -3v78q68 -2 107 -2q88 0 125.5 29.5t37.5 91.5q0 54 -34 88
t-129 34q-75 0 -183 -29l-13 81q118 21 197 21q132 0 190.5 -47t58.5 -141z" />
    <glyph glyph-name="afii10077.ss02" horiz-adv-x="701" 
d="M613 700v-700h-87v627h-295v-95q0 -264 -38 -386q-38 -120 -130 -164l-46 64q36 19 56.5 43.5t38.5 73.5q38 97 38 370v167h463z" />
    <glyph glyph-name="afii10085.ss02" horiz-adv-x="629" 
d="M532 700h96l-244 -536q-49 -108 -94 -143q-46 -35 -120 -35q-29 0 -53 4l4 75q20 -4 43 -4q46 0 71 25q27 26 63 100h-55l-242 514h99l221 -477z" />
    <glyph glyph-name="afii10086.ss02" horiz-adv-x="879" 
d="M398 101v498q-132 0 -192.5 -61t-60.5 -188t60.5 -188t192.5 -61zM483 28v-88h-87v88q-341 0 -341 322t341 322v88h87v-88q341 0 341 -322t-341 -322zM481 599v-498q132 0 192.5 61t60.5 188t-60.5 188t-192.5 61z" />
    <glyph glyph-name="afii10089.ss02" horiz-adv-x="648" 
d="M560 0h-87v282q-86 -16 -146 -16q-138 0 -205 59t-67 188v187h87v-184q0 -96 42 -137q41 -40 151 -40q54 0 138 15v346h87v-700z" />
    <glyph glyph-name="afii10092.ss02" horiz-adv-x="733" 
d="M285 338v-263q68 -16 129 -16q189 0 189 147t-189 147q-57 0 -129 -15zM198 17v610h-176v73h263v-286q79 12 132 12q276 0 276 -220t-276 -220q-108 0 -219 31z" />
    <glyph glyph-name="afii10093.ss02" horiz-adv-x="870" 
d="M782 0h-87v700h87v-700zM175 338v-263q68 -16 129 -16q189 0 189 147t-189 147q-56 0 -129 -15zM88 17v683h87v-286q79 12 132 12q276 0 276 -220t-276 -220q-108 0 -219 31z" />
    <glyph glyph-name="afii10094.ss02" horiz-adv-x="623" 
d="M175 338v-263q68 -16 129 -16q189 0 189 147t-189 147q-56 0 -129 -15zM88 17v683h87v-286q79 12 132 12q276 0 276 -220t-276 -220q-108 0 -219 31z" />
    <glyph glyph-name="afii10095.ss02" horiz-adv-x="624" 
d="M256 -14q-79 0 -201 26l13 80q117 -33 186 -33q111 0 165 62t59 193h-326v73h326q-6 130 -59.5 192t-164.5 62q-69 0 -186 -33l-13 83q130 23 201 23q154 0 233.5 -88t79.5 -276t-79.5 -276t-233.5 -88z" />
    <glyph glyph-name="afii10096.ss02" horiz-adv-x="1036" 
d="M674 641q-110 0 -163.5 -68.5t-53.5 -222.5t53.5 -222.5t163.5 -68.5t163.5 68.5t53.5 222.5t-53.5 222.5t-163.5 68.5zM175 700v-312h193q7 187 101 262q80 64 205 64q131 0 213 -71q94 -81 94 -293t-94 -293q-82 -71 -213 -71q-122 0 -206 64q-93 74 -100 265h-193
v-315h-87v700h87z" />
    <glyph glyph-name="afii10097.ss02" horiz-adv-x="639" 
d="M330 364h134v263q-89 14 -134 14q-94 0 -135.5 -35t-41.5 -104q0 -138 177 -138zM298 291l-165 -297l-93 18l169 294q-145 39 -145 197q0 211 265 211q95 0 222 -30v-684h-87v291h-166z" />
    <glyph glyph-name="afii10099.ss02" horiz-adv-x="811" 
d="M599 627h-271v-235q97 17 146 17q146 0 214 -68.5t68 -213.5q0 -117 -50.5 -192t-152.5 -95l-8 73q70 19 96 71t25 142q0 111 -40 160q-41 50 -160 50q-54 0 -138 -15v-321h-87v627h-219v73h577v-73z" />
    <glyph glyph-name="afii10101.ss02" horiz-adv-x="624" 
d="M368 -14q-154 0 -233.5 88t-79.5 276t79.5 276t233.5 88q71 0 201 -23l-13 -83q-117 33 -186 33q-111 0 -164.5 -62t-59.5 -192h326v-73h-326q5 -131 59 -193t165 -62q69 0 186 33l13 -80q-122 -26 -201 -26z" />
    <glyph glyph-name="afii10106.ss02" horiz-adv-x="1061" 
d="M613 338v-263q68 -16 129 -16q189 0 189 147t-189 147q-56 0 -129 -15zM526 17v610h-295v-95q0 -264 -38 -386q-38 -120 -130 -164l-46 64q36 19 56.5 43.5t38.5 73.5q38 97 38 370v167h463v-286q79 12 132 12q276 0 276 -220t-276 -220q-108 0 -219 31z" />
    <glyph glyph-name="afii10107.ss02" horiz-adv-x="1070" 
d="M622 338v-263q68 -16 129 -16q189 0 189 147t-189 147q-57 0 -129 -15zM535 17v301h-360v-318h-87v700h87v-309h360v309h87v-286q80 12 132 12q276 0 276 -220t-276 -220q-108 0 -219 31z" />
    <glyph glyph-name="afii10108.ss02" horiz-adv-x="801" 
d="M599 627h-271v-234q86 16 146 16q138 0 205 -59t67 -188v-162h-87v159q0 96 -42 136q-43 41 -151 41q-54 0 -138 -15v-321h-87v627h-219v73h577v-73z" />
    <glyph glyph-name="afii10110.ss02" horiz-adv-x="629" 
d="M532 700h96l-244 -536q-49 -108 -94 -143q-46 -35 -120 -35q-29 0 -53 4l4 75q20 -4 43 -4q46 0 71 25q27 26 63 100h-55l-242 514h99l221 -477zM135 847l56 39q39 -65 124 -65t124 65l56 -39q-59 -93 -180 -93t-180 93z" />
    <glyph glyph-name="afii10068.ss01" horiz-adv-x="384" 
d="M373 509l-2 -70q-43 3 -74 3q-73 0 -142 -18v-424h-78v478q98 34 205 34q52 0 91 -3z" />
    <glyph glyph-name="afii10074.ss01" horiz-adv-x="575" 
d="M77 189v309h78v-306q0 -73 32.5 -107.5t107.5 -34.5q65 0 125 15v433h78v-478q-98 -34 -205 -34t-161.5 52t-54.5 151z" />
    <glyph glyph-name="afii10075.ss01" horiz-adv-x="575" 
d="M77 189v309h78v-306q0 -73 32.5 -107.5t107.5 -34.5q65 0 125 15v433h78v-478q-98 -34 -205 -34t-161.5 52t-54.5 151zM121 701l52 36q36 -60 115 -60t115 60l52 -36q-54 -86 -167 -86t-167 86z" />
    <glyph glyph-name="afii10088.ss01" horiz-adv-x="595" 
d="M293 -14q-107 0 -161.5 52t-54.5 151v309h78v-306q0 -73 32.5 -107.5t107.5 -34.5q65 0 125 15v433h78v-418h64v-220h-65l-9 156q-94 -30 -195 -30z" />
    <glyph glyph-name="afii10090.ss01" horiz-adv-x="818" 
d="M155 498v-231q0 -114 44 -164q43 -48 171 -53v448h78v-448q99 1 215 22v426h78v-478q-194 -34 -334 -34q-183 0 -256 59q-46 39 -61 94q-13 48 -13 125v234h78z" />
    <glyph glyph-name="afii10091.ss01" horiz-adv-x="838" 
d="M407 -14q-183 0 -256 59q-46 39 -61 94q-13 48 -13 125v234h78v-231q0 -114 44 -164q43 -48 171 -53v448h78v-448q99 1 215 22v426h78v-418h64v-220h-65l-9 158q-198 -32 -324 -32z" />
    <glyph glyph-name="afii10067.ss02" horiz-adv-x="671" 
d="M616 191q0 -85 -50 -140q-59 -65 -224 -65q-120 0 -254 30v668q133 30 233 30q143 0 199 -48q55 -48 55 -137q0 -115 -88 -155q129 -41 129 -183zM175 626v-227h144q91 0 130.5 30t39.5 91q0 60 -39 90.5t-131 30.5q-57 0 -144 -15zM526 193q0 63 -41 98q-41 36 -146 36
h-164v-253q89 -15 164 -15q101 0 144 33.5t43 100.5z" />
    <glyph glyph-name="afii10069.ss02" horiz-adv-x="731" 
d="M22 -130v203h49q46 56 74.5 176.5t28.5 297.5v153h447v-627h77v-203h-76l-9 130h-506l-9 -130h-76zM534 627h-280v-82q0 -321 -89 -472h369v554z" />
    <glyph glyph-name="afii10076.ss02" horiz-adv-x="657" 
d="M537 -10l-327 365l285 345h108l-287 -339l319 -349zM88 700h87v-700h-87v700z" />
    <glyph glyph-name="afii10078.ss02" horiz-adv-x="902" 
d="M451 129q33 90 38 101l187 470h108l48 -700h-86l-27 448q-3 52 -3 145q-35 -101 -53 -146l-178 -447h-68l-178 447q-18 45 -53 146q0 -93 -3 -145l-27 -448h-86l48 700h108l187 -470q5 -11 38 -101z" />
    <glyph glyph-name="afii10079.ss02" horiz-adv-x="710" 
d="M622 700v-700h-87v318h-360v-318h-87v700h87v-309h360v309h87z" />
    <glyph glyph-name="afii10080.ss02" horiz-adv-x="736" 
d="M656 530q25 -72 25 -180t-25 -180q-43 -130 -169 -168q-51 -16 -119 -16t-119 16q-126 38 -169 168q-25 72 -25 180t25 180q43 130 169 168q51 16 119 16t119 -16q126 -38 169 -168zM534 126q57 67 57 224q0 156 -57 224q-55 67 -166 67q-110 0 -167 -67
q-56 -68 -56 -224t56 -224q57 -67 167 -67q111 0 166 67z" />
    <glyph glyph-name="afii10082.ss02" horiz-adv-x="615" 
d="M175 626v-273q86 -14 133 -14q177 0 177 151t-177 151q-54 0 -133 -15zM175 0h-87v683q134 31 222 31q265 0 265 -224t-265 -224q-53 0 -135 14v-280z" />
    <glyph glyph-name="afii10083.ss02" horiz-adv-x="624" 
d="M368 714q71 0 201 -23l-13 -83q-117 33 -186 33q-118 0 -171.5 -70t-53.5 -221t53.5 -221t171.5 -70q69 0 186 33l13 -80q-122 -26 -201 -26q-154 0 -233.5 88t-79.5 276t79.5 276t233.5 88z" />
    <glyph glyph-name="afii10084.ss02" horiz-adv-x="621" 
d="M599 700v-73h-245v-627h-87v627h-245v73h577z" />
    <glyph glyph-name="afii10087.ss02" horiz-adv-x="680" 
d="M42 700h108l190 -286l190 286h108l-239 -345l248 -355h-108l-199 296l-199 -296h-108l248 355z" />
    <glyph glyph-name="afii10103.ss02" horiz-adv-x="263" 
d="M175 0h-87v700h87v-700z" />
    <glyph glyph-name="afii10100.ss02" horiz-adv-x="534" 
d="M512 700v-73h-337v-627h-87v700h424zM235 740l99 174h89l-121 -174h-67z" />
    <glyph glyph-name="afii10100.ss01" horiz-adv-x="384" 
d="M373 509l-2 -70q-43 3 -74 3q-73 0 -142 -18v-424h-78v478q98 34 205 34q52 0 91 -3zM169 588l99 174h83l-121 -174h-61z" />
    <glyph glyph-name="afii10105.ss02" horiz-adv-x="466" 
d="M136 -14q-58 0 -114 8l12 78q54 -14 101 -14q91 0 127 41q37 40 37 156v445h87v-448q0 -136 -56 -201t-194 -65z" />
    <glyph glyph-name="afii10102.ss02" horiz-adv-x="601" 
d="M297 59q159 0 159 125q0 48 -22 77q-27 40 -117 52l-35 5q-113 16 -164.5 63.5t-51.5 138.5q0 96 59.5 145t174.5 49q79 0 218 -29l-12 -83q-124 39 -205 39q-145 0 -145 -121q0 -57 31.5 -85.5t107.5 -39.5l35 -5q122 -17 169 -71q47 -53 47 -134q0 -199 -249 -199
q-99 0 -247 35l14 87q59 -23 127 -37q66 -12 106 -12z" />
    <glyph glyph-name="afii10109.ss02" horiz-adv-x="657" 
d="M537 -10l-327 365l285 345h108l-287 -339l319 -349zM88 700h87v-700h-87v700zM263 740l99 174h89l-121 -174h-67z" />
    <glyph glyph-name="afii10065.ss01" horiz-adv-x="522" 
d="M247 234q-71 0 -97 -22.5t-26 -69.5t26 -69.5t97 -22.5q57 0 120 16v152q-68 16 -120 16zM367 284v48q0 60 -24 88t-89 28q-58 0 -159 -33l-13 71q122 26 174 26q108 0 148 -49q41 -49 41 -129v-316q-117 -32 -199 -32q-114 0 -158 42q-44 44 -44 114q0 71 44 113
q43 43 158 43q45 0 121 -14z" />
    <glyph glyph-name="afii10081.ss01" horiz-adv-x="575" 
d="M498 309v-309h-78v306q0 73 -32.5 107.5t-107.5 34.5q-65 0 -125 -15v-433h-78v478q98 34 205 34t161.5 -52t54.5 -151z" />
    <glyph glyph-name="afii10082.ss01" horiz-adv-x="580" 
d="M155 1v-201h-78v678q102 34 215 34q141 0 192 -81q46 -71 46 -182t-46 -183q-52 -80 -192 -80q-62 0 -137 15zM155 431v-364q73 -17 137 -17q83 0 120.5 49.5t37.5 149.5t-37.5 149.5t-120.5 49.5q-64 0 -137 -17z" />
    <glyph glyph-name="afii10104.ss02" horiz-adv-x="263" 
d="M84 891v-128h-76v128h76zM255 891v-128h-76v128h76zM175 0h-87v700h87v-700z" />
    <glyph glyph-name="afii10098.ss01" horiz-adv-x="384" 
d="M77 0v478q98 34 205 34h24l6 103h61v-176q-43 3 -76 3q-73 0 -142 -18v-424h-78z" />
    <glyph glyph-name="afii10098.ss02" horiz-adv-x="534" 
d="M512 810v-183h-337v-627h-87v700h349l7 110h68z" />
    <glyph glyph-name="afii10080.ss02.accented" horiz-adv-x="736" 
d="M656 530q25 -72 25 -180t-25 -180q-43 -130 -169 -168q-51 -16 -119 -16t-119 16q-126 38 -169 168q-25 72 -25 180t25 180q43 130 169 168q51 16 119 16t119 -16q126 -38 169 -168zM534 126q57 67 57 224q0 156 -57 224q-55 67 -166 67q-110 0 -167 -67
q-56 -68 -56 -224t56 -224q57 -67 167 -67q111 0 166 67zM311 740l99 174h89l-121 -174h-67z" />
    <glyph glyph-name="afii10085.ss02.accented" horiz-adv-x="629" 
d="M532 700h96l-244 -536q-49 -108 -94 -143q-46 -35 -120 -35q-29 0 -53 4l4 75q20 -4 43 -4q46 0 71 25q27 26 63 100h-55l-242 514h99l221 -477zM240 740l99 174h89l-121 -174h-67z" />
    <glyph glyph-name="afii10093.ss02.accented" horiz-adv-x="870" 
d="M782 0h-87v700h87v-700zM175 338v-263q68 -16 129 -16q189 0 189 147t-189 147q-56 0 -129 -15zM88 17v683h87v-286q79 12 132 12q276 0 276 -220t-276 -220q-108 0 -219 31zM343 740l99 174h89l-121 -174h-67z" />
    <glyph glyph-name="afii10095.ss02.accented" horiz-adv-x="624" 
d="M256 -14q-79 0 -201 26l13 80q117 -33 186 -33q111 0 165 62t59 193h-326v73h326q-6 130 -59.5 192t-164.5 62q-69 0 -186 -33l-13 83q130 23 201 23q154 0 233.5 -88t79.5 -276t-79.5 -276t-233.5 -88zM221 740l99 174h89l-121 -174h-67z" />
    <glyph glyph-name="afii10096.ss02.accented" horiz-adv-x="1036" 
d="M674 641q-110 0 -163.5 -68.5t-53.5 -222.5t53.5 -222.5t163.5 -68.5t163.5 68.5t53.5 222.5t-53.5 222.5t-163.5 68.5zM175 700v-312h193q7 187 101 262q80 64 205 64q131 0 213 -71q94 -81 94 -293t-94 -293q-82 -71 -213 -71q-122 0 -206 64q-93 74 -100 265h-193
v-315h-87v700h87zM383 740l99 174h89l-121 -174h-67z" />
    <glyph glyph-name="afii10097.ss02.accented" horiz-adv-x="639" 
d="M330 364h134v263q-89 14 -134 14q-94 0 -135.5 -35t-41.5 -104q0 -138 177 -138zM298 291l-165 -297l-93 18l169 294q-145 39 -145 197q0 211 265 211q95 0 222 -30v-684h-87v291h-166zM268 740l99 174h89l-121 -174h-67z" />
    <glyph glyph-name="afii10065.ss01.accented" horiz-adv-x="522" 
d="M247 234q-71 0 -97 -22.5t-26 -69.5t26 -69.5t97 -22.5q57 0 120 16v152q-68 16 -120 16zM367 284v48q0 60 -24 88t-89 28q-58 0 -159 -33l-13 71q122 26 174 26q108 0 148 -49q41 -49 41 -129v-316q-117 -32 -199 -32q-114 0 -158 42q-44 44 -44 114q0 71 44 113
q43 43 158 43q45 0 121 -14zM194 588l99 174h83l-121 -174h-61z" />
    <glyph glyph-name="afii10074.ss01.accented" horiz-adv-x="575" 
d="M77 189v309h78v-306q0 -73 32.5 -107.5t107.5 -34.5q65 0 125 15v433h78v-478q-98 -34 -205 -34t-161.5 52t-54.5 151zM216 588l99 174h83l-121 -174h-61z" />
    <glyph glyph-name="a.ss02" horiz-adv-x="658" 
d="M491 82v240q-97 23 -172 23q-114 0 -150 -44q-29 -35 -29 -99q0 -63 29 -100q37 -43 150 -43q75 0 172 23zM313 418q73 0 178 -21v66q0 98 -37.5 138.5t-125.5 40.5q-99 0 -213 -47l-15 83q136 36 231 36q60 0 104.5 -14t71.5 -36.5t43.5 -56t22 -67t5.5 -74.5v-439
q-166 -41 -265 -41q-147 0 -205 58t-58 158q0 99 58 157q59 59 205 59z" />
    <glyph glyph-name="e.ss02" horiz-adv-x="708" 
d="M380 59q119 0 248 41l16 -73q-137 -41 -264 -41q-184 0 -258 101q-67 94 -67 263q0 364 307 364q146 0 218.5 -86t72.5 -267v-23h-509q4 -151 59 -216q55 -63 177 -63zM362 641q-99 0 -151.5 -57t-63.5 -173h417q-7 114 -54.5 172t-147.5 58z" />
    <glyph glyph-name="m.ss02" horiz-adv-x="1161" 
d="M624 0h-87v429q0 110 -48.5 160.5t-153.5 50.5q-78 0 -160 -14v-626h-87v683q123 31 252 31q122 0 197 -60q143 60 250 60q61 0 110.5 -14.5t90 -45.5t63 -87.5t22.5 -134.5v-432h-87v429q0 115 -48 163t-155 48q-82 0 -196 -47q37 -61 37 -161v-432z" />
    <glyph glyph-name="n.ss02" horiz-adv-x="734" 
d="M646 432v-432h-87v429q0 110 -51.5 160.5t-162.5 50.5q-83 0 -170 -14v-626h-87v683q128 31 262 31q141 0 218.5 -72t77.5 -210z" />
    <glyph glyph-name="aacute.ss02" horiz-adv-x="658" 
d="M491 82v240q-97 23 -172 23q-114 0 -150 -44q-29 -35 -29 -99q0 -63 29 -100q37 -43 150 -43q75 0 172 23zM313 418q73 0 178 -21v66q0 98 -37.5 138.5t-125.5 40.5q-99 0 -213 -47l-15 83q136 36 231 36q60 0 104.5 -14t71.5 -36.5t43.5 -56t22 -67t5.5 -74.5v-439
q-166 -41 -265 -41q-147 0 -205 58t-58 158q0 99 58 157q59 59 205 59zM277 740l99 174h89l-121 -174h-67z" />
    <glyph glyph-name="agrave.ss02" horiz-adv-x="658" 
d="M491 82v240q-97 23 -172 23q-114 0 -150 -44q-29 -35 -29 -99q0 -63 29 -100q37 -43 150 -43q75 0 172 23zM313 418q73 0 178 -21v66q0 98 -37.5 138.5t-125.5 40.5q-99 0 -213 -47l-15 83q136 36 231 36q60 0 104.5 -14t71.5 -36.5t43.5 -56t22 -67t5.5 -74.5v-439
q-166 -41 -265 -41q-147 0 -205 58t-58 158q0 99 58 157q59 59 205 59zM319 740l-121 174h89l99 -174h-67z" />
    <glyph glyph-name="acircumflex.ss02" horiz-adv-x="658" 
d="M491 82v240q-97 23 -172 23q-114 0 -150 -44q-29 -35 -29 -99q0 -63 29 -100q37 -43 150 -43q75 0 172 23zM313 418q73 0 178 -21v66q0 98 -37.5 138.5t-125.5 40.5q-99 0 -213 -47l-15 83q136 36 231 36q60 0 104.5 -14t71.5 -36.5t43.5 -56t22 -67t5.5 -74.5v-439
q-166 -41 -265 -41q-147 0 -205 58t-58 158q0 99 58 157q59 59 205 59zM259 914h104l105 -174h-65l-92 125l-92 -125h-65z" />
    <glyph glyph-name="adieresis.ss02" horiz-adv-x="658" 
d="M491 82v240q-97 23 -172 23q-114 0 -150 -44q-29 -35 -29 -99q0 -63 29 -100q37 -43 150 -43q75 0 172 23zM313 418q73 0 178 -21v66q0 98 -37.5 138.5t-125.5 40.5q-99 0 -213 -47l-15 83q136 36 231 36q60 0 104.5 -14t71.5 -36.5t43.5 -56t22 -67t5.5 -74.5v-439
q-166 -41 -265 -41q-147 0 -205 58t-58 158q0 99 58 157q59 59 205 59zM218 891v-128h-78v128h78zM482 891v-128h-78v128h78z" />
    <glyph glyph-name="atilde.ss02" horiz-adv-x="658" 
d="M491 82v240q-97 23 -172 23q-114 0 -150 -44q-29 -35 -29 -99q0 -63 29 -100q37 -43 150 -43q75 0 172 23zM313 418q73 0 178 -21v66q0 98 -37.5 138.5t-125.5 40.5q-99 0 -213 -47l-15 83q136 36 231 36q60 0 104.5 -14t71.5 -36.5t43.5 -56t22 -67t5.5 -74.5v-439
q-166 -41 -265 -41q-147 0 -205 58t-58 158q0 99 58 157q59 59 205 59zM488 889l35 -51q-31 -38 -56 -52.5t-63 -14.5q-44 0 -99 29q-47 24 -69 24q-26 0 -43.5 -11.5t-38.5 -42.5l-35 51q31 38 56 52.5t63 14.5q44 0 99 -29q47 -24 69 -24q27 0 44 11.5t38 42.5z" />
    <glyph glyph-name="aring.ss02" horiz-adv-x="658" 
d="M491 82v240q-97 23 -172 23q-114 0 -150 -44q-29 -35 -29 -99q0 -63 29 -100q37 -43 150 -43q75 0 172 23zM313 418q73 0 178 -21v66q0 98 -37.5 138.5t-125.5 40.5q-99 0 -213 -47l-15 83q136 36 231 36q60 0 104.5 -14t71.5 -36.5t43.5 -56t22 -67t5.5 -74.5v-439
q-166 -41 -265 -41q-147 0 -205 58t-58 158q0 99 58 157q59 59 205 59zM321 941q113 0 113 -112t-113 -112t-113 112t113 112zM274 881q-15 -17 -15 -52t15 -52q15 -16 47 -16t47 16q15 17 15 52t-15 52q-15 16 -47 16t-47 -16z" />
    <glyph glyph-name="eacute.ss02" horiz-adv-x="708" 
d="M380 59q119 0 248 41l16 -73q-137 -41 -264 -41q-184 0 -258 101q-67 94 -67 263q0 364 307 364q146 0 218.5 -86t72.5 -267v-23h-509q4 -151 59 -216q55 -63 177 -63zM362 641q-99 0 -151.5 -57t-63.5 -173h417q-7 114 -54.5 172t-147.5 58zM301 740l99 174h89
l-121 -174h-67z" />
    <glyph glyph-name="egrave.ss02" horiz-adv-x="708" 
d="M380 59q119 0 248 41l16 -73q-137 -41 -264 -41q-184 0 -258 101q-67 94 -67 263q0 364 307 364q146 0 218.5 -86t72.5 -267v-23h-509q4 -151 59 -216q55 -63 177 -63zM362 641q-99 0 -151.5 -57t-63.5 -173h417q-7 114 -54.5 172t-147.5 58zM343 740l-121 174h89
l99 -174h-67z" />
    <glyph glyph-name="ecircumflex.ss02" horiz-adv-x="708" 
d="M380 59q119 0 248 41l16 -73q-137 -41 -264 -41q-184 0 -258 101q-67 94 -67 263q0 364 307 364q146 0 218.5 -86t72.5 -267v-23h-509q4 -151 59 -216q55 -63 177 -63zM362 641q-99 0 -151.5 -57t-63.5 -173h417q-7 114 -54.5 172t-147.5 58zM302 914h104l105 -174h-65
l-92 125l-92 -125h-65z" />
    <glyph glyph-name="edieresis.ss02" horiz-adv-x="708" 
d="M380 59q119 0 248 41l16 -73q-137 -41 -264 -41q-184 0 -258 101q-67 94 -67 263q0 364 307 364q146 0 218.5 -86t72.5 -267v-23h-509q4 -151 59 -216q55 -63 177 -63zM362 641q-99 0 -151.5 -57t-63.5 -173h417q-7 114 -54.5 172t-147.5 58zM261 891v-128h-78v128h78z
M525 891v-128h-78v128h78z" />
    <glyph glyph-name="ntilde.ss02" horiz-adv-x="734" 
d="M646 432v-432h-87v429q0 110 -51.5 160.5t-162.5 50.5q-83 0 -170 -14v-626h-87v683q128 31 262 31q141 0 218.5 -72t77.5 -210zM534 889l35 -51q-31 -38 -56 -52.5t-63 -14.5q-44 0 -99 29q-47 24 -69 24q-26 0 -43.5 -11.5t-38.5 -42.5l-35 51q31 38 56 52.5t63 14.5
q44 0 99 -29q47 -24 69 -24q27 0 44 11.5t38 42.5z" />
    <glyph glyph-name="uacute.ss02" horiz-adv-x="734" 
d="M88 268v432h87v-429q0 -110 51.5 -160.5t162.5 -50.5q83 0 170 14v626h87v-683q-128 -31 -262 -31q-141 0 -218.5 72t-77.5 210zM283 740l99 174h89l-121 -174h-67z" />
    <glyph glyph-name="ugrave.ss02" horiz-adv-x="734" 
d="M88 268v432h87v-429q0 -110 51.5 -160.5t162.5 -50.5q83 0 170 14v626h87v-683q-128 -31 -262 -31q-141 0 -218.5 72t-77.5 210zM374 740l-121 174h89l99 -174h-67z" />
    <glyph glyph-name="ucircumflex.ss02" horiz-adv-x="734" 
d="M88 268v432h87v-429q0 -110 51.5 -160.5t162.5 -50.5q83 0 170 14v626h87v-683q-128 -31 -262 -31q-141 0 -218.5 72t-77.5 210zM315 914h104l105 -174h-65l-92 125l-92 -125h-65z" />
    <glyph glyph-name="udieresis.ss02" horiz-adv-x="734" 
d="M88 268v432h87v-429q0 -110 51.5 -160.5t162.5 -50.5q83 0 170 14v626h87v-683q-128 -31 -262 -31q-141 0 -218.5 72t-77.5 210zM274 891v-128h-78v128h78zM538 891v-128h-78v128h78z" />
    <glyph glyph-name="ae.ss02" horiz-adv-x="1142" 
d="M491 82v240q-97 23 -172 23q-114 0 -150 -44q-29 -35 -29 -99q0 -63 29 -100q37 -43 150 -43q75 0 172 23zM796 641q-99 0 -151.5 -57t-63.5 -173h417q-7 114 -54.5 172t-147.5 58zM814 59q119 0 248 41l16 -73q-137 -41 -264 -41q-165 0 -244 85v-46q-156 -39 -257 -39
q-147 0 -205 58t-58 158q0 99 58 157q59 59 205 59q73 0 178 -21v66q0 98 -37.5 138.5t-125.5 40.5q-99 0 -213 -47l-15 83q136 36 231 36q169 0 221 -109q76 109 244 109q146 0 218.5 -86t72.5 -267v-23h-509q4 -151 59 -216q55 -63 177 -63z" />
    <glyph glyph-name="oe.ss02" horiz-adv-x="1244" 
d="M534 126q57 67 57 224q0 156 -57 224q-55 67 -166 67q-110 0 -167 -67q-56 -68 -56 -224t56 -224q57 -67 167 -67q111 0 166 67zM898 641q-99 0 -151.5 -57t-63.5 -173h417q-7 114 -54.5 172t-147.5 58zM916 59q119 0 248 41l16 -73q-137 -41 -264 -41q-207 0 -281 137
q-72 -137 -267 -137q-134 0 -217 71q-96 82 -96 293t96 293q83 71 217 71q196 0 268 -138q74 138 262 138q146 0 218.5 -86t72.5 -267v-23h-509q4 -151 59 -216q55 -63 177 -63z" />
    <glyph glyph-name="e.ss02.alt" 
d="M87 526q0 94 58.5 141t190.5 47q78 0 197 -21l-13 -81q-108 29 -183 29q-95 0 -129 -34t-34 -88q0 -62 37.5 -91.5t125.5 -29.5q39 0 107 2v-78q-51 3 -111 3q-109 0 -149 -37q-39 -38 -39 -96q0 -67 45 -100t141 -33q103 0 214 34l12 -81q-124 -26 -226 -26
q-82 0 -138 15t-85 44t-41 63.5t-12 80.5q0 70 29 113.5t92 66.5q-89 42 -89 157z" />
    <glyph glyph-name="eacute.ss02.alt" 
d="M87 526q0 94 58.5 141t190.5 47q78 0 197 -21l-13 -81q-108 29 -183 29q-95 0 -129 -34t-34 -88q0 -62 37.5 -91.5t125.5 -29.5q39 0 107 2v-78q-51 3 -111 3q-109 0 -149 -37q-39 -38 -39 -96q0 -67 45 -100t141 -33q103 0 214 34l12 -81q-124 -26 -226 -26
q-82 0 -138 15t-85 44t-41 63.5t-12 80.5q0 70 29 113.5t92 66.5q-89 42 -89 157zM261 740l99 174h89l-121 -174h-67z" />
    <glyph glyph-name="egrave.ss02.alt" 
d="M87 526q0 94 58.5 141t190.5 47q78 0 197 -21l-13 -81q-108 29 -183 29q-95 0 -129 -34t-34 -88q0 -62 37.5 -91.5t125.5 -29.5q39 0 107 2v-78q-51 3 -111 3q-109 0 -149 -37q-39 -38 -39 -96q0 -67 45 -100t141 -33q103 0 214 34l12 -81q-124 -26 -226 -26
q-82 0 -138 15t-85 44t-41 63.5t-12 80.5q0 70 29 113.5t92 66.5q-89 42 -89 157zM312 740l-121 174h89l99 -174h-67z" />
    <glyph glyph-name="ecircumflex.ss02.alt" 
d="M87 526q0 94 58.5 141t190.5 47q78 0 197 -21l-13 -81q-108 29 -183 29q-95 0 -129 -34t-34 -88q0 -62 37.5 -91.5t125.5 -29.5q39 0 107 2v-78q-51 3 -111 3q-109 0 -149 -37q-39 -38 -39 -96q0 -67 45 -100t141 -33q103 0 214 34l12 -81q-124 -26 -226 -26
q-82 0 -138 15t-85 44t-41 63.5t-12 80.5q0 70 29 113.5t92 66.5q-89 42 -89 157zM278 914h104l105 -174h-65l-92 125l-92 -125h-65z" />
    <glyph glyph-name="edieresis.ss02.alt" 
d="M87 526q0 94 58.5 141t190.5 47q78 0 197 -21l-13 -81q-108 29 -183 29q-95 0 -129 -34t-34 -88q0 -62 37.5 -91.5t125.5 -29.5q39 0 107 2v-78q-51 3 -111 3q-109 0 -149 -37q-39 -38 -39 -96q0 -67 45 -100t141 -33q103 0 214 34l12 -81q-124 -26 -226 -26
q-82 0 -138 15t-85 44t-41 63.5t-12 80.5q0 70 29 113.5t92 66.5q-89 42 -89 157zM237 891v-128h-78v128h78zM501 891v-128h-78v128h78z" />
    <glyph glyph-name="u.ss02" horiz-adv-x="734" 
d="M88 268v432h87v-429q0 -110 51.5 -160.5t162.5 -50.5q83 0 170 14v626h87v-683q-128 -31 -262 -31q-141 0 -218.5 72t-77.5 210z" />
    <glyph glyph-name="ordfeminine.ss02" horiz-adv-x="515" 
d="M352 241v150q-62 14 -109 14q-71 0 -93 -24q-22 -23 -22 -65q0 -43 22 -66q22 -24 93 -24q45 0 109 15zM235 468q52 0 117 -13v42q0 62 -25 88t-83 26q-66 0 -148 -33l-13 70q112 26 166 26q95 0 136.5 -44.5t41.5 -131.5v-305q-111 -29 -192 -29q-106 0 -145.5 42
t-39.5 110t39.5 110t145.5 42z" />
    <glyph glyph-name="ordmasculine.ss02" horiz-adv-x="554" 
d="M133 419q0 -101 35.5 -147t108.5 -46t108.5 46t35.5 147t-35.5 146.5t-108.5 45.5t-108.5 -45.5t-35.5 -146.5zM499 419q0 -142 -60 -199q-59 -56 -162 -56q-102 0 -163 56q-59 57 -59 199q0 141 59 198q60 57 163 57t162 -57q60 -57 60 -198z" />
    <glyph glyph-name="afii10193.ss02" horiz-adv-x="734" 
d="M328 -180v130h86v-130h-86zM88 268v432h87v-429q0 -110 51.5 -160.5t162.5 -50.5q83 0 170 14v626h87v-683q-128 -31 -262 -31q-141 0 -218.5 72t-77.5 210z" />
    <glyph glyph-name="afii10070.ss02" horiz-adv-x="708" 
d="M380 59q119 0 248 41l16 -73q-137 -41 -264 -41q-184 0 -258 101q-67 94 -67 263q0 364 307 364q146 0 218.5 -86t72.5 -267v-23h-509q4 -151 59 -216q55 -63 177 -63zM362 641q-99 0 -151.5 -57t-63.5 -173h417q-7 114 -54.5 172t-147.5 58z" />
    <glyph glyph-name="afii10071.ss02" horiz-adv-x="708" 
d="M380 59q119 0 248 41l16 -73q-137 -41 -264 -41q-184 0 -258 101q-67 94 -67 263q0 364 307 364q146 0 218.5 -86t72.5 -267v-23h-509q4 -151 59 -216q55 -63 177 -63zM362 641q-99 0 -151.5 -57t-63.5 -173h417q-7 114 -54.5 172t-147.5 58zM261 891v-128h-78v128h78z
M525 891v-128h-78v128h78z" />
    <glyph glyph-name="afii10065.ss02" horiz-adv-x="658" 
d="M491 82v240q-97 23 -172 23q-114 0 -150 -44q-29 -35 -29 -99q0 -63 29 -100q37 -43 150 -43q75 0 172 23zM313 418q73 0 178 -21v66q0 98 -37.5 138.5t-125.5 40.5q-99 0 -213 -47l-15 83q136 36 231 36q60 0 104.5 -14t71.5 -36.5t43.5 -56t22 -67t5.5 -74.5v-439
q-166 -41 -265 -41q-147 0 -205 58t-58 158q0 99 58 157q59 59 205 59z" />
    <glyph glyph-name="afii10074.ss02" horiz-adv-x="734" 
d="M88 268v432h87v-429q0 -110 51.5 -160.5t162.5 -50.5q83 0 170 14v626h87v-683q-128 -31 -262 -31q-141 0 -218.5 72t-77.5 210z" />
    <glyph glyph-name="afii10075.ss02" horiz-adv-x="734" 
d="M88 268v432h87v-429q0 -110 51.5 -160.5t162.5 -50.5q83 0 170 14v626h87v-683q-128 -31 -262 -31q-141 0 -218.5 72t-77.5 210zM187 847l56 39q39 -65 124 -65t124 65l56 -39q-59 -93 -180 -93t-180 93z" />
    <glyph glyph-name="afii10081.ss02" horiz-adv-x="734" 
d="M646 432v-432h-87v429q0 110 -51.5 160.5t-162.5 50.5q-83 0 -170 -14v-626h-87v683q128 31 262 31q141 0 218.5 -72t77.5 -210z" />
    <glyph glyph-name="afii10088.ss02" horiz-adv-x="753" 
d="M88 268v432h87v-429q0 -110 51.5 -160.5t162.5 -50.5q83 0 170 14v626h87v-612h77v-218h-76l-9 145q-133 -29 -254 -29q-141 0 -218.5 72t-77.5 210z" />
    <glyph glyph-name="afii10090.ss02" horiz-adv-x="1001" 
d="M88 308v392h87v-389q0 -125 60 -183q63 -60 222 -67v639h87v-640q168 5 282 32v608h87v-664q-202 -50 -402 -50q-119 1 -201.5 22t-131 62.5t-69.5 99t-21 138.5z" />
    <glyph glyph-name="afii10091.ss02" horiz-adv-x="1020" 
d="M88 308v392h87v-389q0 -125 60 -183q63 -60 222 -67v639h87v-640q168 5 282 32v608h87v-598h77v-232h-76l-9 161q-236 -45 -394 -45q-119 1 -201.5 22t-131 62.5t-69.5 99t-21 138.5z" />
    <glyph glyph-name="afii10070.ss02.alt" 
d="M87 526q0 94 58.5 141t190.5 47q78 0 197 -21l-13 -81q-108 29 -183 29q-95 0 -129 -34t-34 -88q0 -62 37.5 -91.5t125.5 -29.5q39 0 107 2v-78q-51 3 -111 3q-109 0 -149 -37q-39 -38 -39 -96q0 -67 45 -100t141 -33q103 0 214 34l12 -81q-124 -26 -226 -26
q-82 0 -138 15t-85 44t-41 63.5t-12 80.5q0 70 29 113.5t92 66.5q-89 42 -89 157z" />
    <glyph glyph-name="afii10071.ss02.alt" 
d="M87 526q0 94 58.5 141t190.5 47q78 0 197 -21l-13 -81q-108 29 -183 29q-95 0 -129 -34t-34 -88q0 -62 37.5 -91.5t125.5 -29.5q39 0 107 2v-78q-51 3 -111 3q-109 0 -149 -37q-39 -38 -39 -96q0 -67 45 -100t141 -33q103 0 214 34l12 -81q-124 -26 -226 -26
q-82 0 -138 15t-85 44t-41 63.5t-12 80.5q0 70 29 113.5t92 66.5q-89 42 -89 157zM237 891v-128h-78v128h78zM501 891v-128h-78v128h78z" />
    <glyph glyph-name="afii10070.ss02.accented" horiz-adv-x="708" 
d="M380 59q119 0 248 41l16 -73q-137 -41 -264 -41q-184 0 -258 101q-67 94 -67 263q0 364 307 364q146 0 218.5 -86t72.5 -267v-23h-509q4 -151 59 -216q55 -63 177 -63zM362 641q-99 0 -151.5 -57t-63.5 -173h417q-7 114 -54.5 172t-147.5 58zM301 740l99 174h89
l-121 -174h-67z" />
    <glyph glyph-name="afii10071.ss02.accented" horiz-adv-x="708" 
d="M240 901v-128h-78v128h78zM555 901v-128h-78v128h78zM380 59q119 0 248 41l16 -73q-137 -41 -264 -41q-184 0 -258 101q-67 94 -67 263q0 364 307 364q146 0 218.5 -86t72.5 -267v-23h-509q4 -151 59 -216q55 -63 177 -63zM362 641q-99 0 -151.5 -57t-63.5 -173h417
q-7 114 -54.5 172t-147.5 58zM270 740l99 174h89l-121 -174h-67z" />
    <glyph glyph-name="afii10071.ss02.accented.alt" 
d="M200 901v-128h-78v128h78zM515 901v-128h-78v128h78zM87 526q0 94 58.5 141t190.5 47q78 0 197 -21l-13 -81q-108 29 -183 29q-95 0 -129 -34t-34 -88q0 -62 37.5 -91.5t125.5 -29.5q39 0 107 2v-78q-51 3 -111 3q-109 0 -149 -37q-39 -38 -39 -96q0 -67 45 -100t141 -33
q103 0 214 34l12 -81q-124 -26 -226 -26q-82 0 -138 15t-85 44t-41 63.5t-12 80.5q0 70 29 113.5t92 66.5q-89 42 -89 157zM230 740l99 174h89l-121 -174h-67z" />
    <glyph glyph-name="afii10074.ss02.accented" horiz-adv-x="734" 
d="M88 268v432h87v-429q0 -110 51.5 -160.5t162.5 -50.5q83 0 170 14v626h87v-683q-128 -31 -262 -31q-141 0 -218.5 72t-77.5 210zM286 740l99 174h89l-121 -174h-67z" />
    <glyph glyph-name="afii10070.ss02.accented.alt" 
d="M87 526q0 94 58.5 141t190.5 47q78 0 197 -21l-13 -81q-108 29 -183 29q-95 0 -129 -34t-34 -88q0 -62 37.5 -91.5t125.5 -29.5q39 0 107 2v-78q-51 3 -111 3q-109 0 -149 -37q-39 -38 -39 -96q0 -67 45 -100t141 -33q103 0 214 34l12 -81q-124 -26 -226 -26
q-82 0 -138 15t-85 44t-41 63.5t-12 80.5q0 70 29 113.5t92 66.5q-89 42 -89 157zM271 740l99 174h89l-121 -174h-67z" />
    <glyph glyph-name="afii10065.ss02.accented" horiz-adv-x="658" 
d="M491 82v240q-97 23 -172 23q-114 0 -150 -44q-29 -35 -29 -99q0 -63 29 -100q37 -43 150 -43q75 0 172 23zM313 418q73 0 178 -21v66q0 98 -37.5 138.5t-125.5 40.5q-99 0 -213 -47l-15 83q136 36 231 36q60 0 104.5 -14t71.5 -36.5t43.5 -56t22 -67t5.5 -74.5v-439
q-166 -41 -265 -41q-147 0 -205 58t-58 158q0 99 58 157q59 59 205 59zM266 740l99 174h89l-121 -174h-67z" />
    <glyph glyph-name="ccedilla.ss02" horiz-adv-x="624" 
d="M396 -13l-3 -27h10q54 0 83 -26t29 -72q0 -49 -29.5 -73.5t-82.5 -24.5q-42 0 -89 10l7 52q40 -14 73 -14q37 -4 52 23t0 54t-52 23q-31 0 -64 -3l10 78q-285 14 -285 363q0 188 79.5 276t233.5 88q71 0 201 -23l-13 -83q-117 33 -186 33q-118 0 -171.5 -70t-53.5 -221
t53.5 -221t171.5 -70q69 0 186 33l13 -80q-96 -22 -173 -25z" />
    <glyph glyph-name="igrave.ss02" horiz-adv-x="263" 
d="M175 0h-87v700h87v-700zM119 740l-121 174h89l99 -174h-67z" />
    <glyph glyph-name="iacute.ss02" horiz-adv-x="263" 
d="M175 0h-87v700h87v-700zM77 740l99 174h89l-121 -174h-67z" />
    <glyph glyph-name="icircumflex.ss02" horiz-adv-x="263" 
d="M175 0h-87v700h87v-700zM80 914h104l105 -174h-65l-92 125l-92 -125h-65z" />
    <glyph glyph-name="idieresis.ss02" horiz-adv-x="263" 
d="M84 891v-128h-76v128h76zM255 891v-128h-76v128h76zM175 0h-87v700h87v-700z" />
    <glyph glyph-name="eth.ss02" horiz-adv-x="735" 
d="M21 386h79v298q114 30 225 30q191 0 273 -94q82 -92 82 -270q0 -177 -82 -271q-82 -93 -273 -93q-111 0 -225 30v299h-79v71zM318 315h-131v-241q65 -15 137 -15q141 0 203.5 70.5t62.5 220.5t-62.5 220.5t-203.5 70.5q-72 0 -137 -15v-240h131v-71z" />
    <glyph glyph-name="ograve.ss02" horiz-adv-x="736" 
d="M656 530q25 -72 25 -180t-25 -180q-43 -130 -169 -168q-51 -16 -119 -16t-119 16q-126 38 -169 168q-25 72 -25 180t25 180q43 130 169 168q51 16 119 16t119 -16q126 -38 169 -168zM534 126q57 67 57 224q0 156 -57 224q-55 67 -166 67q-110 0 -167 -67
q-56 -68 -56 -224t56 -224q57 -67 167 -67q111 0 166 67zM384 740l-121 174h89l99 -174h-67z" />
    <glyph glyph-name="oacute.ss02" horiz-adv-x="736" 
d="M656 530q25 -72 25 -180t-25 -180q-43 -130 -169 -168q-51 -16 -119 -16t-119 16q-126 38 -169 168q-25 72 -25 180t25 180q43 130 169 168q51 16 119 16t119 -16q126 -38 169 -168zM534 126q57 67 57 224q0 156 -57 224q-55 67 -166 67q-110 0 -167 -67
q-56 -68 -56 -224t56 -224q57 -67 167 -67q111 0 166 67zM336 740l99 174h89l-121 -174h-67z" />
    <glyph glyph-name="ocircumflex.ss02" horiz-adv-x="736" 
d="M656 530q25 -72 25 -180t-25 -180q-43 -130 -169 -168q-51 -16 -119 -16t-119 16q-126 38 -169 168q-25 72 -25 180t25 180q43 130 169 168q51 16 119 16t119 -16q126 -38 169 -168zM534 126q57 67 57 224q0 156 -57 224q-55 67 -166 67q-110 0 -167 -67
q-56 -68 -56 -224t56 -224q57 -67 167 -67q111 0 166 67zM316 914h104l105 -174h-65l-92 125l-92 -125h-65z" />
    <glyph glyph-name="otilde.ss02" horiz-adv-x="736" 
d="M656 530q25 -72 25 -180t-25 -180q-43 -130 -169 -168q-51 -16 -119 -16t-119 16q-126 38 -169 168q-25 72 -25 180t25 180q43 130 169 168q51 16 119 16t119 -16q126 -38 169 -168zM534 126q57 67 57 224q0 156 -57 224q-55 67 -166 67q-110 0 -167 -67
q-56 -68 -56 -224t56 -224q57 -67 167 -67q111 0 166 67zM535 889l35 -51q-31 -38 -56 -52.5t-63 -14.5q-44 0 -99 29q-46 24 -69 24q-26 0 -43.5 -11.5t-38.5 -42.5l-35 51q31 38 56 52.5t63 14.5q44 0 99 -29q46 -24 69 -24q27 0 44 11.5t38 42.5z" />
    <glyph glyph-name="odieresis.ss02" horiz-adv-x="736" 
d="M656 530q25 -72 25 -180t-25 -180q-43 -130 -169 -168q-51 -16 -119 -16t-119 16q-126 38 -169 168q-25 72 -25 180t25 180q43 130 169 168q51 16 119 16t119 -16q126 -38 169 -168zM534 126q57 67 57 224q0 156 -57 224q-55 67 -166 67q-110 0 -167 -67
q-56 -68 -56 -224t56 -224q57 -67 167 -67q111 0 166 67zM275 891v-128h-78v128h78zM539 891v-128h-78v128h78z" />
    <glyph glyph-name="oslash.ss02" horiz-adv-x="736" 
d="M591 350q0 163 -65 234l-256 -509q41 -16 98 -16q113 0 168 68.5t55 222.5zM145 350q0 -163 65 -234l255 508q-45 17 -97 17q-113 0 -168 -68.5t-55 -222.5zM536 765h81l-53 -105q117 -85 117 -310q0 -211 -96 -293q-83 -71 -217 -71q-73 0 -133 20l-35 -71h-81l53 105
q-117 86 -117 310q0 211 96 293q83 71 217 71q72 0 132 -20z" />
    <glyph glyph-name="thorn.ss02" horiz-adv-x="615" 
d="M175 493v-273q86 -14 133 -14q177 0 177 151t-177 151q-54 0 -133 -15zM88 700h87v-133q92 14 135 14q265 0 265 -224t-265 -224q-53 0 -135 14v-147h-87v700z" />
    <glyph glyph-name="yacute.ss02" horiz-adv-x="651" 
d="M325 351h1l220 349h104l-281 -436v-264h-87v264l-281 436h104zM268 740l99 174h89l-121 -174h-67z" />
    <glyph glyph-name="ydieresis.ss02" horiz-adv-x="651" 
d="M325 351h1l220 349h104l-281 -436v-264h-87v264l-281 436h104zM233 891v-128h-78v128h78zM497 891v-128h-78v128h78z" />
    <glyph glyph-name="germandbls.ss02" horiz-adv-x="639" 
d="M544 543l-171 -149q108 -7 159.5 -56t51.5 -145q0 -97 -57 -150q-58 -53 -204 -53q-2 0 -11 0.5t-26 1t-34 0.5v73q42 -2 67 -2q97 0 136 31t39 100q0 71 -41.5 101t-134.5 30h-66v60l200 175q-15 42 -45.5 61.5t-92.5 19.5q-78 0 -112.5 -36.5t-34.5 -119.5v-485h-87
v483q0 120 59.5 175.5t175.5 55.5q109 0 164 -40.5t65 -130.5z" />
    <glyph glyph-name="scaron.ss02" horiz-adv-x="601" 
d="M297 59q159 0 159 125q0 48 -22 77q-27 40 -117 52l-35 5q-113 16 -164.5 63.5t-51.5 138.5q0 96 59.5 145t174.5 49q79 0 218 -29l-12 -83q-124 39 -205 39q-145 0 -145 -121q0 -57 31.5 -85.5t107.5 -39.5l35 -5q122 -17 169 -71q47 -53 47 -134q0 -199 -249 -199
q-99 0 -247 35l14 87q59 -23 127 -37q66 -12 106 -12zM393 914h65l-105 -174h-104l-105 174h65l92 -125z" />
    <glyph glyph-name="zcaron.ss02" horiz-adv-x="608" 
d="M154 73h404v-73h-508v73l391 554h-378v73h482v-73zM396 914h65l-105 -174h-104l-105 174h65l92 -125z" />
    <glyph glyph-name="lslash.ss02" horiz-adv-x="539" 
d="M187 73h330v-73h-417v349l-79 -24v73l79 24v278h87v-251l160 49v-73l-160 -49v-303z" />
    <glyph glyph-name="v.ss02" horiz-adv-x="680" 
d="M669 700l-280 -700h-100l-278 700h95l233 -599l235 599h95z" />
    <glyph glyph-name="acircumflex.ss01" horiz-adv-x="522" 
d="M247 234q-71 0 -97 -22.5t-26 -69.5t26 -69.5t97 -22.5q57 0 120 16v152q-68 16 -120 16zM367 284v48q0 60 -24 88t-89 28q-58 0 -159 -33l-13 71q122 26 174 26q108 0 148 -49q41 -49 41 -129v-316q-117 -32 -199 -32q-114 0 -158 42q-44 44 -44 114q0 71 44 113
q43 43 158 43q45 0 121 -14zM205 762h98l99 -174h-61l-87 125l-87 -125h-61z" />
    <glyph glyph-name="agrave.ss01" horiz-adv-x="522" 
d="M247 234q-71 0 -97 -22.5t-26 -69.5t26 -69.5t97 -22.5q57 0 120 16v152q-68 16 -120 16zM367 284v48q0 60 -24 88t-89 28q-58 0 -159 -33l-13 71q122 26 174 26q108 0 148 -49q41 -49 41 -129v-316q-117 -32 -199 -32q-114 0 -158 42q-44 44 -44 114q0 71 44 113
q43 43 158 43q45 0 121 -14zM269 588l-121 174h83l99 -174h-61z" />
    <glyph glyph-name="aacute.ss01" horiz-adv-x="522" 
d="M247 234q-71 0 -97 -22.5t-26 -69.5t26 -69.5t97 -22.5q57 0 120 16v152q-68 16 -120 16zM367 284v48q0 60 -24 88t-89 28q-58 0 -159 -33l-13 71q122 26 174 26q108 0 148 -49q41 -49 41 -129v-316q-117 -32 -199 -32q-114 0 -158 42q-44 44 -44 114q0 71 44 113
q43 43 158 43q45 0 121 -14zM196 588l99 174h83l-121 -174h-61z" />
    <glyph glyph-name="u.ss01" horiz-adv-x="575" 
d="M77 189v309h78v-306q0 -73 32.5 -107.5t107.5 -34.5q65 0 125 15v433h78v-478q-98 -34 -205 -34t-161.5 52t-54.5 151z" />
    <glyph glyph-name="r.ss01" horiz-adv-x="341" 
d="M330 511v-70q-12 1 -33 1q-75 0 -142 -18v-424h-78v478q99 34 205 34q36 0 48 -1z" />
    <glyph glyph-name="q.ss01" horiz-adv-x="580" 
d="M503 -200h-78v201q-75 -15 -137 -15q-140 0 -192 80q-46 72 -46 183t46 182q51 81 192 81q113 0 215 -34v-678zM425 67v364q-73 17 -137 17q-83 0 -120.5 -49.5t-37.5 -149.5t37.5 -149.5t120.5 -49.5q64 0 137 17z" />
    <glyph glyph-name="p.ss01" horiz-adv-x="580" 
d="M155 1v-201h-78v678q102 34 215 34q141 0 192 -81q46 -71 46 -182t-46 -183q-52 -80 -192 -80q-62 0 -137 15zM155 431v-364q73 -17 137 -17q83 0 120.5 49.5t37.5 149.5t-37.5 149.5t-120.5 49.5q-64 0 -137 -17z" />
    <glyph glyph-name="hyphenminus" horiz-adv-x="478" 
d="M390 297v-70h-302v70h302z" />
    <glyph glyph-name="afii10099.ss01" horiz-adv-x="613" 
d="M458 94v189q0 73 -32.5 107.5t-107.5 34.5q-65 0 -125 -15v-410h-78v582h-70v59h70v99h78v-99h186v-59h-186v-106q62 13 127 13q107 0 161.5 -52t54.5 -151v-194q0 -167 -49 -231q-48 -66 -162 -75l-7 64q82 8 110 57q30 49 30 187z" />
    <glyph glyph-name="afii10108.ss01" horiz-adv-x="613" 
d="M379 582h-186v-106q62 13 127 13q107 0 161.5 -52t54.5 -151v-286h-78v283q0 73 -32.5 107.5t-107.5 34.5q-65 0 -125 -15v-410h-78v582h-70v59h70v99h78v-99h186v-59z" />
    <glyph glyph-name="afii10193.ss01" horiz-adv-x="575" 
d="M249 -180v130h78v-130h-78zM77 189v309h78v-306q0 -73 32.5 -107.5t107.5 -34.5q65 0 125 15v433h78v-478q-98 -34 -205 -34t-161.5 52t-54.5 151z" />
    <glyph glyph-name="aacute.ss04" horiz-adv-x="580" 
d="M425 94v310q-100 44 -153 44q-76 0 -109 -45t-33 -154t33 -154t109 -45q53 0 153 44zM427 498h76v-498h-76v32q-99 -46 -170 -46q-104 0 -155.5 62.5t-51.5 200.5t51.5 200.5t155.5 62.5q71 0 170 -46v32zM239 588l99 174h83l-121 -174h-61z" />
    <glyph glyph-name="agrave.ss04" horiz-adv-x="580" 
d="M425 94v310q-100 44 -153 44q-76 0 -109 -45t-33 -154t33 -154t109 -45q53 0 153 44zM427 498h76v-498h-76v32q-99 -46 -170 -46q-104 0 -155.5 62.5t-51.5 200.5t51.5 200.5t155.5 62.5q71 0 170 -46v32zM290 588l-121 174h83l99 -174h-61z" />
    <glyph glyph-name="acircumflex.ss04" horiz-adv-x="580" 
d="M425 94v310q-100 44 -153 44q-76 0 -109 -45t-33 -154t33 -154t109 -45q53 0 153 44zM427 498h76v-498h-76v32q-99 -46 -170 -46q-104 0 -155.5 62.5t-51.5 200.5t51.5 200.5t155.5 62.5q71 0 170 -46v32zM231 762h98l99 -174h-61l-87 125l-87 -125h-61z" />
    <glyph glyph-name="adieresis.ss04" horiz-adv-x="580" 
d="M425 94v310q-100 44 -153 44q-76 0 -109 -45t-33 -154t33 -154t109 -45q53 0 153 44zM427 498h76v-498h-76v32q-99 -46 -170 -46q-104 0 -155.5 62.5t-51.5 200.5t51.5 200.5t155.5 62.5q71 0 170 -46v32zM195 740v-128h-78v128h78zM443 740v-128h-78v128h78z" />
    <glyph glyph-name="atilde.ss04" horiz-adv-x="580" 
d="M425 94v310q-100 44 -153 44q-76 0 -109 -45t-33 -154t33 -154t109 -45q53 0 153 44zM427 498h76v-498h-76v32q-99 -46 -170 -46q-104 0 -155.5 62.5t-51.5 200.5t51.5 200.5t155.5 62.5q71 0 170 -46v32zM435 732l32 -48q-28 -35 -51.5 -48.5t-58.5 -13.5q-43 0 -92 27
q-41 22 -64 22q-24 0 -40.5 -11t-35.5 -39l-32 48q28 35 51.5 48.5t58.5 13.5q42 0 92 -27q41 -22 64 -22q24 0 40.5 11t35.5 39z" />
    <glyph glyph-name="aring.ss04" horiz-adv-x="580" 
d="M425 94v310q-100 44 -153 44q-76 0 -109 -45t-33 -154t33 -154t109 -45q53 0 153 44zM427 498h76v-498h-76v32q-99 -46 -170 -46q-104 0 -155.5 62.5t-51.5 200.5t51.5 200.5t155.5 62.5q71 0 170 -46v32zM280 786q113 0 113 -112t-113 -112t-113 112t113 112zM233 726
q-15 -16 -15 -52t15 -52t47 -16t47 16t15 52t-15 52t-47 16t-47 -16z" />
    <glyph glyph-name="ae.ss04" horiz-adv-x="933" 
d="M425 94v310q-100 44 -153 44q-76 0 -109 -45t-33 -154t33 -154t109 -45q53 0 153 44zM659 448q-137 0 -154 -153h299q-5 78 -38.5 115.5t-106.5 37.5zM677 50q88 0 184 28l15 -64q-103 -28 -203 -28q-118 0 -180 56v-42h-66v32q-99 -46 -170 -46q-104 0 -155.5 62.5
t-51.5 200.5t51.5 200.5t155.5 62.5q71 0 170 -46v32h66v-43q60 57 166 57q125 0 174 -69q50 -68 50 -194v-17h-380q5 -97 44.5 -139.5t129.5 -42.5z" />
    <glyph glyph-name="A.ss03" horiz-adv-x="658" 
d="M491 82v240q-97 23 -172 23q-114 0 -150 -44q-29 -35 -29 -99q0 -63 29 -100q37 -43 150 -43q75 0 172 23zM313 418q73 0 178 -21v66q0 98 -37.5 138.5t-125.5 40.5q-99 0 -213 -47l-15 83q136 36 231 36q60 0 104.5 -14t71.5 -36.5t43.5 -56t22 -67t5.5 -74.5v-439
q-166 -41 -265 -41q-147 0 -205 58t-58 158q0 99 58 157q59 59 205 59z" />
    <glyph glyph-name="E.ss03" horiz-adv-x="708" 
d="M380 59q119 0 248 41l16 -73q-137 -41 -264 -41q-184 0 -258 101q-67 94 -67 263q0 364 307 364q146 0 218.5 -86t72.5 -267v-23h-509q4 -151 59 -216q55 -63 177 -63zM362 641q-99 0 -151.5 -57t-63.5 -173h417q-7 114 -54.5 172t-147.5 58z" />
    <glyph glyph-name="M.ss03" horiz-adv-x="1161" 
d="M624 0h-87v429q0 110 -48.5 160.5t-153.5 50.5q-78 0 -160 -14v-626h-87v683q123 31 252 31q122 0 197 -60q143 60 250 60q61 0 110.5 -14.5t90 -45.5t63 -87.5t22.5 -134.5v-432h-87v429q0 115 -48 163t-155 48q-82 0 -196 -47q37 -61 37 -161v-432z" />
    <glyph glyph-name="N.ss03" horiz-adv-x="734" 
d="M646 432v-432h-87v429q0 110 -51.5 160.5t-162.5 50.5q-83 0 -170 -14v-626h-87v683q128 31 262 31q141 0 218.5 -72t77.5 -210z" />
    <glyph glyph-name="U.ss03" horiz-adv-x="734" 
d="M88 268v432h87v-429q0 -110 51.5 -160.5t162.5 -50.5q83 0 170 14v626h87v-683q-128 -31 -262 -31q-141 0 -218.5 72t-77.5 210z" />
    <glyph glyph-name="Aacute.ss03" horiz-adv-x="658" 
d="M491 82v240q-97 23 -172 23q-114 0 -150 -44q-29 -35 -29 -99q0 -63 29 -100q37 -43 150 -43q75 0 172 23zM313 418q73 0 178 -21v66q0 98 -37.5 138.5t-125.5 40.5q-99 0 -213 -47l-15 83q136 36 231 36q60 0 104.5 -14t71.5 -36.5t43.5 -56t22 -67t5.5 -74.5v-439
q-166 -41 -265 -41q-147 0 -205 58t-58 158q0 99 58 157q59 59 205 59zM277 740l99 174h89l-121 -174h-67z" />
    <glyph glyph-name="Agrave.ss03" horiz-adv-x="658" 
d="M491 82v240q-97 23 -172 23q-114 0 -150 -44q-29 -35 -29 -99q0 -63 29 -100q37 -43 150 -43q75 0 172 23zM313 418q73 0 178 -21v66q0 98 -37.5 138.5t-125.5 40.5q-99 0 -213 -47l-15 83q136 36 231 36q60 0 104.5 -14t71.5 -36.5t43.5 -56t22 -67t5.5 -74.5v-439
q-166 -41 -265 -41q-147 0 -205 58t-58 158q0 99 58 157q59 59 205 59zM319 740l-121 174h89l99 -174h-67z" />
    <glyph glyph-name="Acircumflex.ss03" horiz-adv-x="658" 
d="M491 82v240q-97 23 -172 23q-114 0 -150 -44q-29 -35 -29 -99q0 -63 29 -100q37 -43 150 -43q75 0 172 23zM313 418q73 0 178 -21v66q0 98 -37.5 138.5t-125.5 40.5q-99 0 -213 -47l-15 83q136 36 231 36q60 0 104.5 -14t71.5 -36.5t43.5 -56t22 -67t5.5 -74.5v-439
q-166 -41 -265 -41q-147 0 -205 58t-58 158q0 99 58 157q59 59 205 59zM259 914h104l105 -174h-65l-92 125l-92 -125h-65z" />
    <glyph glyph-name="Adieresis.ss03" horiz-adv-x="658" 
d="M491 82v240q-97 23 -172 23q-114 0 -150 -44q-29 -35 -29 -99q0 -63 29 -100q37 -43 150 -43q75 0 172 23zM313 418q73 0 178 -21v66q0 98 -37.5 138.5t-125.5 40.5q-99 0 -213 -47l-15 83q136 36 231 36q60 0 104.5 -14t71.5 -36.5t43.5 -56t22 -67t5.5 -74.5v-439
q-166 -41 -265 -41q-147 0 -205 58t-58 158q0 99 58 157q59 59 205 59zM218 891v-128h-78v128h78zM482 891v-128h-78v128h78z" />
    <glyph glyph-name="Atilde.ss03" horiz-adv-x="658" 
d="M491 82v240q-97 23 -172 23q-114 0 -150 -44q-29 -35 -29 -99q0 -63 29 -100q37 -43 150 -43q75 0 172 23zM313 418q73 0 178 -21v66q0 98 -37.5 138.5t-125.5 40.5q-99 0 -213 -47l-15 83q136 36 231 36q60 0 104.5 -14t71.5 -36.5t43.5 -56t22 -67t5.5 -74.5v-439
q-166 -41 -265 -41q-147 0 -205 58t-58 158q0 99 58 157q59 59 205 59zM488 889l35 -51q-31 -38 -56 -52.5t-63 -14.5q-44 0 -99 29q-47 24 -69 24q-26 0 -43.5 -11.5t-38.5 -42.5l-35 51q31 38 56 52.5t63 14.5q44 0 99 -29q47 -24 69 -24q27 0 44 11.5t38 42.5z" />
    <glyph glyph-name="Aring.ss03" horiz-adv-x="658" 
d="M491 82v240q-97 23 -172 23q-114 0 -150 -44q-29 -35 -29 -99q0 -63 29 -100q37 -43 150 -43q75 0 172 23zM313 418q73 0 178 -21v66q0 98 -37.5 138.5t-125.5 40.5q-99 0 -213 -47l-15 83q136 36 231 36q60 0 104.5 -14t71.5 -36.5t43.5 -56t22 -67t5.5 -74.5v-439
q-166 -41 -265 -41q-147 0 -205 58t-58 158q0 99 58 157q59 59 205 59zM321 941q113 0 113 -112t-113 -112t-113 112t113 112zM274 881q-15 -17 -15 -52t15 -52q15 -16 47 -16t47 16q15 17 15 52t-15 52q-15 16 -47 16t-47 -16z" />
    <glyph glyph-name="Eacute.ss03" horiz-adv-x="708" 
d="M380 59q119 0 248 41l16 -73q-137 -41 -264 -41q-184 0 -258 101q-67 94 -67 263q0 364 307 364q146 0 218.5 -86t72.5 -267v-23h-509q4 -151 59 -216q55 -63 177 -63zM362 641q-99 0 -151.5 -57t-63.5 -173h417q-7 114 -54.5 172t-147.5 58zM301 740l99 174h89
l-121 -174h-67z" />
    <glyph glyph-name="Egrave.ss03" horiz-adv-x="708" 
d="M380 59q119 0 248 41l16 -73q-137 -41 -264 -41q-184 0 -258 101q-67 94 -67 263q0 364 307 364q146 0 218.5 -86t72.5 -267v-23h-509q4 -151 59 -216q55 -63 177 -63zM362 641q-99 0 -151.5 -57t-63.5 -173h417q-7 114 -54.5 172t-147.5 58zM343 740l-121 174h89
l99 -174h-67z" />
    <glyph glyph-name="Ecircumflex.ss03" horiz-adv-x="708" 
d="M380 59q119 0 248 41l16 -73q-137 -41 -264 -41q-184 0 -258 101q-67 94 -67 263q0 364 307 364q146 0 218.5 -86t72.5 -267v-23h-509q4 -151 59 -216q55 -63 177 -63zM362 641q-99 0 -151.5 -57t-63.5 -173h417q-7 114 -54.5 172t-147.5 58zM302 914h104l105 -174h-65
l-92 125l-92 -125h-65z" />
    <glyph glyph-name="Edieresis.ss03" horiz-adv-x="708" 
d="M380 59q119 0 248 41l16 -73q-137 -41 -264 -41q-184 0 -258 101q-67 94 -67 263q0 364 307 364q146 0 218.5 -86t72.5 -267v-23h-509q4 -151 59 -216q55 -63 177 -63zM362 641q-99 0 -151.5 -57t-63.5 -173h417q-7 114 -54.5 172t-147.5 58zM261 891v-128h-78v128h78z
M525 891v-128h-78v128h78z" />
    <glyph glyph-name="Ntilde.ss03" horiz-adv-x="734" 
d="M646 432v-432h-87v429q0 110 -51.5 160.5t-162.5 50.5q-83 0 -170 -14v-626h-87v683q128 31 262 31q141 0 218.5 -72t77.5 -210zM534 889l35 -51q-31 -38 -56 -52.5t-63 -14.5q-44 0 -99 29q-47 24 -69 24q-26 0 -43.5 -11.5t-38.5 -42.5l-35 51q31 38 56 52.5t63 14.5
q44 0 99 -29q47 -24 69 -24q27 0 44 11.5t38 42.5z" />
    <glyph glyph-name="Uacute.ss03" horiz-adv-x="734" 
d="M88 268v432h87v-429q0 -110 51.5 -160.5t162.5 -50.5q83 0 170 14v626h87v-683q-128 -31 -262 -31q-141 0 -218.5 72t-77.5 210zM283 740l99 174h89l-121 -174h-67z" />
    <glyph glyph-name="Ugrave.ss03" horiz-adv-x="734" 
d="M88 268v432h87v-429q0 -110 51.5 -160.5t162.5 -50.5q83 0 170 14v626h87v-683q-128 -31 -262 -31q-141 0 -218.5 72t-77.5 210zM374 740l-121 174h89l99 -174h-67z" />
    <glyph glyph-name="Ucircumflex.ss03" horiz-adv-x="734" 
d="M88 268v432h87v-429q0 -110 51.5 -160.5t162.5 -50.5q83 0 170 14v626h87v-683q-128 -31 -262 -31q-141 0 -218.5 72t-77.5 210zM315 914h104l105 -174h-65l-92 125l-92 -125h-65z" />
    <glyph glyph-name="Udieresis.ss03" horiz-adv-x="734" 
d="M88 268v432h87v-429q0 -110 51.5 -160.5t162.5 -50.5q83 0 170 14v626h87v-683q-128 -31 -262 -31q-141 0 -218.5 72t-77.5 210zM274 891v-128h-78v128h78zM538 891v-128h-78v128h78z" />
    <glyph glyph-name="AE.ss03" horiz-adv-x="1142" 
d="M491 82v240q-97 23 -172 23q-114 0 -150 -44q-29 -35 -29 -99q0 -63 29 -100q37 -43 150 -43q75 0 172 23zM796 641q-99 0 -151.5 -57t-63.5 -173h417q-7 114 -54.5 172t-147.5 58zM814 59q119 0 248 41l16 -73q-137 -41 -264 -41q-165 0 -244 85v-46q-156 -39 -257 -39
q-147 0 -205 58t-58 158q0 99 58 157q59 59 205 59q73 0 178 -21v66q0 98 -37.5 138.5t-125.5 40.5q-99 0 -213 -47l-15 83q136 36 231 36q169 0 221 -109q76 109 244 109q146 0 218.5 -86t72.5 -267v-23h-509q4 -151 59 -216q55 -63 177 -63z" />
    <glyph glyph-name="OE.ss03" horiz-adv-x="1244" 
d="M534 126q57 67 57 224q0 156 -57 224q-55 67 -166 67q-110 0 -167 -67q-56 -68 -56 -224t56 -224q57 -67 167 -67q111 0 166 67zM898 641q-99 0 -151.5 -57t-63.5 -173h417q-7 114 -54.5 172t-147.5 58zM916 59q119 0 248 41l16 -73q-137 -41 -264 -41q-207 0 -281 137
q-72 -137 -267 -137q-134 0 -217 71q-96 82 -96 293t96 293q83 71 217 71q196 0 268 -138q74 138 262 138q146 0 218.5 -86t72.5 -267v-23h-509q4 -151 59 -216q55 -63 177 -63z" />
    <glyph glyph-name="E.ss03.alt" 
d="M87 526q0 94 58.5 141t190.5 47q78 0 197 -21l-13 -81q-108 29 -183 29q-95 0 -129 -34t-34 -88q0 -62 37.5 -91.5t125.5 -29.5q39 0 107 2v-78q-51 3 -111 3q-109 0 -149 -37q-39 -38 -39 -96q0 -67 45 -100t141 -33q103 0 214 34l12 -81q-124 -26 -226 -26
q-82 0 -138 15t-85 44t-41 63.5t-12 80.5q0 70 29 113.5t92 66.5q-89 42 -89 157z" />
    <glyph glyph-name="Eacute.ss03.alt" 
d="M87 526q0 94 58.5 141t190.5 47q78 0 197 -21l-13 -81q-108 29 -183 29q-95 0 -129 -34t-34 -88q0 -62 37.5 -91.5t125.5 -29.5q39 0 107 2v-78q-51 3 -111 3q-109 0 -149 -37q-39 -38 -39 -96q0 -67 45 -100t141 -33q103 0 214 34l12 -81q-124 -26 -226 -26
q-82 0 -138 15t-85 44t-41 63.5t-12 80.5q0 70 29 113.5t92 66.5q-89 42 -89 157zM261 740l99 174h89l-121 -174h-67z" />
    <glyph glyph-name="Egrave.ss03.alt" 
d="M87 526q0 94 58.5 141t190.5 47q78 0 197 -21l-13 -81q-108 29 -183 29q-95 0 -129 -34t-34 -88q0 -62 37.5 -91.5t125.5 -29.5q39 0 107 2v-78q-51 3 -111 3q-109 0 -149 -37q-39 -38 -39 -96q0 -67 45 -100t141 -33q103 0 214 34l12 -81q-124 -26 -226 -26
q-82 0 -138 15t-85 44t-41 63.5t-12 80.5q0 70 29 113.5t92 66.5q-89 42 -89 157zM312 740l-121 174h89l99 -174h-67z" />
    <glyph glyph-name="Ecircumflex.ss03.alt" 
d="M87 526q0 94 58.5 141t190.5 47q78 0 197 -21l-13 -81q-108 29 -183 29q-95 0 -129 -34t-34 -88q0 -62 37.5 -91.5t125.5 -29.5q39 0 107 2v-78q-51 3 -111 3q-109 0 -149 -37q-39 -38 -39 -96q0 -67 45 -100t141 -33q103 0 214 34l12 -81q-124 -26 -226 -26
q-82 0 -138 15t-85 44t-41 63.5t-12 80.5q0 70 29 113.5t92 66.5q-89 42 -89 157zM278 914h104l105 -174h-65l-92 125l-92 -125h-65z" />
    <glyph glyph-name="Edieresis.ss03.alt" 
d="M87 526q0 94 58.5 141t190.5 47q78 0 197 -21l-13 -81q-108 29 -183 29q-95 0 -129 -34t-34 -88q0 -62 37.5 -91.5t125.5 -29.5q39 0 107 2v-78q-51 3 -111 3q-109 0 -149 -37q-39 -38 -39 -96q0 -67 45 -100t141 -33q103 0 214 34l12 -81q-124 -26 -226 -26
q-82 0 -138 15t-85 44t-41 63.5t-12 80.5q0 70 29 113.5t92 66.5q-89 42 -89 157zM237 891v-128h-78v128h78zM501 891v-128h-78v128h78z" />
    <glyph glyph-name="afii10145.ss03" horiz-adv-x="734" 
d="M328 -180v130h86v-130h-86zM88 268v432h87v-429q0 -110 51.5 -160.5t162.5 -50.5q83 0 170 14v626h87v-683q-128 -31 -262 -31q-141 0 -218.5 72t-77.5 210z" />
    <glyph glyph-name="afii10022.ss03" horiz-adv-x="708" 
d="M380 59q119 0 248 41l16 -73q-137 -41 -264 -41q-184 0 -258 101q-67 94 -67 263q0 364 307 364q146 0 218.5 -86t72.5 -267v-23h-509q4 -151 59 -216q55 -63 177 -63zM362 641q-99 0 -151.5 -57t-63.5 -173h417q-7 114 -54.5 172t-147.5 58z" />
    <glyph glyph-name="afii10023.ss03" horiz-adv-x="708" 
d="M380 59q119 0 248 41l16 -73q-137 -41 -264 -41q-184 0 -258 101q-67 94 -67 263q0 364 307 364q146 0 218.5 -86t72.5 -267v-23h-509q4 -151 59 -216q55 -63 177 -63zM362 641q-99 0 -151.5 -57t-63.5 -173h417q-7 114 -54.5 172t-147.5 58zM261 891v-128h-78v128h78z
M525 891v-128h-78v128h78z" />
    <glyph glyph-name="afii10017.ss03" horiz-adv-x="658" 
d="M491 82v240q-97 23 -172 23q-114 0 -150 -44q-29 -35 -29 -99q0 -63 29 -100q37 -43 150 -43q75 0 172 23zM313 418q73 0 178 -21v66q0 98 -37.5 138.5t-125.5 40.5q-99 0 -213 -47l-15 83q136 36 231 36q60 0 104.5 -14t71.5 -36.5t43.5 -56t22 -67t5.5 -74.5v-439
q-166 -41 -265 -41q-147 0 -205 58t-58 158q0 99 58 157q59 59 205 59z" />
    <glyph glyph-name="afii10026.ss03" horiz-adv-x="734" 
d="M88 268v432h87v-429q0 -110 51.5 -160.5t162.5 -50.5q83 0 170 14v626h87v-683q-128 -31 -262 -31q-141 0 -218.5 72t-77.5 210z" />
    <glyph glyph-name="afii10027.ss03" horiz-adv-x="734" 
d="M88 268v432h87v-429q0 -110 51.5 -160.5t162.5 -50.5q83 0 170 14v626h87v-683q-128 -31 -262 -31q-141 0 -218.5 72t-77.5 210zM187 847l56 39q39 -65 124 -65t124 65l56 -39q-59 -93 -180 -93t-180 93z" />
    <glyph glyph-name="afii10033.ss03" horiz-adv-x="734" 
d="M646 432v-432h-87v429q0 110 -51.5 160.5t-162.5 50.5q-83 0 -170 -14v-626h-87v683q128 31 262 31q141 0 218.5 -72t77.5 -210z" />
    <glyph glyph-name="afii10040.ss03" horiz-adv-x="753" 
d="M88 268v432h87v-429q0 -110 51.5 -160.5t162.5 -50.5q83 0 170 14v626h87v-612h77v-218h-76l-9 145q-133 -29 -254 -29q-141 0 -218.5 72t-77.5 210z" />
    <glyph glyph-name="afii10042.ss03" horiz-adv-x="1001" 
d="M88 308v392h87v-389q0 -125 60 -183q63 -60 222 -67v639h87v-640q168 5 282 32v608h87v-664q-202 -50 -402 -50q-119 1 -201.5 22t-131 62.5t-69.5 99t-21 138.5z" />
    <glyph glyph-name="afii10043.ss03" horiz-adv-x="1020" 
d="M88 308v392h87v-389q0 -125 60 -183q63 -60 222 -67v639h87v-640q168 5 282 32v608h87v-598h77v-232h-76l-9 161q-236 -45 -394 -45q-119 1 -201.5 22t-131 62.5t-69.5 99t-21 138.5z" />
    <glyph glyph-name="afii10022.ss03.alt" 
d="M87 526q0 94 58.5 141t190.5 47q78 0 197 -21l-13 -81q-108 29 -183 29q-95 0 -129 -34t-34 -88q0 -62 37.5 -91.5t125.5 -29.5q39 0 107 2v-78q-51 3 -111 3q-109 0 -149 -37q-39 -38 -39 -96q0 -67 45 -100t141 -33q103 0 214 34l12 -81q-124 -26 -226 -26
q-82 0 -138 15t-85 44t-41 63.5t-12 80.5q0 70 29 113.5t92 66.5q-89 42 -89 157z" />
    <glyph glyph-name="afii10023.ss03.alt" 
d="M87 526q0 94 58.5 141t190.5 47q78 0 197 -21l-13 -81q-108 29 -183 29q-95 0 -129 -34t-34 -88q0 -62 37.5 -91.5t125.5 -29.5q39 0 107 2v-78q-51 3 -111 3q-109 0 -149 -37q-39 -38 -39 -96q0 -67 45 -100t141 -33q103 0 214 34l12 -81q-124 -26 -226 -26
q-82 0 -138 15t-85 44t-41 63.5t-12 80.5q0 70 29 113.5t92 66.5q-89 42 -89 157zM237 891v-128h-78v128h78zM501 891v-128h-78v128h78z" />
    <glyph glyph-name="afii10022.ss03.accented" horiz-adv-x="708" 
d="M380 59q119 0 248 41l16 -73q-137 -41 -264 -41q-184 0 -258 101q-67 94 -67 263q0 364 307 364q146 0 218.5 -86t72.5 -267v-23h-509q4 -151 59 -216q55 -63 177 -63zM362 641q-99 0 -151.5 -57t-63.5 -173h417q-7 114 -54.5 172t-147.5 58zM301 740l99 174h89
l-121 -174h-67z" />
    <glyph glyph-name="afii10023.ss03.accented" horiz-adv-x="708" 
d="M240 901v-128h-78v128h78zM555 901v-128h-78v128h78zM380 59q119 0 248 41l16 -73q-137 -41 -264 -41q-184 0 -258 101q-67 94 -67 263q0 364 307 364q146 0 218.5 -86t72.5 -267v-23h-509q4 -151 59 -216q55 -63 177 -63zM362 641q-99 0 -151.5 -57t-63.5 -173h417
q-7 114 -54.5 172t-147.5 58zM270 740l99 174h89l-121 -174h-67z" />
    <glyph glyph-name="afii10023.ss03.accented.alt" 
d="M200 901v-128h-78v128h78zM515 901v-128h-78v128h78zM87 526q0 94 58.5 141t190.5 47q78 0 197 -21l-13 -81q-108 29 -183 29q-95 0 -129 -34t-34 -88q0 -62 37.5 -91.5t125.5 -29.5q39 0 107 2v-78q-51 3 -111 3q-109 0 -149 -37q-39 -38 -39 -96q0 -67 45 -100t141 -33
q103 0 214 34l12 -81q-124 -26 -226 -26q-82 0 -138 15t-85 44t-41 63.5t-12 80.5q0 70 29 113.5t92 66.5q-89 42 -89 157zM230 740l99 174h89l-121 -174h-67z" />
    <glyph glyph-name="afii10026.ss03.accented" horiz-adv-x="734" 
d="M88 268v432h87v-429q0 -110 51.5 -160.5t162.5 -50.5q83 0 170 14v626h87v-683q-128 -31 -262 -31q-141 0 -218.5 72t-77.5 210zM286 740l99 174h89l-121 -174h-67z" />
    <glyph glyph-name="afii10022.ss03.accented.alt" 
d="M87 526q0 94 58.5 141t190.5 47q78 0 197 -21l-13 -81q-108 29 -183 29q-95 0 -129 -34t-34 -88q0 -62 37.5 -91.5t125.5 -29.5q39 0 107 2v-78q-51 3 -111 3q-109 0 -149 -37q-39 -38 -39 -96q0 -67 45 -100t141 -33q103 0 214 34l12 -81q-124 -26 -226 -26
q-82 0 -138 15t-85 44t-41 63.5t-12 80.5q0 70 29 113.5t92 66.5q-89 42 -89 157zM271 740l99 174h89l-121 -174h-67z" />
    <glyph glyph-name="afii10017.ss03.accented" horiz-adv-x="658" 
d="M491 82v240q-97 23 -172 23q-114 0 -150 -44q-29 -35 -29 -99q0 -63 29 -100q37 -43 150 -43q75 0 172 23zM313 418q73 0 178 -21v66q0 98 -37.5 138.5t-125.5 40.5q-99 0 -213 -47l-15 83q136 36 231 36q60 0 104.5 -14t71.5 -36.5t43.5 -56t22 -67t5.5 -74.5v-439
q-166 -41 -265 -41q-147 0 -205 58t-58 158q0 99 58 157q59 59 205 59zM266 740l99 174h89l-121 -174h-67z" />
    </font>
</defs>
</svg>
