<?xml version="1.0" standalone="no"?>
<!DOCTYPE svg PUBLIC "-//W3C//DTD SVG 1.1//EN" "http://www.w3.org/Graphics/SVG/1.1/DTD/svg11.dtd" >
<svg>
<metadata>
Created by FontForge 20090622 at Sat Feb 25 19:23:35 2017
 By deploy user
Copyright &#194;&#169; 2013 ParaType Inc., ParaType Ltd. All rights reserved. wf-rip
</metadata>
<defs>
<font id="Foros-Italic" horiz-adv-x="596" >
  <font-face 
    font-family="Foros Italic"
    font-weight="400"
    font-style="italic"
    font-stretch="normal"
    units-per-em="1000"
    panose-1="2 11 5 3 2 2 3 9 2 4"
    ascent="779"
    descent="-221"
    x-height="498"
    cap-height="700"
    bbox="-394 -236 1261 941"
    underline-thickness="50"
    underline-position="-50"
    slope="-10"
    unicode-range="U+0020-U+FEFF"
  />
<missing-glyph horiz-adv-x="210" 
 />
    <glyph glyph-name="afii10017.var.accented" unicode="&#x410;`" horiz-adv-x="676" 
d="M602 0h-93l-48 232h-286l-130 -232h-96l396 700h106zM384 607l-170 -304h232zM326 740l130 174h94l-153 -174h-71z" />
    <glyph glyph-name="afii10022.var.accented" unicode="&#x415;`" 
d="M126 73h366l-13 -73h-453l123 700h442l-13 -73h-355l-41 -236h310l-13 -73h-310zM306 740l130 174h94l-153 -174h-71z" />
    <glyph glyph-name="afii10026.var.accented" unicode="&#x418;`" horiz-adv-x="714" 
d="M687 700l-123 -700h-87l99 564l-460 -564h-90l123 700h87l-99 -564l460 564h90zM333 740l130 174h94l-153 -174h-71z" />
    <glyph glyph-name="afii10032.var.accented" unicode="&#x41e;`" horiz-adv-x="736" 
d="M681 350q-54 -364 -368 -364q-114 0 -186 52q-80 58 -80 210q0 48 8 102q52 364 367 364q267 0 267 -264q0 -38 -8 -100zM591 350q8 58 8 93q0 104 -46.5 151t-141.5 47q-113 0 -178 -68.5t-88 -222.5q-8 -59 -8 -95q0 -103 46.5 -149.5t140.5 -46.5q113 0 178 68.5
t89 222.5zM376 740l130 174h94l-153 -174h-71z" />
    <glyph glyph-name="afii10037.var.accented" unicode="&#x423;`" horiz-adv-x="629" 
d="M589 700h98l-338 -536q-71 -113 -117 -146q-46 -32 -114 -32q-35 0 -63 5l14 75q27 -5 44 -5q45 0 76 25q32 26 78 100h-55l-152 514h96l138 -477zM306 740l130 174h94l-153 -174h-71z" />
    <glyph glyph-name="afii10045.var.accented" unicode="&#x42b;`" horiz-adv-x="870" 
d="M720 0h-87l123 700h87zM173 338l-47 -263q71 -16 130 -16q188 0 211 147q2 16 2 33q0 114 -169 114q-57 0 -127 -15zM29 17l120 683h87l-50 -286q78 12 128 12q119 0 182.5 -43.5t63.5 -128.5q0 -30 -3 -48q-34 -220 -309 -220q-110 0 -219 31zM400 740l130 174h94
l-153 -174h-71z" />
    <glyph glyph-name="afii10047.var.accented" unicode="&#x42d;`" horiz-adv-x="624" 
d="M570 350q-29 -188 -121.5 -276t-246.5 -88q-81 0 -197 26l24 80q105 -33 181 -33q112 0 175.5 62.5t87.5 192.5h-327l13 73h325q3 26 3 67q0 187 -189 187q-70 0 -190 -33l-1 83q130 23 205 23q128 0 197 -63.5t69 -191.5q0 -50 -8 -109zM256 740l130 174h94l-153 -174
h-71z" />
    <glyph glyph-name="afii10048.var.accented" unicode="&#x42e;`" horiz-adv-x="1036" 
d="M891 350q8 59 8 103q0 188 -182 188q-111 0 -175 -69t-85 -222q-8 -59 -8 -105q0 -186 181 -186q110 0 173.5 68.5t87.5 222.5zM236 700l-55 -312h193q62 326 354 326q261 0 261 -252q0 -51 -8 -112q-32 -212 -138 -293q-93 -71 -224 -71q-261 0 -261 251q0 51 4 78h-194
l-55 -315h-87l123 700h87zM413 740l130 174h94l-153 -174h-71z" />
    <glyph glyph-name="afii10049.var.accented" unicode="&#x42f;`" horiz-adv-x="639" 
d="M335 364h132l46 263q-92 14 -136 14q-200 0 -200 -171q0 -106 158 -106zM293 291l-218 -298l-94 19l220 294q-115 34 -115 154q0 124 79.5 189t221.5 65q90 0 223 -30l-121 -684h-87l52 291h-161zM324 740l130 174h94l-153 -174h-71z" />
    <glyph glyph-name="afii10023.var.accented" unicode="&#x401;`" 
d="M284 891l-23 -128h-78l23 128h78zM588 891l-23 -128h-78l23 128h78zM292 740l99 174h89l-121 -174h-67zM126 73h366l-13 -73h-453l123 700h442l-13 -73h-355l-41 -236h310l-13 -73h-310z" />
    <glyph glyph-name="afii10065.var.accented" unicode="&#x430;`" horiz-adv-x="522" 
d="M6 140q28 159 226 159q43 0 124 -10l7 43q3 17 3 40q0 76 -99 76q-57 0 -164 -33l-2 71q122 26 178 26q166 0 166 -129q0 -24 -4 -49l-58 -334h-74l5 27q-90 -41 -164 -41q-72 0 -109.5 31.5t-37.5 86.5q0 18 3 36zM228 235q-69 0 -101 -23.5t-41 -72.5q0 -3 -0.5 -7
t-1 -6.5t-0.5 -5v-3.5q0 -67 88 -67q65 0 148 39l24 137q-72 9 -116 9zM209 588l130 174h88l-153 -174h-65z" />
    <glyph glyph-name="afii10070.var.accented" unicode="&#x435;`" horiz-adv-x="560" 
d="M256 50q88 0 188 28l6 -64q-108 -28 -208 -28q-216 0 -216 185q0 35 6 78q19 130 89.5 196.5t185.5 66.5q191 0 191 -178q0 -54 -6 -85l-3 -17h-380q-2 -24 -2 -49q0 -69 35.5 -101t113.5 -32zM297 448q-139 0 -177 -153h299q1 9 1 38q0 115 -123 115zM269 588l130 174
h88l-153 -174h-65z" />
    <glyph glyph-name="afii10074.var.accented" unicode="&#x438;`" horiz-adv-x="580" 
d="M528 498l-87 -498h-78l67 382l-337 -382h-78l87 498h78l-67 -382l337 382h78zM231 588l130 174h88l-153 -174h-65z" />
    <glyph glyph-name="afii10080.var.accented" unicode="&#x43e;`" horiz-adv-x="588" 
d="M112 249q-5 -42 -5 -61q0 -138 139 -138q85 0 132 49.5t62 149.5q5 38 5 59q0 140 -140 140q-85 0 -131.5 -49t-61.5 -150zM520 249q-41 -263 -284 -263q-210 0 -210 194q0 32 6 69q38 263 283 263q210 0 210 -196q0 -34 -5 -67zM249 588l130 174h88l-153 -174h-65z" />
    <glyph glyph-name="afii10085.var.accented" unicode="&#x443;`" horiz-adv-x="528" 
d="M18 -150q44 0 76 23q31 22 75 103l15 27h-47l-100 495h85l88 -460l244 460h89l-303 -545q-49 -91 -101 -129q-50 -38 -123 -38q-31 0 -51 4l15 64q17 -4 38 -4zM229 588l130 174h88l-153 -174h-65z" />
    <glyph glyph-name="afii10093.var.accented" unicode="&#x44b;`" horiz-adv-x="716" 
d="M664 498l-88 -498h-78l88 498h78zM251 270q-53 0 -114 -14l-34 -192q59 -14 115 -14q129 0 146 110q2 14 2 26q0 84 -115 84zM102 498h78l-31 -176q63 12 114 12q93 0 138.5 -37t45.5 -100q0 -16 -3 -37q-26 -174 -233 -174q-84 0 -195 29zM294 588l130 174h88l-153 -174
h-65z" />
    <glyph glyph-name="afii10095.var.accented" unicode="&#x44d;`" horiz-adv-x="497" 
d="M429 249q-20 -135 -90 -199t-195 -64q-58 0 -149 21l23 71q75 -28 134 -28q81 0 126.5 40t64.5 128h-257l11 63h255q2 18 2 37q0 130 -143 130q-58 0 -141 -28l-2 71q100 21 156 21q211 0 211 -188q0 -33 -6 -75zM189 588l130 174h88l-153 -174h-65z" />
    <glyph glyph-name="afii10096.var.accented" unicode="&#x44e;`" horiz-adv-x="803" 
d="M525 448q-82 0 -127.5 -49t-60.5 -150q-5 -42 -5 -62q0 -137 134 -137q159 0 189 199q5 38 5 59q0 140 -135 140zM253 218h-122l-38 -218h-78l87 498h78l-38 -217h120q50 231 273 231q205 0 205 -195q0 -35 -5 -68q-41 -263 -279 -263q-205 0 -205 192q0 18 2 40z
M334 588l130 174h88l-153 -174h-65z" />
    <glyph glyph-name="afii10097.var.accented" unicode="&#x44f;`" horiz-adv-x="520" 
d="M380 0h-78l35 196h-118l-163 -203l-83 18l160 195q-86 32 -86 116q0 20 3 34q12 74 67.5 115t149.5 41q78 0 199 -23zM230 260h118l31 175q-66 13 -118 13q-117 0 -131 -92q-2 -12 -2 -23q0 -73 102 -73zM219 588l130 174h88l-153 -174h-65z" />
    <glyph glyph-name="afii10071.var.accented" unicode="&#x451;`" horiz-adv-x="560" 
d="M228 740l-23 -128h-78l23 128h78zM566 740l-23 -128h-78l23 128h78zM256 50q88 0 188 28l6 -64q-108 -28 -208 -28q-216 0 -216 185q0 35 6 78q19 130 89.5 196.5t185.5 66.5q191 0 191 -178q0 -54 -6 -85l-3 -17h-380q-2 -24 -2 -49q0 -69 35.5 -101t113.5 -32zM297 448
q-139 0 -177 -153h299q1 9 1 38q0 115 -123 115zM233 588l130 174h88l-153 -174h-65z" />
    <glyph glyph-name="fi" unicode="fi" horiz-adv-x="506" 
d="M498 741l-23 -129h-84l13 74q-24 4 -46 4q-70 0 -97 -35q-28 -35 -41 -115l-7 -42h242l-88 -498h-78l77 434h-164l-77 -434h-78l77 434h-77l11 64h77l8 45q19 112 69.5 161.5t149.5 49.5q54 0 136 -13z" />
    <glyph glyph-name="fl" unicode="fl" horiz-adv-x="506" 
d="M321 498l-11 -64h-108l-77 -434h-78l77 434h-77l11 64h77l8 45q19 112 69.5 161.5t149.5 49.5q59 0 136 -13l-131 -741h-78l121 685q-33 5 -52 5q-71 0 -97 -35q-26 -36 -41 -115l-7 -42h108z" />
    <glyph glyph-name=".notdef" horiz-adv-x="210" 
 />
    <glyph glyph-name=".null" horiz-adv-x="0" 
 />
    <glyph glyph-name="nonmarkingreturn" horiz-adv-x="333" 
 />
    <glyph glyph-name="space" unicode=" " horiz-adv-x="210" 
 />
    <glyph glyph-name="exclam" unicode="!" horiz-adv-x="250" 
d="M140 700h90l-98 -492h-68zM123 107l-19 -107h-84l19 107h84z" />
    <glyph glyph-name="quotedbl" unicode="&#x22;" horiz-adv-x="308" 
d="M177 700l-48 -244h-76l38 244h86zM339 700l-48 -244h-76l38 244h86z" />
    <glyph glyph-name="numbersign" unicode="#" horiz-adv-x="605" 
d="M326 232l70 196h-124l-70 -196h124zM378 167l-59 -167h-74l59 167h-124l-59 -167h-74l59 167h-116l23 65h115l70 196h-116l22 65h116l59 167h74l-59 -167h124l59 167h74l-59 -167h116l-22 -65h-116l-70 -196h117l-23 -65h-116z" />
    <glyph glyph-name="dollar" unicode="$" horiz-adv-x="576" 
d="M239 -130h-66l20 117q-84 4 -193 32l25 82q80 -35 181 -45l43 247q-163 31 -163 156q0 97 61 153t168 61l21 117h66l-21 -118q75 -6 155 -25l-23 -79q-73 24 -145 34l-42 -237q166 -36 166 -160q0 -98 -61.5 -154t-171.5 -64zM406 192q0 74 -93 98l-41 -233
q134 15 134 135zM172 475q0 -75 90 -98l41 226q-61 -6 -96 -38.5t-35 -89.5z" />
    <glyph glyph-name="percent" unicode="%" horiz-adv-x="935" 
d="M666 660h74l-478 -660h-74zM427 485q-29 -189 -200 -189q-146 0 -146 138q0 30 4 51q29 189 199 189q147 0 147 -140q0 -28 -4 -49zM360 485q3 21 3 39q0 93 -88 93q-103 0 -123 -132q-3 -23 -3 -41q0 -91 87 -91q104 0 124 132zM843 175q-29 -189 -200 -189
q-146 0 -146 138q0 30 4 51q29 189 199 189q147 0 147 -140q0 -28 -4 -49zM776 175q3 21 3 39q0 93 -88 93q-103 0 -123 -132q-3 -23 -3 -41q0 -91 87 -91q105 0 124 132z" />
    <glyph glyph-name="ampersand" unicode="&#x26;" horiz-adv-x="687" 
d="M120 463q0 105 70 158t195 53q69 0 159 -18l-22 -75q-85 25 -146 25q-152 0 -169 -114q-2 -14 -2 -30q0 -43 32.5 -64.5t105.5 -21.5q273 0 327 3l-13 -75h-45q-29 1 -75 1l-51 -289q-136 -30 -231 -30q-233 0 -233 148q0 180 156 220q-58 37 -58 109zM305 308
q-96 -1 -146 -37t-50 -119q0 -98 156 -98q70 0 142 18l41 235q-65 1 -143 1z" />
    <glyph glyph-name="quotesingle" unicode="'" horiz-adv-x="146" 
d="M177 700l-48 -244h-76l38 244h86z" />
    <glyph glyph-name="parenleft" unicode="(" horiz-adv-x="355" 
d="M127 270q-19 -105 -19 -219q0 -106 32 -149q33 -42 97 -48l-18 -64q-99 6 -145 67t-46 194q0 96 19 219q41 261 112 366t204 114l1 -64q-61 -6 -101 -37q-91 -69 -136 -379z" />
    <glyph glyph-name="parenright" unicode=")" horiz-adv-x="355" 
d="M201 270q19 105 19 219q0 107 -33 149q-31 42 -96 48l18 64q99 -6 145 -67t46 -194q0 -96 -19 -219q-41 -261 -112 -366.5t-204 -113.5l-1 64q61 6 101 37q91 69 136 379z" />
    <glyph glyph-name="asterisk" unicode="*" horiz-adv-x="578" 
d="M312 700h76l-48 -172l157 101l27 -65l-169 -71l144 -71l-49 -65l-123 100l-12 -171h-76l47 171l-156 -100l-27 65l169 71l-144 71l49 65l122 -101z" />
    <glyph glyph-name="plus" unicode="+" horiz-adv-x="578" 
d="M497 366v-64h-185v-186h-66v186h-185v64h185v186h66v-186h185z" />
    <glyph glyph-name="comma" unicode="," horiz-adv-x="264" 
d="M-6 -140l53 247h93l-84 -247h-62z" />
    <glyph glyph-name="hyphen" unicode="-" horiz-adv-x="478" 
d="M380 297l-13 -70h-302l13 70h302z" />
    <glyph glyph-name="period" unicode="." horiz-adv-x="264" 
d="M131 107l-19 -107h-84l19 107h84z" />
    <glyph glyph-name="slash" unicode="/" horiz-adv-x="399" 
d="M355 700h85l-493 -870h-85z" />
    <glyph glyph-name="zero" unicode="0" horiz-adv-x="708" 
d="M635 330q-27 -177 -111 -260.5t-226 -83.5q-121 0 -181 59t-60 184q0 48 8 101q26 177 110 260.5t226 83.5q242 0 242 -245q0 -37 -8 -99zM549 330q8 59 8 93q0 95 -41 139t-125 44q-103 0 -161 -65.5t-79 -210.5q-8 -59 -8 -95q0 -94 40.5 -137.5t124.5 -43.5
q102 0 160.5 65.5t80.5 210.5z" />
    <glyph glyph-name="one" unicode="1" horiz-adv-x="416" 
d="M330 660l-117 -660h-84l105 592h-153l12 68h237z" />
    <glyph glyph-name="two" unicode="2" horiz-adv-x="599" 
d="M550 473q-13 -90 -69 -137t-172 -72l-17 -4q-102 -23 -138 -62q-35 -38 -52 -130h380l-12 -68h-459l12 68q18 107 68 165q52 60 186 91l17 4q84 19 122 48q38 30 48 96q2 18 2 30q0 104 -140 104q-84 0 -188 -32v76q123 24 198 24q106 0 161.5 -42.5t55.5 -116.5
q0 -25 -3 -42z" />
    <glyph glyph-name="three" unicode="3" horiz-adv-x="574" 
d="M480 217q0 -231 -291 -231q-96 0 -202 25l22 76q96 -33 189 -33q100 1 147 38t47 122q0 47 -36 70.5t-120 23.5q-52 0 -102 -3l13 73q56 -4 103 -4q93 1 134 37.5t41 106.5q0 88 -137 88q-73 0 -175 -29l1 75q107 22 185 22q211 0 211 -141q0 -68 -29.5 -118t-86.5 -74
q86 -29 86 -124z" />
    <glyph glyph-name="four" unicode="4" horiz-adv-x="641" 
d="M569 235l-12 -68h-106l-30 -167h-84l30 167h-360l16 92l408 401h107l-75 -425h106zM91 235h288l61 349z" />
    <glyph glyph-name="five" unicode="5" horiz-adv-x="614" 
d="M236 54q92 0 137.5 33t57.5 108q3 19 3 39q0 104 -154 104q-60 0 -188 -20l60 342h401l-12 -68h-317l-34 -195q63 9 107 9q224 0 224 -161q0 -31 -4 -52q-17 -97 -81 -152t-202 -55q-91 0 -221 29l24 77q106 -38 199 -38z" />
    <glyph glyph-name="six" unicode="6" horiz-adv-x="655" 
d="M569 197q-18 -98 -80 -155q-62 -56 -191 -56q-117 0 -179.5 58.5t-62.5 175.5q0 47 9 110q28 185 114 265q86 79 232 79q72 0 190 -20l-22 -76q-97 28 -177 28q-104 0 -160.5 -53.5t-79.5 -160.5q109 21 196 21q108 0 161 -45t53 -124q0 -30 -3 -47zM482 196q3 13 3 40
q0 109 -148 109q-84 0 -187 -22q-8 -50 -8 -96q0 -82 40.5 -127.5t122.5 -45.5t123.5 35t53.5 107z" />
    <glyph glyph-name="seven" unicode="7" horiz-adv-x="522" 
d="M84 660h462l-12 -68q-237 -334 -341 -592h-93q101 240 338 592h-366z" />
    <glyph glyph-name="eight" unicode="8" horiz-adv-x="668" 
d="M286 54q102 2 144 31.5t53 92.5q3 17 3 31q0 95 -163 95q-98 0 -142 -29.5t-56 -94.5q-3 -17 -3 -32q0 -94 164 -94zM340 370q91 0 131 29q38 28 49 88q3 17 3 30q0 89 -146 89q-89 0 -129 -27.5t-52 -89.5q-3 -15 -3 -29q0 -46 34.5 -68t112.5 -22zM274 -14
q-239 0 -239 151q0 19 3 40q12 64 45.5 104t97.5 60q-71 35 -71 116q0 27 3 40q16 91 82 134t192 43q223 0 223 -141q0 -17 -3 -38q-17 -119 -124 -159q44 -15 66.5 -48t22.5 -76q0 -23 -4 -40q-16 -96 -87.5 -141t-206.5 -45z" />
    <glyph glyph-name="nine" unicode="9" horiz-adv-x="655" 
d="M80 463q18 98 80 154q61 57 191 57q117 0 179.5 -58.5t62.5 -175.5q0 -47 -9 -110q-28 -186 -115 -265q-85 -79 -231 -79q-72 0 -190 20l22 76q97 -28 177 -28q104 0 160.5 53.5t79.5 160.5q-109 -21 -196 -21q-108 0 -161 45t-53 124q0 31 3 47zM167 464q-3 -14 -3 -40
q0 -109 148 -109q84 0 187 22q8 50 8 96q0 82 -40.5 127.5t-122.5 45.5t-123.5 -35t-53.5 -107z" />
    <glyph glyph-name="colon" unicode=":" horiz-adv-x="264" 
d="M130 107l-18 -107h-84l18 107h84zM199 498l-18 -107h-84l18 107h84z" />
    <glyph glyph-name="semicolon" unicode=";" horiz-adv-x="264" 
d="M200 498l-19 -107h-84l19 107h84zM-6 -140l53 247h93l-84 -247h-62z" />
    <glyph glyph-name="less" unicode="&#x3c;" horiz-adv-x="578" 
d="M497 427l-356 -94l356 -94v-68l-436 123v78l436 123v-68z" />
    <glyph glyph-name="equal" unicode="=" horiz-adv-x="578" 
d="M61 407v64h436v-64h-436zM61 197v64h436v-64h-436z" />
    <glyph glyph-name="greater" unicode="&#x3e;" horiz-adv-x="578" 
d="M61 171v68l356 94l-356 94v68l436 -123v-78z" />
    <glyph glyph-name="question" unicode="?" horiz-adv-x="574" 
d="M205 107l-18 -107h-84l18 107h84zM139 208l26 146h42q113 0 160 37q49 37 61 109q2 16 2 36q0 110 -177 110q-43 0 -110 -15v74q66 9 122 9q252 0 252 -169q0 -29 -3 -45q-17 -102 -84 -153.5t-193 -59.5l-14 -79h-84z" />
    <glyph glyph-name="at" unicode="@" horiz-adv-x="982" 
d="M585 0h-41l5 27q-90 -41 -164 -41q-72 0 -109.5 31.5t-37.5 86.5q0 18 3 36q29 159 226 159q43 0 124 -10l7 43q3 17 3 40q0 76 -99 76q-58 0 -164 -33l-2 71q122 26 178 26q166 0 166 -129q0 -24 -4 -49l-47 -270q91 7 142.5 62t70.5 163q8 48 8 102q0 260 -317 260
q-94 0 -160 -19t-120 -63q-108 -87 -142 -320q-11 -77 -11 -141q0 -137 75.5 -199t236.5 -62q148 0 288 34l3 -62q-181 -35 -300 -35q-187 0 -280 76.5t-93 242.5q0 64 11 146q37 263 171 368q125 97 331 97q375 0 375 -310q0 -60 -9 -115q-23 -137 -103.5 -213t-220.5 -76z
M463 235q-69 0 -101 -23.5t-41 -72.5q0 -3 -0.5 -7t-1 -6.5t-0.5 -5v-3.5q0 -67 88 -67q66 0 148 39l24 137q-72 9 -116 9z" />
    <glyph glyph-name="A" unicode="A" horiz-adv-x="676" 
d="M602 0h-93l-48 232h-286l-130 -232h-96l396 700h106zM384 607l-170 -304h232z" />
    <glyph glyph-name="B" unicode="B" horiz-adv-x="671" 
d="M593 235q0 -249 -309 -249q-126 0 -254 30l117 668q129 30 233 30q229 0 229 -141q0 -153 -114 -205q98 -35 98 -133zM224 626l-40 -227h147q190 0 190 148q0 94 -154 94q-61 0 -143 -15zM500 193q2 14 2 31q0 103 -170 103h-161l-44 -253q85 -15 165 -15
q100 0 147.5 33.5t60.5 100.5z" />
    <glyph glyph-name="C" unicode="C" horiz-adv-x="624" 
d="M55 350q54 364 367 364q70 0 197 -23l-25 -83q-111 33 -181 33q-118 0 -182.5 -71t-85.5 -220q-8 -56 -8 -105q0 -186 188 -186q73 0 192 33l1 -80q-127 -26 -205 -26q-129 0 -197.5 62.5t-68.5 189.5q0 56 8 112z" />
    <glyph glyph-name="D" unicode="D" horiz-adv-x="723" 
d="M30 16l117 668q116 30 221 30q309 0 309 -257q0 -51 -8 -107q-27 -176 -123 -271q-96 -93 -287 -93q-121 0 -229 30zM224 626l-97 -552q61 -15 142 -15q141 0 214.5 70.5t95.5 220.5q7 46 7 93q0 198 -230 198q-69 0 -132 -15z" />
    <glyph glyph-name="E" unicode="E" 
d="M126 73h366l-13 -73h-453l123 700h442l-13 -73h-355l-41 -236h310l-13 -73h-310z" />
    <glyph glyph-name="F" unicode="F" horiz-adv-x="556" 
d="M165 299l-52 -299h-87l123 700h424l-13 -73h-337l-45 -255h308l-13 -73h-308z" />
    <glyph glyph-name="G" unicode="G" horiz-adv-x="702" 
d="M313 -14q-133 0 -200 65t-67 186q0 50 9 113q52 364 369 364q94 0 225 -27l-25 -82q-112 36 -210 36q-115 0 -181.5 -71t-87.5 -220q-8 -69 -8 -105q0 -186 187 -186q77 0 163 20l46 265h87l-57 -324q-132 -34 -250 -34z" />
    <glyph glyph-name="H" unicode="H" horiz-adv-x="710" 
d="M683 700l-123 -700h-87l56 318h-360l-56 -318h-87l123 700h87l-54 -309h360l54 309h87z" />
    <glyph glyph-name="I" unicode="I" horiz-adv-x="263" 
d="M113 0h-87l123 700h87z" />
    <glyph glyph-name="J" unicode="J" horiz-adv-x="466" 
d="M78 -14q-58 0 -111 8l22 78q54 -14 99 -14q92 0 133 41q42 42 61 156l78 445h87l-79 -448q-24 -138 -87 -203q-62 -63 -203 -63z" />
    <glyph glyph-name="K" unicode="K" horiz-adv-x="657" 
d="M479 -7l-270 366l338 341h117l-347 -345l260 -346zM149 700h87l-123 -700h-87z" />
    <glyph glyph-name="L" unicode="L" horiz-adv-x="527" 
d="M126 73h330l-13 -73h-417l123 700h87z" />
    <glyph glyph-name="M" unicode="M" horiz-adv-x="902" 
d="M389 230l21 -101q44 84 55 101l270 470h110l-75 -700h-86l52 448q7 60 22 145l-78 -146l-257 -447h-68l-99 447q-13 61 -28 146q-18 -101 -28 -145l-106 -448h-86l171 700h106z" />
    <glyph glyph-name="N" unicode="N" horiz-adv-x="716" 
d="M603 700h86l-123 -700h-108l-212 506q-24 60 -34 92q-6 -68 -13 -102l-87 -496h-86l123 700h108l212 -505q25 -54 34 -92q6 68 13 102z" />
    <glyph glyph-name="O" unicode="O" horiz-adv-x="736" 
d="M681 350q-54 -364 -368 -364q-114 0 -186 52q-80 58 -80 210q0 48 8 102q52 364 367 364q267 0 267 -264q0 -38 -8 -100zM591 350q8 58 8 93q0 104 -46.5 151t-141.5 47q-113 0 -178 -68.5t-88 -222.5q-8 -59 -8 -95q0 -103 46.5 -149.5t140.5 -46.5q113 0 178 68.5
t89 222.5z" />
    <glyph glyph-name="P" unicode="P" horiz-adv-x="615" 
d="M223 626l-48 -273q73 -14 135 -14q178 0 199 151q2 18 2 36q0 115 -156 115q-57 0 -132 -15zM113 0h-87l120 683q128 31 222 31q234 0 234 -173q0 -31 -3 -51q-32 -224 -298 -224q-60 0 -139 14z" />
    <glyph glyph-name="Q" unicode="Q" horiz-adv-x="736" 
d="M591 350q8 58 8 93q0 104 -46.5 151t-141.5 47q-113 0 -178 -68.5t-88 -222.5q-8 -59 -8 -95q0 -103 46.5 -149.5t140.5 -46.5q113 0 178 68.5t89 222.5zM681 350q-53 -346 -336 -363q-2 -34 -2 -44q0 -50 8 -116l-91 -9q-2 38 -2 72q0 56 5 99q-216 21 -216 259
q0 48 8 102q52 364 367 364q267 0 267 -264q0 -38 -8 -100z" />
    <glyph glyph-name="R" unicode="R" horiz-adv-x="639" 
d="M333 301h-167l-53 -301h-87l121 684q125 30 220 30q122 0 180 -43.5t58 -119.5q0 -92 -47.5 -154.5t-138.5 -80.5l120 -304l-92 -13zM224 627l-45 -253h136q199 0 199 162q0 105 -159 105q-52 0 -131 -14z" />
    <glyph glyph-name="S" unicode="S" horiz-adv-x="583" 
d="M243 59q84 1 130.5 37t46.5 108q0 86 -119 109l-34 6q-186 31 -186 168q0 107 71 167t193 60q80 0 213 -29l-25 -83q-119 39 -198 39q-75 -1 -119 -36.5t-44 -101.5q0 -85 119 -108l35 -6q185 -35 185 -171q0 -112 -74.5 -172t-204.5 -60q-100 0 -242 35l27 87
q53 -23 120 -37q65 -12 106 -12z" />
    <glyph glyph-name="T" unicode="T" horiz-adv-x="621" 
d="M660 700l-13 -73h-245l-110 -627h-87l110 627h-245l13 73h577z" />
    <glyph glyph-name="U" unicode="U" horiz-adv-x="726" 
d="M317 59q105 0 155 39t69 150l79 452h87l-80 -454q-26 -143 -101 -201q-76 -59 -220 -59q-250 0 -250 190q0 38 5 70l80 454h87l-79 -452q-4 -23 -4 -63q0 -68 41.5 -97t130.5 -29z" />
    <glyph glyph-name="V" unicode="V" horiz-adv-x="680" 
d="M730 700l-403 -700h-100l-155 700h93l128 -599l340 599h97z" />
    <glyph glyph-name="W" unicode="W" horiz-adv-x="1022" 
d="M552 585l-49 -108l-226 -477h-100l-86 700h88l52 -498q4 -29 11 -109q32 73 50 109l236 498h84l60 -498l12 -109l49 109l228 498h92l-332 -700h-100l-58 477q-10 74 -11 108z" />
    <glyph glyph-name="X" unicode="X" horiz-adv-x="680" 
d="M101 700h106l140 -286l240 286h110l-300 -345l186 -355h-106l-147 296l-251 -296h-109l309 355z" />
    <glyph glyph-name="Y" unicode="Y" horiz-adv-x="651" 
d="M165 700l159 -349l282 349h106l-358 -436l-46 -264h-87l46 264l-204 436h102z" />
    <glyph glyph-name="Z" unicode="Z" horiz-adv-x="608" 
d="M110 73h400l-13 -73h-507l12 73l480 554h-374l13 73h482l-13 -73z" />
    <glyph glyph-name="bracketleft" unicode="[" horiz-adv-x="340" 
d="M185 -136l-11 -64h-182l165 940h182l-11 -64h-104l-143 -812h104z" />
    <glyph glyph-name="backslash" unicode="\" horiz-adv-x="399" 
d="M309 0h-75l-151 700h75z" />
    <glyph glyph-name="bracketright" unicode="]" horiz-adv-x="340" 
d="M320 740l-165 -940h-181l11 64h103l143 812h-104l11 64h182z" />
    <glyph glyph-name="asciicircum" unicode="^" horiz-adv-x="494" 
d="M22 244l187 456h76l187 -456h-76l-149 370l-149 -370h-76z" />
    <glyph glyph-name="underscore" unicode="_" horiz-adv-x="430" 
d="M430 -138v-64h-430v64h430z" />
    <glyph glyph-name="grave" unicode="`" horiz-adv-x="500" 
d="M267 588l-90 174h78l69 -174h-57z" />
    <glyph glyph-name="a" unicode="a" horiz-adv-x="522" 
d="M6 140q28 159 226 159q43 0 124 -10l7 43q3 17 3 40q0 76 -99 76q-57 0 -164 -33l-2 71q122 26 178 26q166 0 166 -129q0 -24 -4 -49l-58 -334h-74l5 27q-90 -41 -164 -41q-72 0 -109.5 31.5t-37.5 86.5q0 18 3 36zM228 235q-69 0 -101 -23.5t-41 -72.5q0 -3 -0.5 -7
t-1 -6.5t-0.5 -5v-3.5q0 -67 88 -67q65 0 148 39l24 137q-72 9 -116 9z" />
    <glyph glyph-name="b" unicode="b" horiz-adv-x="580" 
d="M432 249q5 43 5 79q0 64 -28.5 92t-88.5 28q-64 0 -156 -45l-60 -335q70 -18 140 -18q83 0 128 49.5t60 149.5zM512 249q-17 -113 -73 -183q-64 -80 -205 -80q-96 0 -216 34l127 720h78l-48 -272q96 44 170 44q174 0 174 -173q0 -44 -7 -90z" />
    <glyph glyph-name="c" unicode="c" horiz-adv-x="497" 
d="M32 249q21 135 90 199t193 64q59 0 151 -21l-24 -71q-75 28 -134 28q-88 0 -134.5 -47t-61.5 -152q-5 -38 -5 -69q0 -130 142 -130q58 0 141 28l1 -71q-97 -21 -155 -21q-210 0 -210 182q0 44 6 81z" />
    <glyph glyph-name="d" unicode="d" horiz-adv-x="580" 
d="M445 467l48 273h78l-131 -740h-73l6 32q-102 -46 -175 -46q-174 0 -174 173q0 44 7 90q21 138 81 200.5t164 62.5q79 0 169 -45zM379 94l54 310q-91 44 -151 44q-76 0 -116 -45t-55 -154q-6 -47 -6 -78q0 -64 29 -93q69 -64 245 16z" />
    <glyph glyph-name="e" unicode="e" horiz-adv-x="560" 
d="M256 50q88 0 188 28l6 -64q-108 -28 -208 -28q-216 0 -216 185q0 35 6 78q19 130 89.5 196.5t185.5 66.5q191 0 191 -178q0 -54 -6 -85l-3 -17h-380q-2 -24 -2 -49q0 -69 35.5 -101t113.5 -32zM297 448q-139 0 -177 -153h299q1 9 1 38q0 115 -123 115z" />
    <glyph glyph-name="f" unicode="f" horiz-adv-x="367" 
d="M361 498l-11 -64h-148l-77 -434h-78l77 434h-77l11 64h77l8 45q20 114 70.5 162.5t148.5 48.5q38 0 81 -6l-18 -68q-39 10 -67 10q-69 0 -96 -34q-27 -35 -42 -116l-7 -42h148z" />
    <glyph glyph-name="g" unicode="g" horiz-adv-x="580" 
d="M368 25l1 6q-93 -45 -169 -45q-175 0 -175 175q0 42 7 88q21 138 82 200.5t165 62.5q38 0 76 -11q43 -13 92 -35l6 32h76l-83 -469q-13 -68 -28 -107.5t-44 -71.5q-57 -64 -206 -64q-85 0 -192 26l25 72q90 -34 175 -34q100 0 138 39t54 136zM380 94l54 310
q-96 44 -150 44q-75 0 -116 -45.5t-56 -153.5q-6 -47 -6 -76q0 -65 29.5 -94t90.5 -29q54 0 154 44z" />
    <glyph glyph-name="h" unicode="h" horiz-adv-x="575" 
d="M146 740h78l-48 -272q115 44 178 44q145 0 145 -129q0 -27 -3 -44l-60 -339h-78l60 336q2 14 2 35q0 40 -22 58.5t-72 18.5q-53 0 -161 -44l-72 -404h-78z" />
    <glyph glyph-name="i" unicode="i" horiz-adv-x="232" 
d="M181 498l-88 -498h-78l88 498h78zM223 740l-23 -128h-84l23 128h84z" />
    <glyph glyph-name="j" unicode="j" horiz-adv-x="235" 
d="M106 498h78l-87 -491q-19 -106 -72.5 -162t-150.5 -59l1 64q78 4 108 52q24 39 37 107zM226 740l-23 -128h-84l23 128h84z" />
    <glyph glyph-name="k" unicode="k" horiz-adv-x="526" 
d="M145 740h78l-130 -740h-78zM266 261l181 -256l-90 -10l-186 271l234 232h107z" />
    <glyph glyph-name="l" unicode="l" horiz-adv-x="232" 
d="M146 740h78l-131 -740h-78z" />
    <glyph glyph-name="m" unicode="m" horiz-adv-x="870" 
d="M412 0h-78l60 336q3 16 3 36q0 76 -85 76q-51 0 -147 -44l-72 -404h-78l88 498h72l-5 -32q104 46 170 46q86 0 118 -56q126 56 191 56q72 0 109 -32t37 -93q0 -27 -4 -48l-60 -339h-78l60 336q2 14 2 36q0 39 -21 57.5t-69 18.5q-52 0 -151 -46q1 -8 1 -30q0 -15 -3 -33z
" />
    <glyph glyph-name="n" unicode="n" horiz-adv-x="575" 
d="M496 339l-60 -339h-78l60 336q2 14 2 35q0 40 -22 58.5t-72 18.5q-53 0 -161 -44l-72 -404h-78l88 498h73l-5 -32q117 46 183 46q145 0 145 -129q0 -27 -3 -44z" />
    <glyph glyph-name="o" unicode="o" horiz-adv-x="588" 
d="M112 249q-5 -42 -5 -61q0 -138 139 -138q85 0 132 49.5t62 149.5q5 38 5 59q0 140 -140 140q-85 0 -131.5 -49t-61.5 -150zM520 249q-41 -263 -284 -263q-210 0 -210 194q0 32 6 69q38 263 283 263q210 0 210 -196q0 -34 -5 -67z" />
    <glyph glyph-name="p" unicode="p" horiz-adv-x="580" 
d="M98 31l-40 -231h-78l123 698h73l-6 -32q102 46 175 46q174 0 174 -173q0 -44 -7 -90q-21 -138 -81 -200.5t-164 -62.5q-79 0 -169 45zM164 404l-54 -310q91 -44 151 -44q76 0 116 45t55 154q6 47 6 78q0 65 -30 93q-68 65 -244 -16z" />
    <glyph glyph-name="q" unicode="q" horiz-adv-x="580" 
d="M406 -200h-78l40 231q-92 -45 -168 -45q-175 0 -175 175q0 42 7 88q21 138 82 200.5t165 62.5q67 0 168 -46l6 32h76zM380 94l54 310q-51 23 -85 34q-30 10 -65 10q-75 0 -115 -45t-57 -154q-6 -37 -6 -78q0 -65 30 -93q70 -64 244 16z" />
    <glyph glyph-name="r" unicode="r" horiz-adv-x="341" 
d="M351 512l-5 -71q-89 -4 -182 -43l-71 -398h-78l88 498h73l-6 -36q89 45 181 50z" />
    <glyph glyph-name="s" unicode="s" horiz-adv-x="469" 
d="M174 -14q-88 0 -185 27l27 77q87 -40 171 -40q118 1 118 89q0 31 -18.5 50t-66.5 27l-28 5q-131 24 -131 126q0 78 52 121.5t139 43.5q61 0 164 -23l-25 -74q-87 33 -152 33q-45 -1 -71.5 -22t-26.5 -62q0 -32 19 -51t67 -28l27 -5q133 -25 133 -126q0 -160 -213 -168z
" />
    <glyph glyph-name="t" unicode="t" horiz-adv-x="454" 
d="M133 498l25 142h78l-25 -142h200l-11 -64h-200l-45 -254q-4 -17 -4 -51q0 -40 24.5 -59.5t79.5 -19.5q39 0 95 12l-2 -63q-64 -13 -113 -13q-163 0 -163 129q0 28 5 63l45 256h-77l11 64h77z" />
    <glyph glyph-name="u" unicode="u" horiz-adv-x="575" 
d="M42 159l60 339h78l-60 -336q-2 -14 -2 -35q0 -40 22 -58.5t72 -18.5q53 0 161 44l72 404h78l-88 -498h-73l5 32q-117 -46 -183 -46q-145 0 -145 129q0 27 3 44z" />
    <glyph glyph-name="v" unicode="v" horiz-adv-x="528" 
d="M37 498h85l95 -405l237 405h89l-297 -498h-86z" />
    <glyph glyph-name="w" unicode="w" horiz-adv-x="828" 
d="M488 0l-52 299q-5 29 -8 49l-6 47q-27 -59 -48 -96l-156 -299h-84l-86 498h79l49 -306q11 -63 16 -107q18 41 52 105l158 308h74l50 -308q1 -2 16 -105q26 57 52 107l157 306h81l-260 -498h-84z" />
    <glyph glyph-name="x" unicode="x" horiz-adv-x="520" 
d="M149 498l100 -188l166 188h101l-226 -245l146 -253h-97l-106 197l-174 -197h-101l233 253l-139 245h97z" />
    <glyph glyph-name="y" unicode="y" horiz-adv-x="528" 
d="M18 -150q44 0 76 23q31 22 75 103l15 27h-47l-100 495h85l88 -460l244 460h89l-303 -545q-49 -91 -101 -129q-50 -38 -123 -38q-31 0 -51 4l15 64q17 -4 38 -4z" />
    <glyph glyph-name="z" unicode="z" horiz-adv-x="488" 
d="M97 64h298l-11 -64h-400l11 64l350 370h-280l11 64h382l-11 -64z" />
    <glyph glyph-name="braceleft" unicode="{" horiz-adv-x="411" 
d="M126 271l-1 -2q60 -47 60 -140q0 -31 -6 -63q-7 -38 -7 -93q0 -109 91 -119l-19 -64q-152 17 -152 170q0 52 8 102q6 36 6 59q0 93 -73 117l11 64q61 15 89 57t40 119q21 139 73 200t152 72l2 -64q-65 -7 -100 -57.5t-50 -154.5q-12 -80 -41 -128.5t-83 -74.5z" />
    <glyph glyph-name="bar" unicode="|" horiz-adv-x="214" 
d="M149 740v-940h-84v940h84z" />
    <glyph glyph-name="braceright" unicode="}" horiz-adv-x="411" 
d="M258 269l1 2q-60 46 -60 140q0 31 6 63q7 38 7 93q0 109 -91 119l19 64q152 -17 152 -170q0 -52 -8 -102q-6 -36 -6 -59q0 -93 73 -117l-11 -64q-61 -15 -89 -57t-40 -119q-21 -138 -74 -200t-151 -72l-2 64q65 7 100 57.5t50 154.5q12 80 41 128.5t83 74.5z" />
    <glyph glyph-name="asciitilde" unicode="~" horiz-adv-x="865" 
d="M455 222l-62 19q-108 32 -139 32q-36 0 -63 -16.5t-57 -58.5l-33 42q66 93 161 93q46 0 154 -32l63 -19q108 -32 138 -32q37 0 64.5 17t56.5 58l33 -42q-66 -93 -161 -93q-45 0 -155 32z" />
    <glyph glyph-name="uni00A0" unicode="&#xa0;" horiz-adv-x="210" 
 />
    <glyph glyph-name="exclamdown" unicode="&#xa1;" horiz-adv-x="250" 
d="M73 -200h-90l98 492h68zM90 393l19 107h84l-19 -107h-84z" />
    <glyph glyph-name="cent" unicode="&#xa2;" horiz-adv-x="497" 
d="M32 249q20 131 84.5 194.5t181.5 68.5l27 150h61l-27 -153q42 -4 107 -18l-24 -71q-46 17 -94 25l-69 -393q48 4 111 26l1 -71q-73 -16 -124 -20l-26 -151h-61l26 151q-180 12 -180 181q0 44 6 81zM112 249q-5 -38 -5 -69q0 -116 111 -129l69 396q-77 -5 -119 -52.5
t-56 -145.5z" />
    <glyph glyph-name="sterling" unicode="&#xa3;" horiz-adv-x="637" 
d="M543 68l-12 -68h-454l53 301h-78l12 65h78l7 41q22 130 88 199q66 68 202 68q71 0 180 -18l-22 -76q-99 26 -163 26q-100 0 -140 -43q-41 -42 -60 -148l-8 -49h219l-12 -65h-219l-41 -233h370z" />
    <glyph glyph-name="currency" unicode="&#xa4;" horiz-adv-x="674" 
d="M455 465q-37 45 -123 45t-123 -45q-37 -44 -37 -135t37 -135q37 -45 123 -45t123 45q37 44 37 135t-37 135zM545 589l47 -47l-66 -66q34 -55 34 -146q0 -88 -35 -147l67 -67l-47 -47l-65 64q-55 -40 -148 -40t-149 40l-64 -64l-47 47l67 67q-35 56 -35 147t34 146l-66 66
l47 47l63 -64q58 42 150 42q94 0 149 -42z" />
    <glyph glyph-name="yen" unicode="&#xa5;" horiz-adv-x="649" 
d="M320 331l263 329h102l-234 -286h135l-10 -61h-176l-52 -64l-2 -14h216l-11 -61h-216l-31 -174h-83l31 174h-216l11 61h216l2 14l-30 64h-174l10 61h135l-132 286h98z" />
    <glyph glyph-name="brokenbar" unicode="&#xa6;" horiz-adv-x="214" 
d="M149 740v-406h-84v406h84zM149 206v-406h-84v406h84z" />
    <glyph glyph-name="section" unicode="&#xa7;" horiz-adv-x="638" 
d="M396 95l-1 -1q60 -32 60 -93q0 -168 -238 -168q-77 0 -186 23l23 76q89 -31 172 -31q56 0 95 15q49 17 49 75q0 27 -25.5 42t-90.5 28l-32 6q-174 35 -174 153q0 75 42.5 127.5t114.5 64.5l1 1q-60 31 -60 93q0 168 238 168q77 0 186 -23l-23 -76q-89 31 -172 31
q-56 0 -96 -15q-48 -17 -48 -75q0 -27 25.5 -42t90.5 -28l32 -6q174 -34 174 -153q0 -75 -42.5 -127.5t-114.5 -64.5zM268 133h28q77 0 123 37t46 109q0 80 -133 95h-28q-77 0 -123 -37t-46 -109q0 -80 133 -95z" />
    <glyph glyph-name="dieresis" unicode="&#xa8;" horiz-adv-x="500" 
d="M176 740l-23 -128h-78l23 128h78zM424 740l-23 -128h-78l23 128h78z" />
    <glyph glyph-name="copyright" unicode="&#xa9;" horiz-adv-x="864" 
d="M770 528q24 -72 24 -178t-24 -179q-43 -130 -186 -169q-61 -16 -152 -16q-90 0 -153 16q-142 39 -185 169q-24 73 -24 179t24 178q44 134 185 169q66 17 153 17t152 -17q142 -35 186 -169zM661 108q72 68 72 242t-72 242q-71 67 -229 67t-229 -67q-72 -68 -72 -242
t72 -242q71 -67 229 -67t229 67zM226 350q0 130 55 189t161 59q45 0 138 -17l-11 -68q-78 23 -123 23q-75 0 -109.5 -45t-34.5 -141q0 -97 34.5 -142t109.5 -45q48 0 123 24l11 -67q-86 -18 -138 -18q-107 0 -161.5 58.5t-54.5 189.5z" />
    <glyph glyph-name="ordfeminine" unicode="&#xaa;" horiz-adv-x="482" 
d="M41 339q24 143 203 143q30 0 112 -9l6 39q3 15 3 36q0 68 -89 68q-51 0 -148 -30l-2 64q113 24 160 24q150 0 150 -116q0 -22 -4 -45l-52 -300h-67l5 24q-78 -37 -148 -37q-65 0 -98.5 28.5t-33.5 77.5q0 16 3 33zM241 424q-63 0 -92 -21t-36 -65q-2 -18 -2 -20
q0 -60 79 -60q58 0 133 35l22 123q-61 8 -104 8z" />
    <glyph glyph-name="guillemotleft" unicode="&#xab;" horiz-adv-x="423" 
d="M169 450h76l-164 -192l93 -184h-72l-96 188zM344 450h76l-164 -192l93 -184h-72l-96 188z" />
    <glyph glyph-name="logicalnot" unicode="&#xac;" horiz-adv-x="578" 
d="M61 282v64h436v-252h-66v188h-370z" />
    <glyph glyph-name="uni00AD" unicode="&#xad;" horiz-adv-x="478" 
d="M380 297l-13 -70h-302l13 70h302z" />
    <glyph glyph-name="registered" unicode="&#xae;" horiz-adv-x="768" 
d="M620 641q78 -72 78 -254q0 -181 -78 -255q-78 -72 -236 -72t-236 72q-78 74 -78 255q0 182 78 254q77 73 236 73t236 -73zM580 173q57 61 57 214t-57 214t-196 61t-196 -61t-57 -214t57 -214t196 -61t196 61zM390 352h-80v-166h-62v390q80 17 130 17q154 0 154 -120
q0 -88 -80 -109l94 -170l-66 -10zM310 536v-133h68q91 0 91 70q0 69 -91 69q-28 0 -68 -6z" />
    <glyph glyph-name="overscore" unicode="&#xaf;" horiz-adv-x="500" 
d="M427 708l-11 -64h-342l11 64h342z" />
    <glyph glyph-name="degree" unicode="&#xb0;" horiz-adv-x="432" 
d="M405 515q-25 -159 -184 -159q-139 0 -139 119q0 19 3 40q24 159 183 159q140 0 140 -120q0 -18 -3 -39zM151 515q-3 -17 -3 -30q0 -73 81 -73q48 0 75 24.5t35 78.5v3q2 24 2 25q0 75 -81 75q-96 0 -109 -103z" />
    <glyph glyph-name="plusminus" unicode="&#xb1;" horiz-adv-x="578" 
d="M497 482v-64h-185v-186h-66v186h-185v64h185v186h66v-186h185zM61 78v64h436v-64h-436z" />
    <glyph glyph-name="twosuperior" unicode="&#xb2;" horiz-adv-x="395" 
d="M359 557q-7 -49 -37 -75.5t-96 -41.5l-10 -2q-50 -12 -69 -31t-26 -64h203l-9 -46h-256l8 46q12 63 40 92q28 30 97 46l10 2q50 12 69 30t19 56q0 52 -72 52q-50 0 -102 -18l-1 51q76 14 112 14q122 0 122 -89z" />
    <glyph glyph-name="threesuperior" unicode="&#xb3;" horiz-adv-x="369" 
d="M309 417q0 -128 -163 -128q-50 0 -112 14l15 50q54 -19 102 -19q50 1 74 19.5t24 60.5q0 47 -79 47q-22 0 -56 -2l9 49q11 0 24.5 -0.5t20.5 -1t11 -0.5q88 1 88 71q0 44 -69 44q-44 0 -95 -16v50q61 12 104 12q119 0 119 -78q0 -77 -63 -105q46 -16 46 -67z" />
    <glyph glyph-name="acute" unicode="&#xb4;" horiz-adv-x="500" 
d="M141 588l130 174h88l-153 -174h-65z" />
    <glyph glyph-name="mu" unicode="&#xb5;" horiz-adv-x="575" 
d="M374 94l72 404h78l-88 -498h-71l5 32q-102 -46 -162 -46q-78 0 -115 37l-37 -223h-76l123 698h78l-60 -336q-2 -14 -2 -35q0 -40 22 -58.5t72 -18.5q53 0 161 44z" />
    <glyph glyph-name="mu" unicode="&#x3bc;" horiz-adv-x="575" 
d="M374 94l72 404h78l-88 -498h-71l5 32q-102 -46 -162 -46q-78 0 -115 37l-37 -223h-76l123 698h78l-60 -336q-2 -14 -2 -35q0 -40 22 -58.5t72 -18.5q53 0 161 44z" />
    <glyph glyph-name="paragraph" unicode="&#xb6;" horiz-adv-x="606" 
d="M160 -150l74 417q-95 0 -139 34.5t-44 105.5q0 14 5 56q15 98 68 148q52 49 173 49h249l-143 -810h-78l132 746h-87l-132 -746h-78z" />
    <glyph glyph-name="middot" unicode="&#xb7;" horiz-adv-x="265" 
d="M169 315l-19 -106h-85l19 106h85z" />
    <glyph glyph-name="cedilla" unicode="&#xb8;" horiz-adv-x="500" 
d="M243 -88q-31 0 -65 -3l31 101h56l-15 -50h8q48 0 73.5 -20.5t25.5 -56.5q0 -16 -1 -21q-17 -98 -127 -98q-43 0 -87 10l14 52q39 -14 70 -14q60 0 67 48q1 3 1 12q0 18 -13.5 29t-37.5 11z" />
    <glyph glyph-name="onesuperior" unicode="&#xb9;" horiz-adv-x="325" 
d="M229 660l-64 -363h-58l56 317h-79l8 46h137z" />
    <glyph glyph-name="ordmasculine" unicode="&#xba;" horiz-adv-x="560" 
d="M148 437q-4 -36 -4 -55q0 -124 125 -124q76 0 118.5 44t56.5 135q4 33 4 53q0 126 -126 126q-76 0 -118.5 -44.5t-55.5 -134.5zM516 437q-38 -237 -256 -237q-189 0 -189 175q0 20 5 62q34 237 255 237q189 0 189 -177q0 -35 -4 -60z" />
    <glyph glyph-name="guillemotright" unicode="&#xbb;" horiz-adv-x="423" 
d="M222 74h-76l164 192l-93 184h72l96 -188zM47 74h-76l164 192l-93 184h72l96 -188z" />
    <glyph glyph-name="onequarter" unicode="&#xbc;" horiz-adv-x="646" 
d="M489 660h59l-491 -660h-59zM229 660l-64 -363h-58l56 317h-79l8 46h137zM556 134l-8 -46h-56l-16 -88h-57l16 88h-192l10 59l218 216h70l-41 -229h56zM303 134h140l30 172z" />
    <glyph glyph-name="onehalf" unicode="&#xbd;" horiz-adv-x="687" 
d="M489 660h59l-491 -660h-59zM229 660l-64 -363h-58l56 317h-79l8 46h137zM600 260q-7 -49 -37 -75.5t-96 -41.5l-10 -2q-50 -12 -69 -31t-26 -64h203l-9 -46h-256l8 46q12 63 40 92q28 30 97 46l10 2q50 12 69 30t19 56q0 52 -72 52q-49 0 -102 -18l-1 51q76 14 112 14
q122 0 122 -89z" />
    <glyph glyph-name="threequarters" unicode="&#xbe;" horiz-adv-x="751" 
d="M594 660h59l-491 -660h-59zM309 417q0 -128 -163 -128q-50 0 -112 14l15 50q54 -19 102 -19q50 1 74 19.5t24 60.5q0 47 -79 47q-22 0 -56 -2l9 49q11 0 24.5 -0.5t20.5 -1t11 -0.5q88 1 88 71q0 44 -69 44q-44 0 -95 -16v50q61 12 104 12q119 0 119 -78q0 -77 -63 -105
q46 -16 46 -67zM661 134l-8 -46h-56l-16 -88h-57l16 88h-192l10 59l218 216h70l-41 -229h56zM408 134h140l30 172z" />
    <glyph glyph-name="questiondown" unicode="&#xbf;" horiz-adv-x="574" 
d="M333 393l18 107h84l-18 -107h-84zM331 146q-112 0 -161 -37q-48 -38 -60 -109q-2 -16 -2 -36q0 -110 177 -110q43 0 110 15v-74q-66 -9 -122 -9q-252 0 -252 169q0 29 3 45q17 102 84 153.5t193 59.5l14 79h84l-26 -146h-42z" />
    <glyph glyph-name="Agrave" unicode="&#xc0;" horiz-adv-x="676" 
d="M602 0h-93l-48 232h-286l-130 -232h-96l396 700h106zM384 607l-170 -304h232zM341 740l-90 174h83l70 -174h-63z" />
    <glyph glyph-name="Aacute" unicode="&#xc1;" horiz-adv-x="676" 
d="M602 0h-93l-48 232h-286l-130 -232h-96l396 700h106zM384 607l-170 -304h232zM330 740l130 174h94l-153 -174h-71z" />
    <glyph glyph-name="Acircumflex" unicode="&#xc2;" horiz-adv-x="676" 
d="M602 0h-93l-48 232h-286l-130 -232h-96l396 700h106zM384 607l-170 -304h232zM305 740h-67l136 174h104l74 -174h-63l-70 125z" />
    <glyph glyph-name="Atilde" unicode="&#xc3;" horiz-adv-x="676" 
d="M602 0h-93l-48 232h-286l-130 -232h-96l396 700h106zM384 607l-170 -304h232zM589 889l27 -51q-37 -38 -64 -52.5t-62 -14.5q-44 0 -94 29q-43 24 -70 24q-26 0 -45.5 -12t-44.5 -42l-27 51q37 37 63.5 52t62.5 15q44 0 94 -29q43 -22 70.5 -23t43.5 10t46 43z" />
    <glyph glyph-name="Adieresis" unicode="&#xc4;" horiz-adv-x="676" 
d="M602 0h-93l-48 232h-286l-130 -232h-96l396 700h106zM384 607l-170 -304h232zM341 891l-23 -128h-78l23 128h78zM605 891l-23 -128h-78l23 128h78z" />
    <glyph glyph-name="Aring" unicode="&#xc5;" horiz-adv-x="676" 
d="M602 0h-93l-48 232h-286l-130 -232h-96l396 700h106zM384 607l-170 -304h232zM526 829q-16 -112 -130 -112q-98 0 -98 84q0 14 2 28q16 112 129 112q99 0 99 -86q0 -2 -2 -26zM351 829q0 -3 -0.5 -7t-1 -6.5t-0.5 -5v-3.5q0 -46 53 -46q62 0 73 68q2 18 2 20q0 48 -54 48
q-32 0 -49.5 -16t-22.5 -52z" />
    <glyph glyph-name="AE" unicode="&#xc6;" horiz-adv-x="1009" 
d="M248 364h254l46 263h-153zM904 73l-13 -73h-453l51 290h-282l-162 -290h-96l396 700h658l-13 -73h-355l-41 -236h310l-13 -73h-310l-43 -245h366z" />
    <glyph glyph-name="Ccedilla" unicode="&#xc7;" horiz-adv-x="624" 
d="M341 -13l-8 -27h8q48 0 73.5 -20.5t25.5 -56.5q0 -16 -1 -21q-17 -98 -127 -98q-43 0 -87 10l14 52q39 -14 70 -14q60 0 67 48q1 3 1 12q0 18 -13.5 29t-37.5 11q-30 0 -65 -3l24 78q-238 13 -238 251q0 66 8 112q52 364 367 364q70 0 197 -23l-25 -83q-111 33 -181 33
q-118 0 -182.5 -71t-85.5 -220q-8 -56 -8 -105q0 -186 188 -186q73 0 192 33l1 -80q-101 -22 -177 -25z" />
    <glyph glyph-name="Egrave" unicode="&#xc8;" 
d="M126 73h366l-13 -73h-453l123 700h442l-13 -73h-355l-41 -236h310l-13 -73h-310zM341 740l-90 174h83l70 -174h-63z" />
    <glyph glyph-name="Eacute" unicode="&#xc9;" 
d="M126 73h366l-13 -73h-453l123 700h442l-13 -73h-355l-41 -236h310l-13 -73h-310zM320 740l130 174h94l-153 -174h-71z" />
    <glyph glyph-name="Ecircumflex" unicode="&#xca;" 
d="M126 73h366l-13 -73h-453l123 700h442l-13 -73h-355l-41 -236h310l-13 -73h-310zM275 740h-67l136 174h104l74 -174h-63l-70 125z" />
    <glyph glyph-name="Edieresis" unicode="&#xcb;" 
d="M126 73h366l-13 -73h-453l123 700h442l-13 -73h-355l-41 -236h310l-13 -73h-310zM306 891l-23 -128h-78l23 128h78zM570 891l-23 -128h-78l23 128h78z" />
    <glyph glyph-name="Igrave" unicode="&#xcc;" horiz-adv-x="263" 
d="M113 0h-87l123 700h87zM178 740l-90 174h83l70 -174h-63z" />
    <glyph glyph-name="Iacute" unicode="&#xcd;" horiz-adv-x="263" 
d="M113 0h-87l123 700h87zM141 740l130 174h94l-153 -174h-71z" />
    <glyph glyph-name="Icircumflex" unicode="&#xce;" horiz-adv-x="263" 
d="M113 0h-87l123 700h87zM98 740h-67l136 174h104l74 -174h-63l-70 125z" />
    <glyph glyph-name="Idieresis" unicode="&#xcf;" horiz-adv-x="263" 
d="M175 891l-23 -128h-76l23 128h76zM346 891l-23 -128h-76l23 128h76zM113 0h-87l123 700h87z" />
    <glyph glyph-name="Eth" unicode="&#xd0;" horiz-adv-x="735" 
d="M28 386h79l52 298q115 30 221 30q309 0 309 -257q0 -51 -8 -107q-27 -176 -123 -271q-96 -93 -287 -93q-121 0 -229 30l52 299h-79zM312 315h-131l-42 -241q61 -15 142 -15q141 0 214.5 70.5t95.5 220.5q7 46 7 93q0 198 -230 198q-69 0 -132 -15l-42 -240h131z" />
    <glyph glyph-name="Ntilde" unicode="&#xd1;" horiz-adv-x="716" 
d="M603 700h86l-123 -700h-108l-212 506q-24 60 -34 92q-6 -68 -13 -102l-87 -496h-86l123 700h108l212 -505q25 -54 34 -92q6 68 13 102zM609 889l27 -51q-37 -38 -64 -52.5t-62 -14.5q-44 0 -94 29q-44 24 -70 24t-45.5 -12t-44.5 -42l-27 51q37 37 63.5 52t62.5 15
q44 0 94 -29q43 -22 70.5 -23t43.5 10t46 43z" />
    <glyph glyph-name="Ograve" unicode="&#xd2;" horiz-adv-x="736" 
d="M681 350q-54 -364 -368 -364q-114 0 -186 52q-80 58 -80 210q0 48 8 102q52 364 367 364q267 0 267 -264q0 -38 -8 -100zM591 350q8 58 8 93q0 104 -46.5 151t-141.5 47q-113 0 -178 -68.5t-88 -222.5q-8 -59 -8 -95q0 -103 46.5 -149.5t140.5 -46.5q113 0 178 68.5
t89 222.5zM396 740l-90 174h83l70 -174h-63z" />
    <glyph glyph-name="Oacute" unicode="&#xd3;" horiz-adv-x="736" 
d="M681 350q-54 -364 -368 -364q-114 0 -186 52q-80 58 -80 210q0 48 8 102q52 364 367 364q267 0 267 -264q0 -38 -8 -100zM591 350q8 58 8 93q0 104 -46.5 151t-141.5 47q-113 0 -178 -68.5t-88 -222.5q-8 -59 -8 -95q0 -103 46.5 -149.5t140.5 -46.5q113 0 178 68.5
t89 222.5zM393 740l130 174h94l-153 -174h-71z" />
    <glyph glyph-name="Ocircumflex" unicode="&#xd4;" horiz-adv-x="736" 
d="M681 350q-54 -364 -368 -364q-114 0 -186 52q-80 58 -80 210q0 48 8 102q52 364 367 364q267 0 267 -264q0 -38 -8 -100zM591 350q8 58 8 93q0 104 -46.5 151t-141.5 47q-113 0 -178 -68.5t-88 -222.5q-8 -59 -8 -95q0 -103 46.5 -149.5t140.5 -46.5q113 0 178 68.5
t89 222.5zM341 740h-67l136 174h104l74 -174h-63l-70 125z" />
    <glyph glyph-name="Otilde" unicode="&#xd5;" horiz-adv-x="736" 
d="M681 350q-54 -364 -368 -364q-114 0 -186 52q-80 58 -80 210q0 48 8 102q52 364 367 364q267 0 267 -264q0 -38 -8 -100zM591 350q8 58 8 93q0 104 -46.5 151t-141.5 47q-113 0 -178 -68.5t-88 -222.5q-8 -59 -8 -95q0 -103 46.5 -149.5t140.5 -46.5q113 0 178 68.5
t89 222.5zM620 889l27 -51q-37 -38 -64 -52.5t-62 -14.5q-44 0 -94 29q-44 24 -70 24t-45.5 -12t-44.5 -42l-27 51q37 37 63.5 52t62.5 15q44 0 94 -29q43 -22 70.5 -23t43.5 10t46 43z" />
    <glyph glyph-name="Odieresis" unicode="&#xd6;" horiz-adv-x="736" 
d="M681 350q-54 -364 -368 -364q-114 0 -186 52q-80 58 -80 210q0 48 8 102q52 364 367 364q267 0 267 -264q0 -38 -8 -100zM591 350q8 58 8 93q0 104 -46.5 151t-141.5 47q-113 0 -178 -68.5t-88 -222.5q-8 -59 -8 -95q0 -103 46.5 -149.5t140.5 -46.5q113 0 178 68.5
t89 222.5zM367 891l-23 -128h-78l23 128h78zM631 891l-23 -128h-78l23 128h78z" />
    <glyph glyph-name="multiply" unicode="&#xd7;" horiz-adv-x="578" 
d="M102 465l46 46l131 -130l131 130l46 -46l-130 -131l130 -131l-46 -46l-131 130l-131 -130l-46 46l130 131z" />
    <glyph glyph-name="Oslash" unicode="&#xd8;" horiz-adv-x="736" 
d="M570 350q8 58 8 93q0 88 -34 135l-341 -501q39 -18 100 -18q113 0 178 68.5t89 222.5zM116 255q0 -87 33 -133l340 501q-41 18 -99 18q-113 0 -178 -68.5t-88 -222.5q-8 -59 -8 -95zM586 765h85l-75 -111q72 -68 72 -204q0 -38 -8 -100q-54 -364 -368 -364q-81 0 -135 22
l-50 -73h-85l75 110q-71 65 -71 203q0 48 8 102q52 364 367 364q80 0 135 -23z" />
    <glyph glyph-name="Ugrave" unicode="&#xd9;" horiz-adv-x="726" 
d="M317 59q105 0 155 39t69 150l79 452h87l-80 -454q-26 -143 -101 -201q-76 -59 -220 -59q-250 0 -250 190q0 38 5 70l80 454h87l-79 -452q-4 -23 -4 -63q0 -68 41.5 -97t130.5 -29zM390 740l-90 174h83l70 -174h-63z" />
    <glyph glyph-name="Uacute" unicode="&#xda;" horiz-adv-x="726" 
d="M317 59q105 0 155 39t69 150l79 452h87l-80 -454q-26 -143 -101 -201q-76 -59 -220 -59q-250 0 -250 190q0 38 5 70l80 454h87l-79 -452q-4 -23 -4 -63q0 -68 41.5 -97t130.5 -29zM361 740l130 174h94l-153 -174h-71z" />
    <glyph glyph-name="Ucircumflex" unicode="&#xdb;" horiz-adv-x="726" 
d="M317 59q105 0 155 39t69 150l79 452h87l-80 -454q-26 -143 -101 -201q-76 -59 -220 -59q-250 0 -250 190q0 38 5 70l80 454h87l-79 -452q-4 -23 -4 -63q0 -68 41.5 -97t130.5 -29zM342 740h-67l136 174h104l74 -174h-63l-70 125z" />
    <glyph glyph-name="Udieresis" unicode="&#xdc;" horiz-adv-x="726" 
d="M317 59q105 0 155 39t69 150l79 452h87l-80 -454q-26 -143 -101 -201q-76 -59 -220 -59q-250 0 -250 190q0 38 5 70l80 454h87l-79 -452q-4 -23 -4 -63q0 -68 41.5 -97t130.5 -29zM357 891l-23 -128h-78l23 128h78zM621 891l-23 -128h-78l23 128h78z" />
    <glyph glyph-name="Yacute" unicode="&#xdd;" horiz-adv-x="651" 
d="M165 700l159 -349l282 349h106l-358 -436l-46 -264h-87l46 264l-204 436h102zM335 740l130 174h94l-153 -174h-71z" />
    <glyph glyph-name="Thorn" unicode="&#xde;" horiz-adv-x="615" 
d="M200 492l-48 -273q73 -14 135 -14q178 0 199 151q2 18 2 36q0 115 -156 115q-57 0 -132 -15zM149 700h87l-24 -134q90 14 133 14q234 0 234 -173q0 -31 -3 -51q-32 -224 -298 -224q-60 0 -139 14l-26 -146h-87z" />
    <glyph glyph-name="germandbls" unicode="&#xdf;" horiz-adv-x="631" 
d="M334 355h-76l12 64h67q142 0 161 136q2 16 2 33q0 47 -31 74.5t-90 27.5q-134 0 -162 -160l-93 -530h-78l62 355h-69l12 64h69l19 113q36 222 250 222q103 0 147 -44t44 -108q0 -23 -3 -44q-16 -117 -109 -166q90 -36 90 -142q0 -22 -5 -57q-33 -207 -272 -207
q-39 0 -86 6l11 64q46 -6 83 -6q163 0 185 145q4 25 4 43q0 117 -144 117z" />
    <glyph glyph-name="agrave" unicode="&#xe0;" horiz-adv-x="522" 
d="M6 140q28 159 226 159q43 0 124 -10l7 43q3 17 3 40q0 76 -99 76q-57 0 -164 -33l-2 71q122 26 178 26q166 0 166 -129q0 -24 -4 -49l-58 -334h-74l5 27q-90 -41 -164 -41q-72 0 -109.5 31.5t-37.5 86.5q0 18 3 36zM228 235q-69 0 -101 -23.5t-41 -72.5q0 -3 -0.5 -7
t-1 -6.5t-0.5 -5v-3.5q0 -67 88 -67q65 0 148 39l24 137q-72 9 -116 9zM271 588l-90 174h78l69 -174h-57z" />
    <glyph glyph-name="aacute" unicode="&#xe1;" horiz-adv-x="522" 
d="M6 140q28 159 226 159q43 0 124 -10l7 43q3 17 3 40q0 76 -99 76q-57 0 -164 -33l-2 71q122 26 178 26q166 0 166 -129q0 -24 -4 -49l-58 -334h-74l5 27q-90 -41 -164 -41q-72 0 -109.5 31.5t-37.5 86.5q0 18 3 36zM228 235q-69 0 -101 -23.5t-41 -72.5q0 -3 -0.5 -7
t-1 -6.5t-0.5 -5v-3.5q0 -67 88 -67q65 0 148 39l24 137q-72 9 -116 9zM233 588l130 174h88l-153 -174h-65z" />
    <glyph glyph-name="acircumflex" unicode="&#xe2;" horiz-adv-x="522" 
d="M6 140q28 159 226 159q43 0 124 -10l7 43q3 17 3 40q0 76 -99 76q-57 0 -164 -33l-2 71q122 26 178 26q166 0 166 -129q0 -24 -4 -49l-58 -334h-74l5 27q-90 -41 -164 -41q-72 0 -109.5 31.5t-37.5 86.5q0 18 3 36zM228 235q-69 0 -101 -23.5t-41 -72.5q0 -3 -0.5 -7
t-1 -6.5t-0.5 -5v-3.5q0 -67 88 -67q65 0 148 39l24 137q-72 9 -116 9zM173 588h-62l130 174h98l68 -174h-60l-65 125z" />
    <glyph glyph-name="atilde" unicode="&#xe3;" horiz-adv-x="522" 
d="M6 140q28 159 226 159q43 0 124 -10l7 43q3 17 3 40q0 76 -99 76q-57 0 -164 -33l-2 71q122 26 178 26q166 0 166 -129q0 -24 -4 -49l-58 -334h-74l5 27q-90 -41 -164 -41q-72 0 -109.5 31.5t-37.5 86.5q0 18 3 36zM228 235q-69 0 -101 -23.5t-41 -72.5q0 -3 -0.5 -7
t-1 -6.5t-0.5 -5v-3.5q0 -67 88 -67q65 0 148 39l24 137q-72 9 -116 9zM465 732l25 -48q-35 -35 -60 -48.5t-57 -13.5q-42 0 -87 27q-38 22 -65 22q-23 0 -40.5 -11t-42.5 -39l-25 48q34 35 59 48.5t58 13.5q42 0 87 -27q38 -22 64 -22q24 0 42.5 11t41.5 39z" />
    <glyph glyph-name="adieresis" unicode="&#xe4;" horiz-adv-x="522" 
d="M6 140q28 159 226 159q43 0 124 -10l7 43q3 17 3 40q0 76 -99 76q-57 0 -164 -33l-2 71q122 26 178 26q166 0 166 -129q0 -24 -4 -49l-58 -334h-74l5 27q-90 -41 -164 -41q-72 0 -109.5 31.5t-37.5 86.5q0 18 3 36zM228 235q-69 0 -101 -23.5t-41 -72.5q0 -3 -0.5 -7
t-1 -6.5t-0.5 -5v-3.5q0 -67 88 -67q65 0 148 39l24 137q-72 9 -116 9zM237 740l-23 -128h-78l23 128h78zM485 740l-23 -128h-78l23 128h78z" />
    <glyph glyph-name="aring" unicode="&#xe5;" horiz-adv-x="522" 
d="M6 140q28 159 226 159q43 0 124 -10l7 43q3 17 3 40q0 76 -99 76q-57 0 -164 -33l-2 71q122 26 178 26q166 0 166 -129q0 -24 -4 -49l-58 -334h-74l5 27q-90 -41 -164 -41q-72 0 -109.5 31.5t-37.5 86.5q0 18 3 36zM228 235q-69 0 -101 -23.5t-41 -72.5q0 -3 -0.5 -7
t-1 -6.5t-0.5 -5v-3.5q0 -67 88 -67q65 0 148 39l24 137q-72 9 -116 9zM413 674q-16 -112 -130 -112q-98 0 -98 84q0 14 2 28q16 112 129 112q99 0 99 -86q0 -2 -2 -26zM238 674q0 -3 -0.5 -7t-1 -6.5t-0.5 -5v-3.5q0 -46 53 -46q62 0 73 68q2 18 2 20q0 48 -54 48
q-32 0 -49.5 -16t-22.5 -52z" />
    <glyph glyph-name="ae" unicode="&#xe6;" horiz-adv-x="874" 
d="M228 235q-69 0 -101 -23.5t-41 -72.5q0 -3 -0.5 -7t-1 -6.5t-0.5 -5v-3.5q0 -67 88 -67q65 0 148 39l24 137q-72 9 -116 9zM611 448q-139 0 -177 -153h299q1 9 1 38q0 115 -123 115zM570 50q88 0 188 28l6 -64q-108 -28 -208 -28q-119 0 -174 58l-7 -44h-66l5 27
q-90 -41 -164 -41q-72 0 -109.5 31.5t-37.5 86.5q0 18 3 36q28 159 226 159q43 0 124 -10l7 43q3 17 3 40q0 76 -99 76q-57 0 -164 -33l-2 71q122 26 178 26q119 0 153 -69q70 69 189 69q191 0 191 -178q0 -54 -6 -85l-3 -17h-380q-2 -24 -2 -49q0 -69 35.5 -101t113.5 -32z
" />
    <glyph glyph-name="ccedilla" unicode="&#xe7;" horiz-adv-x="497" 
d="M249 -88q-31 0 -65 -3l24 78q-182 12 -182 181q0 44 6 81q21 135 90 199t193 64q59 0 151 -21l-24 -71q-75 28 -134 28q-88 0 -134.5 -47t-61.5 -152q-5 -38 -5 -69q0 -130 142 -130q58 0 141 28l1 -71q-74 -16 -127 -20l-8 -27h8q48 0 73.5 -20.5t25.5 -56.5
q0 -16 -1 -21q-17 -98 -127 -98q-43 0 -87 10l14 52q39 -14 70 -14q60 0 67 48q1 3 1 12q0 18 -13.5 29t-37.5 11z" />
    <glyph glyph-name="egrave" unicode="&#xe8;" horiz-adv-x="560" 
d="M256 50q88 0 188 28l6 -64q-108 -28 -208 -28q-216 0 -216 185q0 35 6 78q19 130 89.5 196.5t185.5 66.5q191 0 191 -178q0 -54 -6 -85l-3 -17h-380q-2 -24 -2 -49q0 -69 35.5 -101t113.5 -32zM297 448q-139 0 -177 -153h299q1 9 1 38q0 115 -123 115zM285 588l-90 174
h78l69 -174h-57z" />
    <glyph glyph-name="eacute" unicode="&#xe9;" horiz-adv-x="560" 
d="M256 50q88 0 188 28l6 -64q-108 -28 -208 -28q-216 0 -216 185q0 35 6 78q19 130 89.5 196.5t185.5 66.5q191 0 191 -178q0 -54 -6 -85l-3 -17h-380q-2 -24 -2 -49q0 -69 35.5 -101t113.5 -32zM297 448q-139 0 -177 -153h299q1 9 1 38q0 115 -123 115zM272 588l130 174
h88l-153 -174h-65z" />
    <glyph glyph-name="ecircumflex" unicode="&#xea;" horiz-adv-x="560" 
d="M256 50q88 0 188 28l6 -64q-108 -28 -208 -28q-216 0 -216 185q0 35 6 78q19 130 89.5 196.5t185.5 66.5q191 0 191 -178q0 -54 -6 -85l-3 -17h-380q-2 -24 -2 -49q0 -69 35.5 -101t113.5 -32zM297 448q-139 0 -177 -153h299q1 9 1 38q0 115 -123 115zM239 588h-62
l130 174h98l68 -174h-60l-65 125z" />
    <glyph glyph-name="edieresis" unicode="&#xeb;" horiz-adv-x="560" 
d="M256 50q88 0 188 28l6 -64q-108 -28 -208 -28q-216 0 -216 185q0 35 6 78q19 130 89.5 196.5t185.5 66.5q191 0 191 -178q0 -54 -6 -85l-3 -17h-380q-2 -24 -2 -49q0 -69 35.5 -101t113.5 -32zM297 448q-139 0 -177 -153h299q1 9 1 38q0 115 -123 115zM279 740l-23 -128
h-78l23 128h78zM527 740l-23 -128h-78l23 128h78z" />
    <glyph glyph-name="igrave" unicode="&#xec;" horiz-adv-x="232" 
d="M180 498l-87 -498h-78l87 498h78zM142 588l-90 174h78l69 -174h-57z" />
    <glyph glyph-name="iacute" unicode="&#xed;" horiz-adv-x="232" 
d="M180 498l-87 -498h-78l87 498h78zM90 588l130 174h88l-153 -174h-65z" />
    <glyph glyph-name="icircumflex" unicode="&#xee;" horiz-adv-x="232" 
d="M180 498l-87 -498h-78l87 498h78zM60 588h-62l130 174h98l68 -174h-60l-65 125z" />
    <glyph glyph-name="idieresis" unicode="&#xef;" horiz-adv-x="232" 
d="M181 498l-88 -498h-78l88 498h78zM150 740l-23 -128h-72l23 128h72zM284 740l-23 -128h-72l23 128h72z" />
    <glyph glyph-name="eth" unicode="&#xf0;" horiz-adv-x="604" 
d="M464 465q-4 74 -34 152l-85 -50l-29 45l92 54q-16 34 -42 73l68 39q24 -34 42 -72l96 57l29 -46l-102 -60q48 -121 48 -240q0 -81 -10 -137q-53 -294 -300 -294q-104 0 -157 47.5t-53 138.5q0 36 5 74q19 129 84.5 194.5t185.5 65.5q72 0 162 -41zM112 246q-4 -21 -4 -64
q0 -132 138 -132q168 0 209 225q9 54 10 122q-79 45 -168 45q-87 0 -128 -46.5t-57 -149.5z" />
    <glyph glyph-name="ntilde" unicode="&#xf1;" horiz-adv-x="575" 
d="M496 339l-60 -339h-78l60 336q2 14 2 35q0 40 -22 58.5t-72 18.5q-53 0 -161 -44l-72 -404h-78l88 498h73l-5 -32q117 46 183 46q145 0 145 -129q0 -27 -3 -44zM499 732l25 -48q-35 -35 -60 -48.5t-57 -13.5q-42 0 -87 27q-38 22 -65 22q-23 0 -40.5 -11t-42.5 -39
l-25 48q34 35 59 48.5t58 13.5q42 0 87 -27q38 -22 64 -22q24 0 42.5 11t41.5 39z" />
    <glyph glyph-name="ograve" unicode="&#xf2;" horiz-adv-x="588" 
d="M112 249q-5 -42 -5 -61q0 -138 139 -138q85 0 132 49.5t62 149.5q5 38 5 59q0 140 -140 140q-85 0 -131.5 -49t-61.5 -150zM520 249q-41 -263 -284 -263q-210 0 -210 194q0 32 6 69q38 263 283 263q210 0 210 -196q0 -34 -5 -67zM295 588l-90 174h78l69 -174h-57z" />
    <glyph glyph-name="oacute" unicode="&#xf3;" horiz-adv-x="588" 
d="M112 249q-5 -42 -5 -61q0 -138 139 -138q85 0 132 49.5t62 149.5q5 38 5 59q0 140 -140 140q-85 0 -131.5 -49t-61.5 -150zM520 249q-41 -263 -284 -263q-210 0 -210 194q0 32 6 69q38 263 283 263q210 0 210 -196q0 -34 -5 -67zM283 588l130 174h88l-153 -174h-65z" />
    <glyph glyph-name="ocircumflex" unicode="&#xf4;" horiz-adv-x="588" 
d="M112 249q-5 -42 -5 -61q0 -138 139 -138q85 0 132 49.5t62 149.5q5 38 5 59q0 140 -140 140q-85 0 -131.5 -49t-61.5 -150zM520 249q-41 -263 -284 -263q-210 0 -210 194q0 32 6 69q38 263 283 263q210 0 210 -196q0 -34 -5 -67zM239 588h-62l130 174h98l68 -174h-60
l-65 125z" />
    <glyph glyph-name="otilde" unicode="&#xf5;" horiz-adv-x="588" 
d="M112 249q-5 -42 -5 -61q0 -138 139 -138q85 0 132 49.5t62 149.5q5 38 5 59q0 140 -140 140q-85 0 -131.5 -49t-61.5 -150zM520 249q-41 -263 -284 -263q-210 0 -210 194q0 32 6 69q38 263 283 263q210 0 210 -196q0 -34 -5 -67zM507 732l25 -48q-35 -35 -60 -48.5
t-57 -13.5q-42 0 -87 27q-38 22 -65 22q-23 0 -40.5 -11t-42.5 -39l-25 48q34 35 59 48.5t58 13.5q42 0 87 -27q38 -22 64 -22q24 0 42.5 11t41.5 39z" />
    <glyph glyph-name="odieresis" unicode="&#xf6;" horiz-adv-x="588" 
d="M280 740l-23 -128h-78l23 128h78zM528 740l-23 -128h-78l23 128h78zM112 249q-5 -42 -5 -61q0 -138 139 -138q85 0 132 49.5t62 149.5q5 38 5 59q0 140 -140 140q-85 0 -131.5 -49t-61.5 -150zM520 249q-41 -263 -284 -263q-210 0 -210 194q0 32 6 69q38 263 283 263
q210 0 210 -196q0 -34 -5 -67z" />
    <glyph glyph-name="divide" unicode="&#xf7;" horiz-adv-x="578" 
d="M321 574v-107h-84v107h84zM321 201v-107h-84v107h84zM61 302v64h436v-64h-436z" />
    <glyph glyph-name="oslash" unicode="&#xf8;" horiz-adv-x="588" 
d="M112 249q-5 -42 -5 -61q0 -67 31 -101l223 354q-27 7 -56 7q-85 0 -131.5 -49t-61.5 -150zM445 308q0 67 -32 102l-223 -354q24 -6 56 -6q85 0 132 49.5t62 149.5q5 38 5 59zM438 563h72l-55 -86q70 -49 70 -161q0 -34 -5 -67q-41 -263 -284 -263q-51 0 -84 10l-38 -61
h-71l53 85q-70 46 -70 160q0 32 6 69q38 263 283 263q45 0 84 -10z" />
    <glyph glyph-name="ugrave" unicode="&#xf9;" horiz-adv-x="575" 
d="M42 159l60 339h78l-60 -336q-2 -14 -2 -35q0 -40 22 -58.5t72 -18.5q53 0 161 44l72 404h78l-88 -498h-73l5 32q-117 -46 -183 -46q-145 0 -145 129q0 27 3 44zM287 588l-90 174h78l69 -174h-57z" />
    <glyph glyph-name="uacute" unicode="&#xfa;" horiz-adv-x="575" 
d="M42 159l60 339h78l-60 -336q-2 -14 -2 -35q0 -40 22 -58.5t72 -18.5q53 0 161 44l72 404h78l-88 -498h-73l5 32q-117 -46 -183 -46q-145 0 -145 129q0 27 3 44zM248 588l130 174h88l-153 -174h-65z" />
    <glyph glyph-name="ucircumflex" unicode="&#xfb;" horiz-adv-x="575" 
d="M42 159l60 339h78l-60 -336q-2 -14 -2 -35q0 -40 22 -58.5t72 -18.5q53 0 161 44l72 404h78l-88 -498h-73l5 32q-117 -46 -183 -46q-145 0 -145 129q0 27 3 44zM220 588h-62l130 174h98l68 -174h-60l-65 125z" />
    <glyph glyph-name="udieresis" unicode="&#xfc;" horiz-adv-x="575" 
d="M42 159l60 339h78l-60 -336q-2 -14 -2 -35q0 -40 22 -58.5t72 -18.5q53 0 161 44l72 404h78l-88 -498h-73l5 32q-117 -46 -183 -46q-145 0 -145 129q0 27 3 44zM261 740l-23 -128h-78l23 128h78zM509 740l-23 -128h-78l23 128h78z" />
    <glyph glyph-name="yacute" unicode="&#xfd;" horiz-adv-x="528" 
d="M18 -150q44 0 76 23q31 22 75 103l15 27h-47l-100 495h85l88 -460l244 460h89l-303 -545q-49 -91 -101 -129q-50 -38 -123 -38q-31 0 -51 4l15 64q17 -4 38 -4zM251 588l130 174h88l-153 -174h-65z" />
    <glyph glyph-name="thorn" unicode="&#xfe;" horiz-adv-x="580" 
d="M163 404l-54 -310q91 -44 151 -44q76 0 116 45t55 154q6 47 6 78q0 65 -30 93q-68 65 -244 -16zM344 512q174 0 174 -173q0 -44 -7 -90q-21 -138 -81 -200.5t-164 -62.5q-79 0 -169 45l-40 -231h-77l164 940h78l-48 -272q102 44 170 44z" />
    <glyph glyph-name="ydieresis" unicode="&#xff;" horiz-adv-x="528" 
d="M18 -150q44 0 76 23q31 22 75 103l15 27h-47l-100 495h85l88 -460l244 460h89l-303 -545q-49 -91 -101 -129q-50 -38 -123 -38q-31 0 -51 4l15 64q17 -4 38 -4zM238 740l-23 -128h-78l23 128h78zM486 740l-23 -128h-78l23 128h78z" />
    <glyph glyph-name="dotlessi" unicode="&#x131;" horiz-adv-x="232" 
d="M180 498l-87 -498h-78l87 498h78z" />
    <glyph glyph-name="Lslash" unicode="&#x141;" horiz-adv-x="539" 
d="M138 73h330l-13 -73h-417l60 345l-83 -24l14 77l83 24l49 278h87l-44 -251l169 49l-14 -77l-169 -49z" />
    <glyph glyph-name="lslash" unicode="&#x142;" horiz-adv-x="284" 
d="M269 440l-76 -22l-74 -418h-78l69 394l-75 -22l13 72l75 22l49 274h78l-44 -250l76 22z" />
    <glyph glyph-name="OE" unicode="&#x152;" horiz-adv-x="1073" 
d="M324 59q132 0 205 90l71 402q-31 47 -75 68.5t-114 21.5q-113 0 -178 -68.5t-88 -222.5q-8 -59 -8 -95q0 -103 46.5 -149.5t140.5 -46.5zM603 73h366l-13 -73h-453l6 34q-81 -48 -196 -48q-114 0 -186 52q-80 58 -80 210q0 48 8 102q52 364 367 364q131 0 196 -61l8 47
h442l-13 -73h-355l-41 -236h310l-13 -73h-310z" />
    <glyph glyph-name="oe" unicode="&#x153;" horiz-adv-x="968" 
d="M112 249q-5 -42 -5 -61q0 -138 139 -138q85 0 132 49.5t62 149.5q5 38 5 59q0 140 -140 140q-85 0 -131.5 -49t-61.5 -150zM705 448q-139 0 -177 -153h299q1 9 1 38q0 115 -123 115zM664 50q88 0 188 28l6 -64q-108 -28 -208 -28q-152 0 -197 92q-74 -92 -217 -92
q-210 0 -210 194q0 32 6 69q38 263 283 263q145 0 190 -94q72 94 210 94q191 0 191 -178q0 -54 -6 -85l-3 -17h-380q-2 -24 -2 -49q0 -69 35.5 -101t113.5 -32z" />
    <glyph glyph-name="Scaron" unicode="&#x160;" horiz-adv-x="583" 
d="M243 59q84 1 130.5 37t46.5 108q0 86 -119 109l-34 6q-186 31 -186 168q0 107 71 167t193 60q80 0 213 -29l-25 -83q-119 39 -198 39q-75 -1 -119 -36.5t-44 -101.5q0 -85 119 -108l35 -6q185 -35 185 -171q0 -112 -74.5 -172t-204.5 -60q-100 0 -242 35l27 87
q53 -23 120 -37q65 -12 106 -12zM467 914h67l-136 -174h-104l-74 174h63l70 -125z" />
    <glyph glyph-name="scaron" unicode="&#x161;" horiz-adv-x="469" 
d="M174 -14q-88 0 -185 27l27 77q87 -40 171 -40q118 1 118 89q0 31 -18.5 50t-66.5 27l-28 5q-131 24 -131 126q0 78 52 121.5t139 43.5q61 0 164 -23l-25 -74q-87 33 -152 33q-45 -1 -71.5 -22t-26.5 -62q0 -32 19 -51t67 -28l27 -5q133 -25 133 -126q0 -160 -213 -168z
M383 762h62l-130 -174h-98l-68 174h60l65 -125z" />
    <glyph glyph-name="Ydieresis" unicode="&#x178;" horiz-adv-x="651" 
d="M165 700l159 -349l282 349h106l-358 -436l-46 -264h-87l46 264l-204 436h102zM330 891l-23 -128h-78l23 128h78zM594 891l-23 -128h-78l23 128h78z" />
    <glyph glyph-name="Zcaron" unicode="&#x17d;" horiz-adv-x="608" 
d="M110 73h400l-13 -73h-507l12 73l480 554h-374l13 73h482l-13 -73zM486 914h67l-136 -174h-104l-74 174h63l70 -125z" />
    <glyph glyph-name="zcaron" unicode="&#x17e;" horiz-adv-x="488" 
d="M97 64h298l-11 -64h-400l11 64l350 370h-280l11 64h382l-11 -64zM403 762h62l-130 -174h-98l-68 174h60l65 -125z" />
    <glyph glyph-name="florin" unicode="&#x192;" horiz-adv-x="502" 
d="M412 391l-12 -68h-178l-132 -383h-84l132 383h-102l12 68h114l19 54q41 122 105 175.5t161 53.5q34 0 78 -4l-21 -75q-39 11 -66 11q-74 0 -109 -38q-34 -37 -66 -128l-17 -49h166z" />
    <glyph glyph-name="circumflex" unicode="&#x2c6;" horiz-adv-x="500" 
d="M164 588h-62l130 174h98l68 -174h-60l-65 125z" />
    <glyph glyph-name="caron" unicode="&#x2c7;" horiz-adv-x="500" 
d="M336 762h62l-130 -174h-98l-68 174h60l65 -125z" />
    <glyph glyph-name="breve" unicode="&#x2d8;" horiz-adv-x="500" 
d="M235 615q-114 0 -152 86l52 36q25 -60 105 -60q78 0 125 60l52 -36q-71 -86 -182 -86z" />
    <glyph glyph-name="dotaccent" unicode="&#x2d9;" horiz-adv-x="500" 
d="M304 740l-23 -128h-84l23 128h84z" />
    <glyph glyph-name="ring" unicode="&#x2da;" horiz-adv-x="500" 
d="M363 674q-16 -112 -130 -112q-98 0 -98 84q0 14 2 28q16 112 129 112q99 0 99 -86q0 -2 -2 -26zM188 674q0 -3 -0.5 -7t-1 -6.5t-0.5 -5v-3.5q0 -46 53 -46q62 0 73 68q2 18 2 20q0 48 -54 48q-32 0 -49.5 -16t-22.5 -52z" />
    <glyph glyph-name="ogonek" unicode="&#x2db;" horiz-adv-x="500" 
d="M155 -159q0 57 53 110l58 59h64l-79 -86q-33 -38 -33 -72q0 -40 50 -40q35 0 77 14v-52q-51 -10 -91 -10q-47 0 -73 20t-26 57z" />
    <glyph glyph-name="tilde" unicode="&#x2dc;" horiz-adv-x="500" 
d="M414 732l25 -48q-35 -35 -60 -48.5t-57 -13.5q-42 0 -87 27q-38 22 -65 22q-23 0 -40.5 -11t-42.5 -39l-25 48q34 35 59 48.5t58 13.5q42 0 87 -27q38 -22 64 -22q24 0 42.5 11t41.5 39z" />
    <glyph glyph-name="hungarumlaut" unicode="&#x2dd;" horiz-adv-x="500" 
d="M59 588l130 174h83l-152 -174h-61zM229 588l130 174h83l-152 -174h-61z" />
    <glyph glyph-name="acutecomb" unicode="&#x301;" horiz-adv-x="0" 
d="M-341 588l130 174h88l-153 -174h-65z" />
    <glyph glyph-name="uni0394" unicode="&#x394;" horiz-adv-x="690" 
d="M392 615l-305 -542h420zM588 0h-611l13 73l358 627h114l139 -627z" />
    <glyph glyph-name="uni0394" unicode="&#x2206;" horiz-adv-x="690" 
d="M392 615l-305 -542h420zM588 0h-611l13 73l358 627h114l139 -627z" />
    <glyph glyph-name="uni03A9" unicode="&#x3a9;" horiz-adv-x="752" 
d="M421 641q-219 0 -253 -225q-5 -33 -5 -63q0 -119 95 -280l-12 -73h-217l12 73h129q-96 147 -96 282q0 35 5 68q22 140 115.5 215.5t238.5 75.5q127 0 199 -60t72 -169q0 -20 -5 -62q-24 -182 -201 -350h123l-12 -73h-217l12 73q107 114 148 185q44 78 56 158q4 24 4 56
q0 82 -48.5 125.5t-142.5 43.5z" />
    <glyph glyph-name="uni03A9" unicode="&#x2126;" horiz-adv-x="752" 
d="M421 641q-219 0 -253 -225q-5 -33 -5 -63q0 -119 95 -280l-12 -73h-217l12 73h129q-96 147 -96 282q0 35 5 68q22 140 115.5 215.5t238.5 75.5q127 0 199 -60t72 -169q0 -20 -5 -62q-24 -182 -201 -350h123l-12 -73h-217l12 73q107 114 148 185q44 78 56 158q4 24 4 56
q0 82 -48.5 125.5t-142.5 43.5z" />
    <glyph glyph-name="pi" unicode="&#x3c0;" horiz-adv-x="605" 
d="M579 434h-56l-76 -434h-78l76 434h-255l-76 -434h-78l76 434h-56l11 64h523z" />
    <glyph glyph-name="afii10023" unicode="&#x401;" 
d="M126 73h366l-13 -73h-453l123 700h442l-13 -73h-355l-41 -236h310l-13 -73h-310zM301 891l-23 -128h-78l23 128h78zM565 891l-23 -128h-78l23 128h78z" />
    <glyph glyph-name="afii10051" unicode="&#x402;" horiz-adv-x="811" 
d="M647 627h-271l-41 -234q89 16 141 16q246 0 246 -201q0 -44 -6 -81q-19 -118 -80 -192.5t-166 -94.5l2 73q69 15 104 67t50 146q6 36 6 79q0 67 -41 99t-134 32q-46 0 -135 -14l-56 -322h-87l110 627h-219l13 73h577z" />
    <glyph glyph-name="afii10052" unicode="&#x403;" horiz-adv-x="534" 
d="M573 700l-13 -73h-337l-110 -627h-87l123 700h424zM295 740l130 174h94l-153 -174h-71z" />
    <glyph glyph-name="afii10053" unicode="&#x404;" horiz-adv-x="624" 
d="M313 -14q-129 0 -197.5 62.5t-68.5 189.5q0 66 8 112q52 364 367 364q70 0 197 -23l-25 -83q-111 33 -181 33q-111 0 -174.5 -62t-87.5 -192h327l-13 -73h-325q-3 -39 -3 -69q0 -186 188 -186q73 0 192 33l1 -80q-127 -26 -205 -26z" />
    <glyph glyph-name="afii10054" unicode="&#x405;" horiz-adv-x="583" 
d="M243 59q84 1 130.5 37t46.5 108q0 86 -119 109l-34 6q-186 31 -186 168q0 107 71 167t193 60q80 0 213 -29l-25 -83q-119 39 -198 39q-75 -1 -119 -36.5t-44 -101.5q0 -85 119 -108l35 -6q185 -35 185 -171q0 -112 -74.5 -172t-204.5 -60q-100 0 -242 35l27 87
q53 -23 120 -37q65 -12 106 -12z" />
    <glyph glyph-name="afii10055" unicode="&#x406;" horiz-adv-x="263" 
d="M113 0h-87l123 700h87z" />
    <glyph glyph-name="afii10056" unicode="&#x407;" horiz-adv-x="263" 
d="M175 891l-23 -128h-76l23 128h76zM346 891l-23 -128h-76l23 128h76zM113 0h-87l123 700h87z" />
    <glyph glyph-name="afii10057" unicode="&#x408;" horiz-adv-x="466" 
d="M78 -14q-58 0 -111 8l22 78q54 -14 99 -14q92 0 133 41q42 42 61 156l78 445h87l-79 -448q-24 -138 -87 -203q-62 -63 -203 -63z" />
    <glyph glyph-name="afii10058" unicode="&#x409;" horiz-adv-x="1062" 
d="M612 338l-47 -263q71 -16 130 -16q189 0 211 147q2 16 2 33q0 114 -169 114q-57 0 -127 -15zM468 17l107 610h-295l-17 -95q-46 -263 -106 -386q-59 -121 -156 -164l-37 68q50 24 81 63q79 94 137 420l30 167h463l-50 -286q78 12 128 12q119 0 182.5 -43.5t63.5 -128.5
q0 -30 -3 -48q-34 -220 -309 -220q-110 0 -219 31z" />
    <glyph glyph-name="afii10059" unicode="&#x40a;" horiz-adv-x="1070" 
d="M620 338l-47 -263q71 -16 130 -16q189 0 211 147q2 16 2 33q0 114 -169 114q-57 0 -127 -15zM476 17l53 301h-360l-56 -318h-87l123 700h87l-54 -309h360l54 309h87l-50 -286q78 12 128 12q119 0 182.5 -43.5t63.5 -128.5q0 -30 -3 -48q-34 -220 -309 -220
q-110 0 -219 31z" />
    <glyph glyph-name="afii10060" unicode="&#x40b;" horiz-adv-x="801" 
d="M647 627h-271l-41 -234q74 16 141 16q124 0 182 -46.5t58 -144.5q0 -28 -5 -56l-27 -162h-87l27 159q5 28 5 54q0 65 -40 94t-132 29q-45 0 -135 -14l-56 -322h-87l110 627h-219l13 73h577z" />
    <glyph glyph-name="afii10061" unicode="&#x40c;" horiz-adv-x="657" 
d="M479 -7l-270 366l338 341h117l-347 -345l260 -346zM149 700h87l-123 -700h-87zM304 740l130 174h94l-153 -174h-71z" />
    <glyph glyph-name="afii10062" unicode="&#x40e;" horiz-adv-x="629" 
d="M589 700h98l-338 -536q-71 -113 -117 -146q-46 -32 -114 -32q-35 0 -63 5l14 75q27 -5 44 -5q45 0 76 25q32 26 78 100h-55l-152 514h96l138 -477zM374 754q-122 0 -164 93l56 39q29 -65 113 -65q85 0 135 65l56 -39q-75 -93 -196 -93z" />
    <glyph glyph-name="afii10145" unicode="&#x40f;" horiz-adv-x="710" 
d="M333 0l-21 -150h-88l29 150h-227l123 700h87l-110 -627h360l110 627h87l-123 -700h-227z" />
    <glyph glyph-name="afii10017" unicode="&#x410;" horiz-adv-x="676" 
d="M602 0h-93l-48 232h-286l-130 -232h-96l396 700h106zM384 607l-170 -304h232z" />
    <glyph glyph-name="afii10018" unicode="&#x411;" horiz-adv-x="671" 
d="M172 327l-45 -253q85 -15 158 -15q218 0 218 176q0 108 -175 108q-75 0 -156 -16zM575 627h-350l-40 -225q92 14 155 14q254 0 254 -168q0 -129 -81 -195.5t-237 -66.5q-120 0 -246 30l120 684h437z" />
    <glyph glyph-name="afii10019" unicode="&#x412;" horiz-adv-x="671" 
d="M593 235q0 -249 -309 -249q-126 0 -254 30l117 668q129 30 233 30q229 0 229 -141q0 -153 -114 -205q98 -35 98 -133zM224 626l-40 -227h147q190 0 190 148q0 94 -154 94q-61 0 -143 -15zM500 193q2 14 2 31q0 103 -170 103h-161l-44 -253q85 -15 165 -15
q100 0 147.5 33.5t60.5 100.5z" />
    <glyph glyph-name="afii10020" unicode="&#x413;" horiz-adv-x="534" 
d="M573 700l-13 -73h-337l-110 -627h-87l123 700h424z" />
    <glyph glyph-name="afii10021" unicode="&#x414;" horiz-adv-x="731" 
d="M-63 -130l36 203h48q57 55 106 175.5t81 298.5l27 153h447l-111 -627h77l-36 -203h-76l14 130h-506l-32 -130h-75zM582 627h-280l-15 -82q-62 -329 -172 -472h369z" />
    <glyph glyph-name="afii10022" unicode="&#x415;" 
d="M126 73h366l-13 -73h-453l123 700h442l-13 -73h-355l-41 -236h310l-13 -73h-310z" />
    <glyph glyph-name="afii10024" unicode="&#x416;" horiz-adv-x="961" 
d="M462 0h-87l123 700h87zM786 -5l-226 364l290 341h111l-300 -343l221 -347zM122 700h97l181 -349l-345 -361l-92 25l338 352z" />
    <glyph glyph-name="afii10025" unicode="&#x417;" 
d="M542 569q0 -151 -116 -205q92 -36 92 -132q0 -125 -76.5 -185.5t-233.5 -60.5q-103 0 -221 26l22 81q105 -34 209 -34q209 0 209 162q0 104 -170 104q-58 0 -109 -3l13 78q68 -2 109 -2q91 0 137 35t46 115q0 93 -146 93q-73 0 -187 -29l-2 81q122 21 200 21
q224 0 224 -145z" />
    <glyph glyph-name="afii10026" unicode="&#x418;" horiz-adv-x="714" 
d="M687 700l-123 -700h-87l99 564l-460 -564h-90l123 700h87l-99 -564l460 564h90z" />
    <glyph glyph-name="afii10027" unicode="&#x419;" horiz-adv-x="714" 
d="M687 700l-123 -700h-87l99 564l-460 -564h-90l123 700h87l-99 -564l460 564h90zM416 754q-122 0 -164 93l56 39q29 -65 113 -65q85 0 135 65l56 -39q-75 -93 -196 -93z" />
    <glyph glyph-name="afii10028" unicode="&#x41a;" horiz-adv-x="657" 
d="M479 -7l-270 366l338 341h117l-347 -345l260 -346zM149 700h87l-123 -700h-87z" />
    <glyph glyph-name="afii10029" unicode="&#x41b;" horiz-adv-x="701" 
d="M675 700l-124 -700h-87l111 627h-295l-17 -95q-46 -263 -106 -386q-59 -121 -156 -164l-37 68q50 24 81 63q79 94 137 420l30 167h463z" />
    <glyph glyph-name="afii10030" unicode="&#x41c;" horiz-adv-x="902" 
d="M389 230l21 -101q44 84 55 101l270 470h110l-75 -700h-86l52 448q7 60 22 145l-78 -146l-257 -447h-68l-99 447q-13 61 -28 146q-18 -101 -28 -145l-106 -448h-86l171 700h106z" />
    <glyph glyph-name="afii10031" unicode="&#x41d;" horiz-adv-x="710" 
d="M683 700l-123 -700h-87l56 318h-360l-56 -318h-87l123 700h87l-54 -309h360l54 309h87z" />
    <glyph glyph-name="afii10032" unicode="&#x41e;" horiz-adv-x="736" 
d="M681 350q-54 -364 -368 -364q-114 0 -186 52q-80 58 -80 210q0 48 8 102q52 364 367 364q267 0 267 -264q0 -38 -8 -100zM591 350q8 58 8 93q0 104 -46.5 151t-141.5 47q-113 0 -178 -68.5t-88 -222.5q-8 -59 -8 -95q0 -103 46.5 -149.5t140.5 -46.5q113 0 178 68.5
t89 222.5z" />
    <glyph glyph-name="afii10033" unicode="&#x41f;" horiz-adv-x="710" 
d="M683 700l-123 -700h-87l110 627h-360l-110 -627h-87l123 700h534z" />
    <glyph glyph-name="afii10034" unicode="&#x420;" horiz-adv-x="615" 
d="M223 626l-48 -273q73 -14 135 -14q178 0 199 151q2 18 2 36q0 115 -156 115q-57 0 -132 -15zM113 0h-87l120 683q128 31 222 31q234 0 234 -173q0 -31 -3 -51q-32 -224 -298 -224q-60 0 -139 14z" />
    <glyph glyph-name="afii10035" unicode="&#x421;" horiz-adv-x="624" 
d="M55 350q54 364 367 364q70 0 197 -23l-25 -83q-111 33 -181 33q-118 0 -182.5 -71t-85.5 -220q-8 -56 -8 -105q0 -186 188 -186q73 0 192 33l1 -80q-127 -26 -205 -26q-129 0 -197.5 62.5t-68.5 189.5q0 56 8 112z" />
    <glyph glyph-name="afii10036" unicode="&#x422;" horiz-adv-x="621" 
d="M660 700l-13 -73h-245l-110 -627h-87l110 627h-245l13 73h577z" />
    <glyph glyph-name="afii10037" unicode="&#x423;" horiz-adv-x="629" 
d="M589 700h98l-338 -536q-71 -113 -117 -146q-46 -32 -114 -32q-35 0 -63 5l14 75q27 -5 44 -5q45 0 76 25q32 26 78 100h-55l-152 514h96l138 -477z" />
    <glyph glyph-name="afii10038" unicode="&#x424;" horiz-adv-x="879" 
d="M361 101l87 498q-137 0 -207.5 -61t-88.5 -188q-6 -40 -6 -68q0 -181 215 -181zM433 28l-16 -88h-87l16 88q-144 0 -217.5 62t-73.5 182q0 28 7 78q45 322 397 322l16 88h87l-16 -88q145 0 218.5 -62.5t73.5 -183.5q0 -27 -7 -76q-46 -322 -398 -322zM531 599l-87 -498
q137 0 207.5 61t89.5 188q5 35 5 66q0 183 -215 183z" />
    <glyph glyph-name="afii10039" unicode="&#x425;" horiz-adv-x="680" 
d="M101 700h106l140 -286l240 286h110l-300 -345l186 -355h-106l-147 296l-251 -296h-109l309 355z" />
    <glyph glyph-name="afii10040" unicode="&#x426;" horiz-adv-x="729" 
d="M650 73l-36 -203h-76l14 130h-526l124 700h87l-111 -627h360l111 627h87l-111 -627h77z" />
    <glyph glyph-name="afii10041" unicode="&#x427;" horiz-adv-x="648" 
d="M498 0h-87l50 282q-79 -16 -142 -16q-240 0 -240 182q0 44 4 65l33 187h87l-32 -184q-4 -20 -4 -58q0 -63 40 -91t131 -28q57 0 135 15l61 346h87z" />
    <glyph glyph-name="afii10042" unicode="&#x428;" horiz-adv-x="965" 
d="M126 73h264l110 627h87l-110 -627h264l110 627h87l-123 -700h-789l123 700h87z" />
    <glyph glyph-name="afii10043" unicode="&#x429;" horiz-adv-x="984" 
d="M807 0h-781l124 700h87l-111 -627h264l111 627h87l-111 -627h264l111 627h87l-111 -627h77l-36 -203h-76z" />
    <glyph glyph-name="afii10044" unicode="&#x42a;" horiz-adv-x="733" 
d="M283 338l-47 -263q71 -16 130 -16q188 0 211 147q2 16 2 33q0 114 -169 114q-56 0 -127 -15zM139 17l108 610h-176l12 73h263l-50 -286q78 12 128 12q119 0 182.5 -43.5t63.5 -128.5q0 -30 -3 -48q-34 -220 -309 -220q-110 0 -219 31z" />
    <glyph glyph-name="afii10045" unicode="&#x42b;" horiz-adv-x="870" 
d="M720 0h-87l123 700h87zM173 338l-47 -263q71 -16 130 -16q188 0 211 147q2 16 2 33q0 114 -169 114q-57 0 -127 -15zM29 17l120 683h87l-50 -286q78 12 128 12q119 0 182.5 -43.5t63.5 -128.5q0 -30 -3 -48q-34 -220 -309 -220q-110 0 -219 31z" />
    <glyph glyph-name="afii10046" unicode="&#x42c;" horiz-adv-x="623" 
d="M173 338l-47 -263q71 -16 130 -16q188 0 211 147q2 16 2 33q0 114 -169 114q-57 0 -127 -15zM29 17l120 683h87l-50 -286q78 12 128 12q119 0 182.5 -43.5t63.5 -128.5q0 -30 -3 -48q-34 -220 -309 -220q-110 0 -219 31z" />
    <glyph glyph-name="afii10047" unicode="&#x42d;" horiz-adv-x="624" 
d="M570 350q-29 -188 -121.5 -276t-246.5 -88q-81 0 -197 26l24 80q105 -33 181 -33q112 0 175.5 62.5t87.5 192.5h-327l13 73h325q3 26 3 67q0 187 -189 187q-70 0 -190 -33l-1 83q130 23 205 23q128 0 197 -63.5t69 -191.5q0 -50 -8 -109z" />
    <glyph glyph-name="afii10048" unicode="&#x42e;" horiz-adv-x="1036" 
d="M891 350q8 59 8 103q0 188 -182 188q-111 0 -175 -69t-85 -222q-8 -59 -8 -105q0 -186 181 -186q110 0 173.5 68.5t87.5 222.5zM236 700l-55 -312h193q62 326 354 326q261 0 261 -252q0 -51 -8 -112q-32 -212 -138 -293q-93 -71 -224 -71q-261 0 -261 251q0 51 4 78h-194
l-55 -315h-87l123 700h87z" />
    <glyph glyph-name="afii10049" unicode="&#x42f;" horiz-adv-x="639" 
d="M335 364h132l46 263q-92 14 -136 14q-200 0 -200 -171q0 -106 158 -106zM293 291l-218 -298l-94 19l220 294q-115 34 -115 154q0 124 79.5 189t221.5 65q90 0 223 -30l-121 -684h-87l52 291h-161z" />
    <glyph glyph-name="afii10065" unicode="&#x430;" horiz-adv-x="522" 
d="M6 140q28 159 226 159q43 0 124 -10l7 43q3 17 3 40q0 76 -99 76q-57 0 -164 -33l-2 71q122 26 178 26q166 0 166 -129q0 -24 -4 -49l-58 -334h-74l5 27q-90 -41 -164 -41q-72 0 -109.5 31.5t-37.5 86.5q0 18 3 36zM228 235q-69 0 -101 -23.5t-41 -72.5q0 -3 -0.5 -7
t-1 -6.5t-0.5 -5v-3.5q0 -67 88 -67q65 0 148 39l24 137q-72 9 -116 9z" />
    <glyph glyph-name="afii10066" unicode="&#x431;" horiz-adv-x="604" 
d="M152 457q113 49 191 49q100 0 150 -47.5t50 -136.5q0 -52 -8 -97.5t-29 -90.5t-52.5 -77t-83 -51.5t-116.5 -19.5q-215 0 -215 214q0 56 10 120q31 211 111 300q40 45 89 68.5t120 35.5q153 23 194 34l1 -70q-38 -10 -58 -13l-71 -11l-62 -9q-105 -18 -152 -64
q-46 -45 -69 -134zM263 50q95 0 143 62q57 75 57 205q0 125 -133 125q-69 0 -189 -46q-8 -40 -10 -59l-6 -47q-6 -33 -6 -88q0 -152 144 -152z" />
    <glyph glyph-name="afii10067" unicode="&#x432;" horiz-adv-x="549" 
d="M473 131q-7 -45 -30 -75q-22 -32 -75.5 -51t-132.5 -19q-95 0 -216 31l82 469q130 26 203 26q181 0 181 -109q0 -14 -2 -26q-13 -84 -85 -114q78 -25 78 -103q0 -12 -3 -29zM404 368q1 3 1 16q0 64 -111 64q-53 0 -124 -13l-25 -145h125q65 0 96 19.5t38 58.5zM394 136
q2 16 2 19q0 73 -127 73h-135l-28 -159q75 -19 139 -19q73 0 107 20.5t42 65.5z" />
    <glyph glyph-name="afii10068" unicode="&#x433;" horiz-adv-x="403" 
d="M102 498h315l-11 -64h-237l-76 -434h-78z" />
    <glyph glyph-name="afii10069" unicode="&#x434;" horiz-adv-x="600" 
d="M409 -140l17 140h-404l-33 -140h-64l36 204h44q54 50 93 141t57 194l18 99h350l-77 -434h64l-36 -204h-65zM433 434h-202l-6 -37q-39 -226 -137 -333h280z" />
    <glyph glyph-name="afii10070" unicode="&#x435;" horiz-adv-x="560" 
d="M256 50q88 0 188 28l6 -64q-108 -28 -208 -28q-216 0 -216 185q0 35 6 78q19 130 89.5 196.5t185.5 66.5q191 0 191 -178q0 -54 -6 -85l-3 -17h-380q-2 -24 -2 -49q0 -69 35.5 -101t113.5 -32zM297 448q-139 0 -177 -153h299q1 9 1 38q0 115 -123 115z" />
    <glyph glyph-name="afii10072" unicode="&#x436;" horiz-adv-x="794" 
d="M374 0h-78l88 498h78zM632 -5l-179 267l225 236h99l-230 -239l169 -250zM69 498h91l148 -244l-262 -262l-85 20l255 257z" />
    <glyph glyph-name="afii10073" unicode="&#x437;" horiz-adv-x="470" 
d="M384 129q-26 -143 -250 -143q-82 0 -167 20l25 73q72 -29 153 -29q79 0 115.5 21t45.5 67q1 4 1 18q0 71 -140 71q-29 0 -77 -3l12 68q62 -2 81 -2q131 0 141 79q1 3 1 13q0 66 -110 66q-62 0 -140 -24l-5 71q94 17 150 17q185 0 185 -108q0 -2 -2 -28q-12 -85 -92 -117
q76 -33 76 -99q0 -14 -3 -31z" />
    <glyph glyph-name="afii10074" unicode="&#x438;" horiz-adv-x="580" 
d="M528 498l-87 -498h-78l67 382l-337 -382h-78l87 498h78l-67 -382l337 382h78z" />
    <glyph glyph-name="afii10075" unicode="&#x439;" horiz-adv-x="580" 
d="M528 498l-87 -498h-78l67 382l-337 -382h-78l87 498h78l-67 -382l337 382h78zM326 615q-114 0 -152 86l52 36q26 -60 105 -60t125 60l52 -36q-71 -86 -182 -86z" />
    <glyph glyph-name="afii10076" unicode="&#x43a;" horiz-adv-x="526" 
d="M103 498h78l-88 -498h-78zM266 261l181 -256l-90 -10l-186 271l234 232h107z" />
    <glyph glyph-name="afii10077" unicode="&#x43b;" horiz-adv-x="551" 
d="M500 498l-88 -498h-78l76 434h-200l-8 -46q-32 -180 -75 -265t-124 -138l-42 56q44 29 74 66q58 71 96 283l19 108h350z" />
    <glyph glyph-name="afii10078" unicode="&#x43c;" horiz-adv-x="724" 
d="M304 142l11 -46l26 47q22 39 31 52l185 303h97l-56 -498h-76l36 288q2 14 20 124q-4 -8 -12.5 -23l-24 -42.5l-28.5 -50.5l-181 -296h-64l-77 296q-10 36 -25 116q-12 -66 -24 -124l-64 -288h-76l118 498h93l79 -303q4 -14 12 -53z" />
    <glyph glyph-name="afii10079" unicode="&#x43d;" horiz-adv-x="570" 
d="M518 498l-87 -498h-78l39 225h-260l-39 -225h-78l87 498h78l-36 -209h260l36 209h78z" />
    <glyph glyph-name="afii10080" unicode="&#x43e;" horiz-adv-x="588" 
d="M112 249q-5 -42 -5 -61q0 -138 139 -138q85 0 132 49.5t62 149.5q5 38 5 59q0 140 -140 140q-85 0 -131.5 -49t-61.5 -150zM520 249q-41 -263 -284 -263q-210 0 -210 194q0 32 6 69q38 263 283 263q210 0 210 -196q0 -34 -5 -67z" />
    <glyph glyph-name="afii10081" unicode="&#x43f;" horiz-adv-x="570" 
d="M518 498l-87 -498h-78l76 434h-260l-76 -434h-78l87 498h416z" />
    <glyph glyph-name="afii10082" unicode="&#x440;" horiz-adv-x="580" 
d="M98 31l-40 -231h-78l123 698h73l-6 -32q102 46 175 46q174 0 174 -173q0 -44 -7 -90q-21 -138 -81 -200.5t-164 -62.5q-79 0 -169 45zM164 404l-54 -310q91 -44 151 -44q76 0 116 45t55 154q6 47 6 78q0 65 -30 93q-68 65 -244 -16z" />
    <glyph glyph-name="afii10083" unicode="&#x441;" horiz-adv-x="497" 
d="M32 249q21 135 90 199t193 64q59 0 151 -21l-24 -71q-75 28 -134 28q-88 0 -134.5 -47t-61.5 -152q-5 -38 -5 -69q0 -130 142 -130q58 0 141 28l1 -71q-97 -21 -155 -21q-210 0 -210 182q0 44 6 81z" />
    <glyph glyph-name="afii10084" unicode="&#x442;" horiz-adv-x="456" 
d="M26 434l11 64h434l-11 -64h-178l-76 -434h-78l76 434h-178z" />
    <glyph glyph-name="afii10085" unicode="&#x443;" horiz-adv-x="528" 
d="M18 -150q44 0 76 23q31 22 75 103l15 27h-47l-100 495h85l88 -460l244 460h89l-303 -545q-49 -91 -101 -129q-50 -38 -123 -38q-31 0 -51 4l15 64q17 -4 38 -4z" />
    <glyph glyph-name="afii10086" unicode="&#x444;" horiz-adv-x="758" 
d="M287 50l70 398q-123 0 -176 -44q-54 -45 -70 -155q-5 -37 -5 -65q0 -71 42 -102.5t139 -31.5zM432 448l-70 -398q124 0 176 43q54 44 70 156q5 35 5 65q0 71 -42 102.5t-139 31.5zM352 -14l-32 -186h-78l32 186q-127 0 -187.5 46.5t-60.5 145.5q0 31 5 71q21 142 100 202
q79 61 236 61l40 228h78l-40 -228q127 0 187.5 -46.5t60.5 -145.5q0 -31 -5 -71q-21 -141 -101 -203q-80 -60 -235 -60z" />
    <glyph glyph-name="afii10087" unicode="&#x445;" horiz-adv-x="520" 
d="M149 498l100 -188l166 188h101l-226 -245l146 -253h-97l-106 197l-174 -197h-101l233 253l-139 245h97z" />
    <glyph glyph-name="afii10088" unicode="&#x446;" horiz-adv-x="587" 
d="M464 -140h-65l17 140h-401l88 498h78l-77 -434h257l77 434h78l-77 -434h61z" />
    <glyph glyph-name="afii10089" unicode="&#x447;" horiz-adv-x="520" 
d="M347 254l43 244h78l-87 -498h-78l33 190q-63 -11 -111 -11q-172 0 -172 137q0 30 3 46l24 136h78l-23 -134q-3 -20 -3 -35q0 -86 115 -86q42 0 100 11z" />
    <glyph glyph-name="afii10090" unicode="&#x448;" horiz-adv-x="808" 
d="M678 498h78l-87 -498h-654l87 498h78l-76 -434h210l76 434h78l-76 -434h210z" />
    <glyph glyph-name="afii10091" unicode="&#x449;" horiz-adv-x="828" 
d="M705 -140h-65l17 140h-642l88 498h78l-77 -434h210l77 434h78l-77 -434h210l77 434h78l-77 -434h61z" />
    <glyph glyph-name="afii10092" unicode="&#x44a;" horiz-adv-x="611" 
d="M345 270q-53 0 -114 -14l-34 -192q59 -14 115 -14q129 0 146 110q2 14 2 26q0 84 -115 84zM110 15l74 419h-149l12 64h227l-31 -176q63 12 114 12q93 0 138.5 -37t45.5 -100q0 -16 -3 -37q-26 -174 -233 -174q-84 0 -195 29z" />
    <glyph glyph-name="afii10093" unicode="&#x44b;" horiz-adv-x="716" 
d="M664 498l-88 -498h-78l88 498h78zM251 270q-53 0 -114 -14l-34 -192q59 -14 115 -14q129 0 146 110q2 14 2 26q0 84 -115 84zM102 498h78l-31 -176q63 12 114 12q93 0 138.5 -37t45.5 -100q0 -16 -3 -37q-26 -174 -233 -174q-84 0 -195 29z" />
    <glyph glyph-name="afii10094" unicode="&#x44c;" horiz-adv-x="517" 
d="M251 270q-53 0 -114 -14l-34 -192q59 -14 115 -14q129 0 146 110q2 14 2 26q0 84 -115 84zM102 498h78l-31 -176q63 12 114 12q93 0 138.5 -37t45.5 -100q0 -16 -3 -37q-26 -174 -233 -174q-84 0 -195 29z" />
    <glyph glyph-name="afii10095" unicode="&#x44d;" horiz-adv-x="497" 
d="M429 249q-20 -135 -90 -199t-195 -64q-58 0 -149 21l23 71q75 -28 134 -28q81 0 126.5 40t64.5 128h-257l11 63h255q2 18 2 37q0 130 -143 130q-58 0 -141 -28l-2 71q100 21 156 21q211 0 211 -188q0 -33 -6 -75z" />
    <glyph glyph-name="afii10096" unicode="&#x44e;" horiz-adv-x="803" 
d="M525 448q-82 0 -127.5 -49t-60.5 -150q-5 -42 -5 -62q0 -137 134 -137q159 0 189 199q5 38 5 59q0 140 -135 140zM253 218h-122l-38 -218h-78l87 498h78l-38 -217h120q50 231 273 231q205 0 205 -195q0 -35 -5 -68q-41 -263 -279 -263q-205 0 -205 192q0 18 2 40z" />
    <glyph glyph-name="afii10097" unicode="&#x44f;" horiz-adv-x="520" 
d="M380 0h-78l35 196h-118l-163 -203l-83 18l160 195q-86 32 -86 116q0 20 3 34q12 74 67.5 115t149.5 41q78 0 199 -23zM230 260h118l31 175q-66 13 -118 13q-117 0 -131 -92q-2 -12 -2 -23q0 -73 102 -73z" />
    <glyph glyph-name="afii10071" unicode="&#x451;" horiz-adv-x="560" 
d="M256 50q88 0 188 28l6 -64q-108 -28 -208 -28q-216 0 -216 185q0 35 6 78q19 130 89.5 196.5t185.5 66.5q191 0 191 -178q0 -54 -6 -85l-3 -17h-380q-2 -24 -2 -49q0 -69 35.5 -101t113.5 -32zM297 448q-139 0 -177 -153h299q1 9 1 38q0 115 -123 115zM253 740l-23 -128
h-78l23 128h78zM501 740l-23 -128h-78l23 128h78z" />
    <glyph glyph-name="afii10099" unicode="&#x452;" horiz-adv-x="613" 
d="M413 94l38 219q2 14 2 35q0 40 -22 58.5t-72 18.5q-53 0 -161 -44l-67 -381h-78l102 582h-70l11 59h70l17 99h78l-17 -99h186l-11 -59h-186l-24 -137q115 44 178 44q145 0 145 -129q0 -28 -3 -44l-39 -224q-33 -173 -82.5 -231t-174.5 -75l3 64q84 8 118 56q35 51 59 188
z" />
    <glyph glyph-name="afii10100" unicode="&#x453;" horiz-adv-x="403" 
d="M102 498h315l-11 -64h-237l-76 -434h-78zM187 588l130 174h88l-153 -174h-65z" />
    <glyph glyph-name="afii10101" unicode="&#x454;" horiz-adv-x="497" 
d="M32 249q21 135 90 199t193 64q59 0 151 -21l-24 -71q-75 28 -134 28q-81 0 -126.5 -39.5t-64.5 -127.5h257l-11 -63h-255q-1 -11 -1 -38q0 -130 142 -130q58 0 141 28l1 -71q-97 -21 -155 -21q-210 0 -210 182q0 44 6 81z" />
    <glyph glyph-name="afii10102" unicode="&#x455;" horiz-adv-x="469" 
d="M174 -14q-88 0 -185 27l27 77q87 -40 171 -40q118 1 118 89q0 31 -18.5 50t-66.5 27l-28 5q-131 24 -131 126q0 78 52 121.5t139 43.5q61 0 164 -23l-25 -74q-87 33 -152 33q-45 -1 -71.5 -22t-26.5 -62q0 -32 19 -51t67 -28l27 -5q133 -25 133 -126q0 -160 -213 -168z
" />
    <glyph glyph-name="afii10103" unicode="&#x456;" horiz-adv-x="232" 
d="M181 498l-88 -498h-78l88 498h78zM223 740l-23 -128h-84l23 128h84z" />
    <glyph glyph-name="afii10104" unicode="&#x457;" horiz-adv-x="232" 
d="M181 498l-88 -498h-78l88 498h78zM150 740l-23 -128h-72l23 128h72zM284 740l-23 -128h-72l23 128h72z" />
    <glyph glyph-name="afii10105" unicode="&#x458;" horiz-adv-x="235" 
d="M106 498h78l-87 -491q-19 -106 -72.5 -162t-150.5 -59l1 64q78 4 108 52q24 39 37 107zM226 740l-23 -128h-84l23 128h84z" />
    <glyph glyph-name="afii10106" unicode="&#x459;" horiz-adv-x="836" 
d="M571 270q-53 0 -114 -14l-34 -192q59 -14 115 -14q129 0 146 110q2 14 2 26q0 84 -115 84zM410 434h-200l-8 -46q-32 -180 -75 -265t-124 -138l-42 56q44 29 74 66q58 71 96 283l19 108h350l-31 -176q63 12 114 12q93 0 138.5 -37t45.5 -100q0 -16 -3 -37
q-26 -174 -233 -174q-84 0 -195 29z" />
    <glyph glyph-name="afii10107" unicode="&#x45a;" horiz-adv-x="855" 
d="M589 270q-53 0 -114 -14l-34 -192q59 -14 115 -14q129 0 146 110q2 14 2 26q0 84 -115 84zM354 15l38 210h-260l-39 -225h-78l87 498h78l-36 -209h260l36 209h78l-31 -176q63 12 114 12q93 0 138.5 -37t45.5 -100q0 -16 -3 -37q-26 -174 -233 -174q-84 0 -195 29z" />
    <glyph glyph-name="afii10108" unicode="&#x45b;" horiz-adv-x="613" 
d="M419 582h-186l-24 -137q115 44 178 44q145 0 145 -129q0 -28 -3 -44l-55 -316h-78l55 313q2 14 2 35q0 40 -22 58.5t-72 18.5q-53 0 -161 -44l-67 -381h-78l102 582h-70l11 59h70l17 99h78l-17 -99h186z" />
    <glyph glyph-name="afii10109" unicode="&#x45c;" horiz-adv-x="526" 
d="M103 498h78l-88 -498h-78zM266 261l181 -256l-90 -10l-186 271l234 232h107zM236 588l130 174h88l-153 -174h-65z" />
    <glyph glyph-name="afii10110" unicode="&#x45e;" horiz-adv-x="528" 
d="M18 -150q44 0 76 23q31 22 75 103l15 27h-47l-100 495h85l88 -460l244 460h89l-303 -545q-49 -91 -101 -129q-50 -38 -123 -38q-31 0 -51 4l15 64q17 -4 38 -4zM302 615q-114 0 -152 86l52 36q26 -60 105 -60q78 0 125 60l52 -36q-71 -86 -182 -86z" />
    <glyph glyph-name="afii10193" unicode="&#x45f;" horiz-adv-x="570" 
d="M441 498h78l-88 -498h-169l-31 -180h-78l31 180h-169l88 498h78l-76 -434h260z" />
    <glyph glyph-name="afii10050" unicode="&#x490;" horiz-adv-x="534" 
d="M593 810l-32 -183h-337l-111 -627h-87l124 700h349l26 110h68z" />
    <glyph glyph-name="afii10098" unicode="&#x491;" horiz-adv-x="403" 
d="M378 615h61l-32 -181h-237l-77 -434h-78l88 498h247z" />
    <glyph glyph-name="uni1E9E" unicode="&#x1e9e;" horiz-adv-x="639" 
d="M578 543l-192 -150q175 -15 175 -157q0 -8 -5 -43q-16 -93 -74 -145q-67 -58 -217 -58q-4 0 -13.5 0.5t-27.5 1t-35 0.5l13 73q42 -2 70 -2q100 0 141 30q42 32 54 98q3 18 3 32q0 53 -38.5 77.5t-117.5 24.5h-66l10 60l230 180q-9 38 -37.5 57t-88.5 19q-76 0 -116 -36
t-55 -120l-86 -485h-87l86 483q21 122 87.5 176.5t182.5 54.5q108 0 156 -40.5t48 -130.5z" />
    <glyph glyph-name="uni2010" unicode="&#x2010;" horiz-adv-x="478" 
d="M380 297l-13 -70h-302l13 70h302z" />
    <glyph glyph-name="uni2011" unicode="&#x2011;" horiz-adv-x="478" 
d="M380 297l-13 -70h-302l13 70h302z" />
    <glyph glyph-name="figuredash" unicode="&#x2012;" horiz-adv-x="671" 
d="M573 292l-11 -60h-495l11 60h495z" />
    <glyph glyph-name="endash" unicode="&#x2013;" horiz-adv-x="671" 
d="M573 292l-11 -60h-495l11 60h495z" />
    <glyph glyph-name="emdash" unicode="&#x2014;" horiz-adv-x="851" 
d="M753 292l-11 -60h-675l11 60h675z" />
    <glyph glyph-name="quoteleft" unicode="&#x2018;" horiz-adv-x="142" 
d="M163 700l-51 -241h-91l83 241h59z" />
    <glyph glyph-name="quoteright" unicode="&#x2019;" horiz-adv-x="142" 
d="M21 459l51 241h91l-83 -241h-59z" />
    <glyph glyph-name="quotesinglbase" unicode="&#x201a;" horiz-adv-x="142" 
d="M-46 -137l51 241h91l-83 -241h-59z" />
    <glyph glyph-name="quotedblleft" unicode="&#x201c;" horiz-adv-x="291" 
d="M312 700l-52 -241h-91l83 241h60zM163 700l-52 -241h-90l82 241h60z" />
    <glyph glyph-name="quotedblright" unicode="&#x201d;" horiz-adv-x="291" 
d="M21 459l51 241h91l-83 -241h-59zM169 459l52 241h91l-83 -241h-60z" />
    <glyph glyph-name="quotedblbase" unicode="&#x201e;" horiz-adv-x="291" 
d="M-46 -137l51 241h91l-83 -241h-59zM102 -137l52 241h91l-83 -241h-60z" />
    <glyph glyph-name="dagger" unicode="&#x2020;" horiz-adv-x="532" 
d="M489 455l-11 -64h-166l-95 -541h-78l95 541h-166l11 64h166l43 245h78l-43 -245h166z" />
    <glyph glyph-name="daggerdbl" unicode="&#x2021;" horiz-adv-x="532" 
d="M312 391l-41 -232h166l-11 -64h-166l-43 -245h-78l43 245h-166l11 64h166l41 232h-166l11 64h166l43 245h78l-43 -245h166l-11 -64h-166z" />
    <glyph glyph-name="bullet" unicode="&#x2022;" horiz-adv-x="538" 
d="M369 262q-16 -106 -132 -106q-102 0 -102 79q0 13 2 27q15 106 131 106q103 0 103 -81q0 -1 -2 -25z" />
    <glyph glyph-name="ellipsis" unicode="&#x2026;" horiz-adv-x="792" 
d="M131 107l-19 -107h-84l19 107h84zM395 107l-19 -107h-84l19 107h84zM659 107l-19 -107h-84l19 107h84z" />
    <glyph glyph-name="perthousand" unicode="&#x2030;" horiz-adv-x="1349" 
d="M666 660h74l-478 -660h-74zM427 485q-29 -189 -200 -189q-146 0 -146 138q0 30 4 51q29 189 199 189q147 0 147 -140q0 -28 -4 -49zM360 485q3 21 3 39q0 93 -88 93q-103 0 -123 -132q-3 -23 -3 -41q0 -91 87 -91q104 0 124 132zM843 175q-29 -189 -200 -189
q-146 0 -146 138q0 30 4 51q29 189 199 189q147 0 147 -140q0 -28 -4 -49zM776 175q3 21 3 39q0 93 -88 93q-103 0 -123 -132q-3 -23 -3 -41q0 -91 87 -91q105 0 124 132zM1257 175q-29 -189 -200 -189q-146 0 -146 138q0 30 4 51q29 189 199 189q147 0 147 -140
q0 -28 -4 -49zM1190 175q3 21 3 39q0 93 -88 93q-103 0 -123 -132q-3 -23 -3 -41q0 -91 87 -91q104 0 124 132z" />
    <glyph glyph-name="guilsinglleft" unicode="&#x2039;" horiz-adv-x="248" 
d="M169 450h76l-164 -192l93 -184h-72l-96 188z" />
    <glyph glyph-name="guilsinglright" unicode="&#x203a;" horiz-adv-x="248" 
d="M47 74h-76l164 192l-93 184h72l96 -188z" />
    <glyph glyph-name="fraction" unicode="&#x2044;" horiz-adv-x="363" 
d="M-42 -40l360 740h79l-361 -740h-78z" />
    <glyph glyph-name="Euro" unicode="&#x20ac;" horiz-adv-x="711" 
d="M564 432l-19 -61h-293q-6 -24 -11 -78h279l-22 -61h-260q0 -177 177 -177q74 0 182 31l1 -75q-116 -25 -194 -25q-122 0 -186.5 59t-64.5 179v8h-119l20 61h101q3 37 12 78h-109l19 61h105q75 242 325 242q70 0 186 -22l-23 -78q-102 31 -171 31q-176 0 -231 -173h296z
" />
    <glyph glyph-name="uni20B4" unicode="&#x20b4;" horiz-adv-x="724" 
d="M668 431l-10 -61h-584l10 61h421q25 38 25 86q0 88 -122 88q-72 0 -198 -36v77q128 28 209 28q97 0 147 -38t50 -106q0 -54 -24 -99h76zM49 231l11 61h584l-11 -61h-421q-23 -44 -23 -86q0 -90 134 -90q103 0 226 46l2 -80q-145 -35 -238 -35q-105 0 -157.5 38.5
t-52.5 108.5q0 50 21 98h-75z" />
    <glyph glyph-name="uni20B6" unicode="&#x20b6;" horiz-adv-x="649" 
d="M192 130l-23 -130h-82l23 130h-99l11 61h99l12 69h-99l12 69h99l56 316q124 29 208 29q223 0 223 -162q0 -121 -72.5 -186.5t-211.5 -65.5h-133l-12 -69h195l-11 -61h-195zM273 590l-46 -261h129q91 0 141 43t50 123q0 110 -149 110q-47 0 -125 -15z" />
    <glyph glyph-name="uni20B6" unicode="&#x20cf;" horiz-adv-x="649" 
d="M192 130l-23 -130h-82l23 130h-99l11 61h99l12 69h-99l12 69h99l56 316q124 29 208 29q223 0 223 -162q0 -121 -72.5 -186.5t-211.5 -65.5h-133l-12 -69h195l-11 -61h-195zM273 590l-46 -261h129q91 0 141 43t50 123q0 110 -149 110q-47 0 -125 -15z" />
    <glyph glyph-name="uni20B6" unicode="&#x20ce;" horiz-adv-x="649" 
d="M192 130l-23 -130h-82l23 130h-99l11 61h99l12 69h-99l12 69h99l56 316q124 29 208 29q223 0 223 -162q0 -121 -72.5 -186.5t-211.5 -65.5h-133l-12 -69h195l-11 -61h-195zM273 590l-46 -261h129q91 0 141 43t50 123q0 110 -149 110q-47 0 -125 -15z" />
    <glyph glyph-name="uni20B6" unicode="&#x20cd;" horiz-adv-x="649" 
d="M192 130l-23 -130h-82l23 130h-99l11 61h99l12 69h-99l12 69h99l56 316q124 29 208 29q223 0 223 -162q0 -121 -72.5 -186.5t-211.5 -65.5h-133l-12 -69h195l-11 -61h-195zM273 590l-46 -261h129q91 0 141 43t50 123q0 110 -149 110q-47 0 -125 -15z" />
    <glyph glyph-name="uni20B6" unicode="&#x20cc;" horiz-adv-x="649" 
d="M192 130l-23 -130h-82l23 130h-99l11 61h99l12 69h-99l12 69h99l56 316q124 29 208 29q223 0 223 -162q0 -121 -72.5 -186.5t-211.5 -65.5h-133l-12 -69h195l-11 -61h-195zM273 590l-46 -261h129q91 0 141 43t50 123q0 110 -149 110q-47 0 -125 -15z" />
    <glyph glyph-name="uni20B6" unicode="&#x20cb;" horiz-adv-x="649" 
d="M192 130l-23 -130h-82l23 130h-99l11 61h99l12 69h-99l12 69h99l56 316q124 29 208 29q223 0 223 -162q0 -121 -72.5 -186.5t-211.5 -65.5h-133l-12 -69h195l-11 -61h-195zM273 590l-46 -261h129q91 0 141 43t50 123q0 110 -149 110q-47 0 -125 -15z" />
    <glyph glyph-name="uni20B6" unicode="&#x20ca;" horiz-adv-x="649" 
d="M192 130l-23 -130h-82l23 130h-99l11 61h99l12 69h-99l12 69h99l56 316q124 29 208 29q223 0 223 -162q0 -121 -72.5 -186.5t-211.5 -65.5h-133l-12 -69h195l-11 -61h-195zM273 590l-46 -261h129q91 0 141 43t50 123q0 110 -149 110q-47 0 -125 -15z" />
    <glyph glyph-name="uni20B6" unicode="&#x20c9;" horiz-adv-x="649" 
d="M192 130l-23 -130h-82l23 130h-99l11 61h99l12 69h-99l12 69h99l56 316q124 29 208 29q223 0 223 -162q0 -121 -72.5 -186.5t-211.5 -65.5h-133l-12 -69h195l-11 -61h-195zM273 590l-46 -261h129q91 0 141 43t50 123q0 110 -149 110q-47 0 -125 -15z" />
    <glyph glyph-name="uni20B6" unicode="&#x20c8;" horiz-adv-x="649" 
d="M192 130l-23 -130h-82l23 130h-99l11 61h99l12 69h-99l12 69h99l56 316q124 29 208 29q223 0 223 -162q0 -121 -72.5 -186.5t-211.5 -65.5h-133l-12 -69h195l-11 -61h-195zM273 590l-46 -261h129q91 0 141 43t50 123q0 110 -149 110q-47 0 -125 -15z" />
    <glyph glyph-name="uni20B6" unicode="&#x20c7;" horiz-adv-x="649" 
d="M192 130l-23 -130h-82l23 130h-99l11 61h99l12 69h-99l12 69h99l56 316q124 29 208 29q223 0 223 -162q0 -121 -72.5 -186.5t-211.5 -65.5h-133l-12 -69h195l-11 -61h-195zM273 590l-46 -261h129q91 0 141 43t50 123q0 110 -149 110q-47 0 -125 -15z" />
    <glyph glyph-name="uni20B6" unicode="&#x20c6;" horiz-adv-x="649" 
d="M192 130l-23 -130h-82l23 130h-99l11 61h99l12 69h-99l12 69h99l56 316q124 29 208 29q223 0 223 -162q0 -121 -72.5 -186.5t-211.5 -65.5h-133l-12 -69h195l-11 -61h-195zM273 590l-46 -261h129q91 0 141 43t50 123q0 110 -149 110q-47 0 -125 -15z" />
    <glyph glyph-name="uni20B6" unicode="&#x20c5;" horiz-adv-x="649" 
d="M192 130l-23 -130h-82l23 130h-99l11 61h99l12 69h-99l12 69h99l56 316q124 29 208 29q223 0 223 -162q0 -121 -72.5 -186.5t-211.5 -65.5h-133l-12 -69h195l-11 -61h-195zM273 590l-46 -261h129q91 0 141 43t50 123q0 110 -149 110q-47 0 -125 -15z" />
    <glyph glyph-name="uni20B6" unicode="&#x20c4;" horiz-adv-x="649" 
d="M192 130l-23 -130h-82l23 130h-99l11 61h99l12 69h-99l12 69h99l56 316q124 29 208 29q223 0 223 -162q0 -121 -72.5 -186.5t-211.5 -65.5h-133l-12 -69h195l-11 -61h-195zM273 590l-46 -261h129q91 0 141 43t50 123q0 110 -149 110q-47 0 -125 -15z" />
    <glyph glyph-name="uni20B6" unicode="&#x20c3;" horiz-adv-x="649" 
d="M192 130l-23 -130h-82l23 130h-99l11 61h99l12 69h-99l12 69h99l56 316q124 29 208 29q223 0 223 -162q0 -121 -72.5 -186.5t-211.5 -65.5h-133l-12 -69h195l-11 -61h-195zM273 590l-46 -261h129q91 0 141 43t50 123q0 110 -149 110q-47 0 -125 -15z" />
    <glyph glyph-name="uni20B6" unicode="&#x20c2;" horiz-adv-x="649" 
d="M192 130l-23 -130h-82l23 130h-99l11 61h99l12 69h-99l12 69h99l56 316q124 29 208 29q223 0 223 -162q0 -121 -72.5 -186.5t-211.5 -65.5h-133l-12 -69h195l-11 -61h-195zM273 590l-46 -261h129q91 0 141 43t50 123q0 110 -149 110q-47 0 -125 -15z" />
    <glyph glyph-name="uni20B6" unicode="&#x20c1;" horiz-adv-x="649" 
d="M192 130l-23 -130h-82l23 130h-99l11 61h99l12 69h-99l12 69h99l56 316q124 29 208 29q223 0 223 -162q0 -121 -72.5 -186.5t-211.5 -65.5h-133l-12 -69h195l-11 -61h-195zM273 590l-46 -261h129q91 0 141 43t50 123q0 110 -149 110q-47 0 -125 -15z" />
    <glyph glyph-name="uni20B6" unicode="&#x20c0;" horiz-adv-x="649" 
d="M192 130l-23 -130h-82l23 130h-99l11 61h99l12 69h-99l12 69h99l56 316q124 29 208 29q223 0 223 -162q0 -121 -72.5 -186.5t-211.5 -65.5h-133l-12 -69h195l-11 -61h-195zM273 590l-46 -261h129q91 0 141 43t50 123q0 110 -149 110q-47 0 -125 -15z" />
    <glyph glyph-name="uni20B6" unicode="&#x20bf;" horiz-adv-x="649" 
d="M192 130l-23 -130h-82l23 130h-99l11 61h99l12 69h-99l12 69h99l56 316q124 29 208 29q223 0 223 -162q0 -121 -72.5 -186.5t-211.5 -65.5h-133l-12 -69h195l-11 -61h-195zM273 590l-46 -261h129q91 0 141 43t50 123q0 110 -149 110q-47 0 -125 -15z" />
    <glyph glyph-name="uni20B6" unicode="&#x20be;" horiz-adv-x="649" 
d="M192 130l-23 -130h-82l23 130h-99l11 61h99l12 69h-99l12 69h99l56 316q124 29 208 29q223 0 223 -162q0 -121 -72.5 -186.5t-211.5 -65.5h-133l-12 -69h195l-11 -61h-195zM273 590l-46 -261h129q91 0 141 43t50 123q0 110 -149 110q-47 0 -125 -15z" />
    <glyph glyph-name="uni20B6" unicode="&#x20bd;" horiz-adv-x="649" 
d="M192 130l-23 -130h-82l23 130h-99l11 61h99l12 69h-99l12 69h99l56 316q124 29 208 29q223 0 223 -162q0 -121 -72.5 -186.5t-211.5 -65.5h-133l-12 -69h195l-11 -61h-195zM273 590l-46 -261h129q91 0 141 43t50 123q0 110 -149 110q-47 0 -125 -15z" />
    <glyph glyph-name="uni20B6" unicode="&#x20bc;" horiz-adv-x="649" 
d="M192 130l-23 -130h-82l23 130h-99l11 61h99l12 69h-99l12 69h99l56 316q124 29 208 29q223 0 223 -162q0 -121 -72.5 -186.5t-211.5 -65.5h-133l-12 -69h195l-11 -61h-195zM273 590l-46 -261h129q91 0 141 43t50 123q0 110 -149 110q-47 0 -125 -15z" />
    <glyph glyph-name="uni20B6" unicode="&#x20bb;" horiz-adv-x="649" 
d="M192 130l-23 -130h-82l23 130h-99l11 61h99l12 69h-99l12 69h99l56 316q124 29 208 29q223 0 223 -162q0 -121 -72.5 -186.5t-211.5 -65.5h-133l-12 -69h195l-11 -61h-195zM273 590l-46 -261h129q91 0 141 43t50 123q0 110 -149 110q-47 0 -125 -15z" />
    <glyph glyph-name="uni20B6" unicode="&#x20ba;" horiz-adv-x="649" 
d="M192 130l-23 -130h-82l23 130h-99l11 61h99l12 69h-99l12 69h99l56 316q124 29 208 29q223 0 223 -162q0 -121 -72.5 -186.5t-211.5 -65.5h-133l-12 -69h195l-11 -61h-195zM273 590l-46 -261h129q91 0 141 43t50 123q0 110 -149 110q-47 0 -125 -15z" />
    <glyph glyph-name="uni20B6" unicode="&#x20b9;" horiz-adv-x="649" 
d="M192 130l-23 -130h-82l23 130h-99l11 61h99l12 69h-99l12 69h99l56 316q124 29 208 29q223 0 223 -162q0 -121 -72.5 -186.5t-211.5 -65.5h-133l-12 -69h195l-11 -61h-195zM273 590l-46 -261h129q91 0 141 43t50 123q0 110 -149 110q-47 0 -125 -15z" />
    <glyph glyph-name="uni20B6" unicode="&#x20b7;" horiz-adv-x="649" 
d="M192 130l-23 -130h-82l23 130h-99l11 61h99l12 69h-99l12 69h99l56 316q124 29 208 29q223 0 223 -162q0 -121 -72.5 -186.5t-211.5 -65.5h-133l-12 -69h195l-11 -61h-195zM273 590l-46 -261h129q91 0 141 43t50 123q0 110 -149 110q-47 0 -125 -15z" />
    <glyph glyph-name="afii61352" unicode="&#x2116;" horiz-adv-x="1148" 
d="M1052 199l-10 -57h-336l10 57h336zM1116 486q-29 -188 -214 -188q-160 0 -160 141q0 27 4 47q27 188 213 188q160 0 160 -143q0 -21 -3 -45zM815 486q-3 -21 -3 -38q0 -93 99 -93q116 0 136 131q3 20 3 36q0 95 -100 95q-116 0 -135 -131zM603 700h86l-123 -700h-108
l-212 506q-24 60 -34 92q-6 -68 -13 -102l-87 -496h-86l123 700h108l212 -505q25 -54 34 -92q6 68 13 102z" />
    <glyph glyph-name="trademark" unicode="&#x2122;" horiz-adv-x="1014" 
d="M483 700l-8 -50h-130l-59 -335h-60l59 335h-130l8 50h320zM706 401q25 48 30 56l136 243h76l-40 -385h-59l27 231l12 80q-15 -32 -41 -79l-130 -232h-50l-49 232q-5 18 -8 40l-6 39q-8 -54 -15 -80l-54 -231h-58l93 385h75l52 -243q1 -1 9 -56z" />
    <glyph glyph-name="partialdiff" unicode="&#x2202;" horiz-adv-x="604" 
d="M464 465q-7 143 -98 274l68 39q113 -163 113 -361q0 -81 -10 -137q-53 -294 -300 -294q-104 0 -157 47.5t-53 138.5q0 36 5 74q19 129 84.5 194.5t185.5 65.5q72 0 162 -41zM112 246q-4 -21 -4 -64q0 -132 138 -132q168 0 209 225q9 54 10 122q-79 45 -168 45
q-87 0 -128 -46.5t-57 -149.5z" />
    <glyph glyph-name="product" unicode="&#x220f;" horiz-adv-x="800" 
d="M783 700l-12 -73h-60l-137 -777h-87l137 777h-350l-137 -777h-87l137 777h-60l12 73h644z" />
    <glyph glyph-name="summation" unicode="&#x2211;" horiz-adv-x="608" 
d="M600 700l-12 -73h-382l185 -352l-305 -352h397l-12 -73h-507l12 73l313 361l-181 343l12 73h480z" />
    <glyph glyph-name="minus" unicode="&#x2212;" horiz-adv-x="578" 
d="M61 302v64h436v-64h-436z" />
    <glyph glyph-name="uni2215" unicode="&#x2215;" horiz-adv-x="399" 
d="M355 700h85l-493 -870h-85z" />
    <glyph glyph-name="radical" unicode="&#x221a;" horiz-adv-x="612" 
d="M627 660l-12 -68h-74l-208 -608h-92l-145 392h-53l12 68h112l83 -230l40 -121l43 135l146 432h148z" />
    <glyph glyph-name="infinity" unicode="&#x221e;" horiz-adv-x="976" 
d="M396 272l43 61l-23 61q-23 61 -49.5 83.5t-74.5 22.5q-62 0 -95.5 -40t-48.5 -127q-5 -33 -5 -61q0 -106 100 -106q47 0 77 21q31 21 76 85zM582 394l-43 -61l23 -61q23 -61 49.5 -83.5t74.5 -22.5q62 0 95.5 40t48.5 127q5 33 5 61q0 106 -100 106q-47 0 -78 -21
t-75 -85zM496 229l-17 42l-27 -42q-42 -64 -92.5 -95.5t-125.5 -31.5q-81 0 -124.5 42.5t-43.5 122.5q0 31 5 66q35 231 231 231q77 0 116 -33t64 -94l17 -42l27 42q42 64 92.5 95.5t125.5 31.5q81 0 124.5 -42.5t43.5 -122.5q0 -31 -5 -66q-35 -231 -231 -231
q-77 0 -116 33t-64 94z" />
    <glyph glyph-name="integral" unicode="&#x222b;" horiz-adv-x="357" 
d="M189 286l21 -81q26 -104 26 -148q0 -35 -4 -56q-18 -105 -77 -155t-166 -50l10 68q70 0 102 31.5t45 106.5q3 15 3 45q0 56 -22 137l-21 81q-26 104 -26 148q0 35 4 56q18 105 77 155t166 50l-10 -68q-70 0 -102 -31.5t-45 -106.5q-3 -15 -3 -45q0 -56 22 -137z" />
    <glyph glyph-name="approxequal" unicode="&#x2248;" horiz-adv-x="578" 
d="M294 469q54 -26 94 -26q30 0 51 12t41 42l28 -56q-53 -62 -120 -62q-47 0 -124 31q-54 26 -94 26q-30 0 -51 -12t-41 -42l-28 56q53 62 120 62q47 0 124 -31zM294 259q54 -26 94 -26q30 0 51 12t41 42l28 -56q-53 -62 -120 -62q-47 0 -124 31q-54 26 -94 26
q-30 0 -51 -12t-41 -42l-28 56q53 62 120 62q47 0 124 -31z" />
    <glyph glyph-name="notequal" unicode="&#x2260;" horiz-adv-x="578" 
d="M61 407v64h233l59 176h64l-59 -176h139v-64h-161l-49 -146h210v-64h-232l-60 -176h-64l60 176h-140v64h161l50 146h-211z" />
    <glyph glyph-name="lessequal" unicode="&#x2264;" horiz-adv-x="578" 
d="M61 253l436 -123v-66l-436 123v66zM497 530l-356 -94l356 -94v-68l-436 123v78l436 123v-68z" />
    <glyph glyph-name="greaterequal" unicode="&#x2265;" horiz-adv-x="578" 
d="M497 187l-436 -123v66l436 123v-66zM61 274v68l356 94l-356 94v68l436 -123v-78z" />
    <glyph glyph-name="lozenge" unicode="&#x25ca;" horiz-adv-x="632" 
d="M316 724l262 -396l-262 -396h-20l-262 396l262 396h20zM115 328l191 -289l191 289l-191 289z" />
    <glyph glyph-name="uniF400" unicode="&#xf400;" horiz-adv-x="0" 
d="M-341 588l130 174h88l-153 -174h-65z" />
    <glyph glyph-name="uniF401" unicode="&#xf401;" horiz-adv-x="0" 
d="M-394 740l130 174h94l-153 -174h-71z" />
    <glyph glyph-name="uniF408" unicode="&#xf408;" horiz-adv-x="500" 
d="M160 740h-67l136 174h104l74 -174h-63l-70 125z" />
    <glyph glyph-name="uniF40C" unicode="&#xf40c;" horiz-adv-x="500" 
d="M365 829q-16 -112 -130 -112q-98 0 -98 84q0 14 2 28q16 112 129 112q99 0 99 -86q0 -2 -2 -26zM190 829q0 -3 -0.5 -7t-1 -6.5t-0.5 -5v-3.5q0 -46 53 -46q62 0 73 68q2 18 2 20q0 48 -54 48q-32 0 -49.5 -16t-22.5 -52z" />
    <glyph glyph-name="uniF40D" unicode="&#xf40d;" horiz-adv-x="500" 
d="M428 889l27 -51q-37 -38 -64 -52.5t-62 -14.5q-44 0 -94 29q-44 24 -70 24t-45.5 -12t-44.5 -42l-27 51q37 37 63.5 52t62.5 15q44 0 94 -29q43 -22 70.5 -23t43.5 10t46 43z" />
    <glyph glyph-name="uniF6BA" unicode="&#xf6ba;" horiz-adv-x="478" 
d="M380 297l-13 -70h-302l13 70h302z" />
    <glyph glyph-name="uniF6BB" unicode="&#xf6bb;" horiz-adv-x="671" 
d="M573 292l-11 -60h-495l11 60h495z" />
    <glyph glyph-name="uniF6BC" unicode="&#xf6bc;" horiz-adv-x="851" 
d="M753 292l-11 -60h-675l11 60h675z" />
    <glyph glyph-name="uniF6C9" unicode="&#xf6c9;" horiz-adv-x="500" 
d="M156 740l130 174h94l-153 -174h-71z" />
    <glyph glyph-name="uniF6CA" unicode="&#xf6ca;" horiz-adv-x="500" 
d="M340 914h67l-136 -174h-104l-74 174h63l70 -125z" />
    <glyph glyph-name="uniF6CB" unicode="&#xf6cb;" horiz-adv-x="500" 
d="M180 891l-23 -128h-78l23 128h78zM444 891l-23 -128h-78l23 128h78z" />
    <glyph glyph-name="uniF6CE" unicode="&#xf6ce;" horiz-adv-x="500" 
d="M246 740l-90 174h83l70 -174h-63z" />
    <glyph glyph-name="uniF6D1" unicode="&#xf6d1;" horiz-adv-x="500" 
d="M234 754q-122 0 -164 93l56 39q27 -65 113 -65q85 0 135 65l56 -39q-75 -93 -196 -93z" />
    <glyph glyph-name="uniF6D4" unicode="&#xf6d4;" horiz-adv-x="500" 
d="M235 615q-114 0 -152 86l52 36q25 -60 105 -60q78 0 125 60l52 -36q-71 -86 -182 -86z" />
    <glyph glyph-name="uniF8FF" unicode="&#xf8ff;" horiz-adv-x="790" 
d="M569 788q1 -5 1 -23q0 -71 -51 -122q-53 -51 -97 -51l-14 2q-1 4 -1 19q0 58 47 111q48 52 115 64zM735 197q-55 -119 -100 -167q-44 -47 -100 -47q-28 0 -64 16q-38 16 -60 16q-25 0 -64 -16t-62 -16q-64 0 -126 86q-104 143 -104 291q0 101 59 172q58 70 160 70
q27 0 73 -17q48 -17 63 -17q14 0 60 17q48 17 74 17q104 0 175 -80q-98 -63 -98 -160q0 -114 114 -165z" />
    <glyph glyph-name="uniFEFF" unicode="&#xfeff;" horiz-adv-x="0" 
 />
    <glyph glyph-name="NULL" horiz-adv-x="0" 
 />
    <glyph glyph-name="CR" horiz-adv-x="333" 
 />
    <glyph glyph-name="afii10041.ss04" horiz-adv-x="649" 
d="M325 358q108 0 152 40q45 41 65 151l26 151h87l-27 -154q-23 -128 -89 -190t-183 -69l-50 -287h-87l50 287q-184 18 -184 199q0 35 4 60l27 154h87l-26 -151q-5 -35 -5 -66q0 -63 36.5 -94t116.5 -31z" />
    <glyph glyph-name="afii10040.ss04" horiz-adv-x="726" 
d="M317 59q105 0 155 39t69 150l79 452h87l-80 -454q-16 -90 -50 -144l99 -74l-52 -63l-101 77q-74 -56 -217 -56q-250 0 -250 190q0 38 5 70l80 454h87l-79 -452q-4 -23 -4 -63q0 -68 41.5 -97t130.5 -29z" />
    <glyph glyph-name="afii10081.ss04" horiz-adv-x="575" 
d="M496 339l-60 -339h-78l60 336q2 14 2 35q0 40 -22 58.5t-72 18.5q-53 0 -161 -44l-72 -404h-78l88 498h73l-5 -32q117 46 183 46q145 0 145 -129q0 -27 -3 -44z" />
    <glyph glyph-name="afii10090.ss04" horiz-adv-x="870" 
d="M421 498h78l-60 -336q-3 -16 -3 -36q0 -76 85 -76q51 0 147 44l72 404h78l-88 -498h-72l5 32q-104 -46 -170 -46q-86 0 -118 56q-126 -56 -191 -56q-72 0 -109 32t-37 93q0 27 4 48l60 339h78l-60 -336q-2 -14 -2 -36q0 -39 21 -57.5t69 -18.5q52 0 151 46q-1 8 -1 30
q0 15 3 33z" />
    <glyph glyph-name="afii10088.ss04" horiz-adv-x="595" 
d="M184 -14q-145 0 -145 129q0 27 3 44l60 339h78l-60 -336q-2 -14 -2 -35q0 -40 22 -58.5t72 -18.5q53 0 161 44l72 404h78l-76 -432l55 -30l-31 -176h-65l17 140l-57 31q-119 -45 -182 -45z" />
    <glyph glyph-name="afii10043.ss04" horiz-adv-x="948" 
d="M492 700h87l-112 -640q154 2 219 61q66 59 89 190l68 389h87l-68 -390q-30 -168 -124 -243q-95 -76 -286 -80q-2 -26 -2 -61q0 -49 7 -99l-92 -9q-2 56 -2 64q0 54 7 106q-157 7 -230 65.5t-73 176.5q0 45 7 80l68 390h87l-68 -389q-6 -35 -6 -71q0 -91 54 -134t171 -46z
" />
    <glyph glyph-name="afii10084.ss04" horiz-adv-x="372" 
d="M37 434l11 64h125l34 193h78l-34 -193h125l-11 -64h-125l-77 -434h-78l77 434h-125z" />
    <glyph glyph-name="afii10042.ss04" horiz-adv-x="948" 
d="M492 700h87l-112 -640q154 2 219 61q66 59 89 190l68 389h87l-68 -390q-31 -175 -132 -250q-101 -74 -311 -74q-183 0 -267.5 59t-84.5 185q0 45 7 80l68 390h87l-68 -389q-6 -35 -6 -71q0 -91 54 -134t171 -46z" />
    <glyph glyph-name="afii10091.ss04" horiz-adv-x="890" 
d="M701 -140l17 140l-57 31q-102 -45 -168 -45q-86 0 -118 56q-126 -56 -191 -56q-72 0 -109 32t-37 93q0 27 4 48l60 339h78l-60 -336q-2 -14 -2 -36q0 -39 21 -57.5t69 -18.5q52 0 151 46q-1 8 -1 30q0 15 3 33l60 339h78l-60 -336q-3 -16 -3 -36q0 -76 85 -76
q51 0 147 44l72 404h78l-76 -432l55 -30l-31 -176h-65z" />
    <glyph glyph-name="cyracute" horiz-adv-x="500" 
d="M141 588l130 174h88l-153 -174h-65z" />
    <glyph glyph-name="nbspace" horiz-adv-x="230" 
 />
    <glyph glyph-name="afii10073.ss04" horiz-adv-x="505" 
d="M397 -14q-8 -43 -24.5 -76t-48 -62.5t-86.5 -45.5t-130 -16q-84 0 -191 27l24 73q89 -36 176 -36q96 0 142.5 34t56.5 105q3 18 3 35q0 106 -163 106q-52 0 -99 -3l12 68q60 -2 104 -2q160 0 179 127q2 14 2 28q0 100 -134 100q-69 0 -168 -28l-1 71q113 21 174 21
q209 0 209 -143q0 -20 -3 -44q-20 -125 -112 -164q82 -36 82 -132q0 -23 -4 -43z" />
    <glyph glyph-name="afii10074.ss04" horiz-adv-x="575" 
d="M42 159l60 339h78l-60 -336q-2 -14 -2 -35q0 -40 22 -58.5t72 -18.5q53 0 161 44l72 404h78l-88 -498h-73l5 32q-117 -46 -183 -46q-145 0 -145 129q0 27 3 44z" />
    <glyph glyph-name="afii10098.ss04" horiz-adv-x="238" 
d="M181 475l-48 -273q-53 -291 -176 -416l-58 38q56 54 93 143t63 236l48 273q24 140 83 205.5t166 69.5h11l29 120h57l-33 -187q-19 1 -62 1q-73 0 -113 -47.5t-60 -162.5z" />
    <glyph glyph-name="afii10058.ss04" horiz-adv-x="1039" 
d="M355 700h100l67 -298q126 24 208 24q119 0 182.5 -43.5t63.5 -128.5q0 -30 -3 -48q-34 -220 -309 -220q-65 0 -144 14l-131 599l-343 -599h-97zM539 328l60 -264q42 -5 73 -5q188 0 211 147q2 16 2 33q0 114 -169 114q-74 0 -177 -25z" />
    <glyph glyph-name="afii10069.ss04.alt" horiz-adv-x="604" 
d="M464 465q-7 143 -98 274l68 39q113 -163 113 -361q0 -81 -10 -137q-53 -294 -300 -294q-104 0 -157 47.5t-53 138.5q0 36 5 74q19 129 84.5 194.5t185.5 65.5q72 0 162 -41zM112 246q-4 -21 -4 -64q0 -132 138 -132q168 0 209 225q9 54 10 122q-79 45 -168 45
q-87 0 -128 -46.5t-57 -149.5z" />
    <glyph glyph-name="afii10069.ss04" horiz-adv-x="580" 
d="M445 467l48 273h78l-131 -740h-73l6 32q-102 -46 -175 -46q-174 0 -174 173q0 44 7 90q21 138 81 200.5t164 62.5q79 0 169 -45zM379 94l54 310q-91 44 -151 44q-76 0 -116 -45t-55 -154q-6 -47 -6 -78q0 -64 29 -93q69 -64 245 16z" />
    <glyph glyph-name="afii10068_afii10103.ss04_" horiz-adv-x="469" 
d="M417 498l-88 -498h-78l88 498h78zM179 468l-46 -266q-49 -288 -176 -416l-58 38q56 54 93 143t63 236l47 266q25 147 86 212q61 66 179 70l67 2l-11 -70q-19 1 -58 1q-82 0 -124 -48q-41 -47 -62 -168z" />
    <glyph glyph-name="afii10068_afii10076.ss04_ss04" horiz-adv-x="767" 
d="M184 495l-51 -293q-49 -288 -176 -416l-58 38q55 52 93 141t63 238l51 293q46 258 253 258q26 0 108 -5l-132 -749h-78l121 689q-9 1 -31 1q-69 0 -106 -43q-38 -44 -57 -152zM508 261l181 -256l-90 -10l-186 271l234 232h107z" />
    <glyph glyph-name="afii10046.ss04" horiz-adv-x="540" 
d="M31 0l11 66h393l-11 -66h-393zM299 472q-53 0 -114 -14l-34 -192q59 -14 115 -14q129 0 146 110q2 14 2 26q0 84 -115 84zM150 700h78l-31 -176q63 12 114 12q93 0 138.5 -37t45.5 -100q0 -16 -3 -37q-26 -174 -233 -174q-84 0 -195 29z" />
    <glyph glyph-name="t.ss04" horiz-adv-x="368" 
d="M20 434l11 64h125l34 193h78l-34 -193h125l-11 -64h-125l-77 -434h-78l77 434h-125z" />
    <glyph glyph-name="afii10068.ss04.alt" horiz-adv-x="384" 
d="M399 509l-12 -70q-43 3 -74 3q-71 0 -145 -18l-75 -424h-78l85 478q102 34 209 34q53 0 90 -3z" />
    <glyph glyph-name="afii10068.ss04" horiz-adv-x="238" 
d="M55 203l48 273q24 140 83 205.5t166 69.5l75 3l-11 -70q-19 1 -62 1q-73 0 -113 -47.5t-60 -162.5l-48 -273q-49 -288 -176 -416l-58 38q57 55 94 143q39 91 62 236z" />
    <glyph glyph-name="afii10067.ss04" horiz-adv-x="600" 
d="M523 200q-31 -214 -273 -214q-108 0 -232 34l90 512q39 222 250 222q96 0 143.5 -40t47.5 -112q0 -20 -3 -44q-14 -114 -108 -166q44 -18 67 -55.5t23 -86.5q0 -13 -5 -50zM467 555q2 16 2 33q0 48 -31 75t-90 27q-68 0 -107.5 -38.5t-54.5 -121.5l-20 -111h140
q142 0 161 136zM444 203q3 21 3 38q0 114 -144 114h-148l-51 -287q66 -18 154 -18q162 0 186 153z" />
    <glyph glyph-name="cyrAcute" horiz-adv-x="500" 
d="M138 740l130 174h94l-153 -174h-71z" />
    <glyph glyph-name="afii10098.ss04.alt" horiz-adv-x="384" 
d="M358 615h61l-32 -176q-43 3 -74 3q-71 0 -145 -18l-75 -424h-78l85 478q102 34 209 34h24z" />
    <glyph glyph-name="a.ss04" horiz-adv-x="580" 
d="M379 94l54 310q-93 44 -151 44q-74 0 -114 -45t-57 -154q-6 -34 -6 -76q0 -65 29.5 -94t90.5 -29q55 0 154 44zM528 498l-88 -498h-72l6 32q-104 -46 -179 -46q-86 0 -128.5 42t-42.5 133q0 43 7 88q21 139 80.5 201t163.5 62q78 0 171 -46l6 32h76z" />
    <glyph glyph-name="afii10100.ss04" horiz-adv-x="384" 
d="M399 509l-12 -70q-43 3 -74 3q-71 0 -145 -18l-75 -424h-78l85 478q102 34 209 34q53 0 90 -3zM196 588l130 174h88l-153 -174h-65z" />
    <glyph glyph-name="afii10193.ss04" horiz-adv-x="575" 
d="M158 -180l23 130h78l-23 -130h-78zM42 159l60 339h78l-60 -336q-2 -14 -2 -35q0 -40 22 -58.5t72 -18.5q53 0 161 44l72 404h78l-88 -498h-73l5 32q-117 -46 -183 -46q-145 0 -145 129q0 27 3 44z" />
    <glyph glyph-name="afii10106.ss04" horiz-adv-x="809" 
d="M545 270q-60 0 -151 -22l48 -193q35 -5 70 -5q129 0 146 110q2 14 2 26q0 84 -115 84zM246 498h86l46 -189q110 25 179 25q93 0 138.5 -37t45.5 -100q0 -16 -3 -37q-26 -174 -233 -174q-59 0 -135 15l-95 404l-237 -405h-89z" />
    <glyph glyph-name="afii10065.ss04" horiz-adv-x="580" 
d="M379 94l54 310q-93 44 -151 44q-74 0 -114 -45t-57 -154q-6 -34 -6 -76q0 -65 29.5 -94t90.5 -29q55 0 154 44zM528 498l-88 -498h-72l6 32q-104 -46 -179 -46q-86 0 -128.5 42t-42.5 133q0 43 7 88q21 139 80.5 201t163.5 62q78 0 171 -46l6 32h76z" />
    <glyph glyph-name="afii10145.ss04" horiz-adv-x="726" 
d="M317 59q105 0 155 39t69 150l79 452h87l-80 -454q-24 -134 -92 -194q-68 -59 -194 -65l-22 -137h-88l26 138q-201 16 -201 188q0 38 5 70l80 454h87l-79 -452q-4 -23 -4 -63q0 -68 41.5 -97t130.5 -29z" />
    <glyph glyph-name="afii10021.ss04" horiz-adv-x="723" 
d="M30 16l117 668q116 30 221 30q309 0 309 -257q0 -51 -8 -107q-27 -176 -123 -271q-96 -93 -287 -93q-121 0 -229 30zM224 626l-97 -552q61 -15 142 -15q141 0 214.5 70.5t95.5 220.5q7 46 7 93q0 198 -230 198q-69 0 -132 -15z" />
    <glyph glyph-name="afii10021.ss04.alt" horiz-adv-x="724" 
d="M407 607l-298 -534h408zM-74 -130l36 203h51l356 627h106l134 -627h52l-36 -203h-77l15 130h-530l-31 -130h-76z" />
    <glyph glyph-name="afii10059.ss04" horiz-adv-x="1075" 
d="M626 338l-47 -263q71 -16 130 -16q189 0 211 147q2 16 2 33q0 114 -169 114q-57 0 -127 -15zM447 26l-201 480q-24 60 -34 92q-6 -68 -13 -102l-87 -496h-86l123 700h108l212 -505q25 -54 34 -92q6 68 13 102l87 495h86l-50 -286q78 12 128 12q119 0 182.5 -43.5
t63.5 -128.5q0 -30 -3 -48q-34 -220 -309 -220q-116 0 -254 40z" />
    <glyph glyph-name="afii10109.ss04" horiz-adv-x="526" 
d="M145 740h78l-130 -740h-78zM266 261l181 -256l-90 -10l-186 271l234 232h107zM243 588l130 174h88l-153 -174h-65z" />
    <glyph glyph-name="afii10044.ss04" horiz-adv-x="623" 
d="M27 0l11 66h480l-11 -66h-480zM382 472q-53 0 -114 -14l-34 -192q59 -14 115 -14q129 0 146 110q2 14 2 26q0 84 -115 84zM147 217l74 419h-149l12 64h227l-31 -176q63 12 114 12q93 0 138.5 -37t45.5 -100q0 -16 -3 -37q-25 -174 -233 -174q-84 0 -195 29z" />
    <glyph glyph-name="afii10029.ss04" horiz-adv-x="686" 
d="M-51 0l406 700h100l158 -700h-93l-131 599l-343 -599h-97z" />
    <glyph glyph-name="afii10031.ss04" horiz-adv-x="716" 
d="M603 700h86l-123 -700h-108l-212 506q-24 60 -34 92q-6 -68 -13 -102l-87 -496h-86l123 700h108l212 -505q25 -54 34 -92q6 68 13 102z" />
    <glyph glyph-name="afii10075.ss04" horiz-adv-x="575" 
d="M42 159l60 339h78l-60 -336q-2 -14 -2 -35q0 -40 22 -58.5t72 -18.5q53 0 161 44l72 404h78l-88 -498h-73l5 32q-117 -46 -183 -46q-145 0 -145 129q0 27 3 44zM324 615q-114 0 -152 86l52 36q26 -60 105 -60t125 60l52 -36q-71 -86 -182 -86z" />
    <glyph glyph-name="afii10076.ss04" horiz-adv-x="526" 
d="M145 740h78l-130 -740h-78zM266 261l181 -256l-90 -10l-186 271l234 232h107z" />
    <glyph glyph-name="afii10077.ss04" horiz-adv-x="528" 
d="M455 0h-85l-95 405l-237 -405h-89l297 498h86z" />
    <glyph glyph-name="afii10037.ss04" horiz-adv-x="651" 
d="M165 700l159 -349l282 349h106l-358 -436l-46 -264h-87l46 264l-204 436h102z" />
    <glyph glyph-name="lslash.ss02" horiz-adv-x="539" 
d="M138 73h330l-13 -73h-417l60 345l-83 -24l14 77l83 24l49 278h87l-44 -251l169 49l-14 -77l-169 -49z" />
    <glyph glyph-name="scaron.ss02" horiz-adv-x="583" 
d="M243 59q84 1 130.5 37t46.5 108q0 86 -119 109l-34 6q-186 31 -186 168q0 107 71 167t193 60q80 0 213 -29l-25 -83q-119 39 -198 39q-75 -1 -119 -36.5t-44 -101.5q0 -85 119 -108l35 -6q185 -35 185 -171q0 -112 -74.5 -172t-204.5 -60q-100 0 -242 35l27 87
q53 -23 120 -37q65 -12 106 -12zM467 914h67l-136 -174h-104l-74 174h63l70 -125z" />
    <glyph glyph-name="yacute.ss02" horiz-adv-x="651" 
d="M164 700l159 -349l282 349h106l-358 -436l-46 -264h-87l46 264l-204 436h102zM319 740l130 174h94l-153 -174h-71z" />
    <glyph glyph-name="thorn.ss02" horiz-adv-x="615" 
d="M200 492l-48 -273q73 -14 135 -14q178 0 199 151q2 18 2 36q0 115 -156 115q-57 0 -132 -15zM149 700h87l-24 -134q90 14 133 14q234 0 234 -173q0 -31 -3 -51q-32 -224 -298 -224q-60 0 -139 14l-26 -146h-87z" />
    <glyph glyph-name="thorn.ss01" horiz-adv-x="579" 
d="M170 431l-64 -364q70 -17 140 -17q83 0 127.5 49.5t59.5 149.5q5 35 5 66q0 133 -133 133q-64 0 -135 -17zM144 740h78l-43 -241q66 13 136 13q204 0 204 -183q0 -38 -6 -80q-18 -113 -73 -183q-41 -57 -139.5 -74t-206.5 9l-37 -201h-77z" />
    <glyph glyph-name="zcaron.ss02" horiz-adv-x="608" 
d="M110 73h400l-13 -73h-507l12 73l480 554h-374l13 73h482l-13 -73zM480 914h67l-136 -174h-104l-74 174h63l70 -125z" />
    <glyph glyph-name="at.ss01" horiz-adv-x="1028" 
d="M481 234q-71 0 -100.5 -22.5t-35.5 -69.5q-2 -24 -2 -27q0 -65 111 -65q62 0 118 6l29 162q-65 16 -120 16zM699 334l-46 -265q95 22 145.5 74t67.5 146q8 48 8 102q0 260 -317 260q-94 0 -160 -19t-120 -63q-108 -87 -142 -320q-11 -77 -11 -141q0 -137 75.5 -199
t236.5 -62q148 0 288 34l3 -62q-181 -35 -300 -35q-187 0 -280 76.5t-93 242.5q0 64 11 146q37 263 171 368q125 97 331 97q375 0 375 -310q0 -60 -9 -115q-29 -171 -142 -237q-114 -66 -348 -66q-180 0 -180 118q0 20 2 38q11 71 60 113q50 43 165 43q48 0 123 -14l8 48
q3 21 3 39q0 77 -98 77q-63 0 -165 -33l-2 71q122 26 179 26q165 0 165 -130q0 -23 -4 -48z" />
    <glyph glyph-name="b.ss02" horiz-adv-x="671" 
d="M593 235q0 -249 -309 -249q-126 0 -254 30l117 668q129 30 233 30q229 0 229 -141q0 -153 -114 -205q98 -35 98 -133zM224 626l-40 -227h147q190 0 190 148q0 94 -154 94q-61 0 -143 -15zM500 193q2 14 2 31q0 103 -170 103h-161l-44 -253q85 -15 165 -15
q100 0 147.5 33.5t60.5 100.5z" />
    <glyph glyph-name="c.ss02" horiz-adv-x="624" 
d="M55 350q54 364 367 364q70 0 197 -23l-25 -83q-111 33 -181 33q-118 0 -182.5 -71t-85.5 -220q-8 -56 -8 -105q0 -186 188 -186q73 0 192 33l1 -80q-127 -26 -205 -26q-129 0 -197.5 62.5t-68.5 189.5q0 56 8 112z" />
    <glyph glyph-name="d.ss02" horiz-adv-x="723" 
d="M30 16l117 668q116 30 221 30q309 0 309 -257q0 -51 -8 -107q-27 -176 -123 -271q-96 -93 -287 -93q-121 0 -229 30zM224 626l-97 -552q61 -15 142 -15q141 0 214.5 70.5t95.5 220.5q7 46 7 93q0 198 -230 198q-69 0 -132 -15z" />
    <glyph glyph-name="f.ss02" horiz-adv-x="556" 
d="M165 299l-52 -299h-87l123 700h424l-13 -73h-337l-45 -255h308l-13 -73h-308z" />
    <glyph glyph-name="g.ss02" horiz-adv-x="702" 
d="M313 -14q-133 0 -200 65t-67 186q0 50 9 113q52 364 369 364q94 0 225 -27l-25 -82q-112 36 -210 36q-115 0 -181.5 -71t-87.5 -220q-8 -69 -8 -105q0 -186 187 -186q74 0 163 24l46 261h87l-57 -324q-140 -34 -250 -34z" />
    <glyph glyph-name="h.ss02" horiz-adv-x="710" 
d="M683 700l-123 -700h-87l56 318h-360l-56 -318h-87l123 700h87l-54 -309h360l54 309h87z" />
    <glyph glyph-name="i.ss02" horiz-adv-x="263" 
d="M113 0h-87l123 700h87z" />
    <glyph glyph-name="j.ss02" horiz-adv-x="466" 
d="M65 -14q-52 0 -103 6l22 78q50 -12 89 -12q92 0 140 42q49 42 69 155l78 445h87l-79 -448q-24 -138 -94.5 -202t-208.5 -64z" />
    <glyph glyph-name="k.ss02" horiz-adv-x="657" 
d="M482 -10l-273 369l338 341h117l-347 -345l258 -343zM149 700h87l-123 -700h-87z" />
    <glyph glyph-name="l.ss02" horiz-adv-x="527" 
d="M126 73h330l-13 -73h-417l123 700h87z" />
    <glyph glyph-name="o.ss02" horiz-adv-x="736" 
d="M681 350q-54 -364 -368 -364q-114 0 -186 52q-80 58 -80 210q0 48 8 102q52 364 367 364q267 0 267 -264q0 -38 -8 -100zM591 350q8 58 8 93q0 104 -46.5 151t-141.5 47q-113 0 -178 -68.5t-88 -222.5q-8 -59 -8 -95q0 -103 46.5 -149.5t140.5 -46.5q113 0 178 68.5
t89 222.5z" />
    <glyph glyph-name="p.ss02" horiz-adv-x="615" 
d="M223 626l-48 -273q73 -14 135 -14q178 0 199 151q2 18 2 36q0 115 -156 115q-57 0 -132 -15zM113 0h-87l120 683q128 31 222 31q234 0 234 -173q0 -31 -3 -51q-32 -224 -298 -224q-60 0 -139 14z" />
    <glyph glyph-name="q.ss02" horiz-adv-x="736" 
d="M591 350q8 58 8 93q0 104 -46.5 151t-141.5 47q-113 0 -178 -68.5t-88 -222.5q-8 -59 -8 -95q0 -103 46.5 -149.5t140.5 -46.5q113 0 178 68.5t89 222.5zM681 350q-53 -346 -336 -363q-2 -34 -2 -44q0 -50 8 -116l-91 -9q-2 38 -2 72q0 56 5 99q-216 21 -216 259
q0 48 8 102q52 364 367 364q267 0 267 -264q0 -38 -8 -100z" />
    <glyph glyph-name="r.ss02" horiz-adv-x="639" 
d="M333 301h-167l-53 -301h-87l121 684q125 30 220 30q122 0 180 -43.5t58 -119.5q0 -92 -47.5 -154.5t-138.5 -80.5l120 -304l-92 -13zM224 627l-45 -253h136q199 0 199 162q0 105 -159 105q-52 0 -131 -14z" />
    <glyph glyph-name="s.ss02" horiz-adv-x="583" 
d="M243 59q84 1 130.5 37t46.5 108q0 86 -119 109l-34 6q-186 31 -186 168q0 107 71 167t193 60q80 0 213 -29l-25 -83q-119 39 -198 39q-75 -1 -119 -36.5t-44 -101.5q0 -85 119 -108l35 -6q185 -35 185 -171q0 -112 -74.5 -172t-204.5 -60q-100 0 -242 35l27 87
q53 -23 120 -37q65 -12 106 -12z" />
    <glyph glyph-name="t.ss02" horiz-adv-x="621" 
d="M660 700l-13 -73h-245l-110 -627h-87l110 627h-245l13 73h577z" />
    <glyph glyph-name="v.ss02" horiz-adv-x="686" 
d="M736 700l-406 -700h-100l-158 700h93l131 -599l343 599h97z" />
    <glyph glyph-name="w.ss02" horiz-adv-x="1022" 
d="M552 585l-49 -108l-226 -477h-100l-86 700h88l52 -498q4 -29 11 -109q32 73 50 109l236 498h84l60 -498l12 -109l49 109l228 498h92l-332 -700h-100l-58 477q-10 74 -11 108z" />
    <glyph glyph-name="x.ss02" horiz-adv-x="680" 
d="M102 700h106l140 -285l240 285h110l-299 -345l185 -355h-106l-147 295l-251 -295h-109l308 355z" />
    <glyph glyph-name="y.ss02" horiz-adv-x="651" 
d="M164 700l159 -349l282 349h106l-358 -436l-46 -264h-87l46 264l-204 436h102z" />
    <glyph glyph-name="z.ss02" horiz-adv-x="608" 
d="M110 73h400l-13 -73h-507l12 73l480 554h-374l13 73h482l-13 -73z" />
    <glyph glyph-name="a.ss01" horiz-adv-x="522" 
d="M221 234q-71 0 -100.5 -22.5t-35.5 -69.5q-2 -24 -2 -27q0 -65 111 -65q59 0 120 16l27 152q-65 16 -120 16zM353 284l8 48q3 21 3 39q0 77 -98 77q-63 0 -165 -33l-2 71q122 26 179 26q165 0 165 -130q0 -23 -4 -48l-55 -316q-116 -32 -201 -32q-180 0 -180 118
q0 20 2 38q11 71 60 113q50 43 165 43q48 0 123 -14z" />
    <glyph glyph-name="b.ss01" horiz-adv-x="580" 
d="M169 431l-64 -364q76 -17 140 -17q83 0 127.5 49.5t59.5 149.5q5 35 5 67q0 132 -133 132q-65 0 -135 -17zM146 740h78l-43 -243q68 15 133 15q204 0 204 -181q0 -39 -6 -82q-16 -111 -73 -183q-63 -80 -204 -80q-114 0 -216 34z" />
    <glyph glyph-name="d.ss01" horiz-adv-x="580" 
d="M375 67l64 364q-76 17 -139 17q-82 0 -127.5 -49.5t-60.5 -149.5q-5 -35 -5 -66q0 -133 134 -133q64 0 134 17zM451 497l43 243h78l-127 -720q-101 -34 -214 -34q-205 0 -205 183q0 38 6 80q18 111 73 182q64 81 205 81q58 0 141 -15z" />
    <glyph glyph-name="g.ss01" horiz-adv-x="580" 
d="M376 69l63 361q-76 18 -140 18q-80 0 -126 -47.5t-61 -150.5q-5 -35 -5 -66q0 -132 133 -132q60 0 136 17zM230 -12q-204 0 -204 184q0 33 6 78q20 137 89.5 199.5t187.5 62.5q91 0 217 -34l-80 -449q-5 -29 -16 -70q-17 -74 -54 -108q-65 -65 -209 -65q-84 0 -191 26
l25 72q90 -34 175 -34q99 0 136 37q39 37 52 116q-64 -15 -134 -15z" />
    <glyph glyph-name="h.ss01" horiz-adv-x="575" 
d="M146 740h78l-43 -240q66 12 125 12q93 0 141 -39t48 -114q0 -34 -4 -50l-55 -309h-78l54 306q4 20 4 44q0 98 -122 98q-66 0 -124 -15l-77 -433h-78z" />
    <glyph glyph-name="m.ss01" horiz-adv-x="870" 
d="M412 0h-78l54 306q4 21 4 48q0 94 -109 94q-59 0 -113 -15l-77 -433h-78l85 478q93 34 195 34q87 0 134 -41q102 41 182 41q89 0 134 -39t45 -112q0 -29 -4 -52l-55 -309h-78l54 306q4 21 4 45q0 97 -115 97q-60 0 -134 -30q9 -28 9 -54q0 -38 -4 -55z" />
    <glyph glyph-name="n.ss01" horiz-adv-x="575" 
d="M491 309l-55 -309h-78l54 306q4 20 4 44q0 98 -122 98q-66 0 -124 -15l-77 -433h-78l85 478q96 34 206 34q93 0 141 -39t48 -114q0 -34 -4 -50z" />
    <glyph glyph-name="p.ss01" horiz-adv-x="580" 
d="M94 1l-35 -201h-78l119 678q102 34 215 34q204 0 204 -183q0 -38 -6 -80q-18 -113 -73 -183q-41 -57 -139.5 -74t-206.5 9zM170 431l-64 -364q70 -17 140 -17q83 0 127.5 49.5t59.5 149.5q5 35 5 66q0 133 -133 133q-64 0 -135 -17z" />
    <glyph glyph-name="q.ss01" horiz-adv-x="580" 
d="M406 -200h-78l35 201q-71 -15 -132 -15q-104 0 -154.5 48t-50.5 135q0 36 6 80q18 111 73 182q64 81 205 81q110 0 215 -34zM375 68l64 362q-72 18 -139 18q-82 0 -127.5 -49.5t-60.5 -149.5q-5 -35 -5 -66q0 -133 134 -133q62 0 134 18z" />
    <glyph glyph-name="r.ss01" horiz-adv-x="341" 
d="M356 511l-11 -70q-8 1 -32 1q-71 0 -145 -18l-75 -424h-78l85 478q102 34 209 34q34 0 47 -1z" />
    <glyph glyph-name="u.ss01" horiz-adv-x="575" 
d="M48 189l55 309h78l-54 -306q-4 -20 -4 -44q0 -98 122 -98q67 0 124 15l77 433h78l-85 -478q-96 -34 -206 -34q-93 0 -141 39t-48 114q0 34 4 50z" />
    <glyph glyph-name="ccedilla.ss02" horiz-adv-x="624" 
d="M341 -13l-8 -27h8q48 0 73.5 -20.5t25.5 -56.5q0 -16 -1 -21q-17 -98 -127 -98q-43 0 -87 10l14 52q39 -14 70 -14q60 0 67 48q1 3 1 12q0 18 -13.5 29t-37.5 11q-30 0 -65 -3l24 78q-238 13 -238 251q0 66 8 112q52 364 367 364q70 0 197 -23l-25 -83q-111 33 -181 33
q-118 0 -182.5 -71t-85.5 -220q-8 -56 -8 -105q0 -186 188 -186q73 0 192 33l1 -80q-101 -22 -177 -25z" />
    <glyph glyph-name="odieresis.ss02" horiz-adv-x="736" 
d="M681 350q-54 -364 -368 -364q-114 0 -186 52q-80 58 -80 210q0 48 8 102q52 364 367 364q267 0 267 -264q0 -38 -8 -100zM591 350q8 58 8 93q0 104 -46.5 151t-141.5 47q-113 0 -178 -68.5t-88 -222.5q-8 -59 -8 -95q0 -103 46.5 -149.5t140.5 -46.5q113 0 178 68.5
t89 222.5zM372 891l-23 -128h-78l23 128h78zM636 891l-23 -128h-78l23 128h78z" />
    <glyph glyph-name="aacute.ss01" horiz-adv-x="522" 
d="M221 234q-71 0 -100.5 -22.5t-35.5 -69.5q-2 -24 -2 -27q0 -65 111 -65q59 0 120 16l27 152q-65 16 -120 16zM353 284l8 48q3 21 3 39q0 77 -98 77q-63 0 -165 -33l-2 71q122 26 179 26q165 0 165 -130q0 -23 -4 -48l-55 -316q-116 -32 -201 -32q-180 0 -180 118
q0 20 2 38q11 71 60 113q50 43 165 43q48 0 123 -14zM210 588l130 174h88l-153 -174h-65z" />
    <glyph glyph-name="agrave.ss01" horiz-adv-x="522" 
d="M221 234q-71 0 -100.5 -22.5t-35.5 -69.5q-2 -24 -2 -27q0 -65 111 -65q59 0 120 16l27 152q-65 16 -120 16zM353 284l8 48q3 21 3 39q0 77 -98 77q-63 0 -165 -33l-2 71q122 26 179 26q165 0 165 -130q0 -23 -4 -48l-55 -316q-116 -32 -201 -32q-180 0 -180 118
q0 20 2 38q11 71 60 113q50 43 165 43q48 0 123 -14zM284 588l-90 174h78l69 -174h-57z" />
    <glyph glyph-name="acircumflex.ss01" horiz-adv-x="522" 
d="M221 234q-71 0 -100.5 -22.5t-35.5 -69.5q-2 -24 -2 -27q0 -65 111 -65q59 0 120 16l27 152q-65 16 -120 16zM353 284l8 48q3 21 3 39q0 77 -98 77q-63 0 -165 -33l-2 71q122 26 179 26q165 0 165 -130q0 -23 -4 -48l-55 -316q-116 -32 -201 -32q-180 0 -180 118
q0 20 2 38q11 71 60 113q50 43 165 43q48 0 123 -14zM173 588h-62l130 174h98l68 -174h-60l-65 125z" />
    <glyph glyph-name="adieresis.ss01" horiz-adv-x="522" 
d="M221 234q-71 0 -100.5 -22.5t-35.5 -69.5q-2 -24 -2 -27q0 -65 111 -65q59 0 120 16l27 152q-65 16 -120 16zM353 284l8 48q3 21 3 39q0 77 -98 77q-63 0 -165 -33l-2 71q122 26 179 26q165 0 165 -130q0 -23 -4 -48l-55 -316q-116 -32 -201 -32q-180 0 -180 118
q0 20 2 38q11 71 60 113q50 43 165 43q48 0 123 -14zM225 740l-23 -128h-78l23 128h78zM473 740l-23 -128h-78l23 128h78z" />
    <glyph glyph-name="atilde.ss01" horiz-adv-x="522" 
d="M221 234q-71 0 -100.5 -22.5t-35.5 -69.5q-2 -24 -2 -27q0 -65 111 -65q59 0 120 16l27 152q-65 16 -120 16zM353 284l8 48q3 21 3 39q0 77 -98 77q-63 0 -165 -33l-2 71q122 26 179 26q165 0 165 -130q0 -23 -4 -48l-55 -316q-116 -32 -201 -32q-180 0 -180 118
q0 20 2 38q11 71 60 113q50 43 165 43q48 0 123 -14zM463 732l25 -48q-35 -35 -60 -48.5t-57 -13.5q-42 0 -87 27q-38 22 -65 22q-23 0 -40.5 -11t-42.5 -39l-25 48q34 35 59 48.5t58 13.5q42 0 87 -27q38 -22 64 -22q24 0 42.5 11t41.5 39z" />
    <glyph glyph-name="aring.ss01" horiz-adv-x="522" 
d="M221 234q-71 0 -100.5 -22.5t-35.5 -69.5q-2 -24 -2 -27q0 -65 111 -65q59 0 120 16l27 152q-65 16 -120 16zM353 284l8 48q3 21 3 39q0 77 -98 77q-63 0 -165 -33l-2 71q122 26 179 26q165 0 165 -130q0 -23 -4 -48l-55 -316q-116 -32 -201 -32q-180 0 -180 118
q0 20 2 38q11 71 60 113q50 43 165 43q48 0 123 -14zM411 674q-16 -112 -130 -112q-98 0 -98 84q0 14 2 28q16 112 129 112q99 0 99 -86q0 -2 -2 -26zM236 674q0 -3 -0.5 -7t-1 -6.5t-0.5 -5v-3.5q0 -46 53 -46q62 0 73 68q2 18 2 20q0 48 -54 48q-32 0 -49.5 -16t-22.5 -52
z" />
    <glyph glyph-name="ntilde.ss01" horiz-adv-x="575" 
d="M491 309l-55 -309h-78l54 306q4 20 4 44q0 98 -122 98q-66 0 -124 -15l-77 -433h-78l85 478q96 34 206 34q93 0 141 -39t48 -114q0 -34 -4 -50zM500 732l25 -48q-35 -35 -60 -48.5t-57 -13.5q-42 0 -87 27q-38 22 -65 22q-23 0 -40.5 -11t-42.5 -39l-25 48q34 35 59 48.5
t58 13.5q42 0 87 -27q38 -22 64 -22q24 0 42.5 11t41.5 39z" />
    <glyph glyph-name="uacute.ss01" horiz-adv-x="575" 
d="M48 189l55 309h78l-54 -306q-4 -20 -4 -44q0 -98 122 -98q67 0 124 15l77 433h78l-85 -478q-96 -34 -206 -34q-93 0 -141 39t-48 114q0 34 4 50zM246 588l130 174h88l-153 -174h-65z" />
    <glyph glyph-name="ugrave.ss01" horiz-adv-x="575" 
d="M48 189l55 309h78l-54 -306q-4 -20 -4 -44q0 -98 122 -98q67 0 124 15l77 433h78l-85 -478q-96 -34 -206 -34q-93 0 -141 39t-48 114q0 34 4 50zM317 588l-90 174h78l69 -174h-57z" />
    <glyph glyph-name="ucircumflex.ss01" horiz-adv-x="575" 
d="M48 189l55 309h78l-54 -306q-4 -20 -4 -44q0 -98 122 -98q67 0 124 15l77 433h78l-85 -478q-96 -34 -206 -34q-93 0 -141 39t-48 114q0 34 4 50zM232 588h-62l130 174h98l68 -174h-60l-65 125z" />
    <glyph glyph-name="udieresis.ss01" horiz-adv-x="575" 
d="M48 189l55 309h78l-54 -306q-4 -20 -4 -44q0 -98 122 -98q67 0 124 15l77 433h78l-85 -478q-96 -34 -206 -34q-93 0 -141 39t-48 114q0 34 4 50zM261 740l-23 -128h-78l23 128h78zM509 740l-23 -128h-78l23 128h78z" />
    <glyph glyph-name="oslash.ss02" horiz-adv-x="736" 
d="M591 350q8 58 8 93q0 88 -34 135l-341 -501q39 -18 100 -18q113 0 178 68.5t89 222.5zM137 255q0 -87 33 -133l340 501q-40 18 -99 18q-113 0 -178 -68.5t-88 -222.5q-8 -59 -8 -95zM607 765h85l-75 -111q72 -68 72 -204q0 -38 -8 -100q-54 -364 -368 -364q-81 0 -135 22
l-50 -73h-85l75 110q-71 65 -71 203q0 48 8 102q52 364 367 364q80 0 135 -23z" />
    <glyph glyph-name="mu.ss01" horiz-adv-x="575" 
d="M369 65l77 433h78l-85 -478q-98 -34 -200 -34q-100 0 -146 41l-37 -227h-76l123 698h78l-54 -306q-4 -20 -4 -44q0 -98 122 -98q67 0 124 15z" />
    <glyph glyph-name="ordfeminine.ss01" horiz-adv-x="485" 
d="M235 423q-63 0 -89.5 -20t-32.5 -62q-2 -22 -2 -25q0 -58 100 -58q47 0 108 14l24 137q-59 14 -108 14zM354 468l7 44q3 18 3 35q0 69 -88 69q-56 0 -149 -30l-2 64q113 24 161 24q149 0 149 -117q0 -21 -4 -44l-49 -284q-105 -29 -181 -29q-162 0 -162 106q0 19 2 35
q11 65 54 102q46 38 148 38q55 0 111 -13z" />
    <glyph glyph-name="ae.ss01" horiz-adv-x="873" 
d="M221 234q-71 0 -100.5 -22.5t-35.5 -69.5q-2 -24 -2 -27q0 -65 111 -65q59 0 120 16l27 152q-65 16 -120 16zM610 448q-140 0 -177 -153h299q1 9 1 38q0 115 -123 115zM569 50q89 0 188 28l6 -64q-108 -28 -208 -28q-125 0 -177 61l-5 -32q-108 -29 -190 -29
q-180 0 -180 118q0 20 2 38q11 71 60 113q50 43 165 43q48 0 123 -14l8 48q3 21 3 39q0 77 -98 77q-63 0 -165 -33l-2 71q122 26 179 26q120 0 152 -71q74 71 190 71q191 0 191 -178q0 -54 -6 -85l-3 -17h-380q-2 -24 -2 -49q0 -69 35.5 -101t113.5 -32z" />
    <glyph glyph-name="otilde.ss02" horiz-adv-x="736" 
d="M681 350q-54 -364 -368 -364q-114 0 -186 52q-80 58 -80 210q0 48 8 102q52 364 367 364q267 0 267 -264q0 -38 -8 -100zM591 350q8 58 8 93q0 104 -46.5 151t-141.5 47q-113 0 -178 -68.5t-88 -222.5q-8 -59 -8 -95q0 -103 46.5 -149.5t140.5 -46.5q113 0 178 68.5
t89 222.5zM620 889l27 -51q-37 -38 -64 -52.5t-62 -14.5q-44 0 -94 29q-44 24 -70 24t-45.5 -12t-44.5 -42l-27 51q37 37 63.5 52t62.5 15q44 0 94 -29q43 -22 70.5 -23t43.5 10t46 43z" />
    <glyph glyph-name="ydieresis.ss02" horiz-adv-x="651" 
d="M164 700l159 -349l282 349h106l-358 -436l-46 -264h-87l46 264l-204 436h102zM331 891l-23 -128h-78l23 128h78zM595 891l-23 -128h-78l23 128h78z" />
    <glyph glyph-name="iacute.ss02" horiz-adv-x="263" 
d="M113 0h-87l123 700h87zM139 740l130 174h94l-153 -174h-71z" />
    <glyph glyph-name="icircumflex.ss02" horiz-adv-x="263" 
d="M113 0h-87l123 700h87zM99 740h-67l136 174h104l74 -174h-63l-70 125z" />
    <glyph glyph-name="idieresis.ss02" horiz-adv-x="263" 
d="M175 891l-23 -128h-76l23 128h76zM346 891l-23 -128h-76l23 128h76zM113 0h-87l123 700h87z" />
    <glyph glyph-name="igrave.ss02" horiz-adv-x="263" 
d="M113 0h-87l123 700h87zM156 740l-90 174h83l70 -174h-63z" />
    <glyph glyph-name="oacute.ss02" horiz-adv-x="736" 
d="M681 350q-54 -364 -368 -364q-114 0 -186 52q-80 58 -80 210q0 48 8 102q52 364 367 364q267 0 267 -264q0 -38 -8 -100zM591 350q8 58 8 93q0 104 -46.5 151t-141.5 47q-113 0 -178 -68.5t-88 -222.5q-8 -59 -8 -95q0 -103 46.5 -149.5t140.5 -46.5q113 0 178 68.5
t89 222.5zM388 740l130 174h94l-153 -174h-71z" />
    <glyph glyph-name="ocircumflex.ss02" horiz-adv-x="736" 
d="M681 350q-54 -364 -368 -364q-114 0 -186 52q-80 58 -80 210q0 48 8 102q52 364 367 364q267 0 267 -264q0 -38 -8 -100zM591 350q8 58 8 93q0 104 -46.5 151t-141.5 47q-113 0 -178 -68.5t-88 -222.5q-8 -59 -8 -95q0 -103 46.5 -149.5t140.5 -46.5q113 0 178 68.5
t89 222.5zM336 740h-67l136 174h104l74 -174h-63l-70 125z" />
    <glyph glyph-name="ograve.ss02" horiz-adv-x="736" 
d="M681 350q-54 -364 -368 -364q-114 0 -186 52q-80 58 -80 210q0 48 8 102q52 364 367 364q267 0 267 -264q0 -38 -8 -100zM591 350q8 58 8 93q0 104 -46.5 151t-141.5 47q-113 0 -178 -68.5t-88 -222.5q-8 -59 -8 -95q0 -103 46.5 -149.5t140.5 -46.5q113 0 178 68.5
t89 222.5zM391 740l-90 174h83l70 -174h-63z" />
    <glyph glyph-name="afii10066.ss02" horiz-adv-x="671" 
d="M172 327l-45 -252q86 -16 162 -16q107 0 158 35.5t63 104.5q3 18 3 37q0 107 -181 107q-64 0 -160 -16zM586 627h-361l-40 -225q98 14 160 14q128 0 193.5 -43t65.5 -124q0 -30 -4 -51q-32 -212 -319 -212q-117 0 -251 30l120 684h448z" />
    <glyph glyph-name="afii10068.ss02" horiz-adv-x="534" 
d="M573 700l-13 -73h-337l-110 -627h-87l123 700h424z" />
    <glyph glyph-name="afii10072.ss02" horiz-adv-x="961" 
d="M461 0h-87l123 700h87zM788 -10l-229 369l290 341h111l-300 -343l218 -342zM121 700h97l181 -349l-345 -361l-92 25l338 352z" />
    <glyph glyph-name="afii10073.ss02" 
d="M542 569q0 -151 -116 -205q92 -36 92 -132q0 -125 -76.5 -185.5t-233.5 -60.5q-103 0 -221 26l22 81q105 -34 209 -34q209 0 209 162q0 104 -170 104q-58 0 -109 -3l13 78q68 -2 109 -2q91 0 137 35t46 115q0 93 -146 93q-73 0 -187 -29l-2 81q122 21 200 21
q224 0 224 -145z" />
    <glyph glyph-name="afii10077.ss02" horiz-adv-x="701" 
d="M675 700l-124 -700h-87l111 627h-295l-17 -95q-46 -263 -106 -386q-59 -121 -156 -164l-37 68q50 24 81 63q79 94 137 420l30 167h463z" />
    <glyph glyph-name="afii10085.ss02" horiz-adv-x="629" 
d="M589 700h98l-338 -536q-71 -113 -117 -146q-46 -32 -114 -32q-35 0 -63 5l14 75q27 -5 44 -5q45 0 76 25q32 26 78 100h-55l-152 514h96l138 -477z" />
    <glyph glyph-name="afii10086.ss02" horiz-adv-x="879" 
d="M354 101l87 498q-137 0 -207.5 -61t-88.5 -188q-6 -40 -6 -68q0 -181 215 -181zM426 28l-16 -88h-87l16 88q-144 0 -217.5 62t-73.5 182q0 28 7 78q45 322 397 322l16 88h87l-16 -88q145 0 218.5 -62.5t73.5 -183.5q0 -27 -7 -76q-46 -322 -398 -322zM524 599l-87 -498
q137 0 207.5 61t89.5 188q5 35 5 66q0 183 -215 183z" />
    <glyph glyph-name="afii10089.ss02" horiz-adv-x="648" 
d="M498 0h-87l50 282q-79 -16 -142 -16q-240 0 -240 182q0 44 4 65l33 187h87l-32 -184q-4 -20 -4 -58q0 -63 40 -91t131 -28q57 0 135 15l61 346h87z" />
    <glyph glyph-name="afii10092.ss02" horiz-adv-x="733" 
d="M283 338l-47 -263q71 -16 130 -16q188 0 211 147q2 16 2 33q0 114 -169 114q-56 0 -127 -15zM139 17l108 610h-176l12 73h263l-50 -286q78 12 128 12q119 0 182.5 -43.5t63.5 -128.5q0 -30 -3 -48q-34 -220 -309 -220q-110 0 -219 31z" />
    <glyph glyph-name="afii10093.ss02" horiz-adv-x="870" 
d="M720 0h-87l123 700h87zM173 338l-47 -263q71 -16 130 -16q188 0 211 147q2 16 2 33q0 114 -169 114q-57 0 -127 -15zM29 17l120 683h87l-50 -286q78 12 128 12q119 0 182.5 -43.5t63.5 -128.5q0 -30 -3 -48q-34 -220 -309 -220q-110 0 -219 31z" />
    <glyph glyph-name="afii10094.ss02" horiz-adv-x="623" 
d="M173 338l-47 -263q71 -16 130 -16q188 0 211 147q2 16 2 33q0 114 -169 114q-57 0 -127 -15zM29 17l120 683h87l-50 -286q78 12 128 12q119 0 182.5 -43.5t63.5 -128.5q0 -30 -3 -48q-34 -220 -309 -220q-110 0 -219 31z" />
    <glyph glyph-name="afii10095.ss02" horiz-adv-x="624" 
d="M570 350q-29 -188 -121.5 -276t-246.5 -88q-81 0 -197 26l24 80q105 -33 181 -33q112 0 175.5 62.5t87.5 192.5h-327l13 73h325q3 26 3 67q0 187 -189 187q-70 0 -190 -33l-1 83q130 23 205 23q128 0 197 -63.5t69 -191.5q0 -50 -8 -109z" />
    <glyph glyph-name="afii10096.ss02" horiz-adv-x="1036" 
d="M891 350q8 59 8 103q0 188 -182 188q-111 0 -175 -69t-85 -222q-8 -59 -8 -105q0 -186 181 -186q110 0 173.5 68.5t87.5 222.5zM236 700l-55 -312h193q62 326 354 326q261 0 261 -252q0 -51 -8 -112q-32 -212 -138 -293q-93 -71 -224 -71q-261 0 -261 251q0 51 4 78h-194
l-55 -315h-87l123 700h87z" />
    <glyph glyph-name="afii10097.ss02" horiz-adv-x="639" 
d="M335 364h132l46 263q-92 14 -136 14q-200 0 -200 -171q0 -106 158 -106zM293 291l-218 -298l-94 19l220 294q-115 34 -115 154q0 124 79.5 189t221.5 65q90 0 223 -30l-121 -684h-87l52 291h-161z" />
    <glyph glyph-name="afii10099.ss02" horiz-adv-x="811" 
d="M647 627h-271l-41 -234q89 16 141 16q246 0 246 -201q0 -44 -6 -81q-19 -118 -80 -192.5t-166 -94.5l2 73q69 15 104 67t50 146q6 36 6 79q0 67 -41 99t-134 32q-46 0 -135 -14l-56 -322h-87l110 627h-219l13 73h577z" />
    <glyph glyph-name="afii10099.ss01" horiz-adv-x="613" 
d="M412 94l33 189q4 20 4 44q0 98 -122 98q-67 0 -124 -15l-73 -410h-78l103 582h-70l10 59h70l18 99h78l-18 -99h186l-10 -59h-186l-19 -108q73 15 125 15q93 0 141 -39t48 -114q0 -29 -4 -50l-35 -194q-33 -173 -82.5 -231t-174.5 -75l3 64q84 8 118 56q35 51 59 188z" />
    <glyph glyph-name="afii10101.ss02" horiz-adv-x="624" 
d="M313 -14q-129 0 -197.5 62.5t-68.5 189.5q0 66 8 112q52 364 367 364q70 0 197 -23l-25 -83q-111 33 -181 33q-111 0 -174.5 -62t-87.5 -192h327l-13 -73h-325q-3 -39 -3 -69q0 -186 188 -186q73 0 192 33l1 -80q-127 -26 -205 -26z" />
    <glyph glyph-name="afii10106.ss02" horiz-adv-x="1062" 
d="M612 338l-47 -263q71 -16 130 -16q189 0 211 147q2 16 2 33q0 114 -169 114q-57 0 -127 -15zM468 17l107 610h-295l-17 -95q-46 -263 -106 -386q-59 -121 -156 -164l-37 68q50 24 81 63q79 94 137 420l30 167h463l-50 -286q78 12 128 12q119 0 182.5 -43.5t63.5 -128.5
q0 -30 -3 -48q-34 -220 -309 -220q-110 0 -219 31z" />
    <glyph glyph-name="afii10107.ss02" horiz-adv-x="1070" 
d="M620 338l-47 -263q71 -16 130 -16q189 0 211 147q2 16 2 33q0 114 -169 114q-57 0 -127 -15zM476 17l53 301h-360l-56 -318h-87l123 700h87l-54 -309h360l54 309h87l-50 -286q78 12 128 12q119 0 182.5 -43.5t63.5 -128.5q0 -30 -3 -48q-34 -220 -309 -220
q-110 0 -219 31z" />
    <glyph glyph-name="afii10108.ss02" horiz-adv-x="801" 
d="M647 627h-271l-41 -234q74 16 141 16q124 0 182 -46.5t58 -144.5q0 -28 -5 -56l-27 -162h-87l27 159q5 28 5 54q0 65 -40 94t-132 29q-45 0 -135 -14l-56 -322h-87l110 627h-219l13 73h577z" />
    <glyph glyph-name="afii10108.ss01" horiz-adv-x="613" 
d="M474 0h-78l50 283q4 20 4 44q0 98 -122 98q-67 0 -124 -15l-73 -410h-78l103 582h-70l10 59h70l18 99h78l-18 -99h186l-10 -59h-186l-19 -109q77 16 125 16q93 0 141 -39t48 -114q0 -29 -4 -50z" />
    <glyph glyph-name="afii10110.ss02" horiz-adv-x="629" 
d="M589 700h98l-338 -536q-71 -113 -117 -146q-46 -32 -114 -32q-35 0 -63 5l14 75q27 -5 44 -5q45 0 76 25q32 26 78 100h-55l-152 514h96l138 -477zM371 754q-122 0 -164 93l56 39q27 -65 113 -65q85 0 135 65l56 -39q-75 -93 -196 -93z" />
    <glyph glyph-name="afii10193.ss01" horiz-adv-x="575" 
d="M159 -180l23 130h78l-23 -130h-78zM48 189l55 309h78l-54 -306q-4 -20 -4 -44q0 -98 122 -98q67 0 124 15l77 433h78l-85 -478q-96 -34 -206 -34q-93 0 -141 39t-48 114q0 34 4 50z" />
    <glyph glyph-name="afii10068.ss01" horiz-adv-x="384" 
d="M399 509l-12 -70q-43 3 -74 3q-71 0 -145 -18l-75 -424h-78l85 478q102 34 209 34q53 0 90 -3z" />
    <glyph glyph-name="afii10074.ss01" horiz-adv-x="575" 
d="M48 189l55 309h78l-54 -306q-4 -20 -4 -44q0 -98 122 -98q67 0 124 15l77 433h78l-85 -478q-96 -34 -206 -34q-93 0 -141 39t-48 114q0 34 4 50z" />
    <glyph glyph-name="afii10075.ss01" horiz-adv-x="575" 
d="M48 189l55 309h78l-54 -306q-4 -20 -4 -44q0 -98 122 -98q67 0 124 15l77 433h78l-85 -478q-96 -34 -206 -34q-93 0 -141 39t-48 114q0 34 4 50zM339 615q-114 0 -152 86l52 36q25 -60 105 -60q78 0 125 60l52 -36q-71 -86 -182 -86z" />
    <glyph glyph-name="afii10088.ss01" horiz-adv-x="595" 
d="M233 -14q-93 0 -141 39t-48 114q0 34 4 50l55 309h78l-54 -306q-4 -20 -4 -44q0 -98 122 -98q67 0 124 15l77 433h78l-74 -420h61l-39 -218h-65l19 155q-95 -29 -193 -29z" />
    <glyph glyph-name="afii10090.ss01" horiz-adv-x="818" 
d="M181 498l-41 -231q-7 -38 -7 -74q0 -71 42 -105t142 -38l79 448h78l-79 -448q107 1 219 22l75 426h78l-85 -478q-191 -34 -333 -34q-113 0 -181 24q-64 23 -89.5 60.5t-25.5 98.5q0 45 8 95l42 234h78z" />
    <glyph glyph-name="afii10091.ss01" horiz-adv-x="828" 
d="M715 -140h-65l20 158q-192 -32 -321 -32q-113 0 -181 24q-64 23 -89.5 60.5t-25.5 98.5q0 45 8 95l42 234h78l-41 -231q-7 -38 -7 -74q0 -71 42 -105t142 -38l79 448h78l-79 -448q107 1 219 22l75 426h78l-74 -416h61z" />
    <glyph glyph-name="afii10067.ss02" horiz-adv-x="671" 
d="M593 235q0 -249 -309 -249q-126 0 -254 30l117 668q129 30 233 30q229 0 229 -141q0 -153 -114 -205q98 -35 98 -133zM224 626l-40 -227h147q190 0 190 148q0 94 -154 94q-61 0 -143 -15zM500 193q2 14 2 31q0 103 -170 103h-161l-44 -253q85 -15 165 -15
q100 0 147.5 33.5t60.5 100.5z" />
    <glyph glyph-name="afii10069.ss02" horiz-adv-x="741" 
d="M-63 -130l36 203h48q57 55 106 175.5t81 298.5l27 153h457l-111 -627h77l-36 -203h-76l14 130h-516l-32 -130h-75zM592 627h-290l-15 -82q-62 -329 -172 -472h379z" />
    <glyph glyph-name="afii10076.ss02" horiz-adv-x="657" 
d="M482 -10l-273 369l338 341h117l-347 -345l258 -343zM149 700h87l-123 -700h-87z" />
    <glyph glyph-name="afii10078.ss02" horiz-adv-x="902" 
d="M389 230l21 -101q44 84 55 101l270 470h110l-75 -700h-86l52 448q7 60 22 145l-78 -146l-257 -447h-68l-99 447q-13 61 -28 146q-18 -101 -28 -145l-106 -448h-86l171 700h106z" />
    <glyph glyph-name="afii10079.ss02" horiz-adv-x="710" 
d="M683 700l-123 -700h-87l56 318h-360l-56 -318h-87l123 700h87l-54 -309h360l54 309h87z" />
    <glyph glyph-name="afii10080.ss02" horiz-adv-x="736" 
d="M681 350q-54 -364 -368 -364q-114 0 -186 52q-80 58 -80 210q0 48 8 102q52 364 367 364q267 0 267 -264q0 -38 -8 -100zM591 350q8 58 8 93q0 104 -46.5 151t-141.5 47q-113 0 -178 -68.5t-88 -222.5q-8 -59 -8 -95q0 -103 46.5 -149.5t140.5 -46.5q113 0 178 68.5
t89 222.5z" />
    <glyph glyph-name="afii10082.ss02" horiz-adv-x="615" 
d="M223 626l-48 -273q73 -14 135 -14q178 0 199 151q2 18 2 36q0 115 -156 115q-57 0 -132 -15zM113 0h-87l120 683q128 31 222 31q234 0 234 -173q0 -31 -3 -51q-32 -224 -298 -224q-60 0 -139 14z" />
    <glyph glyph-name="afii10083.ss02" horiz-adv-x="624" 
d="M55 350q54 364 367 364q70 0 197 -23l-25 -83q-111 33 -181 33q-118 0 -182.5 -71t-85.5 -220q-8 -56 -8 -105q0 -186 188 -186q73 0 192 33l1 -80q-127 -26 -205 -26q-129 0 -197.5 62.5t-68.5 189.5q0 56 8 112z" />
    <glyph glyph-name="afii10084.ss02" horiz-adv-x="621" 
d="M660 700l-13 -73h-245l-110 -627h-87l110 627h-245l13 73h577z" />
    <glyph glyph-name="afii10087.ss02" horiz-adv-x="680" 
d="M102 700h106l140 -285l240 285h110l-299 -345l185 -355h-106l-147 295l-251 -295h-109l308 355z" />
    <glyph glyph-name="afii10103.ss02" horiz-adv-x="263" 
d="M113 0h-87l123 700h87z" />
    <glyph glyph-name="afii10100.ss02" horiz-adv-x="534" 
d="M573 700l-13 -73h-337l-110 -627h-87l123 700h424zM277 740l130 174h94l-153 -174h-71z" />
    <glyph glyph-name="afii10100.ss01" horiz-adv-x="384" 
d="M399 509l-12 -70q-43 3 -74 3q-71 0 -145 -18l-75 -424h-78l85 478q102 34 209 34q53 0 90 -3zM179 588l130 174h88l-153 -174h-65z" />
    <glyph glyph-name="afii10105.ss02" horiz-adv-x="466" 
d="M65 -14q-52 0 -103 6l22 78q50 -12 89 -12q92 0 140 42q49 42 69 155l78 445h87l-79 -448q-24 -138 -94.5 -202t-208.5 -64z" />
    <glyph glyph-name="afii10102.ss02" horiz-adv-x="583" 
d="M243 59q84 1 130.5 37t46.5 108q0 86 -119 109l-34 6q-186 31 -186 168q0 107 71 167t193 60q80 0 213 -29l-25 -83q-119 39 -198 39q-75 -1 -119 -36.5t-44 -101.5q0 -85 119 -108l35 -6q185 -35 185 -171q0 -112 -74.5 -172t-204.5 -60q-100 0 -242 35l27 87
q53 -23 120 -37q65 -12 106 -12z" />
    <glyph glyph-name="afii10109.ss02" horiz-adv-x="657" 
d="M482 -10l-273 369l338 341h117l-347 -345l258 -343zM149 700h87l-123 -700h-87zM296 740l130 174h94l-153 -174h-71z" />
    <glyph glyph-name="afii10065.ss01" horiz-adv-x="522" 
d="M221 234q-71 0 -100.5 -22.5t-35.5 -69.5q-2 -24 -2 -27q0 -65 111 -65q59 0 120 16l27 152q-65 16 -120 16zM353 284l8 48q3 21 3 39q0 77 -98 77q-63 0 -165 -33l-2 71q122 26 179 26q165 0 165 -130q0 -23 -4 -48l-55 -316q-116 -32 -201 -32q-180 0 -180 118
q0 20 2 38q11 71 60 113q50 43 165 43q48 0 123 -14z" />
    <glyph glyph-name="afii10081.ss01" horiz-adv-x="575" 
d="M491 309l-55 -309h-78l54 306q4 20 4 44q0 98 -122 98q-66 0 -124 -15l-77 -433h-78l85 478q96 34 206 34q93 0 141 -39t48 -114q0 -34 -4 -50z" />
    <glyph glyph-name="afii10082.ss01" horiz-adv-x="580" 
d="M94 1l-35 -201h-78l119 678q102 34 215 34q204 0 204 -183q0 -38 -6 -80q-18 -113 -73 -183q-41 -57 -139.5 -74t-206.5 9zM170 431l-64 -364q70 -17 140 -17q83 0 127.5 49.5t59.5 149.5q5 35 5 66q0 133 -133 133q-64 0 -135 -17z" />
    <glyph glyph-name="afii10104.ss02" horiz-adv-x="263" 
d="M175 891l-23 -128h-76l23 128h76zM346 891l-23 -128h-76l23 128h76zM113 0h-87l123 700h87z" />
    <glyph glyph-name="afii10098.ss01" horiz-adv-x="384" 
d="M358 615h61l-32 -176q-43 3 -74 3q-71 0 -145 -18l-75 -424h-78l85 478q102 34 209 34h24z" />
    <glyph glyph-name="afii10098.ss02" horiz-adv-x="534" 
d="M593 810l-32 -183h-337l-111 -627h-87l124 700h349l26 110h68z" />
    <glyph glyph-name="eth.ss02" horiz-adv-x="735" 
d="M28 386h79l52 298q115 30 221 30q309 0 309 -257q0 -51 -8 -107q-27 -176 -123 -271q-96 -93 -287 -93q-121 0 -229 30l52 299h-79zM312 315h-131l-42 -241q61 -15 142 -15q141 0 214.5 70.5t95.5 220.5q7 46 7 93q0 198 -230 198q-69 0 -132 -15l-42 -240h131z" />
    <glyph glyph-name="germandbls.ss02" horiz-adv-x="639" 
d="M577 543l-192 -150q175 -15 175 -157q0 -8 -5 -43q-16 -93 -74 -145q-67 -58 -217 -58q-4 0 -13.5 0.5t-27.5 1t-35 0.5l13 73q42 -2 70 -2q101 0 141 30q42 32 54 98q3 18 3 32q0 53 -38.5 77.5t-117.5 24.5h-66l10 60l230 180q-9 38 -37.5 57t-88.5 19q-76 0 -116 -36
t-55 -120l-86 -485h-87l86 483q21 122 87.5 176.5t182.5 54.5q108 0 156 -40.5t48 -130.5z" />
    <glyph glyph-name="afii10080.ss02.accented" horiz-adv-x="736" 
d="M681 350q-54 -364 -368 -364q-114 0 -186 52q-80 58 -80 210q0 48 8 102q52 364 367 364q267 0 267 -264q0 -38 -8 -100zM591 350q8 58 8 93q0 104 -46.5 151t-141.5 47q-113 0 -178 -68.5t-88 -222.5q-8 -59 -8 -95q0 -103 46.5 -149.5t140.5 -46.5q113 0 178 68.5
t89 222.5zM394 740l130 174h94l-153 -174h-71z" />
    <glyph glyph-name="afii10085.ss02.accented" horiz-adv-x="629" 
d="M589 700h98l-338 -536q-71 -113 -117 -146q-46 -32 -114 -32q-35 0 -63 5l14 75q27 -5 44 -5q45 0 76 25q32 26 78 100h-55l-152 514h96l138 -477zM322 740l130 174h94l-153 -174h-71z" />
    <glyph glyph-name="afii10093.ss02.accented" horiz-adv-x="870" 
d="M720 0h-87l123 700h87zM173 338l-47 -263q71 -16 130 -16q188 0 211 147q2 16 2 33q0 114 -169 114q-57 0 -127 -15zM29 17l120 683h87l-50 -286q78 12 128 12q119 0 182.5 -43.5t63.5 -128.5q0 -30 -3 -48q-34 -220 -309 -220q-110 0 -219 31zM422 740l130 174h94
l-153 -174h-71z" />
    <glyph glyph-name="afii10095.ss02.accented" horiz-adv-x="624" 
d="M570 350q-29 -188 -121.5 -276t-246.5 -88q-81 0 -197 26l24 80q105 -33 181 -33q112 0 175.5 62.5t87.5 192.5h-327l13 73h325q3 26 3 67q0 187 -189 187q-70 0 -190 -33l-1 83q130 23 205 23q128 0 197 -63.5t69 -191.5q0 -50 -8 -109zM276 740l130 174h94l-153 -174
h-71z" />
    <glyph glyph-name="afii10096.ss02.accented" horiz-adv-x="1036" 
d="M891 350q8 59 8 103q0 188 -182 188q-111 0 -175 -69t-85 -222q-8 -59 -8 -105q0 -186 181 -186q110 0 173.5 68.5t87.5 222.5zM236 700l-55 -312h193q62 326 354 326q261 0 261 -252q0 -51 -8 -112q-32 -212 -138 -293q-93 -71 -224 -71q-261 0 -261 251q0 51 4 78h-194
l-55 -315h-87l123 700h87zM431 740l130 174h94l-153 -174h-71z" />
    <glyph glyph-name="afii10097.ss02.accented" horiz-adv-x="639" 
d="M335 364h132l46 263q-92 14 -136 14q-200 0 -200 -171q0 -106 158 -106zM293 291l-218 -298l-94 19l220 294q-115 34 -115 154q0 124 79.5 189t221.5 65q90 0 223 -30l-121 -684h-87l52 291h-161zM342 740l130 174h94l-153 -174h-71z" />
    <glyph glyph-name="afii10065.ss01.accented" horiz-adv-x="522" 
d="M221 234q-71 0 -100.5 -22.5t-35.5 -69.5q-2 -24 -2 -27q0 -65 111 -65q59 0 120 16l27 152q-65 16 -120 16zM353 284l8 48q3 21 3 39q0 77 -98 77q-63 0 -165 -33l-2 71q122 26 179 26q165 0 165 -130q0 -23 -4 -48l-55 -316q-116 -32 -201 -32q-180 0 -180 118
q0 20 2 38q11 71 60 113q50 43 165 43q48 0 123 -14zM209 588l130 174h88l-153 -174h-65z" />
    <glyph glyph-name="afii10074.ss01.accented" horiz-adv-x="575" 
d="M48 189l55 309h78l-54 -306q-4 -20 -4 -44q0 -98 122 -98q67 0 124 15l77 433h78l-85 -478q-96 -34 -206 -34q-93 0 -141 39t-48 114q0 34 4 50zM231 588l130 174h88l-153 -174h-65z" />
    <glyph glyph-name="a.ss02" horiz-adv-x="658" 
d="M444 82l43 240q-100 23 -172 23q-114 0 -156 -44q-35 -35 -45 -99q-3 -21 -3 -41q0 -50 37.5 -76t123.5 -26q78 0 172 23zM320 418q69 0 180 -21l11 66q5 33 5 60q0 62 -34.5 90.5t-106.5 28.5q-100 0 -221 -47l-1 83q141 36 237 36q214 0 214 -177q0 -36 -5 -71
l-77 -439q-164 -41 -267 -41q-235 0 -235 165q0 30 4 51q31 216 296 216z" />
    <glyph glyph-name="e.ss02" horiz-adv-x="708" 
d="M336 59q119 0 254 41l5 -73q-143 -41 -270 -41q-146 0 -212.5 64.5t-66.5 192.5q0 50 9 107q54 364 361 364q124 0 185.5 -60.5t61.5 -188.5q0 -47 -9 -104l-3 -23h-509q-5 -55 -5 -81q0 -107 46.5 -152.5t152.5 -45.5zM405 641q-195 0 -249 -230h417q2 42 2 47
q0 183 -170 183z" />
    <glyph glyph-name="m.ss02" horiz-adv-x="1161" 
d="M562 0h-87l75 429q4 25 4 65q0 146 -174 146q-78 0 -157 -14l-110 -626h-87l120 683q121 31 250 31q124 0 188 -60q151 60 259 60q110 0 180 -50q69 -50 69 -160q0 -40 -5 -72l-76 -432h-87l75 429q5 32 5 68q0 76 -43 109.5t-133 33.5q-80 0 -203 -47q18 -41 18 -94
q0 -35 -5 -67z" />
    <glyph glyph-name="n.ss02" horiz-adv-x="734" 
d="M660 432l-76 -432h-87l75 429q4 23 4 62q0 149 -186 149q-85 0 -167 -14l-110 -626h-87l120 683q125 31 260 31q122 0 190.5 -56t68.5 -161q0 -37 -5 -65z" />
    <glyph glyph-name="aacute.ss02" horiz-adv-x="658" 
d="M444 82l43 240q-100 23 -172 23q-114 0 -156 -44q-35 -35 -45 -99q-3 -21 -3 -41q0 -50 37.5 -76t123.5 -26q78 0 172 23zM320 418q69 0 180 -21l11 66q5 33 5 60q0 62 -34.5 90.5t-106.5 28.5q-100 0 -221 -47l-1 83q141 36 237 36q214 0 214 -177q0 -36 -5 -71
l-77 -439q-164 -41 -267 -41q-235 0 -235 165q0 30 4 51q31 216 296 216zM314 740l130 174h94l-153 -174h-71z" />
    <glyph glyph-name="agrave.ss02" horiz-adv-x="658" 
d="M444 82l43 240q-100 23 -172 23q-114 0 -156 -44q-35 -35 -45 -99q-3 -21 -3 -41q0 -50 37.5 -76t123.5 -26q78 0 172 23zM320 418q69 0 180 -21l11 66q5 33 5 60q0 62 -34.5 90.5t-106.5 28.5q-100 0 -221 -47l-1 83q141 36 237 36q214 0 214 -177q0 -36 -5 -71
l-77 -439q-164 -41 -267 -41q-235 0 -235 165q0 30 4 51q31 216 296 216zM320 740l-90 174h83l70 -174h-63z" />
    <glyph glyph-name="acircumflex.ss02" horiz-adv-x="658" 
d="M444 82l43 240q-100 23 -172 23q-114 0 -156 -44q-35 -35 -45 -99q-3 -21 -3 -41q0 -50 37.5 -76t123.5 -26q78 0 172 23zM320 418q69 0 180 -21l11 66q5 33 5 60q0 62 -34.5 90.5t-106.5 28.5q-100 0 -221 -47l-1 83q141 36 237 36q214 0 214 -177q0 -36 -5 -71
l-77 -439q-164 -41 -267 -41q-235 0 -235 165q0 30 4 51q31 216 296 216zM266 740h-67l136 174h104l74 -174h-63l-70 125z" />
    <glyph glyph-name="adieresis.ss02" horiz-adv-x="658" 
d="M444 82l43 240q-100 23 -172 23q-114 0 -156 -44q-35 -35 -45 -99q-3 -21 -3 -41q0 -50 37.5 -76t123.5 -26q78 0 172 23zM320 418q69 0 180 -21l11 66q5 33 5 60q0 62 -34.5 90.5t-106.5 28.5q-100 0 -221 -47l-1 83q141 36 237 36q214 0 214 -177q0 -36 -5 -71
l-77 -439q-164 -41 -267 -41q-235 0 -235 165q0 30 4 51q31 216 296 216zM286 891l-23 -128h-78l23 128h78zM550 891l-23 -128h-78l23 128h78z" />
    <glyph glyph-name="atilde.ss02" horiz-adv-x="658" 
d="M444 82l43 240q-100 23 -172 23q-114 0 -156 -44q-35 -35 -45 -99q-3 -21 -3 -41q0 -50 37.5 -76t123.5 -26q78 0 172 23zM320 418q69 0 180 -21l11 66q5 33 5 60q0 62 -34.5 90.5t-106.5 28.5q-100 0 -221 -47l-1 83q141 36 237 36q214 0 214 -177q0 -36 -5 -71
l-77 -439q-164 -41 -267 -41q-235 0 -235 165q0 30 4 51q31 216 296 216zM544 889l27 -51q-37 -38 -64 -52.5t-62 -14.5q-44 0 -94 29q-44 24 -70 24t-45.5 -12t-44.5 -42l-27 51q37 37 63.5 52t62.5 15q44 0 94 -29q43 -22 70.5 -23t43.5 10t46 43z" />
    <glyph glyph-name="aring.ss02" horiz-adv-x="658" 
d="M444 82l43 240q-100 23 -172 23q-114 0 -156 -44q-35 -35 -45 -99q-3 -21 -3 -41q0 -50 37.5 -76t123.5 -26q78 0 172 23zM320 418q69 0 180 -21l11 66q5 33 5 60q0 62 -34.5 90.5t-106.5 28.5q-100 0 -221 -47l-1 83q141 36 237 36q214 0 214 -177q0 -36 -5 -71
l-77 -439q-164 -41 -267 -41q-235 0 -235 165q0 30 4 51q31 216 296 216zM481 829q-16 -112 -130 -112q-98 0 -98 84q0 14 2 28q16 112 129 112q99 0 99 -86q0 -2 -2 -26zM306 829q0 -3 -0.5 -7t-1 -6.5t-0.5 -5v-3.5q0 -46 53 -46q62 0 73 68q2 18 2 20q0 48 -54 48
q-32 0 -49.5 -16t-22.5 -52z" />
    <glyph glyph-name="eacute.ss02" horiz-adv-x="708" 
d="M336 59q119 0 254 41l5 -73q-143 -41 -270 -41q-146 0 -212.5 64.5t-66.5 192.5q0 50 9 107q54 364 361 364q124 0 185.5 -60.5t61.5 -188.5q0 -47 -9 -104l-3 -23h-509q-5 -55 -5 -81q0 -107 46.5 -152.5t152.5 -45.5zM405 641q-195 0 -249 -230h417q2 42 2 47
q0 183 -170 183zM378 740l130 174h94l-153 -174h-71z" />
    <glyph glyph-name="egrave.ss02" horiz-adv-x="708" 
d="M336 59q119 0 254 41l5 -73q-143 -41 -270 -41q-146 0 -212.5 64.5t-66.5 192.5q0 50 9 107q54 364 361 364q124 0 185.5 -60.5t61.5 -188.5q0 -47 -9 -104l-3 -23h-509q-5 -55 -5 -81q0 -107 46.5 -152.5t152.5 -45.5zM405 641q-195 0 -249 -230h417q2 42 2 47
q0 183 -170 183zM345 740l-90 174h83l70 -174h-63z" />
    <glyph glyph-name="ecircumflex.ss02" horiz-adv-x="708" 
d="M336 59q119 0 254 41l5 -73q-143 -41 -270 -41q-146 0 -212.5 64.5t-66.5 192.5q0 50 9 107q54 364 361 364q124 0 185.5 -60.5t61.5 -188.5q0 -47 -9 -104l-3 -23h-509q-5 -55 -5 -81q0 -107 46.5 -152.5t152.5 -45.5zM405 641q-195 0 -249 -230h417q2 42 2 47
q0 183 -170 183zM305 740h-67l136 174h104l74 -174h-63l-70 125z" />
    <glyph glyph-name="edieresis.ss02" horiz-adv-x="708" 
d="M336 59q119 0 254 41l5 -73q-143 -41 -270 -41q-146 0 -212.5 64.5t-66.5 192.5q0 50 9 107q54 364 361 364q124 0 185.5 -60.5t61.5 -188.5q0 -47 -9 -104l-3 -23h-509q-5 -55 -5 -81q0 -107 46.5 -152.5t152.5 -45.5zM405 641q-195 0 -249 -230h417q2 42 2 47
q0 183 -170 183zM362 891l-23 -128h-78l23 128h78zM626 891l-23 -128h-78l23 128h78z" />
    <glyph glyph-name="ntilde.ss02" horiz-adv-x="734" 
d="M660 432l-76 -432h-87l75 429q4 23 4 62q0 149 -186 149q-85 0 -167 -14l-110 -626h-87l120 683q125 31 260 31q122 0 190.5 -56t68.5 -161q0 -37 -5 -65zM612 889l27 -51q-37 -38 -64 -52.5t-62 -14.5q-44 0 -94 29q-44 24 -70 24t-45.5 -12t-44.5 -42l-27 51
q37 37 63.5 52t62.5 15q44 0 94 -29q43 -22 70.5 -23t43.5 10t46 43z" />
    <glyph glyph-name="uacute.ss02" horiz-adv-x="734" 
d="M73 268l76 432h87l-75 -429q-4 -23 -4 -62q0 -149 186 -149q85 0 167 14l110 626h87l-120 -683q-125 -31 -260 -31q-122 0 -190.5 56t-68.5 161q0 37 5 65zM358 740l130 174h94l-153 -174h-71z" />
    <glyph glyph-name="ugrave.ss02" horiz-adv-x="734" 
d="M73 268l76 432h87l-75 -429q-4 -23 -4 -62q0 -149 186 -149q85 0 167 14l110 626h87l-120 -683q-125 -31 -260 -31q-122 0 -190.5 56t-68.5 161q0 37 5 65zM394 740l-90 174h83l70 -174h-63z" />
    <glyph glyph-name="ucircumflex.ss02" horiz-adv-x="734" 
d="M73 268l76 432h87l-75 -429q-4 -23 -4 -62q0 -149 186 -149q85 0 167 14l110 626h87l-120 -683q-125 -31 -260 -31q-122 0 -190.5 56t-68.5 161q0 37 5 65zM351 740h-67l136 174h104l74 -174h-63l-70 125z" />
    <glyph glyph-name="udieresis.ss02" horiz-adv-x="734" 
d="M73 268l76 432h87l-75 -429q-4 -23 -4 -62q0 -149 186 -149q85 0 167 14l110 626h87l-120 -683q-125 -31 -260 -31q-122 0 -190.5 56t-68.5 161q0 37 5 65zM379 891l-23 -128h-78l23 128h78zM643 891l-23 -128h-78l23 128h78z" />
    <glyph glyph-name="ae.ss02" horiz-adv-x="1142" 
d="M444 82l43 240q-100 23 -172 23q-114 0 -156 -44q-35 -35 -45 -99q-3 -21 -3 -41q0 -50 37.5 -76t123.5 -26q78 0 172 23zM840 641q-195 0 -249 -230h417q2 42 2 47q0 183 -170 183zM771 59q119 0 254 41l5 -73q-143 -41 -270 -41q-174 0 -239 96l-10 -58
q-160 -38 -256 -38q-235 0 -235 165q0 30 4 51q31 216 296 216q69 0 180 -21l11 66q5 33 5 60q0 62 -34.5 90.5t-106.5 28.5q-100 0 -221 -47l-1 83q141 36 237 36q165 0 203 -107q92 107 258 107q124 0 185.5 -60.5t61.5 -188.5q0 -47 -9 -104l-3 -23h-509q-5 -55 -5 -81
q0 -107 46.5 -152.5t152.5 -45.5z" />
    <glyph glyph-name="oe.ss02" horiz-adv-x="1244" 
d="M591 350q8 58 8 93q0 104 -46.5 151t-141.5 47q-113 0 -178 -68.5t-88 -222.5q-8 -59 -8 -95q0 -103 46.5 -149.5t140.5 -46.5q113 0 178 68.5t89 222.5zM941 641q-195 0 -249 -230h417q2 42 2 47q0 183 -170 183zM872 59q119 0 254 41l5 -73q-143 -41 -270 -41
q-207 0 -260 137q-95 -137 -288 -137q-114 0 -186 52q-80 58 -80 210q0 48 8 102q52 364 367 364q195 0 247 -139q93 139 283 139q124 0 185.5 -60.5t61.5 -188.5q0 -47 -9 -104l-3 -23h-508q-6 -48 -6 -81q0 -107 46.5 -152.5t152.5 -45.5z" />
    <glyph glyph-name="e.ss02.alt" 
d="M115 491q0 223 281 223q78 0 193 -21l-25 -81q-104 29 -179 29q-184 0 -184 -151q0 -92 148 -92q36 0 104 2l-13 -78q-51 3 -113 3q-211 0 -211 -163q0 -103 168 -103q102 0 219 34v-81q-128 -26 -230 -26q-131 0 -190 39t-59 114q0 183 159 233q-68 36 -68 119z" />
    <glyph glyph-name="eacute.ss02.alt" 
d="M115 491q0 223 281 223q78 0 193 -21l-25 -81q-104 29 -179 29q-184 0 -184 -151q0 -92 148 -92q36 0 104 2l-13 -78q-51 3 -113 3q-211 0 -211 -163q0 -103 168 -103q102 0 219 34v-81q-128 -26 -230 -26q-131 0 -190 39t-59 114q0 183 159 233q-68 36 -68 119zM324 740
l130 174h94l-153 -174h-71z" />
    <glyph glyph-name="egrave.ss02.alt" 
d="M115 491q0 223 281 223q78 0 193 -21l-25 -81q-104 29 -179 29q-184 0 -184 -151q0 -92 148 -92q36 0 104 2l-13 -78q-51 3 -113 3q-211 0 -211 -163q0 -103 168 -103q102 0 219 34v-81q-128 -26 -230 -26q-131 0 -190 39t-59 114q0 183 159 233q-68 36 -68 119zM360 740
l-90 174h83l70 -174h-63z" />
    <glyph glyph-name="ecircumflex.ss02.alt" 
d="M115 491q0 223 281 223q78 0 193 -21l-25 -81q-104 29 -179 29q-184 0 -184 -151q0 -92 148 -92q36 0 104 2l-13 -78q-51 3 -113 3q-211 0 -211 -163q0 -103 168 -103q102 0 219 34v-81q-128 -26 -230 -26q-131 0 -190 39t-59 114q0 183 159 233q-68 36 -68 119zM316 740
h-67l136 174h104l74 -174h-63l-70 125z" />
    <glyph glyph-name="edieresis.ss02.alt" 
d="M115 491q0 223 281 223q78 0 193 -21l-25 -81q-104 29 -179 29q-184 0 -184 -151q0 -92 148 -92q36 0 104 2l-13 -78q-51 3 -113 3q-211 0 -211 -163q0 -103 168 -103q102 0 219 34v-81q-128 -26 -230 -26q-131 0 -190 39t-59 114q0 183 159 233q-68 36 -68 119zM336 891
l-23 -128h-78l23 128h78zM600 891l-23 -128h-78l23 128h78z" />
    <glyph glyph-name="u.ss02" horiz-adv-x="734" 
d="M73 268l76 432h87l-75 -429q-4 -23 -4 -62q0 -149 186 -149q85 0 167 14l110 626h87l-120 -683q-125 -31 -260 -31q-122 0 -190.5 56t-68.5 161q0 37 5 65z" />
    <glyph glyph-name="ordfeminine.ss02" horiz-adv-x="515" 
d="M333 241l27 150q-64 14 -110 14q-75 0 -100 -28q-21 -24 -28 -60q-2 -12 -2 -26q0 -65 104 -65q46 0 109 15zM252 468q47 0 119 -13l7 42q3 15 3 39q0 75 -94 75q-66 0 -153 -33l-2 70q115 26 170 26q155 0 155 -126q0 -29 -4 -50l-53 -305q-108 -29 -194 -29
q-165 0 -165 115q0 17 3 37q20 152 208 152z" />
    <glyph glyph-name="ordmasculine.ss02" horiz-adv-x="554" 
d="M144 419q-6 -36 -6 -65q0 -67 30 -97.5t91 -30.5q73 0 115 46t58 147q5 42 5 61q0 68 -30 99.5t-91 31.5q-73 0 -115 -45.5t-57 -146.5zM510 419q-22 -142 -90 -199q-68 -56 -171 -56q-93 0 -141 42.5t-48 138.5q0 33 6 74q21 141 89 198q67 57 171 57q93 0 141.5 -43.5
t48.5 -139.5q0 -33 -6 -72z" />
    <glyph glyph-name="afii10193.ss02" horiz-adv-x="734" 
d="M238 -180l23 130h86l-23 -130h-86zM73 268l76 432h87l-75 -429q-4 -23 -4 -62q0 -149 186 -149q85 0 167 14l110 626h87l-120 -683q-125 -31 -260 -31q-122 0 -190.5 56t-68.5 161q0 37 5 65z" />
    <glyph glyph-name="afii10070.ss02" horiz-adv-x="708" 
d="M336 59q119 0 254 41l5 -73q-143 -41 -270 -41q-146 0 -212.5 64.5t-66.5 192.5q0 50 9 107q54 364 361 364q124 0 185.5 -60.5t61.5 -188.5q0 -47 -9 -104l-3 -23h-509q-5 -55 -5 -81q0 -107 46.5 -152.5t152.5 -45.5zM405 641q-195 0 -249 -230h417q2 42 2 47
q0 183 -170 183z" />
    <glyph glyph-name="afii10071.ss02" horiz-adv-x="708" 
d="M336 59q119 0 254 41l5 -73q-143 -41 -270 -41q-146 0 -212.5 64.5t-66.5 192.5q0 50 9 107q54 364 361 364q124 0 185.5 -60.5t61.5 -188.5q0 -47 -9 -104l-3 -23h-509q-5 -55 -5 -81q0 -107 46.5 -152.5t152.5 -45.5zM405 641q-195 0 -249 -230h417q2 42 2 47
q0 183 -170 183zM362 891l-23 -128h-78l23 128h78zM626 891l-23 -128h-78l23 128h78z" />
    <glyph glyph-name="afii10065.ss02" horiz-adv-x="658" 
d="M444 82l43 240q-100 23 -172 23q-114 0 -156 -44q-35 -35 -45 -99q-3 -21 -3 -41q0 -50 37.5 -76t123.5 -26q78 0 172 23zM320 418q69 0 180 -21l11 66q5 33 5 60q0 62 -34.5 90.5t-106.5 28.5q-100 0 -221 -47l-1 83q141 36 237 36q214 0 214 -177q0 -36 -5 -71
l-77 -439q-164 -41 -267 -41q-235 0 -235 165q0 30 4 51q31 216 296 216z" />
    <glyph glyph-name="afii10074.ss02" horiz-adv-x="734" 
d="M73 268l76 432h87l-75 -429q-4 -23 -4 -62q0 -149 186 -149q85 0 167 14l110 626h87l-120 -683q-125 -31 -260 -31q-122 0 -190.5 56t-68.5 161q0 37 5 65z" />
    <glyph glyph-name="afii10075.ss02" horiz-adv-x="734" 
d="M73 268l76 432h87l-75 -429q-4 -23 -4 -62q0 -149 186 -149q85 0 167 14l110 626h87l-120 -683q-125 -31 -260 -31q-122 0 -190.5 56t-68.5 161q0 37 5 65zM446 754q-122 0 -164 93l56 39q29 -65 113 -65q85 0 135 65l56 -39q-75 -93 -196 -93z" />
    <glyph glyph-name="afii10081.ss02" horiz-adv-x="734" 
d="M660 432l-76 -432h-87l75 429q4 23 4 62q0 149 -186 149q-85 0 -167 -14l-110 -626h-87l120 683q125 31 260 31q122 0 190.5 -56t68.5 -161q0 -37 -5 -65z" />
    <glyph glyph-name="afii10088.ss02" horiz-adv-x="753" 
d="M510 74l110 626h87l-108 -612h77l-39 -218h-76l17 144q-118 -28 -254 -28q-120 0 -188 55t-68 157q0 42 5 70l76 432h87l-75 -429q-4 -23 -4 -62q0 -149 186 -149q85 0 167 14z" />
    <glyph glyph-name="afii10090.ss02" horiz-adv-x="1001" 
d="M80 308l69 392h87l-68 -389q-6 -31 -6 -68q0 -88 56.5 -131.5t187.5 -50.5l112 639h87l-112 -640q180 5 287 32l107 608h87l-117 -664q-195 -50 -402 -50q-198 0 -289.5 60t-91.5 182q0 46 6 80z" />
    <glyph glyph-name="afii10091.ss02" horiz-adv-x="1020" 
d="M74 228q0 46 6 80l69 392h87l-68 -389q-6 -31 -6 -68q0 -88 56.5 -131.5t187.5 -50.5l112 639h87l-112 -640q180 5 287 32l107 608h87l-106 -598h77l-41 -232h-76l20 164q-192 -48 -393 -48q-198 0 -289.5 60t-91.5 182z" />
    <glyph glyph-name="afii10070.ss02.alt" 
d="M115 491q0 223 281 223q78 0 193 -21l-25 -81q-104 29 -179 29q-184 0 -184 -151q0 -92 148 -92q36 0 104 2l-13 -78q-51 3 -113 3q-211 0 -211 -163q0 -103 168 -103q102 0 219 34v-81q-128 -26 -230 -26q-131 0 -190 39t-59 114q0 183 159 233q-68 36 -68 119z" />
    <glyph glyph-name="afii10071.ss02.alt" 
d="M115 491q0 223 281 223q78 0 193 -21l-25 -81q-104 29 -179 29q-184 0 -184 -151q0 -92 148 -92q36 0 104 2l-13 -78q-51 3 -113 3q-211 0 -211 -163q0 -103 168 -103q102 0 219 34v-81q-128 -26 -230 -26q-131 0 -190 39t-59 114q0 183 159 233q-68 36 -68 119zM336 891
l-23 -128h-78l23 128h78zM600 891l-23 -128h-78l23 128h78z" />
    <glyph glyph-name="afii10070.ss02.accented" horiz-adv-x="708" 
d="M336 59q119 0 254 41l5 -73q-143 -41 -270 -41q-146 0 -212.5 64.5t-66.5 192.5q0 50 9 107q54 364 361 364q124 0 185.5 -60.5t61.5 -188.5q0 -47 -9 -104l-3 -23h-509q-5 -55 -5 -81q0 -107 46.5 -152.5t152.5 -45.5zM405 641q-195 0 -249 -230h417q2 42 2 47
q0 183 -170 183zM360 740l130 174h94l-153 -174h-71z" />
    <glyph glyph-name="afii10071.ss02.accented" horiz-adv-x="708" 
d="M294 891l-23 -128h-78l23 128h78zM598 891l-23 -128h-78l23 128h78zM302 740l99 174h89l-121 -174h-67zM336 59q119 0 254 41l5 -73q-143 -41 -270 -41q-146 0 -212.5 64.5t-66.5 192.5q0 50 9 107q54 364 361 364q124 0 185.5 -60.5t61.5 -188.5q0 -47 -9 -104l-3 -23
h-509q-5 -55 -5 -81q0 -107 46.5 -152.5t152.5 -45.5zM405 641q-195 0 -249 -230h417q2 42 2 47q0 183 -170 183z" />
    <glyph glyph-name="afii10071.ss02.accented.alt" 
d="M284 891l-23 -128h-78l23 128h78zM588 891l-23 -128h-78l23 128h78zM292 740l99 174h89l-121 -174h-67zM115 491q0 223 281 223q78 0 193 -21l-25 -81q-104 29 -179 29q-184 0 -184 -151q0 -92 148 -92q36 0 104 2l-13 -78q-51 3 -113 3q-211 0 -211 -163
q0 -103 168 -103q102 0 219 34v-81q-128 -26 -230 -26q-131 0 -190 39t-59 114q0 183 159 233q-68 36 -68 119z" />
    <glyph glyph-name="afii10074.ss02.accented" horiz-adv-x="734" 
d="M73 268l76 432h87l-75 -429q-4 -23 -4 -62q0 -149 186 -149q85 0 167 14l110 626h87l-120 -683q-125 -31 -260 -31q-122 0 -190.5 56t-68.5 161q0 37 5 65zM340 740l130 174h94l-153 -174h-71z" />
    <glyph glyph-name="afii10070.ss02.accented.alt" 
d="M115 491q0 223 281 223q78 0 193 -21l-25 -81q-104 29 -179 29q-184 0 -184 -151q0 -92 148 -92q36 0 104 2l-13 -78q-51 3 -113 3q-211 0 -211 -163q0 -103 168 -103q102 0 219 34v-81q-128 -26 -230 -26q-131 0 -190 39t-59 114q0 183 159 233q-68 36 -68 119zM306 740
l130 174h94l-153 -174h-71z" />
    <glyph glyph-name="afii10065.ss02.accented" horiz-adv-x="658" 
d="M444 82l43 240q-100 23 -172 23q-114 0 -156 -44q-35 -35 -45 -99q-3 -21 -3 -41q0 -50 37.5 -76t123.5 -26q78 0 172 23zM320 418q69 0 180 -21l11 66q5 33 5 60q0 62 -34.5 90.5t-106.5 28.5q-100 0 -221 -47l-1 83q141 36 237 36q214 0 214 -177q0 -36 -5 -71
l-77 -439q-164 -41 -267 -41q-235 0 -235 165q0 30 4 51q31 216 296 216zM296 740l130 174h94l-153 -174h-71z" />
    <glyph glyph-name="hyphenminus" horiz-adv-x="478" 
d="M380 297l-13 -70h-302l13 70h302z" />
    <glyph glyph-name="afii10074.ss04.accented" horiz-adv-x="575" 
d="M42 159l60 339h78l-60 -336q-2 -14 -2 -35q0 -40 22 -58.5t72 -18.5q53 0 161 44l72 404h78l-88 -498h-73l5 32q-117 -46 -183 -46q-145 0 -145 129q0 27 3 44zM251 588l130 174h88l-153 -174h-65z" />
    <glyph glyph-name="afii10065.ss04.accented" horiz-adv-x="580" 
d="M379 94l54 310q-93 44 -151 44q-74 0 -114 -45t-57 -154q-6 -34 -6 -76q0 -65 29.5 -94t90.5 -29q55 0 154 44zM528 498l-88 -498h-72l6 32q-104 -46 -179 -46q-86 0 -128.5 42t-42.5 133q0 43 7 88q21 139 80.5 201t163.5 62q78 0 171 -46l6 32h76zM231 588l130 174h88
l-153 -174h-65z" />
    <glyph glyph-name="aacute.ss04" horiz-adv-x="580" 
d="M379 94l54 310q-93 44 -151 44q-74 0 -114 -45t-57 -154q-6 -34 -6 -76q0 -65 29.5 -94t90.5 -29q55 0 154 44zM528 498l-88 -498h-72l6 32q-104 -46 -179 -46q-86 0 -128.5 42t-42.5 133q0 43 7 88q21 139 80.5 201t163.5 62q78 0 171 -46l6 32h76zM231 588l130 174h88
l-153 -174h-65z" />
    <glyph glyph-name="agrave.ss04" horiz-adv-x="580" 
d="M379 94l54 310q-93 44 -151 44q-74 0 -114 -45t-57 -154q-6 -34 -6 -76q0 -65 29.5 -94t90.5 -29q55 0 154 44zM528 498l-88 -498h-72l6 32q-104 -46 -179 -46q-86 0 -128.5 42t-42.5 133q0 43 7 88q21 139 80.5 201t163.5 62q78 0 171 -46l6 32h76zM297 588l-90 174h78
l69 -174h-57z" />
    <glyph glyph-name="acircumflex.ss04" horiz-adv-x="580" 
d="M379 94l54 310q-93 44 -151 44q-74 0 -114 -45t-57 -154q-6 -34 -6 -76q0 -65 29.5 -94t90.5 -29q55 0 154 44zM528 498l-88 -498h-72l6 32q-104 -46 -179 -46q-86 0 -128.5 42t-42.5 133q0 43 7 88q21 139 80.5 201t163.5 62q78 0 171 -46l6 32h76zM224 588h-62l130 174
h98l68 -174h-60l-65 125z" />
    <glyph glyph-name="adieresis.ss04" horiz-adv-x="580" 
d="M379 94l54 310q-93 44 -151 44q-74 0 -114 -45t-57 -154q-6 -34 -6 -76q0 -65 29.5 -94t90.5 -29q55 0 154 44zM528 498l-88 -498h-72l6 32q-104 -46 -179 -46q-86 0 -128.5 42t-42.5 133q0 43 7 88q21 139 80.5 201t163.5 62q78 0 171 -46l6 32h76zM253 740l-23 -128
h-78l23 128h78zM501 740l-23 -128h-78l23 128h78z" />
    <glyph glyph-name="atilde.ss04" horiz-adv-x="580" 
d="M379 94l54 310q-93 44 -151 44q-74 0 -114 -45t-57 -154q-6 -34 -6 -76q0 -65 29.5 -94t90.5 -29q55 0 154 44zM528 498l-88 -498h-72l6 32q-104 -46 -179 -46q-86 0 -128.5 42t-42.5 133q0 43 7 88q21 139 80.5 201t163.5 62q78 0 171 -46l6 32h76zM490 732l25 -48
q-35 -35 -60 -48.5t-57 -13.5q-42 0 -87 27q-38 22 -65 22q-23 0 -40.5 -11t-42.5 -39l-25 48q34 35 59 48.5t58 13.5q42 0 87 -27q38 -22 64 -22q24 0 42.5 11t41.5 39z" />
    <glyph glyph-name="aring.ss04" horiz-adv-x="580" 
d="M379 94l54 310q-93 44 -151 44q-74 0 -114 -45t-57 -154q-6 -34 -6 -76q0 -65 29.5 -94t90.5 -29q55 0 154 44zM528 498l-88 -498h-72l6 32q-104 -46 -179 -46q-86 0 -128.5 42t-42.5 133q0 43 7 88q21 139 80.5 201t163.5 62q78 0 171 -46l6 32h76zM439 674
q-16 -112 -130 -112q-98 0 -98 84q0 14 2 28q16 112 129 112q99 0 99 -86q0 -2 -2 -26zM264 674q0 -3 -0.5 -7t-1 -6.5t-0.5 -5v-3.5q0 -46 53 -46q62 0 73 68q2 18 2 20q0 48 -54 48q-32 0 -49.5 -16t-22.5 -52z" />
    <glyph glyph-name="ae.ss04" horiz-adv-x="932" 
d="M379 94l54 310q-93 44 -151 44q-74 0 -114 -45t-57 -154q-6 -34 -6 -76q0 -65 29.5 -94t90.5 -29q55 0 154 44zM669 448q-139 0 -177 -153h299q1 9 1 38q0 115 -123 115zM440 44l-8 -44h-64l6 32q-104 -46 -179 -46q-86 0 -128.5 42t-42.5 133q0 43 7 88q21 139 80.5 201
t163.5 62q78 0 171 -46l6 32h68l-6 -35q64 49 165 49q191 0 191 -178q0 -54 -6 -85l-3 -17h-380q-2 -24 -2 -49q0 -69 35.5 -101t113.5 -32q88 0 188 28l6 -64q-108 -28 -208 -28q-122 0 -174 58z" />
    <glyph glyph-name="A.ss03" horiz-adv-x="658" 
d="M444 82l43 240q-100 23 -172 23q-114 0 -156 -44q-35 -35 -45 -99q-3 -21 -3 -41q0 -50 37.5 -76t123.5 -26q78 0 172 23zM320 418q69 0 180 -21l11 66q5 33 5 60q0 62 -34.5 90.5t-106.5 28.5q-100 0 -221 -47l-1 83q141 36 237 36q214 0 214 -177q0 -36 -5 -71
l-77 -439q-164 -41 -267 -41q-235 0 -235 165q0 30 4 51q31 216 296 216z" />
    <glyph glyph-name="E.ss03" horiz-adv-x="708" 
d="M336 59q119 0 254 41l5 -73q-143 -41 -270 -41q-146 0 -212.5 64.5t-66.5 192.5q0 50 9 107q54 364 361 364q124 0 185.5 -60.5t61.5 -188.5q0 -47 -9 -104l-3 -23h-509q-5 -55 -5 -81q0 -107 46.5 -152.5t152.5 -45.5zM405 641q-195 0 -249 -230h417q2 42 2 47
q0 183 -170 183z" />
    <glyph glyph-name="M.ss03" horiz-adv-x="1161" 
d="M562 0h-87l75 429q4 25 4 65q0 146 -174 146q-78 0 -157 -14l-110 -626h-87l120 683q121 31 250 31q124 0 188 -60q151 60 259 60q110 0 180 -50q69 -50 69 -160q0 -40 -5 -72l-76 -432h-87l75 429q5 32 5 68q0 76 -43 109.5t-133 33.5q-80 0 -203 -47q18 -41 18 -94
q0 -35 -5 -67z" />
    <glyph glyph-name="N.ss03" horiz-adv-x="734" 
d="M660 432l-76 -432h-87l75 429q4 23 4 62q0 149 -186 149q-85 0 -167 -14l-110 -626h-87l120 683q125 31 260 31q122 0 190.5 -56t68.5 -161q0 -37 -5 -65z" />
    <glyph glyph-name="U.ss03" horiz-adv-x="734" 
d="M73 268l76 432h87l-75 -429q-4 -23 -4 -62q0 -149 186 -149q85 0 167 14l110 626h87l-120 -683q-125 -31 -260 -31q-122 0 -190.5 56t-68.5 161q0 37 5 65z" />
    <glyph glyph-name="Aacute.ss03" horiz-adv-x="658" 
d="M444 82l43 240q-100 23 -172 23q-114 0 -156 -44q-35 -35 -45 -99q-3 -21 -3 -41q0 -50 37.5 -76t123.5 -26q78 0 172 23zM320 418q69 0 180 -21l11 66q5 33 5 60q0 62 -34.5 90.5t-106.5 28.5q-100 0 -221 -47l-1 83q141 36 237 36q214 0 214 -177q0 -36 -5 -71
l-77 -439q-164 -41 -267 -41q-235 0 -235 165q0 30 4 51q31 216 296 216zM314 740l130 174h94l-153 -174h-71z" />
    <glyph glyph-name="Agrave.ss03" horiz-adv-x="658" 
d="M444 82l43 240q-100 23 -172 23q-114 0 -156 -44q-35 -35 -45 -99q-3 -21 -3 -41q0 -50 37.5 -76t123.5 -26q78 0 172 23zM320 418q69 0 180 -21l11 66q5 33 5 60q0 62 -34.5 90.5t-106.5 28.5q-100 0 -221 -47l-1 83q141 36 237 36q214 0 214 -177q0 -36 -5 -71
l-77 -439q-164 -41 -267 -41q-235 0 -235 165q0 30 4 51q31 216 296 216zM320 740l-90 174h83l70 -174h-63z" />
    <glyph glyph-name="Acircumflex.ss03" horiz-adv-x="658" 
d="M444 82l43 240q-100 23 -172 23q-114 0 -156 -44q-35 -35 -45 -99q-3 -21 -3 -41q0 -50 37.5 -76t123.5 -26q78 0 172 23zM320 418q69 0 180 -21l11 66q5 33 5 60q0 62 -34.5 90.5t-106.5 28.5q-100 0 -221 -47l-1 83q141 36 237 36q214 0 214 -177q0 -36 -5 -71
l-77 -439q-164 -41 -267 -41q-235 0 -235 165q0 30 4 51q31 216 296 216zM266 740h-67l136 174h104l74 -174h-63l-70 125z" />
    <glyph glyph-name="Adieresis.ss03" horiz-adv-x="658" 
d="M444 82l43 240q-100 23 -172 23q-114 0 -156 -44q-35 -35 -45 -99q-3 -21 -3 -41q0 -50 37.5 -76t123.5 -26q78 0 172 23zM320 418q69 0 180 -21l11 66q5 33 5 60q0 62 -34.5 90.5t-106.5 28.5q-100 0 -221 -47l-1 83q141 36 237 36q214 0 214 -177q0 -36 -5 -71
l-77 -439q-164 -41 -267 -41q-235 0 -235 165q0 30 4 51q31 216 296 216zM286 891l-23 -128h-78l23 128h78zM550 891l-23 -128h-78l23 128h78z" />
    <glyph glyph-name="Atilde.ss03" horiz-adv-x="658" 
d="M444 82l43 240q-100 23 -172 23q-114 0 -156 -44q-35 -35 -45 -99q-3 -21 -3 -41q0 -50 37.5 -76t123.5 -26q78 0 172 23zM320 418q69 0 180 -21l11 66q5 33 5 60q0 62 -34.5 90.5t-106.5 28.5q-100 0 -221 -47l-1 83q141 36 237 36q214 0 214 -177q0 -36 -5 -71
l-77 -439q-164 -41 -267 -41q-235 0 -235 165q0 30 4 51q31 216 296 216zM544 889l27 -51q-37 -38 -64 -52.5t-62 -14.5q-44 0 -94 29q-44 24 -70 24t-45.5 -12t-44.5 -42l-27 51q37 37 63.5 52t62.5 15q44 0 94 -29q43 -22 70.5 -23t43.5 10t46 43z" />
    <glyph glyph-name="Aring.ss03" horiz-adv-x="658" 
d="M444 82l43 240q-100 23 -172 23q-114 0 -156 -44q-35 -35 -45 -99q-3 -21 -3 -41q0 -50 37.5 -76t123.5 -26q78 0 172 23zM320 418q69 0 180 -21l11 66q5 33 5 60q0 62 -34.5 90.5t-106.5 28.5q-100 0 -221 -47l-1 83q141 36 237 36q214 0 214 -177q0 -36 -5 -71
l-77 -439q-164 -41 -267 -41q-235 0 -235 165q0 30 4 51q31 216 296 216zM481 829q-16 -112 -130 -112q-98 0 -98 84q0 14 2 28q16 112 129 112q99 0 99 -86q0 -2 -2 -26zM306 829q0 -3 -0.5 -7t-1 -6.5t-0.5 -5v-3.5q0 -46 53 -46q62 0 73 68q2 18 2 20q0 48 -54 48
q-32 0 -49.5 -16t-22.5 -52z" />
    <glyph glyph-name="Eacute.ss03" horiz-adv-x="708" 
d="M336 59q119 0 254 41l5 -73q-143 -41 -270 -41q-146 0 -212.5 64.5t-66.5 192.5q0 50 9 107q54 364 361 364q124 0 185.5 -60.5t61.5 -188.5q0 -47 -9 -104l-3 -23h-509q-5 -55 -5 -81q0 -107 46.5 -152.5t152.5 -45.5zM405 641q-195 0 -249 -230h417q2 42 2 47
q0 183 -170 183zM378 740l130 174h94l-153 -174h-71z" />
    <glyph glyph-name="Egrave.ss03" horiz-adv-x="708" 
d="M336 59q119 0 254 41l5 -73q-143 -41 -270 -41q-146 0 -212.5 64.5t-66.5 192.5q0 50 9 107q54 364 361 364q124 0 185.5 -60.5t61.5 -188.5q0 -47 -9 -104l-3 -23h-509q-5 -55 -5 -81q0 -107 46.5 -152.5t152.5 -45.5zM405 641q-195 0 -249 -230h417q2 42 2 47
q0 183 -170 183zM345 740l-90 174h83l70 -174h-63z" />
    <glyph glyph-name="Ecircumflex.ss03" horiz-adv-x="708" 
d="M336 59q119 0 254 41l5 -73q-143 -41 -270 -41q-146 0 -212.5 64.5t-66.5 192.5q0 50 9 107q54 364 361 364q124 0 185.5 -60.5t61.5 -188.5q0 -47 -9 -104l-3 -23h-509q-5 -55 -5 -81q0 -107 46.5 -152.5t152.5 -45.5zM405 641q-195 0 -249 -230h417q2 42 2 47
q0 183 -170 183zM305 740h-67l136 174h104l74 -174h-63l-70 125z" />
    <glyph glyph-name="Edieresis.ss03" horiz-adv-x="708" 
d="M336 59q119 0 254 41l5 -73q-143 -41 -270 -41q-146 0 -212.5 64.5t-66.5 192.5q0 50 9 107q54 364 361 364q124 0 185.5 -60.5t61.5 -188.5q0 -47 -9 -104l-3 -23h-509q-5 -55 -5 -81q0 -107 46.5 -152.5t152.5 -45.5zM405 641q-195 0 -249 -230h417q2 42 2 47
q0 183 -170 183zM362 891l-23 -128h-78l23 128h78zM626 891l-23 -128h-78l23 128h78z" />
    <glyph glyph-name="Ntilde.ss03" horiz-adv-x="734" 
d="M660 432l-76 -432h-87l75 429q4 23 4 62q0 149 -186 149q-85 0 -167 -14l-110 -626h-87l120 683q125 31 260 31q122 0 190.5 -56t68.5 -161q0 -37 -5 -65zM612 889l27 -51q-37 -38 -64 -52.5t-62 -14.5q-44 0 -94 29q-44 24 -70 24t-45.5 -12t-44.5 -42l-27 51
q37 37 63.5 52t62.5 15q44 0 94 -29q43 -22 70.5 -23t43.5 10t46 43z" />
    <glyph glyph-name="Uacute.ss03" horiz-adv-x="734" 
d="M73 268l76 432h87l-75 -429q-4 -23 -4 -62q0 -149 186 -149q85 0 167 14l110 626h87l-120 -683q-125 -31 -260 -31q-122 0 -190.5 56t-68.5 161q0 37 5 65zM358 740l130 174h94l-153 -174h-71z" />
    <glyph glyph-name="Ugrave.ss03" horiz-adv-x="734" 
d="M73 268l76 432h87l-75 -429q-4 -23 -4 -62q0 -149 186 -149q85 0 167 14l110 626h87l-120 -683q-125 -31 -260 -31q-122 0 -190.5 56t-68.5 161q0 37 5 65zM394 740l-90 174h83l70 -174h-63z" />
    <glyph glyph-name="Ucircumflex.ss03" horiz-adv-x="734" 
d="M73 268l76 432h87l-75 -429q-4 -23 -4 -62q0 -149 186 -149q85 0 167 14l110 626h87l-120 -683q-125 -31 -260 -31q-122 0 -190.5 56t-68.5 161q0 37 5 65zM351 740h-67l136 174h104l74 -174h-63l-70 125z" />
    <glyph glyph-name="Udieresis.ss03" horiz-adv-x="734" 
d="M73 268l76 432h87l-75 -429q-4 -23 -4 -62q0 -149 186 -149q85 0 167 14l110 626h87l-120 -683q-125 -31 -260 -31q-122 0 -190.5 56t-68.5 161q0 37 5 65zM379 891l-23 -128h-78l23 128h78zM643 891l-23 -128h-78l23 128h78z" />
    <glyph glyph-name="AE.ss03" horiz-adv-x="1142" 
d="M444 82l43 240q-100 23 -172 23q-114 0 -156 -44q-35 -35 -45 -99q-3 -21 -3 -41q0 -50 37.5 -76t123.5 -26q78 0 172 23zM840 641q-195 0 -249 -230h417q2 42 2 47q0 183 -170 183zM771 59q119 0 254 41l5 -73q-143 -41 -270 -41q-174 0 -239 96l-10 -58
q-160 -38 -256 -38q-235 0 -235 165q0 30 4 51q31 216 296 216q69 0 180 -21l11 66q5 33 5 60q0 62 -34.5 90.5t-106.5 28.5q-100 0 -221 -47l-1 83q141 36 237 36q165 0 203 -107q92 107 258 107q124 0 185.5 -60.5t61.5 -188.5q0 -47 -9 -104l-3 -23h-509q-5 -55 -5 -81
q0 -107 46.5 -152.5t152.5 -45.5z" />
    <glyph glyph-name="OE.ss03" horiz-adv-x="1244" 
d="M591 350q8 58 8 93q0 104 -46.5 151t-141.5 47q-113 0 -178 -68.5t-88 -222.5q-8 -59 -8 -95q0 -103 46.5 -149.5t140.5 -46.5q113 0 178 68.5t89 222.5zM941 641q-195 0 -249 -230h417q2 42 2 47q0 183 -170 183zM872 59q119 0 254 41l5 -73q-143 -41 -270 -41
q-207 0 -260 137q-95 -137 -288 -137q-114 0 -186 52q-80 58 -80 210q0 48 8 102q52 364 367 364q195 0 247 -139q93 139 283 139q124 0 185.5 -60.5t61.5 -188.5q0 -47 -9 -104l-3 -23h-508q-6 -48 -6 -81q0 -107 46.5 -152.5t152.5 -45.5z" />
    <glyph glyph-name="E.ss03.alt" 
d="M115 491q0 223 281 223q78 0 193 -21l-25 -81q-104 29 -179 29q-184 0 -184 -151q0 -92 148 -92q36 0 104 2l-13 -78q-51 3 -113 3q-211 0 -211 -163q0 -103 168 -103q102 0 219 34v-81q-128 -26 -230 -26q-131 0 -190 39t-59 114q0 183 159 233q-68 36 -68 119z" />
    <glyph glyph-name="Eacute.ss03.alt" 
d="M115 491q0 223 281 223q78 0 193 -21l-25 -81q-104 29 -179 29q-184 0 -184 -151q0 -92 148 -92q36 0 104 2l-13 -78q-51 3 -113 3q-211 0 -211 -163q0 -103 168 -103q102 0 219 34v-81q-128 -26 -230 -26q-131 0 -190 39t-59 114q0 183 159 233q-68 36 -68 119zM324 740
l130 174h94l-153 -174h-71z" />
    <glyph glyph-name="Egrave.ss03.alt" 
d="M115 491q0 223 281 223q78 0 193 -21l-25 -81q-104 29 -179 29q-184 0 -184 -151q0 -92 148 -92q36 0 104 2l-13 -78q-51 3 -113 3q-211 0 -211 -163q0 -103 168 -103q102 0 219 34v-81q-128 -26 -230 -26q-131 0 -190 39t-59 114q0 183 159 233q-68 36 -68 119zM360 740
l-90 174h83l70 -174h-63z" />
    <glyph glyph-name="Ecircumflex.ss03.alt" 
d="M115 491q0 223 281 223q78 0 193 -21l-25 -81q-104 29 -179 29q-184 0 -184 -151q0 -92 148 -92q36 0 104 2l-13 -78q-51 3 -113 3q-211 0 -211 -163q0 -103 168 -103q102 0 219 34v-81q-128 -26 -230 -26q-131 0 -190 39t-59 114q0 183 159 233q-68 36 -68 119zM316 740
h-67l136 174h104l74 -174h-63l-70 125z" />
    <glyph glyph-name="Edieresis.ss03.alt" 
d="M115 491q0 223 281 223q78 0 193 -21l-25 -81q-104 29 -179 29q-184 0 -184 -151q0 -92 148 -92q36 0 104 2l-13 -78q-51 3 -113 3q-211 0 -211 -163q0 -103 168 -103q102 0 219 34v-81q-128 -26 -230 -26q-131 0 -190 39t-59 114q0 183 159 233q-68 36 -68 119zM336 891
l-23 -128h-78l23 128h78zM600 891l-23 -128h-78l23 128h78z" />
    <glyph glyph-name="afii10145.ss03" horiz-adv-x="734" 
d="M238 -180l23 130h86l-23 -130h-86zM73 268l76 432h87l-75 -429q-4 -23 -4 -62q0 -149 186 -149q85 0 167 14l110 626h87l-120 -683q-125 -31 -260 -31q-122 0 -190.5 56t-68.5 161q0 37 5 65z" />
    <glyph glyph-name="afii10022.ss03" horiz-adv-x="708" 
d="M336 59q119 0 254 41l5 -73q-143 -41 -270 -41q-146 0 -212.5 64.5t-66.5 192.5q0 50 9 107q54 364 361 364q124 0 185.5 -60.5t61.5 -188.5q0 -47 -9 -104l-3 -23h-509q-5 -55 -5 -81q0 -107 46.5 -152.5t152.5 -45.5zM405 641q-195 0 -249 -230h417q2 42 2 47
q0 183 -170 183z" />
    <glyph glyph-name="afii10023.ss03" horiz-adv-x="708" 
d="M336 59q119 0 254 41l5 -73q-143 -41 -270 -41q-146 0 -212.5 64.5t-66.5 192.5q0 50 9 107q54 364 361 364q124 0 185.5 -60.5t61.5 -188.5q0 -47 -9 -104l-3 -23h-509q-5 -55 -5 -81q0 -107 46.5 -152.5t152.5 -45.5zM405 641q-195 0 -249 -230h417q2 42 2 47
q0 183 -170 183zM362 891l-23 -128h-78l23 128h78zM626 891l-23 -128h-78l23 128h78z" />
    <glyph glyph-name="afii10017.ss03" horiz-adv-x="658" 
d="M444 82l43 240q-100 23 -172 23q-114 0 -156 -44q-35 -35 -45 -99q-3 -21 -3 -41q0 -50 37.5 -76t123.5 -26q78 0 172 23zM320 418q69 0 180 -21l11 66q5 33 5 60q0 62 -34.5 90.5t-106.5 28.5q-100 0 -221 -47l-1 83q141 36 237 36q214 0 214 -177q0 -36 -5 -71
l-77 -439q-164 -41 -267 -41q-235 0 -235 165q0 30 4 51q31 216 296 216z" />
    <glyph glyph-name="afii10026.ss03" horiz-adv-x="734" 
d="M73 268l76 432h87l-75 -429q-4 -23 -4 -62q0 -149 186 -149q85 0 167 14l110 626h87l-120 -683q-125 -31 -260 -31q-122 0 -190.5 56t-68.5 161q0 37 5 65z" />
    <glyph glyph-name="afii10027.ss03" horiz-adv-x="734" 
d="M73 268l76 432h87l-75 -429q-4 -23 -4 -62q0 -149 186 -149q85 0 167 14l110 626h87l-120 -683q-125 -31 -260 -31q-122 0 -190.5 56t-68.5 161q0 37 5 65zM446 754q-122 0 -164 93l56 39q29 -65 113 -65q85 0 135 65l56 -39q-75 -93 -196 -93z" />
    <glyph glyph-name="afii10033.ss03" horiz-adv-x="734" 
d="M660 432l-76 -432h-87l75 429q4 23 4 62q0 149 -186 149q-85 0 -167 -14l-110 -626h-87l120 683q125 31 260 31q122 0 190.5 -56t68.5 -161q0 -37 -5 -65z" />
    <glyph glyph-name="afii10040.ss03" horiz-adv-x="753" 
d="M510 74l110 626h87l-108 -612h77l-39 -218h-76l17 144q-118 -28 -254 -28q-120 0 -188 55t-68 157q0 42 5 70l76 432h87l-75 -429q-4 -23 -4 -62q0 -149 186 -149q85 0 167 14z" />
    <glyph glyph-name="afii10042.ss03" horiz-adv-x="1001" 
d="M80 308l69 392h87l-68 -389q-6 -31 -6 -68q0 -88 56.5 -131.5t187.5 -50.5l112 639h87l-112 -640q180 5 287 32l107 608h87l-117 -664q-195 -50 -402 -50q-198 0 -289.5 60t-91.5 182q0 46 6 80z" />
    <glyph glyph-name="afii10043.ss03" horiz-adv-x="1020" 
d="M74 228q0 46 6 80l69 392h87l-68 -389q-6 -31 -6 -68q0 -88 56.5 -131.5t187.5 -50.5l112 639h87l-112 -640q180 5 287 32l107 608h87l-106 -598h77l-41 -232h-76l20 164q-192 -48 -393 -48q-198 0 -289.5 60t-91.5 182z" />
    <glyph glyph-name="afii10022.ss03.alt" 
d="M115 491q0 223 281 223q78 0 193 -21l-25 -81q-104 29 -179 29q-184 0 -184 -151q0 -92 148 -92q36 0 104 2l-13 -78q-51 3 -113 3q-211 0 -211 -163q0 -103 168 -103q102 0 219 34v-81q-128 -26 -230 -26q-131 0 -190 39t-59 114q0 183 159 233q-68 36 -68 119z" />
    <glyph glyph-name="afii10023.ss03.alt" 
d="M115 491q0 223 281 223q78 0 193 -21l-25 -81q-104 29 -179 29q-184 0 -184 -151q0 -92 148 -92q36 0 104 2l-13 -78q-51 3 -113 3q-211 0 -211 -163q0 -103 168 -103q102 0 219 34v-81q-128 -26 -230 -26q-131 0 -190 39t-59 114q0 183 159 233q-68 36 -68 119zM336 891
l-23 -128h-78l23 128h78zM600 891l-23 -128h-78l23 128h78z" />
    <glyph glyph-name="afii10022.ss03.accented" horiz-adv-x="708" 
d="M336 59q119 0 254 41l5 -73q-143 -41 -270 -41q-146 0 -212.5 64.5t-66.5 192.5q0 50 9 107q54 364 361 364q124 0 185.5 -60.5t61.5 -188.5q0 -47 -9 -104l-3 -23h-509q-5 -55 -5 -81q0 -107 46.5 -152.5t152.5 -45.5zM405 641q-195 0 -249 -230h417q2 42 2 47
q0 183 -170 183zM360 740l130 174h94l-153 -174h-71z" />
    <glyph glyph-name="afii10023.ss03.accented" horiz-adv-x="708" 
d="M294 891l-23 -128h-78l23 128h78zM598 891l-23 -128h-78l23 128h78zM302 740l99 174h89l-121 -174h-67zM336 59q119 0 254 41l5 -73q-143 -41 -270 -41q-146 0 -212.5 64.5t-66.5 192.5q0 50 9 107q54 364 361 364q124 0 185.5 -60.5t61.5 -188.5q0 -47 -9 -104l-3 -23
h-509q-5 -55 -5 -81q0 -107 46.5 -152.5t152.5 -45.5zM405 641q-195 0 -249 -230h417q2 42 2 47q0 183 -170 183z" />
    <glyph glyph-name="afii10023.ss03.accented.alt" 
d="M284 891l-23 -128h-78l23 128h78zM588 891l-23 -128h-78l23 128h78zM292 740l99 174h89l-121 -174h-67zM115 491q0 223 281 223q78 0 193 -21l-25 -81q-104 29 -179 29q-184 0 -184 -151q0 -92 148 -92q36 0 104 2l-13 -78q-51 3 -113 3q-211 0 -211 -163
q0 -103 168 -103q102 0 219 34v-81q-128 -26 -230 -26q-131 0 -190 39t-59 114q0 183 159 233q-68 36 -68 119z" />
    <glyph glyph-name="afii10026.ss03.accented" horiz-adv-x="734" 
d="M73 268l76 432h87l-75 -429q-4 -23 -4 -62q0 -149 186 -149q85 0 167 14l110 626h87l-120 -683q-125 -31 -260 -31q-122 0 -190.5 56t-68.5 161q0 37 5 65zM340 740l130 174h94l-153 -174h-71z" />
    <glyph glyph-name="afii10022.ss03.accented.alt" 
d="M115 491q0 223 281 223q78 0 193 -21l-25 -81q-104 29 -179 29q-184 0 -184 -151q0 -92 148 -92q36 0 104 2l-13 -78q-51 3 -113 3q-211 0 -211 -163q0 -103 168 -103q102 0 219 34v-81q-128 -26 -230 -26q-131 0 -190 39t-59 114q0 183 159 233q-68 36 -68 119zM306 740
l130 174h94l-153 -174h-71z" />
    <glyph glyph-name="afii10017.ss03.accented" horiz-adv-x="658" 
d="M444 82l43 240q-100 23 -172 23q-114 0 -156 -44q-35 -35 -45 -99q-3 -21 -3 -41q0 -50 37.5 -76t123.5 -26q78 0 172 23zM320 418q69 0 180 -21l11 66q5 33 5 60q0 62 -34.5 90.5t-106.5 28.5q-100 0 -221 -47l-1 83q141 36 237 36q214 0 214 -177q0 -36 -5 -71
l-77 -439q-164 -41 -267 -41q-235 0 -235 165q0 30 4 51q31 216 296 216zM296 740l130 174h94l-153 -174h-71z" />
    </font>
</defs>
</svg>
