<?xml version="1.0" standalone="no"?>
<!DOCTYPE svg PUBLIC "-//W3C//DTD SVG 1.1//EN" "http://www.w3.org/Graphics/SVG/1.1/DTD/svg11.dtd" >
<svg>
<metadata>
Created by FontForge 20090622 at Sat Feb 25 19:21:21 2017
 By deploy user
Copyright &#194;&#169; 2013 ParaType Inc., ParaType Ltd. All rights reserved. wf-rip
</metadata>
<defs>
<font id="Foros-Bold" horiz-adv-x="571" >
  <font-face 
    font-family="Foros Bold"
    font-weight="700"
    font-stretch="normal"
    units-per-em="1000"
    panose-1="2 11 8 3 2 2 3 2 2 4"
    ascent="779"
    descent="-221"
    x-height="498"
    cap-height="700"
    bbox="-483 -236 1295 950"
    underline-thickness="50"
    underline-position="-50"
    unicode-range="U+0020-U+FEFF"
  />
<missing-glyph horiz-adv-x="215" 
 />
    <glyph glyph-name="afii10017.var.accented" unicode="&#x410;`" horiz-adv-x="702" 
d="M484 700l216 -700h-191l-50 173h-216l-50 -173h-191l216 700h266zM351 549l-67 -231h134zM342 919h171l-132 -183h-133z" />
    <glyph glyph-name="afii10022.var.accented" unicode="&#x415;`" horiz-adv-x="565" 
d="M238 145h293v-145h-473v700h463v-145h-283v-131h242v-142h-242v-137zM263 919h171l-132 -183h-133z" />
    <glyph glyph-name="afii10026.var.accented" unicode="&#x418;`" horiz-adv-x="702" 
d="M644 700v-700h-178v282q0 42 1 75q0 13 0.5 29t1 24.5t0.5 13.5q-24 -52 -62 -125l-158 -299h-191v700h178v-282q0 -8 -2 -76q-1 -33 -1 -66q24 52 62 125l158 299h191zM343 919h171l-132 -183h-133z" />
    <glyph glyph-name="afii10032.var.accented" unicode="&#x41e;`" horiz-adv-x="734" 
d="M478 184q35 55 35 166q0 112 -35 165q-34 54 -111 54t-111 -54q-35 -53 -35 -165q0 -111 35 -166q35 -53 111 -53t111 53zM119 69q-84 83 -84 281t84 281q85 83 248 83t248 -83q84 -83 84 -281t-84 -281q-85 -83 -248 -83t-248 83zM373 919h171l-132 -183h-133z" />
    <glyph glyph-name="afii10037.var.accented" unicode="&#x423;`" horiz-adv-x="695" 
d="M499 700h194l-205 -515q-43 -108 -100 -154q-56 -45 -162 -45q-46 0 -92 8l12 145q28 -9 64 -9q42 0 64 17q21 17 41 70h-116l-197 483h199l151 -387zM336 919h171l-132 -183h-133z" />
    <glyph glyph-name="afii10045.var.accented" unicode="&#x42b;`" horiz-adv-x="923" 
d="M865 0h-180v700h180v-700zM58 700h180v-254q44 4 75 4q293 0 293 -232t-293 -232q-107 0 -255 30v684zM238 299v-162q44 -6 74 -6q108 0 108 87t-108 87q-30 0 -74 -6zM443 919h171l-132 -183h-133z" />
    <glyph glyph-name="afii10047.var.accented" unicode="&#x42d;`" horiz-adv-x="607" 
d="M241 -14q-93 0 -211 27l27 158q96 -40 165 -40q72 0 110.5 35.5t49.5 111.5h-244v144h244q-11 75 -49.5 111t-110.5 36q-66 0 -165 -42l-27 162q122 25 211 25q79 0 134.5 -16t101.5 -54q95 -78 95 -294t-95 -294q-46 -38 -101.5 -54t-134.5 -16zM278 919h171l-132 -183
h-133z" />
    <glyph glyph-name="afii10048.var.accented" unicode="&#x42e;`" horiz-adv-x="1032" 
d="M777 518q-33 51 -105 51t-106 -51q-33 -51 -33 -168t33 -168q34 -51 106 -51t105 51q34 50 34 168t-34 168zM672 -14q-151 0 -229.5 69t-92.5 223h-112v-278h-180v700h180v-277h112q15 154 93 222.5t229 68.5q166 0 245 -84q80 -85 80 -280t-80 -280q-79 -84 -245 -84z
M423 919h171l-132 -183h-133z" />
    <glyph glyph-name="afii10049.var.accented" unicode="&#x42f;`" horiz-adv-x="626" 
d="M318 255l-118 -259l-191 22l135 274q-109 46 -109 192q0 98 53 159q63 71 231 71q97 0 249 -30v-684h-180v255h-70zM316 400h72v164q-43 5 -72 5q-56 0 -78.5 -21.5t-22.5 -63.5q0 -41 22.5 -62.5t78.5 -21.5zM323 919h171l-132 -183h-133z" />
    <glyph glyph-name="afii10023.var.accented" unicode="&#x401;`" horiz-adv-x="565" 
d="M166 903v-153h-119v153h119zM532 903v-153h-119v153h119zM261 919h151l-132 -183h-113zM238 145h293v-145h-473v700h463v-145h-283v-131h242v-142h-242v-137z" />
    <glyph glyph-name="afii10065.var.accented" unicode="&#x430;`" horiz-adv-x="519" 
d="M27 146q0 80 46 120.5t148 40.5q31 0 90 -6v22q0 36 -17 50.5t-57 14.5q-57 0 -157 -35l-22 129q124 30 195 30q116 0 167 -47t51 -140v-325h-154v24q-74 -38 -140 -38q-74 0 -112 41.5t-38 118.5zM246 200q-59 0 -59 -54q0 -53 52 -53q30 0 72 20v81q-42 6 -65 6z
M176 571l94 183h163l-132 -183h-125z" />
    <glyph glyph-name="afii10070.var.accented" unicode="&#x435;`" 
d="M339 110q90 0 171 25l23 -122q-117 -27 -219 -27q-147 0 -215 63t-68 200q0 263 263 263q131 0 188.5 -64.5t57.5 -198.5v-39h-342q5 -55 35.5 -77.5t105.5 -22.5zM294 397q-84 0 -93 -84h183q-3 84 -90 84zM212 571l94 183h163l-132 -183h-125z" />
    <glyph glyph-name="afii10074.var.accented" unicode="&#x438;`" horiz-adv-x="574" 
d="M364 498h160v-498h-160v155q0 56 2 110q-33 -65 -54 -99l-102 -166h-160v498h160v-155q0 -56 -2 -110q33 65 54 99zM211 571l94 183h163l-132 -183h-125z" />
    <glyph glyph-name="afii10080.var.accented" unicode="&#x43e;`" horiz-adv-x="592" 
d="M296 110q100 0 100 139t-100 139t-100 -139t100 -139zM496 447q65 -65 65 -198q0 -134 -65 -199q-64 -64 -200 -64t-200 64q-65 65 -65 199q0 133 65 198t200 65t200 -65zM200 571l94 183h163l-132 -183h-125z" />
    <glyph glyph-name="afii10085.var.accented" unicode="&#x443;`" horiz-adv-x="572" 
d="M142 -87q77 0 100 80l7 25h-90l-154 480h174l73 -261l34 -119l34 119l73 261h174l-174 -541q-55 -171 -235 -171q-36 0 -86 8l10 128q26 -9 60 -9zM184 571l94 183h163l-132 -183h-125z" />
    <glyph glyph-name="afii10093.var.accented" unicode="&#x44b;`" horiz-adv-x="772" 
d="M722 498v-498h-160v498h160zM210 230v-116q32 -6 59 -6q74 0 74 64t-74 64q-27 0 -59 -6zM50 498h160v-144q33 4 74 4q222 0 222 -186q0 -92 -55 -139t-178 -47q-102 0 -223 29v483zM284 571l94 183h163l-132 -183h-125z" />
    <glyph glyph-name="afii10095.var.accented" unicode="&#x44d;`" horiz-adv-x="484" 
d="M98 188v123h183q-21 77 -109 77q-44 0 -116 -26l-25 132q98 18 158 18q133 0 198.5 -63.5t65.5 -199.5q0 -133 -63.5 -198t-200.5 -65q-65 0 -158 18l25 135q72 -29 116 -29q88 0 109 78h-183zM138 571l94 183h163l-132 -183h-125z" />
    <glyph glyph-name="afii10096.var.accented" unicode="&#x44e;`" horiz-adv-x="824" 
d="M532 388q-96 0 -96 -139t96 -139t96 139t-96 139zM50 498h160v-187h65q27 201 257 201q132 0 196.5 -64.5t64.5 -198.5t-64.5 -198.5t-196.5 -64.5q-230 0 -257 202h-65v-188h-160v498zM304 571l94 183h163l-132 -183h-125z" />
    <glyph glyph-name="afii10097.var.accented" unicode="&#x44f;`" horiz-adv-x="529" 
d="M267 287h52v104q-32 6 -52 6q-73 0 -73 -55t73 -55zM479 0h-160v175h-42l-90 -182l-174 19l102 181q-86 42 -86 146q0 83 56.5 128t171.5 45q80 0 222 -26v-486zM181 571l94 183h163l-132 -183h-125z" />
    <glyph glyph-name="afii10071.var.accented" unicode="&#x451;`" 
d="M142 740v-153h-119v153h119zM548 740v-153h-119v153h119zM160 571l94 183h153l-132 -183h-115zM339 110q90 0 171 25l23 -122q-117 -27 -219 -27q-147 0 -215 63t-68 200q0 263 263 263q131 0 188.5 -64.5t57.5 -198.5v-39h-342q5 -55 35.5 -77.5t105.5 -22.5zM294 397
q-84 0 -93 -84h183q-3 84 -90 84z" />
    <glyph glyph-name="fi" unicode="fi" horiz-adv-x="566" 
d="M516 730v-143h-160v39q-17 4 -34 4q-46 0 -63.5 -23.5t-17.5 -76.5v-32h275v-498h-160v374h-115v-374h-160v374h-62v124h62v37q0 115 57 167t175 52q69 0 203 -24z" />
    <glyph glyph-name="fl" unicode="fl" horiz-adv-x="576" 
d="M321 498v-124h-80v-374h-160v374h-62v124h62v37q0 116 58.5 167.5t183.5 51.5q71 0 203 -24v-730h-160v626q-17 4 -38 4q-50 0 -68.5 -23t-18.5 -77v-32h80z" />
    <glyph glyph-name=".notdef" horiz-adv-x="215" 
 />
    <glyph glyph-name=".null" horiz-adv-x="0" 
 />
    <glyph glyph-name="nonmarkingreturn" horiz-adv-x="333" 
 />
    <glyph glyph-name="space" unicode=" " horiz-adv-x="215" 
 />
    <glyph glyph-name="exclam" unicode="!" horiz-adv-x="300" 
d="M58 700h184l-20 -479h-144zM236 149v-149h-172v149h172z" />
    <glyph glyph-name="quotedbl" unicode="&#x22;" horiz-adv-x="426" 
d="M188 700l-11 -285h-148l-11 285h170zM408 700l-11 -285h-148l-11 285h170z" />
    <glyph glyph-name="numbersign" unicode="#" horiz-adv-x="686" 
d="M378 260l24 140h-95l-24 -140h95zM498 135l-22 -135h-139l22 135h-95l-22 -135h-139l22 135h-92l20 125h91l24 140h-92l19 125h92l22 135h139l-21 -135h94l22 135h139l-22 -135h93l-20 -125h-92l-23 -140h92l-20 -125h-92z" />
    <glyph glyph-name="dollar" unicode="$" horiz-adv-x="592" 
d="M288 123q48 0 67 16t19 48q0 58 -77 69l-33 5q-119 18 -166 69q-45 52 -45 140q0 178 184 200v120h130v-120q60 -6 159 -26l-23 -151q-120 44 -200 44q-40 0 -57.5 -15t-17.5 -46q0 -29 15.5 -44t58.5 -21l37 -5q120 -20 165 -73q46 -52 46 -139q0 -175 -183 -202v-122
h-130v118q-99 7 -200 33l25 160q113 -58 226 -58z" />
    <glyph glyph-name="percent" unicode="%" horiz-adv-x="940" 
d="M592 660h117l-361 -660h-117zM225 674q176 0 176 -189t-176 -189t-176 189t176 189zM225 386q61 0 61 99t-61 99t-61 -99t61 -99zM715 -14q-176 0 -176 189t176 189t176 -189t-176 -189zM715 274q-61 0 -61 -99t61 -99t61 99t-61 99z" />
    <glyph glyph-name="ampersand" unicode="&#x26;" horiz-adv-x="673" 
d="M71 494q0 88 62 134t184 46q75 0 194 -22l-21 -142q-99 29 -154 29q-91 0 -91 -69q0 -36 24 -52t77 -16q190 0 309 3v-140q-25 1 -96 1v-251q-143 -29 -249 -29q-145 0 -210 50t-65 149q0 119 113 166q-77 44 -77 143zM329 276q-117 0 -117 -78q0 -39 27.5 -58t89.5 -19
q28 0 59 4v149q-42 2 -59 2z" />
    <glyph glyph-name="quotesingle" unicode="'" horiz-adv-x="212" 
d="M194 700l-11 -285h-154l-11 285h176z" />
    <glyph glyph-name="parenleft" unicode="(" horiz-adv-x="395" 
d="M366 -86l-16 -124q-80 4 -133.5 28.5t-92.5 78.5q-76 105 -76 373t76 373q39 54 92.5 78.5t133.5 28.5l16 -124q-52 -4 -84 -32q-69 -61 -69 -324q0 -142 19 -219q20 -79 50 -105q32 -28 84 -32z" />
    <glyph glyph-name="parenright" unicode=")" horiz-adv-x="395" 
d="M29 626l16 124q80 -4 133.5 -28.5t91.5 -78.5q77 -105 77 -373t-77 -373q-38 -54 -91.5 -78.5t-133.5 -28.5l-16 124q52 4 84 32q69 61 69 324q0 142 -19 218q-20 80 -50 106q-32 28 -84 32z" />
    <glyph glyph-name="asterisk" unicode="*" horiz-adv-x="588" 
d="M226 700h136l-33 -145l109 101l68 -118l-140 -45l140 -43l-68 -118l-108 98l32 -142h-136l30 141l-106 -97l-68 118l140 43l-140 45l68 118l107 -100z" />
    <glyph glyph-name="plus" unicode="+" horiz-adv-x="570" 
d="M515 394v-120h-168v-171h-124v171h-168v120h168v170h124v-170h168z" />
    <glyph glyph-name="comma" unicode="," horiz-adv-x="293" 
d="M54 -154l11 303h178l-52 -303h-137z" />
    <glyph glyph-name="hyphen" unicode="-" horiz-adv-x="405" 
d="M347 330v-136h-289v136h289z" />
    <glyph glyph-name="period" unicode="." horiz-adv-x="286" 
d="M229 149v-149h-172v149h172z" />
    <glyph glyph-name="slash" unicode="/" horiz-adv-x="429" 
d="M259 700h153l-301 -870h-153z" />
    <glyph glyph-name="zero" unicode="0" horiz-adv-x="702" 
d="M254 490q-29 -50 -29 -160t29 -160q28 -49 97 -49t97 49q29 50 29 160t-29 160q-28 49 -97 49t-97 -49zM580 594q73 -79 73 -264q0 -186 -73 -265t-229 -79t-229 79t-73 265q0 185 73 264q74 80 229 80t229 -80z" />
    <glyph glyph-name="one" unicode="1" horiz-adv-x="420" 
d="M312 660v-660h-171v525h-115v135h286z" />
    <glyph glyph-name="two" unicode="2" horiz-adv-x="582" 
d="M533 465q0 -81 -41 -133q-41 -50 -157 -79l-16 -4q-70 -18 -93 -38q-21 -19 -23 -76h328v-135h-487v135q0 97 41 150q41 54 158 82l16 4q57 14 77.5 32t20.5 56q0 80 -105 80q-76 0 -175 -37l-22 146q133 26 212 26q266 0 266 -209z" />
    <glyph glyph-name="three" unicode="3" horiz-adv-x="558" 
d="M512 182q0 -196 -274 -196q-92 0 -223 24l22 147q103 -36 181 -36q62 0 89.5 18t27.5 57q0 75 -117 75q-55 0 -100 -4v139q55 -4 100 -4q54 0 77.5 16.5t23.5 52.5q0 35 -22.5 51.5t-78.5 16.5q-66 0 -161 -29l-21 142q116 22 201 22q256 0 256 -181q0 -105 -81 -146
q100 -49 100 -165z" />
    <glyph glyph-name="four" unicode="4" horiz-adv-x="639" 
d="M599 273v-135h-88v-138h-171v138h-311v159l291 363h191v-387h88zM174 273h166v214z" />
    <glyph glyph-name="five" unicode="5" horiz-adv-x="601" 
d="M262 121q62 0 89 19.5t27 61.5t-26.5 61.5t-89.5 19.5q-65 0 -185 -14v391h429v-135h-258v-108q16 1 38 1q141 0 204.5 -54.5t63.5 -161.5q0 -109 -63.5 -162.5t-199.5 -53.5q-107 0 -244 29l23 149q110 -43 192 -43z" />
    <glyph glyph-name="six" unicode="6" horiz-adv-x="651" 
d="M606 208q0 -100 -61 -161q-60 -61 -195 -61q-158 0 -229.5 82.5t-71.5 261.5q0 184 75 264q77 80 240 80q78 0 207 -22l-22 -149q-94 36 -167 36q-79 0 -112 -29t-37 -93q67 15 133 15q122 0 181 -63q59 -64 59 -161zM433 209q0 41 -25 64.5t-75 23.5q-39 0 -105 -11
q1 -89 25 -127t89 -38q91 0 91 88z" />
    <glyph glyph-name="seven" unicode="7" horiz-adv-x="537" 
d="M22 660h493v-135q-156 -252 -217 -525h-184q52 230 210 525h-302v135z" />
    <glyph glyph-name="eight" unicode="8" horiz-adv-x="662" 
d="M250 134q26 -18 81 -18t80 18q26 18 26 60t-26 60q-25 18 -80 18t-81 -18q-25 -18 -25 -60t25 -60zM404 417q21 19 21 54t-21 54q-20 19 -73 19t-73 -19q-21 -19 -21 -54t21 -54q20 -19 73 -19t73 19zM49 180q0 120 107 164q-90 44 -90 149q0 92 64.5 136.5t200.5 44.5
t200.5 -44.5t64.5 -136.5q0 -105 -90 -149q107 -44 107 -164q0 -102 -70.5 -148t-211.5 -46t-211.5 46t-70.5 148z" />
    <glyph glyph-name="nine" unicode="9" horiz-adv-x="651" 
d="M45 452q0 98 60 160q62 62 196 62q158 0 229.5 -82.5t71.5 -261.5q0 -185 -76 -264q-75 -80 -239 -80q-78 0 -207 22l22 149q95 -36 167 -36q79 0 112 29t37 93q-68 -15 -133 -15q-123 0 -181 63q-59 64 -59 161zM218 451q0 -41 25 -64.5t75 -23.5q39 0 105 11
q-1 89 -25 127t-89 38q-91 0 -91 -88z" />
    <glyph glyph-name="colon" unicode=":" horiz-adv-x="286" 
d="M229 149v-149h-172v149h172zM229 498v-149h-172v149h172z" />
    <glyph glyph-name="semicolon" unicode=";" horiz-adv-x="293" 
d="M229 498v-149h-172v149h172zM54 -154l11 303h178l-52 -303h-137z" />
    <glyph glyph-name="less" unicode="&#x3c;" horiz-adv-x="570" 
d="M515 536v-126l-301 -77l301 -77v-126l-460 130v146z" />
    <glyph glyph-name="equal" unicode="=" horiz-adv-x="570" 
d="M55 159v120h460v-120h-460zM55 388v120h460v-120h-460z" />
    <glyph glyph-name="greater" unicode="&#x3e;" horiz-adv-x="570" 
d="M55 256l301 77l-301 77v126l460 -130v-146l-460 -130v126z" />
    <glyph glyph-name="question" unicode="?" horiz-adv-x="553" 
d="M495 490q0 -190 -207 -219v-51h-172v181h76q66 0 96.5 21.5t30.5 67.5q0 44 -29 66.5t-98 22.5q-49 0 -111 -20l-23 143q82 12 142 12q152 0 223.5 -56t71.5 -168zM288 149v-149h-172v149h172z" />
    <glyph glyph-name="at" unicode="@" horiz-adv-x="957" 
d="M641 0h-103v24q-74 -38 -140 -38q-74 0 -112 41.5t-38 118.5q0 80 46 120.5t148 40.5q32 0 90 -6v22q0 36 -17 50.5t-57 14.5q-57 0 -157 -35l-22 129q125 30 195 30q116 0 167 -47t51 -140v-212q102 21 102 176q0 165 -69 241q-69 77 -247 77q-95 0 -155 -19.5
t-95 -63.5q-35 -43 -49 -107.5t-14 -167.5q0 -142 31 -219q32 -76 96.5 -107.5t185.5 -31.5q131 0 278 38l18 -108q-181 -37 -296 -37q-232 0 -336 108q-102 106 -102 357t102 358q104 107 336 107q246 0 345 -116q94 -107 94 -309q0 -137 -73.5 -213t-202.5 -76zM467 200
q-59 0 -59 -54q0 -53 52 -53q30 0 72 20v81q-42 6 -65 6z" />
    <glyph glyph-name="A" unicode="A" horiz-adv-x="702" 
d="M484 700l216 -700h-191l-50 173h-216l-50 -173h-191l216 700h266zM351 549l-67 -231h134z" />
    <glyph glyph-name="B" unicode="B" horiz-adv-x="665" 
d="M238 565v-139h79q52 0 73.5 18t21.5 55q0 36 -21.5 54.5t-73.5 18.5q-34 0 -79 -7zM446 205q0 39 -25 59t-87 20h-96v-149q43 -7 96 -7q62 0 87 20t25 57zM590 523q0 -111 -80 -152q122 -44 122 -178q0 -102 -70 -154.5t-222 -52.5q-130 0 -282 30v668q150 30 263 30
q143 0 206 -47t63 -144z" />
    <glyph glyph-name="C" unicode="C" horiz-adv-x="607" 
d="M385 131q69 0 165 40l27 -158q-119 -27 -211 -27q-79 0 -134.5 16t-101.5 54q-95 78 -95 294t95 294q46 38 101.5 54t134.5 16q89 0 211 -25l-27 -162q-99 42 -165 42q-87 0 -125.5 -52t-38.5 -167t38.5 -167t125.5 -52z" />
    <glyph glyph-name="D" unicode="D" horiz-adv-x="711" 
d="M58 16v668q140 30 259 30q187 0 272 -84q87 -84 87 -280t-87 -280q-85 -84 -272 -84q-119 0 -259 30zM311 569q-33 0 -73 -5v-428q40 -5 73 -5q100 0 139 51q40 50 40 168t-40 168q-39 51 -139 51z" />
    <glyph glyph-name="E" unicode="E" horiz-adv-x="565" 
d="M238 145h293v-145h-473v700h463v-145h-283v-131h242v-142h-242v-137z" />
    <glyph glyph-name="F" unicode="F" horiz-adv-x="541" 
d="M238 252v-252h-180v700h454v-145h-274v-162h248v-141h-248z" />
    <glyph glyph-name="G" unicode="G" horiz-adv-x="694" 
d="M387 130q38 0 75 8v222h180v-337q-149 -37 -276 -37q-62 0 -110.5 10.5t-91 35.5t-70.5 66t-43.5 104.5t-15.5 147.5q0 213 93 292q83 72 238 72q109 0 242 -28l-31 -160q-113 43 -190 43q-87 0 -126.5 -52t-39.5 -167q0 -113 39.5 -166.5t126.5 -53.5z" />
    <glyph glyph-name="H" unicode="H" horiz-adv-x="689" 
d="M631 700v-700h-180v282h-213v-282h-180v700h180v-273h213v273h180z" />
    <glyph glyph-name="I" unicode="I" horiz-adv-x="296" 
d="M238 700v-700h-180v700h180z" />
    <glyph glyph-name="J" unicode="J" horiz-adv-x="441" 
d="M128 -14q-58 0 -117 12l19 150q42 -17 83 -17q54 0 75 26t21 95v448h180v-452q0 -131 -57 -197q-57 -65 -204 -65z" />
    <glyph glyph-name="K" unicode="K" horiz-adv-x="691" 
d="M490 -7l-241 362l207 345h201l-208 -327l241 -353zM58 700h180v-700h-180v700z" />
    <glyph glyph-name="L" unicode="L" horiz-adv-x="523" 
d="M238 145h267v-145h-447v700h180v-555z" />
    <glyph glyph-name="M" unicode="M" horiz-adv-x="940" 
d="M470 245q23 95 32 119l114 336h236l48 -700h-178l-17 327q-1 9 -1 64q0 66 1 83h-2q-31 -116 -40 -144l-110 -330h-166l-110 330q-9 28 -40 144h-2q1 -17 1 -83q0 -55 -1 -64l-17 -327h-178l48 700h236l114 -336q9 -24 32 -119z" />
    <glyph glyph-name="N" unicode="N" horiz-adv-x="702" 
d="M466 700h178v-700h-205l-162 312q-27 54 -47 114h-2q8 -70 8 -120v-306h-178v700h205l162 -312q27 -54 47 -114h2q-8 70 -8 120v306z" />
    <glyph glyph-name="O" unicode="O" horiz-adv-x="734" 
d="M478 184q35 55 35 166q0 112 -35 165q-34 54 -111 54t-111 -54q-35 -53 -35 -165q0 -111 35 -166q35 -53 111 -53t111 53zM119 69q-84 83 -84 281t84 281q85 83 248 83t248 -83q84 -83 84 -281t-84 -281q-85 -83 -248 -83t-248 83z" />
    <glyph glyph-name="P" unicode="P" horiz-adv-x="619" 
d="M238 0h-180v684q144 30 248 30q285 0 285 -240t-285 -240q-34 0 -68 3v-237zM238 564v-180q40 -5 64 -5q109 0 109 95t-109 95q-24 0 -64 -5z" />
    <glyph glyph-name="Q" unicode="Q" horiz-adv-x="734" 
d="M35 350q0 198 84 281q85 83 248 83t248 -83q84 -83 84 -281q0 -167 -61 -252.5t-184 -104.5q14 -89 42 -159l-192 -16q-18 75 -24 175q-123 19 -184 104.5t-61 252.5zM478 184q35 55 35 166q0 112 -35 165q-34 54 -111 54t-111 -54q-35 -53 -35 -165q0 -111 35 -166
q35 -53 111 -53t111 53z" />
    <glyph glyph-name="R" unicode="R" horiz-adv-x="626" 
d="M238 564v-164h72q56 0 78.5 21.5t22.5 62.5q0 42 -22.5 63.5t-78.5 21.5q-29 0 -72 -5zM591 486q0 -147 -110 -192l136 -276l-191 -22l-117 259h-71v-255h-180v684q148 30 249 30q168 0 229 -70q55 -62 55 -158z" />
    <glyph glyph-name="S" unicode="S" horiz-adv-x="609" 
d="M297 131q51 0 71 17t20 51q0 63 -82 73l-35 5q-127 18 -175 73t-48 148q0 216 258 216q92 0 243 -32l-25 -160q-124 47 -211 47q-43 0 -61.5 -15.5t-18.5 -48.5q0 -31 17 -47t62 -22l39 -6q126 -19 174 -77q49 -55 49 -147q0 -220 -277 -220q-121 0 -266 37l27 169
q118 -61 239 -61z" />
    <glyph glyph-name="T" unicode="T" horiz-adv-x="626" 
d="M608 700v-145h-205v-555h-180v555h-205v145h590z" />
    <glyph glyph-name="U" unicode="U" horiz-adv-x="700" 
d="M468 263v437h180v-439q0 -150 -72 -213q-71 -62 -226 -62q-154 0 -227 62q-71 63 -71 213v439h180v-437q0 -73 27 -102.5t91 -29.5t91 29.5t27 102.5z" />
    <glyph glyph-name="V" unicode="V" horiz-adv-x="710" 
d="M355 153q32 130 42 161l118 386h193l-234 -700h-238l-234 700h193l118 -386q10 -31 42 -161z" />
    <glyph glyph-name="W" unicode="W" horiz-adv-x="1050" 
d="M423 700h204l90 -400q4 -18 22 -112h4q5 32 22 112l90 400h184l-169 -700h-242l-76 315q-12 44 -27 122q-15 -78 -27 -122l-76 -315h-242l-169 700h184l90 -400q4 -18 22 -112h4q5 32 22 112z" />
    <glyph glyph-name="X" unicode="X" horiz-adv-x="692" 
d="M466 0l-120 227l-120 -227h-211l207 355l-199 345h210l113 -216l113 216h210l-199 -345l207 -355h-211z" />
    <glyph glyph-name="Y" unicode="Y" horiz-adv-x="710" 
d="M-1 700h214l142 -254l142 254h214l-266 -441v-259h-180v259z" />
    <glyph glyph-name="Z" unicode="Z" horiz-adv-x="607" 
d="M255 145h319v-145h-541v145l306 410h-293v145h515v-145z" />
    <glyph glyph-name="bracketleft" unicode="[" horiz-adv-x="359" 
d="M309 -76v-124h-251v940h251v-124h-91v-692h91z" />
    <glyph glyph-name="backslash" unicode="\" horiz-adv-x="429" 
d="M412 0h-153l-242 700h153z" />
    <glyph glyph-name="bracketright" unicode="]" horiz-adv-x="359" 
d="M301 740v-940h-251v124h91v692h-91v124h251z" />
    <glyph glyph-name="asciicircum" unicode="^" horiz-adv-x="554" 
d="M277 550l-114 -306h-141l183 456h144l183 -456h-142z" />
    <glyph glyph-name="underscore" unicode="_" horiz-adv-x="492" 
d="M492 -97v-110h-492v110h492z" />
    <glyph glyph-name="grave" unicode="`" horiz-adv-x="500" 
d="M254 571l-132 183h163l94 -183h-125z" />
    <glyph glyph-name="a" unicode="a" horiz-adv-x="519" 
d="M27 146q0 80 46 120.5t148 40.5q31 0 90 -6v22q0 36 -17 50.5t-57 14.5q-57 0 -157 -35l-22 129q124 30 195 30q116 0 167 -47t51 -140v-325h-154v24q-74 -38 -140 -38q-74 0 -112 41.5t-38 118.5zM246 200q-59 0 -59 -54q0 -53 52 -53q30 0 72 20v81q-42 6 -65 6z" />
    <glyph glyph-name="b" unicode="b" horiz-adv-x="583" 
d="M210 361v-243q37 -8 72 -8q54 0 78.5 33.5t24.5 105.5q0 74 -21 106.5t-66 32.5q-34 0 -88 -27zM50 740h160v-268q80 40 145 40q100 0 147.5 -63.5t47.5 -199.5q0 -133 -63.5 -198t-199.5 -65q-100 0 -237 34v720z" />
    <glyph glyph-name="c" unicode="c" horiz-adv-x="484" 
d="M312 110q44 0 116 29l25 -135q-96 -18 -158 -18q-133 0 -198.5 63.5t-65.5 199.5t65.5 199.5t198.5 63.5q62 0 158 -18l-25 -135q-72 29 -116 29q-60 0 -88 -34t-28 -105t28 -105t88 -34z" />
    <glyph glyph-name="d" unicode="d" horiz-adv-x="583" 
d="M533 0h-154v29q-87 -43 -151 -43q-100 0 -147.5 63.5t-47.5 199.5t47.5 199.5t147.5 63.5q39 0 69 -9q31 -9 76 -31v268h160v-740zM373 137v224q-54 27 -88 27q-45 0 -66 -32.5t-21 -106.5t21 -106.5t66 -32.5q34 0 88 27z" />
    <glyph glyph-name="e" unicode="e" 
d="M339 110q90 0 171 25l23 -122q-117 -27 -219 -27q-147 0 -215 63t-68 200q0 263 263 263q131 0 188.5 -64.5t57.5 -198.5v-39h-342q5 -55 35.5 -77.5t105.5 -22.5zM294 397q-84 0 -93 -84h183q-3 84 -90 84z" />
    <glyph glyph-name="f" unicode="f" horiz-adv-x="371" 
d="M351 498v-124h-110v-374h-160v374h-62v124h62v37q0 116 51 167.5t161 51.5q57 0 102 -7l-15 -127q-33 10 -58 10q-46 0 -63.5 -23.5t-17.5 -76.5v-32h110z" />
    <glyph glyph-name="g" unicode="g" horiz-adv-x="583" 
d="M373 147v214q-55 27 -88 27q-45 0 -66 -31.5t-21 -102.5t21 -102.5t66 -31.5q33 0 88 27zM247 -90q76 0 101 28q25 26 25 90v8q-79 -40 -145 -40q-98 0 -146.5 61t-48.5 197t48.5 197t146.5 61q68 0 151 -43v29h154v-468q0 -113 -49 -175q-54 -69 -222 -69q-93 0 -215 26
l27 139q96 -41 173 -41z" />
    <glyph glyph-name="h" unicode="h" 
d="M50 740h160v-268q86 40 150 40q84 0 122.5 -44t38.5 -133v-335h-160v328q0 60 -61 60q-34 0 -90 -27v-361h-160v740z" />
    <glyph glyph-name="i" unicode="i" horiz-adv-x="260" 
d="M210 498v-498h-160v498h160zM210 740v-153h-160v153h160z" />
    <glyph glyph-name="j" unicode="j" horiz-adv-x="264" 
d="M54 498h160v-482q0 -117 -55.5 -173t-179.5 -57l-15 124q52 3 71 27t19 81v480zM214 740v-153h-160v153h160z" />
    <glyph glyph-name="k" unicode="k" horiz-adv-x="546" 
d="M50 740h160v-740h-160v740zM525 498l-138 -226l157 -258l-177 -21l-147 264l125 241h180z" />
    <glyph glyph-name="l" unicode="l" horiz-adv-x="260" 
d="M50 740h160v-740h-160v740z" />
    <glyph glyph-name="m" unicode="m" horiz-adv-x="860" 
d="M510 0h-160v327q0 61 -57 61q-31 0 -83 -27v-361h-160v498h154v-29q85 43 149 43q82 0 122 -49q101 49 162 49q92 0 132.5 -42.5t40.5 -135.5v-334h-160v327q0 61 -60 61q-33 0 -82 -28q2 -18 2 -26v-334z" />
    <glyph glyph-name="n" unicode="n" 
d="M521 335v-335h-160v328q0 60 -61 60q-34 0 -90 -27v-361h-160v498h154v-29q92 43 156 43q84 0 122.5 -44t38.5 -133z" />
    <glyph glyph-name="o" unicode="o" horiz-adv-x="592" 
d="M296 110q100 0 100 139t-100 139t-100 -139t100 -139zM496 447q65 -65 65 -198q0 -134 -65 -199q-64 -64 -200 -64t-200 64q-65 65 -65 199q0 133 65 198t200 65t200 -65z" />
    <glyph glyph-name="p" unicode="p" horiz-adv-x="583" 
d="M210 26v-226h-160v698h154v-29q87 43 151 43q100 0 147.5 -63.5t47.5 -199.5t-47.5 -199.5t-147.5 -63.5q-39 0 -69 9q-31 9 -76 31zM210 361v-224q54 -27 88 -27q45 0 66 32.5t21 106.5t-21 106.5t-66 32.5q-34 0 -88 -27z" />
    <glyph glyph-name="q" unicode="q" horiz-adv-x="583" 
d="M533 -200h-160v226q-45 -22 -76 -31q-30 -9 -69 -9q-100 0 -147.5 63.5t-47.5 199.5t47.5 199.5t147.5 63.5q64 0 151 -43v29h154v-698zM373 137v224q-54 27 -88 27q-45 0 -66 -32.5t-21 -106.5t21 -106.5t66 -32.5q34 0 88 27z" />
    <glyph glyph-name="r" unicode="r" horiz-adv-x="366" 
d="M344 512l11 -138q-79 -6 -145 -34v-340h-160v498h150v-37q74 47 144 51z" />
    <glyph glyph-name="s" unicode="s" horiz-adv-x="480" 
d="M229 -14q-89 0 -201 30l27 142q88 -53 170 -53q33 0 46.5 9t13.5 28q0 18 -12 27t-42 13l-28 4q-83 12 -120.5 51.5t-37.5 112.5q0 162 206 162q65 0 178 -25l-26 -134q-89 40 -144 40q-50 0 -50 -34q0 -17 10.5 -25.5t42.5 -14.5l28 -5q87 -14 123.5 -56t36.5 -110
q0 -162 -221 -162z" />
    <glyph glyph-name="t" unicode="t" horiz-adv-x="449" 
d="M80 498v142h160v-142h163v-124h-163v-178q0 -46 17 -66t65 -20q33 0 83 11l14 -119q-86 -16 -142 -16q-113 0 -155 47t-42 159v182h-62v124h62z" />
    <glyph glyph-name="u" unicode="u" 
d="M50 163v335h160v-328q0 -60 61 -60q35 0 90 27v361h160v-498h-154v29q-92 -43 -156 -43q-84 0 -122.5 44t-38.5 133z" />
    <glyph glyph-name="v" unicode="v" horiz-adv-x="572" 
d="M179 498l71 -230l34 -112h3q22 74 35 112l71 230h174l-172 -498h-218l-172 498h174z" />
    <glyph glyph-name="w" unicode="w" horiz-adv-x="844" 
d="M249 169h3q18 90 22 104l62 225h172l62 -225q4 -14 22 -104h3q16 96 19 106l56 223h163l-137 -498h-190l-58 212q-15 53 -25 109h-2q-13 -68 -25 -109l-58 -212h-190l-137 498h163l56 -223q3 -10 19 -106z" />
    <glyph glyph-name="x" unicode="x" horiz-adv-x="552" 
d="M359 498h184l-130 -247l137 -251h-184l-86 185l-94 -185h-184l136 255l-129 243h184l79 -169z" />
    <glyph glyph-name="y" unicode="y" horiz-adv-x="572" 
d="M142 -87q77 0 100 80l7 25h-90l-154 480h174l73 -261l34 -119l34 119l73 261h174l-174 -541q-55 -171 -235 -171q-36 0 -86 8l10 128q26 -9 60 -9z" />
    <glyph glyph-name="z" unicode="z" horiz-adv-x="507" 
d="M242 124h235v-124h-447v124l224 250h-216v124h431v-124z" />
    <glyph glyph-name="braceleft" unicode="{" horiz-adv-x="422" 
d="M203 271v-2q43 -24 62.5 -70t19.5 -124q0 -82 26 -118t82 -43l-16 -124q-132 6 -192 71t-60 209q0 68 -20 100t-62 38v124q42 6 62 38t20 100q0 144 60 209t192 71l16 -124q-56 -7 -82 -43t-26 -118q0 -78 -19.5 -124t-62.5 -70z" />
    <glyph glyph-name="bar" unicode="|" horiz-adv-x="287" 
d="M229 740v-940h-171v940h171z" />
    <glyph glyph-name="braceright" unicode="}" horiz-adv-x="422" 
d="M219 269v2q-43 24 -62.5 70t-19.5 124q0 82 -26 118t-82 43l16 124q132 -6 192 -71t60 -209q0 -68 20 -100t62 -38v-124q-42 -6 -62 -38t-20 -100q0 -144 -60 -209t-192 -71l-16 124q56 7 82 43t26 118q0 78 19.5 124t62.5 70z" />
    <glyph glyph-name="asciitilde" unicode="~" horiz-adv-x="893" 
d="M743 359l71 -79q-66 -110 -184 -110q-52 0 -158 24l-107 24q-82 19 -102 19q-39 0 -64.5 -16.5t-48.5 -55.5l-71 79q66 110 184 110q51 0 158 -24l107 -24q82 -19 102 -19q39 0 64.5 16.5t48.5 55.5z" />
    <glyph glyph-name="uni00A0" unicode="&#xa0;" horiz-adv-x="215" 
 />
    <glyph glyph-name="exclamdown" unicode="&#xa1;" horiz-adv-x="300" 
d="M78 279h144l20 -479h-184zM64 351v149h172v-149h-172z" />
    <glyph glyph-name="cent" unicode="&#xa2;" horiz-adv-x="484" 
d="M233 508v154h120v-154q53 -5 100 -14l-25 -135q-72 29 -116 29q-60 0 -88 -34t-28 -105t28 -105t88 -34q44 0 116 29l25 -135q-47 -9 -100 -14v-154h-120v154q-202 25 -202 259t202 259z" />
    <glyph glyph-name="sterling" unicode="&#xa3;" horiz-adv-x="617" 
d="M584 135v-135h-474v266h-62v130h62v17q0 134 63.5 197.5t199.5 63.5q85 0 195 -18l-19 -147q-89 30 -149 30q-69 0 -94 -30t-25 -98v-15h186v-130h-186v-131h303z" />
    <glyph glyph-name="currency" unicode="&#xa4;" horiz-adv-x="626" 
d="M397 226q26 34 26 104t-26 104q-25 33 -84 33t-84 -33q-26 -34 -26 -104t26 -104q25 -33 84 -33t84 33zM101 451l-69 69l88 88l67 -67q50 26 126 26q72 0 126 -26l67 67l88 -88l-69 -69q24 -54 24 -121q0 -71 -26 -125l71 -71l-88 -88l-71 71q-49 -24 -122 -24
q-74 0 -122 24l-71 -71l-88 88l71 71q-26 54 -26 125q0 70 24 121z" />
    <glyph glyph-name="yen" unicode="&#xa5;" horiz-adv-x="712" 
d="M221 660l135 -238l135 238h201l-156 -261h102v-113h-171l-22 -36h193v-113h-197v-137h-170v137h-197v113h193l-22 36h-171v113h102l-156 261h201z" />
    <glyph glyph-name="brokenbar" unicode="&#xa6;" horiz-adv-x="287" 
d="M229 740v-414h-171v414h171zM229 214v-414h-171v414h171z" />
    <glyph glyph-name="section" unicode="&#xa7;" horiz-adv-x="650" 
d="M326 186l42 -5q55 16 55 72q0 30 -21 46.5t-78 22.5l-42 5q-55 -16 -55 -72q0 -30 21 -46.5t78 -22.5zM301 -36q69 0 69 38q0 37 -70 46l-31 4q-120 15 -170 65q-48 51 -48 126q0 115 109 155q-55 42 -55 116q0 80 58.5 120t189.5 40q75 0 214 -29l-26 -146
q-113 45 -192 45q-69 0 -69 -38q0 -37 70 -46l31 -4q121 -15 169 -66q49 -49 49 -125q0 -115 -109 -155q55 -42 55 -116q0 -80 -58.5 -120t-189.5 -40q-75 0 -214 29l26 146q113 -45 192 -45z" />
    <glyph glyph-name="dieresis" unicode="&#xa8;" horiz-adv-x="500" 
d="M196 740v-153h-139v153h139zM443 740v-153h-139v153h139z" />
    <glyph glyph-name="copyright" unicode="&#xa9;" horiz-adv-x="828" 
d="M760 527q23 -72 23 -177q0 -104 -23 -178q-43 -131 -187 -169q-66 -17 -159 -17q-92 0 -160 17q-143 38 -186 169q-23 74 -23 178q0 105 23 177q43 132 186 170q68 17 160 17q93 0 159 -17q144 -38 187 -170zM617 137q60 61 60 213t-60 212q-58 61 -203 61
q-144 0 -204 -61q-59 -61 -59 -212t59 -213q60 -60 204 -60t203 60zM446 227q38 0 98 26l19 -112q-73 -17 -132 -17q-104 0 -156 49q-53 50 -53 177t53 177q52 49 156 49q55 0 132 -16l-19 -115q-57 28 -98 28q-49 0 -70.5 -29.5t-21.5 -93.5t21.5 -93.5t70.5 -29.5z" />
    <glyph glyph-name="ordfeminine" unicode="&#xaa;" horiz-adv-x="475" 
d="M27 345q0 145 175 145q27 0 81 -6v20q0 32 -15.5 45.5t-51.5 13.5q-51 0 -141 -32l-20 116q113 27 175 27q105 0 151 -42.5t46 -125.5v-292h-139v21q-64 -34 -126 -34q-66 0 -100.5 37.5t-34.5 106.5zM224 394q-53 0 -53 -49q0 -48 47 -48q26 0 65 18v73q-39 6 -59 6z
" />
    <glyph glyph-name="guillemotleft" unicode="&#xab;" horiz-adv-x="552" 
d="M158 466h148l-140 -204l140 -204h-148l-141 204zM387 466h148l-140 -204l140 -204h-148l-141 204z" />
    <glyph glyph-name="logicalnot" unicode="&#xac;" horiz-adv-x="570" 
d="M55 254v120h460v-310h-124v190h-336z" />
    <glyph glyph-name="uni00AD" unicode="&#xad;" horiz-adv-x="405" 
d="M347 330v-136h-289v136h289z" />
    <glyph glyph-name="registered" unicode="&#xae;" horiz-adv-x="722" 
d="M602 640q75 -73 75 -248q0 -176 -75 -249q-73 -73 -241 -73t-242 73q-74 74 -74 249q0 174 74 248q76 74 242 74q167 0 241 -74zM532 203q49 52 49 189q0 136 -49 188q-48 53 -171 53q-122 0 -172 -53q-48 -52 -48 -188t48 -189q49 -52 172 -52t171 52zM329 491v-75h26
q41 0 41 38q0 39 -41 39q-10 0 -26 -2zM499 455q0 -70 -51 -94l64 -137l-110 -12l-52 126h-21v-124h-103v342q76 15 128 15q145 0 145 -116z" />
    <glyph glyph-name="overscore" unicode="&#xaf;" horiz-adv-x="500" 
d="M425 728v-129h-350v129h350z" />
    <glyph glyph-name="degree" unicode="&#xb0;" horiz-adv-x="428" 
d="M341 635q43 -39 43 -122t-43 -122q-42 -39 -127 -39q-84 0 -128 39q-42 39 -42 122t42 122q44 39 128 39q85 0 127 -39zM173 566q-11 -19 -11 -53t11 -53q12 -18 41 -18q30 0 40 18q12 18 12 53t-12 53q-10 18 -40 18q-29 0 -41 -18z" />
    <glyph glyph-name="plusminus" unicode="&#xb1;" horiz-adv-x="570" 
d="M55 47v120h460v-120h-460zM515 509v-120h-168v-159h-124v159h-168v120h168v158h124v-158h168z" />
    <glyph glyph-name="twosuperior" unicode="&#xb2;" horiz-adv-x="366" 
d="M317 551q0 -49 -25 -76.5t-87 -42.5l-9 -2q-32 -9 -41.5 -17t-10.5 -31h172v-85h-272v85q0 53 23.5 81.5t84.5 43.5l8 2q27 6 36.5 14t9.5 25q0 34 -49 34q-42 0 -95 -21l-14 92q78 15 119 15q150 0 150 -117z" />
    <glyph glyph-name="threesuperior" unicode="&#xb3;" horiz-adv-x="339" 
d="M293 397q0 -108 -153 -108q-54 0 -125 13l14 92q54 -21 98 -21q54 0 54 34q0 33 -54 33q-25 0 -55 -2v86q26 -2 55 -2q47 0 47 30q0 31 -47 31q-37 0 -88 -17l-13 89q68 12 114 12q144 0 144 -100q0 -57 -45 -79q54 -25 54 -91z" />
    <glyph glyph-name="acute" unicode="&#xb4;" horiz-adv-x="500" 
d="M121 571l94 183h163l-132 -183h-125z" />
    <glyph glyph-name="mu" unicode="&#xb5;" 
d="M361 137v361h160v-498h-146v24q-47 -38 -103 -38q-40 0 -72 24l6 -210h-156v698h160v-328q0 -60 62 -60q34 0 89 27z" />
    <glyph glyph-name="mu" unicode="&#x3bc;" 
d="M361 137v361h160v-498h-146v24q-47 -38 -103 -38q-40 0 -72 24l6 -210h-156v698h160v-328q0 -60 62 -60q34 0 89 27z" />
    <glyph glyph-name="paragraph" unicode="&#xb6;" horiz-adv-x="734" 
d="M257 -150v405q-111 2 -163 50.5t-52 151.5q0 104 54 153.5t171 49.5h390v-810h-160v686h-80v-686h-160z" />
    <glyph glyph-name="middot" unicode="&#xb7;" horiz-adv-x="308" 
d="M240 337v-149h-172v149h172z" />
    <glyph glyph-name="cedilla" unicode="&#xb8;" horiz-adv-x="500" 
d="M214 -99q-24 0 -57 -3l15 112h95l-6 -42q98 -11 98 -101q0 -103 -126 -103q-45 0 -92 10l10 73q36 -14 63 -14q44 0 44 34t-44 34z" />
    <glyph glyph-name="onesuperior" unicode="&#xb9;" horiz-adv-x="300" 
d="M192 660v-363h-109v278h-57v85h166z" />
    <glyph glyph-name="ordmasculine" unicode="&#xba;" horiz-adv-x="539" 
d="M270 312q90 0 90 125t-90 125t-90 -125t90 -125zM449 615q59 -59 59 -178q0 -120 -59 -179q-58 -58 -179 -58q-122 0 -180 58q-59 59 -59 179q0 119 59 178t180 59q120 0 179 -59z" />
    <glyph glyph-name="guillemotright" unicode="&#xbb;" horiz-adv-x="552" 
d="M246 58l140 204l-140 204h148l141 -204l-141 -204h-148zM17 58l140 204l-140 204h148l141 -204l-141 -204h-148z" />
    <glyph glyph-name="onequarter" unicode="&#xbc;" horiz-adv-x="699" 
d="M436 660h113l-374 -660h-113zM192 660v-363h-109v278h-57v85h166zM659 156v-85h-45v-71h-109v71h-163v98l153 194h119v-207h45zM427 156h78v103z" />
    <glyph glyph-name="onehalf" unicode="&#xbd;" horiz-adv-x="728" 
d="M436 660h113l-374 -660h-113zM192 660v-363h-109v278h-57v85h166zM679 254q0 -49 -25 -76.5t-87 -42.5l-9 -2q-32 -9 -41.5 -17t-10.5 -31h172v-85h-272v85q0 53 23.5 81.5t84.5 43.5l8 2q27 6 36.5 14t9.5 25q0 34 -49 34q-43 0 -95 -21l-14 92q78 15 119 15
q150 0 150 -117z" />
    <glyph glyph-name="threequarters" unicode="&#xbe;" horiz-adv-x="772" 
d="M509 660h113l-374 -660h-113zM293 397q0 -108 -153 -108q-54 0 -125 13l14 92q54 -21 98 -21q54 0 54 34q0 33 -54 33q-25 0 -55 -2v86q26 -2 55 -2q47 0 47 30q0 31 -47 31q-37 0 -88 -17l-13 89q68 12 114 12q144 0 144 -100q0 -57 -45 -79q54 -25 54 -91zM732 156v-85
h-45v-71h-109v71h-163v98l153 194h119v-207h45zM500 156h78v103z" />
    <glyph glyph-name="questiondown" unicode="&#xbf;" horiz-adv-x="553" 
d="M265 351v149h172v-149h-172zM58 10q0 190 207 219v51h172v-181h-76q-66 0 -96.5 -21.5t-30.5 -67.5q0 -44 29 -66.5t98 -22.5q49 0 111 20l23 -143q-83 -12 -142 -12q-152 0 -223.5 56t-71.5 168z" />
    <glyph glyph-name="Agrave" unicode="&#xc0;" horiz-adv-x="702" 
d="M484 700l216 -700h-191l-50 173h-216l-50 -173h-191l216 700h266zM351 549l-67 -231h134zM441 736h-133l-132 183h171z" />
    <glyph glyph-name="Aacute" unicode="&#xc1;" horiz-adv-x="702" 
d="M484 700l216 -700h-191l-50 173h-216l-50 -173h-191l216 700h266zM351 549l-67 -231h134zM353 919h171l-132 -183h-133z" />
    <glyph glyph-name="Acircumflex" unicode="&#xc2;" horiz-adv-x="702" 
d="M484 700l216 -700h-191l-50 173h-216l-50 -173h-191l216 700h266zM351 549l-67 -231h134zM163 735l93 183h190l93 -183h-119l-69 107l-69 -107h-119z" />
    <glyph glyph-name="Atilde" unicode="&#xc3;" horiz-adv-x="702" 
d="M484 700l216 -700h-191l-50 173h-216l-50 -173h-191l216 700h266zM351 549l-67 -231h134zM523 924l55 -93q-58 -88 -141 -88q-54 0 -113 34q-38 21 -65 21q-48 0 -80 -56l-55 93q58 88 141 88q54 0 113 -34q38 -21 65 -21q48 0 80 56z" />
    <glyph glyph-name="Adieresis" unicode="&#xc4;" horiz-adv-x="702" 
d="M484 700l216 -700h-191l-50 173h-216l-50 -173h-191l216 700h266zM351 549l-67 -231h134zM288 903v-153h-139v153h139zM553 903v-153h-139v153h139z" />
    <glyph glyph-name="Aring" unicode="&#xc5;" horiz-adv-x="702" 
d="M484 700l216 -700h-191l-50 173h-216l-50 -173h-191l216 700h266zM351 549l-67 -231h134zM351 950q123 0 123 -116t-123 -116t-123 116t123 116zM351 885q-39 0 -39 -51t39 -51t39 51t-39 51z" />
    <glyph glyph-name="AE" unicode="&#xc6;" horiz-adv-x="977" 
d="M302 380h168v175h-118zM943 145v-145h-473v235h-209l-68 -235h-191l216 700h715v-145h-283v-131h242v-142h-242v-137h293z" />
    <glyph glyph-name="Ccedilla" unicode="&#xc7;" horiz-adv-x="607" 
d="M385 131q69 0 165 40l27 -158q-101 -21 -164 -25l-3 -20q98 -11 98 -101q0 -103 -126 -103q-45 0 -92 10l10 73q36 -14 63 -14q44 0 44 34t-44 34q-24 0 -57 -3l12 90q-129 7 -203 83q-80 82 -80 279q0 216 95 294q46 38 101.5 54t134.5 16q89 0 211 -25l-27 -162
q-99 42 -165 42q-87 0 -125.5 -52t-38.5 -167t38.5 -167t125.5 -52z" />
    <glyph glyph-name="Egrave" unicode="&#xc8;" horiz-adv-x="565" 
d="M238 145h293v-145h-473v700h463v-145h-283v-131h242v-142h-242v-137zM379 736h-133l-132 183h171z" />
    <glyph glyph-name="Eacute" unicode="&#xc9;" horiz-adv-x="565" 
d="M238 145h293v-145h-473v700h463v-145h-283v-131h242v-142h-242v-137zM291 919h171l-132 -183h-133z" />
    <glyph glyph-name="Ecircumflex" unicode="&#xca;" horiz-adv-x="565" 
d="M238 145h293v-145h-473v700h463v-145h-283v-131h242v-142h-242v-137zM101 735l93 183h190l93 -183h-119l-69 107l-69 -107h-119z" />
    <glyph glyph-name="Edieresis" unicode="&#xcb;" horiz-adv-x="565" 
d="M238 145h293v-145h-473v700h463v-145h-283v-131h242v-142h-242v-137zM226 903v-153h-139v153h139zM491 903v-153h-139v153h139z" />
    <glyph glyph-name="Igrave" unicode="&#xcc;" horiz-adv-x="296" 
d="M238 700v-700h-180v700h180zM248 736h-133l-132 183h171z" />
    <glyph glyph-name="Iacute" unicode="&#xcd;" horiz-adv-x="296" 
d="M238 700v-700h-180v700h180zM142 919h171l-132 -183h-133z" />
    <glyph glyph-name="Icircumflex" unicode="&#xce;" horiz-adv-x="296" 
d="M238 700v-700h-180v700h180zM-40 735l93 183h190l93 -183h-119l-69 107l-69 -107h-119z" />
    <glyph glyph-name="Idieresis" unicode="&#xcf;" horiz-adv-x="296" 
d="M112 904v-154h-132v154h132zM316 904v-154h-133v154h133zM238 700v-700h-180v700h180z" />
    <glyph glyph-name="Eth" unicode="&#xd0;" horiz-adv-x="723" 
d="M11 422h59v262q140 30 259 30q187 0 272 -84q87 -84 87 -280t-87 -280q-85 -84 -272 -84q-119 0 -259 30v263h-59v143zM323 569q-33 0 -73 -5v-142h89v-143h-89v-143q40 -5 73 -5q100 0 139 51q40 50 40 168t-40 168q-39 51 -139 51z" />
    <glyph glyph-name="Ntilde" unicode="&#xd1;" horiz-adv-x="702" 
d="M466 700h178v-700h-205l-162 312q-27 54 -47 114h-2q8 -70 8 -120v-306h-178v700h205l162 -312q27 -54 47 -114h2q-8 70 -8 120v306zM523 924l55 -93q-58 -88 -141 -88q-54 0 -113 34q-38 21 -65 21q-48 0 -80 -56l-55 93q58 88 141 88q54 0 113 -34q38 -21 65 -21
q48 0 80 56z" />
    <glyph glyph-name="Ograve" unicode="&#xd2;" horiz-adv-x="734" 
d="M478 184q35 55 35 166q0 112 -35 165q-34 54 -111 54t-111 -54q-35 -53 -35 -165q0 -111 35 -166q35 -53 111 -53t111 53zM119 69q-84 83 -84 281t84 281q85 83 248 83t248 -83q84 -83 84 -281t-84 -281q-85 -83 -248 -83t-248 83zM479 736h-133l-132 183h171z" />
    <glyph glyph-name="Oacute" unicode="&#xd3;" horiz-adv-x="734" 
d="M478 184q35 55 35 166q0 112 -35 165q-34 54 -111 54t-111 -54q-35 -53 -35 -165q0 -111 35 -166q35 -53 111 -53t111 53zM119 69q-84 83 -84 281t84 281q85 83 248 83t248 -83q84 -83 84 -281t-84 -281q-85 -83 -248 -83t-248 83zM373 919h171l-132 -183h-133z" />
    <glyph glyph-name="Ocircumflex" unicode="&#xd4;" horiz-adv-x="734" 
d="M478 184q35 55 35 166q0 112 -35 165q-34 54 -111 54t-111 -54q-35 -53 -35 -165q0 -111 35 -166q35 -53 111 -53t111 53zM119 69q-84 83 -84 281t84 281q85 83 248 83t248 -83q84 -83 84 -281t-84 -281q-85 -83 -248 -83t-248 83zM179 735l93 183h190l93 -183h-119
l-69 107l-69 -107h-119z" />
    <glyph glyph-name="Otilde" unicode="&#xd5;" horiz-adv-x="734" 
d="M478 184q35 55 35 166q0 112 -35 165q-34 54 -111 54t-111 -54q-35 -53 -35 -165q0 -111 35 -166q35 -53 111 -53t111 53zM119 69q-84 83 -84 281t84 281q85 83 248 83t248 -83q84 -83 84 -281t-84 -281q-85 -83 -248 -83t-248 83zM539 924l55 -93q-58 -88 -141 -88
q-54 0 -113 34q-37 21 -65 21q-48 0 -80 -56l-55 93q58 88 141 88q54 0 113 -34q38 -21 65 -21q48 0 80 56z" />
    <glyph glyph-name="Odieresis" unicode="&#xd6;" horiz-adv-x="734" 
d="M478 184q35 55 35 166q0 112 -35 165q-34 54 -111 54t-111 -54q-35 -53 -35 -165q0 -111 35 -166q35 -53 111 -53t111 53zM119 69q-84 83 -84 281t84 281q85 83 248 83t248 -83q84 -83 84 -281t-84 -281q-85 -83 -248 -83t-248 83zM304 903v-153h-139v153h139zM569 903
v-153h-139v153h139z" />
    <glyph glyph-name="multiply" unicode="&#xd7;" horiz-adv-x="570" 
d="M78 454l87 87l120 -119l119 118l87 -87l-118 -119l118 -119l-87 -87l-119 118l-120 -119l-87 87l119 120z" />
    <glyph glyph-name="Oslash" unicode="&#xd8;" horiz-adv-x="734" 
d="M367 569q-75 0 -110.5 -53.5t-35.5 -165.5q0 -66 11 -112l165 329q-24 2 -30 2zM367 131q77 0 111.5 53t34.5 166q0 66 -12 111l-165 -328q14 -2 31 -2zM266 -6l-29 -59h-157l59 116q-104 86 -104 299q0 198 84 281q85 83 248 83q47 0 100 -8l30 59h157l-58 -116
q103 -84 103 -299q0 -198 -84 -281q-85 -83 -248 -83q-48 0 -101 8z" />
    <glyph glyph-name="Ugrave" unicode="&#xd9;" horiz-adv-x="700" 
d="M468 263v437h180v-439q0 -150 -72 -213q-71 -62 -226 -62q-154 0 -227 62q-71 63 -71 213v439h180v-437q0 -73 27 -102.5t91 -29.5t91 29.5t27 102.5zM446 736h-133l-132 183h171z" />
    <glyph glyph-name="Uacute" unicode="&#xda;" horiz-adv-x="700" 
d="M468 263v437h180v-439q0 -150 -72 -213q-71 -62 -226 -62q-154 0 -227 62q-71 63 -71 213v439h180v-437q0 -73 27 -102.5t91 -29.5t91 29.5t27 102.5zM350 919h171l-132 -183h-133z" />
    <glyph glyph-name="Ucircumflex" unicode="&#xdb;" horiz-adv-x="700" 
d="M468 263v437h180v-439q0 -150 -72 -213q-71 -62 -226 -62q-154 0 -227 62q-71 63 -71 213v439h180v-437q0 -73 27 -102.5t91 -29.5t91 29.5t27 102.5zM162 735l93 183h190l93 -183h-119l-69 107l-69 -107h-119z" />
    <glyph glyph-name="Udieresis" unicode="&#xdc;" horiz-adv-x="700" 
d="M468 263v437h180v-439q0 -150 -72 -213q-71 -62 -226 -62q-154 0 -227 62q-71 63 -71 213v439h180v-437q0 -73 27 -102.5t91 -29.5t91 29.5t27 102.5zM287 903v-153h-139v153h139zM552 903v-153h-139v153h139z" />
    <glyph glyph-name="Yacute" unicode="&#xdd;" horiz-adv-x="710" 
d="M-1 700h214l142 -254l142 254h214l-266 -441v-259h-180v259zM368 919h171l-132 -183h-133z" />
    <glyph glyph-name="Thorn" unicode="&#xde;" horiz-adv-x="619" 
d="M238 450v-180q40 -5 64 -5q109 0 109 95t-109 95q-24 0 -64 -5zM58 700h180v-103q8 0 34 1.5t34 1.5q285 0 285 -240t-285 -240q-34 0 -68 3v-123h-180v700z" />
    <glyph glyph-name="germandbls" unicode="&#xdf;" horiz-adv-x="621" 
d="M590 207q0 -107 -62 -164t-184 -57q-37 0 -65 4v122q26 -2 37 -2q58 0 83.5 26.5t25.5 79.5q0 54 -25 80t-83 26h-38v124h33q84 0 84 91q0 93 -80 93q-42 0 -62 -25.5t-20 -82.5v-522h-160v322h-56v124h56v77q0 115 62.5 173t180.5 58q126 0 182 -57q55 -55 55 -144
q0 -105 -74 -152q110 -47 110 -194z" />
    <glyph glyph-name="agrave" unicode="&#xe0;" horiz-adv-x="519" 
d="M27 146q0 80 46 120.5t148 40.5q31 0 90 -6v22q0 36 -17 50.5t-57 14.5q-57 0 -157 -35l-22 129q124 30 195 30q116 0 167 -47t51 -140v-325h-154v24q-74 -38 -140 -38q-74 0 -112 41.5t-38 118.5zM246 200q-59 0 -59 -54q0 -53 52 -53q30 0 72 20v81q-42 6 -65 6z
M225 571l-132 183h163l94 -183h-125z" />
    <glyph glyph-name="aacute" unicode="&#xe1;" horiz-adv-x="519" 
d="M27 146q0 80 46 120.5t148 40.5q31 0 90 -6v22q0 36 -17 50.5t-57 14.5q-57 0 -157 -35l-22 129q124 30 195 30q116 0 167 -47t51 -140v-325h-154v24q-74 -38 -140 -38q-74 0 -112 41.5t-38 118.5zM246 200q-59 0 -59 -54q0 -53 52 -53q30 0 72 20v81q-42 6 -65 6z
M177 571l94 183h163l-132 -183h-125z" />
    <glyph glyph-name="acircumflex" unicode="&#xe2;" horiz-adv-x="519" 
d="M27 146q0 80 46 120.5t148 40.5q31 0 90 -6v22q0 36 -17 50.5t-57 14.5q-57 0 -157 -35l-22 129q124 30 195 30q116 0 167 -47t51 -140v-325h-154v24q-74 -38 -140 -38q-74 0 -112 41.5t-38 118.5zM246 200q-59 0 -59 -54q0 -53 52 -53q30 0 72 20v81q-42 6 -65 6z
M85 571l90 183h188l90 -183h-118l-66 106l-66 -106h-118z" />
    <glyph glyph-name="atilde" unicode="&#xe3;" horiz-adv-x="519" 
d="M27 146q0 80 46 120.5t148 40.5q31 0 90 -6v22q0 36 -17 50.5t-57 14.5q-57 0 -157 -35l-22 129q124 30 195 30q116 0 167 -47t51 -140v-325h-154v24q-74 -38 -140 -38q-74 0 -112 41.5t-38 118.5zM246 200q-59 0 -59 -54q0 -53 52 -53q30 0 72 20v81q-42 6 -65 6z
M428 747l51 -86q-54 -81 -130 -81q-50 0 -105 31q-35 20 -60 20q-46 0 -74 -52l-51 86q54 81 130 81q50 0 105 -31q35 -20 60 -20q46 0 74 52z" />
    <glyph glyph-name="adieresis" unicode="&#xe4;" horiz-adv-x="519" 
d="M27 146q0 80 46 120.5t148 40.5q31 0 90 -6v22q0 36 -17 50.5t-57 14.5q-57 0 -157 -35l-22 129q124 30 195 30q116 0 167 -47t51 -140v-325h-154v24q-74 -38 -140 -38q-74 0 -112 41.5t-38 118.5zM246 200q-59 0 -59 -54q0 -53 52 -53q30 0 72 20v81q-42 6 -65 6z
M215 740v-153h-139v153h139zM462 740v-153h-139v153h139z" />
    <glyph glyph-name="aring" unicode="&#xe5;" horiz-adv-x="519" 
d="M27 146q0 80 46 120.5t148 40.5q31 0 90 -6v22q0 36 -17 50.5t-57 14.5q-57 0 -157 -35l-22 129q124 30 195 30q116 0 167 -47t51 -140v-325h-154v24q-74 -38 -140 -38q-74 0 -112 41.5t-38 118.5zM246 200q-59 0 -59 -54q0 -53 52 -53q30 0 72 20v81q-42 6 -65 6z
M269 773q123 0 123 -116t-123 -116t-123 116t123 116zM269 708q-39 0 -39 -51t39 -51t39 51t-39 51z" />
    <glyph glyph-name="ae" unicode="&#xe6;" horiz-adv-x="844" 
d="M246 200q-59 0 -59 -54q0 -53 52 -53q30 0 72 20v81q-42 6 -65 6zM567 397q-84 0 -93 -84h183q-3 84 -90 84zM612 110q90 0 171 25l23 -122q-117 -27 -219 -27q-135 0 -202 51q-121 -51 -198 -51q-160 0 -160 160q0 80 46 120.5t148 40.5q31 0 90 -6v22q0 36 -17 50.5
t-57 14.5q-57 0 -157 -35l-22 129q124 30 195 30q98 0 153 -37q61 37 161 37q131 0 188.5 -64.5t57.5 -198.5v-39h-342q5 -55 35.5 -77.5t105.5 -22.5z" />
    <glyph glyph-name="ccedilla" unicode="&#xe7;" horiz-adv-x="484" 
d="M293 -99q-24 0 -57 -3l12 91q-110 10 -163.5 73t-53.5 187q0 136 65.5 199.5t198.5 63.5q62 0 158 -18l-25 -135q-72 29 -116 29q-60 0 -88 -34t-28 -105t28 -105t88 -34q44 0 116 29l25 -135q-58 -10 -110 -15l-3 -21q98 -11 98 -101q0 -103 -126 -103q-45 0 -92 10
l10 73q36 -14 63 -14q44 0 44 34t-44 34z" />
    <glyph glyph-name="egrave" unicode="&#xe8;" 
d="M339 110q90 0 171 25l23 -122q-117 -27 -219 -27q-147 0 -215 63t-68 200q0 263 263 263q131 0 188.5 -64.5t57.5 -198.5v-39h-342q5 -55 35.5 -77.5t105.5 -22.5zM294 397q-84 0 -93 -84h183q-3 84 -90 84zM263 571l-132 183h163l94 -183h-125z" />
    <glyph glyph-name="eacute" unicode="&#xe9;" 
d="M339 110q90 0 171 25l23 -122q-117 -27 -219 -27q-147 0 -215 63t-68 200q0 263 263 263q131 0 188.5 -64.5t57.5 -198.5v-39h-342q5 -55 35.5 -77.5t105.5 -22.5zM294 397q-84 0 -93 -84h183q-3 84 -90 84zM193 571l94 183h163l-132 -183h-125z" />
    <glyph glyph-name="ecircumflex" unicode="&#xea;" 
d="M339 110q90 0 171 25l23 -122q-117 -27 -219 -27q-147 0 -215 63t-68 200q0 263 263 263q131 0 188.5 -64.5t57.5 -198.5v-39h-342q5 -55 35.5 -77.5t105.5 -22.5zM294 397q-84 0 -93 -84h183q-3 84 -90 84zM101 571l90 183h188l90 -183h-118l-66 106l-66 -106h-118z" />
    <glyph glyph-name="edieresis" unicode="&#xeb;" 
d="M339 110q90 0 171 25l23 -122q-117 -27 -219 -27q-147 0 -215 63t-68 200q0 263 263 263q131 0 188.5 -64.5t57.5 -198.5v-39h-342q5 -55 35.5 -77.5t105.5 -22.5zM294 397q-84 0 -93 -84h183q-3 84 -90 84zM231 740v-153h-139v153h139zM478 740v-153h-139v153h139z" />
    <glyph glyph-name="igrave" unicode="&#xec;" horiz-adv-x="260" 
d="M210 498v-498h-160v498h160zM107 571l-132 183h163l94 -183h-125z" />
    <glyph glyph-name="iacute" unicode="&#xed;" horiz-adv-x="260" 
d="M210 498v-498h-160v498h160zM28 571l94 183h163l-132 -183h-125z" />
    <glyph glyph-name="icircumflex" unicode="&#xee;" horiz-adv-x="260" 
d="M-54 571l90 183h188l90 -183h-118l-66 106l-66 -106h-118zM210 498v-498h-160v498h160z" />
    <glyph glyph-name="idieresis" unicode="&#xef;" horiz-adv-x="260" 
d="M210 498v-498h-160v498h160zM105 740v-153h-120v153h120zM275 740v-153h-120v153h120z" />
    <glyph glyph-name="eth" unicode="&#xf0;" horiz-adv-x="608" 
d="M390 463q-17 53 -44 105l-63 -38l-48 78l64 39q-26 36 -43 57l131 74q18 -22 41 -54l71 43l49 -78l-70 -42q95 -172 95 -367q0 -294 -277 -294q-265 0 -265 254q0 129 54.5 191.5t168.5 62.5q71 0 136 -31zM196 239q0 -129 100 -129q110 0 110 153q0 56 -4 84
q-61 23 -106 23q-54 0 -77 -31t-23 -100z" />
    <glyph glyph-name="ntilde" unicode="&#xf1;" 
d="M521 335v-335h-160v328q0 60 -61 60q-34 0 -90 -27v-361h-160v498h154v-29q92 43 156 43q84 0 122.5 -44t38.5 -133zM445 747l51 -86q-54 -81 -130 -81q-50 0 -105 31q-35 20 -60 20q-46 0 -74 -52l-51 86q54 81 130 81q50 0 105 -31q35 -20 60 -20q46 0 74 52z" />
    <glyph glyph-name="ograve" unicode="&#xf2;" horiz-adv-x="592" 
d="M296 110q100 0 100 139t-100 139t-100 -139t100 -139zM496 447q65 -65 65 -198q0 -134 -65 -199q-64 -64 -200 -64t-200 64q-65 65 -65 199q0 133 65 198t200 65t200 -65zM271 571l-132 183h163l94 -183h-125z" />
    <glyph glyph-name="oacute" unicode="&#xf3;" horiz-adv-x="592" 
d="M296 110q100 0 100 139t-100 139t-100 -139t100 -139zM496 447q65 -65 65 -198q0 -134 -65 -199q-64 -64 -200 -64t-200 64q-65 65 -65 199q0 133 65 198t200 65t200 -65zM214 571l94 183h163l-132 -183h-125z" />
    <glyph glyph-name="ocircumflex" unicode="&#xf4;" horiz-adv-x="592" 
d="M296 110q100 0 100 139t-100 139t-100 -139t100 -139zM496 447q65 -65 65 -198q0 -134 -65 -199q-64 -64 -200 -64t-200 64q-65 65 -65 199q0 133 65 198t200 65t200 -65zM112 571l90 183h188l90 -183h-118l-66 106l-66 -106h-118z" />
    <glyph glyph-name="otilde" unicode="&#xf5;" horiz-adv-x="592" 
d="M296 110q100 0 100 139t-100 139t-100 -139t100 -139zM496 447q65 -65 65 -198q0 -134 -65 -199q-64 -64 -200 -64t-200 64q-65 65 -65 199q0 133 65 198t200 65t200 -65zM455 747l51 -86q-54 -81 -130 -81q-50 0 -105 31q-35 20 -60 20q-46 0 -74 -52l-51 86
q54 81 130 81q50 0 105 -31q35 -20 60 -20q46 0 74 52z" />
    <glyph glyph-name="odieresis" unicode="&#xf6;" horiz-adv-x="592" 
d="M296 110q100 0 100 139t-100 139t-100 -139t100 -139zM496 447q65 -65 65 -198q0 -134 -65 -199q-64 -64 -200 -64t-200 64q-65 65 -65 199q0 133 65 198t200 65t200 -65zM242 740v-153h-139v153h139zM489 740v-153h-139v153h139z" />
    <glyph glyph-name="divide" unicode="&#xf7;" horiz-adv-x="570" 
d="M371 608v-149h-172v149h172zM371 209v-149h-172v149h172zM55 274v120h460v-120h-460z" />
    <glyph glyph-name="oslash" unicode="&#xf8;" horiz-adv-x="592" 
d="M561 249q0 -134 -65 -198.5t-200 -64.5q-28 0 -64 4l-27 -55h-134l48 96q-88 63 -88 218q0 134 65 198.5t200 64.5q30 0 63 -4l28 55h134l-49 -96q89 -62 89 -218zM396 249q0 38 -7 62l-100 -201h7q100 0 100 139zM196 249q0 -33 6 -60l99 199h-5q-100 0 -100 -139z" />
    <glyph glyph-name="ugrave" unicode="&#xf9;" 
d="M50 163v335h160v-328q0 -60 61 -60q35 0 90 27v361h160v-498h-154v29q-92 -43 -156 -43q-84 0 -122.5 44t-38.5 133zM259 571l-132 183h163l94 -183h-125z" />
    <glyph glyph-name="uacute" unicode="&#xfa;" 
d="M50 163v335h160v-328q0 -60 61 -60q35 0 90 27v361h160v-498h-154v29q-92 -43 -156 -43q-84 0 -122.5 44t-38.5 133zM188 571l94 183h163l-132 -183h-125z" />
    <glyph glyph-name="ucircumflex" unicode="&#xfb;" 
d="M50 163v335h160v-328q0 -60 61 -60q35 0 90 27v361h160v-498h-154v29q-92 -43 -156 -43q-84 0 -122.5 44t-38.5 133zM102 571l90 183h188l90 -183h-118l-66 106l-66 -106h-118z" />
    <glyph glyph-name="udieresis" unicode="&#xfc;" 
d="M50 163v335h160v-328q0 -60 61 -60q35 0 90 27v361h160v-498h-154v29q-92 -43 -156 -43q-84 0 -122.5 44t-38.5 133zM232 740v-153h-139v153h139zM479 740v-153h-139v153h139z" />
    <glyph glyph-name="yacute" unicode="&#xfd;" horiz-adv-x="572" 
d="M142 -87q77 0 100 80l7 25h-90l-154 480h174l73 -261l34 -119l34 119l73 261h174l-174 -541q-55 -171 -235 -171q-36 0 -86 8l10 128q26 -9 60 -9zM209 571l94 183h163l-132 -183h-125z" />
    <glyph glyph-name="thorn" unicode="&#xfe;" horiz-adv-x="583" 
d="M210 361v-224q54 -27 88 -27q45 0 66 32.5t21 106.5t-21 106.5t-66 32.5q-34 0 -88 -27zM50 740h160v-268q81 40 145 40q100 0 147.5 -63.5t47.5 -199.5t-47.5 -199.5t-147.5 -63.5q-39 0 -69 9q-31 9 -76 31v-226h-160v940z" />
    <glyph glyph-name="ydieresis" unicode="&#xff;" horiz-adv-x="572" 
d="M142 -87q77 0 100 80l7 25h-90l-154 480h174l73 -261l34 -119l34 119l73 261h174l-174 -541q-55 -171 -235 -171q-36 0 -86 8l10 128q26 -9 60 -9zM232 740v-153h-139v153h139zM479 740v-153h-139v153h139z" />
    <glyph glyph-name="dotlessi" unicode="&#x131;" horiz-adv-x="260" 
d="M210 498v-498h-160v498h160z" />
    <glyph glyph-name="Lslash" unicode="&#x141;" horiz-adv-x="535" 
d="M250 145h267v-145h-447v276l-59 -19v147l59 19v277h180v-221l130 41v-147l-130 -41v-187z" />
    <glyph glyph-name="lslash" unicode="&#x142;" horiz-adv-x="308" 
d="M74 740h160v-242l53 16v-135l-53 -16v-363h-160v314l-53 -16v135l53 16v291z" />
    <glyph glyph-name="OE" unicode="&#x152;" horiz-adv-x="1008" 
d="M501 170v360q-54 39 -134 39q-77 0 -111.5 -53t-34.5 -166t34.5 -166t111.5 -53q80 0 134 39zM681 145h293v-145h-477q-58 -14 -130 -14q-159 0 -243 74q-89 83 -89 290q0 209 89 289q82 75 243 75q74 0 128 -14h469v-145h-283v-131h242v-142h-242v-137z" />
    <glyph glyph-name="oe" unicode="&#x153;" horiz-adv-x="936" 
d="M296 110q100 0 100 139t-100 139t-100 -139t100 -139zM659 397q-84 0 -93 -84h183q-3 84 -90 84zM704 110q90 0 171 25l23 -122q-117 -27 -219 -27q-132 0 -200 50q-64 -50 -183 -50q-135 0 -200 64.5t-65 198.5t65 198.5t200 64.5q117 0 182 -50q65 50 181 50
q131 0 188.5 -64.5t57.5 -198.5v-39h-342q5 -55 35.5 -77.5t105.5 -22.5z" />
    <glyph glyph-name="Scaron" unicode="&#x160;" horiz-adv-x="609" 
d="M297 131q51 0 71 17t20 51q0 63 -82 73l-35 5q-127 18 -175 73t-48 148q0 216 258 216q92 0 243 -32l-25 -160q-124 47 -211 47q-43 0 -61.5 -15.5t-18.5 -48.5q0 -31 17 -47t62 -22l39 -6q126 -19 174 -77q49 -55 49 -147q0 -220 -277 -220q-121 0 -266 37l27 169
q118 -61 239 -61zM497 918l-93 -183h-190l-93 183h119l69 -107l69 107h119z" />
    <glyph glyph-name="scaron" unicode="&#x161;" horiz-adv-x="480" 
d="M229 -14q-89 0 -201 30l27 142q88 -53 170 -53q33 0 46.5 9t13.5 28q0 18 -12 27t-42 13l-28 4q-83 12 -120.5 51.5t-37.5 112.5q0 162 206 162q65 0 178 -25l-26 -134q-89 40 -144 40q-50 0 -50 -34q0 -17 10.5 -25.5t42.5 -14.5l28 -5q87 -14 123.5 -56t36.5 -110
q0 -162 -221 -162zM442 753l-90 -183h-188l-90 183h118l66 -106l66 106h118z" />
    <glyph glyph-name="Ydieresis" unicode="&#x178;" horiz-adv-x="710" 
d="M-1 700h214l142 -254l142 254h214l-266 -441v-259h-180v259zM292 903v-153h-139v153h139zM557 903v-153h-139v153h139z" />
    <glyph glyph-name="Zcaron" unicode="&#x17d;" horiz-adv-x="607" 
d="M255 145h319v-145h-541v145l306 410h-293v145h515v-145zM491 918l-93 -183h-190l-93 183h119l69 -107l69 107h119z" />
    <glyph glyph-name="zcaron" unicode="&#x17e;" horiz-adv-x="507" 
d="M242 124h235v-124h-447v124l224 250h-216v124h431v-124zM438 753l-90 -183h-188l-90 183h118l66 -106l66 106h118z" />
    <glyph glyph-name="florin" unicode="&#x192;" horiz-adv-x="513" 
d="M430 395v-135h-143l-55 -320h-172l54 320h-79v135h102l5 32q21 130 81 188.5t183 58.5q51 0 95 -4l-18 -143q-41 12 -72 12q-42 0 -64 -26t-32 -88l-5 -30h120z" />
    <glyph glyph-name="circumflex" unicode="&#x2c6;" horiz-adv-x="500" 
d="M66 571l90 183h188l90 -183h-118l-66 106l-66 -106h-118z" />
    <glyph glyph-name="caron" unicode="&#x2c7;" horiz-adv-x="500" 
d="M434 753l-90 -183h-188l-90 183h118l66 -106l66 106h118z" />
    <glyph glyph-name="breve" unicode="&#x2d8;" horiz-adv-x="500" 
d="M250 578q-136 0 -196 95l88 79q37 -58 108 -58t108 58l88 -79q-62 -95 -196 -95z" />
    <glyph glyph-name="dotaccent" unicode="&#x2d9;" horiz-adv-x="500" 
d="M330 740v-153h-160v153h160z" />
    <glyph glyph-name="ring" unicode="&#x2da;" horiz-adv-x="500" 
d="M250 773q123 0 123 -116t-123 -116t-123 116t123 116zM250 708q-39 0 -39 -51t39 -51t39 51t-39 51z" />
    <glyph glyph-name="ogonek" unicode="&#x2db;" horiz-adv-x="500" 
d="M141 -134q0 44 38 91l44 53h98l-62 -90q-17 -26 -17 -47q0 -39 38 -39q31 0 69 13l10 -72q-52 -11 -93 -11q-125 0 -125 102z" />
    <glyph glyph-name="tilde" unicode="&#x2dc;" horiz-adv-x="500" 
d="M409 747l51 -86q-54 -81 -130 -81q-50 0 -105 31q-35 20 -60 20q-46 0 -74 -52l-51 86q54 81 130 81q50 0 105 -31q35 -20 60 -20q46 0 74 52z" />
    <glyph glyph-name="hungarumlaut" unicode="&#x2dd;" horiz-adv-x="500" 
d="M8 571l94 183h156l-132 -183h-118zM242 571l94 183h156l-132 -183h-118z" />
    <glyph glyph-name="acutecomb" unicode="&#x301;" horiz-adv-x="0" 
d="M-399 571l94 183h163l-132 -183h-125z" />
    <glyph glyph-name="uni0394" unicode="&#x394;" horiz-adv-x="662" 
d="M331 548l-116 -403h232zM635 0h-608v145l171 555h266l171 -555v-145z" />
    <glyph glyph-name="uni0394" unicode="&#x2206;" horiz-adv-x="662" 
d="M331 548l-116 -403h232zM635 0h-608v145l171 555h266l171 -555v-145z" />
    <glyph glyph-name="uni03A9" unicode="&#x3a9;" horiz-adv-x="736" 
d="M230 406q0 -56 22.5 -115.5t74.5 -145.5v-145h-265v145h93q-58 76 -84.5 143t-26.5 144q0 138 82 210t242 72t242 -72t82 -210q0 -77 -26.5 -144t-84.5 -143h93v-145h-265v145q52 86 74.5 145.5t22.5 115.5q0 163 -138 163t-138 -163z" />
    <glyph glyph-name="uni03A9" unicode="&#x2126;" horiz-adv-x="736" 
d="M230 406q0 -56 22.5 -115.5t74.5 -145.5v-145h-265v145h93q-58 76 -84.5 143t-26.5 144q0 138 82 210t242 72t242 -72t82 -210q0 -77 -26.5 -144t-84.5 -143h93v-145h-265v145q52 86 74.5 145.5t22.5 115.5q0 163 -138 163t-138 -163z" />
    <glyph glyph-name="pi" unicode="&#x3c0;" horiz-adv-x="602" 
d="M568 374h-41v-374h-160v374h-132v-374h-160v374h-41v124h534v-124z" />
    <glyph glyph-name="afii10023" unicode="&#x401;" horiz-adv-x="565" 
d="M238 145h293v-145h-473v700h463v-145h-283v-131h242v-142h-242v-137zM227 903v-153h-139v153h139zM492 903v-153h-139v153h139z" />
    <glyph glyph-name="afii10051" unicode="&#x402;" horiz-adv-x="808" 
d="M608 555h-222v-157q65 9 104 9q143 0 211 -69t68 -211q0 -112 -48 -187q-55 -88 -211 -100l-5 145q46 11 62.5 46t15.5 93q0 70 -26 104t-91 34q-32 0 -80 -6v-256h-180v555h-188v145h590v-145z" />
    <glyph glyph-name="afii10052" unicode="&#x403;" horiz-adv-x="530" 
d="M512 700v-145h-274v-555h-180v700h454zM270 919h171l-132 -183h-133z" />
    <glyph glyph-name="afii10053" unicode="&#x404;" horiz-adv-x="607" 
d="M366 -14q-79 0 -134.5 16t-101.5 54q-95 78 -95 294t95 294q46 38 101.5 54t134.5 16q89 0 211 -25l-27 -162q-99 42 -165 42q-72 0 -110.5 -36t-49.5 -111h244v-144h-244q11 -76 49.5 -111.5t110.5 -35.5q69 0 165 40l27 -158q-119 -27 -211 -27z" />
    <glyph glyph-name="afii10054" unicode="&#x405;" horiz-adv-x="609" 
d="M297 131q51 0 71 17t20 51q0 63 -82 73l-35 5q-127 18 -175 73t-48 148q0 216 258 216q92 0 243 -32l-25 -160q-124 47 -211 47q-43 0 -61.5 -15.5t-18.5 -48.5q0 -31 17 -47t62 -22l39 -6q126 -19 174 -77q49 -55 49 -147q0 -220 -277 -220q-121 0 -266 37l27 169
q118 -61 239 -61z" />
    <glyph glyph-name="afii10055" unicode="&#x406;" horiz-adv-x="296" 
d="M238 700v-700h-180v700h180z" />
    <glyph glyph-name="afii10056" unicode="&#x407;" horiz-adv-x="296" 
d="M112 904v-154h-132v154h132zM316 904v-154h-133v154h133zM238 700v-700h-180v700h180z" />
    <glyph glyph-name="afii10057" unicode="&#x408;" horiz-adv-x="441" 
d="M128 -14q-58 0 -117 12l19 150q42 -17 83 -17q54 0 75 26t21 95v448h180v-452q0 -131 -57 -197q-57 -65 -204 -65z" />
    <glyph glyph-name="afii10058" unicode="&#x409;" horiz-adv-x="1032" 
d="M456 16v539h-163v-47q0 -186 -27 -299q-27 -112 -72 -160t-119 -69l-72 133q37 15 57 33t38 58q35 77 35 306v190h503v-254q44 4 75 4q293 0 293 -232t-293 -232q-107 0 -255 30zM636 299v-162q44 -6 74 -6q108 0 108 87t-108 87q-30 0 -74 -6z" />
    <glyph glyph-name="afii10059" unicode="&#x40a;" horiz-adv-x="1027" 
d="M451 16v266h-213v-282h-180v700h180v-273h213v273h180v-254q44 4 75 4q293 0 293 -232t-293 -232q-106 0 -255 30zM631 299v-162q43 -6 74 -6q108 0 108 87t-108 87q-31 0 -74 -6z" />
    <glyph glyph-name="afii10060" unicode="&#x40b;" horiz-adv-x="798" 
d="M608 555h-222v-157q64 9 105 9q139 0 203.5 -58.5t64.5 -189.5v-159h-180v157q0 57 -26 81t-87 24q-32 0 -80 -6v-256h-180v555h-188v145h590v-145z" />
    <glyph glyph-name="afii10061" unicode="&#x40c;" horiz-adv-x="691" 
d="M490 -7l-241 362l207 345h201l-208 -327l241 -353zM58 700h180v-700h-180v700zM328 919h171l-132 -183h-133z" />
    <glyph glyph-name="afii10062" unicode="&#x40e;" horiz-adv-x="695" 
d="M499 700h194l-205 -515q-43 -108 -100 -154q-56 -45 -162 -45q-46 0 -92 8l12 145q28 -9 64 -9q42 0 64 17q21 17 41 70h-116l-197 483h199l151 -387zM347 733q-146 0 -212 103l95 85q42 -63 117 -63t117 63l95 -85q-67 -103 -212 -103z" />
    <glyph glyph-name="afii10145" unicode="&#x40f;" horiz-adv-x="689" 
d="M431 0l5 -150h-183l5 150h-200v700h180v-555h213v555h180v-700h-200z" />
    <glyph glyph-name="afii10017" unicode="&#x410;" horiz-adv-x="702" 
d="M484 700l216 -700h-191l-50 173h-216l-50 -173h-191l216 700h266zM351 549l-67 -231h134z" />
    <glyph glyph-name="afii10018" unicode="&#x411;" horiz-adv-x="665" 
d="M332 289q-40 0 -94 -8v-142q48 -8 94 -8q62 0 88 19.5t26 59.5t-26 59.5t-88 19.5zM551 555h-313v-126q62 5 102 5q153 0 222.5 -55.5t69.5 -168.5q0 -114 -70.5 -169t-221.5 -55q-134 0 -282 30v684h493v-145z" />
    <glyph glyph-name="afii10019" unicode="&#x412;" horiz-adv-x="665" 
d="M238 565v-139h79q52 0 73.5 18t21.5 55q0 36 -21.5 54.5t-73.5 18.5q-34 0 -79 -7zM446 205q0 39 -25 59t-87 20h-96v-149q43 -7 96 -7q62 0 87 20t25 57zM590 523q0 -111 -80 -152q122 -44 122 -178q0 -102 -70 -154.5t-222 -52.5q-130 0 -282 30v668q150 30 263 30
q143 0 206 -47t63 -144z" />
    <glyph glyph-name="afii10020" unicode="&#x413;" horiz-adv-x="530" 
d="M512 700v-145h-274v-555h-180v700h454z" />
    <glyph glyph-name="afii10021" unicode="&#x414;" horiz-adv-x="750" 
d="M20 -130v266q68 16 98.5 113t30.5 290v161h502v-555h75v-275h-162l-11 130h-360l-11 -130h-162zM471 555h-162v-18q0 -279 -70 -392h232v410z" />
    <glyph glyph-name="afii10022" unicode="&#x415;" horiz-adv-x="565" 
d="M238 145h293v-145h-473v700h463v-145h-283v-131h242v-142h-242v-137z" />
    <glyph glyph-name="afii10024" unicode="&#x416;" horiz-adv-x="1047" 
d="M611 0h-175v700h175v-700zM853 -7l-232 362l197 345h193l-206 -328l241 -351zM36 700h193l197 -345l-232 -362l-193 28l241 351z" />
    <glyph glyph-name="afii10025" unicode="&#x417;" horiz-adv-x="616" 
d="M583 193q0 -90 -55 -145q-64 -62 -246 -62q-114 0 -256 32l26 153q132 -40 228 -40q62 0 89.5 19t27.5 59q0 77 -122 77q-61 0 -116 -4v150q81 -4 116 -4q54 0 77.5 17.5t23.5 52.5q0 71 -96 71q-87 0 -207 -35l-24 153q131 27 231 27q143 0 207.5 -47.5t64.5 -143.5
q0 -109 -84 -153q115 -45 115 -177z" />
    <glyph glyph-name="afii10026" unicode="&#x418;" horiz-adv-x="702" 
d="M644 700v-700h-178v282q0 42 1 75q0 13 0.5 29t1 24.5t0.5 13.5q-24 -52 -62 -125l-158 -299h-191v700h178v-282q0 -8 -2 -76q-1 -33 -1 -66q24 52 62 125l158 299h191z" />
    <glyph glyph-name="afii10027" unicode="&#x419;" horiz-adv-x="702" 
d="M644 700v-700h-178v282q0 42 1 75q0 13 0.5 29t1 24.5t0.5 13.5q-24 -52 -62 -125l-158 -299h-191v700h178v-282q0 -8 -2 -76q-1 -33 -1 -66q24 52 62 125l158 299h191zM351 733q-146 0 -212 103l95 85q42 -63 117 -63t117 63l95 -85q-67 -103 -212 -103z" />
    <glyph glyph-name="afii10028" unicode="&#x41a;" horiz-adv-x="691" 
d="M490 -7l-241 362l207 345h201l-208 -327l241 -353zM58 700h180v-700h-180v700z" />
    <glyph glyph-name="afii10029" unicode="&#x41b;" horiz-adv-x="694" 
d="M636 700v-700h-180v555h-163v-47q0 -186 -27 -299q-27 -112 -72 -160t-119 -69l-72 133q37 15 57 33t38 58q35 77 35 306v190h503z" />
    <glyph glyph-name="afii10030" unicode="&#x41c;" horiz-adv-x="940" 
d="M470 245q23 95 32 119l114 336h236l48 -700h-178l-17 327q-1 9 -1 64q0 66 1 83h-2q-31 -116 -40 -144l-110 -330h-166l-110 330q-9 28 -40 144h-2q1 -17 1 -83q0 -55 -1 -64l-17 -327h-178l48 700h236l114 -336q9 -24 32 -119z" />
    <glyph glyph-name="afii10031" unicode="&#x41d;" horiz-adv-x="689" 
d="M631 700v-700h-180v282h-213v-282h-180v700h180v-273h213v273h180z" />
    <glyph glyph-name="afii10032" unicode="&#x41e;" horiz-adv-x="734" 
d="M478 184q35 55 35 166q0 112 -35 165q-34 54 -111 54t-111 -54q-35 -53 -35 -165q0 -111 35 -166q35 -53 111 -53t111 53zM119 69q-84 83 -84 281t84 281q85 83 248 83t248 -83q84 -83 84 -281t-84 -281q-85 -83 -248 -83t-248 83z" />
    <glyph glyph-name="afii10033" unicode="&#x41f;" horiz-adv-x="689" 
d="M631 700v-700h-180v555h-213v-555h-180v700h573z" />
    <glyph glyph-name="afii10034" unicode="&#x420;" horiz-adv-x="619" 
d="M238 0h-180v684q144 30 248 30q285 0 285 -240t-285 -240q-34 0 -68 3v-237zM238 564v-180q40 -5 64 -5q109 0 109 95t-109 95q-24 0 -64 -5z" />
    <glyph glyph-name="afii10035" unicode="&#x421;" horiz-adv-x="607" 
d="M385 131q69 0 165 40l27 -158q-119 -27 -211 -27q-79 0 -134.5 16t-101.5 54q-95 78 -95 294t95 294q46 38 101.5 54t134.5 16q89 0 211 -25l-27 -162q-99 42 -165 42q-87 0 -125.5 -52t-38.5 -167t38.5 -167t125.5 -52z" />
    <glyph glyph-name="afii10036" unicode="&#x422;" horiz-adv-x="626" 
d="M608 700v-145h-205v-555h-180v555h-205v145h590z" />
    <glyph glyph-name="afii10037" unicode="&#x423;" horiz-adv-x="695" 
d="M499 700h194l-205 -515q-43 -108 -100 -154q-56 -45 -162 -45q-46 0 -92 8l12 145q28 -9 64 -9q42 0 64 17q21 17 41 70h-116l-197 483h199l151 -387z" />
    <glyph glyph-name="afii10038" unicode="&#x424;" horiz-adv-x="912" 
d="M373 173v354q-81 0 -117 -44t-36 -133t36 -133t117 -44zM546 28v-88h-180v88q-331 0 -331 322t331 322v88h180v-88q331 0 331 -322t-331 -322zM539 527v-354q81 0 117 44t36 133t-36 133t-117 44z" />
    <glyph glyph-name="afii10039" unicode="&#x425;" horiz-adv-x="692" 
d="M466 0l-120 227l-120 -227h-211l207 355l-199 345h210l113 -216l113 216h210l-199 -345l207 -355h-211z" />
    <glyph glyph-name="afii10040" unicode="&#x426;" horiz-adv-x="725" 
d="M705 145v-275h-162l-11 130h-474v700h180v-555h213v555h180v-555h74z" />
    <glyph glyph-name="afii10041" unicode="&#x427;" horiz-adv-x="650" 
d="M592 700v-700h-180v254q-64 -9 -105 -9q-139 0 -203.5 58.5t-64.5 189.5v207h180v-205q0 -57 26 -81t87 -24q32 0 80 6v304h180z" />
    <glyph glyph-name="afii10042" unicode="&#x428;" horiz-adv-x="966" 
d="M238 145h157v555h176v-555h157v555h180v-700h-850v700h180v-555z" />
    <glyph glyph-name="afii10043" unicode="&#x429;" horiz-adv-x="1002" 
d="M820 -130l-11 130h-751v700h180v-555h157v555h176v-555h157v555h180v-555h74v-275h-162z" />
    <glyph glyph-name="afii10044" unicode="&#x42a;" horiz-adv-x="756" 
d="M180 16l-1 539h-161v145h342v-254q44 4 75 4q293 0 293 -232t-293 -232q-107 0 -255 30zM360 299v-162q43 -6 74 -6q108 0 108 87t-108 87q-30 0 -74 -6z" />
    <glyph glyph-name="afii10045" unicode="&#x42b;" horiz-adv-x="923" 
d="M865 0h-180v700h180v-700zM58 700h180v-254q44 4 75 4q293 0 293 -232t-293 -232q-107 0 -255 30v684zM238 299v-162q44 -6 74 -6q108 0 108 87t-108 87q-30 0 -74 -6z" />
    <glyph glyph-name="afii10046" unicode="&#x42c;" horiz-adv-x="634" 
d="M58 700h180v-254q44 4 75 4q293 0 293 -232t-293 -232q-107 0 -255 30v684zM238 299v-162q44 -6 74 -6q108 0 108 87t-108 87q-30 0 -74 -6z" />
    <glyph glyph-name="afii10047" unicode="&#x42d;" horiz-adv-x="607" 
d="M241 -14q-93 0 -211 27l27 158q96 -40 165 -40q72 0 110.5 35.5t49.5 111.5h-244v144h244q-11 75 -49.5 111t-110.5 36q-66 0 -165 -42l-27 162q122 25 211 25q79 0 134.5 -16t101.5 -54q95 -78 95 -294t-95 -294q-46 -38 -101.5 -54t-134.5 -16z" />
    <glyph glyph-name="afii10048" unicode="&#x42e;" horiz-adv-x="1032" 
d="M777 518q-33 51 -105 51t-106 -51q-33 -51 -33 -168t33 -168q34 -51 106 -51t105 51q34 50 34 168t-34 168zM672 -14q-151 0 -229.5 69t-92.5 223h-112v-278h-180v700h180v-277h112q15 154 93 222.5t229 68.5q166 0 245 -84q80 -85 80 -280t-80 -280q-79 -84 -245 -84z
" />
    <glyph glyph-name="afii10049" unicode="&#x42f;" horiz-adv-x="626" 
d="M318 255l-118 -259l-191 22l135 274q-109 46 -109 192q0 98 53 159q63 71 231 71q97 0 249 -30v-684h-180v255h-70zM316 400h72v164q-43 5 -72 5q-56 0 -78.5 -21.5t-22.5 -63.5q0 -41 22.5 -62.5t78.5 -21.5z" />
    <glyph glyph-name="afii10065" unicode="&#x430;" horiz-adv-x="519" 
d="M27 146q0 80 46 120.5t148 40.5q31 0 90 -6v22q0 36 -17 50.5t-57 14.5q-57 0 -157 -35l-22 129q124 30 195 30q116 0 167 -47t51 -140v-325h-154v24q-74 -38 -140 -38q-74 0 -112 41.5t-38 118.5zM246 200q-59 0 -59 -54q0 -53 52 -53q30 0 72 20v81q-42 6 -65 6z" />
    <glyph glyph-name="afii10066" unicode="&#x431;" horiz-adv-x="608" 
d="M203 460q78 34 142 34q232 0 232 -254t-265 -254q-147 0 -212 79.5t-65 254.5q0 204 66 291q66 88 225 113q156 25 193 34l21 -135q-35 -10 -56 -13l-72 -11q-34 -4 -58 -8q-79 -14 -113 -39q-35 -26 -38 -92zM412 239q0 69 -23 100t-77 31q-48 0 -109 -23q-3 -34 -3 -79
q2 -158 112 -158q100 0 100 129z" />
    <glyph glyph-name="afii10067" unicode="&#x432;" horiz-adv-x="568" 
d="M537 137q0 -73 -51 -112t-190 -39q-103 0 -246 32v466q140 28 234 28q126 0 174 -36t48 -98q0 -38 -18.5 -68t-52.5 -44q102 -28 102 -129zM277 403q-24 0 -67 -6v-92h66q70 0 70 49t-69 49zM289 201h-79v-98q46 -8 79 -8q83 0 83 53t-83 53z" />
    <glyph glyph-name="afii10068" unicode="&#x433;" horiz-adv-x="409" 
d="M50 498h348v-124h-188v-374h-160v498z" />
    <glyph glyph-name="afii10069" unicode="&#x434;" horiz-adv-x="613" 
d="M463 -140l-9 140h-295l-9 -140h-137v264h24q89 42 89 242v132h413v-374h61v-264h-137zM379 374h-115v-10q0 -170 -61 -240h176v250z" />
    <glyph glyph-name="afii10070" unicode="&#x435;" 
d="M339 110q90 0 171 25l23 -122q-117 -27 -219 -27q-147 0 -215 63t-68 200q0 263 263 263q131 0 188.5 -64.5t57.5 -198.5v-39h-342q5 -55 35.5 -77.5t105.5 -22.5zM294 397q-84 0 -93 -84h183q-3 84 -90 84z" />
    <glyph glyph-name="afii10072" unicode="&#x436;" horiz-adv-x="810" 
d="M483 0h-156v498h156v-498zM647 -7l-155 262l124 243h169l-131 -226l154 -257zM25 498h169l124 -243l-155 -262l-161 22l154 257z" />
    <glyph glyph-name="afii10073" unicode="&#x437;" horiz-adv-x="489" 
d="M458 139q0 -153 -243 -153q-96 0 -207 28l28 137q90 -41 177 -41q80 0 80 41q0 22 -20 33t-69 11q-56 0 -103 -4v125q43 -4 103 -4q38 0 54 9t16 30q0 37 -61 37q-73 0 -157 -32l-27 133q106 23 186 23q218 0 218 -142q0 -75 -67 -105q92 -35 92 -126z" />
    <glyph glyph-name="afii10074" unicode="&#x438;" horiz-adv-x="574" 
d="M364 498h160v-498h-160v155q0 56 2 110q-33 -65 -54 -99l-102 -166h-160v498h160v-155q0 -56 -2 -110q33 65 54 99z" />
    <glyph glyph-name="afii10075" unicode="&#x439;" horiz-adv-x="574" 
d="M364 498h160v-498h-160v155q0 56 2 110q-33 -65 -54 -99l-102 -166h-160v498h160v-155q0 -56 -2 -110q33 65 54 99zM287 578q-136 0 -196 95l88 79q37 -58 108 -58t108 58l88 -79q-62 -95 -196 -95z" />
    <glyph glyph-name="afii10076" unicode="&#x43a;" horiz-adv-x="546" 
d="M50 498h160v-498h-160v498zM525 498l-138 -226l157 -258l-177 -21l-147 264l125 241h180z" />
    <glyph glyph-name="afii10077" unicode="&#x43b;" horiz-adv-x="551" 
d="M501 498v-498h-160v374h-104v-24q0 -124 -23 -204q-22 -76 -60 -111q-37 -34 -97 -53l-56 116q52 22 75 74q22 51 22 180v146h403z" />
    <glyph glyph-name="afii10078" unicode="&#x43c;" horiz-adv-x="756" 
d="M337 321l41 -121l41 121l63 177h194l35 -498h-150l-11 183q-1 9 -4 129q-14 -56 -37 -124l-67 -188h-128l-67 188q-23 68 -37 124q-3 -120 -4 -129l-11 -183h-150l35 498h194z" />
    <glyph glyph-name="afii10079" unicode="&#x43d;" horiz-adv-x="566" 
d="M516 498v-498h-160v192h-146v-192h-160v498h160v-182h146v182h160z" />
    <glyph glyph-name="afii10080" unicode="&#x43e;" horiz-adv-x="592" 
d="M296 110q100 0 100 139t-100 139t-100 -139t100 -139zM496 447q65 -65 65 -198q0 -134 -65 -199q-64 -64 -200 -64t-200 64q-65 65 -65 199q0 133 65 198t200 65t200 -65z" />
    <glyph glyph-name="afii10081" unicode="&#x43f;" horiz-adv-x="566" 
d="M516 498v-498h-160v374h-146v-374h-160v498h466z" />
    <glyph glyph-name="afii10082" unicode="&#x440;" horiz-adv-x="583" 
d="M210 26v-226h-160v698h154v-29q87 43 151 43q100 0 147.5 -63.5t47.5 -199.5t-47.5 -199.5t-147.5 -63.5q-39 0 -69 9q-31 9 -76 31zM210 361v-224q54 -27 88 -27q45 0 66 32.5t21 106.5t-21 106.5t-66 32.5q-34 0 -88 -27z" />
    <glyph glyph-name="afii10083" unicode="&#x441;" horiz-adv-x="484" 
d="M312 110q44 0 116 29l25 -135q-96 -18 -158 -18q-133 0 -198.5 63.5t-65.5 199.5t65.5 199.5t198.5 63.5q62 0 158 -18l-25 -135q-72 29 -116 29q-60 0 -88 -34t-28 -105t28 -105t88 -34z" />
    <glyph glyph-name="afii10084" unicode="&#x442;" horiz-adv-x="484" 
d="M11 374v124h462v-124h-151v-374h-160v374h-151z" />
    <glyph glyph-name="afii10085" unicode="&#x443;" horiz-adv-x="572" 
d="M142 -87q77 0 100 80l7 25h-90l-154 480h174l73 -261l34 -119l34 119l73 261h174l-174 -541q-55 -171 -235 -171q-36 0 -86 8l10 128q26 -9 60 -9z" />
    <glyph glyph-name="afii10086" unicode="&#x444;" horiz-adv-x="800" 
d="M324 110v278q-73 0 -100.5 -31.5t-27.5 -107.5t27.5 -107.5t100.5 -31.5zM476 388v-278q73 0 100.5 31.5t27.5 107.5t-27.5 107.5t-100.5 31.5zM480 -14v-186h-160v186q-151 0 -220 60.5t-69 202.5t69 202.5t220 60.5v228h160v-228q151 0 220 -60.5t69 -202.5t-69 -202.5
t-220 -60.5z" />
    <glyph glyph-name="afii10087" unicode="&#x445;" horiz-adv-x="552" 
d="M359 498h184l-130 -247l137 -251h-184l-86 185l-94 -185h-184l136 255l-129 243h184l79 -169z" />
    <glyph glyph-name="afii10088" unicode="&#x446;" horiz-adv-x="592" 
d="M50 0v498h160v-374h148v374h160v-374h61v-264h-137l-9 140h-383z" />
    <glyph glyph-name="afii10089" unicode="&#x447;" horiz-adv-x="546" 
d="M496 498v-498h-160v160q-54 -8 -93 -8q-106 0 -154 50.5t-48 160.5v135h160v-127q0 -55 15.5 -75t60.5 -20q30 0 59 6v216h160z" />
    <glyph glyph-name="afii10090" unicode="&#x448;" horiz-adv-x="818" 
d="M210 498v-374h122v374h154v-374h122v374h160v-498h-718v498h160z" />
    <glyph glyph-name="afii10091" unicode="&#x449;" horiz-adv-x="842" 
d="M692 -140l-9 140h-633v498h160v-374h122v374h154v-374h122v374h160v-374h61v-264h-137z" />
    <glyph glyph-name="afii10092" unicode="&#x44a;" horiz-adv-x="633" 
d="M312 230v-116q32 -6 59 -6q74 0 74 64t-74 64q-27 0 -59 -6zM152 15v359h-128v124h288v-144q33 4 74 4q222 0 222 -186q0 -92 -55 -139t-178 -47q-102 0 -223 29z" />
    <glyph glyph-name="afii10093" unicode="&#x44b;" horiz-adv-x="772" 
d="M210 230v-116q32 -6 59 -6q74 0 74 64t-74 64q-27 0 -59 -6zM50 498h160v-144q33 4 74 4q222 0 222 -186q0 -92 -55 -139t-178 -47q-102 0 -223 29v483zM722 498v-498h-160v498h160z" />
    <glyph glyph-name="afii10094" unicode="&#x44c;" horiz-adv-x="531" 
d="M210 230v-116q32 -6 59 -6q74 0 74 64t-74 64q-27 0 -59 -6zM50 498h160v-144q33 4 74 4q222 0 222 -186q0 -92 -55 -139t-178 -47q-102 0 -223 29v483z" />
    <glyph glyph-name="afii10095" unicode="&#x44d;" horiz-adv-x="484" 
d="M98 188v123h183q-21 77 -109 77q-44 0 -116 -26l-25 132q98 18 158 18q133 0 198.5 -63.5t65.5 -199.5q0 -133 -63.5 -198t-200.5 -65q-65 0 -158 18l25 135q72 -29 116 -29q88 0 109 78h-183z" />
    <glyph glyph-name="afii10096" unicode="&#x44e;" horiz-adv-x="824" 
d="M532 388q-96 0 -96 -139t96 -139t96 139t-96 139zM50 498h160v-187h65q27 201 257 201q132 0 196.5 -64.5t64.5 -198.5t-64.5 -198.5t-196.5 -64.5q-230 0 -257 202h-65v-188h-160v498z" />
    <glyph glyph-name="afii10097" unicode="&#x44f;" horiz-adv-x="529" 
d="M267 287h52v104q-32 6 -52 6q-73 0 -73 -55t73 -55zM479 0h-160v175h-42l-90 -182l-174 19l102 181q-86 42 -86 146q0 83 56.5 128t171.5 45q80 0 222 -26v-486z" />
    <glyph glyph-name="afii10071" unicode="&#x451;" 
d="M339 110q90 0 171 25l23 -122q-117 -27 -219 -27q-147 0 -215 63t-68 200q0 263 263 263q131 0 188.5 -64.5t57.5 -198.5v-39h-342q5 -55 35.5 -77.5t105.5 -22.5zM294 397q-84 0 -93 -84h183q-3 84 -90 84zM243 740v-153h-139v153h139zM490 740v-153h-139v153h139z" />
    <glyph glyph-name="afii10099" unicode="&#x452;" horiz-adv-x="591" 
d="M381 60v237q0 60 -61 60q-34 0 -90 -27v-330h-160v546h-59v112h59v82h160v-82h149v-112h-149v-105q86 40 150 40q84 0 122.5 -44t38.5 -133v-247q0 -142 -53 -204q-53 -63 -179 -67l-15 124q51 4 69 36t18 114z" />
    <glyph glyph-name="afii10100" unicode="&#x453;" horiz-adv-x="409" 
d="M50 498h348v-124h-188v-374h-160v498zM126 571l94 183h163l-132 -183h-125z" />
    <glyph glyph-name="afii10101" unicode="&#x454;" horiz-adv-x="484" 
d="M203 311h183v-123h-183q21 -78 109 -78q44 0 116 29l25 -135q-93 -18 -158 -18q-137 0 -200.5 65t-63.5 198q0 136 65.5 199.5t198.5 63.5q61 0 158 -18l-25 -132q-72 26 -116 26q-88 0 -109 -77z" />
    <glyph glyph-name="afii10102" unicode="&#x455;" horiz-adv-x="480" 
d="M229 -14q-89 0 -201 30l27 142q88 -53 170 -53q33 0 46.5 9t13.5 28q0 18 -12 27t-42 13l-28 4q-83 12 -120.5 51.5t-37.5 112.5q0 162 206 162q65 0 178 -25l-26 -134q-89 40 -144 40q-50 0 -50 -34q0 -17 10.5 -25.5t42.5 -14.5l28 -5q87 -14 123.5 -56t36.5 -110
q0 -162 -221 -162z" />
    <glyph glyph-name="afii10103" unicode="&#x456;" horiz-adv-x="260" 
d="M210 498v-498h-160v498h160zM210 740v-153h-160v153h160z" />
    <glyph glyph-name="afii10104" unicode="&#x457;" horiz-adv-x="260" 
d="M210 498v-498h-160v498h160zM105 740v-153h-120v153h120zM275 740v-153h-120v153h120z" />
    <glyph glyph-name="afii10105" unicode="&#x458;" horiz-adv-x="264" 
d="M54 498h160v-482q0 -117 -55.5 -173t-179.5 -57l-15 124q52 3 71 27t19 81v480zM214 740v-153h-160v153h160z" />
    <glyph glyph-name="afii10106" unicode="&#x459;" horiz-adv-x="822" 
d="M501 230v-116q31 -6 59 -6q74 0 74 64t-74 64q-28 0 -59 -6zM341 374h-104v-24q0 -124 -23 -204q-22 -76 -60 -111q-37 -34 -97 -53l-56 116q52 22 75 74q22 51 22 180v146h403v-144q33 4 74 4q222 0 222 -186q0 -92 -55 -139t-178 -47q-102 0 -223 29v359z" />
    <glyph glyph-name="afii10107" unicode="&#x45a;" horiz-adv-x="837" 
d="M516 230v-116q31 -6 59 -6q74 0 74 64t-74 64q-27 0 -59 -6zM356 15v177h-146v-192h-160v498h160v-182h146v182h160v-144q33 4 74 4q222 0 222 -186q0 -92 -55 -139t-178 -47q-102 0 -223 29z" />
    <glyph glyph-name="afii10108" unicode="&#x45b;" horiz-adv-x="591" 
d="M379 546h-149v-105q86 40 150 40q84 0 122.5 -44t38.5 -133v-304h-160v297q0 60 -61 60q-34 0 -90 -27v-330h-160v546h-59v112h59v82h160v-82h149v-112z" />
    <glyph glyph-name="afii10109" unicode="&#x45c;" horiz-adv-x="546" 
d="M50 498h160v-498h-160v498zM525 498l-138 -226l157 -258l-177 -21l-147 264l125 241h180zM185 571l94 183h163l-132 -183h-125z" />
    <glyph glyph-name="afii10110" unicode="&#x45e;" horiz-adv-x="572" 
d="M142 -87q77 0 100 80l7 25h-90l-154 480h174l73 -261l34 -119l34 119l73 261h174l-174 -541q-55 -171 -235 -171q-36 0 -86 8l10 128q26 -9 60 -9zM286 578q-136 0 -196 95l88 79q37 -58 108 -58t108 58l88 -79q-62 -95 -196 -95z" />
    <glyph glyph-name="afii10193" unicode="&#x45f;" horiz-adv-x="566" 
d="M356 124v374h160v-498h-154v-180h-158v180h-154v498h160v-374h146z" />
    <glyph glyph-name="afii10050" unicode="&#x490;" horiz-adv-x="530" 
d="M512 810v-255h-274v-555h-180v700h314l7 110h133z" />
    <glyph glyph-name="afii10098" unicode="&#x491;" horiz-adv-x="409" 
d="M278 615h120v-241h-188v-374h-160v498h221z" />
    <glyph glyph-name="uni1E9E" unicode="&#x1e9e;" horiz-adv-x="649" 
d="M577 509l-113 -107q81 -20 115.5 -68.5t34.5 -130.5q0 -109 -64 -161t-220 -52l-48 2v145q22 -2 39 -2q58 0 83 18.5t25 58.5t-24.5 58.5t-83.5 18.5h-39v118l117 111q-13 51 -82 51q-49 0 -67 -25t-18 -84v-460h-180v463q0 132 64 191.5t202 59.5q135 0 195.5 -50
t63.5 -155z" />
    <glyph glyph-name="uni2010" unicode="&#x2010;" horiz-adv-x="405" 
d="M347 330v-136h-289v136h289z" />
    <glyph glyph-name="uni2011" unicode="&#x2011;" horiz-adv-x="405" 
d="M347 330v-136h-289v136h289z" />
    <glyph glyph-name="figuredash" unicode="&#x2012;" horiz-adv-x="664" 
d="M606 320v-116h-548v116h548z" />
    <glyph glyph-name="endash" unicode="&#x2013;" horiz-adv-x="664" 
d="M606 320v-116h-548v116h548z" />
    <glyph glyph-name="emdash" unicode="&#x2014;" horiz-adv-x="861" 
d="M803 320v-116h-745v116h745z" />
    <glyph glyph-name="quoteleft" unicode="&#x2018;" horiz-adv-x="207" 
d="M190 700l-10 -280h-163l49 280h124z" />
    <glyph glyph-name="quoteright" unicode="&#x2019;" horiz-adv-x="207" 
d="M17 420l10 280h163l-49 -280h-124z" />
    <glyph glyph-name="quotesinglbase" unicode="&#x201a;" horiz-adv-x="207" 
d="M17 -143l10 280h163l-49 -280h-124z" />
    <glyph glyph-name="quotedblleft" unicode="&#x201c;" horiz-adv-x="413" 
d="M396 700l-10 -280h-163l49 280h124zM190 700l-10 -280h-163l49 280h124z" />
    <glyph glyph-name="quotedblright" unicode="&#x201d;" horiz-adv-x="413" 
d="M17 420l10 280h163l-49 -280h-124zM223 420l10 280h163l-49 -280h-124z" />
    <glyph glyph-name="quotedblbase" unicode="&#x201e;" horiz-adv-x="413" 
d="M17 -143l10 280h163l-49 -280h-124zM223 -143l10 280h163l-49 -280h-124z" />
    <glyph glyph-name="dagger" unicode="&#x2020;" horiz-adv-x="548" 
d="M500 473v-124h-146v-499h-160v499h-146v124h146v227h160v-227h146z" />
    <glyph glyph-name="daggerdbl" unicode="&#x2021;" horiz-adv-x="548" 
d="M354 349v-148h146v-124h-146v-227h-160v227h-146v124h146v148h-146v124h146v227h160v-227h146v-124h-146z" />
    <glyph glyph-name="bullet" unicode="&#x2022;" horiz-adv-x="561" 
d="M401 378q41 -33 41 -116q0 -82 -41 -117q-41 -33 -121 -33t-121 33q-40 34 -40 117t40 116q40 34 121 34t121 -34z" />
    <glyph glyph-name="ellipsis" unicode="&#x2026;" horiz-adv-x="857" 
d="M229 149v-149h-172v149h172zM515 149v-149h-172v149h172zM800 149v-149h-171v149h171z" />
    <glyph glyph-name="perthousand" unicode="&#x2030;" horiz-adv-x="1344" 
d="M592 660h117l-361 -660h-117zM225 674q176 0 176 -189t-176 -189t-176 189t176 189zM225 386q61 0 61 99t-61 99t-61 -99t61 -99zM715 -14q-176 0 -176 189t176 189t176 -189t-176 -189zM715 274q-61 0 -61 -99t61 -99t61 99t-61 99zM1119 -14q-176 0 -176 189t176 189
t176 -189t-176 -189zM1119 274q-61 0 -61 -99t61 -99t61 99t-61 99z" />
    <glyph glyph-name="guilsinglleft" unicode="&#x2039;" horiz-adv-x="323" 
d="M158 466h148l-140 -204l140 -204h-148l-141 204z" />
    <glyph glyph-name="guilsinglright" unicode="&#x203a;" horiz-adv-x="323" 
d="M17 58l140 204l-140 204h148l141 -204l-141 -204h-148z" />
    <glyph glyph-name="fraction" unicode="&#x2044;" horiz-adv-x="407" 
d="M18 -40l230 740h141l-230 -740h-141z" />
    <glyph glyph-name="Euro" unicode="&#x20ac;" horiz-adv-x="680" 
d="M516 350h-216v-36h211l-19 -113h-172q34 -78 135 -78q63 0 156 38l25 -149q-116 -26 -199 -26q-130 0 -204 49.5t-97 165.5h-106l19 113h75v36h-91l19 113h85q23 113 96.5 162t203.5 49q79 0 199 -24l-25 -153q-92 40 -156 40q-98 0 -133 -74h213z" />
    <glyph glyph-name="uni20B4" unicode="&#x20b4;" horiz-adv-x="729" 
d="M613 462h66v-113h-629v113h387q1 4 1 14q0 31 -17.5 46t-57.5 15q-83 0 -200 -41l-23 148q136 30 229 30q244 0 244 -204v-8zM116 200h-66v113h629v-113h-387v-13q0 -32 19 -48t67 -16q112 0 225 55l26 -157q-142 -35 -251 -35q-262 0 -262 208v6z" />
    <glyph glyph-name="uni20B6" unicode="&#x20b6;" horiz-adv-x="664" 
d="M298 542v-170h66q98 0 98 87q0 88 -98 88q-28 0 -66 -5zM363 244h-65v-36h155v-113h-155v-95h-170v95h-93v113h93v36h-93v128h93v273q151 29 235 29q132 0 200.5 -55.5t68.5 -159.5q0 -103 -67 -159t-202 -56z" />
    <glyph glyph-name="uni20B6" unicode="&#x20cf;" horiz-adv-x="664" 
d="M298 542v-170h66q98 0 98 87q0 88 -98 88q-28 0 -66 -5zM363 244h-65v-36h155v-113h-155v-95h-170v95h-93v113h93v36h-93v128h93v273q151 29 235 29q132 0 200.5 -55.5t68.5 -159.5q0 -103 -67 -159t-202 -56z" />
    <glyph glyph-name="uni20B6" unicode="&#x20ce;" horiz-adv-x="664" 
d="M298 542v-170h66q98 0 98 87q0 88 -98 88q-28 0 -66 -5zM363 244h-65v-36h155v-113h-155v-95h-170v95h-93v113h93v36h-93v128h93v273q151 29 235 29q132 0 200.5 -55.5t68.5 -159.5q0 -103 -67 -159t-202 -56z" />
    <glyph glyph-name="uni20B6" unicode="&#x20cd;" horiz-adv-x="664" 
d="M298 542v-170h66q98 0 98 87q0 88 -98 88q-28 0 -66 -5zM363 244h-65v-36h155v-113h-155v-95h-170v95h-93v113h93v36h-93v128h93v273q151 29 235 29q132 0 200.5 -55.5t68.5 -159.5q0 -103 -67 -159t-202 -56z" />
    <glyph glyph-name="uni20B6" unicode="&#x20cc;" horiz-adv-x="664" 
d="M298 542v-170h66q98 0 98 87q0 88 -98 88q-28 0 -66 -5zM363 244h-65v-36h155v-113h-155v-95h-170v95h-93v113h93v36h-93v128h93v273q151 29 235 29q132 0 200.5 -55.5t68.5 -159.5q0 -103 -67 -159t-202 -56z" />
    <glyph glyph-name="uni20B6" unicode="&#x20cb;" horiz-adv-x="664" 
d="M298 542v-170h66q98 0 98 87q0 88 -98 88q-28 0 -66 -5zM363 244h-65v-36h155v-113h-155v-95h-170v95h-93v113h93v36h-93v128h93v273q151 29 235 29q132 0 200.5 -55.5t68.5 -159.5q0 -103 -67 -159t-202 -56z" />
    <glyph glyph-name="uni20B6" unicode="&#x20ca;" horiz-adv-x="664" 
d="M298 542v-170h66q98 0 98 87q0 88 -98 88q-28 0 -66 -5zM363 244h-65v-36h155v-113h-155v-95h-170v95h-93v113h93v36h-93v128h93v273q151 29 235 29q132 0 200.5 -55.5t68.5 -159.5q0 -103 -67 -159t-202 -56z" />
    <glyph glyph-name="uni20B6" unicode="&#x20c9;" horiz-adv-x="664" 
d="M298 542v-170h66q98 0 98 87q0 88 -98 88q-28 0 -66 -5zM363 244h-65v-36h155v-113h-155v-95h-170v95h-93v113h93v36h-93v128h93v273q151 29 235 29q132 0 200.5 -55.5t68.5 -159.5q0 -103 -67 -159t-202 -56z" />
    <glyph glyph-name="uni20B6" unicode="&#x20c8;" horiz-adv-x="664" 
d="M298 542v-170h66q98 0 98 87q0 88 -98 88q-28 0 -66 -5zM363 244h-65v-36h155v-113h-155v-95h-170v95h-93v113h93v36h-93v128h93v273q151 29 235 29q132 0 200.5 -55.5t68.5 -159.5q0 -103 -67 -159t-202 -56z" />
    <glyph glyph-name="uni20B6" unicode="&#x20c7;" horiz-adv-x="664" 
d="M298 542v-170h66q98 0 98 87q0 88 -98 88q-28 0 -66 -5zM363 244h-65v-36h155v-113h-155v-95h-170v95h-93v113h93v36h-93v128h93v273q151 29 235 29q132 0 200.5 -55.5t68.5 -159.5q0 -103 -67 -159t-202 -56z" />
    <glyph glyph-name="uni20B6" unicode="&#x20c6;" horiz-adv-x="664" 
d="M298 542v-170h66q98 0 98 87q0 88 -98 88q-28 0 -66 -5zM363 244h-65v-36h155v-113h-155v-95h-170v95h-93v113h93v36h-93v128h93v273q151 29 235 29q132 0 200.5 -55.5t68.5 -159.5q0 -103 -67 -159t-202 -56z" />
    <glyph glyph-name="uni20B6" unicode="&#x20c5;" horiz-adv-x="664" 
d="M298 542v-170h66q98 0 98 87q0 88 -98 88q-28 0 -66 -5zM363 244h-65v-36h155v-113h-155v-95h-170v95h-93v113h93v36h-93v128h93v273q151 29 235 29q132 0 200.5 -55.5t68.5 -159.5q0 -103 -67 -159t-202 -56z" />
    <glyph glyph-name="uni20B6" unicode="&#x20c4;" horiz-adv-x="664" 
d="M298 542v-170h66q98 0 98 87q0 88 -98 88q-28 0 -66 -5zM363 244h-65v-36h155v-113h-155v-95h-170v95h-93v113h93v36h-93v128h93v273q151 29 235 29q132 0 200.5 -55.5t68.5 -159.5q0 -103 -67 -159t-202 -56z" />
    <glyph glyph-name="uni20B6" unicode="&#x20c3;" horiz-adv-x="664" 
d="M298 542v-170h66q98 0 98 87q0 88 -98 88q-28 0 -66 -5zM363 244h-65v-36h155v-113h-155v-95h-170v95h-93v113h93v36h-93v128h93v273q151 29 235 29q132 0 200.5 -55.5t68.5 -159.5q0 -103 -67 -159t-202 -56z" />
    <glyph glyph-name="uni20B6" unicode="&#x20c2;" horiz-adv-x="664" 
d="M298 542v-170h66q98 0 98 87q0 88 -98 88q-28 0 -66 -5zM363 244h-65v-36h155v-113h-155v-95h-170v95h-93v113h93v36h-93v128h93v273q151 29 235 29q132 0 200.5 -55.5t68.5 -159.5q0 -103 -67 -159t-202 -56z" />
    <glyph glyph-name="uni20B6" unicode="&#x20c1;" horiz-adv-x="664" 
d="M298 542v-170h66q98 0 98 87q0 88 -98 88q-28 0 -66 -5zM363 244h-65v-36h155v-113h-155v-95h-170v95h-93v113h93v36h-93v128h93v273q151 29 235 29q132 0 200.5 -55.5t68.5 -159.5q0 -103 -67 -159t-202 -56z" />
    <glyph glyph-name="uni20B6" unicode="&#x20c0;" horiz-adv-x="664" 
d="M298 542v-170h66q98 0 98 87q0 88 -98 88q-28 0 -66 -5zM363 244h-65v-36h155v-113h-155v-95h-170v95h-93v113h93v36h-93v128h93v273q151 29 235 29q132 0 200.5 -55.5t68.5 -159.5q0 -103 -67 -159t-202 -56z" />
    <glyph glyph-name="uni20B6" unicode="&#x20bf;" horiz-adv-x="664" 
d="M298 542v-170h66q98 0 98 87q0 88 -98 88q-28 0 -66 -5zM363 244h-65v-36h155v-113h-155v-95h-170v95h-93v113h93v36h-93v128h93v273q151 29 235 29q132 0 200.5 -55.5t68.5 -159.5q0 -103 -67 -159t-202 -56z" />
    <glyph glyph-name="uni20B6" unicode="&#x20be;" horiz-adv-x="664" 
d="M298 542v-170h66q98 0 98 87q0 88 -98 88q-28 0 -66 -5zM363 244h-65v-36h155v-113h-155v-95h-170v95h-93v113h93v36h-93v128h93v273q151 29 235 29q132 0 200.5 -55.5t68.5 -159.5q0 -103 -67 -159t-202 -56z" />
    <glyph glyph-name="uni20B6" unicode="&#x20bd;" horiz-adv-x="664" 
d="M298 542v-170h66q98 0 98 87q0 88 -98 88q-28 0 -66 -5zM363 244h-65v-36h155v-113h-155v-95h-170v95h-93v113h93v36h-93v128h93v273q151 29 235 29q132 0 200.5 -55.5t68.5 -159.5q0 -103 -67 -159t-202 -56z" />
    <glyph glyph-name="uni20B6" unicode="&#x20bc;" horiz-adv-x="664" 
d="M298 542v-170h66q98 0 98 87q0 88 -98 88q-28 0 -66 -5zM363 244h-65v-36h155v-113h-155v-95h-170v95h-93v113h93v36h-93v128h93v273q151 29 235 29q132 0 200.5 -55.5t68.5 -159.5q0 -103 -67 -159t-202 -56z" />
    <glyph glyph-name="uni20B6" unicode="&#x20bb;" horiz-adv-x="664" 
d="M298 542v-170h66q98 0 98 87q0 88 -98 88q-28 0 -66 -5zM363 244h-65v-36h155v-113h-155v-95h-170v95h-93v113h93v36h-93v128h93v273q151 29 235 29q132 0 200.5 -55.5t68.5 -159.5q0 -103 -67 -159t-202 -56z" />
    <glyph glyph-name="uni20B6" unicode="&#x20ba;" horiz-adv-x="664" 
d="M298 542v-170h66q98 0 98 87q0 88 -98 88q-28 0 -66 -5zM363 244h-65v-36h155v-113h-155v-95h-170v95h-93v113h93v36h-93v128h93v273q151 29 235 29q132 0 200.5 -55.5t68.5 -159.5q0 -103 -67 -159t-202 -56z" />
    <glyph glyph-name="uni20B6" unicode="&#x20b9;" horiz-adv-x="664" 
d="M298 542v-170h66q98 0 98 87q0 88 -98 88q-28 0 -66 -5zM363 244h-65v-36h155v-113h-155v-95h-170v95h-93v113h93v36h-93v128h93v273q151 29 235 29q132 0 200.5 -55.5t68.5 -159.5q0 -103 -67 -159t-202 -56z" />
    <glyph glyph-name="uni20B6" unicode="&#x20b7;" horiz-adv-x="664" 
d="M298 542v-170h66q98 0 98 87q0 88 -98 88q-28 0 -66 -5zM363 244h-65v-36h155v-113h-155v-95h-170v95h-93v113h93v36h-93v128h93v273q151 29 235 29q132 0 200.5 -55.5t68.5 -159.5q0 -103 -67 -159t-202 -56z" />
    <glyph glyph-name="afii61352" unicode="&#x2116;" horiz-adv-x="1138" 
d="M1087 209v-95h-358v95h358zM908 674q196 0 196 -188t-196 -188t-196 188t196 188zM908 579q-71 0 -71 -93t71 -93t71 93t-71 93zM466 700h178v-700h-205l-162 312q-27 54 -47 114h-2q8 -70 8 -120v-306h-178v700h205l162 -312q27 -54 47 -114h2q-8 70 -8 120v306z" />
    <glyph glyph-name="trademark" unicode="&#x2122;" horiz-adv-x="1014" 
d="M626 700l46 -147l21 -80h1q5 36 21 80l46 147h151l26 -386h-112l-4 84q-1 20 -4 86v28v47h-2q-16 -72 -25 -99l-44 -146h-107l-44 146q-9 27 -25 99h-2v-47v-28l-5 -86l-3 -84h-112l26 386h151zM403 700v-92h-107v-294h-114v294h-106v92h327z" />
    <glyph glyph-name="partialdiff" unicode="&#x2202;" horiz-adv-x="608" 
d="M390 463q-40 132 -134 241l131 74q186 -224 186 -498q0 -294 -277 -294q-265 0 -265 254q0 129 54.5 191.5t168.5 62.5q71 0 136 -31zM196 239q0 -129 100 -129q110 0 110 153q0 56 -4 84q-61 23 -106 23q-54 0 -77 -31t-23 -100z" />
    <glyph glyph-name="product" unicode="&#x220f;" horiz-adv-x="771" 
d="M718 700v-145h-51v-705h-180v705h-203v-705h-180v705h-51v145h665z" />
    <glyph glyph-name="summation" unicode="&#x2211;" horiz-adv-x="607" 
d="M559 555h-289l188 -245v-53l-200 -262h316v-145h-541v145l220 288l-208 272v145h514v-145z" />
    <glyph glyph-name="minus" unicode="&#x2212;" horiz-adv-x="570" 
d="M55 274v120h460v-120h-460z" />
    <glyph glyph-name="uni2215" unicode="&#x2215;" horiz-adv-x="429" 
d="M259 700h153l-301 -870h-153z" />
    <glyph glyph-name="radical" unicode="&#x221a;" horiz-adv-x="626" 
d="M599 660v-135h-53l-147 -530h-236l-87 314h-49v135h191l41 -160q11 -43 23 -110q16 88 22 112l95 374h200z" />
    <glyph glyph-name="infinity" unicode="&#x221e;" horiz-adv-x="944" 
d="M330 271l43 62l-43 62q-22 32 -36 43.5t-32 11.5q-32 0 -47 -27.5t-15 -89.5t15 -89.5t47 -27.5q18 0 32 11.5t36 43.5zM614 395l-43 -62l43 -62q22 -32 36 -43.5t32 -11.5q32 0 47 27.5t15 89.5t-15 89.5t-47 27.5q-18 0 -32 -11.5t-36 -43.5zM497 192l-25 36l-25 -36
q-36 -50 -79.5 -74.5t-109.5 -24.5q-208 0 -208 240t208 240q66 0 109.5 -24.5t79.5 -74.5l25 -36l25 36q36 50 79.5 74.5t109.5 24.5q208 0 208 -240t-208 -240q-66 0 -109.5 24.5t-79.5 74.5z" />
    <glyph glyph-name="integral" unicode="&#x222b;" horiz-adv-x="387" 
d="M119 181l-19 57q-44 132 -44 210q0 128 64 177t198 49v-135q-48 0 -64.5 -23.5t-16.5 -75.5q0 -60 31 -152l19 -57q44 -132 44 -210q0 -127 -65 -177q-64 -49 -197 -49v135q48 0 64.5 23.5t16.5 75.5q0 60 -31 152z" />
    <glyph glyph-name="approxequal" unicode="&#x2248;" horiz-adv-x="570" 
d="M490 531l35 -106q-57 -65 -128 -65q-57 0 -137 31q-57 25 -91 25q-30 0 -49 -11t-41 -40l-35 106q57 65 128 65q57 0 137 -31q57 -25 91 -25q30 0 49 11t41 40zM490 302l35 -106q-57 -65 -128 -65q-57 0 -137 31q-57 25 -91 25q-30 0 -49 -11t-41 -40l-35 106
q57 65 128 65q57 0 137 -31q57 -25 91 -25q30 0 49 11t41 40z" />
    <glyph glyph-name="notequal" unicode="&#x2260;" horiz-adv-x="570" 
d="M55 388v120h229l47 139h120l-47 -139h111v-120h-152l-36 -109h188v-120h-229l-47 -139h-120l47 139h-111v120h152l37 109h-189z" />
    <glyph glyph-name="lessequal" unicode="&#x2264;" horiz-adv-x="570" 
d="M55 269l460 -130v-125l-460 130v125zM515 644v-126l-301 -77l301 -77v-126l-460 130v146z" />
    <glyph glyph-name="greaterequal" unicode="&#x2265;" horiz-adv-x="570" 
d="M55 139l460 130v-125l-460 -130v125zM55 364l301 77l-301 77v126l460 -130v-146l-460 -130v126z" />
    <glyph glyph-name="lozenge" unicode="&#x25ca;" horiz-adv-x="648" 
d="M604 328l-262 -393h-35l-263 393l263 396h35zM188 328l133 -200l133 200l-133 200z" />
    <glyph glyph-name="uniF400" unicode="&#xf400;" horiz-adv-x="0" 
d="M-399 571l94 183h163l-132 -183h-125z" />
    <glyph glyph-name="uniF401" unicode="&#xf401;" horiz-adv-x="0" 
d="M-389 919h171l-132 -183h-133z" />
    <glyph glyph-name="uniF408" unicode="&#xf408;" horiz-adv-x="500" 
d="M62 735l93 183h190l93 -183h-119l-69 107l-69 -107h-119z" />
    <glyph glyph-name="uniF40C" unicode="&#xf40c;" horiz-adv-x="500" 
d="M250 950q123 0 123 -116t-123 -116t-123 116t123 116zM250 885q-39 0 -39 -51t39 -51t39 51t-39 51z" />
    <glyph glyph-name="uniF40D" unicode="&#xf40d;" horiz-adv-x="500" 
d="M422 924l55 -93q-58 -88 -141 -88q-55 0 -113 34q-37 21 -65 21q-48 0 -80 -56l-55 93q58 88 141 88q55 0 113 -34q37 -21 65 -21q48 0 80 56z" />
    <glyph glyph-name="uniF6BA" unicode="&#xf6ba;" horiz-adv-x="405" 
d="M347 330v-136h-289v136h289z" />
    <glyph glyph-name="uniF6BB" unicode="&#xf6bb;" horiz-adv-x="664" 
d="M606 320v-116h-548v116h548z" />
    <glyph glyph-name="uniF6BC" unicode="&#xf6bc;" horiz-adv-x="861" 
d="M803 320v-116h-745v116h745z" />
    <glyph glyph-name="uniF6C9" unicode="&#xf6c9;" horiz-adv-x="500" 
d="M211 919h171l-132 -183h-133z" />
    <glyph glyph-name="uniF6CA" unicode="&#xf6ca;" horiz-adv-x="500" 
d="M438 918l-93 -183h-190l-93 183h119l69 -107l69 107h119z" />
    <glyph glyph-name="uniF6CB" unicode="&#xf6cb;" horiz-adv-x="500" 
d="M187 903v-153h-139v153h139zM452 903v-153h-139v153h139z" />
    <glyph glyph-name="uniF6CE" unicode="&#xf6ce;" horiz-adv-x="500" 
d="M383 736h-133l-132 183h171z" />
    <glyph glyph-name="uniF6D1" unicode="&#xf6d1;" horiz-adv-x="500" 
d="M250 733q-146 0 -212 103l95 85q42 -63 117 -63t117 63l95 -85q-67 -103 -212 -103z" />
    <glyph glyph-name="uniF6D4" unicode="&#xf6d4;" horiz-adv-x="500" 
d="M250 578q-136 0 -196 95l88 79q37 -58 108 -58t108 58l88 -79q-62 -95 -196 -95z" />
    <glyph glyph-name="uniF8FF" unicode="&#xf8ff;" horiz-adv-x="790" 
d="M569 788q1 -5 1 -23q0 -71 -51 -122q-53 -51 -97 -51l-14 2q-1 4 -1 19q0 58 47 111q48 52 115 64zM735 197q-55 -119 -100 -167q-44 -47 -100 -47q-28 0 -64 16q-38 16 -60 16q-25 0 -64 -16t-62 -16q-64 0 -126 86q-104 143 -104 291q0 101 59 172q58 70 160 70
q27 0 73 -17q48 -17 63 -17q14 0 60 17q48 17 74 17q104 0 175 -80q-98 -63 -98 -160q0 -114 114 -165z" />
    <glyph glyph-name="uniFEFF" unicode="&#xfeff;" horiz-adv-x="0" 
 />
    <glyph glyph-name="NULL" horiz-adv-x="0" 
 />
    <glyph glyph-name="CR" horiz-adv-x="333" 
 />
    <glyph glyph-name="afii10069.ss04" horiz-adv-x="583" 
d="M533 0h-154v29q-87 -43 -151 -43q-100 0 -147.5 63.5t-47.5 199.5t47.5 199.5t147.5 63.5q39 0 69 -9q31 -9 76 -31v268h160v-740zM373 137v224q-54 27 -88 27q-45 0 -66 -32.5t-21 -106.5t21 -106.5t66 -32.5q34 0 88 27z" />
    <glyph glyph-name="afii10068.ss04" horiz-adv-x="269" 
d="M57 190v280q0 141 57 207t185 73l79 4v-130q-30 2 -51 2q-58 0 -84 -36t-26 -121v-281q0 -137 -23 -234t-80 -168l-140 62q83 92 83 342z" />
    <glyph glyph-name="afii10067.ss04" horiz-adv-x="597" 
d="M294 754q125 0 181 -56q55 -55 55 -144q0 -106 -74 -153q110 -47 110 -194q0 -111 -63 -166t-204 -55q-116 0 -249 34v503q0 114 62.5 172.5t181.5 58.5zM292 630q-43 0 -62.5 -25t-19.5 -83v-76h78q84 0 84 92t-80 92zM401 216q0 54 -24.5 80t-83.5 26h-83v-203
q43 -9 82 -9q58 0 83.5 26t25.5 80z" />
    <glyph glyph-name="afii10021.ss04" horiz-adv-x="711" 
d="M58 16v668q140 30 259 30q187 0 272 -84q87 -84 87 -280t-87 -280q-85 -84 -272 -84q-119 0 -259 30zM311 569q-33 0 -73 -5v-428q40 -5 73 -5q100 0 139 51q40 50 40 168t-40 168q-39 51 -139 51z" />
    <glyph glyph-name="afii10042.ss04" horiz-adv-x="956" 
d="M388 700h180v-565q87 5 121 43q35 41 35 151v371h180v-372q0 -201 -106 -273q-54 -38 -129 -53.5t-191 -15.5q-115 0 -190.5 15.5t-130.5 53.5q-105 73 -105 273v372h180v-371q0 -110 35 -151q34 -38 121 -43v565z" />
    <glyph glyph-name="afii10043.ss04" horiz-adv-x="956" 
d="M388 700h180v-565q87 5 121 43q35 41 35 151v371h180v-372q0 -176 -81 -253q-80 -75 -256 -86q15 -85 42 -154l-195 -16q-17 74 -23 170q-177 10 -259 86q-80 77 -80 253v372h180v-371q0 -110 35 -151q34 -38 121 -43v565z" />
    <glyph glyph-name="nbspace" horiz-adv-x="230" 
 />
    <glyph glyph-name="afii10044.ss04" horiz-adv-x="634" 
d="M66 122h524v-122h-524v122zM308 432v-116q31 -6 59 -6q74 0 74 64t-74 64q-27 0 -59 -6zM148 217v359h-128v124h288v-144q33 4 74 4q222 0 222 -186q0 -92 -55 -139t-178 -47q-102 0 -223 29z" />
    <glyph glyph-name="afii10059.ss04" horiz-adv-x="1040" 
d="M427 24l-150 288q-27 54 -47 114h-2q8 -70 8 -120v-306h-178v700h205l162 -312q27 -54 47 -114h2q-8 70 -8 120v306h178v-254q44 4 75 4q293 0 293 -232t-293 -232q-122 0 -292 38zM644 299v-162q43 -6 74 -6q108 0 108 87t-108 87q-30 0 -74 -6z" />
    <glyph glyph-name="afii10145.ss04" horiz-adv-x="700" 
d="M468 263v437h180v-439q0 -127 -51.5 -191.5t-162.5 -78.5l5 -141h-182l4 142q-108 15 -158.5 79.5t-50.5 189.5v439h180v-437q0 -73 27 -102.5t91 -29.5t91 29.5t27 102.5z" />
    <glyph glyph-name="afii10065.ss04" horiz-adv-x="583" 
d="M533 498v-498h-154v29q-87 -43 -151 -43q-100 0 -147.5 63.5t-47.5 199.5t47.5 199.5t147.5 63.5q64 0 151 -43v29h154zM373 137v224q-54 27 -88 27q-45 0 -66 -32.5t-21 -106.5t21 -106.5t66 -32.5q34 0 88 27z" />
    <glyph glyph-name="afii10046.ss04" horiz-adv-x="556" 
d="M70 122h442v-122h-442v122zM230 432v-116q31 -6 59 -6q74 0 74 64t-74 64q-27 0 -59 -6zM70 700h160v-144q33 4 74 4q222 0 222 -186q0 -92 -55 -139t-178 -47q-102 0 -223 29v483z" />
    <glyph glyph-name="a.ss04" horiz-adv-x="583" 
d="M533 498v-498h-154v29q-87 -43 -151 -43q-100 0 -147.5 63.5t-47.5 199.5t47.5 199.5t147.5 63.5q64 0 151 -43v29h154zM373 137v224q-54 27 -88 27q-45 0 -66 -32.5t-21 -106.5t21 -106.5t66 -32.5q34 0 88 27z" />
    <glyph glyph-name="afii10098.ss04" horiz-adv-x="269" 
d="M57 190v280q0 130 48.5 196t156.5 80l9 125h107v-247q-30 2 -51 2q-58 0 -84 -36t-26 -121v-281q0 -137 -23 -234t-80 -168l-140 62q83 92 83 342z" />
    <glyph glyph-name="cyrAcute" horiz-adv-x="500" 
d="M211 919h171l-132 -183h-133z" />
    <glyph glyph-name="cyracute" horiz-adv-x="500" 
d="M121 571l94 183h163l-132 -183h-125z" />
    <glyph glyph-name="afii10040.ss04" horiz-adv-x="700" 
d="M468 263v437h180v-439q0 -56 -11 -105l97 -62l-91 -144l-110 69q-66 -33 -183 -33q-154 0 -227 62q-71 63 -71 213v439h180v-437q0 -73 27 -102.5t91 -29.5t91 29.5t27 102.5z" />
    <glyph glyph-name="afii10109.ss04" horiz-adv-x="546" 
d="M50 740h160v-740h-160v740zM525 498l-138 -226l157 -258l-177 -21l-147 264l125 241h180zM239 571l94 183h163l-132 -183h-125z" />
    <glyph glyph-name="t.ss04" horiz-adv-x="382" 
d="M20 374v124h91v170h160v-170h91v-124h-91v-374h-160v374h-91z" />
    <glyph glyph-name="afii10076.ss04" horiz-adv-x="546" 
d="M50 740h160v-740h-160v740zM525 498l-138 -226l157 -258l-177 -21l-147 264l125 241h180z" />
    <glyph glyph-name="afii10068_afii10076.ss04_ss04" horiz-adv-x="828" 
d="M807 498l-138 -226l157 -258l-177 -21l-147 264l125 241h180zM57 190v294q0 138 63 204t189 66q76 0 183 -8v-746h-160v631q-64 0 -89.5 -32.5t-25.5 -115.5v-295q0 -137 -23 -234t-80 -168l-140 62q83 92 83 342z" />
    <glyph glyph-name="afii10084.ss04" horiz-adv-x="372" 
d="M15 374v124h91v170h160v-170h91v-124h-91v-374h-160v374h-91z" />
    <glyph glyph-name="afii10068.ss04.alt" horiz-adv-x="390" 
d="M379 507l-2 -132q-32 3 -65 3q-54 0 -102 -8v-370h-160v478q114 34 234 34q40 0 95 -5z" />
    <glyph glyph-name="afii10074.ss04.accented" 
d="M50 163v335h160v-328q0 -60 61 -60q35 0 90 27v361h160v-498h-154v29q-92 -43 -156 -43q-84 0 -122.5 44t-38.5 133zM184 571l94 183h163l-132 -183h-125z" />
    <glyph glyph-name="afii10031.ss04" horiz-adv-x="702" 
d="M466 700h178v-700h-205l-162 312q-27 54 -47 114h-2q8 -70 8 -120v-306h-178v700h205l162 -312q27 -54 47 -114h2q-8 70 -8 120v306z" />
    <glyph glyph-name="afii10037.ss04" horiz-adv-x="710" 
d="M-1 700h214l142 -254l142 254h214l-266 -441v-259h-180v259z" />
    <glyph glyph-name="afii10041.ss04" horiz-adv-x="654" 
d="M435 525v175h180v-178q0 -125 -49 -184.5t-149 -71.5v-266h-180v266q-100 12 -149 71.5t-49 184.5v178h180v-175q0 -69 22 -94q23 -26 86 -26t86 26q22 25 22 94z" />
    <glyph glyph-name="afii10068_afii10103.ss04_" horiz-adv-x="529" 
d="M479 498v-498h-160v498h160zM57 190v256q0 154 69 224q72 72 225 79l97 5v-131q-56 2 -83 2q-79 0 -113 -37q-35 -38 -35 -144v-256q0 -137 -23 -234t-80 -168l-140 62q83 92 83 342z" />
    <glyph glyph-name="afii10100.ss04" horiz-adv-x="390" 
d="M379 507l-2 -132q-32 3 -65 3q-54 0 -102 -8v-370h-160v478q114 34 234 34q40 0 95 -5zM114 571l94 183h163l-132 -183h-125z" />
    <glyph glyph-name="afii10098.ss04.alt" horiz-adv-x="390" 
d="M259 615h120v-240q-31 3 -67 3q-54 0 -102 -8v-370h-160v478q100 28 203 33z" />
    <glyph glyph-name="afii10058.ss04" horiz-adv-x="1035" 
d="M236 700h244l88 -262q99 12 146 12q293 0 293 -232t-293 -232q-71 0 -195 19l-119 381q-22 70 -42 151q-20 -81 -42 -151l-121 -386h-193zM615 296l54 -163q22 -2 44 -2q108 0 108 87t-108 87q-31 0 -98 -9z" />
    <glyph glyph-name="afii10106.ss04" horiz-adv-x="824" 
d="M392 4l-70 226l-16 48q-11 35 -19 64h-3l-34 -112l-71 -230h-174l172 498h218l52 -150q67 10 130 10q222 0 222 -186q0 -92 -55 -139t-178 -47q-78 0 -174 18zM562 236q-29 0 -74 -9l41 -117q16 -2 33 -2q74 0 74 64t-74 64z" />
    <glyph glyph-name="afii10193.ss04" 
d="M207 -180v136h158v-136h-158zM50 163v335h160v-328q0 -60 61 -60q35 0 90 27v361h160v-498h-154v29q-92 -43 -156 -43q-84 0 -122.5 44t-38.5 133z" />
    <glyph glyph-name="afii10021.ss04.alt" horiz-adv-x="734" 
d="M367 548l-116 -403h232zM11 -130v275h52l171 555h266l171 -555h52v-275h-162l-11 130h-366l-11 -130h-162z" />
    <glyph glyph-name="afii10029.ss04" horiz-adv-x="716" 
d="M358 537q-20 -81 -42 -151l-121 -386h-193l234 700h244l234 -700h-193l-121 386q-22 70 -42 151z" />
    <glyph glyph-name="afii10091.ss04" horiz-adv-x="884" 
d="M734 -140l-9 142l-32 21q-90 -37 -145 -37q-90 0 -145 49q-91 -49 -161 -49q-100 0 -146 43.5t-46 135.5v333h160v-328q0 -60 61 -60q32 0 81 28q-2 18 -2 26v334h160v-328q0 -60 57 -60q31 0 83 27v361h160v-368l61 -39v-231h-137z" />
    <glyph glyph-name="afii10090.ss04" horiz-adv-x="860" 
d="M350 498h160v-327q0 -61 57 -61q31 0 83 27v361h160v-498h-154v29q-85 -43 -149 -43q-82 0 -122 49q-101 -49 -162 -49q-92 0 -132.5 42.5t-40.5 135.5v334h160v-327q0 -61 60 -61q33 0 82 28q-2 18 -2 26v334z" />
    <glyph glyph-name="afii10088.ss04" horiz-adv-x="595" 
d="M445 -140l-9 142l-32 20q-98 -36 -158 -36q-196 0 -196 180v332h160v-327q0 -61 62 -61q34 0 89 27v361h160v-368l61 -39v-231h-137z" />
    <glyph glyph-name="afii10081.ss04" 
d="M521 335v-335h-160v328q0 60 -61 60q-34 0 -90 -27v-361h-160v498h154v-29q92 43 156 43q84 0 122.5 -44t38.5 -133z" />
    <glyph glyph-name="afii10077.ss04" horiz-adv-x="572" 
d="M287 342h-3l-34 -112l-71 -230h-174l172 498h218l172 -498h-174l-71 230q-13 38 -35 112z" />
    <glyph glyph-name="afii10075.ss04" 
d="M50 163v335h160v-328q0 -60 61 -60q35 0 90 27v361h160v-498h-154v29q-92 -43 -156 -43q-84 0 -122.5 44t-38.5 133zM286 578q-136 0 -196 95l88 79q37 -58 108 -58t108 58l88 -79q-62 -95 -196 -95z" />
    <glyph glyph-name="afii10074.ss04" 
d="M50 163v335h160v-328q0 -60 61 -60q35 0 90 27v361h160v-498h-154v29q-92 -43 -156 -43q-84 0 -122.5 44t-38.5 133z" />
    <glyph glyph-name="afii10073.ss04" horiz-adv-x="510" 
d="M480 -3q0 -211 -277 -211q-96 0 -207 28l28 137q90 -41 167 -41q124 0 124 93t-123 93q-56 0 -103 -4v129q43 -4 103 -4q104 0 104 85q0 40 -27 63t-75 23q-64 0 -149 -33l-28 133q107 24 186 24q252 0 252 -195q0 -102 -74 -146q99 -47 99 -174z" />
    <glyph glyph-name="afii10069.ss04.alt" horiz-adv-x="608" 
d="M390 463q-40 132 -134 241l131 74q186 -224 186 -498q0 -294 -277 -294q-265 0 -265 254q0 129 54.5 191.5t168.5 62.5q71 0 136 -31zM196 239q0 -129 100 -129q110 0 110 153q0 56 -4 84q-61 23 -106 23q-54 0 -77 -31t-23 -100z" />
    <glyph glyph-name="lslash.ss02" horiz-adv-x="547" 
d="M262 145h267v-145h-447v276l-59 -19v147l59 19v277h180v-221l130 41v-147l-130 -41v-187z" />
    <glyph glyph-name="scaron.ss02" horiz-adv-x="609" 
d="M297 131q51 0 71 17t20 51q0 63 -82 73l-35 5q-127 18 -175 73t-48 148q0 216 258 216q92 0 243 -32l-25 -160q-124 47 -211 47q-43 0 -61.5 -15.5t-18.5 -48.5q0 -31 17 -47t62 -22l39 -6q126 -19 174 -77q49 -55 49 -147q0 -220 -277 -220q-121 0 -266 37l27 169
q118 -61 239 -61zM497 918l-93 -183h-190l-93 183h119l69 -107l69 107h119z" />
    <glyph glyph-name="yacute.ss02" horiz-adv-x="710" 
d="M-1 700h214l142 -254l142 254h214l-266 -441v-259h-180v259zM369 919h171l-132 -183h-133z" />
    <glyph glyph-name="thorn.ss02" horiz-adv-x="630" 
d="M238 450v-180q40 -5 64 -5q109 0 109 95t-109 95q-24 0 -64 -5zM58 700h180v-103q8 0 34 1.5t34 1.5q285 0 285 -240t-285 -240q-34 0 -68 3v-123h-180v700z" />
    <glyph glyph-name="thorn.ss01" horiz-adv-x="583" 
d="M210 380v-262q37 -8 71 -8q53 0 78.5 33t25.5 106t-25.5 106t-78.5 33q-34 0 -71 -8zM50 740h160v-232q33 4 76 4q128 0 196 -59t68 -204q0 -146 -68 -205q-67 -58 -196 -58q-43 0 -76 4v-190h-160v940z" />
    <glyph glyph-name="zcaron.ss02" horiz-adv-x="607" 
d="M255 145h319v-145h-541v145l306 410h-293v145h515v-145zM491 918l-93 -183h-190l-93 183h119l69 -107l69 107h119z" />
    <glyph glyph-name="at.ss01" horiz-adv-x="1017" 
d="M566 99v94q-43 6 -68 6q-38 0 -53.5 -26.5t0 -53t53.5 -26.5q24 0 68 6zM726 325v-194q50 22 74 63.5t24 114.5q0 150 -70 223q-70 75 -246 75q-95 0 -155 -19.5t-95 -63.5q-35 -43 -49 -107.5t-14 -167.5q0 -142 31 -219q32 -76 96.5 -107.5t185.5 -31.5q131 0 278 38
l18 -108q-181 -37 -296 -37q-232 0 -336 108q-102 106 -102 357t102 358q104 107 336 107q245 0 345 -115q94 -105 94 -290q0 -109 -53 -185q-96 -138 -398 -138q-117 0 -169.5 40t-52.5 120t50.5 120t161.5 40q27 0 80 -5v22q0 36 -17.5 50.5t-59.5 14.5q-57 0 -157 -35
l-23 130q133 29 199 29q117 0 167.5 -46.5t50.5 -140.5z" />
    <glyph glyph-name="b.ss02" horiz-adv-x="665" 
d="M238 565v-139h79q52 0 73.5 18t21.5 55q0 36 -21.5 54.5t-73.5 18.5q-34 0 -79 -7zM446 205q0 39 -25 59t-87 20h-96v-149q43 -7 96 -7q62 0 87 20t25 57zM590 523q0 -111 -80 -152q122 -44 122 -178q0 -102 -70 -154.5t-222 -52.5q-130 0 -282 30v668q150 30 263 30
q143 0 206 -47t63 -144z" />
    <glyph glyph-name="c.ss02" horiz-adv-x="607" 
d="M385 131q69 0 165 40l27 -158q-119 -27 -211 -27q-79 0 -134.5 16t-101.5 54q-95 78 -95 294t95 294q46 38 101.5 54t134.5 16q89 0 211 -25l-27 -162q-99 42 -165 42q-87 0 -125.5 -52t-38.5 -167t38.5 -167t125.5 -52z" />
    <glyph glyph-name="d.ss02" horiz-adv-x="711" 
d="M58 16v668q140 30 259 30q187 0 272 -84q87 -84 87 -280t-87 -280q-85 -84 -272 -84q-119 0 -259 30zM311 569q-33 0 -73 -5v-428q40 -5 73 -5q100 0 139 51q40 50 40 168t-40 168q-39 51 -139 51z" />
    <glyph glyph-name="f.ss02" horiz-adv-x="541" 
d="M238 252v-252h-180v700h454v-145h-274v-162h248v-141h-248z" />
    <glyph glyph-name="g.ss02" horiz-adv-x="694" 
d="M387 130q38 0 75 8v222h180v-337q-149 -37 -276 -37q-62 0 -110.5 10.5t-91 35.5t-70.5 66t-43.5 104.5t-15.5 147.5q0 213 93 292q83 72 238 72q109 0 242 -28l-31 -160q-113 43 -190 43q-87 0 -126.5 -52t-39.5 -167q0 -113 39.5 -166.5t126.5 -53.5z" />
    <glyph glyph-name="h.ss02" horiz-adv-x="689" 
d="M631 700v-700h-180v282h-213v-282h-180v700h180v-273h213v273h180z" />
    <glyph glyph-name="i.ss02" horiz-adv-x="296" 
d="M238 700v-700h-180v700h180z" />
    <glyph glyph-name="j.ss02" horiz-adv-x="441" 
d="M128 -14q-58 0 -117 12l19 150q42 -17 83 -17q54 0 75 26t21 95v448h180v-452q0 -131 -57 -197q-57 -65 -204 -65z" />
    <glyph glyph-name="k.ss02" horiz-adv-x="691" 
d="M490 -7l-241 362l207 345h201l-208 -327l241 -353zM58 700h180v-700h-180v700z" />
    <glyph glyph-name="l.ss02" horiz-adv-x="523" 
d="M238 145h267v-145h-447v700h180v-555z" />
    <glyph glyph-name="o.ss02" horiz-adv-x="734" 
d="M478 184q35 55 35 166q0 112 -35 165q-34 54 -111 54t-111 -54q-35 -53 -35 -165q0 -111 35 -166q35 -53 111 -53t111 53zM119 69q-84 83 -84 281t84 281q85 83 248 83t248 -83q84 -83 84 -281t-84 -281q-85 -83 -248 -83t-248 83z" />
    <glyph glyph-name="p.ss02" horiz-adv-x="619" 
d="M238 0h-180v684q144 30 248 30q285 0 285 -240t-285 -240q-34 0 -68 3v-237zM238 564v-180q40 -5 64 -5q109 0 109 95t-109 95q-24 0 -64 -5z" />
    <glyph glyph-name="q.ss02" horiz-adv-x="734" 
d="M35 350q0 198 84 281q85 83 248 83t248 -83q84 -83 84 -281q0 -167 -61 -252.5t-184 -104.5q14 -89 42 -159l-192 -16q-18 75 -24 175q-123 19 -184 104.5t-61 252.5zM478 184q35 55 35 166q0 112 -35 165q-34 54 -111 54t-111 -54q-35 -53 -35 -165q0 -111 35 -166
q35 -53 111 -53t111 53z" />
    <glyph glyph-name="r.ss02" horiz-adv-x="626" 
d="M238 564v-164h72q56 0 78.5 21.5t22.5 62.5q0 42 -22.5 63.5t-78.5 21.5q-29 0 -72 -5zM591 486q0 -147 -110 -192l136 -276l-191 -22l-117 259h-71v-255h-180v684q148 30 249 30q168 0 229 -70q55 -62 55 -158z" />
    <glyph glyph-name="s.ss02" horiz-adv-x="609" 
d="M297 131q51 0 71 17t20 51q0 63 -82 73l-35 5q-127 18 -175 73t-48 148q0 216 258 216q92 0 243 -32l-25 -160q-124 47 -211 47q-43 0 -61.5 -15.5t-18.5 -48.5q0 -31 17 -47t62 -22l39 -6q126 -19 174 -77q49 -55 49 -147q0 -220 -277 -220q-121 0 -266 37l27 169
q118 -61 239 -61z" />
    <glyph glyph-name="t.ss02" horiz-adv-x="626" 
d="M608 700v-145h-205v-555h-180v555h-205v145h590z" />
    <glyph glyph-name="v.ss02" horiz-adv-x="710" 
d="M355 153q32 130 42 161l118 386h193l-234 -700h-238l-234 700h193l118 -386q10 -31 42 -161z" />
    <glyph glyph-name="w.ss02" horiz-adv-x="1050" 
d="M423 700h204l90 -400q4 -18 22 -112h4q5 32 22 112l90 400h184l-169 -700h-242l-76 315q-12 44 -27 122q-15 -78 -27 -122l-76 -315h-242l-169 700h184l90 -400q4 -18 22 -112h4q5 32 22 112z" />
    <glyph glyph-name="x.ss02" horiz-adv-x="692" 
d="M466 0l-120 227l-120 -227h-211l207 355l-199 345h210l113 -216l113 216h210l-199 -345l207 -355h-211z" />
    <glyph glyph-name="y.ss02" horiz-adv-x="710" 
d="M-1 700h214l142 -254l142 254h214l-266 -441v-259h-180v259z" />
    <glyph glyph-name="z.ss02" horiz-adv-x="607" 
d="M255 145h319v-145h-541v145l306 410h-293v145h515v-145z" />
    <glyph glyph-name="a.ss01" horiz-adv-x="519" 
d="M311 99v94q-42 6 -66 6q-36 0 -51 -26.5t0 -53t51 -26.5q24 0 66 6zM471 325v-306q-135 -33 -236 -33q-108 0 -158 40t-50 120t50 120t158 40q44 0 76 -4v21q0 36 -17 50.5t-57 14.5q-57 0 -157 -35l-22 129q124 30 195 30q116 0 167 -47t51 -140z" />
    <glyph glyph-name="b.ss01" horiz-adv-x="583" 
d="M50 740h160v-232q33 4 76 4q128 0 196 -59t68 -204q0 -146 -68 -205q-67 -58 -196 -58q-121 0 -236 34v720zM210 380v-262q37 -8 71 -8q53 0 78.5 33t25.5 106t-25.5 106t-78.5 33q-34 0 -71 -8z" />
    <glyph glyph-name="d.ss01" horiz-adv-x="583" 
d="M373 508v232h160v-720q-115 -34 -236 -34q-130 0 -197 58t-67 205q0 146 67 204q68 59 197 59q43 0 76 -4zM373 118v262q-37 8 -71 8q-53 0 -78.5 -33t-25.5 -106t25.5 -106t78.5 -33q34 0 71 8z" />
    <glyph glyph-name="g.ss01" horiz-adv-x="583" 
d="M373 128v252q-40 8 -71 8q-104 0 -104 -134t104 -134q31 0 71 8zM297 -4q-132 0 -198 60.5t-66 197.5t66 197.5t198 60.5q121 0 236 -34v-448q0 -113 -49 -175q-54 -69 -222 -69q-92 0 -214 26l26 139q96 -41 173 -41q65 0 93.5 21.5t31.5 68.5q-33 -4 -75 -4z" />
    <glyph glyph-name="h.ss01" 
d="M50 740h160v-232q29 4 74 4q237 0 237 -204v-308h-160v302q0 45 -20 65.5t-63 20.5q-36 0 -68 -7v-381h-160v740z" />
    <glyph glyph-name="m.ss01" horiz-adv-x="860" 
d="M510 0h-160v302q0 45 -18.5 65.5t-58.5 20.5q-34 0 -63 -7v-381h-160v478q111 34 228 34q92 0 145 -30q90 30 160 30q227 0 227 -204v-308h-160v302q0 45 -18.5 65.5t-58.5 20.5q-37 0 -70 -12q7 -28 7 -68v-308z" />
    <glyph glyph-name="n.ss01" 
d="M521 308v-308h-160v302q0 45 -20 65.5t-63 20.5q-36 0 -68 -7v-381h-160v478q114 34 234 34q237 0 237 -204z" />
    <glyph glyph-name="p.ss01" horiz-adv-x="583" 
d="M210 380v-262q37 -8 71 -8q53 0 78.5 33t25.5 106t-25.5 106t-78.5 33q-34 0 -71 -8zM210 -200h-160v678q115 34 236 34q128 0 196 -59t68 -204q0 -146 -68 -205q-67 -58 -196 -58q-43 0 -76 4v-190z" />
    <glyph glyph-name="q.ss01" horiz-adv-x="583" 
d="M373 118v262q-37 8 -71 8q-53 0 -78.5 -33t-25.5 -106t25.5 -106t78.5 -33q34 0 71 8zM533 478v-678h-160v190q-33 -4 -76 -4q-130 0 -197 58t-67 205q0 146 67 204q68 59 197 59q121 0 236 -34z" />
    <glyph glyph-name="r.ss01" horiz-adv-x="365" 
d="M354 510v-133q-13 1 -42 1q-54 0 -102 -8v-370h-160v478q111 34 234 34q16 0 70 -2z" />
    <glyph glyph-name="u.ss01" 
d="M50 190v308h160v-302q0 -45 20 -65.5t63 -20.5q36 0 68 7v381h160v-478q-114 -34 -234 -34q-237 0 -237 204z" />
    <glyph glyph-name="ccedilla.ss02" horiz-adv-x="607" 
d="M385 131q69 0 165 40l27 -158q-101 -21 -164 -25l-3 -20q98 -11 98 -101q0 -103 -126 -103q-45 0 -92 10l10 73q36 -14 63 -14q44 0 44 34t-44 34q-24 0 -57 -3l12 90q-129 7 -203 83q-80 82 -80 279q0 216 95 294q46 38 101.5 54t134.5 16q89 0 211 -25l-27 -162
q-99 42 -165 42q-87 0 -125.5 -52t-38.5 -167t38.5 -167t125.5 -52z" />
    <glyph glyph-name="aacute.ss01" horiz-adv-x="519" 
d="M311 99v94q-42 6 -66 6q-36 0 -51 -26.5t0 -53t51 -26.5q24 0 66 6zM471 325v-306q-135 -33 -236 -33q-108 0 -158 40t-50 120t50 120t158 40q44 0 76 -4v21q0 36 -17 50.5t-57 14.5q-57 0 -157 -35l-22 129q124 30 195 30q116 0 167 -47t51 -140zM172 571l94 183h163
l-132 -183h-125z" />
    <glyph glyph-name="agrave.ss01" horiz-adv-x="519" 
d="M311 99v94q-42 6 -66 6q-36 0 -51 -26.5t0 -53t51 -26.5q24 0 66 6zM471 325v-306q-135 -33 -236 -33q-108 0 -158 40t-50 120t50 120t158 40q44 0 76 -4v21q0 36 -17 50.5t-57 14.5q-57 0 -157 -35l-22 129q124 30 195 30q116 0 167 -47t51 -140zM230 571l-132 183h163
l94 -183h-125z" />
    <glyph glyph-name="acircumflex.ss01" horiz-adv-x="519" 
d="M311 99v94q-42 6 -66 6q-36 0 -51 -26.5t0 -53t51 -26.5q24 0 66 6zM471 325v-306q-135 -33 -236 -33q-108 0 -158 40t-50 120t50 120t158 40q44 0 76 -4v21q0 36 -17 50.5t-57 14.5q-57 0 -157 -35l-22 129q124 30 195 30q116 0 167 -47t51 -140zM80 571l90 183h188
l90 -183h-118l-66 106l-66 -106h-118z" />
    <glyph glyph-name="adieresis.ss01" horiz-adv-x="519" 
d="M311 99v94q-42 6 -66 6q-36 0 -51 -26.5t0 -53t51 -26.5q24 0 66 6zM471 325v-306q-135 -33 -236 -33q-108 0 -158 40t-50 120t50 120t158 40q44 0 76 -4v21q0 36 -17 50.5t-57 14.5q-57 0 -157 -35l-22 129q124 30 195 30q116 0 167 -47t51 -140zM210 740v-153h-139v153
h139zM457 740v-153h-139v153h139z" />
    <glyph glyph-name="atilde.ss01" horiz-adv-x="519" 
d="M311 99v94q-42 6 -66 6q-36 0 -51 -26.5t0 -53t51 -26.5q24 0 66 6zM471 325v-306q-135 -33 -236 -33q-108 0 -158 40t-50 120t50 120t158 40q44 0 76 -4v21q0 36 -17 50.5t-57 14.5q-57 0 -157 -35l-22 129q124 30 195 30q116 0 167 -47t51 -140zM423 747l51 -86
q-54 -81 -130 -81q-50 0 -105 31q-35 20 -60 20q-46 0 -74 -52l-51 86q54 81 130 81q50 0 105 -31q35 -20 60 -20q46 0 74 52z" />
    <glyph glyph-name="aring.ss01" horiz-adv-x="519" 
d="M311 99v94q-42 6 -66 6q-36 0 -51 -26.5t0 -53t51 -26.5q24 0 66 6zM471 325v-306q-135 -33 -236 -33q-108 0 -158 40t-50 120t50 120t158 40q44 0 76 -4v21q0 36 -17 50.5t-57 14.5q-57 0 -157 -35l-22 129q124 30 195 30q116 0 167 -47t51 -140zM264 773
q123 0 123 -116t-123 -116t-123 116t123 116zM264 708q-39 0 -39 -51t39 -51t39 51t-39 51z" />
    <glyph glyph-name="ntilde.ss01" 
d="M521 308v-308h-160v302q0 45 -20 65.5t-63 20.5q-36 0 -68 -7v-381h-160v478q114 34 234 34q237 0 237 -204zM445 747l51 -86q-54 -81 -130 -81q-50 0 -105 31q-35 20 -60 20q-46 0 -74 -52l-51 86q54 81 130 81q50 0 105 -31q35 -20 60 -20q46 0 74 52z" />
    <glyph glyph-name="uacute.ss01" 
d="M50 190v308h160v-302q0 -45 20 -65.5t63 -20.5q36 0 68 7v381h160v-478q-114 -34 -234 -34q-237 0 -237 204zM188 571l94 183h163l-132 -183h-125z" />
    <glyph glyph-name="ugrave.ss01" 
d="M50 190v308h160v-302q0 -45 20 -65.5t63 -20.5q36 0 68 7v381h160v-478q-114 -34 -234 -34q-237 0 -237 204zM259 571l-132 183h163l94 -183h-125z" />
    <glyph glyph-name="ucircumflex.ss01" 
d="M50 190v308h160v-302q0 -45 20 -65.5t63 -20.5q36 0 68 7v381h160v-478q-114 -34 -234 -34q-237 0 -237 204zM102 571l90 183h188l90 -183h-118l-66 106l-66 -106h-118z" />
    <glyph glyph-name="udieresis.ss01" 
d="M50 190v308h160v-302q0 -45 20 -65.5t63 -20.5q36 0 68 7v381h160v-478q-114 -34 -234 -34q-237 0 -237 204zM232 740v-153h-139v153h139zM479 740v-153h-139v153h139z" />
    <glyph glyph-name="mu.ss01" 
d="M361 117v381h160v-478q-114 -34 -219 -34q-66 0 -104 20l8 -206h-156v698h160v-302q0 -45 20 -65.5t63 -20.5q36 0 68 7z" />
    <glyph glyph-name="ordfeminine.ss01" horiz-adv-x="475" 
d="M283 304v84q-37 6 -60 6q-33 0 -46 -24t0 -48t46 -24q23 0 60 6zM427 507v-275q-121 -30 -213 -30q-187 0 -187 144t187 144q40 0 69 -4v19q0 32 -15.5 45.5t-51.5 13.5q-51 0 -141 -32l-20 116q113 27 175 27q105 0 151 -42.5t46 -125.5z" />
    <glyph glyph-name="ae.ss01" horiz-adv-x="844" 
d="M246 200q-59 0 -59 -54q0 -53 52 -53q30 0 72 20v81q-42 6 -65 6zM567 397q-84 0 -93 -84h183q-3 84 -90 84zM612 110q90 0 171 25l23 -122q-117 -27 -219 -27q-135 0 -202 51q-121 -51 -198 -51q-160 0 -160 160q0 80 46 120.5t148 40.5q31 0 90 -6v22q0 36 -17 50.5
t-57 14.5q-57 0 -157 -35l-22 129q124 30 195 30q98 0 153 -37q61 37 161 37q131 0 188.5 -64.5t57.5 -198.5v-39h-342q5 -55 35.5 -77.5t105.5 -22.5z" />
    <glyph glyph-name="ydieresis.ss02" horiz-adv-x="710" 
d="M-1 700h214l142 -254l142 254h214l-266 -441v-259h-180v259zM292 903v-153h-139v153h139zM557 903v-153h-139v153h139z" />
    <glyph glyph-name="afii10066.ss02" horiz-adv-x="665" 
d="M332 289q-40 0 -94 -8v-142q48 -8 94 -8q62 0 88 19.5t26 59.5t-26 59.5t-88 19.5zM551 555h-313v-126q62 5 102 5q153 0 222.5 -55.5t69.5 -168.5q0 -114 -70.5 -169t-221.5 -55q-134 0 -282 30v684h493v-145z" />
    <glyph glyph-name="afii10068.ss02" horiz-adv-x="530" 
d="M512 700v-145h-274v-555h-180v700h454z" />
    <glyph glyph-name="afii10072.ss02" horiz-adv-x="1047" 
d="M611 0h-175v700h175v-700zM855 -10l-234 365l197 345h193l-206 -328l241 -351zM36 700h193l197 -345l-234 -365l-191 31l241 351z" />
    <glyph glyph-name="afii10073.ss02" horiz-adv-x="616" 
d="M583 193q0 -90 -55 -145q-64 -62 -246 -62q-114 0 -256 32l26 153q132 -40 228 -40q62 0 89.5 19t27.5 59q0 77 -122 77q-61 0 -116 -4v150q81 -4 116 -4q54 0 77.5 17.5t23.5 52.5q0 71 -96 71q-87 0 -207 -35l-24 153q131 27 231 27q143 0 207.5 -47.5t64.5 -143.5
q0 -109 -84 -153q115 -45 115 -177z" />
    <glyph glyph-name="afii10077.ss02" horiz-adv-x="694" 
d="M636 700v-700h-180v555h-163v-47q0 -186 -27 -299q-27 -112 -72 -160t-119 -69l-72 133q37 15 57 33t38 58q35 77 35 306v190h503z" />
    <glyph glyph-name="afii10085.ss02" horiz-adv-x="695" 
d="M499 700h194l-205 -515q-43 -108 -100 -154q-56 -45 -162 -45q-46 0 -92 8l12 145q28 -9 64 -9q42 0 64 17q21 17 41 70h-116l-197 483h199l151 -387z" />
    <glyph glyph-name="afii10086.ss02" horiz-adv-x="912" 
d="M373 173v354q-81 0 -117 -44t-36 -133t36 -133t117 -44zM546 28v-88h-180v88q-331 0 -331 322t331 322v88h180v-88q331 0 331 -322t-331 -322zM539 527v-354q81 0 117 44t36 133t-36 133t-117 44z" />
    <glyph glyph-name="afii10089.ss02" horiz-adv-x="650" 
d="M592 700v-700h-180v254q-64 -9 -105 -9q-139 0 -203.5 58.5t-64.5 189.5v207h180v-205q0 -57 26 -81t87 -24q32 0 80 6v304h180z" />
    <glyph glyph-name="afii10092.ss02" horiz-adv-x="756" 
d="M180 16l-1 539h-161v145h342v-254q44 4 75 4q293 0 293 -232t-293 -232q-107 0 -255 30zM360 299v-162q43 -6 74 -6q108 0 108 87t-108 87q-30 0 -74 -6z" />
    <glyph glyph-name="afii10093.ss02" horiz-adv-x="923" 
d="M865 0h-180v700h180v-700zM58 700h180v-254q44 4 75 4q293 0 293 -232t-293 -232q-107 0 -255 30v684zM238 299v-162q44 -6 74 -6q108 0 108 87t-108 87q-30 0 -74 -6z" />
    <glyph glyph-name="afii10094.ss02" horiz-adv-x="634" 
d="M58 700h180v-254q44 4 75 4q293 0 293 -232t-293 -232q-107 0 -255 30v684zM238 299v-162q44 -6 74 -6q108 0 108 87t-108 87q-30 0 -74 -6z" />
    <glyph glyph-name="afii10095.ss02" horiz-adv-x="607" 
d="M241 -14q-93 0 -211 27l27 158q96 -40 165 -40q72 0 110.5 35.5t49.5 111.5h-244v144h244q-11 75 -49.5 111t-110.5 36q-66 0 -165 -42l-27 162q122 25 211 25q79 0 134.5 -16t101.5 -54q95 -78 95 -294t-95 -294q-46 -38 -101.5 -54t-134.5 -16z" />
    <glyph glyph-name="afii10096.ss02" horiz-adv-x="1032" 
d="M777 518q-33 51 -105 51t-106 -51q-33 -51 -33 -168t33 -168q34 -51 106 -51t105 51q34 50 34 168t-34 168zM672 -14q-151 0 -229.5 69t-92.5 223h-112v-278h-180v700h180v-277h112q15 154 93 222.5t229 68.5q166 0 245 -84q80 -85 80 -280t-80 -280q-79 -84 -245 -84z
" />
    <glyph glyph-name="afii10097.ss02" horiz-adv-x="626" 
d="M318 255l-118 -259l-191 22l135 274q-109 46 -109 192q0 98 53 159q63 71 231 71q97 0 249 -30v-684h-180v255h-70zM316 400h72v164q-43 5 -72 5q-56 0 -78.5 -21.5t-22.5 -63.5q0 -41 22.5 -62.5t78.5 -21.5z" />
    <glyph glyph-name="afii10099.ss02" horiz-adv-x="808" 
d="M608 555h-222v-157q65 9 104 9q143 0 211 -69t68 -211q0 -112 -48 -187q-55 -88 -211 -100l-5 145q46 11 62.5 46t15.5 93q0 70 -26 104t-91 34q-32 0 -80 -6v-256h-180v555h-188v145h590v-145z" />
    <glyph glyph-name="afii10099.ss01" horiz-adv-x="591" 
d="M230 350v-350h-160v546h-59v112h59v82h160v-82h149v-112h-149v-70q58 5 74 5q237 0 237 -204v-220q0 -142 -53 -204q-53 -63 -179 -67l-15 124q51 4 69 36t18 114v211q0 45 -20 65.5t-63 20.5q-36 0 -68 -7z" />
    <glyph glyph-name="afii10101.ss02" horiz-adv-x="607" 
d="M366 -14q-79 0 -134.5 16t-101.5 54q-95 78 -95 294t95 294q46 38 101.5 54t134.5 16q89 0 211 -25l-27 -162q-99 42 -165 42q-72 0 -110.5 -36t-49.5 -111h244v-144h-244q11 -76 49.5 -111.5t110.5 -35.5q69 0 165 40l27 -158q-119 -27 -211 -27z" />
    <glyph glyph-name="afii10106.ss02" horiz-adv-x="1032" 
d="M456 16v539h-163v-47q0 -186 -27 -299q-27 -112 -72 -160t-119 -69l-72 133q37 15 57 33t38 58q35 77 35 306v190h503v-254q44 4 75 4q293 0 293 -232t-293 -232q-107 0 -255 30zM636 299v-162q44 -6 74 -6q108 0 108 87t-108 87q-30 0 -74 -6z" />
    <glyph glyph-name="afii10107.ss02" horiz-adv-x="1027" 
d="M451 16v266h-213v-282h-180v700h180v-273h213v273h180v-254q44 4 75 4q293 0 293 -232t-293 -232q-106 0 -255 30zM631 299v-162q43 -6 74 -6q108 0 108 87t-108 87q-31 0 -74 -6z" />
    <glyph glyph-name="afii10108.ss02" horiz-adv-x="798" 
d="M608 555h-222v-157q64 9 105 9q139 0 203.5 -58.5t64.5 -189.5v-159h-180v157q0 57 -26 81t-87 24q-32 0 -80 -6v-256h-180v555h-188v145h590v-145z" />
    <glyph glyph-name="afii10108.ss01" horiz-adv-x="591" 
d="M541 0h-160v271q0 45 -20 65.5t-63 20.5q-36 0 -68 -7v-350h-160v546h-59v112h59v82h160v-82h149v-112h-149v-70q58 5 74 5q237 0 237 -204v-277z" />
    <glyph glyph-name="afii10110.ss02" horiz-adv-x="695" 
d="M499 700h194l-205 -515q-43 -108 -100 -154q-56 -45 -162 -45q-46 0 -92 8l12 145q28 -9 64 -9q42 0 64 17q21 17 41 70h-116l-197 483h199l151 -387zM348 733q-146 0 -212 103l95 85q42 -63 117 -63t117 63l95 -85q-67 -103 -212 -103z" />
    <glyph glyph-name="afii10193.ss01" 
d="M207 -180v136h158v-136h-158zM50 190v308h160v-302q0 -45 20 -65.5t63 -20.5q36 0 68 7v381h160v-478q-114 -34 -234 -34q-237 0 -237 204z" />
    <glyph glyph-name="afii10068.ss01" horiz-adv-x="390" 
d="M379 507l-2 -132q-32 3 -65 3q-54 0 -102 -8v-370h-160v478q114 34 234 34q40 0 95 -5z" />
    <glyph glyph-name="afii10074.ss01" 
d="M50 190v308h160v-302q0 -45 20 -65.5t63 -20.5q36 0 68 7v381h160v-478q-114 -34 -234 -34q-237 0 -237 204z" />
    <glyph glyph-name="afii10075.ss01" 
d="M50 190v308h160v-302q0 -45 20 -65.5t63 -20.5q36 0 68 7v381h160v-478q-114 -34 -234 -34q-237 0 -237 204zM286 578q-136 0 -196 95l88 79q37 -58 108 -58t108 58l88 -79q-62 -95 -196 -95z" />
    <glyph glyph-name="afii10088.ss01" horiz-adv-x="595" 
d="M361 117v381h160v-368h61v-270h-137l-9 142q-68 -16 -149 -16q-237 0 -237 204v308h160v-302q0 -45 20 -65.5t63 -20.5q36 0 68 7z" />
    <glyph glyph-name="afii10090.ss01" horiz-adv-x="828" 
d="M210 498v-212q0 -91 25 -128q25 -38 99 -45v385h160v-388q54 1 124 10v378h160v-478q-197 -34 -365 -34q-145 0 -224 29q-77 29 -108 89t-31 175v219h160z" />
    <glyph glyph-name="afii10091.ss01" horiz-adv-x="852" 
d="M839 -140h-137l-9 147q-153 -21 -280 -21q-145 0 -224 29q-77 29 -108 89t-31 175v219h160v-212q0 -91 25 -128q25 -38 99 -45v385h160v-388q54 1 124 10v378h160v-368h61v-270z" />
    <glyph glyph-name="afii10067.ss02" horiz-adv-x="665" 
d="M238 565v-139h79q52 0 73.5 18t21.5 55q0 36 -21.5 54.5t-73.5 18.5q-34 0 -79 -7zM446 205q0 39 -25 59t-87 20h-96v-149q43 -7 96 -7q62 0 87 20t25 57zM590 523q0 -111 -80 -152q122 -44 122 -178q0 -102 -70 -154.5t-222 -52.5q-130 0 -282 30v668q150 30 263 30
q143 0 206 -47t63 -144z" />
    <glyph glyph-name="afii10069.ss02" horiz-adv-x="750" 
d="M20 -130v266q68 16 98.5 113t30.5 290v161h502v-555h75v-275h-162l-11 130h-360l-11 -130h-162zM471 555h-162v-18q0 -279 -70 -392h232v410z" />
    <glyph glyph-name="afii10076.ss02" horiz-adv-x="691" 
d="M490 -7l-241 362l207 345h201l-208 -327l241 -353zM58 700h180v-700h-180v700z" />
    <glyph glyph-name="afii10078.ss02" horiz-adv-x="940" 
d="M470 245q23 95 32 119l114 336h236l48 -700h-178l-17 327q-1 9 -1 64q0 66 1 83h-2q-31 -116 -40 -144l-110 -330h-166l-110 330q-9 28 -40 144h-2q1 -17 1 -83q0 -55 -1 -64l-17 -327h-178l48 700h236l114 -336q9 -24 32 -119z" />
    <glyph glyph-name="afii10079.ss02" horiz-adv-x="689" 
d="M631 700v-700h-180v282h-213v-282h-180v700h180v-273h213v273h180z" />
    <glyph glyph-name="afii10080.ss02" horiz-adv-x="734" 
d="M478 184q35 55 35 166q0 112 -35 165q-34 54 -111 54t-111 -54q-35 -53 -35 -165q0 -111 35 -166q35 -53 111 -53t111 53zM119 69q-84 83 -84 281t84 281q85 83 248 83t248 -83q84 -83 84 -281t-84 -281q-85 -83 -248 -83t-248 83z" />
    <glyph glyph-name="afii10082.ss02" horiz-adv-x="619" 
d="M238 0h-180v684q144 30 248 30q285 0 285 -240t-285 -240q-34 0 -68 3v-237zM238 564v-180q40 -5 64 -5q109 0 109 95t-109 95q-24 0 -64 -5z" />
    <glyph glyph-name="afii10083.ss02" horiz-adv-x="607" 
d="M385 131q69 0 165 40l27 -158q-119 -27 -211 -27q-79 0 -134.5 16t-101.5 54q-95 78 -95 294t95 294q46 38 101.5 54t134.5 16q89 0 211 -25l-27 -162q-99 42 -165 42q-87 0 -125.5 -52t-38.5 -167t38.5 -167t125.5 -52z" />
    <glyph glyph-name="afii10084.ss02" horiz-adv-x="626" 
d="M608 700v-145h-205v-555h-180v555h-205v145h590z" />
    <glyph glyph-name="afii10087.ss02" horiz-adv-x="692" 
d="M466 0l-120 227l-120 -227h-211l207 355l-199 345h210l113 -216l113 216h210l-199 -345l207 -355h-211z" />
    <glyph glyph-name="afii10103.ss02" horiz-adv-x="296" 
d="M238 700v-700h-180v700h180z" />
    <glyph glyph-name="afii10100.ss02" horiz-adv-x="530" 
d="M512 700v-145h-274v-555h-180v700h454zM270 919h171l-132 -183h-133z" />
    <glyph glyph-name="afii10100.ss01" horiz-adv-x="390" 
d="M379 507l-2 -132q-32 3 -65 3q-54 0 -102 -8v-370h-160v478q114 34 234 34q40 0 95 -5zM116 571l94 183h163l-132 -183h-125z" />
    <glyph glyph-name="afii10105.ss02" horiz-adv-x="441" 
d="M128 -14q-58 0 -117 12l19 150q42 -17 83 -17q54 0 75 26t21 95v448h180v-452q0 -131 -57 -197q-57 -65 -204 -65z" />
    <glyph glyph-name="afii10102.ss02" horiz-adv-x="609" 
d="M297 131q51 0 71 17t20 51q0 63 -82 73l-35 5q-127 18 -175 73t-48 148q0 216 258 216q92 0 243 -32l-25 -160q-124 47 -211 47q-43 0 -61.5 -15.5t-18.5 -48.5q0 -31 17 -47t62 -22l39 -6q126 -19 174 -77q49 -55 49 -147q0 -220 -277 -220q-121 0 -266 37l27 169
q118 -61 239 -61z" />
    <glyph glyph-name="afii10109.ss02" horiz-adv-x="691" 
d="M490 -7l-241 362l207 345h201l-208 -327l241 -353zM58 700h180v-700h-180v700zM328 919h171l-132 -183h-133z" />
    <glyph glyph-name="afii10065.ss01" horiz-adv-x="519" 
d="M311 99v94q-42 6 -66 6q-36 0 -51 -26.5t0 -53t51 -26.5q24 0 66 6zM471 325v-306q-135 -33 -236 -33q-108 0 -158 40t-50 120t50 120t158 40q44 0 76 -4v21q0 36 -17 50.5t-57 14.5q-57 0 -157 -35l-22 129q124 30 195 30q116 0 167 -47t51 -140z" />
    <glyph glyph-name="afii10081.ss01" 
d="M521 308v-308h-160v302q0 45 -20 65.5t-63 20.5q-36 0 -68 -7v-381h-160v478q114 34 234 34q237 0 237 -204z" />
    <glyph glyph-name="afii10082.ss01" horiz-adv-x="583" 
d="M210 380v-262q37 -8 71 -8q53 0 78.5 33t25.5 106t-25.5 106t-78.5 33q-34 0 -71 -8zM210 -200h-160v678q115 34 236 34q128 0 196 -59t68 -204q0 -146 -68 -205q-67 -58 -196 -58q-43 0 -76 4v-190z" />
    <glyph glyph-name="afii10104.ss02" horiz-adv-x="296" 
d="M112 904v-154h-132v154h132zM316 904v-154h-133v154h133zM238 700v-700h-180v700h180z" />
    <glyph glyph-name="afii10098.ss01" horiz-adv-x="390" 
d="M259 615h120v-240q-31 3 -67 3q-54 0 -102 -8v-370h-160v478q100 28 203 33z" />
    <glyph glyph-name="afii10098.ss02" horiz-adv-x="530" 
d="M512 810v-255h-274v-555h-180v700h314l7 110h133z" />
    <glyph glyph-name="eth.ss02" horiz-adv-x="735" 
d="M23 422h59v262q139 30 259 30q187 0 272 -84q87 -84 87 -280t-87 -280q-85 -84 -272 -84q-120 0 -259 30v263h-59v143zM335 569q-33 0 -73 -5v-142h89v-143h-89v-143q40 -5 73 -5q100 0 139 51q40 50 40 168t-40 168q-39 51 -139 51z" />
    <glyph glyph-name="germandbls.ss02" horiz-adv-x="649" 
d="M577 509l-113 -107q81 -20 115.5 -68.5t34.5 -130.5q0 -109 -64 -161t-220 -52l-48 2v145q22 -2 39 -2q58 0 83 18.5t25 58.5t-24.5 58.5t-83.5 18.5h-39v118l117 111q-13 51 -82 51q-49 0 -67 -25t-18 -84v-460h-180v463q0 132 64 191.5t202 59.5q135 0 195.5 -50
t63.5 -155z" />
    <glyph glyph-name="afii10080.ss02.accented" horiz-adv-x="734" 
d="M478 184q35 55 35 166q0 112 -35 165q-34 54 -111 54t-111 -54q-35 -53 -35 -165q0 -111 35 -166q35 -53 111 -53t111 53zM119 69q-84 83 -84 281t84 281q85 83 248 83t248 -83q84 -83 84 -281t-84 -281q-85 -83 -248 -83t-248 83zM373 919h171l-132 -183h-133z" />
    <glyph glyph-name="afii10085.ss02.accented" horiz-adv-x="695" 
d="M499 700h194l-205 -515q-43 -108 -100 -154q-56 -45 -162 -45q-46 0 -92 8l12 145q28 -9 64 -9q42 0 64 17q21 17 41 70h-116l-197 483h199l151 -387zM338 919h171l-132 -183h-133z" />
    <glyph glyph-name="afii10093.ss02.accented" horiz-adv-x="923" 
d="M865 0h-180v700h180v-700zM58 700h180v-254q44 4 75 4q293 0 293 -232t-293 -232q-107 0 -255 30v684zM238 299v-162q44 -6 74 -6q108 0 108 87t-108 87q-30 0 -74 -6zM443 919h171l-132 -183h-133z" />
    <glyph glyph-name="afii10095.ss02.accented" horiz-adv-x="607" 
d="M241 -14q-93 0 -211 27l27 158q96 -40 165 -40q72 0 110.5 35.5t49.5 111.5h-244v144h244q-11 75 -49.5 111t-110.5 36q-66 0 -165 -42l-27 162q122 25 211 25q79 0 134.5 -16t101.5 -54q95 -78 95 -294t-95 -294q-46 -38 -101.5 -54t-134.5 -16zM278 919h171l-132 -183
h-133z" />
    <glyph glyph-name="afii10096.ss02.accented" horiz-adv-x="1032" 
d="M777 518q-33 51 -105 51t-106 -51q-33 -51 -33 -168t33 -168q34 -51 106 -51t105 51q34 50 34 168t-34 168zM672 -14q-151 0 -229.5 69t-92.5 223h-112v-278h-180v700h180v-277h112q15 154 93 222.5t229 68.5q166 0 245 -84q80 -85 80 -280t-80 -280q-79 -84 -245 -84z
M423 919h171l-132 -183h-133z" />
    <glyph glyph-name="afii10097.ss02.accented" horiz-adv-x="626" 
d="M318 255l-118 -259l-191 22l135 274q-109 46 -109 192q0 98 53 159q63 71 231 71q97 0 249 -30v-684h-180v255h-70zM316 400h72v164q-43 5 -72 5q-56 0 -78.5 -21.5t-22.5 -63.5q0 -41 22.5 -62.5t78.5 -21.5zM331 919h171l-132 -183h-133z" />
    <glyph glyph-name="afii10065.ss01.accented" horiz-adv-x="519" 
d="M311 99v94q-42 6 -66 6q-36 0 -51 -26.5t0 -53t51 -26.5q24 0 66 6zM471 325v-306q-135 -33 -236 -33q-108 0 -158 40t-50 120t50 120t158 40q44 0 76 -4v21q0 36 -17 50.5t-57 14.5q-57 0 -157 -35l-22 129q124 30 195 30q116 0 167 -47t51 -140zM181 571l94 183h163
l-132 -183h-125z" />
    <glyph glyph-name="afii10074.ss01.accented" 
d="M50 190v308h160v-302q0 -45 20 -65.5t63 -20.5q36 0 68 7v381h160v-478q-114 -34 -234 -34q-237 0 -237 204zM184 571l94 183h163l-132 -183h-125z" />
    <glyph glyph-name="a.ss02" horiz-adv-x="664" 
d="M429 142v128q-53 11 -95 11q-60 0 -86.5 -16.5t-26.5 -58.5t26.5 -58.5t86.5 -16.5q42 0 95 11zM299 426q49 0 130 -9v36q0 61 -26.5 88.5t-91.5 27.5q-72 0 -207 -50l-26 155q172 40 252 40q154 0 216 -68q63 -68 63 -191v-428q-162 -41 -310 -41q-146 0 -205 58
q-59 59 -59 162t59 162q59 58 205 58z" />
    <glyph glyph-name="e.ss02" horiz-adv-x="710" 
d="M407 131q92 0 232 41l25 -144q-159 -42 -279 -42q-200 0 -278 97q-72 90 -72 267q0 176 74 270q75 94 255 94q162 0 236.5 -87.5t74.5 -272.5v-63h-451q3 -42 10 -66t24 -47q37 -47 149 -47zM364 569q-124 0 -138 -135h268q-2 65 -35.5 100t-94.5 35z" />
    <glyph glyph-name="m.ss02" horiz-adv-x="1096" 
d="M638 0h-180v438q0 68 -30.5 99.5t-94.5 31.5q-41 0 -95 -8v-561h-180v682q148 32 286 32q109 0 178 -39q123 39 218 39q145 0 221.5 -68.5t76.5 -202.5v-443h-180v438q0 131 -127 131q-51 0 -107 -21q14 -54 14 -105v-443z" />
    <glyph glyph-name="n.ss02" horiz-adv-x="707" 
d="M649 443v-443h-180v438q0 68 -32 99.5t-99 31.5q-42 0 -100 -8v-561h-180v682q151 32 291 32q146 0 223 -68.5t77 -202.5z" />
    <glyph glyph-name="u.ss02" horiz-adv-x="707" 
d="M58 257v443h180v-438q0 -68 32 -99.5t99 -31.5q42 0 100 8v561h180v-682q-151 -32 -291 -32q-146 0 -223 68.5t-77 202.5z" />
    <glyph glyph-name="aacute.ss02" horiz-adv-x="664" 
d="M429 142v128q-53 11 -95 11q-60 0 -86.5 -16.5t-26.5 -58.5t26.5 -58.5t86.5 -16.5q42 0 95 11zM299 426q49 0 130 -9v36q0 61 -26.5 88.5t-91.5 27.5q-72 0 -207 -50l-26 155q172 40 252 40q154 0 216 -68q63 -68 63 -191v-428q-162 -41 -310 -41q-146 0 -205 58
q-59 59 -59 162t59 162q59 58 205 58zM328 919h171l-132 -183h-133z" />
    <glyph glyph-name="agrave.ss02" horiz-adv-x="664" 
d="M429 142v128q-53 11 -95 11q-60 0 -86.5 -16.5t-26.5 -58.5t26.5 -58.5t86.5 -16.5q42 0 95 11zM299 426q49 0 130 -9v36q0 61 -26.5 88.5t-91.5 27.5q-72 0 -207 -50l-26 155q172 40 252 40q154 0 216 -68q63 -68 63 -191v-428q-162 -41 -310 -41q-146 0 -205 58
q-59 59 -59 162t59 162q59 58 205 58zM417 736h-133l-132 183h171z" />
    <glyph glyph-name="acircumflex.ss02" horiz-adv-x="664" 
d="M429 142v128q-53 11 -95 11q-60 0 -86.5 -16.5t-26.5 -58.5t26.5 -58.5t86.5 -16.5q42 0 95 11zM299 426q49 0 130 -9v36q0 61 -26.5 88.5t-91.5 27.5q-72 0 -207 -50l-26 155q172 40 252 40q154 0 216 -68q63 -68 63 -191v-428q-162 -41 -310 -41q-146 0 -205 58
q-59 59 -59 162t59 162q59 58 205 58zM132 735l93 183h190l93 -183h-119l-69 107l-69 -107h-119z" />
    <glyph glyph-name="adieresis.ss02" horiz-adv-x="664" 
d="M429 142v128q-53 11 -95 11q-60 0 -86.5 -16.5t-26.5 -58.5t26.5 -58.5t86.5 -16.5q42 0 95 11zM299 426q49 0 130 -9v36q0 61 -26.5 88.5t-91.5 27.5q-72 0 -207 -50l-26 155q172 40 252 40q154 0 216 -68q63 -68 63 -191v-428q-162 -41 -310 -41q-146 0 -205 58
q-59 59 -59 162t59 162q59 58 205 58zM237 903v-153h-139v153h139zM502 903v-153h-139v153h139z" />
    <glyph glyph-name="atilde.ss02" horiz-adv-x="664" 
d="M429 142v128q-53 11 -95 11q-60 0 -86.5 -16.5t-26.5 -58.5t26.5 -58.5t86.5 -16.5q42 0 95 11zM299 426q49 0 130 -9v36q0 61 -26.5 88.5t-91.5 27.5q-72 0 -207 -50l-26 155q172 40 252 40q154 0 216 -68q63 -68 63 -191v-428q-162 -41 -310 -41q-146 0 -205 58
q-59 59 -59 162t59 162q59 58 205 58zM492 924l55 -93q-58 -88 -141 -88q-55 0 -113 34q-37 21 -65 21q-48 0 -80 -56l-55 93q58 88 141 88q55 0 113 -34q38 -21 65 -21q48 0 80 56z" />
    <glyph glyph-name="aring.ss02" horiz-adv-x="664" 
d="M429 142v128q-53 11 -95 11q-60 0 -86.5 -16.5t-26.5 -58.5t26.5 -58.5t86.5 -16.5q42 0 95 11zM299 426q49 0 130 -9v36q0 61 -26.5 88.5t-91.5 27.5q-72 0 -207 -50l-26 155q172 40 252 40q154 0 216 -68q63 -68 63 -191v-428q-162 -41 -310 -41q-146 0 -205 58
q-59 59 -59 162t59 162q59 58 205 58zM330 950q123 0 123 -116t-123 -116t-123 116t123 116zM330 885q-39 0 -39 -51t39 -51t39 51t-39 51z" />
    <glyph glyph-name="eacute.ss02" horiz-adv-x="710" 
d="M407 131q92 0 232 41l25 -144q-159 -42 -279 -42q-200 0 -278 97q-72 90 -72 267q0 176 74 270q75 94 255 94q162 0 236.5 -87.5t74.5 -272.5v-63h-451q3 -42 10 -66t24 -47q37 -47 149 -47zM364 569q-124 0 -138 -135h268q-2 65 -35.5 100t-94.5 35zM353 919h171
l-132 -183h-133z" />
    <glyph glyph-name="egrave.ss02" horiz-adv-x="710" 
d="M407 131q92 0 232 41l25 -144q-159 -42 -279 -42q-200 0 -278 97q-72 90 -72 267q0 176 74 270q75 94 255 94q162 0 236.5 -87.5t74.5 -272.5v-63h-451q3 -42 10 -66t24 -47q37 -47 149 -47zM364 569q-124 0 -138 -135h268q-2 65 -35.5 100t-94.5 35zM455 736h-133
l-132 183h171z" />
    <glyph glyph-name="ecircumflex.ss02" horiz-adv-x="710" 
d="M407 131q92 0 232 41l25 -144q-159 -42 -279 -42q-200 0 -278 97q-72 90 -72 267q0 176 74 270q75 94 255 94q162 0 236.5 -87.5t74.5 -272.5v-63h-451q3 -42 10 -66t24 -47q37 -47 149 -47zM364 569q-124 0 -138 -135h268q-2 65 -35.5 100t-94.5 35zM167 735l93 183h190
l93 -183h-119l-69 107l-69 -107h-119z" />
    <glyph glyph-name="edieresis.ss02" horiz-adv-x="710" 
d="M407 131q92 0 232 41l25 -144q-159 -42 -279 -42q-200 0 -278 97q-72 90 -72 267q0 176 74 270q75 94 255 94q162 0 236.5 -87.5t74.5 -272.5v-63h-451q3 -42 10 -66t24 -47q37 -47 149 -47zM364 569q-124 0 -138 -135h268q-2 65 -35.5 100t-94.5 35zM292 903v-153h-139
v153h139zM557 903v-153h-139v153h139z" />
    <glyph glyph-name="ntilde.ss02" horiz-adv-x="707" 
d="M649 443v-443h-180v438q0 68 -32 99.5t-99 31.5q-42 0 -100 -8v-561h-180v682q151 32 291 32q146 0 223 -68.5t77 -202.5zM525 924l55 -93q-58 -88 -141 -88q-54 0 -113 34q-38 21 -65 21q-48 0 -80 -56l-55 93q58 88 141 88q54 0 113 -34q38 -21 65 -21q48 0 80 56z" />
    <glyph glyph-name="uacute.ss02" horiz-adv-x="707" 
d="M58 257v443h180v-438q0 -68 32 -99.5t99 -31.5q42 0 100 8v561h180v-682q-151 -32 -291 -32q-146 0 -223 68.5t-77 202.5zM346 919h171l-132 -183h-133z" />
    <glyph glyph-name="ugrave.ss02" horiz-adv-x="707" 
d="M58 257v443h180v-438q0 -68 32 -99.5t99 -31.5q42 0 100 8v561h180v-682q-151 -32 -291 -32q-146 0 -223 68.5t-77 202.5zM443 736h-133l-132 183h171z" />
    <glyph glyph-name="ucircumflex.ss02" horiz-adv-x="707" 
d="M58 257v443h180v-438q0 -68 32 -99.5t99 -31.5q42 0 100 8v561h180v-682q-151 -32 -291 -32q-146 0 -223 68.5t-77 202.5zM166 735l93 183h190l93 -183h-119l-69 107l-69 -107h-119z" />
    <glyph glyph-name="udieresis.ss02" horiz-adv-x="707" 
d="M58 257v443h180v-438q0 -68 32 -99.5t99 -31.5q42 0 100 8v561h180v-682q-151 -32 -291 -32q-146 0 -223 68.5t-77 202.5zM291 903v-153h-139v153h139zM556 903v-153h-139v153h139z" />
    <glyph glyph-name="ae.ss02" horiz-adv-x="1095" 
d="M429 142v128q-53 11 -95 11q-60 0 -86.5 -16.5t-26.5 -58.5t26.5 -58.5t86.5 -16.5q42 0 95 11zM749 569q-125 0 -138 -135h268q-2 65 -35.5 100t-94.5 35zM792 131q92 0 232 41l25 -144q-159 -42 -279 -42q-118 0 -193 34q-149 -34 -278 -34q-146 0 -205 58
q-59 59 -59 162t59 162q59 58 205 58q49 0 130 -9v36q0 61 -26.5 88.5t-91.5 27.5q-72 0 -207 -50l-26 155q172 40 252 40q134 0 204 -58q77 58 215 58q162 0 236.5 -87.5t74.5 -272.5v-63h-451q3 -42 10 -66t24 -47q37 -47 149 -47z" />
    <glyph glyph-name="oe.ss02" horiz-adv-x="1188" 
d="M478 184q35 55 35 166q0 112 -35 165q-34 54 -111 54t-111 -54q-35 -53 -35 -165q0 -111 35 -166q35 -53 111 -53t111 53zM842 569q-124 0 -138 -135h268q-2 65 -35.5 100t-94.5 35zM885 131q92 0 232 41l25 -144q-159 -42 -279 -42q-173 0 -257 75q-80 -75 -239 -75
q-163 0 -248 83q-84 83 -84 281t84 281q85 83 248 83q159 0 239 -75q80 75 236 75q162 0 236.5 -87.5t74.5 -272.5v-63h-451q3 -42 10 -66t24 -47q37 -47 149 -47z" />
    <glyph glyph-name="e.ss02.alt" horiz-adv-x="616" 
d="M33 193q0 132 115 177q-84 44 -84 153q0 96 64.5 143.5t207.5 47.5q100 0 231 -27l-24 -153q-120 35 -207 35q-96 0 -96 -71q0 -35 23.5 -52.5t77.5 -17.5q35 0 116 4v-150q-55 4 -116 4q-122 0 -122 -77q0 -40 27.5 -59t89.5 -19q96 0 228 40l26 -153q-142 -32 -256 -32
q-182 0 -246 62q-55 55 -55 145z" />
    <glyph glyph-name="eacute.ss02.alt" horiz-adv-x="616" 
d="M33 193q0 132 115 177q-84 44 -84 153q0 96 64.5 143.5t207.5 47.5q100 0 231 -27l-24 -153q-120 35 -207 35q-96 0 -96 -71q0 -35 23.5 -52.5t77.5 -17.5q35 0 116 4v-150q-55 4 -116 4q-122 0 -122 -77q0 -40 27.5 -59t89.5 -19q96 0 228 40l26 -153q-142 -32 -256 -32
q-182 0 -246 62q-55 55 -55 145zM341 919h171l-132 -183h-133z" />
    <glyph glyph-name="egrave.ss02.alt" horiz-adv-x="616" 
d="M33 193q0 132 115 177q-84 44 -84 153q0 96 64.5 143.5t207.5 47.5q100 0 231 -27l-24 -153q-120 35 -207 35q-96 0 -96 -71q0 -35 23.5 -52.5t77.5 -17.5q35 0 116 4v-150q-55 4 -116 4q-122 0 -122 -77q0 -40 27.5 -59t89.5 -19q96 0 228 40l26 -153q-142 -32 -256 -32
q-182 0 -246 62q-55 55 -55 145zM402 736h-133l-132 183h171z" />
    <glyph glyph-name="ecircumflex.ss02.alt" horiz-adv-x="616" 
d="M33 193q0 132 115 177q-84 44 -84 153q0 96 64.5 143.5t207.5 47.5q100 0 231 -27l-24 -153q-120 35 -207 35q-96 0 -96 -71q0 -35 23.5 -52.5t77.5 -17.5q35 0 116 4v-150q-55 4 -116 4q-122 0 -122 -77q0 -40 27.5 -59t89.5 -19q96 0 228 40l26 -153q-142 -32 -256 -32
q-182 0 -246 62q-55 55 -55 145zM130 735l93 183h190l93 -183h-119l-69 107l-69 -107h-119z" />
    <glyph glyph-name="edieresis.ss02.alt" horiz-adv-x="616" 
d="M33 193q0 132 115 177q-84 44 -84 153q0 96 64.5 143.5t207.5 47.5q100 0 231 -27l-24 -153q-120 35 -207 35q-96 0 -96 -71q0 -35 23.5 -52.5t77.5 -17.5q35 0 116 4v-150q-55 4 -116 4q-122 0 -122 -77q0 -40 27.5 -59t89.5 -19q96 0 228 40l26 -153q-142 -32 -256 -32
q-182 0 -246 62q-55 55 -55 145zM256 903v-153h-139v153h139zM521 903v-153h-139v153h139z" />
    <glyph glyph-name="ordfeminine.ss02" horiz-adv-x="475" 
d="M283 304v84q-37 6 -60 6q-33 0 -46 -24t0 -48t46 -24q23 0 60 6zM427 507v-275q-121 -30 -213 -30q-187 0 -187 144t187 144q40 0 69 -4v19q0 32 -15.5 45.5t-51.5 13.5q-51 0 -141 -32l-20 116q113 27 175 27q105 0 151 -42.5t46 -125.5z" />
    <glyph glyph-name="ordmasculine.ss02" horiz-adv-x="539" 
d="M269 313q90 0 90 125t-90 125t-90 -125t90 -125zM508 438q0 -121 -58.5 -179t-180.5 -58q-121 0 -179.5 58t-58.5 179q0 120 58.5 178t179.5 58q122 0 180.5 -58t58.5 -178z" />
    <glyph glyph-name="afii10193.ss02" horiz-adv-x="707" 
d="M267 -180v136h178v-136h-178zM58 257v443h180v-438q0 -68 32 -99.5t99 -31.5q42 0 100 8v561h180v-682q-151 -32 -291 -32q-146 0 -223 68.5t-77 202.5z" />
    <glyph glyph-name="afii10070.ss02" horiz-adv-x="710" 
d="M407 131q92 0 232 41l25 -144q-159 -42 -279 -42q-200 0 -278 97q-72 90 -72 267q0 176 74 270q75 94 255 94q162 0 236.5 -87.5t74.5 -272.5v-63h-451q3 -42 10 -66t24 -47q37 -47 149 -47zM364 569q-124 0 -138 -135h268q-2 65 -35.5 100t-94.5 35z" />
    <glyph glyph-name="afii10071.ss02" horiz-adv-x="710" 
d="M407 131q92 0 232 41l25 -144q-159 -42 -279 -42q-200 0 -278 97q-72 90 -72 267q0 176 74 270q75 94 255 94q162 0 236.5 -87.5t74.5 -272.5v-63h-451q3 -42 10 -66t24 -47q37 -47 149 -47zM364 569q-124 0 -138 -135h268q-2 65 -35.5 100t-94.5 35zM292 903v-153h-139
v153h139zM557 903v-153h-139v153h139z" />
    <glyph glyph-name="afii10065.ss02" horiz-adv-x="664" 
d="M429 142v128q-53 11 -95 11q-60 0 -86.5 -16.5t-26.5 -58.5t26.5 -58.5t86.5 -16.5q42 0 95 11zM299 426q49 0 130 -9v36q0 61 -26.5 88.5t-91.5 27.5q-72 0 -207 -50l-26 155q172 40 252 40q154 0 216 -68q63 -68 63 -191v-428q-162 -41 -310 -41q-146 0 -205 58
q-59 59 -59 162t59 162q59 58 205 58z" />
    <glyph glyph-name="afii10074.ss02" horiz-adv-x="707" 
d="M58 257v443h180v-438q0 -68 32 -99.5t99 -31.5q42 0 100 8v561h180v-682q-151 -32 -291 -32q-146 0 -223 68.5t-77 202.5z" />
    <glyph glyph-name="afii10075.ss02" horiz-adv-x="707" 
d="M58 257v443h180v-438q0 -68 32 -99.5t99 -31.5q42 0 100 8v561h180v-682q-151 -32 -291 -32q-146 0 -223 68.5t-77 202.5zM354 733q-146 0 -212 103l95 85q42 -63 117 -63t117 63l95 -85q-67 -103 -212 -103z" />
    <glyph glyph-name="afii10088.ss02" horiz-adv-x="743" 
d="M469 139v561h180v-545h74v-285h-162l-11 136q-123 -20 -203 -20q-139 0 -214 69t-75 202v443h180v-438q0 -68 32 -99.5t99 -31.5q42 0 100 8z" />
    <glyph glyph-name="afii10090.ss02" horiz-adv-x="980" 
d="M402 700h176v-566q98 5 164 18v548h180v-664q-255 -50 -431 -50q-232 0 -335 75q-59 44 -81 109q-17 59 -17 129v401h180v-397q0 -84 38 -125t126 -43v565z" />
    <glyph glyph-name="afii10091.ss02" horiz-adv-x="1016" 
d="M491 -14q-232 0 -335 75q-59 44 -81 109q-17 59 -17 129v401h180v-397q0 -84 38 -125t126 -43v565h176v-566q98 5 164 18v548h180v-537h74v-293h-162l-11 146q-210 -30 -332 -30z" />
    <glyph glyph-name="afii10081.ss02" horiz-adv-x="707" 
d="M649 443v-443h-180v438q0 68 -32 99.5t-99 31.5q-42 0 -100 -8v-561h-180v682q151 32 291 32q146 0 223 -68.5t77 -202.5z" />
    <glyph glyph-name="afii10070.ss02.alt" horiz-adv-x="616" 
d="M33 193q0 132 115 177q-84 44 -84 153q0 96 64.5 143.5t207.5 47.5q100 0 231 -27l-24 -153q-120 35 -207 35q-96 0 -96 -71q0 -35 23.5 -52.5t77.5 -17.5q35 0 116 4v-150q-55 4 -116 4q-122 0 -122 -77q0 -40 27.5 -59t89.5 -19q96 0 228 40l26 -153q-142 -32 -256 -32
q-182 0 -246 62q-55 55 -55 145z" />
    <glyph glyph-name="afii10071.ss02.alt" horiz-adv-x="616" 
d="M33 193q0 132 115 177q-84 44 -84 153q0 96 64.5 143.5t207.5 47.5q100 0 231 -27l-24 -153q-120 35 -207 35q-96 0 -96 -71q0 -35 23.5 -52.5t77.5 -17.5q35 0 116 4v-150q-55 4 -116 4q-122 0 -122 -77q0 -40 27.5 -59t89.5 -19q96 0 228 40l26 -153q-142 -32 -256 -32
q-182 0 -246 62q-55 55 -55 145zM256 903v-153h-139v153h139zM521 903v-153h-139v153h139z" />
    <glyph glyph-name="afii10070.ss02.accented" horiz-adv-x="710" 
d="M407 131q92 0 232 41l25 -144q-159 -42 -279 -42q-200 0 -278 97q-72 90 -72 267q0 176 74 270q75 94 255 94q162 0 236.5 -87.5t74.5 -272.5v-63h-451q3 -42 10 -66t24 -47q37 -47 149 -47zM364 569q-124 0 -138 -135h268q-2 65 -35.5 100t-94.5 35zM361 919h171
l-132 -183h-133z" />
    <glyph glyph-name="afii10071.ss02.accented" horiz-adv-x="710" 
d="M209 903v-153h-119v153h119zM615 903v-153h-119v153h119zM227 736l94 183h153l-132 -183h-115zM407 131q92 0 232 41l25 -144q-159 -42 -279 -42q-200 0 -278 97q-72 90 -72 267q0 176 74 270q75 94 255 94q162 0 236.5 -87.5t74.5 -272.5v-63h-451q3 -42 10 -66t24 -47
q37 -47 149 -47zM364 569q-124 0 -138 -135h268q-2 65 -35.5 100t-94.5 35z" />
    <glyph glyph-name="afii10071.ss02.accented.alt" horiz-adv-x="616" 
d="M179 903v-153h-119v153h119zM585 903v-153h-119v153h119zM197 736l94 183h153l-132 -183h-115zM33 193q0 132 115 177q-84 44 -84 153q0 96 64.5 143.5t207.5 47.5q100 0 231 -27l-24 -153q-120 35 -207 35q-96 0 -96 -71q0 -35 23.5 -52.5t77.5 -17.5q35 0 116 4v-150
q-55 4 -116 4q-122 0 -122 -77q0 -40 27.5 -59t89.5 -19q96 0 228 40l26 -153q-142 -32 -256 -32q-182 0 -246 62q-55 55 -55 145z" />
    <glyph glyph-name="afii10074.ss02.accented" horiz-adv-x="707" 
d="M58 257v443h180v-438q0 -68 32 -99.5t99 -31.5q42 0 100 8v561h180v-682q-151 -32 -291 -32q-146 0 -223 68.5t-77 202.5zM371 919h171l-132 -183h-133z" />
    <glyph glyph-name="afii10070.ss02.accented.alt" horiz-adv-x="616" 
d="M33 193q0 132 115 177q-84 44 -84 153q0 96 64.5 143.5t207.5 47.5q100 0 231 -27l-24 -153q-120 35 -207 35q-96 0 -96 -71q0 -35 23.5 -52.5t77.5 -17.5q35 0 116 4v-150q-55 4 -116 4q-122 0 -122 -77q0 -40 27.5 -59t89.5 -19q96 0 228 40l26 -153q-142 -32 -256 -32
q-182 0 -246 62q-55 55 -55 145zM331 919h171l-132 -183h-133z" />
    <glyph glyph-name="afii10065.ss02.accented" horiz-adv-x="664" 
d="M429 142v128q-53 11 -95 11q-60 0 -86.5 -16.5t-26.5 -58.5t26.5 -58.5t86.5 -16.5q42 0 95 11zM299 426q49 0 130 -9v36q0 61 -26.5 88.5t-91.5 27.5q-72 0 -207 -50l-26 155q172 40 252 40q154 0 216 -68q63 -68 63 -191v-428q-162 -41 -310 -41q-146 0 -205 58
q-59 59 -59 162t59 162q59 58 205 58zM341 919h171l-132 -183h-133z" />
    <glyph glyph-name="hyphenminus" horiz-adv-x="405" 
d="M347 330v-136h-289v136h289z" />
    <glyph glyph-name="afii10065.ss04.accented" horiz-adv-x="583" 
d="M533 498v-498h-154v29q-87 -43 -151 -43q-100 0 -147.5 63.5t-47.5 199.5t47.5 199.5t147.5 63.5q64 0 151 -43v29h154zM373 137v224q-54 27 -88 27q-45 0 -66 -32.5t-21 -106.5t21 -106.5t66 -32.5q34 0 88 27zM191 571l94 183h163l-132 -183h-125z" />
    <glyph glyph-name="igrave.ss02" horiz-adv-x="296" 
d="M238 700v-700h-180v700h180zM248 736h-133l-132 183h171z" />
    <glyph glyph-name="iacute.ss02" horiz-adv-x="296" 
d="M238 700v-700h-180v700h180zM132 919h171l-132 -183h-133z" />
    <glyph glyph-name="icircumflex.ss02" horiz-adv-x="296" 
d="M238 700v-700h-180v700h180zM-40 735l93 183h190l93 -183h-119l-69 107l-69 -107h-119z" />
    <glyph glyph-name="idieresis.ss02" horiz-adv-x="296" 
d="M112 904v-154h-132v154h132zM316 904v-154h-133v154h133zM238 700v-700h-180v700h180z" />
    <glyph glyph-name="ograve.ss02" horiz-adv-x="734" 
d="M478 184q35 55 35 166q0 112 -35 165q-34 54 -111 54t-111 -54q-35 -53 -35 -165q0 -111 35 -166q35 -53 111 -53t111 53zM119 69q-84 83 -84 281t84 281q85 83 248 83t248 -83q84 -83 84 -281t-84 -281q-85 -83 -248 -83t-248 83zM479 736h-133l-132 183h171z" />
    <glyph glyph-name="oacute.ss02" horiz-adv-x="734" 
d="M478 184q35 55 35 166q0 112 -35 165q-34 54 -111 54t-111 -54q-35 -53 -35 -165q0 -111 35 -166q35 -53 111 -53t111 53zM119 69q-84 83 -84 281t84 281q85 83 248 83t248 -83q84 -83 84 -281t-84 -281q-85 -83 -248 -83t-248 83zM391 919h171l-132 -183h-133z" />
    <glyph glyph-name="ocircumflex.ss02" horiz-adv-x="734" 
d="M478 184q35 55 35 166q0 112 -35 165q-34 54 -111 54t-111 -54q-35 -53 -35 -165q0 -111 35 -166q35 -53 111 -53t111 53zM119 69q-84 83 -84 281t84 281q85 83 248 83t248 -83q84 -83 84 -281t-84 -281q-85 -83 -248 -83t-248 83zM180 735l93 183h190l93 -183h-119
l-69 107l-69 -107h-119z" />
    <glyph glyph-name="otilde.ss02" horiz-adv-x="734" 
d="M478 184q35 55 35 166q0 112 -35 165q-34 54 -111 54t-111 -54q-35 -53 -35 -165q0 -111 35 -166q35 -53 111 -53t111 53zM119 69q-84 83 -84 281t84 281q85 83 248 83t248 -83q84 -83 84 -281t-84 -281q-85 -83 -248 -83t-248 83zM540 924l55 -93q-58 -88 -141 -88
q-55 0 -113 34q-37 21 -65 21q-48 0 -80 -56l-55 93q58 88 141 88q55 0 113 -34q37 -21 65 -21q48 0 80 56z" />
    <glyph glyph-name="odieresis.ss02" horiz-adv-x="734" 
d="M478 184q35 55 35 166q0 112 -35 165q-34 54 -111 54t-111 -54q-35 -53 -35 -165q0 -111 35 -166q35 -53 111 -53t111 53zM119 69q-84 83 -84 281t84 281q85 83 248 83t248 -83q84 -83 84 -281t-84 -281q-85 -83 -248 -83t-248 83zM305 903v-153h-139v153h139zM570 903
v-153h-139v153h139z" />
    <glyph glyph-name="oslash.ss02" horiz-adv-x="734" 
d="M367 569q-75 0 -110.5 -53.5t-35.5 -165.5q0 -66 11 -112l165 329q-24 2 -30 2zM367 131q77 0 111.5 53t34.5 166q0 66 -12 111l-165 -328q14 -2 31 -2zM266 -6l-29 -59h-157l59 116q-104 86 -104 299q0 198 84 281q85 83 248 83q47 0 100 -8l30 59h157l-58 -116
q103 -84 103 -299q0 -198 -84 -281q-85 -83 -248 -83q-48 0 -101 8z" />
    <glyph glyph-name="aacute.ss04" horiz-adv-x="583" 
d="M533 498v-498h-154v29q-87 -43 -151 -43q-100 0 -147.5 63.5t-47.5 199.5t47.5 199.5t147.5 63.5q64 0 151 -43v29h154zM373 137v224q-54 27 -88 27q-45 0 -66 -32.5t-21 -106.5t21 -106.5t66 -32.5q34 0 88 27zM211 571l94 183h163l-132 -183h-125z" />
    <glyph glyph-name="agrave.ss04" horiz-adv-x="583" 
d="M533 498v-498h-154v29q-87 -43 -151 -43q-100 0 -147.5 63.5t-47.5 199.5t47.5 199.5t147.5 63.5q64 0 151 -43v29h154zM373 137v224q-54 27 -88 27q-45 0 -66 -32.5t-21 -106.5t21 -106.5t66 -32.5q34 0 88 27zM264 571l-132 183h163l94 -183h-125z" />
    <glyph glyph-name="acircumflex.ss04" horiz-adv-x="583" 
d="M533 498v-498h-154v29q-87 -43 -151 -43q-100 0 -147.5 63.5t-47.5 199.5t47.5 199.5t147.5 63.5q64 0 151 -43v29h154zM373 137v224q-54 27 -88 27q-45 0 -66 -32.5t-21 -106.5t21 -106.5t66 -32.5q34 0 88 27zM106 571l90 183h188l90 -183h-118l-66 106l-66 -106h-118z
" />
    <glyph glyph-name="adieresis.ss04" horiz-adv-x="583" 
d="M533 498v-498h-154v29q-87 -43 -151 -43q-100 0 -147.5 63.5t-47.5 199.5t47.5 199.5t147.5 63.5q64 0 151 -43v29h154zM373 137v224q-54 27 -88 27q-45 0 -66 -32.5t-21 -106.5t21 -106.5t66 -32.5q34 0 88 27zM236 740v-153h-139v153h139zM483 740v-153h-139v153h139z
" />
    <glyph glyph-name="atilde.ss04" horiz-adv-x="583" 
d="M533 498v-498h-154v29q-87 -43 -151 -43q-100 0 -147.5 63.5t-47.5 199.5t47.5 199.5t147.5 63.5q64 0 151 -43v29h154zM373 137v224q-54 27 -88 27q-45 0 -66 -32.5t-21 -106.5t21 -106.5t66 -32.5q34 0 88 27zM449 747l51 -86q-54 -81 -130 -81q-50 0 -105 31
q-35 20 -60 20q-46 0 -74 -52l-51 86q54 81 130 81q50 0 105 -31q35 -20 60 -20q46 0 74 52z" />
    <glyph glyph-name="aring.ss04" horiz-adv-x="583" 
d="M533 498v-498h-154v29q-87 -43 -151 -43q-100 0 -147.5 63.5t-47.5 199.5t47.5 199.5t147.5 63.5q64 0 151 -43v29h154zM373 137v224q-54 27 -88 27q-45 0 -66 -32.5t-21 -106.5t21 -106.5t66 -32.5q34 0 88 27zM290 773q123 0 123 -116t-123 -116t-123 116t123 116z
M290 708q-39 0 -39 -51t39 -51t39 51t-39 51z" />
    <glyph glyph-name="ae.ss04" horiz-adv-x="906" 
d="M373 137v224q-54 27 -88 27q-45 0 -66 -32.5t-21 -106.5t21 -106.5t66 -32.5q34 0 88 27zM629 397q-84 0 -93 -84h183q-3 84 -90 84zM503 29v-29h-124v29q-87 -43 -151 -43q-100 0 -147.5 63.5t-47.5 199.5t47.5 199.5t147.5 63.5q64 0 151 -43v29h124v-29q55 43 126 43
q131 0 188.5 -64.5t57.5 -198.5v-39h-342q5 -55 35.5 -77.5t105.5 -22.5q90 0 171 25l23 -122q-117 -27 -209 -27q-107 0 -156 43z" />
    <glyph glyph-name="A.ss03" horiz-adv-x="664" 
d="M429 142v128q-53 11 -95 11q-60 0 -86.5 -16.5t-26.5 -58.5t26.5 -58.5t86.5 -16.5q42 0 95 11zM299 426q49 0 130 -9v36q0 61 -26.5 88.5t-91.5 27.5q-72 0 -207 -50l-26 155q172 40 252 40q154 0 216 -68q63 -68 63 -191v-428q-162 -41 -310 -41q-146 0 -205 58
q-59 59 -59 162t59 162q59 58 205 58z" />
    <glyph glyph-name="E.ss03" horiz-adv-x="710" 
d="M407 131q92 0 232 41l25 -144q-159 -42 -279 -42q-200 0 -278 97q-72 90 -72 267q0 176 74 270q75 94 255 94q162 0 236.5 -87.5t74.5 -272.5v-63h-451q3 -42 10 -66t24 -47q37 -47 149 -47zM364 569q-124 0 -138 -135h268q-2 65 -35.5 100t-94.5 35z" />
    <glyph glyph-name="M.ss03" horiz-adv-x="1096" 
d="M638 0h-180v438q0 68 -30.5 99.5t-94.5 31.5q-41 0 -95 -8v-561h-180v682q148 32 286 32q109 0 178 -39q123 39 218 39q145 0 221.5 -68.5t76.5 -202.5v-443h-180v438q0 131 -127 131q-51 0 -107 -21q14 -54 14 -105v-443z" />
    <glyph glyph-name="N.ss03" horiz-adv-x="707" 
d="M649 443v-443h-180v438q0 68 -32 99.5t-99 31.5q-42 0 -100 -8v-561h-180v682q151 32 291 32q146 0 223 -68.5t77 -202.5z" />
    <glyph glyph-name="U.ss03" horiz-adv-x="707" 
d="M58 257v443h180v-438q0 -68 32 -99.5t99 -31.5q42 0 100 8v561h180v-682q-151 -32 -291 -32q-146 0 -223 68.5t-77 202.5z" />
    <glyph glyph-name="Aacute.ss03" horiz-adv-x="664" 
d="M429 142v128q-53 11 -95 11q-60 0 -86.5 -16.5t-26.5 -58.5t26.5 -58.5t86.5 -16.5q42 0 95 11zM299 426q49 0 130 -9v36q0 61 -26.5 88.5t-91.5 27.5q-72 0 -207 -50l-26 155q172 40 252 40q154 0 216 -68q63 -68 63 -191v-428q-162 -41 -310 -41q-146 0 -205 58
q-59 59 -59 162t59 162q59 58 205 58zM328 919h171l-132 -183h-133z" />
    <glyph glyph-name="Agrave.ss03" horiz-adv-x="664" 
d="M429 142v128q-53 11 -95 11q-60 0 -86.5 -16.5t-26.5 -58.5t26.5 -58.5t86.5 -16.5q42 0 95 11zM299 426q49 0 130 -9v36q0 61 -26.5 88.5t-91.5 27.5q-72 0 -207 -50l-26 155q172 40 252 40q154 0 216 -68q63 -68 63 -191v-428q-162 -41 -310 -41q-146 0 -205 58
q-59 59 -59 162t59 162q59 58 205 58zM417 736h-133l-132 183h171z" />
    <glyph glyph-name="Acircumflex.ss03" horiz-adv-x="664" 
d="M429 142v128q-53 11 -95 11q-60 0 -86.5 -16.5t-26.5 -58.5t26.5 -58.5t86.5 -16.5q42 0 95 11zM299 426q49 0 130 -9v36q0 61 -26.5 88.5t-91.5 27.5q-72 0 -207 -50l-26 155q172 40 252 40q154 0 216 -68q63 -68 63 -191v-428q-162 -41 -310 -41q-146 0 -205 58
q-59 59 -59 162t59 162q59 58 205 58zM132 735l93 183h190l93 -183h-119l-69 107l-69 -107h-119z" />
    <glyph glyph-name="Adieresis.ss03" horiz-adv-x="664" 
d="M429 142v128q-53 11 -95 11q-60 0 -86.5 -16.5t-26.5 -58.5t26.5 -58.5t86.5 -16.5q42 0 95 11zM299 426q49 0 130 -9v36q0 61 -26.5 88.5t-91.5 27.5q-72 0 -207 -50l-26 155q172 40 252 40q154 0 216 -68q63 -68 63 -191v-428q-162 -41 -310 -41q-146 0 -205 58
q-59 59 -59 162t59 162q59 58 205 58zM237 903v-153h-139v153h139zM502 903v-153h-139v153h139z" />
    <glyph glyph-name="Atilde.ss03" horiz-adv-x="664" 
d="M429 142v128q-53 11 -95 11q-60 0 -86.5 -16.5t-26.5 -58.5t26.5 -58.5t86.5 -16.5q42 0 95 11zM299 426q49 0 130 -9v36q0 61 -26.5 88.5t-91.5 27.5q-72 0 -207 -50l-26 155q172 40 252 40q154 0 216 -68q63 -68 63 -191v-428q-162 -41 -310 -41q-146 0 -205 58
q-59 59 -59 162t59 162q59 58 205 58zM492 924l55 -93q-58 -88 -141 -88q-55 0 -113 34q-37 21 -65 21q-48 0 -80 -56l-55 93q58 88 141 88q55 0 113 -34q38 -21 65 -21q48 0 80 56z" />
    <glyph glyph-name="Aring.ss03" horiz-adv-x="664" 
d="M429 142v128q-53 11 -95 11q-60 0 -86.5 -16.5t-26.5 -58.5t26.5 -58.5t86.5 -16.5q42 0 95 11zM299 426q49 0 130 -9v36q0 61 -26.5 88.5t-91.5 27.5q-72 0 -207 -50l-26 155q172 40 252 40q154 0 216 -68q63 -68 63 -191v-428q-162 -41 -310 -41q-146 0 -205 58
q-59 59 -59 162t59 162q59 58 205 58zM330 950q123 0 123 -116t-123 -116t-123 116t123 116zM330 885q-39 0 -39 -51t39 -51t39 51t-39 51z" />
    <glyph glyph-name="Eacute.ss03" horiz-adv-x="710" 
d="M407 131q92 0 232 41l25 -144q-159 -42 -279 -42q-200 0 -278 97q-72 90 -72 267q0 176 74 270q75 94 255 94q162 0 236.5 -87.5t74.5 -272.5v-63h-451q3 -42 10 -66t24 -47q37 -47 149 -47zM364 569q-124 0 -138 -135h268q-2 65 -35.5 100t-94.5 35zM353 919h171
l-132 -183h-133z" />
    <glyph glyph-name="Egrave.ss03" horiz-adv-x="710" 
d="M407 131q92 0 232 41l25 -144q-159 -42 -279 -42q-200 0 -278 97q-72 90 -72 267q0 176 74 270q75 94 255 94q162 0 236.5 -87.5t74.5 -272.5v-63h-451q3 -42 10 -66t24 -47q37 -47 149 -47zM364 569q-124 0 -138 -135h268q-2 65 -35.5 100t-94.5 35zM455 736h-133
l-132 183h171z" />
    <glyph glyph-name="Ecircumflex.ss03" horiz-adv-x="710" 
d="M407 131q92 0 232 41l25 -144q-159 -42 -279 -42q-200 0 -278 97q-72 90 -72 267q0 176 74 270q75 94 255 94q162 0 236.5 -87.5t74.5 -272.5v-63h-451q3 -42 10 -66t24 -47q37 -47 149 -47zM364 569q-124 0 -138 -135h268q-2 65 -35.5 100t-94.5 35zM167 735l93 183h190
l93 -183h-119l-69 107l-69 -107h-119z" />
    <glyph glyph-name="Edieresis.ss03" horiz-adv-x="710" 
d="M407 131q92 0 232 41l25 -144q-159 -42 -279 -42q-200 0 -278 97q-72 90 -72 267q0 176 74 270q75 94 255 94q162 0 236.5 -87.5t74.5 -272.5v-63h-451q3 -42 10 -66t24 -47q37 -47 149 -47zM364 569q-124 0 -138 -135h268q-2 65 -35.5 100t-94.5 35zM292 903v-153h-139
v153h139zM557 903v-153h-139v153h139z" />
    <glyph glyph-name="Ntilde.ss03" horiz-adv-x="707" 
d="M649 443v-443h-180v438q0 68 -32 99.5t-99 31.5q-42 0 -100 -8v-561h-180v682q151 32 291 32q146 0 223 -68.5t77 -202.5zM525 924l55 -93q-58 -88 -141 -88q-54 0 -113 34q-38 21 -65 21q-48 0 -80 -56l-55 93q58 88 141 88q54 0 113 -34q38 -21 65 -21q48 0 80 56z" />
    <glyph glyph-name="Uacute.ss03" horiz-adv-x="707" 
d="M58 257v443h180v-438q0 -68 32 -99.5t99 -31.5q42 0 100 8v561h180v-682q-151 -32 -291 -32q-146 0 -223 68.5t-77 202.5zM346 919h171l-132 -183h-133z" />
    <glyph glyph-name="Ugrave.ss03" horiz-adv-x="707" 
d="M58 257v443h180v-438q0 -68 32 -99.5t99 -31.5q42 0 100 8v561h180v-682q-151 -32 -291 -32q-146 0 -223 68.5t-77 202.5zM443 736h-133l-132 183h171z" />
    <glyph glyph-name="Ucircumflex.ss03" horiz-adv-x="707" 
d="M58 257v443h180v-438q0 -68 32 -99.5t99 -31.5q42 0 100 8v561h180v-682q-151 -32 -291 -32q-146 0 -223 68.5t-77 202.5zM166 735l93 183h190l93 -183h-119l-69 107l-69 -107h-119z" />
    <glyph glyph-name="Udieresis.ss03" horiz-adv-x="707" 
d="M58 257v443h180v-438q0 -68 32 -99.5t99 -31.5q42 0 100 8v561h180v-682q-151 -32 -291 -32q-146 0 -223 68.5t-77 202.5zM291 903v-153h-139v153h139zM556 903v-153h-139v153h139z" />
    <glyph glyph-name="AE.ss03" horiz-adv-x="1095" 
d="M429 142v128q-53 11 -95 11q-60 0 -86.5 -16.5t-26.5 -58.5t26.5 -58.5t86.5 -16.5q42 0 95 11zM749 569q-125 0 -138 -135h268q-2 65 -35.5 100t-94.5 35zM792 131q92 0 232 41l25 -144q-159 -42 -279 -42q-118 0 -193 34q-149 -34 -278 -34q-146 0 -205 58
q-59 59 -59 162t59 162q59 58 205 58q49 0 130 -9v36q0 61 -26.5 88.5t-91.5 27.5q-72 0 -207 -50l-26 155q172 40 252 40q134 0 204 -58q77 58 215 58q162 0 236.5 -87.5t74.5 -272.5v-63h-451q3 -42 10 -66t24 -47q37 -47 149 -47z" />
    <glyph glyph-name="OE.ss03" horiz-adv-x="1188" 
d="M478 184q35 55 35 166q0 112 -35 165q-34 54 -111 54t-111 -54q-35 -53 -35 -165q0 -111 35 -166q35 -53 111 -53t111 53zM842 569q-124 0 -138 -135h268q-2 65 -35.5 100t-94.5 35zM885 131q92 0 232 41l25 -144q-159 -42 -279 -42q-173 0 -257 75q-80 -75 -239 -75
q-163 0 -248 83q-84 83 -84 281t84 281q85 83 248 83q159 0 239 -75q80 75 236 75q162 0 236.5 -87.5t74.5 -272.5v-63h-451q3 -42 10 -66t24 -47q37 -47 149 -47z" />
    <glyph glyph-name="E.ss03.alt" horiz-adv-x="616" 
d="M33 193q0 132 115 177q-84 44 -84 153q0 96 64.5 143.5t207.5 47.5q100 0 231 -27l-24 -153q-120 35 -207 35q-96 0 -96 -71q0 -35 23.5 -52.5t77.5 -17.5q35 0 116 4v-150q-55 4 -116 4q-122 0 -122 -77q0 -40 27.5 -59t89.5 -19q96 0 228 40l26 -153q-142 -32 -256 -32
q-182 0 -246 62q-55 55 -55 145z" />
    <glyph glyph-name="Eacute.ss03.alt" horiz-adv-x="616" 
d="M33 193q0 132 115 177q-84 44 -84 153q0 96 64.5 143.5t207.5 47.5q100 0 231 -27l-24 -153q-120 35 -207 35q-96 0 -96 -71q0 -35 23.5 -52.5t77.5 -17.5q35 0 116 4v-150q-55 4 -116 4q-122 0 -122 -77q0 -40 27.5 -59t89.5 -19q96 0 228 40l26 -153q-142 -32 -256 -32
q-182 0 -246 62q-55 55 -55 145zM341 919h171l-132 -183h-133z" />
    <glyph glyph-name="Egrave.ss03.alt" horiz-adv-x="616" 
d="M33 193q0 132 115 177q-84 44 -84 153q0 96 64.5 143.5t207.5 47.5q100 0 231 -27l-24 -153q-120 35 -207 35q-96 0 -96 -71q0 -35 23.5 -52.5t77.5 -17.5q35 0 116 4v-150q-55 4 -116 4q-122 0 -122 -77q0 -40 27.5 -59t89.5 -19q96 0 228 40l26 -153q-142 -32 -256 -32
q-182 0 -246 62q-55 55 -55 145zM402 736h-133l-132 183h171z" />
    <glyph glyph-name="Ecircumflex.ss03.alt" horiz-adv-x="616" 
d="M33 193q0 132 115 177q-84 44 -84 153q0 96 64.5 143.5t207.5 47.5q100 0 231 -27l-24 -153q-120 35 -207 35q-96 0 -96 -71q0 -35 23.5 -52.5t77.5 -17.5q35 0 116 4v-150q-55 4 -116 4q-122 0 -122 -77q0 -40 27.5 -59t89.5 -19q96 0 228 40l26 -153q-142 -32 -256 -32
q-182 0 -246 62q-55 55 -55 145zM130 735l93 183h190l93 -183h-119l-69 107l-69 -107h-119z" />
    <glyph glyph-name="Edieresis.ss03.alt" horiz-adv-x="616" 
d="M33 193q0 132 115 177q-84 44 -84 153q0 96 64.5 143.5t207.5 47.5q100 0 231 -27l-24 -153q-120 35 -207 35q-96 0 -96 -71q0 -35 23.5 -52.5t77.5 -17.5q35 0 116 4v-150q-55 4 -116 4q-122 0 -122 -77q0 -40 27.5 -59t89.5 -19q96 0 228 40l26 -153q-142 -32 -256 -32
q-182 0 -246 62q-55 55 -55 145zM256 903v-153h-139v153h139zM521 903v-153h-139v153h139z" />
    <glyph glyph-name="afii10145.ss03" horiz-adv-x="707" 
d="M267 -180v136h178v-136h-178zM58 257v443h180v-438q0 -68 32 -99.5t99 -31.5q42 0 100 8v561h180v-682q-151 -32 -291 -32q-146 0 -223 68.5t-77 202.5z" />
    <glyph glyph-name="afii10022.ss03" horiz-adv-x="710" 
d="M407 131q92 0 232 41l25 -144q-159 -42 -279 -42q-200 0 -278 97q-72 90 -72 267q0 176 74 270q75 94 255 94q162 0 236.5 -87.5t74.5 -272.5v-63h-451q3 -42 10 -66t24 -47q37 -47 149 -47zM364 569q-124 0 -138 -135h268q-2 65 -35.5 100t-94.5 35z" />
    <glyph glyph-name="afii10023.ss03" horiz-adv-x="710" 
d="M407 131q92 0 232 41l25 -144q-159 -42 -279 -42q-200 0 -278 97q-72 90 -72 267q0 176 74 270q75 94 255 94q162 0 236.5 -87.5t74.5 -272.5v-63h-451q3 -42 10 -66t24 -47q37 -47 149 -47zM364 569q-124 0 -138 -135h268q-2 65 -35.5 100t-94.5 35zM292 903v-153h-139
v153h139zM557 903v-153h-139v153h139z" />
    <glyph glyph-name="afii10017.ss03" horiz-adv-x="664" 
d="M429 142v128q-53 11 -95 11q-60 0 -86.5 -16.5t-26.5 -58.5t26.5 -58.5t86.5 -16.5q42 0 95 11zM299 426q49 0 130 -9v36q0 61 -26.5 88.5t-91.5 27.5q-72 0 -207 -50l-26 155q172 40 252 40q154 0 216 -68q63 -68 63 -191v-428q-162 -41 -310 -41q-146 0 -205 58
q-59 59 -59 162t59 162q59 58 205 58z" />
    <glyph glyph-name="afii10026.ss03" horiz-adv-x="707" 
d="M58 257v443h180v-438q0 -68 32 -99.5t99 -31.5q42 0 100 8v561h180v-682q-151 -32 -291 -32q-146 0 -223 68.5t-77 202.5z" />
    <glyph glyph-name="afii10027.ss03" horiz-adv-x="707" 
d="M58 257v443h180v-438q0 -68 32 -99.5t99 -31.5q42 0 100 8v561h180v-682q-151 -32 -291 -32q-146 0 -223 68.5t-77 202.5zM354 733q-146 0 -212 103l95 85q42 -63 117 -63t117 63l95 -85q-67 -103 -212 -103z" />
    <glyph glyph-name="afii10033.ss03" horiz-adv-x="707" 
d="M649 443v-443h-180v438q0 68 -32 99.5t-99 31.5q-42 0 -100 -8v-561h-180v682q151 32 291 32q146 0 223 -68.5t77 -202.5z" />
    <glyph glyph-name="afii10040.ss03" horiz-adv-x="743" 
d="M469 139v561h180v-545h74v-285h-162l-11 136q-123 -20 -203 -20q-139 0 -214 69t-75 202v443h180v-438q0 -68 32 -99.5t99 -31.5q42 0 100 8z" />
    <glyph glyph-name="afii10042.ss03" horiz-adv-x="980" 
d="M402 700h176v-566q98 5 164 18v548h180v-664q-255 -50 -431 -50q-232 0 -335 75q-59 44 -81 109q-17 59 -17 129v401h180v-397q0 -84 38 -125t126 -43v565z" />
    <glyph glyph-name="afii10043.ss03" horiz-adv-x="1016" 
d="M491 -14q-232 0 -335 75q-59 44 -81 109q-17 59 -17 129v401h180v-397q0 -84 38 -125t126 -43v565h176v-566q98 5 164 18v548h180v-537h74v-293h-162l-11 146q-210 -30 -332 -30z" />
    <glyph glyph-name="afii10022.ss03.alt" horiz-adv-x="616" 
d="M33 193q0 132 115 177q-84 44 -84 153q0 96 64.5 143.5t207.5 47.5q100 0 231 -27l-24 -153q-120 35 -207 35q-96 0 -96 -71q0 -35 23.5 -52.5t77.5 -17.5q35 0 116 4v-150q-55 4 -116 4q-122 0 -122 -77q0 -40 27.5 -59t89.5 -19q96 0 228 40l26 -153q-142 -32 -256 -32
q-182 0 -246 62q-55 55 -55 145z" />
    <glyph glyph-name="afii10023.ss03.alt" horiz-adv-x="616" 
d="M33 193q0 132 115 177q-84 44 -84 153q0 96 64.5 143.5t207.5 47.5q100 0 231 -27l-24 -153q-120 35 -207 35q-96 0 -96 -71q0 -35 23.5 -52.5t77.5 -17.5q35 0 116 4v-150q-55 4 -116 4q-122 0 -122 -77q0 -40 27.5 -59t89.5 -19q96 0 228 40l26 -153q-142 -32 -256 -32
q-182 0 -246 62q-55 55 -55 145zM256 903v-153h-139v153h139zM521 903v-153h-139v153h139z" />
    <glyph glyph-name="afii10022.ss03.accented" horiz-adv-x="710" 
d="M407 131q92 0 232 41l25 -144q-159 -42 -279 -42q-200 0 -278 97q-72 90 -72 267q0 176 74 270q75 94 255 94q162 0 236.5 -87.5t74.5 -272.5v-63h-451q3 -42 10 -66t24 -47q37 -47 149 -47zM364 569q-124 0 -138 -135h268q-2 65 -35.5 100t-94.5 35zM361 919h171
l-132 -183h-133z" />
    <glyph glyph-name="afii10023.ss03.accented" horiz-adv-x="710" 
d="M209 903v-153h-119v153h119zM615 903v-153h-119v153h119zM227 736l94 183h153l-132 -183h-115zM407 131q92 0 232 41l25 -144q-159 -42 -279 -42q-200 0 -278 97q-72 90 -72 267q0 176 74 270q75 94 255 94q162 0 236.5 -87.5t74.5 -272.5v-63h-451q3 -42 10 -66t24 -47
q37 -47 149 -47zM364 569q-124 0 -138 -135h268q-2 65 -35.5 100t-94.5 35z" />
    <glyph glyph-name="afii10023.ss03.accented.alt" horiz-adv-x="616" 
d="M179 903v-153h-119v153h119zM585 903v-153h-119v153h119zM197 736l94 183h153l-132 -183h-115zM33 193q0 132 115 177q-84 44 -84 153q0 96 64.5 143.5t207.5 47.5q100 0 231 -27l-24 -153q-120 35 -207 35q-96 0 -96 -71q0 -35 23.5 -52.5t77.5 -17.5q35 0 116 4v-150
q-55 4 -116 4q-122 0 -122 -77q0 -40 27.5 -59t89.5 -19q96 0 228 40l26 -153q-142 -32 -256 -32q-182 0 -246 62q-55 55 -55 145z" />
    <glyph glyph-name="afii10026.ss03.accented" horiz-adv-x="707" 
d="M58 257v443h180v-438q0 -68 32 -99.5t99 -31.5q42 0 100 8v561h180v-682q-151 -32 -291 -32q-146 0 -223 68.5t-77 202.5zM371 919h171l-132 -183h-133z" />
    <glyph glyph-name="afii10022.ss03.accented.alt" horiz-adv-x="616" 
d="M33 193q0 132 115 177q-84 44 -84 153q0 96 64.5 143.5t207.5 47.5q100 0 231 -27l-24 -153q-120 35 -207 35q-96 0 -96 -71q0 -35 23.5 -52.5t77.5 -17.5q35 0 116 4v-150q-55 4 -116 4q-122 0 -122 -77q0 -40 27.5 -59t89.5 -19q96 0 228 40l26 -153q-142 -32 -256 -32
q-182 0 -246 62q-55 55 -55 145zM331 919h171l-132 -183h-133z" />
    <glyph glyph-name="afii10017.ss03.accented" horiz-adv-x="664" 
d="M429 142v128q-53 11 -95 11q-60 0 -86.5 -16.5t-26.5 -58.5t26.5 -58.5t86.5 -16.5q42 0 95 11zM299 426q49 0 130 -9v36q0 61 -26.5 88.5t-91.5 27.5q-72 0 -207 -50l-26 155q172 40 252 40q154 0 216 -68q63 -68 63 -191v-428q-162 -41 -310 -41q-146 0 -205 58
q-59 59 -59 162t59 162q59 58 205 58zM341 919h171l-132 -183h-133z" />
    </font>
</defs>
</svg>
