<?xml version="1.0" standalone="no"?>
<!DOCTYPE svg PUBLIC "-//W3C//DTD SVG 1.1//EN" "http://www.w3.org/Graphics/SVG/1.1/DTD/svg11.dtd" >
<svg>
<metadata>
Created by FontForge 20090622 at Sat Feb 25 19:24:06 2017
 By deploy user
Copyright &#194;&#169; 2013 ParaType Inc., ParaType Ltd. All rights reserved. wf-rip
</metadata>
<defs>
<font id="Foros-Medium" horiz-adv-x="564" >
  <font-face 
    font-family="Foros Medium"
    font-weight="500"
    font-stretch="normal"
    units-per-em="1000"
    panose-1="2 11 7 3 2 2 3 2 2 4"
    ascent="779"
    descent="-221"
    x-height="498"
    cap-height="700"
    bbox="-474 -236 1293 945"
    underline-thickness="50"
    underline-position="-50"
    unicode-range="U+0020-U+FEFF"
  />
<missing-glyph horiz-adv-x="207" 
 />
    <glyph glyph-name="afii10017.var.accented" unicode="&#x410;`" horiz-adv-x="696" 
d="M545 0l-68 204h-258l-68 -204h-140l247 700h180l247 -700h-140zM348 587l-94 -277h188zM376 916h128l-130 -178h-98z" />
    <glyph glyph-name="afii10022.var.accented" unicode="&#x415;`" horiz-adv-x="582" 
d="M204 106h333v-106h-463v700h452v-106h-322v-188h279v-105h-279v-195zM301 916h128l-130 -178h-98z" />
    <glyph glyph-name="afii10026.var.accented" unicode="&#x418;`" horiz-adv-x="708" 
d="M634 700v-700h-130v387q0 54 3 123q-38 -70 -58 -104l-240 -406h-135v700h130v-387q0 -54 -3 -123q38 70 58 104l240 406h135zM361 916h128l-130 -178h-98z" />
    <glyph glyph-name="afii10032.var.accented" unicode="&#x41e;`" horiz-adv-x="734" 
d="M225 547q-46 -61 -46 -197t46 -197t142 -61t142 61t46 197t-46 197t-142 61t-142 -61zM666 526q23 -74 23 -176t-23 -177q-42 -129 -169 -170q-57 -17 -130 -17t-130 17q-127 41 -169 170q-23 75 -23 177t23 176q42 131 169 170q56 18 130 18q75 0 130 -18
q127 -39 169 -170zM379 916h128l-130 -178h-98z" />
    <glyph glyph-name="afii10037.var.accented" unicode="&#x423;`" horiz-adv-x="659" 
d="M517 700h141l-229 -533q-46 -107 -99 -145q-52 -36 -135 -36q-41 0 -70 7l8 107q29 -8 52 -8q44 0 69.5 21t49.5 80l3 7h-84l-222 500h146l188 -433zM342 916h128l-130 -178h-98z" />
    <glyph glyph-name="afii10045.var.accented" unicode="&#x42b;`" horiz-adv-x="894" 
d="M820 0h-130v700h130v-700zM306 330q-39 0 -102 -7v-220q57 -11 102 -11q153 0 153 119t-153 119zM74 16v684h130v-272q72 8 105 8q139 0 211.5 -57t72.5 -168t-72.5 -168t-211.5 -57q-106 0 -235 30zM431 916h128l-130 -178h-98z" />
    <glyph glyph-name="afii10047.var.accented" unicode="&#x42d;`" horiz-adv-x="617" 
d="M241 92q92 0 139.5 49.5t55.5 155.5h-289v106h289q-8 106 -55.5 155.5t-139.5 49.5q-70 0 -177 -37l-19 119q132 24 206 24q144 0 227 -73q94 -80 94 -291q0 -210 -94 -292q-83 -72 -227 -72q-79 0 -206 26l19 116q105 -36 177 -36zM309 916h128l-130 -178h-98z" />
    <glyph glyph-name="afii10048.var.accented" unicode="&#x42e;`" horiz-adv-x="1033" 
d="M537 547q-45 -61 -45 -197q0 -135 45 -197q45 -61 136 -61t136 61q45 62 45 197q0 136 -45 197t-136 61t-136 -61zM673 -14q-141 0 -223 71q-80 71 -91 241h-155v-298h-130v700h130v-296h155q11 168 92 239t222 71q152 0 233 -83q82 -82 82 -281q0 -200 -82 -282
q-81 -82 -233 -82zM491 916h128l-130 -178h-98z" />
    <glyph glyph-name="afii10049.var.accented" unicode="&#x42f;`" horiz-adv-x="633" 
d="M326 380h103v219q-59 9 -103 9q-90 0 -120 -40q-23 -32 -23 -74q0 -114 143 -114zM164 -5l-138 20l155 287q-131 39 -131 192q0 220 275 220q96 0 234 -30v-684h-130v274h-122zM362 916h128l-130 -178h-98z" />
    <glyph glyph-name="afii10023.var.accented" unicode="&#x401;`" horiz-adv-x="582" 
d="M180 897v-140h-106v140h106zM526 897v-140h-106v140h106zM204 106h333v-106h-463v700h452v-106h-322v-188h279v-105h-279v-195zM285 916h128l-130 -178h-98z" />
    <glyph glyph-name="afii10065.var.accented" unicode="&#x430;`" horiz-adv-x="517" 
d="M36 142q0 161 198 161q29 0 107 -8v33q0 49 -22 70.5t-73 21.5q-57 0 -158 -34l-17 98q115 28 184 28q108 0 155 -46t47 -136v-330h-112v26q-80 -40 -150 -40q-79 0 -119 41t-40 115zM249 213q-97 0 -97 -70q0 -67 85 -67q44 0 104 28v101q-66 8 -92 8zM189 580l100 178
h121l-129 -178h-92z" />
    <glyph glyph-name="afii10070.var.accented" unicode="&#x435;`" horiz-adv-x="565" 
d="M320 78q86 0 177 28l20 -92q-108 -28 -211 -28q-137 0 -201 64t-64 199q0 263 249 263q130 0 182 -69q52 -67 52 -194v-31h-363q5 -73 40.5 -106.5t118.5 -33.5zM289 420q-111 0 -126 -113h243q-8 113 -117 113zM220 580l100 178h121l-129 -178h-92z" />
    <glyph glyph-name="afii10074.var.accented" unicode="&#x438;`" horiz-adv-x="568" 
d="M508 498v-498h-116v332l-216 -332h-116v498h116v-332l216 332h116zM216 580l100 178h121l-129 -178h-92z" />
    <glyph glyph-name="afii10080.var.accented" unicode="&#x43e;`" horiz-adv-x="588" 
d="M428 249q0 171 -134 171t-134 -171t134 -171t134 171zM547 249q0 -263 -253 -263t-253 263t253 263t253 -263zM211 580l100 178h121l-129 -178h-92z" />
    <glyph glyph-name="afii10085.var.accented" unicode="&#x443;`" horiz-adv-x="550" 
d="M136 498l88 -268q21 -52 51 -148q51 141 53 148l88 268h125l-189 -533q-34 -96 -85 -137.5t-135 -41.5q-34 0 -67 6l8 95q23 -6 53 -6q48 0 75 23.5t46 82.5l7 22h-72l-173 489h127zM194 580l100 178h121l-129 -178h-92z" />
    <glyph glyph-name="afii10093.var.accented" unicode="&#x44b;`" horiz-adv-x="735" 
d="M675 498v-498h-116v498h116zM176 245v-158q53 -9 88 -9q104 0 104 88t-104 88q-36 0 -88 -9zM60 498h116v-159q55 7 91 7q220 0 220 -180t-220 -180q-85 0 -207 29v483zM257 580l100 178h121l-129 -178h-92z" />
    <glyph glyph-name="afii10095.var.accented" unicode="&#x44d;`" horiz-adv-x="491" 
d="M105 204v91h224q-8 64 -42 94.5t-100 30.5q-52 0 -127 -28l-19 100q98 20 156 20q129 0 191 -64t62 -199t-62 -199t-191 -64q-58 0 -156 20l19 100q75 -28 127 -28q67 0 100.5 30.5t41.5 95.5h-224zM154 580l100 178h121l-129 -178h-92z" />
    <glyph glyph-name="afii10096.var.accented" unicode="&#x44e;`" horiz-adv-x="808" 
d="M648 249q0 171 -130 171t-130 -171t130 -171t130 171zM176 498v-203h95q21 217 247 217q249 0 249 -263t-249 -263q-227 0 -247 218h-95v-204h-116v498h116zM301 580l100 178h121l-129 -178h-92z" />
    <glyph glyph-name="afii10097.var.accented" unicode="&#x44f;`" horiz-adv-x="524" 
d="M464 0h-116v186h-86l-109 -193l-125 18l116 189q-100 37 -100 148q0 77 52.5 120.5t157.5 43.5q80 0 210 -24v-488zM261 278h87v132q-47 10 -87 10q-98 0 -98 -71t98 -71zM193 580l100 178h121l-129 -178h-92z" />
    <glyph glyph-name="afii10071.var.accented" unicode="&#x451;`" horiz-adv-x="565" 
d="M156 740v-140h-106v140h106zM515 740v-140h-106v140h106zM320 78q86 0 177 28l20 -92q-108 -28 -211 -28q-137 0 -201 64t-64 199q0 263 249 263q130 0 182 -69q52 -67 52 -194v-31h-363q5 -73 40.5 -106.5t118.5 -33.5zM289 420q-111 0 -126 -113h243q-8 113 -117 113z
M172 580l100 178h121l-129 -178h-92z" />
    <glyph glyph-name="fi" unicode="fi" horiz-adv-x="530" 
d="M470 739v-139h-116v60q-26 2 -32 2q-61 0 -84.5 -29.5t-23.5 -97.5v-37h256v-498h-116v406h-140v-406h-116v406h-70v92h70v41q0 112 52.5 163.5t161.5 51.5q58 0 158 -15z" />
    <glyph glyph-name="fl" unicode="fl" horiz-adv-x="536" 
d="M476 739v-739h-116v659q-21 3 -38 3q-61 0 -84.5 -29.5t-23.5 -97.5v-37h95v-92h-95v-406h-116v406h-70v92h70v41q0 112 54.5 163.5t166.5 51.5q63 0 157 -15z" />
    <glyph glyph-name=".notdef" horiz-adv-x="207" 
 />
    <glyph glyph-name=".null" horiz-adv-x="0" 
 />
    <glyph glyph-name="nonmarkingreturn" horiz-adv-x="333" 
 />
    <glyph glyph-name="space" unicode=" " horiz-adv-x="207" 
 />
    <glyph glyph-name="exclam" unicode="!" horiz-adv-x="280" 
d="M74 700h132l-15 -486h-102zM202 126v-126h-124v126h124z" />
    <glyph glyph-name="quotedbl" unicode="&#x22;" horiz-adv-x="372" 
d="M152 700l-8 -263h-112l-8 263h128zM348 700l-8 -263h-112l-8 263h128z" />
    <glyph glyph-name="numbersign" unicode="#" horiz-adv-x="638" 
d="M360 245l29 170h-111l-30 -170h112zM430 660h104l-26 -152h105l-16 -93h-104l-29 -170h105l-15 -93h-105l-26 -152h-104l25 152h-111l-25 -152h-104l26 152h-105l16 93h104l29 170h-105l15 93h105l26 152h104l-27 -152h112z" />
    <glyph glyph-name="dollar" unicode="$" horiz-adv-x="619" 
d="M305 86q63 0 92 23t29 71q0 41 -23 65t-82 32l-35 5q-109 15 -158 62.5t-49 136.5q0 173 187 191v118h95v-118q55 -4 166 -26l-17 -113q-123 41 -196 41q-109 0 -109 -90q0 -42 22.5 -62.5t84.5 -31.5l35 -5q121 -19 163 -72q43 -52 43 -129q0 -174 -192 -195v-119h-95
v117q-88 5 -203 33l19 118q114 -52 223 -52z" />
    <glyph glyph-name="percent" unicode="%" horiz-adv-x="937" 
d="M603 660h92l-361 -660h-92zM229 674q174 0 174 -189t-174 -189t-174 189t174 189zM292 395q21 29 21 90q0 62 -21 89q-21 28 -63 28t-63 -28q-21 -27 -21 -89q0 -61 21 -90q21 -27 63 -27t63 27zM708 -14q-174 0 -174 189t174 189t174 -189t-174 -189zM645 264
q-21 -27 -21 -89q0 -61 21 -90q21 -27 63 -27t63 27q21 29 21 90q0 62 -21 89q-21 28 -63 28t-63 -28z" />
    <glyph glyph-name="ampersand" unicode="&#x26;" horiz-adv-x="680" 
d="M84 495q0 179 236 179q62 0 182 -22l-15 -106q-104 29 -158 29q-119 0 -119 -93q0 -49 31 -71.5t100 -22.5q185 0 319 3v-105h-45q-26 1 -64 1v-270q-134 -31 -240 -31q-139 0 -202.5 49.5t-63.5 145.5q0 130 118 170q-79 42 -79 144zM319 290q-146 0 -146 -102
q0 -52 33.5 -77.5t112.5 -25.5q55 0 108 12v192q-55 1 -108 1z" />
    <glyph glyph-name="quotesingle" unicode="'" horiz-adv-x="176" 
d="M152 700l-8 -263h-112l-8 263h128z" />
    <glyph glyph-name="parenleft" unicode="(" horiz-adv-x="373" 
d="M338 -118l-12 -92q-145 8 -207 113t-64 367q1 177 30.5 280.5t86.5 148.5t154 51l12 -92q-57 -6 -89 -34q-75 -63 -75 -354q0 -154 21 -240t54 -114q32 -28 89 -34z" />
    <glyph glyph-name="parenright" unicode=")" horiz-adv-x="373" 
d="M35 658l12 92q97 -6 154 -51t86.5 -148.5t30.5 -280.5q-2 -262 -64 -367t-207 -113l-12 92q57 6 89 34q75 63 75 354q0 154 -21 240t-54 114q-32 28 -89 34z" />
    <glyph glyph-name="asterisk" unicode="*" horiz-adv-x="586" 
d="M241 700h104l-21 -153l122 95l52 -91l-143 -58l143 -58l-52 -91l-122 95l21 -153h-104l21 153l-122 -95l-52 91l143 58l-143 58l52 91l122 -95z" />
    <glyph glyph-name="plus" unicode="+" horiz-adv-x="618" 
d="M554 379v-90h-198v-200h-94v200h-198v90h198v200h94v-200h198z" />
    <glyph glyph-name="comma" unicode="," horiz-adv-x="277" 
d="M69 -146l9 272h133l-46 -272h-96z" />
    <glyph glyph-name="hyphen" unicode="-" horiz-adv-x="445" 
d="M371 312v-100h-297v100h297z" />
    <glyph glyph-name="period" unicode="." horiz-adv-x="278" 
d="M201 126v-126h-124v126h124z" />
    <glyph glyph-name="slash" unicode="/" horiz-adv-x="422" 
d="M281 700h121l-324 -870h-120z" />
    <glyph glyph-name="zero" unicode="0" horiz-adv-x="706" 
d="M573 593q73 -80 73 -263t-73 -263q-72 -81 -220 -81q-147 0 -221 81q-72 81 -72 263t72 263q73 81 221 81t220 -81zM479 143q40 58 40 187t-40 187q-39 58 -126 58t-127 -58q-39 -58 -39 -187q0 -128 39 -187q40 -58 127 -58t126 58z" />
    <glyph glyph-name="one" unicode="1" horiz-adv-x="418" 
d="M293 660v-660h-124v561h-136v99h260z" />
    <glyph glyph-name="two" unicode="2" horiz-adv-x="594" 
d="M534 471q0 -85 -45 -135q-43 -49 -166 -78l-16 -4q-78 -20 -105 -51q-26 -32 -26 -104h356v-99h-472v99q0 105 43 160q44 57 160 87l16 4q71 16 100 39q28 22 28 77q0 109 -134 109q-78 0 -179 -34l-17 108q128 25 203 25q128 0 191 -53.5t63 -149.5z" />
    <glyph glyph-name="three" unicode="3" horiz-adv-x="568" 
d="M508 181q0 -91 -60 -143q-58 -52 -206 -52q-99 0 -214 25l17 108q103 -34 189 -34q80 0 113 26t33 77q0 50 -33.5 76t-115.5 26q-61 0 -100 -3v105q63 -4 100 -4q73 0 102 23t29 71q0 46 -30 69.5t-99 23.5q-67 0 -166 -29l-16 106q113 22 191 22q246 0 246 -178
q0 -110 -87 -149q107 -41 107 -166z" />
    <glyph glyph-name="four" unicode="4" horiz-adv-x="639" 
d="M593 252v-99h-97v-153h-124v153h-337v124l315 383h146v-408h97zM141 252h231v289z" />
    <glyph glyph-name="five" unicode="5" horiz-adv-x="608" 
d="M275 85q79 0 113 27t34 87q0 57 -33.5 85.5t-113.5 28.5q-71 0 -187 -18v365h414v-99h-290v-154q48 5 77 5q143 0 201 -57q59 -56 59 -156q0 -105 -61 -159t-195 -54q-95 0 -234 29l17 110q105 -40 199 -40z" />
    <glyph glyph-name="six" unicode="6" horiz-adv-x="654" 
d="M600 206q0 -220 -248 -220q-150 0 -221 83.5t-71 260.5q0 186 75 265q76 79 229 79q65 0 199 -21l-16 -110q-105 32 -175 32q-93 0 -134.5 -42.5t-45.5 -129.5q83 19 165 19q120 0 181.5 -58t61.5 -158zM473 204q0 59 -32 89t-105 30q-60 0 -147 -17q1 -114 36.5 -167.5
t120.5 -53.5q127 0 127 119z" />
    <glyph glyph-name="seven" unicode="7" horiz-adv-x="529" 
d="M26 660h477v-99q-172 -285 -236 -561h-134q74 278 232 561h-339v99z" />
    <glyph glyph-name="eight" unicode="8" horiz-adv-x="666" 
d="M445 109q34 25 34 77t-34 76q-34 25 -112 25t-112 -25q-34 -24 -34 -76t34 -77q35 -24 112 -24t112 24zM201 480q0 -95 132 -95t132 95t-132 95t-132 -95zM60 178q0 120 111 164q-94 40 -94 152q0 91 62.5 135.5t193.5 44.5t193.5 -44.5t62.5 -135.5q0 -112 -94 -152
q111 -44 111 -164q0 -100 -67 -146t-206 -46t-206 46t-67 146z" />
    <glyph glyph-name="nine" unicode="9" horiz-adv-x="654" 
d="M54 454q0 220 248 220q150 0 221 -83.5t71 -260.5q0 -186 -76 -265q-75 -79 -228 -79q-66 0 -199 21l16 110q105 -32 175 -32q93 0 134.5 42.5t45.5 129.5q-83 -19 -165 -19q-120 0 -181.5 58t-61.5 158zM181 456q0 -59 32 -89t105 -30q60 0 147 17q-1 114 -36.5 167.5
t-120.5 53.5q-127 0 -127 -119z" />
    <glyph glyph-name="colon" unicode=":" horiz-adv-x="278" 
d="M201 126v-126h-124v126h124zM201 498v-126h-124v126h124z" />
    <glyph glyph-name="semicolon" unicode=";" horiz-adv-x="277" 
d="M201 498v-126h-124v126h124zM69 -146l9 272h133l-46 -272h-96z" />
    <glyph glyph-name="less" unicode="&#x3c;" horiz-adv-x="618" 
d="M554 234v-94l-490 138v110l490 138v-94l-374 -99z" />
    <glyph glyph-name="equal" unicode="=" horiz-adv-x="618" 
d="M64 398v90h490v-90h-490zM554 269v-90h-490v90h490z" />
    <glyph glyph-name="greater" unicode="&#x3e;" horiz-adv-x="618" 
d="M554 388v-110l-490 -138v94l374 99l-374 99v94z" />
    <glyph glyph-name="question" unicode="?" 
d="M491 495q0 -196 -224 -216v-65h-124v163h61q87 0 123 29.5t36 88.5t-36.5 89.5t-122.5 30.5q-52 0 -114 -17l-17 106q73 10 131 10q146 0 216.5 -54t70.5 -165zM267 126v-126h-124v126h124z" />
    <glyph glyph-name="at" unicode="@" horiz-adv-x="968" 
d="M642 0h-68v26q-80 -40 -150 -40q-79 0 -119 41t-40 115q0 161 198 161q29 0 107 -8v33q0 49 -22 70.5t-73 21.5q-57 0 -158 -34l-17 98q115 28 184 28q108 0 155 -46t47 -136v-238q65 8 100 59.5t35 137.5q0 168 -77 253q-77 84 -259 84q-181 0 -258 -84
q-77 -83 -77 -293t77 -293q78 -84 258 -84q138 0 279 37l16 -89q-181 -36 -295 -36q-229 0 -333 108q-102 108 -102 357q0 252 105 359q105 106 330 106q232 0 332 -109q101 -109 101 -316q0 -137 -73 -213t-203 -76zM478 213q-97 0 -97 -70q0 -67 85 -67q44 0 104 28v101
q-66 8 -92 8z" />
    <glyph glyph-name="A" unicode="A" horiz-adv-x="696" 
d="M545 0l-68 204h-258l-68 -204h-140l247 700h180l247 -700h-140zM348 587l-94 -277h188z" />
    <glyph glyph-name="B" unicode="B" horiz-adv-x="666" 
d="M204 598v-185h114q74 0 104 25t30 73q0 97 -134 97q-55 0 -114 -10zM490 199q0 54 -35 81t-118 27h-133v-205q66 -10 133 -10q153 0 153 107zM582 526q0 -113 -85 -155q127 -45 127 -181q0 -204 -283 -204q-127 0 -267 30v668q150 30 247 30q138 0 199.5 -46t61.5 -142z
" />
    <glyph glyph-name="C" unicode="C" horiz-adv-x="617" 
d="M366 714q74 0 206 -24l-19 -119q-107 37 -177 37q-102 0 -149.5 -61.5t-47.5 -196.5t47.5 -196.5t149.5 -61.5q72 0 177 36l19 -116q-127 -26 -206 -26q-144 0 -228 72q-93 82 -93 292t93 291q84 73 228 73z" />
    <glyph glyph-name="D" unicode="D" horiz-adv-x="717" 
d="M74 16v668q124 30 241 30q188 0 272.5 -88.5t84.5 -275.5t-84.5 -275.5t-272.5 -88.5q-117 0 -241 30zM204 599v-498q68 -9 108 -9q121 0 173.5 60.5t52.5 197.5t-52.5 197.5t-173.5 60.5q-40 0 -108 -9z" />
    <glyph glyph-name="E" unicode="E" horiz-adv-x="582" 
d="M204 106h333v-106h-463v700h452v-106h-322v-188h279v-105h-279v-195z" />
    <glyph glyph-name="F" unicode="F" horiz-adv-x="549" 
d="M204 277v-277h-130v700h438v-106h-308v-211h280v-106h-280z" />
    <glyph glyph-name="G" unicode="G" horiz-adv-x="699" 
d="M376 92q66 0 125 13v246h130v-330q-137 -35 -266 -35q-155 0 -238 84q-82 85 -82 280q0 211 93 292q84 72 227 72q103 0 238 -27l-22 -118q-120 39 -205 39q-100 0 -148.5 -61.5t-48.5 -196.5q0 -130 46 -194t151 -64z" />
    <glyph glyph-name="H" unicode="H" horiz-adv-x="700" 
d="M626 700v-700h-130v302h-292v-302h-130v700h130v-292h292v292h130z" />
    <glyph glyph-name="I" unicode="I" horiz-adv-x="278" 
d="M204 700v-700h-130v700h130z" />
    <glyph glyph-name="J" unicode="J" horiz-adv-x="454" 
d="M132 -14q-62 0 -115 10l15 112q45 -16 93 -16q71 0 101 33q31 32 31 128v447h130v-450q0 -135 -57 -200q-57 -64 -198 -64z" />
    <glyph glyph-name="K" unicode="K" horiz-adv-x="675" 
d="M513 -9l-284 364l248 345h152l-248 -334l281 -350zM74 700h130v-700h-130v700z" />
    <glyph glyph-name="L" unicode="L" horiz-adv-x="525" 
d="M204 106h301v-106h-431v700h130v-594z" />
    <glyph glyph-name="M" unicode="M" horiz-adv-x="920" 
d="M427 286l33 -104l33 104l154 414h169l48 -700h-129l-21 392q-3 51 -3 145q-32 -102 -47 -141l-147 -396h-114l-147 396q-15 39 -47 141q0 -94 -3 -145l-21 -392h-129l48 700h169z" />
    <glyph glyph-name="N" unicode="N" horiz-adv-x="710" 
d="M508 700h128v-700h-153l-236 410q-31 55 -50 107q5 -65 5 -115v-402h-128v700h153l236 -410q31 -55 50 -107q-5 65 -5 115v402z" />
    <glyph glyph-name="O" unicode="O" horiz-adv-x="734" 
d="M225 547q-46 -61 -46 -197t46 -197t142 -61t142 61t46 197t-46 197t-142 61t-142 -61zM666 526q23 -74 23 -176t-23 -177q-42 -129 -169 -170q-57 -17 -130 -17t-130 17q-127 41 -169 170q-23 75 -23 177t23 176q42 131 169 170q56 18 130 18q75 0 130 -18
q127 -39 169 -170z" />
    <glyph glyph-name="P" unicode="P" horiz-adv-x="617" 
d="M204 0h-130v684q140 30 233 30q276 0 276 -231t-276 -231q-43 0 -103 7v-259zM204 599v-232q58 -9 101 -9q45 0 75.5 11t44.5 30.5t19.5 39t5.5 44.5t-5.5 44.5t-19.5 39t-44.5 30.5t-75.5 11q-43 0 -101 -9z" />
    <glyph glyph-name="Q" unicode="Q" horiz-adv-x="734" 
d="M225 547q-46 -61 -46 -197t46 -197t142 -61t142 61t46 197t-46 197t-142 61t-142 -61zM689 350q0 -180 -68 -263q-68 -84 -192 -97q12 -89 36 -160l-137 -12q-17 75 -23 172q-125 14 -193 97q-67 82 -67 263q0 209 91 289q85 75 231 75t231 -75q91 -80 91 -289z" />
    <glyph glyph-name="R" unicode="R" horiz-adv-x="633" 
d="M204 599v-213h103q143 0 143 111q0 42 -24 72q-40 58 -222 30zM451 306l156 -291l-138 -20l-145 285h-120v-280h-130v684q152 30 234 30q275 0 275 -215q0 -153 -132 -193z" />
    <glyph glyph-name="S" unicode="S" horiz-adv-x="604" 
d="M297 92q66 0 97 24t31 75q0 44 -24.5 69t-86.5 34l-37 5q-116 15 -167.5 65.5t-51.5 145.5q0 204 245 204q87 0 229 -30l-18 -119q-126 43 -208 43q-115 0 -115 -95q0 -44 22 -66t91 -33l37 -6q137 -23 180 -86q38 -52 38 -127q0 -209 -262 -209q-106 0 -256 36l20 125
q120 -55 236 -55z" />
    <glyph glyph-name="T" unicode="T" horiz-adv-x="622" 
d="M602 700v-106h-226v-594h-130v594h-226v106h582z" />
    <glyph glyph-name="U" unicode="U" horiz-adv-x="714" 
d="M517 255v445h130v-447q0 -142 -69.5 -204.5t-220.5 -62.5t-220.5 62.5t-69.5 204.5v447h130v-445q0 -90 36 -126.5t124 -36.5t124 36.5t36 126.5z" />
    <glyph glyph-name="V" unicode="V" horiz-adv-x="702" 
d="M351 124l71 214l127 362h142l-257 -700h-166l-257 700h142l127 -362z" />
    <glyph glyph-name="W" unicode="W" horiz-adv-x="1066" 
d="M340 243l124 457h138l124 -457q3 -8 27 -110q24 102 27 110l124 457h135l-196 -700h-166l-114 408q-15 51 -30 116q-15 -65 -30 -116l-114 -408h-166l-196 700h135l124 -457q3 -8 27 -110q24 102 27 110z" />
    <glyph glyph-name="X" unicode="X" horiz-adv-x="686" 
d="M505 0l-162 264l-161 -264h-157l229 355l-220 345h157l152 -254l152 254h157l-220 -345l229 -355h-156z" />
    <glyph glyph-name="Y" unicode="Y" horiz-adv-x="696" 
d="M531 700h156l-274 -438v-262h-130v262l-274 438h156l183 -307z" />
    <glyph glyph-name="Z" unicode="Z" horiz-adv-x="607" 
d="M199 106h366v-106h-523v106l353 488h-340v106h497v-106z" />
    <glyph glyph-name="bracketleft" unicode="[" horiz-adv-x="348" 
d="M288 -108v-92h-214v940h214v-92h-98v-756h98z" />
    <glyph glyph-name="backslash" unicode="\" horiz-adv-x="422" 
d="M402 0h-121l-261 700h121z" />
    <glyph glyph-name="bracketright" unicode="]" horiz-adv-x="348" 
d="M274 740v-940h-214v92h98v756h-98v92h214z" />
    <glyph glyph-name="asciicircum" unicode="^" horiz-adv-x="522" 
d="M22 244l185 456h108l185 -456h-105l-134 341l-134 -341h-105z" />
    <glyph glyph-name="underscore" unicode="_" horiz-adv-x="459" 
d="M459 -119v-85h-459v85h459z" />
    <glyph glyph-name="grave" unicode="`" horiz-adv-x="500" 
d="M269 580l-129 178h121l100 -178h-92z" />
    <glyph glyph-name="a" unicode="a" horiz-adv-x="517" 
d="M36 142q0 161 198 161q29 0 107 -8v33q0 49 -22 70.5t-73 21.5q-57 0 -158 -34l-17 98q115 28 184 28q108 0 155 -46t47 -136v-330h-112v26q-80 -40 -150 -40q-79 0 -119 41t-40 115zM249 213q-97 0 -97 -70q0 -67 85 -67q44 0 104 28v101q-66 8 -92 8z" />
    <glyph glyph-name="b" unicode="b" horiz-adv-x="577" 
d="M60 740h116v-271q90 43 157 43q104 0 153 -64t49 -199q0 -130 -59 -196.5t-190 -66.5q-100 0 -226 34v720zM416 249q0 91 -27 131t-90 40q-48 0 -123 -36v-293q53 -13 107 -13q69 0 101 41.5t32 129.5z" />
    <glyph glyph-name="c" unicode="c" horiz-adv-x="491" 
d="M304 78q52 0 127 28l19 -100q-98 -20 -156 -20q-129 0 -191 64t-62 199t62 199t191 64q58 0 156 -20l-19 -100q-75 28 -127 28q-77 0 -110.5 -41.5t-33.5 -129.5t33.5 -129.5t110.5 -41.5z" />
    <glyph glyph-name="d" unicode="d" horiz-adv-x="577" 
d="M401 114v270q-77 36 -123 36q-63 0 -90 -40t-27 -131t27 -131t90 -40q46 0 123 36zM244 -14q-104 0 -153 64t-49 199t49 199t153 64q67 0 157 -43v271h116v-740h-112v31q-91 -45 -161 -45z" />
    <glyph glyph-name="e" unicode="e" horiz-adv-x="565" 
d="M320 78q86 0 177 28l20 -92q-108 -28 -211 -28q-137 0 -201 64t-64 199q0 263 249 263q130 0 182 -69q52 -67 52 -194v-31h-363q5 -73 40.5 -106.5t118.5 -33.5zM289 420q-111 0 -126 -113h243q-8 113 -117 113z" />
    <glyph glyph-name="f" unicode="f" horiz-adv-x="371" 
d="M344 498v-92h-130v-406h-116v406h-70v92h70v41q0 113 47.5 164t150.5 51q49 0 91 -7l-11 -95q-34 10 -63 10q-57 0 -78 -29t-21 -98v-37h130z" />
    <glyph glyph-name="g" unicode="g" horiz-adv-x="577" 
d="M401 120v264q-75 36 -123 36q-61 0 -89 -39t-28 -129t28 -129t89 -39q45 0 123 36zM244 -8q-101 0 -151.5 61.5t-50.5 198.5t50.5 198.5t151.5 61.5q68 0 161 -45v31h112v-469q0 -130 -55 -186q-54 -57 -200 -57q-81 0 -205 26l20 102q97 -36 178 -36q91 0 118 35
q28 34 28 113v9q-87 -43 -157 -43z" />
    <glyph glyph-name="h" unicode="h" 
d="M60 740h116v-271q99 43 163 43q165 0 165 -175v-337h-116v332q2 145 -212 52v-384h-116v740z" />
    <glyph glyph-name="i" unicode="i" horiz-adv-x="236" 
d="M176 498v-498h-116v498h116zM176 740v-140h-116v140h116z" />
    <glyph glyph-name="j" unicode="j" horiz-adv-x="238" 
d="M62 498h116v-487q0 -110 -51 -166.5t-160 -58.5l-12 92q60 3 83.5 35.5t23.5 99.5v485zM178 740v-140h-116v140h116z" />
    <glyph glyph-name="k" unicode="k" horiz-adv-x="527" 
d="M60 740h116v-740h-116v740zM500 498l-171 -228l191 -259l-130 -19l-191 268l166 238h135z" />
    <glyph glyph-name="l" unicode="l" horiz-adv-x="236" 
d="M60 740h116v-740h-116v740z" />
    <glyph glyph-name="m" unicode="m" horiz-adv-x="856" 
d="M486 0h-116v332q2 144 -194 52v-384h-116v498h112v-31q93 45 155 45q85 0 126 -53q106 53 173 53q89 0 129.5 -43.5t40.5 -131.5v-337h-116v332q0 47 -19 67.5t-65 20.5q-44 0 -114 -37q4 -39 4 -46v-337z" />
    <glyph glyph-name="n" unicode="n" 
d="M504 337v-337h-116v332q2 145 -212 52v-384h-116v498h112v-31q102 45 167 45q165 0 165 -175z" />
    <glyph glyph-name="o" unicode="o" horiz-adv-x="588" 
d="M428 249q0 171 -134 171t-134 -171t134 -171t134 171zM547 249q0 -263 -253 -263t-253 263t253 263t253 -263z" />
    <glyph glyph-name="p" unicode="p" horiz-adv-x="577" 
d="M176 29v-229h-116v698h112v-31q91 45 161 45q104 0 153 -64t49 -199t-49 -199t-153 -64q-67 0 -157 43zM176 384v-270q76 -36 123 -36q63 0 90 40t27 131t-27 131t-90 40q-47 0 -123 -36z" />
    <glyph glyph-name="q" unicode="q" horiz-adv-x="577" 
d="M517 -200h-116v229q-90 -43 -157 -43q-104 0 -153 64t-49 199t49 199t153 64q70 0 161 -45v31h112v-698zM401 114v270q-77 36 -123 36q-63 0 -90 -40t-27 -131t27 -131t90 -40q46 0 123 36z" />
    <glyph glyph-name="r" unicode="r" horiz-adv-x="348" 
d="M329 512l8 -102q-88 -8 -161 -39v-371h-116v498h110v-36q82 45 159 50z" />
    <glyph glyph-name="s" unicode="s" horiz-adv-x="480" 
d="M234 -14q-83 0 -196 28l21 107q91 -44 175 -44q85 0 85 57q0 28 -17 42.5t-63 22.5l-25 4q-83 13 -120.5 51t-37.5 107q0 71 47 111t140 40q64 0 173 -24l-20 -102q-90 35 -151 35q-71 0 -71 -54q0 -29 16 -43.5t59 -21.5l25 -4q90 -15 127 -53t37 -107q0 -152 -204 -152
z" />
    <glyph glyph-name="t" unicode="t" horiz-adv-x="453" 
d="M96 498v142h116v-142h182v-92h-182v-220q0 -60 21 -84t80 -24q34 0 89 11l10 -89q-79 -14 -125 -14q-108 0 -150 46q-41 47 -41 152v222h-70v92h70z" />
    <glyph glyph-name="u" unicode="u" 
d="M60 161v337h116v-332q-2 -145 212 -52v384h116v-498h-112v31q-102 -45 -167 -45q-165 0 -165 175z" />
    <glyph glyph-name="v" unicode="v" horiz-adv-x="550" 
d="M224 256l51 -140l51 140l88 242h127l-193 -498h-146l-193 498h127z" />
    <glyph glyph-name="w" unicode="w" horiz-adv-x="834" 
d="M417 351l-39 -131l-69 -220h-136l-156 498h118l69 -236q15 -48 41 -146q26 98 41 146l69 236h124l69 -236q15 -48 41 -146q26 98 41 146l69 236h118l-156 -498h-136l-69 220q-26 85 -39 131z" />
    <glyph glyph-name="x" unicode="x" horiz-adv-x="533" 
d="M380 0l-114 174l-113 -174h-142l173 253l-166 245h142l106 -167l107 167h142l-167 -245l174 -253h-142z" />
    <glyph glyph-name="y" unicode="y" horiz-adv-x="550" 
d="M136 498l88 -268q21 -52 51 -148q51 141 53 148l88 268h125l-189 -533q-34 -96 -85 -137.5t-135 -41.5q-34 0 -67 6l8 95q23 -6 53 -6q48 0 75 23.5t46 82.5l7 22h-72l-173 489h127z" />
    <glyph glyph-name="z" unicode="z" horiz-adv-x="501" 
d="M189 92h272v-92h-421v92l264 314h-255v92h404v-92z" />
    <glyph glyph-name="braceleft" unicode="{" horiz-adv-x="402" 
d="M168 271v-2q86 -48 86 -194q0 -95 25.5 -140t87.5 -53l-13 -92q-115 8 -165.5 71t-50.5 205q0 73 -21 110t-70 48v92q49 11 70 48t21 110q0 142 50.5 205t165.5 71l13 -92q-62 -8 -87.5 -53t-25.5 -140q0 -146 -86 -194z" />
    <glyph glyph-name="bar" unicode="|" horiz-adv-x="255" 
d="M193 740v-940h-131v940h131z" />
    <glyph glyph-name="braceright" unicode="}" horiz-adv-x="402" 
d="M234 269v2q-86 48 -86 194q0 95 -25.5 140t-87.5 53l13 92q115 -8 165.5 -71t50.5 -205q0 -73 21 -110t70 -48v-92q-49 -11 -70 -48t-21 -110q0 -142 -50.5 -205t-165.5 -71l-13 92q62 8 87.5 53t25.5 140q0 146 86 194z" />
    <glyph glyph-name="asciitilde" unicode="~" horiz-adv-x="942" 
d="M444 314l96 -21h-1q110 -25 134 -25q41 0 68 16t53 57l58 -59q-68 -101 -179 -101q-44 0 -175 29l-95 21q-110 25 -134 25q-41 0 -68 -16t-53 -57l-58 59q68 101 179 101q44 0 175 -29z" />
    <glyph glyph-name="uni00A0" unicode="&#xa0;" horiz-adv-x="207" 
 />
    <glyph glyph-name="exclamdown" unicode="&#xa1;" horiz-adv-x="280" 
d="M89 286h102l15 -486h-132zM78 374v126h124v-126h-124z" />
    <glyph glyph-name="cent" unicode="&#xa2;" horiz-adv-x="491" 
d="M332 -12v-152h-95v154q-99 13 -147.5 76t-48.5 183q0 234 196 259v154h95v-152q39 -2 118 -18l-19 -100q-60 21 -99 26v-338q44 5 99 26l19 -100q-79 -16 -118 -18zM160 249q0 -131 77 -161v321q-77 -30 -77 -160z" />
    <glyph glyph-name="sterling" unicode="&#xa3;" horiz-adv-x="628" 
d="M589 99v-99h-463v285h-71v95h71v30q0 135 61 199.5t194 64.5q79 0 189 -18l-15 -109q-94 28 -158 28q-93 0 -121 -45q-25 -40 -26 -117v-33h203v-95h-203v-186h339z" />
    <glyph glyph-name="currency" unicode="&#xa4;" horiz-adv-x="652" 
d="M222 451q-34 -37 -34 -121t34 -122q35 -38 104 -38t104 38q34 38 34 122t-34 121q-35 39 -104 39q-70 0 -104 -39zM56 532l66 66l65 -66q56 35 139 35t138 -34l65 65l66 -66l-67 -67q30 -55 30 -135q0 -82 -32 -138l69 -68l-66 -66l-68 67q-53 -32 -135 -32
q-84 0 -136 33l-68 -68l-66 66l69 69q-31 55 -31 137q0 78 29 134z" />
    <glyph glyph-name="yen" unicode="&#xa5;" horiz-adv-x="676" 
d="M18 660h147l173 -290l173 290h147l-171 -275h120v-85h-174l-34 -54v-4h208v-85h-208v-157h-122v157h-208v85h208v4l-34 54h-174v85h120z" />
    <glyph glyph-name="brokenbar" unicode="&#xa6;" horiz-adv-x="255" 
d="M193 740v-410h-131v410h131zM193 210v-410h-131v410h131z" />
    <glyph glyph-name="section" unicode="&#xa7;" horiz-adv-x="647" 
d="M466 101q66 -41 66 -117q0 -151 -232 -151q-68 0 -201 26l18 109q107 -36 185 -36q57 0 80 13.5t23 42.5q0 30 -21.5 45t-77.5 22l-32 4q-118 15 -165 66q-46 50 -46 124q0 121 118 157q-66 40 -66 117q0 151 232 151q68 0 201 -26l-18 -109q-107 36 -185 36
q-57 0 -80 -13.5t-23 -42.5q0 -30 21.5 -45t77.5 -22l32 -4q119 -15 165 -66q46 -50 46 -124q0 -121 -118 -157zM318 155l32 -4q107 12 107 100q0 42 -28 66.5t-100 33.5l-32 4q-107 -12 -107 -100q0 -42 28 -66.5t100 -33.5z" />
    <glyph glyph-name="dieresis" unicode="&#xa8;" horiz-adv-x="500" 
d="M179 740v-140h-106v140h106zM427 740v-140h-106v140h106z" />
    <glyph glyph-name="copyright" unicode="&#xa9;" horiz-adv-x="850" 
d="M766 527q24 -71 24 -177t-24 -178q-43 -131 -185 -169q-66 -17 -156 -17q-91 0 -157 17q-141 38 -185 169q-23 74 -23 178q0 105 23 177q44 132 185 170q66 17 157 17q90 0 156 -17q142 -38 185 -170zM212 573q-64 -63 -64 -223t64 -223t213 -63t213 63t64 223t-64 223
t-213 63t-213 -63zM330 350q0 -80 27.5 -116.5t87.5 -36.5q40 0 109 24l15 -87q-82 -17 -133 -17q-100 0 -155 51q-54 51 -54 182t54 182q55 51 155 51q53 0 133 -16l-15 -90q-60 25 -109 25q-60 0 -87.5 -36.5t-27.5 -115.5z" />
    <glyph glyph-name="ordfeminine" unicode="&#xaa;" horiz-adv-x="475" 
d="M36 341q0 145 178 145q25 0 97 -8v30q0 45 -19.5 64t-66.5 19q-50 0 -142 -31l-15 88q104 26 165 26q97 0 139.5 -41.5t42.5 -122.5v-297h-101v23q-74 -36 -135 -36q-71 0 -107 37t-36 104zM228 405q-88 0 -88 -63q0 -61 77 -61q40 0 94 25v91q-62 8 -83 8z" />
    <glyph glyph-name="guillemotleft" unicode="&#xab;" horiz-adv-x="483" 
d="M154 457h108l-134 -195l134 -195h-108l-134 195zM355 457h108l-134 -195l134 -195h-108l-134 195z" />
    <glyph glyph-name="logicalnot" unicode="&#xac;" horiz-adv-x="618" 
d="M64 269v90h490v-279h-94v189h-396z" />
    <glyph glyph-name="uni00AD" unicode="&#xad;" horiz-adv-x="445" 
d="M371 312v-100h-297v100h297z" />
    <glyph glyph-name="registered" unicode="&#xae;" horiz-adv-x="750" 
d="M612 641q78 -73 78 -252t-78 -252q-76 -73 -237 -73t-238 73q-77 74 -77 252t77 252q77 73 238 73t237 -73zM191 592q-54 -56 -54 -203t54 -203q56 -56 184 -56q129 0 183 56q55 55 55 203t-55 203q-54 56 -183 56q-128 0 -184 -56zM324 509v-98h45q63 0 63 50
q0 25 -13.5 38t-49.5 13q-18 0 -45 -3zM514 462q0 -78 -63 -99l76 -148l-86 -11l-68 141h-49v-138h-81v355q76 16 125 16q146 0 146 -116z" />
    <glyph glyph-name="overscore" unicode="&#xaf;" horiz-adv-x="500" 
d="M423 717v-94h-346v94h346z" />
    <glyph glyph-name="degree" unicode="&#xb0;" horiz-adv-x="430" 
d="M273 448q17 23 17 66t-17 66q-16 22 -58 22t-58 -22q-17 -23 -17 -66t17 -66q16 -22 58 -22t58 22zM215 674q165 0 165 -160t-165 -160t-165 160t165 160z" />
    <glyph glyph-name="plusminus" unicode="&#xb1;" horiz-adv-x="618" 
d="M64 64v90h490v-90h-490zM554 494v-90h-198v-183h-94v183h-198v90h198v183h94v-183h198z" />
    <glyph glyph-name="twosuperior" unicode="&#xb2;" horiz-adv-x="386" 
d="M326 553q0 -48 -24.5 -75t-88.5 -42l-8 -2q-41 -10 -54.5 -24t-14.5 -50h188v-64h-263v64q0 57 23.5 86t87.5 46l8 2q37 9 50 20t13 36q0 52 -67 52q-40 0 -97 -19l-10 69q69 15 114 15q143 0 143 -114z" />
    <glyph glyph-name="threesuperior" unicode="&#xb3;" horiz-adv-x="357" 
d="M297 395q0 -107 -149 -107q-58 0 -120 13l11 71q57 -20 102 -20q72 0 72 49t-73 49q-27 0 -55 -2v67q48 -2 55 -2q35 0 49 10.5t14 33.5q0 45 -63 45q-38 0 -89 -16l-11 68q64 12 108 12q138 0 138 -99q0 -59 -46 -80q57 -25 57 -92z" />
    <glyph glyph-name="acute" unicode="&#xb4;" horiz-adv-x="500" 
d="M139 580l100 178h121l-129 -178h-92z" />
    <glyph glyph-name="mu" unicode="&#xb5;" 
d="M388 114v384h116v-498h-109v31q-77 -45 -133 -45q-60 0 -93 21l4 -207h-113v698h116v-332q-2 -145 212 -52z" />
    <glyph glyph-name="mu" unicode="&#x3bc;" 
d="M388 114v384h116v-498h-109v31q-77 -45 -133 -45q-60 0 -93 21l4 -207h-113v698h116v-332q-2 -145 212 -52z" />
    <glyph glyph-name="paragraph" unicode="&#xb6;" horiz-adv-x="665" 
d="M260 -150v410q-112 2 -162.5 49t-50.5 151q0 103 50.5 151.5t167.5 48.5h310v-810h-116v718h-83v-718h-116z" />
    <glyph glyph-name="middot" unicode="&#xb7;" horiz-adv-x="284" 
d="M204 325v-126h-124v126h124z" />
    <glyph glyph-name="cedilla" unicode="&#xb8;" horiz-adv-x="500" 
d="M354 -136q0 -100 -122 -100q-42 0 -86 10l8 62q36 -14 69 -14q51 0 51 42t-51 42q-15 0 -62 -3l14 107h74l-6 -46q53 0 82 -26.5t29 -73.5z" />
    <glyph glyph-name="onesuperior" unicode="&#xb9;" horiz-adv-x="309" 
d="M184 660v-369h-82v305h-69v64h151z" />
    <glyph glyph-name="ordmasculine" unicode="&#xba;" horiz-adv-x="538" 
d="M390 437q0 154 -121 154t-121 -154t121 -154t121 154zM497 437q0 -237 -228 -237t-228 237t228 237t228 -237z" />
    <glyph glyph-name="guillemotright" unicode="&#xbb;" horiz-adv-x="483" 
d="M221 67l134 195l-134 195h108l134 -195l-134 -195h-108zM20 67l134 195l-134 195h108l134 -195l-134 -195h-108z" />
    <glyph glyph-name="onequarter" unicode="&#xbc;" horiz-adv-x="660" 
d="M435 660h75l-374 -660h-75zM184 660v-363h-82v299h-69v64h151zM614 144v-64h-51v-80h-81v80h-178v78l167 205h92v-219h51zM373 144h109v139z" />
    <glyph glyph-name="onehalf" unicode="&#xbd;" horiz-adv-x="701" 
d="M435 660h75l-374 -660h-75zM184 660v-363h-82v299h-69v64h151zM641 257q0 -48 -24.5 -75t-88.5 -42l-8 -2q-41 -10 -54.5 -24t-14.5 -50h188v-64h-263v64q0 57 23.5 86t87.5 46l8 2q37 9 50 20t13 36q0 52 -67 52q-40 0 -97 -19l-10 69q69 15 114 15q143 0 143 -114z" />
    <glyph glyph-name="threequarters" unicode="&#xbe;" horiz-adv-x="748" 
d="M523 660h75l-374 -660h-75zM297 395q0 -107 -149 -107q-58 0 -120 13l11 71q57 -20 102 -20q72 0 72 49t-73 49q-27 0 -55 -2v67q48 -2 55 -2q35 0 49 10.5t14 33.5q0 45 -63 45q-38 0 -89 -16l-11 68q64 12 108 12q138 0 138 -99q0 -59 -46 -80q57 -25 57 -92zM702 144
v-64h-51v-80h-81v80h-178v78l167 205h92v-219h51zM461 144h109v139z" />
    <glyph glyph-name="questiondown" unicode="&#xbf;" 
d="M297 374v126h124v-126h-124zM73 5q0 196 224 216v65h124v-163h-61q-87 0 -123 -29.5t-36 -88.5t36.5 -89.5t122.5 -30.5q52 0 114 17l17 -106q-73 -10 -131 -10q-146 0 -216.5 54t-70.5 165z" />
    <glyph glyph-name="Agrave" unicode="&#xc0;" horiz-adv-x="696" 
d="M545 0l-68 204h-258l-68 -204h-140l247 700h180l247 -700h-140zM348 587l-94 -277h188zM420 738h-98l-130 178h128z" />
    <glyph glyph-name="Aacute" unicode="&#xc1;" horiz-adv-x="696" 
d="M545 0l-68 204h-258l-68 -204h-140l247 700h180l247 -700h-140zM348 587l-94 -277h188zM398 916h128l-130 -178h-98z" />
    <glyph glyph-name="Acircumflex" unicode="&#xc2;" horiz-adv-x="696" 
d="M545 0l-68 204h-258l-68 -204h-140l247 700h180l247 -700h-140zM348 587l-94 -277h188zM429 738l-81 117l-81 -117h-90l99 178h144l99 -178h-90z" />
    <glyph glyph-name="Atilde" unicode="&#xc3;" horiz-adv-x="696" 
d="M545 0l-68 204h-258l-68 -204h-140l247 700h180l247 -700h-140zM348 587l-94 -277h188zM326 790q-48 23 -66 23q-46 0 -81 -56l-45 71q31 41 60 58.5t70 17.5q47 0 106 -31q48 -23 66 -23q46 0 81 56l45 -71q-31 -41 -60 -58.5t-70 -17.5q-47 0 -106 31z" />
    <glyph glyph-name="Adieresis" unicode="&#xc4;" horiz-adv-x="696" 
d="M545 0l-68 204h-258l-68 -204h-140l247 700h180l247 -700h-140zM348 587l-94 -277h188zM268 897v-140h-106v140h106zM534 897v-140h-106v140h106z" />
    <glyph glyph-name="Aring" unicode="&#xc5;" horiz-adv-x="696" 
d="M545 0l-68 204h-258l-68 -204h-140l247 700h180l247 -700h-140zM348 587l-94 -277h188zM348 945q118 0 118 -114t-118 -114t-118 114t118 114zM308 877q-12 -13 -12 -46t12 -46q12 -14 40 -14t40 14q12 13 12 46t-12 46q-12 14 -40 14t-40 -14z" />
    <glyph glyph-name="AE" unicode="&#xc6;" horiz-adv-x="999" 
d="M274 371h217v223h-140zM954 106v-106h-463v265h-252l-88 -265h-140l247 700h685v-106h-322v-188h279v-105h-279v-195h333z" />
    <glyph glyph-name="Ccedilla" unicode="&#xc7;" horiz-adv-x="617" 
d="M45 350q0 210 93 291q84 73 228 73q74 0 206 -24l-19 -119q-107 37 -177 37q-102 0 -149.5 -61.5t-47.5 -196.5t47.5 -196.5t149.5 -61.5q72 0 177 36l19 -116q-105 -21 -169 -25l-3 -23q53 0 82 -26.5t29 -73.5q0 -100 -122 -100q-42 0 -86 10l8 62q36 -14 69 -14
q51 0 51 42t-51 42q-16 0 -62 -3l11 85q-64 4 -113 23t-89 59.5t-61 110.5t-21 169z" />
    <glyph glyph-name="Egrave" unicode="&#xc8;" horiz-adv-x="582" 
d="M204 106h333v-106h-463v700h452v-106h-322v-188h279v-105h-279v-195zM407 738h-98l-130 178h128z" />
    <glyph glyph-name="Eacute" unicode="&#xc9;" horiz-adv-x="582" 
d="M204 106h333v-106h-463v700h452v-106h-322v-188h279v-105h-279v-195zM327 916h128l-130 -178h-98z" />
    <glyph glyph-name="Ecircumflex" unicode="&#xca;" horiz-adv-x="582" 
d="M204 106h333v-106h-463v700h452v-106h-322v-188h279v-105h-279v-195zM387 738l-81 117l-81 -117h-90l99 178h144l99 -178h-90z" />
    <glyph glyph-name="Edieresis" unicode="&#xcb;" horiz-adv-x="582" 
d="M204 106h333v-106h-463v700h452v-106h-322v-188h279v-105h-279v-195zM220 897v-140h-106v140h106zM486 897v-140h-106v140h106z" />
    <glyph glyph-name="Igrave" unicode="&#xcc;" horiz-adv-x="278" 
d="M204 700v-700h-130v700h130zM213 738h-98l-130 178h128z" />
    <glyph glyph-name="Iacute" unicode="&#xcd;" horiz-adv-x="278" 
d="M204 700v-700h-130v700h130zM165 916h128l-130 -178h-98z" />
    <glyph glyph-name="Icircumflex" unicode="&#xce;" horiz-adv-x="278" 
d="M204 700v-700h-130v700h130zM220 738l-81 117l-81 -117h-90l99 178h144l99 -178h-90z" />
    <glyph glyph-name="Idieresis" unicode="&#xcf;" horiz-adv-x="278" 
d="M97 897v-140h-102v140h102zM283 897v-140h-102v140h102zM204 700v-700h-130v700h130z" />
    <glyph glyph-name="Eth" unicode="&#xd0;" horiz-adv-x="739" 
d="M19 403h77v281q124 30 241 30q188 0 272.5 -88.5t84.5 -275.5t-84.5 -275.5t-272.5 -88.5q-117 0 -241 30v282h-77v105zM360 298h-134v-197q68 -9 108 -9q121 0 173.5 60.5t52.5 197.5t-52.5 197.5t-173.5 60.5q-40 0 -108 -9v-196h134v-105z" />
    <glyph glyph-name="Ntilde" unicode="&#xd1;" horiz-adv-x="710" 
d="M508 700h128v-700h-153l-236 410q-31 55 -50 107q5 -65 5 -115v-402h-128v700h153l236 -410q31 -55 50 -107q-5 65 -5 115v402zM333 790q-48 23 -66 23q-46 0 -81 -56l-45 71q31 41 60 58.5t70 17.5q47 0 106 -31q48 -23 66 -23q46 0 81 56l45 -71q-31 -41 -60 -58.5
t-70 -17.5q-47 0 -106 31z" />
    <glyph glyph-name="Ograve" unicode="&#xd2;" horiz-adv-x="734" 
d="M225 547q-46 -61 -46 -197t46 -197t142 -61t142 61t46 197t-46 197t-142 61t-142 -61zM666 526q23 -74 23 -176t-23 -177q-42 -129 -169 -170q-57 -17 -130 -17t-130 17q-127 41 -169 170q-23 75 -23 177t23 176q42 131 169 170q56 18 130 18q75 0 130 -18
q127 -39 169 -170zM440 738h-98l-130 178h128z" />
    <glyph glyph-name="Oacute" unicode="&#xd3;" horiz-adv-x="734" 
d="M225 547q-46 -61 -46 -197t46 -197t142 -61t142 61t46 197t-46 197t-142 61t-142 -61zM666 526q23 -74 23 -176t-23 -177q-42 -129 -169 -170q-57 -17 -130 -17t-130 17q-127 41 -169 170q-23 75 -23 177t23 176q42 131 169 170q56 18 130 18q75 0 130 -18
q127 -39 169 -170zM413 916h128l-130 -178h-98z" />
    <glyph glyph-name="Ocircumflex" unicode="&#xd4;" horiz-adv-x="734" 
d="M225 547q-46 -61 -46 -197t46 -197t142 -61t142 61t46 197t-46 197t-142 61t-142 -61zM666 526q23 -74 23 -176t-23 -177q-42 -129 -169 -170q-57 -17 -130 -17t-130 17q-127 41 -169 170q-23 75 -23 177t23 176q42 131 169 170q56 18 130 18q75 0 130 -18
q127 -39 169 -170zM448 738l-81 117l-81 -117h-90l99 178h144l99 -178h-90z" />
    <glyph glyph-name="Otilde" unicode="&#xd5;" horiz-adv-x="734" 
d="M225 547q-46 -61 -46 -197t46 -197t142 -61t142 61t46 197t-46 197t-142 61t-142 -61zM666 526q23 -74 23 -176t-23 -177q-42 -129 -169 -170q-57 -17 -130 -17t-130 17q-127 41 -169 170q-23 75 -23 177t23 176q42 131 169 170q56 18 130 18q75 0 130 -18
q127 -39 169 -170zM353 790q-48 23 -66 23q-46 0 -81 -56l-45 71q31 41 60 58.5t70 17.5q47 0 106 -31q48 -23 66 -23q46 0 81 56l45 -71q-31 -41 -60 -58.5t-70 -17.5q-47 0 -106 31z" />
    <glyph glyph-name="Odieresis" unicode="&#xd6;" horiz-adv-x="734" 
d="M225 547q-46 -61 -46 -197t46 -197t142 -61t142 61t46 197t-46 197t-142 61t-142 -61zM666 526q23 -74 23 -176t-23 -177q-42 -129 -169 -170q-57 -17 -130 -17t-130 17q-127 41 -169 170q-23 75 -23 177t23 176q42 131 169 170q56 18 130 18q75 0 130 -18
q127 -39 169 -170zM287 897v-140h-106v140h106zM553 897v-140h-106v140h106z" />
    <glyph glyph-name="multiply" unicode="&#xd7;" horiz-adv-x="618" 
d="M103 474l66 66l140 -140l140 140l66 -66l-140 -140l140 -140l-66 -66l-140 140l-140 -140l-66 66l140 140z" />
    <glyph glyph-name="Oslash" unicode="&#xd8;" horiz-adv-x="734" 
d="M179 350q0 -123 37 -184l217 433q-30 9 -66 9q-97 0 -142.5 -61.5t-45.5 -196.5zM555 350q0 123 -37 184l-218 -433q30 -9 67 -9q97 0 142.5 61.5t45.5 196.5zM517 765h117l-55 -110q110 -86 110 -305q0 -209 -91 -289q-85 -75 -231 -75q-67 0 -118 14l-32 -65h-117
l55 109q-110 84 -110 306q0 209 91 289q85 75 231 75q66 0 117 -14z" />
    <glyph glyph-name="Ugrave" unicode="&#xd9;" horiz-adv-x="714" 
d="M517 255v445h130v-447q0 -142 -69.5 -204.5t-220.5 -62.5t-220.5 62.5t-69.5 204.5v447h130v-445q0 -90 36 -126.5t124 -36.5t124 36.5t36 126.5zM442 738h-98l-130 178h128z" />
    <glyph glyph-name="Uacute" unicode="&#xda;" horiz-adv-x="714" 
d="M517 255v445h130v-447q0 -142 -69.5 -204.5t-220.5 -62.5t-220.5 62.5t-69.5 204.5v447h130v-445q0 -90 36 -126.5t124 -36.5t124 36.5t36 126.5zM387 916h128l-130 -178h-98z" />
    <glyph glyph-name="Ucircumflex" unicode="&#xdb;" horiz-adv-x="714" 
d="M517 255v445h130v-447q0 -142 -69.5 -204.5t-220.5 -62.5t-220.5 62.5t-69.5 204.5v447h130v-445q0 -90 36 -126.5t124 -36.5t124 36.5t36 126.5zM438 738l-81 117l-81 -117h-90l99 178h144l99 -178h-90z" />
    <glyph glyph-name="Udieresis" unicode="&#xdc;" horiz-adv-x="714" 
d="M517 255v445h130v-447q0 -142 -69.5 -204.5t-220.5 -62.5t-220.5 62.5t-69.5 204.5v447h130v-445q0 -90 36 -126.5t124 -36.5t124 36.5t36 126.5zM277 897v-140h-106v140h106zM543 897v-140h-106v140h106z" />
    <glyph glyph-name="Yacute" unicode="&#xdd;" horiz-adv-x="696" 
d="M531 700h156l-274 -438v-262h-130v262l-274 438h156l183 -307zM380 916h128l-130 -178h-98z" />
    <glyph glyph-name="Thorn" unicode="&#xde;" horiz-adv-x="617" 
d="M204 476v-232q58 -9 101 -9q45 0 75.5 11t44.5 30.5t19.5 39t5.5 44.5t-5.5 44.5t-19.5 39t-44.5 30.5t-75.5 11q-43 0 -101 -9zM74 700h130v-116q60 7 103 7q276 0 276 -231t-276 -231q-43 0 -103 7v-136h-130v700z" />
    <glyph glyph-name="germandbls" unicode="&#xdf;" horiz-adv-x="625" 
d="M584 203q0 -109 -60.5 -163t-188.5 -54q-27 0 -69 5v91q28 -4 61 -4q73 0 105.5 33t32.5 99q0 65 -32.5 97.5t-105.5 32.5h-61v92h52q115 0 115 115t-113 115t-113 -135v-527h-116v340h-63v92h63v96q0 111 59.5 168.5t170.5 57.5q114 0 170 -52.5t56 -145.5
q0 -108 -78 -157q115 -46 115 -196z" />
    <glyph glyph-name="agrave" unicode="&#xe0;" horiz-adv-x="517" 
d="M36 142q0 161 198 161q29 0 107 -8v33q0 49 -22 70.5t-73 21.5q-57 0 -158 -34l-17 98q115 28 184 28q108 0 155 -46t47 -136v-330h-112v26q-80 -40 -150 -40q-79 0 -119 41t-40 115zM249 213q-97 0 -97 -70q0 -67 85 -67q44 0 104 28v101q-66 8 -92 8zM260 580l-129 178
h121l100 -178h-92z" />
    <glyph glyph-name="aacute" unicode="&#xe1;" horiz-adv-x="517" 
d="M36 142q0 161 198 161q29 0 107 -8v33q0 49 -22 70.5t-73 21.5q-57 0 -158 -34l-17 98q115 28 184 28q108 0 155 -46t47 -136v-330h-112v26q-80 -40 -150 -40q-79 0 -119 41t-40 115zM249 213q-97 0 -97 -70q0 -67 85 -67q44 0 104 28v101q-66 8 -92 8zM191 580l100 178
h121l-129 -178h-92z" />
    <glyph glyph-name="acircumflex" unicode="&#xe2;" horiz-adv-x="517" 
d="M36 142q0 161 198 161q29 0 107 -8v33q0 49 -22 70.5t-73 21.5q-57 0 -158 -34l-17 98q115 28 184 28q108 0 155 -46t47 -136v-330h-112v26q-80 -40 -150 -40q-79 0 -119 41t-40 115zM249 213q-97 0 -97 -70q0 -67 85 -67q44 0 104 28v101q-66 8 -92 8zM193 758h140
l95 -178h-87l-78 116l-78 -116h-87z" />
    <glyph glyph-name="atilde" unicode="&#xe3;" horiz-adv-x="517" 
d="M36 142q0 161 198 161q29 0 107 -8v33q0 49 -22 70.5t-73 21.5q-57 0 -158 -34l-17 98q115 28 184 28q108 0 155 -46t47 -136v-330h-112v26q-80 -40 -150 -40q-79 0 -119 41t-40 115zM249 213q-97 0 -97 -70q0 -67 85 -67q44 0 104 28v101q-66 8 -92 8zM243 632
q-42 21 -62 21q-24 0 -40.5 -11.5t-34.5 -39.5l-41 65q51 71 120 71q43 0 98 -29q42 -21 62 -21q24 0 40.5 11.5t34.5 39.5l41 -65q-51 -71 -120 -71q-43 0 -98 29z" />
    <glyph glyph-name="adieresis" unicode="&#xe4;" horiz-adv-x="517" 
d="M36 142q0 161 198 161q29 0 107 -8v33q0 49 -22 70.5t-73 21.5q-57 0 -158 -34l-17 98q115 28 184 28q108 0 155 -46t47 -136v-330h-112v26q-80 -40 -150 -40q-79 0 -119 41t-40 115zM249 213q-97 0 -97 -70q0 -67 85 -67q44 0 104 28v101q-66 8 -92 8zM192 740v-140
h-106v140h106zM440 740v-140h-106v140h106z" />
    <glyph glyph-name="aring" unicode="&#xe5;" horiz-adv-x="517" 
d="M36 142q0 161 198 161q29 0 107 -8v33q0 49 -22 70.5t-73 21.5q-57 0 -158 -34l-17 98q115 28 184 28q108 0 155 -46t47 -136v-330h-112v26q-80 -40 -150 -40q-79 0 -119 41t-40 115zM249 213q-97 0 -97 -70q0 -67 85 -67q44 0 104 28v101q-66 8 -92 8zM263 780
q118 0 118 -114t-118 -114t-118 114t118 114zM223 712q-12 -14 -12 -46t12 -46t40 -14t40 14t12 46t-12 46t-40 14t-40 -14z" />
    <glyph glyph-name="ae" unicode="&#xe6;" horiz-adv-x="861" 
d="M249 213q-97 0 -97 -70q0 -67 85 -67q44 0 104 28v101q-66 8 -92 8zM585 420q-111 0 -126 -113h243q-8 113 -117 113zM616 78q86 0 177 28l20 -92q-108 -28 -211 -28q-134 0 -198 61q-119 -61 -199 -61q-169 0 -169 156q0 161 198 161q29 0 107 -8v33q0 49 -22 70.5
t-73 21.5q-57 0 -158 -34l-17 98q115 28 184 28q111 0 160 -52q61 52 171 52q130 0 182 -69q52 -67 52 -194v-31h-363q5 -73 40.5 -106.5t118.5 -33.5z" />
    <glyph glyph-name="ccedilla" unicode="&#xe7;" horiz-adv-x="491" 
d="M439 -136q0 -100 -122 -100q-42 0 -86 10l8 62q36 -14 69 -14q51 0 51 42t-51 42q-16 0 -62 -3l11 85q-110 8 -163 71.5t-53 189.5q0 135 62 199t191 64q58 0 156 -20l-19 -100q-75 28 -127 28q-77 0 -110.5 -41.5t-33.5 -129.5t33.5 -129.5t110.5 -41.5q52 0 127 28
l19 -100q-71 -15 -119 -18l-3 -24q53 0 82 -26.5t29 -73.5z" />
    <glyph glyph-name="egrave" unicode="&#xe8;" horiz-adv-x="565" 
d="M320 78q86 0 177 28l20 -92q-108 -28 -211 -28q-137 0 -201 64t-64 199q0 263 249 263q130 0 182 -69q52 -67 52 -194v-31h-363q5 -73 40.5 -106.5t118.5 -33.5zM289 420q-111 0 -126 -113h243q-8 113 -117 113zM291 580l-129 178h121l100 -178h-92z" />
    <glyph glyph-name="eacute" unicode="&#xe9;" horiz-adv-x="565" 
d="M320 78q86 0 177 28l20 -92q-108 -28 -211 -28q-137 0 -201 64t-64 199q0 263 249 263q130 0 182 -69q52 -67 52 -194v-31h-363q5 -73 40.5 -106.5t118.5 -33.5zM289 420q-111 0 -126 -113h243q-8 113 -117 113zM216 580l100 178h121l-129 -178h-92z" />
    <glyph glyph-name="ecircumflex" unicode="&#xea;" horiz-adv-x="565" 
d="M320 78q86 0 177 28l20 -92q-108 -28 -211 -28q-137 0 -201 64t-64 199q0 263 249 263q130 0 182 -69q52 -67 52 -194v-31h-363q5 -73 40.5 -106.5t118.5 -33.5zM289 420q-111 0 -126 -113h243q-8 113 -117 113zM218 758h140l95 -178h-87l-78 116l-78 -116h-87z" />
    <glyph glyph-name="edieresis" unicode="&#xeb;" horiz-adv-x="565" 
d="M320 78q86 0 177 28l20 -92q-108 -28 -211 -28q-137 0 -201 64t-64 199q0 263 249 263q130 0 182 -69q52 -67 52 -194v-31h-363q5 -73 40.5 -106.5t118.5 -33.5zM289 420q-111 0 -126 -113h243q-8 113 -117 113zM217 740v-140h-106v140h106zM465 740v-140h-106v140h106z
" />
    <glyph glyph-name="igrave" unicode="&#xec;" horiz-adv-x="236" 
d="M176 498v-498h-116v498h116zM111 580l-129 178h121l100 -178h-92z" />
    <glyph glyph-name="iacute" unicode="&#xed;" horiz-adv-x="236" 
d="M176 498v-498h-116v498h116zM33 580l100 178h121l-129 -178h-92z" />
    <glyph glyph-name="icircumflex" unicode="&#xee;" horiz-adv-x="236" 
d="M48 758h140l95 -178h-87l-78 116l-78 -116h-87zM176 498v-498h-116v498h116z" />
    <glyph glyph-name="idieresis" unicode="&#xef;" horiz-adv-x="236" 
d="M176 498v-498h-116v498h116zM89 740v-140h-94v140h94zM241 740v-140h-95v140h95z" />
    <glyph glyph-name="eth" unicode="&#xf0;" horiz-adv-x="606" 
d="M422 464q-21 75 -56 137l-85 -49l-36 60l83 48q-18 26 -46 60l99 58q11 -13 45 -61l86 50l36 -61l-84 -49q96 -167 96 -377q0 -144 -67 -219t-199 -75q-253 0 -253 257q0 131 56 194t174 63q67 0 151 -36zM160 243q0 -165 134 -165q75 0 110 50t35 151q0 35 -5 93
q-76 36 -144 36q-71 0 -100.5 -38.5t-29.5 -126.5z" />
    <glyph glyph-name="ntilde" unicode="&#xf1;" 
d="M504 337v-337h-116v332q2 145 -212 52v-384h-116v498h112v-31q102 45 167 45q165 0 165 -175zM264 632q-42 21 -62 21q-24 0 -40.5 -11.5t-34.5 -39.5l-41 65q51 71 120 71q43 0 98 -29q42 -21 62 -21q24 0 40.5 11.5t34.5 39.5l41 -65q-51 -71 -120 -71q-43 0 -98 29z
" />
    <glyph glyph-name="ograve" unicode="&#xf2;" horiz-adv-x="588" 
d="M428 249q0 171 -134 171t-134 -171t134 -171t134 171zM547 249q0 -263 -253 -263t-253 263t253 263t253 -263zM289 580l-129 178h121l100 -178h-92z" />
    <glyph glyph-name="oacute" unicode="&#xf3;" horiz-adv-x="588" 
d="M428 249q0 171 -134 171t-134 -171t134 -171t134 171zM547 249q0 -263 -253 -263t-253 263t253 263t253 -263zM222 580l100 178h121l-129 -178h-92z" />
    <glyph glyph-name="ocircumflex" unicode="&#xf4;" horiz-adv-x="588" 
d="M428 249q0 171 -134 171t-134 -171t134 -171t134 171zM547 249q0 -263 -253 -263t-253 263t253 263t253 -263zM224 758h140l95 -178h-87l-78 116l-78 -116h-87z" />
    <glyph glyph-name="otilde" unicode="&#xf5;" horiz-adv-x="588" 
d="M274 632q-42 21 -62 21q-24 0 -40.5 -11.5t-34.5 -39.5l-41 65q51 71 120 71q43 0 98 -29q42 -21 62 -21q24 0 40.5 11.5t34.5 39.5l41 -65q-51 -71 -120 -71q-43 0 -98 29zM428 249q0 171 -134 171t-134 -171t134 -171t134 171zM547 249q0 -263 -253 -263t-253 263
t253 263t253 -263z" />
    <glyph glyph-name="odieresis" unicode="&#xf6;" horiz-adv-x="588" 
d="M428 249q0 171 -134 171t-134 -171t134 -171t134 171zM547 249q0 -263 -253 -263t-253 263t253 263t253 -263zM223 740v-140h-106v140h106zM471 740v-140h-106v140h106z" />
    <glyph glyph-name="divide" unicode="&#xf7;" horiz-adv-x="618" 
d="M64 289v90h490v-90h-490zM371 590v-126h-124v126h124zM371 204v-126h-124v126h124z" />
    <glyph glyph-name="oslash" unicode="&#xf8;" horiz-adv-x="588" 
d="M294 420q-134 0 -134 -171q0 -71 23 -114l142 282q-15 3 -31 3zM294 78q134 0 134 171q0 70 -23 113l-142 -282q24 -2 31 -2zM219 -7l-29 -58h-108l47 94q-88 63 -88 220q0 263 253 263q37 0 75 -7l29 58h108l-48 -94q89 -62 89 -220q0 -263 -253 -263q-37 0 -75 7z" />
    <glyph glyph-name="ugrave" unicode="&#xf9;" 
d="M60 161v337h116v-332q-2 -145 212 -52v384h116v-498h-112v31q-102 -45 -167 -45q-165 0 -165 175zM279 580l-129 178h121l100 -178h-92z" />
    <glyph glyph-name="uacute" unicode="&#xfa;" 
d="M60 161v337h116v-332q-2 -145 212 -52v384h116v-498h-112v31q-102 -45 -167 -45q-165 0 -165 175zM196 580l100 178h121l-129 -178h-92z" />
    <glyph glyph-name="ucircumflex" unicode="&#xfb;" 
d="M60 161v337h116v-332q-2 -145 212 -52v384h116v-498h-112v31q-102 -45 -167 -45q-165 0 -165 175zM212 758h140l95 -178h-87l-78 116l-78 -116h-87z" />
    <glyph glyph-name="udieresis" unicode="&#xfc;" 
d="M60 161v337h116v-332q-2 -145 212 -52v384h116v-498h-112v31q-102 -45 -167 -45q-165 0 -165 175zM211 740v-140h-106v140h106zM459 740v-140h-106v140h106z" />
    <glyph glyph-name="yacute" unicode="&#xfd;" horiz-adv-x="550" 
d="M136 498l88 -268q21 -52 51 -148q51 141 53 148l88 268h125l-189 -533q-34 -96 -85 -137.5t-135 -41.5q-34 0 -67 6l8 95q23 -6 53 -6q48 0 75 23.5t46 82.5l7 22h-72l-173 489h127zM212 580l100 178h121l-129 -178h-92z" />
    <glyph glyph-name="thorn" unicode="&#xfe;" horiz-adv-x="577" 
d="M176 384v-270q76 -36 123 -36q63 0 90 40t27 131t-27 131t-90 40q-47 0 -123 -36zM333 512q104 0 153 -64t49 -199t-49 -199t-153 -64q-67 0 -157 43v-229h-116v940h116v-271q87 43 157 43z" />
    <glyph glyph-name="ydieresis" unicode="&#xff;" horiz-adv-x="550" 
d="M136 498l88 -268q21 -52 51 -148q51 141 53 148l88 268h125l-189 -533q-34 -96 -85 -137.5t-135 -41.5q-34 0 -67 6l8 95q23 -6 53 -6q48 0 75 23.5t46 82.5l7 22h-72l-173 489h127zM204 740v-140h-106v140h106zM452 740v-140h-106v140h106z" />
    <glyph glyph-name="dotlessi" unicode="&#x131;" horiz-adv-x="236" 
d="M176 498v-498h-116v498h116z" />
    <glyph glyph-name="Lslash" unicode="&#x141;" horiz-adv-x="547" 
d="M226 106h301v-106h-431v316l-77 -23v108l77 22v277h130v-239l163 47v-107l-163 -48v-247z" />
    <glyph glyph-name="lslash" unicode="&#x142;" horiz-adv-x="308" 
d="M96 740h116v-247l70 20v-99l-70 -20v-394h-116v360l-70 -20v99l70 20v281z" />
    <glyph glyph-name="OE" unicode="&#x152;" horiz-adv-x="1048" 
d="M670 106h333v-106h-463v20q-68 -34 -173 -34q-146 0 -231 75q-91 80 -91 289t91 289q85 75 231 75q105 0 173 -34v20h452v-106h-322v-188h279v-105h-279v-195zM540 154v392q-67 62 -173 62q-97 0 -142.5 -61.5t-45.5 -196.5t45.5 -196.5t142.5 -61.5q106 0 173 62z" />
    <glyph glyph-name="oe" unicode="&#x153;" horiz-adv-x="952" 
d="M428 249q0 171 -134 171t-134 -171t134 -171t134 171zM676 420q-111 0 -126 -113h243q-8 113 -117 113zM707 78q86 0 177 28l20 -92q-108 -28 -211 -28q-143 0 -206 69q-63 -69 -193 -69q-253 0 -253 263t253 263q130 0 193 -69q63 69 190 69q129 0 182 -69
q52 -67 52 -194v-31h-363q5 -73 40.5 -106.5t118.5 -33.5z" />
    <glyph glyph-name="Scaron" unicode="&#x160;" horiz-adv-x="604" 
d="M297 92q66 0 97 24t31 75q0 44 -24.5 69t-86.5 34l-37 5q-116 15 -167.5 65.5t-51.5 145.5q0 204 245 204q87 0 229 -30l-18 -119q-126 43 -208 43q-115 0 -115 -95q0 -44 22 -66t91 -33l37 -6q137 -23 180 -86q38 -52 38 -127q0 -209 -262 -209q-106 0 -256 36l20 125
q120 -55 236 -55zM135 916h90l81 -117l81 117h90l-99 -178h-144z" />
    <glyph glyph-name="scaron" unicode="&#x161;" horiz-adv-x="480" 
d="M234 -14q-83 0 -196 28l21 107q91 -44 175 -44q85 0 85 57q0 28 -17 42.5t-63 22.5l-25 4q-83 13 -120.5 51t-37.5 107q0 71 47 111t140 40q64 0 173 -24l-20 -102q-90 35 -151 35q-71 0 -71 -54q0 -29 16 -43.5t59 -21.5l25 -4q90 -15 127 -53t37 -107q0 -152 -204 -152
zM335 758h87l-95 -178h-140l-95 178h87l78 -116z" />
    <glyph glyph-name="Ydieresis" unicode="&#x178;" horiz-adv-x="696" 
d="M531 700h156l-274 -438v-262h-130v262l-274 438h156l183 -307zM268 897v-140h-106v140h106zM534 897v-140h-106v140h106z" />
    <glyph glyph-name="Zcaron" unicode="&#x17d;" horiz-adv-x="607" 
d="M199 106h366v-106h-523v106l353 488h-340v106h497v-106zM133 916h90l81 -117l81 117h90l-99 -178h-144z" />
    <glyph glyph-name="zcaron" unicode="&#x17e;" horiz-adv-x="501" 
d="M189 92h272v-92h-421v92l264 314h-255v92h404v-92zM329 758h87l-95 -178h-140l-95 178h87l78 -116z" />
    <glyph glyph-name="florin" unicode="&#x192;" horiz-adv-x="507" 
d="M417 393v-99h-163l-60 -354h-125l60 354h-91v99h108l7 44q20 123 79.5 180t168.5 57q42 0 86 -4l-14 -106q-41 11 -70 11q-60 0 -87 -33t-39 -109l-6 -40h146z" />
    <glyph glyph-name="circumflex" unicode="&#x2c6;" horiz-adv-x="500" 
d="M180 758h140l95 -178h-87l-78 116l-78 -116h-87z" />
    <glyph glyph-name="caron" unicode="&#x2c7;" horiz-adv-x="500" 
d="M328 758h87l-95 -178h-140l-95 178h87l78 -116z" />
    <glyph glyph-name="breve" unicode="&#x2d8;" horiz-adv-x="500" 
d="M362 744l68 -56q-56 -90 -180 -90t-180 90l68 56q38 -59 112 -59t112 59z" />
    <glyph glyph-name="dotaccent" unicode="&#x2d9;" horiz-adv-x="500" 
d="M308 740v-140h-116v140h116z" />
    <glyph glyph-name="ring" unicode="&#x2da;" horiz-adv-x="500" 
d="M250 780q118 0 118 -114t-118 -114t-118 114t118 114zM210 712q-12 -14 -12 -46t12 -46t40 -14t40 14t12 46t-12 46t-40 14t-40 -14z" />
    <glyph glyph-name="ogonek" unicode="&#x2db;" horiz-adv-x="500" 
d="M146 -136q0 44 38 90l46 56h80l-63 -88q-21 -30 -21 -54q0 -46 48 -46q33 0 72 14l9 -62q-46 -10 -91 -10q-58 0 -88 26t-30 74z" />
    <glyph glyph-name="tilde" unicode="&#x2dc;" horiz-adv-x="500" 
d="M230 632q-42 21 -62 21q-24 0 -40.5 -11.5t-34.5 -39.5l-41 65q51 71 120 71q43 0 98 -29q42 -21 62 -21q24 0 40.5 11.5t34.5 39.5l41 -65q-51 -71 -120 -71q-43 0 -98 29z" />
    <glyph glyph-name="hungarumlaut" unicode="&#x2dd;" horiz-adv-x="500" 
d="M42 580l100 178h116l-129 -178h-87zM242 580l100 178h116l-129 -178h-87z" />
    <glyph glyph-name="acutecomb" unicode="&#x301;" horiz-adv-x="0" 
d="M-401 580l100 178h121l-129 -178h-92z" />
    <glyph glyph-name="uni0394" unicode="&#x394;" horiz-adv-x="696" 
d="M348 582l-174 -476h348zM663 0h-630v106l225 594h180l225 -594v-106z" />
    <glyph glyph-name="uni0394" unicode="&#x2206;" horiz-adv-x="696" 
d="M348 582l-174 -476h348zM663 0h-630v106l225 594h180l225 -594v-106z" />
    <glyph glyph-name="uni03A9" unicode="&#x3a9;" horiz-adv-x="744" 
d="M189 411q0 -78 28 -144q29 -67 96 -161v-106h-239v106h111q-70 84 -100 160.5t-30 160.5q0 139 82 213t235 74t235 -74t82 -213q0 -84 -30 -160.5t-100 -160.5h111v-106h-239v106q64 90 95 161q29 69 29 144q0 197 -183 197t-183 -197z" />
    <glyph glyph-name="uni03A9" unicode="&#x2126;" horiz-adv-x="744" 
d="M189 411q0 -78 28 -144q29 -67 96 -161v-106h-239v106h111q-70 84 -100 160.5t-30 160.5q0 139 82 213t235 74t235 -74t82 -213q0 -84 -30 -160.5t-100 -160.5h111v-106h-239v106q64 90 95 161q29 69 29 144q0 197 -183 197t-183 -197z" />
    <glyph glyph-name="pi" unicode="&#x3c0;" horiz-adv-x="602" 
d="M565 406h-49v-406h-116v406h-198v-406h-116v406h-49v92h528v-92z" />
    <glyph glyph-name="afii10023" unicode="&#x401;" horiz-adv-x="582" 
d="M204 106h333v-106h-463v700h452v-106h-322v-188h279v-105h-279v-195zM220 897v-140h-106v140h106zM486 897v-140h-106v140h106z" />
    <glyph glyph-name="afii10051" unicode="&#x402;" horiz-adv-x="809" 
d="M354 291v-291h-130v594h-204v106h582v-106h-248v-199q74 13 128 13q144 0 212 -69t68 -212q0 -259 -229 -287l-6 106q101 20 101 179q0 82 -29 126q-31 51 -133 51q-37 0 -112 -11z" />
    <glyph glyph-name="afii10052" unicode="&#x403;" horiz-adv-x="532" 
d="M512 700v-106h-308v-594h-130v700h438zM305 916h128l-130 -178h-98z" />
    <glyph glyph-name="afii10053" unicode="&#x404;" horiz-adv-x="617" 
d="M366 -14q-144 0 -228 72q-93 82 -93 292t93 291q84 73 228 73q74 0 206 -24l-19 -119q-107 37 -177 37q-92 0 -139.5 -49.5t-55.5 -155.5h289v-106h-289q8 -106 55.5 -155.5t139.5 -49.5q72 0 177 36l19 -116q-127 -26 -206 -26z" />
    <glyph glyph-name="afii10054" unicode="&#x405;" horiz-adv-x="604" 
d="M297 92q66 0 97 24t31 75q0 44 -24.5 69t-86.5 34l-37 5q-116 15 -167.5 65.5t-51.5 145.5q0 204 245 204q87 0 229 -30l-18 -119q-126 43 -208 43q-115 0 -115 -95q0 -44 22 -66t91 -33l37 -6q137 -23 180 -86q38 -52 38 -127q0 -209 -262 -209q-106 0 -256 36l20 125
q120 -55 236 -55z" />
    <glyph glyph-name="afii10055" unicode="&#x406;" horiz-adv-x="278" 
d="M204 700v-700h-130v700h130z" />
    <glyph glyph-name="afii10056" unicode="&#x407;" horiz-adv-x="278" 
d="M97 897v-140h-102v140h102zM283 897v-140h-102v140h102zM204 700v-700h-130v700h130z" />
    <glyph glyph-name="afii10057" unicode="&#x408;" horiz-adv-x="454" 
d="M132 -14q-62 0 -115 10l15 112q45 -16 93 -16q71 0 101 33q31 32 31 128v447h130v-450q0 -135 -57 -200q-57 -64 -198 -64z" />
    <glyph glyph-name="afii10058" unicode="&#x409;" horiz-adv-x="1045" 
d="M724 330q-39 0 -102 -7v-220q57 -11 102 -11q153 0 153 119t-153 119zM492 16v578h-235v-99q0 -176 -22 -280q-23 -108 -62 -157q-40 -51 -107 -76l-57 95q36 17 56 37t38 61q38 83 38 322v203h481v-272q72 8 105 8q139 0 211.5 -57t72.5 -168t-72.5 -168t-211.5 -57
q-106 0 -235 30z" />
    <glyph glyph-name="afii10059" unicode="&#x40a;" horiz-adv-x="1049" 
d="M728 330q-39 0 -102 -7v-220q57 -11 102 -11q153 0 153 119t-153 119zM496 16v286h-292v-302h-130v700h130v-292h292v292h130v-272q72 8 105 8q139 0 211.5 -57t72.5 -168t-72.5 -168t-211.5 -57q-106 0 -235 30z" />
    <glyph glyph-name="afii10060" unicode="&#x40b;" horiz-adv-x="799" 
d="M602 594h-248v-199q74 13 128 13q140 0 205 -60.5t65 -196.5v-151h-130v148q0 86 -34 120t-122 34q-37 0 -112 -11v-291h-130v594h-204v106h582v-106z" />
    <glyph glyph-name="afii10061" unicode="&#x40c;" horiz-adv-x="675" 
d="M513 -9l-284 364l248 345h152l-248 -334l281 -350zM74 700h130v-700h-130v700zM352 916h128l-130 -178h-98z" />
    <glyph glyph-name="afii10062" unicode="&#x40e;" horiz-adv-x="659" 
d="M517 700h141l-229 -533q-46 -107 -99 -145q-52 -36 -135 -36q-41 0 -70 7l8 107q29 -8 52 -8q44 0 69.5 21t49.5 80l3 7h-84l-222 500h146l188 -433zM458 902l73 -61q-61 -97 -194 -97t-194 97l73 61q39 -64 121 -64t121 64z" />
    <glyph glyph-name="afii10145" unicode="&#x40f;" horiz-adv-x="700" 
d="M412 0l4 -150h-132l4 150h-214v700h130v-594h292v594h130v-700h-214z" />
    <glyph glyph-name="afii10017" unicode="&#x410;" horiz-adv-x="696" 
d="M545 0l-68 204h-258l-68 -204h-140l247 700h180l247 -700h-140zM348 587l-94 -277h188z" />
    <glyph glyph-name="afii10018" unicode="&#x411;" horiz-adv-x="666" 
d="M204 308v-206q63 -10 131 -10q84 0 119.5 28t35.5 85t-35.5 85t-119.5 28q-68 0 -131 -10zM541 594h-337v-178q77 8 136 8q144 0 214 -54t70 -165t-70 -165t-214 -54q-126 0 -266 30v684h467v-106z" />
    <glyph glyph-name="afii10019" unicode="&#x412;" horiz-adv-x="666" 
d="M204 598v-185h114q74 0 104 25t30 73q0 97 -134 97q-55 0 -114 -10zM490 199q0 54 -35 81t-118 27h-133v-205q66 -10 133 -10q153 0 153 107zM582 526q0 -113 -85 -155q127 -45 127 -181q0 -204 -283 -204q-127 0 -267 30v668q150 30 247 30q138 0 199.5 -46t61.5 -142z
" />
    <glyph glyph-name="afii10020" unicode="&#x413;" horiz-adv-x="532" 
d="M512 700v-106h-308v-594h-130v700h438z" />
    <glyph glyph-name="afii10021" unicode="&#x414;" horiz-adv-x="745" 
d="M26 -130v236h47q44 50 70 158.5t26 267.5v168h470v-594h76v-236h-115l-10 130h-439l-10 -130h-115zM509 594h-221v-64q0 -147 -24 -260t-55 -164h300v488z" />
    <glyph glyph-name="afii10022" unicode="&#x415;" horiz-adv-x="582" 
d="M204 106h333v-106h-463v700h452v-106h-322v-188h279v-105h-279v-195z" />
    <glyph glyph-name="afii10024" unicode="&#x416;" horiz-adv-x="1002" 
d="M565 0h-128v700h128v-700zM850 -9l-261 364l217 345h145l-222 -334l260 -348zM51 700h145l217 -345l-261 -364l-139 27l260 348z" />
    <glyph glyph-name="afii10025" unicode="&#x417;" horiz-adv-x="603" 
d="M561 192q0 -47 -12.5 -82t-43.5 -64.5t-89 -44.5t-143 -15q-115 0 -240 30l18 114q120 -38 221 -38q155 0 155 108q0 107 -159 107q-64 0 -113 -3v111q74 -3 113 -3q72 0 102.5 23.5t30.5 73.5q0 99 -128 99q-77 0 -198 -33l-19 114q131 25 217 25q134 0 195 -47t61 -142
q0 -111 -85 -157q117 -44 117 -176z" />
    <glyph glyph-name="afii10026" unicode="&#x418;" horiz-adv-x="708" 
d="M634 700v-700h-130v387q0 54 3 123q-38 -70 -58 -104l-240 -406h-135v700h130v-387q0 -54 -3 -123q38 70 58 104l240 406h135z" />
    <glyph glyph-name="afii10027" unicode="&#x419;" horiz-adv-x="708" 
d="M634 700v-700h-130v387q0 54 3 123q-38 -70 -58 -104l-240 -406h-135v700h130v-387q0 -54 -3 -123q38 70 58 104l240 406h135zM475 902l73 -61q-61 -97 -194 -97t-194 97l73 61q39 -64 121 -64t121 64z" />
    <glyph glyph-name="afii10028" unicode="&#x41a;" horiz-adv-x="675" 
d="M513 -9l-284 364l248 345h152l-248 -334l281 -350zM74 700h130v-700h-130v700z" />
    <glyph glyph-name="afii10029" unicode="&#x41b;" horiz-adv-x="696" 
d="M622 700v-700h-130v594h-235v-99q0 -176 -22 -280q-23 -108 -62 -157q-40 -51 -107 -76l-57 95q36 17 56 37t38 61q38 83 38 322v203h481z" />
    <glyph glyph-name="afii10030" unicode="&#x41c;" horiz-adv-x="920" 
d="M427 286l33 -104l33 104l154 414h169l48 -700h-129l-21 392q-3 51 -3 145q-32 -102 -47 -141l-147 -396h-114l-147 396q-15 39 -47 141q0 -94 -3 -145l-21 -392h-129l48 700h169z" />
    <glyph glyph-name="afii10031" unicode="&#x41d;" horiz-adv-x="700" 
d="M626 700v-700h-130v302h-292v-302h-130v700h130v-292h292v292h130z" />
    <glyph glyph-name="afii10032" unicode="&#x41e;" horiz-adv-x="734" 
d="M225 547q-46 -61 -46 -197t46 -197t142 -61t142 61t46 197t-46 197t-142 61t-142 -61zM666 526q23 -74 23 -176t-23 -177q-42 -129 -169 -170q-57 -17 -130 -17t-130 17q-127 41 -169 170q-23 75 -23 177t23 176q42 131 169 170q56 18 130 18q75 0 130 -18
q127 -39 169 -170z" />
    <glyph glyph-name="afii10033" unicode="&#x41f;" horiz-adv-x="700" 
d="M626 700v-700h-130v594h-292v-594h-130v700h552z" />
    <glyph glyph-name="afii10034" unicode="&#x420;" horiz-adv-x="617" 
d="M204 0h-130v684q140 30 233 30q276 0 276 -231t-276 -231q-43 0 -103 7v-259zM204 599v-232q58 -9 101 -9q45 0 75.5 11t44.5 30.5t19.5 39t5.5 44.5t-5.5 44.5t-19.5 39t-44.5 30.5t-75.5 11q-43 0 -101 -9z" />
    <glyph glyph-name="afii10035" unicode="&#x421;" horiz-adv-x="617" 
d="M366 714q74 0 206 -24l-19 -119q-107 37 -177 37q-102 0 -149.5 -61.5t-47.5 -196.5t47.5 -196.5t149.5 -61.5q72 0 177 36l19 -116q-127 -26 -206 -26q-144 0 -228 72q-93 82 -93 292t93 291q84 73 228 73z" />
    <glyph glyph-name="afii10036" unicode="&#x422;" horiz-adv-x="622" 
d="M602 700v-106h-226v-594h-130v594h-226v106h582z" />
    <glyph glyph-name="afii10037" unicode="&#x423;" horiz-adv-x="659" 
d="M517 700h141l-229 -533q-46 -107 -99 -145q-52 -36 -135 -36q-41 0 -70 7l8 107q29 -8 52 -8q44 0 69.5 21t49.5 80l3 7h-84l-222 500h146l188 -433z" />
    <glyph glyph-name="afii10038" unicode="&#x424;" horiz-adv-x="894" 
d="M386 134v432q-108 0 -157.5 -53.5t-49.5 -162.5t49.5 -162.5t157.5 -53.5zM512 28v-88h-130v88q-337 0 -337 322t337 322v88h130v-88q337 0 337 -322t-337 -322zM508 566v-432q108 0 157.5 53.5t49.5 162.5t-49.5 162.5t-157.5 53.5z" />
    <glyph glyph-name="afii10039" unicode="&#x425;" horiz-adv-x="686" 
d="M505 0l-162 264l-161 -264h-157l229 355l-220 345h157l152 -254l152 254h157l-220 -345l229 -355h-156z" />
    <glyph glyph-name="afii10040" unicode="&#x426;" horiz-adv-x="727" 
d="M702 106v-236h-115l-10 130h-503v700h130v-594h292v594h130v-594h76z" />
    <glyph glyph-name="afii10041" unicode="&#x427;" horiz-adv-x="649" 
d="M445 373v327h130v-700h-130v269q-74 -13 -128 -13q-140 0 -205 60.5t-65 196.5v187h130v-184q0 -86 34 -120t122 -34q37 0 112 11z" />
    <glyph glyph-name="afii10042" unicode="&#x428;" horiz-adv-x="966" 
d="M204 106h215v594h128v-594h215v594h130v-700h-818v700h130v-594z" />
    <glyph glyph-name="afii10043" unicode="&#x429;" horiz-adv-x="993" 
d="M853 -130l-10 130h-769v700h130v-594h215v594h128v-594h215v594h130v-594h76v-236h-115z" />
    <glyph glyph-name="afii10044" unicode="&#x42a;" horiz-adv-x="750" 
d="M429 330q-39 0 -102 -7v-220q57 -11 102 -11q153 0 153 119t-153 119zM197 16v578h-169v106h299v-272q72 8 105 8q139 0 211.5 -57t72.5 -168t-72.5 -168t-211.5 -57q-106 0 -235 30z" />
    <glyph glyph-name="afii10045" unicode="&#x42b;" horiz-adv-x="894" 
d="M820 0h-130v700h130v-700zM306 330q-39 0 -102 -7v-220q57 -11 102 -11q153 0 153 119t-153 119zM74 16v684h130v-272q72 8 105 8q139 0 211.5 -57t72.5 -168t-72.5 -168t-211.5 -57q-106 0 -235 30z" />
    <glyph glyph-name="afii10046" unicode="&#x42c;" horiz-adv-x="627" 
d="M306 330q-39 0 -102 -7v-220q57 -11 102 -11q153 0 153 119t-153 119zM74 16v684h130v-272q72 8 105 8q139 0 211.5 -57t72.5 -168t-72.5 -168t-211.5 -57q-106 0 -235 30z" />
    <glyph glyph-name="afii10047" unicode="&#x42d;" horiz-adv-x="617" 
d="M241 92q92 0 139.5 49.5t55.5 155.5h-289v106h289q-8 106 -55.5 155.5t-139.5 49.5q-70 0 -177 -37l-19 119q132 24 206 24q144 0 227 -73q94 -80 94 -291q0 -210 -94 -292q-83 -72 -227 -72q-79 0 -206 26l19 116q105 -36 177 -36z" />
    <glyph glyph-name="afii10048" unicode="&#x42e;" horiz-adv-x="1033" 
d="M537 547q-45 -61 -45 -197q0 -135 45 -197q45 -61 136 -61t136 61q45 62 45 197q0 136 -45 197t-136 61t-136 -61zM673 -14q-141 0 -223 71q-80 71 -91 241h-155v-298h-130v700h130v-296h155q11 168 92 239t222 71q152 0 233 -83q82 -82 82 -281q0 -200 -82 -282
q-81 -82 -233 -82z" />
    <glyph glyph-name="afii10049" unicode="&#x42f;" horiz-adv-x="633" 
d="M326 380h103v219q-59 9 -103 9q-90 0 -120 -40q-23 -32 -23 -74q0 -114 143 -114zM164 -5l-138 20l155 287q-131 39 -131 192q0 220 275 220q96 0 234 -30v-684h-130v274h-122z" />
    <glyph glyph-name="afii10065" unicode="&#x430;" horiz-adv-x="517" 
d="M36 142q0 161 198 161q29 0 107 -8v33q0 49 -22 70.5t-73 21.5q-57 0 -158 -34l-17 98q115 28 184 28q108 0 155 -46t47 -136v-330h-112v26q-80 -40 -150 -40q-79 0 -119 41t-40 115zM249 213q-97 0 -97 -70q0 -67 85 -67q44 0 104 28v101q-66 8 -92 8z" />
    <glyph glyph-name="afii10066" unicode="&#x431;" horiz-adv-x="606" 
d="M168 458q90 42 162 42q235 0 235 -257t-253 -257q-140 0 -203 80t-63 254q0 141 31 225q32 86 90 125q59 39 154 54q137 20 191 34l15 -99q-39 -10 -187 -33q-88 -13 -128 -52t-44 -116zM446 243q0 87 -29.5 126t-100.5 39q-62 0 -149 -36q-2 -54 -2 -92q0 -202 147 -202
q134 0 134 165z" />
    <glyph glyph-name="afii10067" unicode="&#x432;" horiz-adv-x="560" 
d="M519 135q0 -69 -48 -109q-47 -40 -180 -40q-100 0 -231 31v468q132 27 217 27q211 0 211 -133q0 -82 -70 -112q101 -32 101 -132zM375 361q0 59 -97 59q-41 0 -102 -10v-109h100q53 0 76 14.5t23 45.5zM400 145q0 67 -112 67h-112v-119q64 -14 112 -14q112 0 112 66z" />
    <glyph glyph-name="afii10068" unicode="&#x433;" horiz-adv-x="402" 
d="M60 498h331v-92h-215v-406h-116v498z" />
    <glyph glyph-name="afii10069" unicode="&#x434;" horiz-adv-x="601" 
d="M481 -140l-9 140h-353l-9 -140h-98v232h35q90 76 90 295v111h379v-406h63v-232h-98zM400 406h-161v-21q0 -201 -71 -293h232v314z" />
    <glyph glyph-name="afii10070" unicode="&#x435;" horiz-adv-x="565" 
d="M320 78q86 0 177 28l20 -92q-108 -28 -211 -28q-137 0 -201 64t-64 199q0 263 249 263q130 0 182 -69q52 -67 52 -194v-31h-363q5 -73 40.5 -106.5t118.5 -33.5zM289 420q-111 0 -126 -113h243q-8 113 -117 113z" />
    <glyph glyph-name="afii10072" unicode="&#x436;" horiz-adv-x="792" 
d="M453 0h-114v498h114v-498zM666 -8l-190 266l157 240h129l-161 -229l184 -256zM30 498h129l157 -240l-190 -266l-119 21l184 256z" />
    <glyph glyph-name="afii10073" unicode="&#x437;" horiz-adv-x="497" 
d="M456 136q0 -69 -56 -109.5t-166 -40.5q-90 0 -201 28l20 103q86 -39 181 -39q103 0 103 66q0 34 -25.5 50.5t-84.5 16.5q-51 0 -103 -3v96q49 -3 103 -3q48 0 68.5 14.5t20.5 45.5q0 59 -83 59q-71 0 -158 -31l-19 100q115 23 178 23q101 0 149 -37.5t48 -101.5
q0 -79 -64 -110q89 -35 89 -127z" />
    <glyph glyph-name="afii10074" unicode="&#x438;" horiz-adv-x="568" 
d="M508 498v-498h-116v332l-216 -332h-116v498h116v-332l216 332h116z" />
    <glyph glyph-name="afii10075" unicode="&#x439;" horiz-adv-x="568" 
d="M508 498v-498h-116v332l-216 -332h-116v498h116v-332l216 332h116zM396 744l68 -56q-56 -90 -180 -90t-180 90l68 56q38 -59 112 -59t112 59z" />
    <glyph glyph-name="afii10076" unicode="&#x43a;" horiz-adv-x="527" 
d="M60 498h116v-498h-116v498zM500 498l-171 -228l191 -259l-130 -19l-191 268l166 238h135z" />
    <glyph glyph-name="afii10077" unicode="&#x43b;" horiz-adv-x="547" 
d="M487 498v-498h-116v406h-156v-34q0 -175 -37 -261q-36 -86 -117 -127l-53 82q59 36 82 99q22 63 22 209v124h375z" />
    <glyph glyph-name="afii10078" unicode="&#x43c;" horiz-adv-x="724" 
d="M362 140q20 56 46 122l94 236h143l33 -498h-112l-13 231q-2 46 -2 70q0 7 0.5 30t0.5 28q-20 -61 -46 -123l-94 -236h-100l-94 236q-26 62 -46 123q0 -5 0.5 -28t0.5 -30q0 -24 -2 -70l-13 -231h-112l33 498h143l94 -236q26 -66 46 -122z" />
    <glyph glyph-name="afii10079" unicode="&#x43d;" horiz-adv-x="559" 
d="M499 498v-498h-116v210h-207v-210h-116v498h116v-196h207v196h116z" />
    <glyph glyph-name="afii10080" unicode="&#x43e;" horiz-adv-x="588" 
d="M428 249q0 171 -134 171t-134 -171t134 -171t134 171zM547 249q0 -263 -253 -263t-253 263t253 263t253 -263z" />
    <glyph glyph-name="afii10081" unicode="&#x43f;" horiz-adv-x="559" 
d="M499 498v-498h-116v406h-207v-406h-116v498h439z" />
    <glyph glyph-name="afii10082" unicode="&#x440;" horiz-adv-x="577" 
d="M176 29v-229h-116v698h112v-31q91 45 161 45q104 0 153 -64t49 -199t-49 -199t-153 -64q-67 0 -157 43zM176 384v-270q76 -36 123 -36q63 0 90 40t27 131t-27 131t-90 40q-47 0 -123 -36z" />
    <glyph glyph-name="afii10083" unicode="&#x441;" horiz-adv-x="491" 
d="M304 78q52 0 127 28l19 -100q-98 -20 -156 -20q-129 0 -191 64t-62 199t62 199t191 64q58 0 156 -20l-19 -100q-75 28 -127 28q-77 0 -110.5 -41.5t-33.5 -129.5t33.5 -129.5t110.5 -41.5z" />
    <glyph glyph-name="afii10084" unicode="&#x442;" horiz-adv-x="470" 
d="M11 406v92h448v-92h-166v-406h-116v406h-166z" />
    <glyph glyph-name="afii10085" unicode="&#x443;" horiz-adv-x="550" 
d="M136 498l88 -268q21 -52 51 -148q51 141 53 148l88 268h125l-189 -533q-34 -96 -85 -137.5t-135 -41.5q-34 0 -67 6l8 95q23 -6 53 -6q48 0 75 23.5t46 82.5l7 22h-72l-173 489h127z" />
    <glyph glyph-name="afii10086" unicode="&#x444;" horiz-adv-x="776" 
d="M332 78v342q-101 0 -137 -39q-35 -40 -35 -132t35 -132q36 -39 137 -39zM446 -14v-186h-116v186q-154 0 -222 59q-67 60 -67 204q0 145 67 203q68 60 222 60v228h116v-228q154 0 221 -60q68 -59 68 -203t-68 -204q-68 -59 -221 -59zM444 420v-342q102 0 136 39
q36 39 36 132t-36 132q-35 39 -136 39z" />
    <glyph glyph-name="afii10087" unicode="&#x445;" horiz-adv-x="533" 
d="M380 0l-114 174l-113 -174h-142l173 253l-166 245h142l106 -167l107 167h142l-167 -245l174 -253h-142z" />
    <glyph glyph-name="afii10088" unicode="&#x446;" horiz-adv-x="581" 
d="M60 0v498h116v-406h204v406h116v-406h63v-232h-98l-9 140h-392z" />
    <glyph glyph-name="afii10089" unicode="&#x447;" horiz-adv-x="527" 
d="M467 498v-498h-116v176q-55 -9 -104 -9q-101 0 -150 47t-49 148v136h116v-131q0 -59 22.5 -83.5t82.5 -24.5q43 0 82 7v232h116z" />
    <glyph glyph-name="afii10090" unicode="&#x448;" horiz-adv-x="804" 
d="M176 498v-406h168v406h116v-406h168v406h116v-498h-684v498h116z" />
    <glyph glyph-name="afii10091" unicode="&#x449;" horiz-adv-x="829" 
d="M807 -140h-98l-9 140h-640v498h116v-406h168v406h116v-406h168v406h116v-406h63v-232z" />
    <glyph glyph-name="afii10092" unicode="&#x44a;" horiz-adv-x="625" 
d="M284 245v-158q52 -9 88 -9q104 0 104 88t-104 88q-36 0 -88 -9zM168 15v391h-139v92h255v-159q56 7 91 7q220 0 220 -180t-220 -180q-85 0 -207 29z" />
    <glyph glyph-name="afii10093" unicode="&#x44b;" horiz-adv-x="735" 
d="M176 245v-158q53 -9 88 -9q104 0 104 88t-104 88q-36 0 -88 -9zM60 498h116v-159q55 7 91 7q220 0 220 -180t-220 -180q-85 0 -207 29v483zM675 498v-498h-116v498h116z" />
    <glyph glyph-name="afii10094" unicode="&#x44c;" horiz-adv-x="517" 
d="M176 245v-158q53 -9 88 -9q104 0 104 88t-104 88q-36 0 -88 -9zM60 498h116v-159q55 7 91 7q220 0 220 -180t-220 -180q-85 0 -207 29v483z" />
    <glyph glyph-name="afii10095" unicode="&#x44d;" horiz-adv-x="491" 
d="M105 204v91h224q-8 64 -42 94.5t-100 30.5q-52 0 -127 -28l-19 100q98 20 156 20q129 0 191 -64t62 -199t-62 -199t-191 -64q-58 0 -156 20l19 100q75 -28 127 -28q67 0 100.5 30.5t41.5 95.5h-224z" />
    <glyph glyph-name="afii10096" unicode="&#x44e;" horiz-adv-x="808" 
d="M648 249q0 171 -130 171t-130 -171t130 -171t130 171zM176 498v-203h95q21 217 247 217q249 0 249 -263t-249 -263q-227 0 -247 218h-95v-204h-116v498h116z" />
    <glyph glyph-name="afii10097" unicode="&#x44f;" horiz-adv-x="524" 
d="M464 0h-116v186h-86l-109 -193l-125 18l116 189q-100 37 -100 148q0 77 52.5 120.5t157.5 43.5q80 0 210 -24v-488zM261 278h87v132q-47 10 -87 10q-98 0 -98 -71t98 -71z" />
    <glyph glyph-name="afii10071" unicode="&#x451;" horiz-adv-x="565" 
d="M320 78q86 0 177 28l20 -92q-108 -28 -211 -28q-137 0 -201 64t-64 199q0 263 249 263q130 0 182 -69q52 -67 52 -194v-31h-363q5 -73 40.5 -106.5t118.5 -33.5zM289 420q-111 0 -126 -113h243q-8 113 -117 113zM222 740v-140h-106v140h106zM470 740v-140h-106v140h106z
" />
    <glyph glyph-name="afii10099" unicode="&#x452;" horiz-adv-x="597" 
d="M421 78v227q2 145 -212 52v-357h-116v565h-65v84h65v91h116v-91h169v-84h-169v-123q99 43 163 43q165 0 165 -175v-234q-3 -161 -52 -221.5t-169 -68.5l-10 92q69 6 92 48q23 43 23 152z" />
    <glyph glyph-name="afii10100" unicode="&#x453;" horiz-adv-x="402" 
d="M60 498h331v-92h-215v-406h-116v498zM150 580l100 178h121l-129 -178h-92z" />
    <glyph glyph-name="afii10101" unicode="&#x454;" horiz-adv-x="491" 
d="M162 295h224v-91h-224q8 -65 41.5 -95.5t100.5 -30.5q52 0 127 28l19 -100q-98 -20 -156 -20q-129 0 -191 64t-62 199t62 199t191 64q58 0 156 -20l-19 -100q-75 28 -127 28q-66 0 -100 -30.5t-42 -94.5z" />
    <glyph glyph-name="afii10102" unicode="&#x455;" horiz-adv-x="480" 
d="M234 -14q-83 0 -196 28l21 107q91 -44 175 -44q85 0 85 57q0 28 -17 42.5t-63 22.5l-25 4q-83 13 -120.5 51t-37.5 107q0 71 47 111t140 40q64 0 173 -24l-20 -102q-90 35 -151 35q-71 0 -71 -54q0 -29 16 -43.5t59 -21.5l25 -4q90 -15 127 -53t37 -107q0 -152 -204 -152
z" />
    <glyph glyph-name="afii10103" unicode="&#x456;" horiz-adv-x="236" 
d="M176 498v-498h-116v498h116zM176 740v-140h-116v140h116z" />
    <glyph glyph-name="afii10104" unicode="&#x457;" horiz-adv-x="236" 
d="M176 498v-498h-116v498h116zM89 740v-140h-94v140h94zM241 740v-140h-95v140h95z" />
    <glyph glyph-name="afii10105" unicode="&#x458;" horiz-adv-x="238" 
d="M62 498h116v-487q0 -110 -51 -166.5t-160 -58.5l-12 92q60 3 83.5 35.5t23.5 99.5v485zM178 740v-140h-116v140h116z" />
    <glyph glyph-name="afii10106" unicode="&#x459;" horiz-adv-x="828" 
d="M487 245v-158q53 -9 88 -9q104 0 104 88t-104 88q-35 0 -88 -9zM371 406h-156v-34q0 -175 -37 -261q-36 -86 -117 -127l-53 82q59 36 82 99q22 63 22 209v124h375v-159q56 7 91 7q220 0 220 -180t-220 -180q-85 0 -207 29v391z" />
    <glyph glyph-name="afii10107" unicode="&#x45a;" horiz-adv-x="840" 
d="M499 245v-158q53 -9 88 -9q104 0 104 88t-104 88q-35 0 -88 -9zM383 15v195h-207v-210h-116v498h116v-196h207v196h116v-159q55 7 91 7q220 0 220 -180t-220 -180q-85 0 -207 29z" />
    <glyph glyph-name="afii10108" unicode="&#x45b;" horiz-adv-x="597" 
d="M378 565h-169v-123q99 43 163 43q165 0 165 -175v-310h-116v305q2 145 -212 52v-357h-116v565h-65v84h65v91h116v-91h169v-84z" />
    <glyph glyph-name="afii10109" unicode="&#x45c;" horiz-adv-x="527" 
d="M60 498h116v-498h-116v498zM500 498l-171 -228l191 -259l-130 -19l-191 268l166 238h135zM191 580l100 178h121l-129 -178h-92z" />
    <glyph glyph-name="afii10110" unicode="&#x45e;" horiz-adv-x="550" 
d="M136 498l88 -268q21 -52 51 -148q51 141 53 148l88 268h125l-189 -533q-34 -96 -85 -137.5t-135 -41.5q-34 0 -67 6l8 95q23 -6 53 -6q48 0 75 23.5t46 82.5l7 22h-72l-173 489h127zM387 744l68 -56q-55 -90 -180 -90t-180 90l68 56q38 -59 112 -59t112 59z" />
    <glyph glyph-name="afii10193" unicode="&#x45f;" horiz-adv-x="559" 
d="M499 498v-498h-157v-180h-115v180h-167v498h116v-406h207v406h116z" />
    <glyph glyph-name="afii10050" unicode="&#x490;" horiz-adv-x="532" 
d="M512 810v-216h-308v-594h-130v700h333l7 110h98z" />
    <glyph glyph-name="afii10098" unicode="&#x491;" horiz-adv-x="402" 
d="M303 615h88v-209h-215v-406h-116v498h236z" />
    <glyph glyph-name="uni1E9E" unicode="&#x1e9e;" horiz-adv-x="643" 
d="M559 527l-141 -127q98 -15 139 -65t41 -137q0 -104 -61 -156q-59 -52 -211 -52q-1 0 -8 0.5t-21.5 1t-30.5 0.5v106q38 -2 54 -2q79 0 111.5 25t32.5 81t-33 81t-111 25h-54v87l159 144q-18 69 -110 69q-64 0 -91 -32t-27 -103v-473h-130v474q0 126 61.5 183t187.5 57
q122 0 179 -46t64 -141z" />
    <glyph glyph-name="uni2010" unicode="&#x2010;" horiz-adv-x="445" 
d="M371 312v-100h-297v100h297z" />
    <glyph glyph-name="uni2011" unicode="&#x2011;" horiz-adv-x="445" 
d="M371 312v-100h-297v100h297z" />
    <glyph glyph-name="figuredash" unicode="&#x2012;" horiz-adv-x="717" 
d="M643 306v-86h-569v86h569z" />
    <glyph glyph-name="endash" unicode="&#x2013;" horiz-adv-x="717" 
d="M643 306v-86h-569v86h569z" />
    <glyph glyph-name="emdash" unicode="&#x2014;" horiz-adv-x="923" 
d="M849 306v-86h-775v86h775z" />
    <glyph glyph-name="quoteleft" unicode="&#x2018;" horiz-adv-x="172" 
d="M153 700l-10 -259h-124l44 259h90z" />
    <glyph glyph-name="quoteright" unicode="&#x2019;" horiz-adv-x="172" 
d="M19 441l10 259h124l-44 -259h-90z" />
    <glyph glyph-name="quotesinglbase" unicode="&#x201a;" horiz-adv-x="172" 
d="M19 -140l10 259h124l-44 -259h-90z" />
    <glyph glyph-name="quotedblleft" unicode="&#x201c;" horiz-adv-x="347" 
d="M328 700l-10 -259h-124l44 259h90zM153 700l-10 -259h-124l44 259h90z" />
    <glyph glyph-name="quotedblright" unicode="&#x201d;" horiz-adv-x="347" 
d="M19 441l10 259h124l-44 -259h-90zM194 441l10 259h124l-44 -259h-90z" />
    <glyph glyph-name="quotedblbase" unicode="&#x201e;" horiz-adv-x="347" 
d="M19 -140l10 259h124l-44 -259h-90zM194 -140l10 259h124l-44 -259h-90z" />
    <glyph glyph-name="dagger" unicode="&#x2020;" horiz-adv-x="540" 
d="M485 463v-92h-157v-521h-116v521h-157v92h157v237h116v-237h157z" />
    <glyph glyph-name="daggerdbl" unicode="&#x2021;" horiz-adv-x="540" 
d="M328 371v-192h157v-92h-157v-237h-116v237h-157v92h157v192h-157v92h157v237h116v-237h157v-92h-157z" />
    <glyph glyph-name="bullet" unicode="&#x2022;" horiz-adv-x="550" 
d="M377 359q35 -29 35 -97t-35 -97t-102 -29q-68 0 -103 29q-34 28 -34 97t34 97q35 29 103 29q67 0 102 -29z" />
    <glyph glyph-name="ellipsis" unicode="&#x2026;" horiz-adv-x="834" 
d="M201 126v-126h-124v126h124zM479 126v-126h-124v126h124zM757 126v-126h-124v126h124z" />
    <glyph glyph-name="perthousand" unicode="&#x2030;" horiz-adv-x="1348" 
d="M603 660h92l-361 -660h-92zM229 674q174 0 174 -189t-174 -189t-174 189t174 189zM292 395q21 29 21 90q0 62 -21 89q-21 28 -63 28t-63 -28q-21 -27 -21 -89q0 -61 21 -90q21 -27 63 -27t63 27zM708 -14q-174 0 -174 189t174 189t174 -189t-174 -189zM645 264
q-21 -27 -21 -89q0 -61 21 -90q21 -27 63 -27t63 27q21 29 21 90q0 62 -21 89q-21 28 -63 28t-63 -28zM1119 -14q-174 0 -174 189t174 189t174 -189t-174 -189zM1056 264q-21 -27 -21 -89q0 -61 21 -90q21 -27 63 -27t63 27q21 29 21 90q0 62 -21 89q-21 28 -63 28t-63 -28z
" />
    <glyph glyph-name="guilsinglleft" unicode="&#x2039;" horiz-adv-x="282" 
d="M154 457h108l-134 -195l134 -195h-108l-134 195z" />
    <glyph glyph-name="guilsinglright" unicode="&#x203a;" horiz-adv-x="282" 
d="M20 67l134 195l-134 195h108l134 -195l-134 -195h-108z" />
    <glyph glyph-name="fraction" unicode="&#x2044;" horiz-adv-x="389" 
d="M24 -40l230 740h111l-230 -740h-111z" />
    <glyph glyph-name="Euro" unicode="&#x20ac;" horiz-adv-x="704" 
d="M459 86q68 0 168 35l18 -112q-135 -23 -195 -23q-254 0 -295 231h-111l15 85h87v58h-101l14 85h96q23 120 96.5 174.5t198.5 54.5q62 0 195 -23l-18 -112q-100 35 -168 35q-141 0 -173 -129h258l-14 -85h-257v-58h248l-12 -85h-225q19 -66 58.5 -98.5t116.5 -32.5z" />
    <glyph glyph-name="uni20B4" unicode="&#x20b4;" horiz-adv-x="726" 
d="M666 445v-85h-606v85h409q6 18 6 39q0 90 -110 90q-78 0 -197 -40l-17 110q134 30 217 30q232 0 232 -193q0 -19 -4 -36h70zM60 217v85h606v-85h-408q-6 -23 -6 -38q0 -93 122 -93q106 0 224 51l18 -115q-139 -36 -242 -36q-248 0 -248 198q0 15 3 33h-69z" />
    <glyph glyph-name="uni20B6" unicode="&#x20b6;" horiz-adv-x="655" 
d="M263 565v-221h97q136 0 136 114q0 116 -136 116q-48 0 -97 -9zM362 244h-99v-58h176v-85h-176v-101h-123v101h-96v85h96v58h-96v100h96v301q148 29 222 29q259 0 259 -216q0 -214 -259 -214z" />
    <glyph glyph-name="uni20B6" unicode="&#x20cf;" horiz-adv-x="655" 
d="M263 565v-221h97q136 0 136 114q0 116 -136 116q-48 0 -97 -9zM362 244h-99v-58h176v-85h-176v-101h-123v101h-96v85h96v58h-96v100h96v301q148 29 222 29q259 0 259 -216q0 -214 -259 -214z" />
    <glyph glyph-name="uni20B6" unicode="&#x20ce;" horiz-adv-x="655" 
d="M263 565v-221h97q136 0 136 114q0 116 -136 116q-48 0 -97 -9zM362 244h-99v-58h176v-85h-176v-101h-123v101h-96v85h96v58h-96v100h96v301q148 29 222 29q259 0 259 -216q0 -214 -259 -214z" />
    <glyph glyph-name="uni20B6" unicode="&#x20cd;" horiz-adv-x="655" 
d="M263 565v-221h97q136 0 136 114q0 116 -136 116q-48 0 -97 -9zM362 244h-99v-58h176v-85h-176v-101h-123v101h-96v85h96v58h-96v100h96v301q148 29 222 29q259 0 259 -216q0 -214 -259 -214z" />
    <glyph glyph-name="uni20B6" unicode="&#x20cc;" horiz-adv-x="655" 
d="M263 565v-221h97q136 0 136 114q0 116 -136 116q-48 0 -97 -9zM362 244h-99v-58h176v-85h-176v-101h-123v101h-96v85h96v58h-96v100h96v301q148 29 222 29q259 0 259 -216q0 -214 -259 -214z" />
    <glyph glyph-name="uni20B6" unicode="&#x20cb;" horiz-adv-x="655" 
d="M263 565v-221h97q136 0 136 114q0 116 -136 116q-48 0 -97 -9zM362 244h-99v-58h176v-85h-176v-101h-123v101h-96v85h96v58h-96v100h96v301q148 29 222 29q259 0 259 -216q0 -214 -259 -214z" />
    <glyph glyph-name="uni20B6" unicode="&#x20ca;" horiz-adv-x="655" 
d="M263 565v-221h97q136 0 136 114q0 116 -136 116q-48 0 -97 -9zM362 244h-99v-58h176v-85h-176v-101h-123v101h-96v85h96v58h-96v100h96v301q148 29 222 29q259 0 259 -216q0 -214 -259 -214z" />
    <glyph glyph-name="uni20B6" unicode="&#x20c9;" horiz-adv-x="655" 
d="M263 565v-221h97q136 0 136 114q0 116 -136 116q-48 0 -97 -9zM362 244h-99v-58h176v-85h-176v-101h-123v101h-96v85h96v58h-96v100h96v301q148 29 222 29q259 0 259 -216q0 -214 -259 -214z" />
    <glyph glyph-name="uni20B6" unicode="&#x20c8;" horiz-adv-x="655" 
d="M263 565v-221h97q136 0 136 114q0 116 -136 116q-48 0 -97 -9zM362 244h-99v-58h176v-85h-176v-101h-123v101h-96v85h96v58h-96v100h96v301q148 29 222 29q259 0 259 -216q0 -214 -259 -214z" />
    <glyph glyph-name="uni20B6" unicode="&#x20c7;" horiz-adv-x="655" 
d="M263 565v-221h97q136 0 136 114q0 116 -136 116q-48 0 -97 -9zM362 244h-99v-58h176v-85h-176v-101h-123v101h-96v85h96v58h-96v100h96v301q148 29 222 29q259 0 259 -216q0 -214 -259 -214z" />
    <glyph glyph-name="uni20B6" unicode="&#x20c6;" horiz-adv-x="655" 
d="M263 565v-221h97q136 0 136 114q0 116 -136 116q-48 0 -97 -9zM362 244h-99v-58h176v-85h-176v-101h-123v101h-96v85h96v58h-96v100h96v301q148 29 222 29q259 0 259 -216q0 -214 -259 -214z" />
    <glyph glyph-name="uni20B6" unicode="&#x20c5;" horiz-adv-x="655" 
d="M263 565v-221h97q136 0 136 114q0 116 -136 116q-48 0 -97 -9zM362 244h-99v-58h176v-85h-176v-101h-123v101h-96v85h96v58h-96v100h96v301q148 29 222 29q259 0 259 -216q0 -214 -259 -214z" />
    <glyph glyph-name="uni20B6" unicode="&#x20c4;" horiz-adv-x="655" 
d="M263 565v-221h97q136 0 136 114q0 116 -136 116q-48 0 -97 -9zM362 244h-99v-58h176v-85h-176v-101h-123v101h-96v85h96v58h-96v100h96v301q148 29 222 29q259 0 259 -216q0 -214 -259 -214z" />
    <glyph glyph-name="uni20B6" unicode="&#x20c3;" horiz-adv-x="655" 
d="M263 565v-221h97q136 0 136 114q0 116 -136 116q-48 0 -97 -9zM362 244h-99v-58h176v-85h-176v-101h-123v101h-96v85h96v58h-96v100h96v301q148 29 222 29q259 0 259 -216q0 -214 -259 -214z" />
    <glyph glyph-name="uni20B6" unicode="&#x20c2;" horiz-adv-x="655" 
d="M263 565v-221h97q136 0 136 114q0 116 -136 116q-48 0 -97 -9zM362 244h-99v-58h176v-85h-176v-101h-123v101h-96v85h96v58h-96v100h96v301q148 29 222 29q259 0 259 -216q0 -214 -259 -214z" />
    <glyph glyph-name="uni20B6" unicode="&#x20c1;" horiz-adv-x="655" 
d="M263 565v-221h97q136 0 136 114q0 116 -136 116q-48 0 -97 -9zM362 244h-99v-58h176v-85h-176v-101h-123v101h-96v85h96v58h-96v100h96v301q148 29 222 29q259 0 259 -216q0 -214 -259 -214z" />
    <glyph glyph-name="uni20B6" unicode="&#x20c0;" horiz-adv-x="655" 
d="M263 565v-221h97q136 0 136 114q0 116 -136 116q-48 0 -97 -9zM362 244h-99v-58h176v-85h-176v-101h-123v101h-96v85h96v58h-96v100h96v301q148 29 222 29q259 0 259 -216q0 -214 -259 -214z" />
    <glyph glyph-name="uni20B6" unicode="&#x20bf;" horiz-adv-x="655" 
d="M263 565v-221h97q136 0 136 114q0 116 -136 116q-48 0 -97 -9zM362 244h-99v-58h176v-85h-176v-101h-123v101h-96v85h96v58h-96v100h96v301q148 29 222 29q259 0 259 -216q0 -214 -259 -214z" />
    <glyph glyph-name="uni20B6" unicode="&#x20be;" horiz-adv-x="655" 
d="M263 565v-221h97q136 0 136 114q0 116 -136 116q-48 0 -97 -9zM362 244h-99v-58h176v-85h-176v-101h-123v101h-96v85h96v58h-96v100h96v301q148 29 222 29q259 0 259 -216q0 -214 -259 -214z" />
    <glyph glyph-name="uni20B6" unicode="&#x20bd;" horiz-adv-x="655" 
d="M263 565v-221h97q136 0 136 114q0 116 -136 116q-48 0 -97 -9zM362 244h-99v-58h176v-85h-176v-101h-123v101h-96v85h96v58h-96v100h96v301q148 29 222 29q259 0 259 -216q0 -214 -259 -214z" />
    <glyph glyph-name="uni20B6" unicode="&#x20bc;" horiz-adv-x="655" 
d="M263 565v-221h97q136 0 136 114q0 116 -136 116q-48 0 -97 -9zM362 244h-99v-58h176v-85h-176v-101h-123v101h-96v85h96v58h-96v100h96v301q148 29 222 29q259 0 259 -216q0 -214 -259 -214z" />
    <glyph glyph-name="uni20B6" unicode="&#x20bb;" horiz-adv-x="655" 
d="M263 565v-221h97q136 0 136 114q0 116 -136 116q-48 0 -97 -9zM362 244h-99v-58h176v-85h-176v-101h-123v101h-96v85h96v58h-96v100h96v301q148 29 222 29q259 0 259 -216q0 -214 -259 -214z" />
    <glyph glyph-name="uni20B6" unicode="&#x20ba;" horiz-adv-x="655" 
d="M263 565v-221h97q136 0 136 114q0 116 -136 116q-48 0 -97 -9zM362 244h-99v-58h176v-85h-176v-101h-123v101h-96v85h96v58h-96v100h96v301q148 29 222 29q259 0 259 -216q0 -214 -259 -214z" />
    <glyph glyph-name="uni20B6" unicode="&#x20b9;" horiz-adv-x="655" 
d="M263 565v-221h97q136 0 136 114q0 116 -136 116q-48 0 -97 -9zM362 244h-99v-58h176v-85h-176v-101h-123v101h-96v85h96v58h-96v100h96v301q148 29 222 29q259 0 259 -216q0 -214 -259 -214z" />
    <glyph glyph-name="uni20B6" unicode="&#x20b7;" horiz-adv-x="655" 
d="M263 565v-221h97q136 0 136 114q0 116 -136 116q-48 0 -97 -9zM362 244h-99v-58h176v-85h-176v-101h-123v101h-96v85h96v58h-96v100h96v301q148 29 222 29q259 0 259 -216q0 -214 -259 -214z" />
    <glyph glyph-name="afii61352" unicode="&#x2116;" horiz-adv-x="1142" 
d="M1080 204v-75h-346v75h346zM907 600q-95 0 -95 -114t95 -114t95 114t-95 114zM907 674q190 0 190 -188t-190 -188t-190 188t190 188zM508 700h128v-700h-153l-241 419q-28 51 -45 98q5 -100 5 -107v-410h-128v700h153l241 -419q28 -51 45 -98q-5 100 -5 107v410z" />
    <glyph glyph-name="trademark" unicode="&#x2122;" horiz-adv-x="998" 
d="M405 700v-70h-119v-316h-85v316h-119v70h323zM663 508l24 -76l24 76l68 192h111l26 -386h-84l-11 206v10q0 63 -1 63q-22 -73 -32 -101l-63 -178h-77l-62 178q-10 28 -32 101q-1 0 -1 -63v-10l-11 -206h-84l26 386h111z" />
    <glyph glyph-name="partialdiff" unicode="&#x2202;" horiz-adv-x="606" 
d="M422 464q-39 139 -140 256l99 58q179 -218 179 -498q0 -144 -67 -219t-199 -75q-253 0 -253 257q0 131 56 194t174 63q67 0 151 -36zM160 243q0 -165 134 -165q75 0 110 50t35 151q0 35 -5 93q-76 36 -144 36q-71 0 -100.5 -38.5t-29.5 -126.5z" />
    <glyph glyph-name="product" unicode="&#x220f;" horiz-adv-x="786" 
d="M720 700v-106h-56v-744h-130v744h-282v-744h-130v744h-56v106h654z" />
    <glyph glyph-name="summation" unicode="&#x2211;" horiz-adv-x="607" 
d="M211 594l207 -286v-49l-219 -303h366v-106h-523v106l237 328l-225 310v106h496v-106h-339z" />
    <glyph glyph-name="minus" unicode="&#x2212;" horiz-adv-x="618" 
d="M554 379v-90h-490v90h490z" />
    <glyph glyph-name="uni2215" unicode="&#x2215;" horiz-adv-x="422" 
d="M281 700h121l-324 -870h-120z" />
    <glyph glyph-name="radical" unicode="&#x221a;" horiz-adv-x="618" 
d="M585 660v-99h-61l-173 -572h-159l-107 356h-52v99h154l58 -201l13 -54.5t14 -57.5l27 112l121 417h165z" />
    <glyph glyph-name="infinity" unicode="&#x221e;" horiz-adv-x="960" 
d="M378 275l35 58l-35 58q-31 51 -55 68q-23 18 -60 18q-48 0 -70.5 -35t-22.5 -109t22.5 -109t70.5 -35q37 0 60 17q24 20 55 69zM582 391l-35 -58l35 -58q32 -51 54 -69q23 -17 61 -17q48 0 70.5 35t22.5 109t-22.5 109t-70.5 35q-38 0 -61 -18q-22 -16 -54 -68zM504 211
l-24 40l-24 -40q-36 -59 -81 -86t-113 -27q-202 0 -202 235t202 235q68 0 113 -27t81 -86l24 -40l24 40q36 59 81 86t113 27q202 0 202 -235t-202 -235q-68 0 -113 27t-81 86z" />
    <glyph glyph-name="integral" unicode="&#x222b;" horiz-adv-x="385" 
d="M238 286l32 -70q54 -118 54 -205q0 -113 -61 -165t-186 -52v99q66 0 91.5 29.5t25.5 93.5q0 63 -47 166l-32 70q-54 119 -54 205q0 113 61 165t186 52v-99q-66 0 -91.5 -29.5t-25.5 -93.5q0 -63 47 -166z" />
    <glyph glyph-name="approxequal" unicode="&#x2248;" horiz-adv-x="618" 
d="M290 402q-57 25 -104 25q-59 0 -101 -53l-31 79q58 64 135 64q61 0 139 -31q57 -25 104 -25q59 0 101 53l31 -79q-58 -64 -135 -64q-61 0 -139 31zM290 183q-57 25 -104 25q-59 0 -101 -53l-31 79q58 64 135 64q61 0 139 -31q57 -25 104 -25q59 0 101 53l31 -79
q-58 -64 -135 -64q-61 0 -139 31z" />
    <glyph glyph-name="notequal" unicode="&#x2260;" horiz-adv-x="618" 
d="M554 269v-90h-258l-59 -158h-88l59 158h-144v90h177l48 129h-225v90h258l59 158h88l-58 -158h143v-90h-177l-48 -129h225z" />
    <glyph glyph-name="lessequal" unicode="&#x2264;" horiz-adv-x="618" 
d="M64 260l490 -138v-93l-490 138v93zM554 338v-94l-490 138v110l490 138v-94l-374 -99z" />
    <glyph glyph-name="greaterequal" unicode="&#x2265;" horiz-adv-x="618" 
d="M64 122l490 138v-93l-490 -138v93zM554 492v-110l-490 -138v94l374 99l-374 99v94z" />
    <glyph glyph-name="lozenge" unicode="&#x25ca;" horiz-adv-x="639" 
d="M333 724l262 -396l-262 -395h-27l-262 395l262 396h27zM155 328l163 -246l166 246l-166 246z" />
    <glyph glyph-name="uniF400" unicode="&#xf400;" horiz-adv-x="0" 
d="M-401 580l100 178h121l-129 -178h-92z" />
    <glyph glyph-name="uniF401" unicode="&#xf401;" horiz-adv-x="0" 
d="M-374 916h128l-130 -178h-98z" />
    <glyph glyph-name="uniF408" unicode="&#xf408;" horiz-adv-x="500" 
d="M331 738l-81 117l-81 -117h-90l99 178h144l99 -178h-90z" />
    <glyph glyph-name="uniF40C" unicode="&#xf40c;" horiz-adv-x="500" 
d="M250 945q118 0 118 -114t-118 -114t-118 114t118 114zM210 877q-12 -13 -12 -46t12 -46q12 -14 40 -14t40 14q12 13 12 46t-12 46q-12 14 -40 14t-40 -14z" />
    <glyph glyph-name="uniF40D" unicode="&#xf40d;" horiz-adv-x="500" 
d="M228 790q-48 23 -66 23q-46 0 -81 -56l-45 71q31 41 60 58.5t70 17.5q47 0 106 -31q48 -23 66 -23q46 0 81 56l45 -71q-31 -41 -60 -58.5t-70 -17.5q-47 0 -106 31z" />
    <glyph glyph-name="uniF6BA" unicode="&#xf6ba;" horiz-adv-x="445" 
d="M371 312v-100h-297v100h297z" />
    <glyph glyph-name="uniF6BB" unicode="&#xf6bb;" horiz-adv-x="717" 
d="M643 306v-86h-569v86h569z" />
    <glyph glyph-name="uniF6BC" unicode="&#xf6bc;" horiz-adv-x="923" 
d="M849 306v-86h-775v86h775z" />
    <glyph glyph-name="uniF6C9" unicode="&#xf6c9;" horiz-adv-x="500" 
d="M236 916h128l-130 -178h-98z" />
    <glyph glyph-name="uniF6CA" unicode="&#xf6ca;" horiz-adv-x="500" 
d="M79 916h90l81 -117l81 117h90l-99 -178h-144z" />
    <glyph glyph-name="uniF6CB" unicode="&#xf6cb;" horiz-adv-x="500" 
d="M170 897v-140h-106v140h106zM436 897v-140h-106v140h106z" />
    <glyph glyph-name="uniF6CE" unicode="&#xf6ce;" horiz-adv-x="500" 
d="M364 738h-98l-130 178h128z" />
    <glyph glyph-name="uniF6D1" unicode="&#xf6d1;" horiz-adv-x="500" 
d="M371 902l73 -61q-61 -97 -194 -97t-194 97l73 61q39 -64 121 -64t121 64z" />
    <glyph glyph-name="uniF6D4" unicode="&#xf6d4;" horiz-adv-x="500" 
d="M362 744l68 -56q-56 -90 -180 -90t-180 90l68 56q38 -59 112 -59t112 59z" />
    <glyph glyph-name="uniF8FF" unicode="&#xf8ff;" horiz-adv-x="790" 
d="M569 788q1 -5 1 -23q0 -71 -51 -122q-53 -51 -97 -51l-14 2q-1 4 -1 19q0 58 47 111q48 52 115 64zM735 197q-55 -119 -100 -167q-44 -47 -100 -47q-28 0 -64 16q-38 16 -60 16q-25 0 -64 -16t-62 -16q-64 0 -126 86q-104 143 -104 291q0 101 59 172q58 70 160 70
q27 0 73 -17q48 -17 63 -17q14 0 60 17q48 17 74 17q104 0 175 -80q-98 -63 -98 -160q0 -114 114 -165z" />
    <glyph glyph-name="uniFEFF" unicode="&#xfeff;" horiz-adv-x="0" 
 />
    <glyph glyph-name="NULL" horiz-adv-x="0" 
 />
    <glyph glyph-name="CR" horiz-adv-x="333" 
 />
    <glyph glyph-name="afii10069.ss04" horiz-adv-x="577" 
d="M401 114v270q-77 36 -123 36q-63 0 -90 -40t-27 -131t27 -131t90 -40q46 0 123 36zM244 -14q-104 0 -153 64t-49 199t49 199t153 64q67 0 157 -43v271h116v-740h-112v31q-91 -45 -161 -45z" />
    <glyph glyph-name="nbspace" horiz-adv-x="230" 
 />
    <glyph glyph-name="afii10067.ss04" horiz-adv-x="594" 
d="M290 754q114 0 170 -52.5t56 -145.5q0 -108 -78 -157q115 -48 115 -196q0 -110 -61 -163.5t-192 -53.5q-110 0 -240 34v508q0 111 59 168.5t171 57.5zM289 662q-113 0 -113 -135v-95h111q113 0 113 115t-111 115zM434 210q0 64 -32.5 97t-105.5 33h-120v-247
q62 -15 120 -15q73 0 105.5 33t32.5 99z" />
    <glyph glyph-name="afii10042.ss04" horiz-adv-x="952" 
d="M755 319v381h130v-382q0 -181 -94 -257q-95 -75 -315 -75t-315 75q-94 76 -94 257v382h130v-381q0 -125 49 -173q50 -48 165 -51v605h130v-605q119 5 166 52q48 48 48 172z" />
    <glyph glyph-name="afii10043.ss04" horiz-adv-x="952" 
d="M755 319v381h130v-382q0 -168 -81 -245q-79 -76 -265 -85q12 -90 35 -157l-139 -13q-18 83 -22 170q-186 9 -266 85q-80 77 -80 245v382h130v-381q0 -125 49 -173q50 -48 165 -51v605h130v-605q119 5 166 52q48 48 48 172z" />
    <glyph glyph-name="afii10046.ss04" horiz-adv-x="542" 
d="M74 92h415v-92h-415v92zM190 447v-158q53 -9 88 -9q104 0 104 88t-104 88q-36 0 -88 -9zM74 700h116v-159q56 7 91 7q220 0 220 -180t-220 -180q-85 0 -207 29v483z" />
    <glyph glyph-name="afii10021.ss04" horiz-adv-x="717" 
d="M74 16v668q124 30 241 30q188 0 272.5 -88.5t84.5 -275.5t-84.5 -275.5t-272.5 -88.5q-117 0 -241 30zM204 599v-498q68 -9 108 -9q121 0 173.5 60.5t52.5 197.5t-52.5 197.5t-173.5 60.5q-40 0 -108 -9z" />
    <glyph glyph-name="afii10059.ss04" horiz-adv-x="1059" 
d="M738 330q-39 0 -102 -7v-220q57 -11 102 -11q153 0 153 119t-153 119zM469 25l-227 394q-26 45 -45 98q5 -100 5 -107v-410h-128v700h153l241 -419q28 -51 45 -98q-5 100 -5 107v410h128v-272q72 8 105 8q139 0 211.5 -57t72.5 -168t-72.5 -168t-211.5 -57
q-125 0 -272 39z" />
    <glyph glyph-name="afii10145.ss04" horiz-adv-x="714" 
d="M517 255v445h130v-447q0 -128 -55 -190.5t-172 -73.5l3 -139h-132l2 139q-117 11 -171.5 74t-54.5 190v447h130v-445q0 -90 36 -126.5t124 -36.5t124 36.5t36 126.5z" />
    <glyph glyph-name="afii10065.ss04" horiz-adv-x="577" 
d="M401 114v270q-77 36 -123 36q-63 0 -90 -40t-27 -131t27 -131t90 -40q46 0 123 36zM405 498h112v-498h-112v31q-91 -45 -161 -45q-104 0 -153 64t-49 199t49 199t153 64q70 0 161 -45v31z" />
    <glyph glyph-name="afii10044.ss04" horiz-adv-x="628" 
d="M75 92h500v-92h-500v92zM276 447v-158q52 -9 88 -9q104 0 104 88t-104 88q-36 0 -88 -9zM160 217v391h-139v92h255v-159q56 7 91 7q220 0 220 -180t-220 -180q-85 0 -207 29z" />
    <glyph glyph-name="afii10084.ss04" horiz-adv-x="372" 
d="M19 406v92h109v182h116v-182h109v-92h-109v-406h-116v406h-109z" />
    <glyph glyph-name="afii10098.ss04" horiz-adv-x="244" 
d="M64 197v276q0 135 52 202.5t161 74.5l8 121h80v-215q-40 2 -58 2q-67 0 -97 -43.5t-30 -142.5v-277q0 -141 -23.5 -239t-79.5 -170l-100 48q87 94 87 363z" />
    <glyph glyph-name="cyrAcute" horiz-adv-x="500" 
d="M236 916h128l-130 -178h-98z" />
    <glyph glyph-name="cyracute" horiz-adv-x="500" 
d="M139 580l100 178h121l-129 -178h-92z" />
    <glyph glyph-name="afii10040.ss04" horiz-adv-x="714" 
d="M517 255v445h130v-447q0 -72 -18 -123l106 -68l-65 -104l-115 73q-67 -45 -198 -45q-151 0 -220.5 62.5t-69.5 204.5v447h130v-445q0 -90 36 -126.5t124 -36.5t124 36.5t36 126.5z" />
    <glyph glyph-name="t.ss04" horiz-adv-x="372" 
d="M19 406v92h109v182h116v-182h109v-92h-109v-406h-116v406h-109z" />
    <glyph glyph-name="afii10109.ss04" horiz-adv-x="527" 
d="M60 740h116v-740h-116v740zM500 498l-171 -228l191 -259l-130 -19l-191 268l166 238h135zM231 580l100 178h121l-129 -178h-92z" />
    <glyph glyph-name="afii10068_afii10076.ss04_ss04" horiz-adv-x="787" 
d="M760 498l-171 -228l191 -259l-130 -19l-191 268l166 238h135zM64 197v276q0 144 60 212.5t184 68.5q36 0 128 -5v-749h-116v662q-77 0 -108.5 -43t-31.5 -147v-277q0 -141 -23.5 -239t-79.5 -170l-100 48q87 94 87 363z" />
    <glyph glyph-name="afii10076.ss04" horiz-adv-x="527" 
d="M60 740h116v-740h-116v740zM500 498l-171 -228l191 -259l-130 -19l-191 268l166 238h135z" />
    <glyph glyph-name="a.ss04" horiz-adv-x="577" 
d="M401 114v270q-77 36 -123 36q-63 0 -90 -40t-27 -131t27 -131t90 -40q46 0 123 36zM405 498h112v-498h-112v31q-91 -45 -161 -45q-104 0 -153 64t-49 199t49 199t153 64q70 0 161 -45v31z" />
    <glyph glyph-name="afii10021.ss04.alt" horiz-adv-x="728" 
d="M364 585l-162 -479h324zM12 -130v236h52l210 594h180l210 -594h52v-236h-115l-10 130h-454l-11 -130h-114z" />
    <glyph glyph-name="afii10031.ss04" horiz-adv-x="710" 
d="M508 700h128v-700h-153l-236 410q-31 55 -50 107q5 -65 5 -115v-402h-128v700h153l236 -410q31 -55 50 -107q-5 65 -5 115v402z" />
    <glyph glyph-name="afii10037.ss04" horiz-adv-x="696" 
d="M531 700h156l-274 -438v-262h-130v262l-274 438h156l183 -307z" />
    <glyph glyph-name="afii10041.ss04" horiz-adv-x="652" 
d="M474 538v162h130v-165q0 -239 -213 -258v-277h-130v277q-213 19 -213 258v165h130v-162q0 -90 33 -124t115 -34t115 34t33 124z" />
    <glyph glyph-name="afii10068.ss04" horiz-adv-x="244" 
d="M64 197v276q0 138 54.5 205.5t169.5 72.5l77 3v-98q-40 2 -58 2q-67 0 -97 -43.5t-30 -142.5v-277q0 -141 -23.5 -239t-79.5 -170l-100 48q87 94 87 363z" />
    <glyph glyph-name="afii10068_afii10103.ss04_" horiz-adv-x="478" 
d="M418 498v-498h-116v498h116zM64 197v261q0 146 61.5 215.5t194.5 76.5l80 4v-98q-42 2 -72 2q-77 0 -112.5 -47.5t-35.5 -153.5v-262q0 -141 -23.5 -239t-79.5 -170l-100 48q87 94 87 363z" />
    <glyph glyph-name="afii10088.ss04" horiz-adv-x="589" 
d="M469 -140l-9 140l-49 27q-108 -41 -171 -41q-91 0 -135.5 46.5t-44.5 130.5v335h116v-332q0 -48 19 -68t67 -20q46 0 126 36v384h116v-402l63 -35v-201h-98z" />
    <glyph glyph-name="afii10090.ss04" horiz-adv-x="856" 
d="M370 498h116v-332q-2 -144 194 -52v384h116v-498h-112v31q-93 -45 -155 -45q-85 0 -126 53q-106 -53 -173 -53q-89 0 -129.5 43.5t-40.5 131.5v337h116v-332q0 -47 19 -67.5t65 -20.5q44 0 114 37q-4 39 -4 46v337z" />
    <glyph glyph-name="afii10091.ss04" horiz-adv-x="885" 
d="M765 -140l-9 140l-51 28q-93 -42 -155 -42q-90 0 -135 53q-111 -53 -172 -53q-92 0 -135.5 43t-43.5 133v336h116v-332q0 -46 19 -67t65 -21q44 0 114 37q-4 23 -4 46v337h116v-332q0 -47 18 -67.5t61 -20.5q46 0 115 36v384h116v-402l63 -35v-201h-98z" />
    <glyph glyph-name="afii10098.ss04.alt" horiz-adv-x="383" 
d="M284 615h88v-207q-43 5 -81 5q-54 0 -115 -11v-402h-116v478q103 34 218 34z" />
    <glyph glyph-name="afii10058.ss04" horiz-adv-x="1036" 
d="M271 700h166l105 -280q122 16 176 16q139 0 211.5 -57t72.5 -168t-72.5 -168t-211.5 -57q-67 0 -164 16l-128 360l-72 214l-72 -214l-129 -362h-142zM715 330q-54 0 -136 -14l82 -221q33 -3 54 -3q153 0 153 119t-153 119z" />
    <glyph glyph-name="afii10106.ss04" horiz-adv-x="815" 
d="M413 3l-87 239l-51 140l-51 -140l-88 -242h-127l193 498h146l65 -167q108 15 152 15q220 0 220 -180t-220 -180q-64 0 -152 17zM562 254q-39 0 -114 -15l61 -157q28 -4 53 -4q104 0 104 88t-104 88z" />
    <glyph glyph-name="afii10193.ss04" 
d="M226 -180v133h114v-133h-114zM60 161v337h116v-332q-2 -145 212 -52v384h116v-498h-112v31q-102 -45 -167 -45q-165 0 -165 175z" />
    <glyph glyph-name="afii10100.ss04" horiz-adv-x="383" 
d="M372 508l-2 -100q-43 5 -79 5q-54 0 -115 -11v-402h-116v478q105 34 219 34q46 0 93 -4zM139 580l100 178h121l-129 -178h-92z" />
    <glyph glyph-name="afii10074.ss04.accented" 
d="M60 161v337h116v-332q-2 -145 212 -52v384h116v-498h-112v31q-102 -45 -167 -45q-165 0 -165 175zM209 580l100 178h121l-129 -178h-92z" />
    <glyph glyph-name="afii10081.ss04" 
d="M504 337v-337h-116v332q2 145 -212 52v-384h-116v498h112v-31q102 45 167 45q165 0 165 -175z" />
    <glyph glyph-name="afii10077.ss04" horiz-adv-x="550" 
d="M326 242l-51 140l-51 -140l-88 -242h-127l193 498h146l193 -498h-127z" />
    <glyph glyph-name="afii10075.ss04" 
d="M60 161v337h116v-332q-2 -145 212 -52v384h116v-498h-112v31q-102 -45 -167 -45q-165 0 -165 175zM394 744l68 -56q-56 -90 -180 -90t-180 90l68 56q38 -59 112 -59t112 59z" />
    <glyph glyph-name="afii10074.ss04" 
d="M60 161v337h116v-332q-2 -145 212 -52v384h116v-498h-112v31q-102 -45 -167 -45q-165 0 -165 175z" />
    <glyph glyph-name="afii10073.ss04" horiz-adv-x="508" 
d="M470 -7q0 -207 -267 -207q-91 0 -201 27l20 103q90 -38 175 -38q83 0 118.5 29.5t35.5 88.5q0 60 -36 89t-119 29q-51 0 -103 -3v96q50 -3 103 -3q134 0 134 108q0 52 -32.5 80t-95.5 28q-68 0 -158 -30l-19 100q104 22 178 22q242 0 242 -191q0 -111 -80 -152
q105 -45 105 -176z" />
    <glyph glyph-name="afii10069.ss04.alt" horiz-adv-x="606" 
d="M422 464q-39 139 -140 256l99 58q179 -218 179 -498q0 -144 -67 -219t-199 -75q-253 0 -253 257q0 131 56 194t174 63q67 0 151 -36zM160 243q0 -165 134 -165q75 0 110 50t35 151q0 35 -5 93q-76 36 -144 36q-71 0 -100.5 -38.5t-29.5 -126.5z" />
    <glyph glyph-name="afii10068.ss04.alt" horiz-adv-x="383" 
d="M372 508l-2 -100q-43 5 -79 5q-54 0 -115 -11v-402h-116v478q105 34 219 34q46 0 93 -4z" />
    <glyph glyph-name="afii10029.ss04" horiz-adv-x="708" 
d="M426 362l-72 214l-72 -214l-129 -362h-142l260 700h166l260 -700h-142z" />
    <glyph glyph-name="lslash.ss02" horiz-adv-x="547" 
d="M226 106h301v-106h-431v316l-77 -23v108l77 22v277h130v-239l163 47v-107l-163 -48v-247z" />
    <glyph glyph-name="scaron.ss02" horiz-adv-x="604" 
d="M297 92q66 0 97 24t31 75q0 44 -24.5 69t-86.5 34l-37 5q-116 15 -167.5 65.5t-51.5 145.5q0 204 245 204q87 0 229 -30l-18 -119q-126 43 -208 43q-115 0 -115 -95q0 -44 22 -66t91 -33l37 -6q137 -23 180 -86q38 -52 38 -127q0 -209 -262 -209q-106 0 -256 36l20 125
q120 -55 236 -55zM144 916h90l81 -117l81 117h90l-99 -178h-144z" />
    <glyph glyph-name="yacute.ss02" horiz-adv-x="696" 
d="M531 700h156l-274 -438v-262h-130v262l-274 438h156l183 -307zM380 916h128l-130 -178h-98z" />
    <glyph glyph-name="thorn.ss02" horiz-adv-x="617" 
d="M204 473v-226q58 -9 101 -9q85 0 115 34t30 88q0 52 -30 87t-115 35q-43 0 -101 -9zM307 588q276 0 276 -228t-276 -228q-43 0 -103 7v-139h-130v700h130v-119q60 7 103 7z" />
    <glyph glyph-name="thorn.ss01" horiz-adv-x="577" 
d="M176 407v-316q53 -13 106 -13q134 0 134 171t-134 171q-53 0 -106 -13zM60 740h116v-236q59 8 109 8q125 0 187.5 -63.5t62.5 -199.5t-62.5 -199.5t-187.5 -63.5q-50 0 -109 8v-194h-116v940z" />
    <glyph glyph-name="zcaron.ss02" horiz-adv-x="607" 
d="M199 106h366v-106h-523v106l353 488h-340v106h497v-106zM133 916h90l81 -117l81 117h90l-99 -178h-144z" />
    <glyph glyph-name="at.ss01" horiz-adv-x="1022" 
d="M496 -14q-107 0 -155.5 40t-48.5 120t48.5 120t155.5 40q38 0 101 -9v31q0 49 -22 70.5t-73 21.5q-57 0 -158 -34l-17 98q115 28 184 28q108 0 155 -46t47 -136v-229q135 36 135 208q0 151 -78 234q-77 83 -258 83q-182 0 -258 -84q-77 -83 -77 -293t77 -293
q78 -84 258 -84q138 0 279 37l16 -89q-182 -36 -295 -36q-230 0 -333 108q-102 108 -102 357q0 252 105 359q105 106 330 106q433 0 433 -405q0 -153 -90 -233q-38 -34 -100 -55q-100 -35 -259 -35zM597 86v120q-50 10 -96 10q-93 0 -93 -70t93 -70q46 0 96 10z" />
    <glyph glyph-name="b.ss02" horiz-adv-x="666" 
d="M204 598v-185h114q74 0 104 25t30 73q0 97 -134 97q-55 0 -114 -10zM490 199q0 54 -35 81t-118 27h-133v-205q66 -10 133 -10q153 0 153 107zM582 526q0 -113 -85 -155q127 -45 127 -181q0 -204 -283 -204q-127 0 -267 30v668q150 30 247 30q138 0 199.5 -46t61.5 -142z
" />
    <glyph glyph-name="c.ss02" horiz-adv-x="617" 
d="M366 714q74 0 206 -24l-19 -119q-107 37 -177 37q-102 0 -149.5 -61.5t-47.5 -196.5t47.5 -196.5t149.5 -61.5q72 0 177 36l19 -116q-127 -26 -206 -26q-144 0 -228 72q-93 82 -93 292t93 291q84 73 228 73z" />
    <glyph glyph-name="d.ss02" horiz-adv-x="717" 
d="M74 16v668q124 30 241 30q188 0 272.5 -88.5t84.5 -275.5t-84.5 -275.5t-272.5 -88.5q-117 0 -241 30zM204 599v-498q68 -9 108 -9q121 0 173.5 60.5t52.5 197.5t-52.5 197.5t-173.5 60.5q-40 0 -108 -9z" />
    <glyph glyph-name="f.ss02" horiz-adv-x="549" 
d="M204 277v-277h-130v700h438v-106h-308v-211h280v-106h-280z" />
    <glyph glyph-name="g.ss02" horiz-adv-x="699" 
d="M376 92q66 0 125 13v246h130v-330q-137 -35 -266 -35q-155 0 -238 84q-82 85 -82 280q0 211 93 292q84 72 227 72q103 0 238 -27l-22 -118q-120 39 -205 39q-100 0 -148.5 -61.5t-48.5 -196.5q0 -130 46 -194t151 -64z" />
    <glyph glyph-name="h.ss02" horiz-adv-x="700" 
d="M626 700v-700h-130v302h-292v-302h-130v700h130v-292h292v292h130z" />
    <glyph glyph-name="i.ss02" horiz-adv-x="278" 
d="M204 700v-700h-130v700h130z" />
    <glyph glyph-name="j.ss02" horiz-adv-x="454" 
d="M132 -14q-62 0 -115 10l15 112q45 -16 93 -16q71 0 101 33q31 32 31 128v447h130v-450q0 -135 -57 -200q-57 -64 -198 -64z" />
    <glyph glyph-name="k.ss02" horiz-adv-x="675" 
d="M513 -9l-284 364l248 345h152l-248 -334l281 -350zM74 700h130v-700h-130v700z" />
    <glyph glyph-name="l.ss02" horiz-adv-x="525" 
d="M204 106h301v-106h-431v700h130v-594z" />
    <glyph glyph-name="o.ss02" horiz-adv-x="734" 
d="M225 547q-46 -61 -46 -197t46 -197t142 -61t142 61t46 197t-46 197t-142 61t-142 -61zM666 526q23 -74 23 -176t-23 -177q-42 -129 -169 -170q-57 -17 -130 -17t-130 17q-127 41 -169 170q-23 75 -23 177t23 176q42 131 169 170q56 18 130 18q75 0 130 -18
q127 -39 169 -170z" />
    <glyph glyph-name="p.ss02" horiz-adv-x="617" 
d="M204 0h-130v684q140 30 233 30q276 0 276 -231t-276 -231q-43 0 -103 7v-259zM204 599v-232q58 -9 101 -9q45 0 75.5 11t44.5 30.5t19.5 39t5.5 44.5t-5.5 44.5t-19.5 39t-44.5 30.5t-75.5 11q-43 0 -101 -9z" />
    <glyph glyph-name="q.ss02" horiz-adv-x="734" 
d="M225 547q-46 -61 -46 -197t46 -197t142 -61t142 61t46 197t-46 197t-142 61t-142 -61zM689 350q0 -180 -68 -263q-68 -84 -192 -97q12 -89 36 -160l-137 -12q-17 75 -23 172q-125 14 -193 97q-67 82 -67 263q0 209 91 289q85 75 231 75t231 -75q91 -80 91 -289z" />
    <glyph glyph-name="r.ss02" horiz-adv-x="633" 
d="M204 599v-213h103q143 0 143 111q0 42 -24 72q-40 58 -222 30zM451 306l156 -291l-138 -20l-145 285h-120v-280h-130v684q152 30 234 30q275 0 275 -215q0 -153 -132 -193z" />
    <glyph glyph-name="s.ss02" horiz-adv-x="604" 
d="M297 92q66 0 97 24t31 75q0 44 -24.5 69t-86.5 34l-37 5q-116 15 -167.5 65.5t-51.5 145.5q0 204 245 204q87 0 229 -30l-18 -119q-126 43 -208 43q-115 0 -115 -95q0 -44 22 -66t91 -33l37 -6q137 -23 180 -86q38 -52 38 -127q0 -209 -262 -209q-106 0 -256 36l20 125
q120 -55 236 -55z" />
    <glyph glyph-name="t.ss02" horiz-adv-x="622" 
d="M602 700v-106h-226v-594h-130v594h-226v106h582z" />
    <glyph glyph-name="v.ss02" horiz-adv-x="708" 
d="M282 338l72 -214l72 214l129 362h142l-260 -700h-166l-260 700h142z" />
    <glyph glyph-name="w.ss02" horiz-adv-x="1066" 
d="M340 243l124 457h138l124 -457q3 -8 27 -110q24 102 27 110l124 457h135l-196 -700h-166l-114 408q-15 51 -30 116q-15 -65 -30 -116l-114 -408h-166l-196 700h135l124 -457q3 -8 27 -110q24 102 27 110z" />
    <glyph glyph-name="x.ss02" horiz-adv-x="686" 
d="M505 0l-162 264l-161 -264h-157l229 355l-220 345h157l152 -254l152 254h157l-220 -345l229 -355h-156z" />
    <glyph glyph-name="y.ss02" horiz-adv-x="696" 
d="M531 700h156l-274 -438v-262h-130v262l-274 438h156l183 -307z" />
    <glyph glyph-name="z.ss02" horiz-adv-x="607" 
d="M199 106h366v-106h-523v106l353 488h-340v106h497v-106z" />
    <glyph glyph-name="a.ss01" horiz-adv-x="517" 
d="M341 86v120q-50 10 -96 10q-93 0 -93 -70t93 -70q46 0 96 10zM341 297v31q0 49 -22 70.5t-73 21.5q-57 0 -158 -34l-17 98q115 28 184 28q108 0 155 -46t47 -136v-312q-123 -32 -217 -32q-107 0 -155.5 40t-48.5 120t48.5 120t155.5 40q38 0 101 -9z" />
    <glyph glyph-name="b.ss01" horiz-adv-x="577" 
d="M60 740h116v-236q59 8 109 8q125 0 187.5 -63.5t62.5 -199.5t-62.5 -199.5t-187.5 -63.5q-117 0 -225 34v720zM176 407v-316q53 -13 106 -13q134 0 134 171t-134 171q-53 0 -106 -13z" />
    <glyph glyph-name="d.ss01" horiz-adv-x="577" 
d="M401 504v236h116v-720q-108 -34 -225 -34q-125 0 -187.5 63.5t-62.5 199.5t62.5 199.5t187.5 63.5q50 0 109 -8zM401 91v316q-53 13 -106 13q-134 0 -134 -171t134 -171q53 0 106 13z" />
    <glyph glyph-name="g.ss01" horiz-adv-x="577" 
d="M295 84q53 0 106 13v310q-53 13 -106 13q-134 0 -134 -168t134 -168zM291 -8q-249 0 -249 260t249 260q118 0 226 -34v-449q0 -130 -55 -186q-54 -57 -200 -57q-81 0 -205 26l20 102q99 -36 178 -36q80 0 111.5 28.5t34.5 93.5q-59 -8 -110 -8z" />
    <glyph glyph-name="h.ss01" 
d="M60 740h116v-236q62 8 102 8q226 0 226 -203v-309h-116v304q0 61 -27 88.5t-87 27.5q-46 0 -98 -11v-409h-116v740z" />
    <glyph glyph-name="m.ss01" horiz-adv-x="856" 
d="M486 0h-116v304q0 61 -25 88.5t-79 27.5q-43 0 -90 -11v-409h-116v478q102 34 209 34q85 0 143 -35q90 35 163 35q109 0 165 -51.5t56 -151.5v-309h-116v304q0 63 -25.5 89.5t-81.5 26.5q-50 0 -101 -21q14 -39 14 -90v-309z" />
    <glyph glyph-name="n.ss01" 
d="M504 309v-309h-116v304q0 61 -27 88.5t-87 27.5q-46 0 -98 -11v-409h-116v478q105 34 218 34q226 0 226 -203z" />
    <glyph glyph-name="p.ss01" horiz-adv-x="577" 
d="M176 407v-316q53 -13 106 -13q134 0 134 171t-134 171q-53 0 -106 -13zM176 -200h-116v678q108 34 225 34q125 0 187.5 -63.5t62.5 -199.5t-62.5 -199.5t-187.5 -63.5q-50 0 -109 8v-194z" />
    <glyph glyph-name="q.ss01" horiz-adv-x="577" 
d="M401 91v316q-53 13 -106 13q-134 0 -134 -171t134 -171q53 0 106 13zM517 478v-678h-116v194q-59 -8 -109 -8q-125 0 -187.5 63.5t-62.5 199.5t62.5 199.5t187.5 63.5q117 0 225 -34z" />
    <glyph glyph-name="r.ss01" horiz-adv-x="348" 
d="M337 510v-99q-26 2 -46 2q-57 0 -115 -11v-402h-116v478q105 34 219 34q24 0 58 -2z" />
    <glyph glyph-name="u.ss01" 
d="M60 189v309h116v-304q0 -61 27 -88.5t87 -27.5q46 0 98 11v409h116v-478q-105 -34 -218 -34q-226 0 -226 203z" />
    <glyph glyph-name="ccedilla.ss02" horiz-adv-x="617" 
d="M45 350q0 210 93 291q84 73 228 73q74 0 206 -24l-19 -119q-107 37 -177 37q-102 0 -149.5 -61.5t-47.5 -196.5t47.5 -196.5t149.5 -61.5q72 0 177 36l19 -116q-105 -21 -169 -25l-3 -23q53 0 82 -26.5t29 -73.5q0 -100 -122 -100q-42 0 -86 10l8 62q36 -14 69 -14
q51 0 51 42t-51 42q-16 0 -62 -3l11 85q-64 4 -113 23t-89 59.5t-61 110.5t-21 169z" />
    <glyph glyph-name="aacute.ss01" horiz-adv-x="517" 
d="M341 86v120q-50 10 -96 10q-93 0 -93 -70t93 -70q46 0 96 10zM341 297v31q0 49 -22 70.5t-73 21.5q-57 0 -158 -34l-17 98q115 28 184 28q108 0 155 -46t47 -136v-312q-123 -32 -217 -32q-107 0 -155.5 40t-48.5 120t48.5 120t155.5 40q38 0 101 -9zM188 580l100 178h121
l-129 -178h-92z" />
    <glyph glyph-name="agrave.ss01" horiz-adv-x="517" 
d="M341 86v120q-50 10 -96 10q-93 0 -93 -70t93 -70q46 0 96 10zM341 297v31q0 49 -22 70.5t-73 21.5q-57 0 -158 -34l-17 98q115 28 184 28q108 0 155 -46t47 -136v-312q-123 -32 -217 -32q-107 0 -155.5 40t-48.5 120t48.5 120t155.5 40q38 0 101 -9zM256 580l-129 178
h121l100 -178h-92z" />
    <glyph glyph-name="acircumflex.ss01" horiz-adv-x="517" 
d="M341 86v120q-50 10 -96 10q-93 0 -93 -70t93 -70q46 0 96 10zM341 297v31q0 49 -22 70.5t-73 21.5q-57 0 -158 -34l-17 98q115 28 184 28q108 0 155 -46t47 -136v-312q-123 -32 -217 -32q-107 0 -155.5 40t-48.5 120t48.5 120t155.5 40q38 0 101 -9zM190 758h140l95 -178
h-87l-78 116l-78 -116h-87z" />
    <glyph glyph-name="adieresis.ss01" horiz-adv-x="517" 
d="M341 86v120q-50 10 -96 10q-93 0 -93 -70t93 -70q46 0 96 10zM341 297v31q0 49 -22 70.5t-73 21.5q-57 0 -158 -34l-17 98q115 28 184 28q108 0 155 -46t47 -136v-312q-123 -32 -217 -32q-107 0 -155.5 40t-48.5 120t48.5 120t155.5 40q38 0 101 -9zM191 740v-140h-106
v140h106zM439 740v-140h-106v140h106z" />
    <glyph glyph-name="atilde.ss01" horiz-adv-x="517" 
d="M341 86v120q-50 10 -96 10q-93 0 -93 -70t93 -70q46 0 96 10zM341 297v31q0 49 -22 70.5t-73 21.5q-57 0 -158 -34l-17 98q115 28 184 28q108 0 155 -46t47 -136v-312q-123 -32 -217 -32q-107 0 -155.5 40t-48.5 120t48.5 120t155.5 40q38 0 101 -9zM242 632
q-42 21 -62 21q-24 0 -40.5 -11.5t-34.5 -39.5l-41 65q51 71 120 71q43 0 98 -29q42 -21 62 -21q24 0 40.5 11.5t34.5 39.5l41 -65q-51 -71 -120 -71q-43 0 -98 29z" />
    <glyph glyph-name="aring.ss01" horiz-adv-x="517" 
d="M341 86v120q-50 10 -96 10q-93 0 -93 -70t93 -70q46 0 96 10zM341 297v31q0 49 -22 70.5t-73 21.5q-57 0 -158 -34l-17 98q115 28 184 28q108 0 155 -46t47 -136v-312q-123 -32 -217 -32q-107 0 -155.5 40t-48.5 120t48.5 120t155.5 40q38 0 101 -9zM262 780
q118 0 118 -114t-118 -114t-118 114t118 114zM222 712q-12 -14 -12 -46t12 -46t40 -14t40 14t12 46t-12 46t-40 14t-40 -14z" />
    <glyph glyph-name="ntilde.ss01" 
d="M264 632q-42 21 -62 21q-24 0 -40.5 -11.5t-34.5 -39.5l-41 65q51 71 120 71q43 0 98 -29q42 -21 62 -21q24 0 40.5 11.5t34.5 39.5l41 -65q-51 -71 -120 -71q-43 0 -98 29zM504 309v-309h-116v304q0 61 -27 88.5t-87 27.5q-46 0 -98 -11v-409h-116v478q105 34 218 34
q226 0 226 -203z" />
    <glyph glyph-name="uacute.ss01" 
d="M60 189v309h116v-304q0 -61 27 -88.5t87 -27.5q46 0 98 11v409h116v-478q-105 -34 -218 -34q-226 0 -226 203zM196 580l100 178h121l-129 -178h-92z" />
    <glyph glyph-name="ugrave.ss01" 
d="M60 189v309h116v-304q0 -61 27 -88.5t87 -27.5q46 0 98 11v409h116v-478q-105 -34 -218 -34q-226 0 -226 203zM279 580l-129 178h121l100 -178h-92z" />
    <glyph glyph-name="ucircumflex.ss01" 
d="M60 189v309h116v-304q0 -61 27 -88.5t87 -27.5q46 0 98 11v409h116v-478q-105 -34 -218 -34q-226 0 -226 203zM212 758h140l95 -178h-87l-78 116l-78 -116h-87z" />
    <glyph glyph-name="udieresis.ss01" 
d="M60 189v309h116v-304q0 -61 27 -88.5t87 -27.5q46 0 98 11v409h116v-478q-105 -34 -218 -34q-226 0 -226 203zM211 740v-140h-106v140h106zM459 740v-140h-106v140h106z" />
    <glyph glyph-name="mu.ss01" 
d="M388 89v409h116v-478q-108 -34 -206 -34q-84 0 -129 21l4 -207h-113v698h116v-304q0 -61 27 -88.5t87 -27.5q46 0 98 11z" />
    <glyph glyph-name="ordfeminine.ss01" horiz-adv-x="475" 
d="M311 289v108q-49 9 -87 9q-84 0 -84 -63t84 -63q38 0 87 9zM311 479v28q0 45 -19.5 64t-66.5 19q-50 0 -142 -31l-15 88q104 26 165 26q97 0 139.5 -41.5t42.5 -122.5v-281q-110 -29 -195 -29q-96 0 -140 36.5t-44 107.5q0 72 43.5 108t140.5 36q37 0 91 -8z" />
    <glyph glyph-name="ae.ss01" horiz-adv-x="861" 
d="M341 86v120q-50 10 -96 10q-93 0 -93 -70t93 -70q46 0 96 10zM585 420q-111 0 -126 -113h243q-8 113 -117 113zM616 78q86 0 177 28l20 -92q-108 -28 -211 -28q-94 0 -153 30q-120 -30 -209 -30q-107 0 -155.5 40t-48.5 120t48.5 120t155.5 40q38 0 101 -9v31
q0 49 -22 70.5t-73 21.5q-57 0 -158 -34l-17 98q115 28 184 28q111 0 160 -52q61 52 171 52q130 0 182 -69q52 -67 52 -194v-31h-363q5 -73 40.5 -106.5t118.5 -33.5z" />
    <glyph glyph-name="ydieresis.ss02" horiz-adv-x="696" 
d="M531 700h156l-274 -438v-262h-130v262l-274 438h156l183 -307zM268 897v-140h-106v140h106zM534 897v-140h-106v140h106z" />
    <glyph glyph-name="afii10066.ss02" horiz-adv-x="666" 
d="M204 308v-206q63 -10 131 -10q84 0 119.5 28t35.5 85t-35.5 85t-119.5 28q-68 0 -131 -10zM541 594h-337v-178q77 8 136 8q144 0 214 -54t70 -165t-70 -165t-214 -54q-126 0 -266 30v684h467v-106z" />
    <glyph glyph-name="afii10068.ss02" horiz-adv-x="532" 
d="M512 700v-106h-308v-594h-130v700h438z" />
    <glyph glyph-name="afii10072.ss02" horiz-adv-x="1002" 
d="M565 0h-128v700h128v-700zM850 -10l-261 365l217 345h145l-222 -334l260 -348zM51 700h145l217 -345l-261 -365l-139 28l260 348z" />
    <glyph glyph-name="afii10073.ss02" horiz-adv-x="603" 
d="M561 192q0 -47 -12.5 -82t-43.5 -64.5t-89 -44.5t-143 -15q-115 0 -240 30l18 114q120 -38 221 -38q155 0 155 108q0 107 -159 107q-64 0 -113 -3v111q74 -3 113 -3q72 0 102.5 23.5t30.5 73.5q0 99 -128 99q-77 0 -198 -33l-19 114q131 25 217 25q134 0 195 -47t61 -142
q0 -111 -85 -157q117 -44 117 -176z" />
    <glyph glyph-name="afii10077.ss02" horiz-adv-x="696" 
d="M622 700v-700h-130v594h-235v-99q0 -257 -54 -372q-26 -55 -58 -87.5t-79 -53.5l-57 95q20 12 28.5 18t20.5 18.5t24 31.5q21 32 31 71q28 98 28 281v203h481z" />
    <glyph glyph-name="afii10085.ss02" horiz-adv-x="659" 
d="M517 700h141l-229 -533q-46 -107 -99 -145q-52 -36 -135 -36q-41 0 -70 7l8 107q29 -8 52 -8q44 0 69.5 21t49.5 80l3 7h-84l-222 500h146l188 -433z" />
    <glyph glyph-name="afii10086.ss02" horiz-adv-x="894" 
d="M386 134v432q-108 0 -157.5 -53.5t-49.5 -162.5t49.5 -162.5t157.5 -53.5zM512 28v-88h-130v88q-337 0 -337 322t337 322v88h130v-88q337 0 337 -322t-337 -322zM508 566v-432q108 0 157.5 53.5t49.5 162.5t-49.5 162.5t-157.5 53.5z" />
    <glyph glyph-name="afii10089.ss02" horiz-adv-x="649" 
d="M445 373v327h130v-700h-130v269q-74 -13 -128 -13q-140 0 -205 60.5t-65 196.5v187h130v-184q0 -86 34 -120t122 -34q37 0 112 11z" />
    <glyph glyph-name="afii10092.ss02" horiz-adv-x="750" 
d="M429 330q-39 0 -102 -7v-220q57 -11 102 -11q153 0 153 119t-153 119zM197 16v578h-169v106h299v-272q72 8 105 8q139 0 211.5 -57t72.5 -168t-72.5 -168t-211.5 -57q-106 0 -235 30z" />
    <glyph glyph-name="afii10093.ss02" horiz-adv-x="894" 
d="M820 0h-130v700h130v-700zM306 330q-39 0 -102 -7v-220q57 -11 102 -11q153 0 153 119t-153 119zM74 16v684h130v-272q72 8 105 8q139 0 211.5 -57t72.5 -168t-72.5 -168t-211.5 -57q-106 0 -235 30z" />
    <glyph glyph-name="afii10094.ss02" horiz-adv-x="627" 
d="M306 330q-39 0 -102 -7v-220q57 -11 102 -11q153 0 153 119t-153 119zM74 16v684h130v-272q72 8 105 8q139 0 211.5 -57t72.5 -168t-72.5 -168t-211.5 -57q-106 0 -235 30z" />
    <glyph glyph-name="afii10095.ss02" horiz-adv-x="617" 
d="M241 92q92 0 139.5 49.5t55.5 155.5h-289v106h289q-8 106 -55.5 155.5t-139.5 49.5q-70 0 -177 -37l-19 119q132 24 206 24q144 0 227 -73q94 -80 94 -291q0 -210 -94 -292q-83 -72 -227 -72q-79 0 -206 26l19 116q105 -36 177 -36z" />
    <glyph glyph-name="afii10096.ss02" horiz-adv-x="1033" 
d="M537 547q-45 -61 -45 -197q0 -135 45 -197q45 -61 136 -61t136 61q45 62 45 197q0 136 -45 197t-136 61t-136 -61zM673 -14q-141 0 -223 71q-80 71 -91 241h-155v-298h-130v700h130v-296h155q11 168 92 239t222 71q152 0 233 -83q82 -82 82 -281q0 -200 -82 -282
q-81 -82 -233 -82z" />
    <glyph glyph-name="afii10097.ss02" horiz-adv-x="633" 
d="M326 380h103v219q-59 9 -103 9q-90 0 -120 -40q-23 -32 -23 -74q0 -114 143 -114zM164 -5l-138 20l155 287q-131 39 -131 192q0 220 275 220q96 0 234 -30v-684h-130v274h-122z" />
    <glyph glyph-name="afii10099.ss02" horiz-adv-x="809" 
d="M354 291v-291h-130v594h-204v106h582v-106h-248v-199q74 13 128 13q144 0 212 -69t68 -212q0 -259 -229 -287l-6 106q101 20 101 179q0 82 -29 126q-31 51 -133 51q-37 0 -112 -11z" />
    <glyph glyph-name="afii10099.ss01" horiz-adv-x="597" 
d="M209 382v-382h-116v565h-65v84h65v91h116v-91h173v-84h-173v-90q59 10 103 10q225 0 225 -203v-206q-3 -161 -52 -221.5t-169 -68.5l-10 92q69 6 92 48q23 43 23 152v199q0 61 -27 88.5t-87 27.5q-46 0 -98 -11z" />
    <glyph glyph-name="afii10101.ss02" horiz-adv-x="617" 
d="M366 -14q-144 0 -228 72q-93 82 -93 292t93 291q84 73 228 73q74 0 206 -24l-19 -119q-107 37 -177 37q-92 0 -139.5 -49.5t-55.5 -155.5h289v-106h-289q8 -106 55.5 -155.5t139.5 -49.5q72 0 177 36l19 -116q-127 -26 -206 -26z" />
    <glyph glyph-name="afii10106.ss02" horiz-adv-x="1045" 
d="M724 330q-39 0 -102 -7v-220q57 -11 102 -11q153 0 153 119t-153 119zM492 16v578h-235v-99q0 -176 -22 -280q-23 -108 -62 -157q-40 -51 -107 -76l-57 95q36 17 56 37t38 61q38 83 38 322v203h481v-272q72 8 105 8q139 0 211.5 -57t72.5 -168t-72.5 -168t-211.5 -57
q-106 0 -235 30z" />
    <glyph glyph-name="afii10107.ss02" horiz-adv-x="1049" 
d="M728 330q-39 0 -102 -7v-220q57 -11 102 -11q153 0 153 119t-153 119zM496 16v286h-292v-302h-130v700h130v-292h292v292h130v-272q72 8 105 8q139 0 211.5 -57t72.5 -168t-72.5 -168t-211.5 -57q-106 0 -235 30z" />
    <glyph glyph-name="afii10108.ss02" horiz-adv-x="799" 
d="M602 594h-248v-199q74 13 128 13q140 0 205 -60.5t65 -196.5v-151h-130v148q0 86 -34 120t-122 34q-37 0 -112 -11v-291h-130v594h-204v106h582v-106z" />
    <glyph glyph-name="afii10108.ss01" horiz-adv-x="597" 
d="M537 0h-116v277q0 61 -27 88.5t-87 27.5q-46 0 -98 -11v-382h-116v565h-65v84h65v91h116v-91h173v-84h-173v-90q59 10 103 10q225 0 225 -203v-282z" />
    <glyph glyph-name="afii10110.ss02" horiz-adv-x="659" 
d="M517 700h141l-229 -533q-46 -107 -99 -145q-52 -36 -135 -36q-41 0 -70 7l8 107q29 -8 52 -8q44 0 69.5 21t49.5 80l3 7h-84l-222 500h146l188 -433zM459 902l73 -61q-61 -97 -194 -97t-194 97l73 61q39 -64 121 -64t121 64z" />
    <glyph glyph-name="afii10193.ss01" 
d="M226 -180v133h114v-133h-114zM60 189v309h116v-304q0 -61 27 -88.5t87 -27.5q46 0 98 11v409h116v-478q-105 -34 -218 -34q-226 0 -226 203z" />
    <glyph glyph-name="afii10068.ss01" horiz-adv-x="383" 
d="M372 508l-2 -100q-43 5 -79 5q-54 0 -115 -11v-402h-116v478q105 34 219 34q46 0 93 -4z" />
    <glyph glyph-name="afii10074.ss01" 
d="M60 189v309h116v-304q0 -61 27 -88.5t87 -27.5q46 0 98 11v409h116v-478q-105 -34 -218 -34q-226 0 -226 203z" />
    <glyph glyph-name="afii10075.ss01" 
d="M60 189v309h116v-304q0 -61 27 -88.5t87 -27.5q46 0 98 11v409h116v-478q-105 -34 -218 -34q-226 0 -226 203zM394 744l68 -56q-56 -90 -180 -90t-180 90l68 56q38 -59 112 -59t112 59z" />
    <glyph glyph-name="afii10088.ss01" horiz-adv-x="589" 
d="M388 89v409h116v-395h63v-243h-98l-10 149q-90 -23 -174 -23q-225 0 -225 203v309h116v-304q0 -61 27 -88.5t87 -27.5q46 0 98 11z" />
    <glyph glyph-name="afii10090.ss01" horiz-adv-x="814" 
d="M176 498v-223q0 -105 34 -148q34 -42 139 -48v419h116v-420q76 2 173 18v402h116v-478q-204 -34 -348 -34q-214 0 -283 72q-36 37 -49.5 85.5t-13.5 126.5v228h116z" />
    <glyph glyph-name="afii10091.ss01" horiz-adv-x="839" 
d="M406 -14q-214 0 -283 72q-36 37 -49.5 85.5t-13.5 126.5v228h116v-223q0 -105 34 -148q34 -42 139 -48v419h116v-420q76 2 173 18v402h116v-395h63v-243h-98l-10 152q-179 -26 -303 -26z" />
    <glyph glyph-name="afii10067.ss02" horiz-adv-x="666" 
d="M204 598v-185h114q74 0 104 25t30 73q0 97 -134 97q-55 0 -114 -10zM490 199q0 54 -35 81t-118 27h-133v-205q66 -10 133 -10q153 0 153 107zM582 526q0 -113 -85 -155q127 -45 127 -181q0 -204 -283 -204q-127 0 -267 30v668q150 30 247 30q138 0 199.5 -46t61.5 -142z
" />
    <glyph glyph-name="afii10069.ss02" horiz-adv-x="745" 
d="M26 -130v236h47q44 50 70 158.5t26 267.5v168h470v-594h76v-236h-115l-10 130h-439l-10 -130h-115zM509 594h-221v-64q0 -147 -24 -260t-55 -164h300v488z" />
    <glyph glyph-name="afii10076.ss02" horiz-adv-x="675" 
d="M513 -9l-284 364l248 345h152l-248 -334l281 -350zM74 700h130v-700h-130v700z" />
    <glyph glyph-name="afii10078.ss02" horiz-adv-x="920" 
d="M427 286l33 -104l33 104l154 414h169l48 -700h-129l-21 392q-3 51 -3 145q-32 -102 -47 -141l-147 -396h-114l-147 396q-15 39 -47 141q0 -94 -3 -145l-21 -392h-129l48 700h169z" />
    <glyph glyph-name="afii10079.ss02" horiz-adv-x="700" 
d="M626 700v-700h-130v302h-292v-302h-130v700h130v-292h292v292h130z" />
    <glyph glyph-name="afii10080.ss02" horiz-adv-x="734" 
d="M225 547q-46 -61 -46 -197t46 -197t142 -61t142 61t46 197t-46 197t-142 61t-142 -61zM666 526q23 -74 23 -176t-23 -177q-42 -129 -169 -170q-57 -17 -130 -17t-130 17q-127 41 -169 170q-23 75 -23 177t23 176q42 131 169 170q56 18 130 18q75 0 130 -18
q127 -39 169 -170z" />
    <glyph glyph-name="afii10082.ss02" horiz-adv-x="617" 
d="M204 0h-130v684q140 30 233 30q276 0 276 -231t-276 -231q-43 0 -103 7v-259zM204 599v-232q58 -9 101 -9q45 0 75.5 11t44.5 30.5t19.5 39t5.5 44.5t-5.5 44.5t-19.5 39t-44.5 30.5t-75.5 11q-43 0 -101 -9z" />
    <glyph glyph-name="afii10083.ss02" horiz-adv-x="617" 
d="M366 714q74 0 206 -24l-19 -119q-107 37 -177 37q-102 0 -149.5 -61.5t-47.5 -196.5t47.5 -196.5t149.5 -61.5q72 0 177 36l19 -116q-127 -26 -206 -26q-144 0 -228 72q-93 82 -93 292t93 291q84 73 228 73z" />
    <glyph glyph-name="afii10084.ss02" horiz-adv-x="622" 
d="M602 700v-106h-226v-594h-130v594h-226v106h582z" />
    <glyph glyph-name="afii10087.ss02" horiz-adv-x="686" 
d="M505 0l-162 264l-161 -264h-157l229 355l-220 345h157l152 -254l152 254h157l-220 -345l229 -355h-156z" />
    <glyph glyph-name="afii10103.ss02" horiz-adv-x="278" 
d="M204 700v-700h-130v700h130z" />
    <glyph glyph-name="afii10100.ss02" horiz-adv-x="532" 
d="M512 700v-106h-308v-594h-130v700h438zM305 916h128l-130 -178h-98z" />
    <glyph glyph-name="afii10100.ss01" horiz-adv-x="383" 
d="M372 508l-2 -100q-43 5 -79 5q-54 0 -115 -11v-402h-116v478q105 34 219 34q46 0 93 -4zM147 580l100 178h121l-129 -178h-92z" />
    <glyph glyph-name="afii10105.ss02" horiz-adv-x="454" 
d="M132 -14q-62 0 -115 10l15 112q45 -16 93 -16q71 0 101 33q31 32 31 128v447h130v-450q0 -135 -57 -200q-57 -64 -198 -64z" />
    <glyph glyph-name="afii10102.ss02" horiz-adv-x="604" 
d="M297 92q66 0 97 24t31 75q0 44 -24.5 69t-86.5 34l-37 5q-116 15 -167.5 65.5t-51.5 145.5q0 204 245 204q87 0 229 -30l-18 -119q-126 43 -208 43q-115 0 -115 -95q0 -44 22 -66t91 -33l37 -6q137 -23 180 -86q38 -52 38 -127q0 -209 -262 -209q-106 0 -256 36l20 125
q120 -55 236 -55z" />
    <glyph glyph-name="afii10109.ss02" horiz-adv-x="675" 
d="M513 -9l-284 364l248 345h152l-248 -334l281 -350zM74 700h130v-700h-130v700zM352 916h128l-130 -178h-98z" />
    <glyph glyph-name="afii10065.ss01" horiz-adv-x="517" 
d="M341 86v120q-50 10 -96 10q-93 0 -93 -70t93 -70q46 0 96 10zM341 297v31q0 49 -22 70.5t-73 21.5q-57 0 -158 -34l-17 98q115 28 184 28q108 0 155 -46t47 -136v-312q-123 -32 -217 -32q-107 0 -155.5 40t-48.5 120t48.5 120t155.5 40q38 0 101 -9z" />
    <glyph glyph-name="afii10081.ss01" 
d="M504 309v-309h-116v304q0 61 -27 88.5t-87 27.5q-46 0 -98 -11v-409h-116v478q105 34 218 34q226 0 226 -203z" />
    <glyph glyph-name="afii10082.ss01" horiz-adv-x="577" 
d="M176 407v-316q53 -13 106 -13q134 0 134 171t-134 171q-53 0 -106 -13zM176 -200h-116v678q108 34 225 34q125 0 187.5 -63.5t62.5 -199.5t-62.5 -199.5t-187.5 -63.5q-50 0 -109 8v-194z" />
    <glyph glyph-name="afii10104.ss02" horiz-adv-x="278" 
d="M97 897v-140h-102v140h102zM283 897v-140h-102v140h102zM204 700v-700h-130v700h130z" />
    <glyph glyph-name="afii10098.ss01" horiz-adv-x="383" 
d="M284 615h88v-207q-43 5 -81 5q-54 0 -115 -11v-402h-116v478q103 34 218 34z" />
    <glyph glyph-name="afii10098.ss02" horiz-adv-x="532" 
d="M512 810v-216h-308v-594h-130v700h333l7 110h98z" />
    <glyph glyph-name="eth.ss02" horiz-adv-x="739" 
d="M19 403h77v281q124 30 241 30q188 0 272.5 -88.5t84.5 -275.5t-84.5 -275.5t-272.5 -88.5q-117 0 -241 30v282h-77v105zM360 298h-134v-197q68 -9 108 -9q121 0 173.5 60.5t52.5 197.5t-52.5 197.5t-173.5 60.5q-40 0 -108 -9v-196h134v-105z" />
    <glyph glyph-name="afii10080.ss02.accented" horiz-adv-x="734" 
d="M225 547q-46 -61 -46 -197t46 -197t142 -61t142 61t46 197t-46 197t-142 61t-142 -61zM666 526q23 -74 23 -176t-23 -177q-42 -129 -169 -170q-57 -17 -130 -17t-130 17q-127 41 -169 170q-23 75 -23 177t23 176q42 131 169 170q56 18 130 18q75 0 130 -18
q127 -39 169 -170zM413 916h128l-130 -178h-98z" />
    <glyph glyph-name="afii10085.ss02.accented" horiz-adv-x="659" 
d="M517 700h141l-229 -533q-46 -107 -99 -145q-52 -36 -135 -36q-41 0 -70 7l8 107q29 -8 52 -8q44 0 69.5 21t49.5 80l3 7h-84l-222 500h146l188 -433zM354 916h128l-130 -178h-98z" />
    <glyph glyph-name="afii10093.ss02.accented" horiz-adv-x="894" 
d="M820 0h-130v700h130v-700zM306 330q-39 0 -102 -7v-220q57 -11 102 -11q153 0 153 119t-153 119zM74 16v684h130v-272q72 8 105 8q139 0 211.5 -57t72.5 -168t-72.5 -168t-211.5 -57q-106 0 -235 30zM431 916h128l-130 -178h-98z" />
    <glyph glyph-name="afii10095.ss02.accented" horiz-adv-x="617" 
d="M241 92q92 0 139.5 49.5t55.5 155.5h-289v106h289q-8 106 -55.5 155.5t-139.5 49.5q-70 0 -177 -37l-19 119q132 24 206 24q144 0 227 -73q94 -80 94 -291q0 -210 -94 -292q-83 -72 -227 -72q-79 0 -206 26l19 116q105 -36 177 -36zM309 916h128l-130 -178h-98z" />
    <glyph glyph-name="afii10096.ss02.accented" horiz-adv-x="1033" 
d="M537 547q-45 -61 -45 -197q0 -135 45 -197q45 -61 136 -61t136 61q45 62 45 197q0 136 -45 197t-136 61t-136 -61zM673 -14q-141 0 -223 71q-80 71 -91 241h-155v-298h-130v700h130v-296h155q11 168 92 239t222 71q152 0 233 -83q82 -82 82 -281q0 -200 -82 -282
q-81 -82 -233 -82zM491 916h128l-130 -178h-98z" />
    <glyph glyph-name="afii10097.ss02.accented" horiz-adv-x="633" 
d="M326 380h103v219q-59 9 -103 9q-90 0 -120 -40q-23 -32 -23 -74q0 -114 143 -114zM164 -5l-138 20l155 287q-131 39 -131 192q0 220 275 220q96 0 234 -30v-684h-130v274h-122zM358 916h128l-130 -178h-98z" />
    <glyph glyph-name="afii10065.ss01.accented" horiz-adv-x="517" 
d="M341 86v120q-50 10 -96 10q-93 0 -93 -70t93 -70q46 0 96 10zM341 297v31q0 49 -22 70.5t-73 21.5q-57 0 -158 -34l-17 98q115 28 184 28q108 0 155 -46t47 -136v-312q-123 -32 -217 -32q-107 0 -155.5 40t-48.5 120t48.5 120t155.5 40q38 0 101 -9zM186 580l100 178h121
l-129 -178h-92z" />
    <glyph glyph-name="afii10074.ss01.accented" 
d="M60 189v309h116v-304q0 -61 27 -88.5t87 -27.5q46 0 98 11v409h116v-478q-105 -34 -218 -34q-226 0 -226 203zM216 580l100 178h121l-129 -178h-92z" />
    <glyph glyph-name="a.ss02" horiz-adv-x="665" 
d="M465 110v188q-73 18 -137 18q-97 0 -126 -38q-23 -29 -23 -74t23 -75q29 -37 126 -37q64 0 137 18zM310 422q66 0 155 -14v51q0 81 -32 115t-110 34q-81 0 -212 -48l-20 116q160 38 243 38q136 0 198.5 -62.5t62.5 -190.5v-434q-166 -41 -285 -41q-128 0 -194 48
q-73 59 -71 170q0 68 26 118q54 100 239 100z" />
    <glyph glyph-name="e.ss02" horiz-adv-x="707" 
d="M392 92q105 0 240 41l20 -106q-150 -41 -270 -41q-158 0 -239 68q-37 31 -60 80q-38 84 -38 216q0 184 76 274t241 90q155 0 227.5 -87.5t72.5 -268.5v-42h-482q3 -41 6 -68q5 -28 17 -59q18 -47 61.5 -70t127.5 -27zM362 608q-160 0 -180 -186h345q-6 94 -44.5 140
t-120.5 46z" />
    <glyph glyph-name="m.ss02" horiz-adv-x="1130" 
d="M630 0h-130v432q0 92 -40 134t-125 42q-59 0 -131 -12v-596h-130v683q133 31 268 31q117 0 187 -49q134 49 231 49q148 0 222 -73t74 -204v-437h-130v432q0 92 -40 134t-127 42q-71 0 -155 -34q26 -58 26 -137v-437z" />
    <glyph glyph-name="n.ss02" horiz-adv-x="721" 
d="M647 437v-437h-130v432q0 92 -42.5 134t-132.5 42q-62 0 -138 -12v-596h-130v683q137 31 276 31q147 0 222 -72t75 -205z" />
    <glyph glyph-name="u.ss02" horiz-adv-x="721" 
d="M74 263v437h130v-432q0 -92 42.5 -134t132.5 -42q61 0 138 12v596h130v-683q-137 -31 -276 -31q-147 0 -222 72t-75 205z" />
    <glyph glyph-name="aacute.ss02" horiz-adv-x="665" 
d="M465 110v188q-73 18 -137 18q-97 0 -126 -38q-23 -29 -23 -74t23 -75q29 -37 126 -37q64 0 137 18zM310 422q66 0 155 -14v51q0 81 -32 115t-110 34q-81 0 -212 -48l-20 116q160 38 243 38q136 0 198.5 -62.5t62.5 -190.5v-434q-166 -41 -285 -41q-128 0 -194 48
q-73 59 -71 170q0 68 26 118q54 100 239 100zM356 916h128l-130 -178h-98z" />
    <glyph glyph-name="agrave.ss02" horiz-adv-x="665" 
d="M465 110v188q-73 18 -137 18q-97 0 -126 -38q-23 -29 -23 -74t23 -75q29 -37 126 -37q64 0 137 18zM310 422q66 0 155 -14v51q0 81 -32 115t-110 34q-81 0 -212 -48l-20 116q160 38 243 38q136 0 198.5 -62.5t62.5 -190.5v-434q-166 -41 -285 -41q-128 0 -194 48
q-73 59 -71 170q0 68 26 118q54 100 239 100zM420 738h-98l-130 178h128z" />
    <glyph glyph-name="acircumflex.ss02" horiz-adv-x="665" 
d="M465 110v188q-73 18 -137 18q-97 0 -126 -38q-23 -29 -23 -74t23 -75q29 -37 126 -37q64 0 137 18zM310 422q66 0 155 -14v51q0 81 -32 115t-110 34q-81 0 -212 -48l-20 116q160 38 243 38q136 0 198.5 -62.5t62.5 -190.5v-434q-166 -41 -285 -41q-128 0 -194 48
q-73 59 -71 170q0 68 26 118q54 100 239 100zM409 738l-81 117l-81 -117h-90l99 178h144l99 -178h-90z" />
    <glyph glyph-name="adieresis.ss02" horiz-adv-x="665" 
d="M465 110v188q-73 18 -137 18q-97 0 -126 -38q-23 -29 -23 -74t23 -75q29 -37 126 -37q64 0 137 18zM310 422q66 0 155 -14v51q0 81 -32 115t-110 34q-81 0 -212 -48l-20 116q160 38 243 38q136 0 198.5 -62.5t62.5 -190.5v-434q-166 -41 -285 -41q-128 0 -194 48
q-73 59 -71 170q0 68 26 118q54 100 239 100zM249 897v-140h-106v140h106zM515 897v-140h-106v140h106z" />
    <glyph glyph-name="atilde.ss02" horiz-adv-x="665" 
d="M465 110v188q-73 18 -137 18q-97 0 -126 -38q-23 -29 -23 -74t23 -75q29 -37 126 -37q64 0 137 18zM310 422q66 0 155 -14v51q0 81 -32 115t-110 34q-81 0 -212 -48l-20 116q160 38 243 38q136 0 198.5 -62.5t62.5 -190.5v-434q-166 -41 -285 -41q-128 0 -194 48
q-73 59 -71 170q0 68 26 118q54 100 239 100zM306 790q-48 23 -66 23q-46 0 -81 -56l-45 71q31 41 60 58.5t70 17.5q47 0 106 -31q48 -23 66 -23q46 0 81 56l45 -71q-31 -41 -60 -58.5t-70 -17.5q-47 0 -106 31z" />
    <glyph glyph-name="aring.ss02" horiz-adv-x="665" 
d="M465 110v188q-73 18 -137 18q-97 0 -126 -38q-23 -29 -23 -74t23 -75q29 -37 126 -37q64 0 137 18zM310 422q66 0 155 -14v51q0 81 -32 115t-110 34q-81 0 -212 -48l-20 116q160 38 243 38q136 0 198.5 -62.5t62.5 -190.5v-434q-166 -41 -285 -41q-128 0 -194 48
q-73 59 -71 170q0 68 26 118q54 100 239 100zM328 945q118 0 118 -114t-118 -114t-118 114t118 114zM288 877q-12 -13 -12 -46t12 -46q12 -14 40 -14t40 14q12 13 12 46t-12 46q-12 14 -40 14t-40 -14z" />
    <glyph glyph-name="eacute.ss02" horiz-adv-x="707" 
d="M392 92q105 0 240 41l20 -106q-150 -41 -270 -41q-158 0 -239 68q-37 31 -60 80q-38 84 -38 216q0 184 76 274t241 90q155 0 227.5 -87.5t72.5 -268.5v-42h-482q3 -41 6 -68q5 -28 17 -59q18 -47 61.5 -70t127.5 -27zM362 608q-160 0 -180 -186h345q-6 94 -44.5 140
t-120.5 46zM380 916h128l-130 -178h-98z" />
    <glyph glyph-name="egrave.ss02" horiz-adv-x="707" 
d="M392 92q105 0 240 41l20 -106q-150 -41 -270 -41q-158 0 -239 68q-37 31 -60 80q-38 84 -38 216q0 184 76 274t241 90q155 0 227.5 -87.5t72.5 -268.5v-42h-482q3 -41 6 -68q5 -28 17 -59q18 -47 61.5 -70t127.5 -27zM362 608q-160 0 -180 -186h345q-6 94 -44.5 140
t-120.5 46zM449 738h-98l-130 178h128z" />
    <glyph glyph-name="ecircumflex.ss02" horiz-adv-x="707" 
d="M392 92q105 0 240 41l20 -106q-150 -41 -270 -41q-158 0 -239 68q-37 31 -60 80q-38 84 -38 216q0 184 76 274t241 90q155 0 227.5 -87.5t72.5 -268.5v-42h-482q3 -41 6 -68q5 -28 17 -59q18 -47 61.5 -70t127.5 -27zM362 608q-160 0 -180 -186h345q-6 94 -44.5 140
t-120.5 46zM435 738l-81 117l-81 -117h-90l99 178h144l99 -178h-90z" />
    <glyph glyph-name="edieresis.ss02" horiz-adv-x="707" 
d="M392 92q105 0 240 41l20 -106q-150 -41 -270 -41q-158 0 -239 68q-37 31 -60 80q-38 84 -38 216q0 184 76 274t241 90q155 0 227.5 -87.5t72.5 -268.5v-42h-482q3 -41 6 -68q5 -28 17 -59q18 -47 61.5 -70t127.5 -27zM362 608q-160 0 -180 -186h345q-6 94 -44.5 140
t-120.5 46zM274 897v-140h-106v140h106zM540 897v-140h-106v140h106z" />
    <glyph glyph-name="uacute.ss02" horiz-adv-x="721" 
d="M74 263v437h130v-432q0 -92 42.5 -134t132.5 -42q61 0 138 12v596h130v-683q-137 -31 -276 -31q-147 0 -222 72t-75 205zM376 916h128l-130 -178h-98z" />
    <glyph glyph-name="ugrave.ss02" horiz-adv-x="721" 
d="M74 263v437h130v-432q0 -92 42.5 -134t132.5 -42q61 0 138 12v596h130v-683q-137 -31 -276 -31q-147 0 -222 72t-75 205zM440 738h-98l-130 178h128z" />
    <glyph glyph-name="ucircumflex.ss02" horiz-adv-x="721" 
d="M74 263v437h130v-432q0 -92 42.5 -134t132.5 -42q61 0 138 12v596h130v-683q-137 -31 -276 -31q-147 0 -222 72t-75 205zM442 738l-81 117l-81 -117h-90l99 178h144l99 -178h-90z" />
    <glyph glyph-name="udieresis.ss02" horiz-adv-x="721" 
d="M74 263v437h130v-432q0 -92 42.5 -134t132.5 -42q61 0 138 12v596h130v-683q-137 -31 -276 -31q-147 0 -222 72t-75 205zM281 897v-140h-106v140h106zM547 897v-140h-106v140h106z" />
    <glyph glyph-name="ae.ss02" horiz-adv-x="1122" 
d="M465 110v188q-73 18 -137 18q-97 0 -126 -38q-23 -29 -23 -74t23 -75q29 -37 126 -37q64 0 137 18zM777 608q-161 0 -180 -186h345q-6 94 -44.5 140t-120.5 46zM807 92q105 0 240 41l20 -106q-150 -41 -270 -41q-133 0 -210 48v-9q-165 -39 -277 -39q-128 0 -194 48
q-73 59 -71 170q0 68 26 118q54 100 239 100q66 0 155 -14v51q0 81 -32 115t-110 34q-81 0 -212 -48l-20 116q160 38 243 38q151 0 212 -79q76 79 231 79t227.5 -87.5t72.5 -268.5v-42h-482q3 -41 6 -68q5 -28 17 -59q18 -47 61.5 -70t127.5 -27z" />
    <glyph glyph-name="oe.ss02" horiz-adv-x="1217" 
d="M225 547q-46 -61 -46 -197t46 -197t142 -61t142 61t46 197t-46 197t-142 61t-142 -61zM872 608q-160 0 -180 -186h345q-6 94 -44.5 140t-120.5 46zM902 92q105 0 240 41l20 -106q-150 -41 -270 -41q-190 0 -270 102q-76 -102 -255 -102q-146 0 -231 75q-91 80 -91 289
t91 289q85 75 231 75q179 0 255 -102q76 102 250 102q155 0 227.5 -87.5t72.5 -268.5v-42h-482q3 -41 6 -68q5 -28 17 -59q18 -47 61.5 -70t127.5 -27z" />
    <glyph glyph-name="e.ss02.alt" horiz-adv-x="603" 
d="M42 192q0 132 117 176q-85 46 -85 157q0 95 61 142t195 47q86 0 217 -25l-19 -114q-122 33 -198 33q-128 0 -128 -99q0 -50 30.5 -73.5t102.5 -23.5q39 0 113 3v-111q-49 3 -113 3q-159 0 -159 -107q0 -108 155 -108q101 0 221 38l18 -114q-124 -30 -240 -30
q-85 0 -143 15t-89 44.5t-43.5 64.5t-12.5 82z" />
    <glyph glyph-name="eacute.ss02.alt" horiz-adv-x="603" 
d="M42 192q0 132 117 176q-85 46 -85 157q0 95 61 142t195 47q86 0 217 -25l-19 -114q-122 33 -198 33q-128 0 -128 -99q0 -50 30.5 -73.5t102.5 -23.5q39 0 113 3v-111q-49 3 -113 3q-159 0 -159 -107q0 -108 155 -108q101 0 221 38l18 -114q-124 -30 -240 -30
q-85 0 -143 15t-89 44.5t-43.5 64.5t-12.5 82zM369 916h128l-130 -178h-98z" />
    <glyph glyph-name="egrave.ss02.alt" horiz-adv-x="603" 
d="M42 192q0 132 117 176q-85 46 -85 157q0 95 61 142t195 47q86 0 217 -25l-19 -114q-122 33 -198 33q-128 0 -128 -99q0 -50 30.5 -73.5t102.5 -23.5q39 0 113 3v-111q-49 3 -113 3q-159 0 -159 -107q0 -108 155 -108q101 0 221 38l18 -114q-124 -30 -240 -30
q-85 0 -143 15t-89 44.5t-43.5 64.5t-12.5 82zM397 738h-98l-130 178h128z" />
    <glyph glyph-name="ecircumflex.ss02.alt" horiz-adv-x="603" 
d="M42 192q0 132 117 176q-85 46 -85 157q0 95 61 142t195 47q86 0 217 -25l-19 -114q-122 33 -198 33q-128 0 -128 -99q0 -50 30.5 -73.5t102.5 -23.5q39 0 113 3v-111q-49 3 -113 3q-159 0 -159 -107q0 -108 155 -108q101 0 221 38l18 -114q-124 -30 -240 -30
q-85 0 -143 15t-89 44.5t-43.5 64.5t-12.5 82zM392 738l-81 117l-81 -117h-90l99 178h144l99 -178h-90z" />
    <glyph glyph-name="edieresis.ss02.alt" horiz-adv-x="603" 
d="M42 192q0 132 117 176q-85 46 -85 157q0 95 61 142t195 47q86 0 217 -25l-19 -114q-122 33 -198 33q-128 0 -128 -99q0 -50 30.5 -73.5t102.5 -23.5q39 0 113 3v-111q-49 3 -113 3q-159 0 -159 -107q0 -108 155 -108q101 0 221 38l18 -114q-124 -30 -240 -30
q-85 0 -143 15t-89 44.5t-43.5 64.5t-12.5 82zM231 897v-140h-106v140h106zM497 897v-140h-106v140h106z" />
    <glyph glyph-name="afii10193.ss02" horiz-adv-x="721" 
d="M297 -180v133h128v-133h-128zM74 263v437h130v-432q0 -92 42.5 -134t132.5 -42q61 0 138 12v596h130v-683q-137 -31 -276 -31q-147 0 -222 72t-75 205z" />
    <glyph glyph-name="afii10070.ss02" horiz-adv-x="707" 
d="M392 92q105 0 240 41l20 -106q-150 -41 -270 -41q-158 0 -239 68q-37 31 -60 80q-38 84 -38 216q0 184 76 274t241 90q155 0 227.5 -87.5t72.5 -268.5v-42h-482q3 -41 6 -68q5 -28 17 -59q18 -47 61.5 -70t127.5 -27zM362 608q-160 0 -180 -186h345q-6 94 -44.5 140
t-120.5 46z" />
    <glyph glyph-name="afii10071.ss02" horiz-adv-x="707" 
d="M392 92q105 0 240 41l20 -106q-150 -41 -270 -41q-158 0 -239 68q-37 31 -60 80q-38 84 -38 216q0 184 76 274t241 90q155 0 227.5 -87.5t72.5 -268.5v-42h-482q3 -41 6 -68q5 -28 17 -59q18 -47 61.5 -70t127.5 -27zM362 608q-160 0 -180 -186h345q-6 94 -44.5 140
t-120.5 46zM274 897v-140h-106v140h106zM540 897v-140h-106v140h106z" />
    <glyph glyph-name="afii10065.ss02" horiz-adv-x="665" 
d="M465 110v188q-73 18 -137 18q-97 0 -126 -38q-23 -29 -23 -74t23 -75q29 -37 126 -37q64 0 137 18zM310 422q66 0 155 -14v51q0 81 -32 115t-110 34q-81 0 -212 -48l-20 116q160 38 243 38q136 0 198.5 -62.5t62.5 -190.5v-434q-166 -41 -285 -41q-128 0 -194 48
q-73 59 -71 170q0 68 26 118q54 100 239 100z" />
    <glyph glyph-name="afii10074.ss02" horiz-adv-x="721" 
d="M74 263v437h130v-432q0 -92 42.5 -134t132.5 -42q61 0 138 12v596h130v-683q-137 -31 -276 -31q-147 0 -222 72t-75 205z" />
    <glyph glyph-name="afii10075.ss02" horiz-adv-x="721" 
d="M74 263v437h130v-432q0 -92 42.5 -134t132.5 -42q61 0 138 12v596h130v-683q-137 -31 -276 -31q-147 0 -222 72t-75 205zM482 902l73 -61q-61 -97 -194 -97t-194 97l73 61q39 -64 121 -64t121 64z" />
    <glyph glyph-name="afii10088.ss02" horiz-adv-x="748" 
d="M517 104v596h130v-581h76v-249h-115l-10 138q-114 -22 -227 -22q-147 0 -222 72t-75 205v437h130v-432q0 -92 42.5 -134t132.5 -42q61 0 138 12z" />
    <glyph glyph-name="afii10090.ss02" horiz-adv-x="991" 
d="M432 700h129v-607q125 0 226 25v582h130v-664q-226 -50 -415 -50q-210 0 -315 65q-44 28 -72 73q-25 42 -33 81t-8 97v398h130v-393q0 -105 50 -157q49 -50 178 -55v605z" />
    <glyph glyph-name="afii10091.ss02" horiz-adv-x="1018" 
d="M502 -14q-210 0 -315 65q-44 28 -72 73q-25 42 -33 81t-8 97v398h130v-393q0 -105 50 -157q49 -50 178 -55v605h129v-607q125 0 226 25v582h130v-574h76v-256h-115l-10 154q-204 -38 -366 -38z" />
    <glyph glyph-name="afii10081.ss02" horiz-adv-x="721" 
d="M647 437v-437h-130v432q0 92 -42.5 134t-132.5 42q-62 0 -138 -12v-596h-130v683q137 31 276 31q147 0 222 -72t75 -205z" />
    <glyph glyph-name="afii10070.ss02.alt" horiz-adv-x="603" 
d="M42 192q0 132 117 176q-85 46 -85 157q0 95 61 142t195 47q86 0 217 -25l-19 -114q-122 33 -198 33q-128 0 -128 -99q0 -50 30.5 -73.5t102.5 -23.5q39 0 113 3v-111q-49 3 -113 3q-159 0 -159 -107q0 -108 155 -108q101 0 221 38l18 -114q-124 -30 -240 -30
q-85 0 -143 15t-89 44.5t-43.5 64.5t-12.5 82z" />
    <glyph glyph-name="afii10071.ss02.alt" horiz-adv-x="603" 
d="M42 192q0 132 117 176q-85 46 -85 157q0 95 61 142t195 47q86 0 217 -25l-19 -114q-122 33 -198 33q-128 0 -128 -99q0 -50 30.5 -73.5t102.5 -23.5q39 0 113 3v-111q-49 3 -113 3q-159 0 -159 -107q0 -108 155 -108q101 0 221 38l18 -114q-124 -30 -240 -30
q-85 0 -143 15t-89 44.5t-43.5 64.5t-12.5 82zM231 897v-140h-106v140h106zM497 897v-140h-106v140h106z" />
    <glyph glyph-name="afii10070.ss02.accented" horiz-adv-x="707" 
d="M392 92q105 0 240 41l20 -106q-150 -41 -270 -41q-158 0 -239 68q-37 31 -60 80q-38 84 -38 216q0 184 76 274t241 90q155 0 227.5 -87.5t72.5 -268.5v-42h-482q3 -41 6 -68q5 -28 17 -59q18 -47 61.5 -70t127.5 -27zM362 608q-160 0 -180 -186h345q-6 94 -44.5 140
t-120.5 46zM380 916h128l-130 -178h-98z" />
    <glyph glyph-name="afii10071.ss02.accented" horiz-adv-x="707" 
d="M227 911v-140h-106v140h106zM586 911v-140h-106v140h106zM337 926h128l-130 -178h-98zM392 92q105 0 240 41l20 -106q-150 -41 -270 -41q-158 0 -239 68q-37 31 -60 80q-38 84 -38 216q0 184 76 274t241 90q155 0 227.5 -87.5t72.5 -268.5v-42h-482q3 -41 6 -68
q5 -28 17 -59q18 -47 61.5 -70t127.5 -27zM362 608q-160 0 -180 -186h345q-6 94 -44.5 140t-120.5 46z" />
    <glyph glyph-name="afii10071.ss02.accented.alt" horiz-adv-x="603" 
d="M187 911v-140h-106v140h106zM546 911v-140h-106v140h106zM297 926h128l-130 -178h-98zM42 192q0 132 117 176q-85 46 -85 157q0 95 61 142t195 47q86 0 217 -25l-19 -114q-122 33 -198 33q-128 0 -128 -99q0 -50 30.5 -73.5t102.5 -23.5q39 0 113 3v-111q-49 3 -113 3
q-159 0 -159 -107q0 -108 155 -108q101 0 221 38l18 -114q-124 -30 -240 -30q-85 0 -143 15t-89 44.5t-43.5 64.5t-12.5 82z" />
    <glyph glyph-name="afii10074.ss02.accented" horiz-adv-x="721" 
d="M74 263v437h130v-432q0 -92 42.5 -134t132.5 -42q61 0 138 12v596h130v-683q-137 -31 -276 -31q-147 0 -222 72t-75 205zM376 916h128l-130 -178h-98z" />
    <glyph glyph-name="afii10070.ss02.accented.alt" horiz-adv-x="603" 
d="M42 192q0 132 117 176q-85 46 -85 157q0 95 61 142t195 47q86 0 217 -25l-19 -114q-122 33 -198 33q-128 0 -128 -99q0 -50 30.5 -73.5t102.5 -23.5q39 0 113 3v-111q-49 3 -113 3q-159 0 -159 -107q0 -108 155 -108q101 0 221 38l18 -114q-124 -30 -240 -30
q-85 0 -143 15t-89 44.5t-43.5 64.5t-12.5 82zM369 916h128l-130 -178h-98z" />
    <glyph glyph-name="afii10065.ss02.accented" horiz-adv-x="665" 
d="M465 110v188q-73 18 -137 18q-97 0 -126 -38q-23 -29 -23 -74t23 -75q29 -37 126 -37q64 0 137 18zM310 422q66 0 155 -14v51q0 81 -32 115t-110 34q-81 0 -212 -48l-20 116q160 38 243 38q136 0 198.5 -62.5t62.5 -190.5v-434q-166 -41 -285 -41q-128 0 -194 48
q-73 59 -71 170q0 68 26 118q54 100 239 100zM356 916h128l-130 -178h-98z" />
    <glyph glyph-name="ordfeminine.ss02" horiz-adv-x="509" 
d="M330 262v111q-44 10 -81 10q-50 0 -71 -16t-21 -50q0 -33 21 -49t71 -16q42 0 81 10zM230 471q37 0 100 -9v31q0 49 -20.5 71t-70.5 22q-51 0 -147 -35l-16 95q115 28 174 28q100 0 144.5 -45t44.5 -134v-302q-118 -29 -209 -29q-104 0 -145 42q-40 41 -40 111t40 111
q40 43 145 43z" />
    <glyph glyph-name="ordmasculine.ss02" horiz-adv-x="548" 
d="M362 291q29 41 29 128q0 86 -29 126q-28 40 -88 40q-61 0 -89 -40q-28 -38 -28 -126t28 -128t89 -40q60 0 88 40zM45 419q0 135 57 195t172 60t172 -60t57 -195q0 -136 -57 -195.5t-172 -59.5t-172 59.5t-57 195.5z" />
    <glyph glyph-name="ntilde.ss02" horiz-adv-x="721" 
d="M647 437v-437h-130v432q0 92 -42.5 134t-132.5 42q-62 0 -138 -12v-596h-130v683q137 31 276 31q147 0 222 -72t75 -205zM338 790q-48 23 -66 23q-46 0 -81 -56l-45 71q31 41 60 58.5t70 17.5q47 0 106 -31q48 -23 66 -23q46 0 81 56l45 -71q-31 -41 -60 -58.5t-70 -17.5
q-47 0 -106 31z" />
    <glyph glyph-name="ograve.ss02" horiz-adv-x="734" 
d="M225 547q-46 -61 -46 -197t46 -197t142 -61t142 61t46 197t-46 197t-142 61t-142 -61zM666 526q23 -74 23 -176t-23 -177q-42 -129 -169 -170q-57 -17 -130 -17t-130 17q-127 41 -169 170q-23 75 -23 177t23 176q42 131 169 170q56 18 130 18q75 0 130 -18
q127 -39 169 -170zM440 738h-98l-130 178h128z" />
    <glyph glyph-name="oacute.ss02" horiz-adv-x="734" 
d="M225 547q-46 -61 -46 -197t46 -197t142 -61t142 61t46 197t-46 197t-142 61t-142 -61zM666 526q23 -74 23 -176t-23 -177q-42 -129 -169 -170q-57 -17 -130 -17t-130 17q-127 41 -169 170q-23 75 -23 177t23 176q42 131 169 170q56 18 130 18q75 0 130 -18
q127 -39 169 -170zM413 916h128l-130 -178h-98z" />
    <glyph glyph-name="ocircumflex.ss02" horiz-adv-x="734" 
d="M225 547q-46 -61 -46 -197t46 -197t142 -61t142 61t46 197t-46 197t-142 61t-142 -61zM666 526q23 -74 23 -176t-23 -177q-42 -129 -169 -170q-57 -17 -130 -17t-130 17q-127 41 -169 170q-23 75 -23 177t23 176q42 131 169 170q56 18 130 18q75 0 130 -18
q127 -39 169 -170zM448 738l-81 117l-81 -117h-90l99 178h144l99 -178h-90z" />
    <glyph glyph-name="otilde.ss02" horiz-adv-x="734" 
d="M225 547q-46 -61 -46 -197t46 -197t142 -61t142 61t46 197t-46 197t-142 61t-142 -61zM666 526q23 -74 23 -176t-23 -177q-42 -129 -169 -170q-57 -17 -130 -17t-130 17q-127 41 -169 170q-23 75 -23 177t23 176q42 131 169 170q56 18 130 18q75 0 130 -18
q127 -39 169 -170zM353 790q-48 23 -66 23q-46 0 -81 -56l-45 71q31 41 60 58.5t70 17.5q47 0 106 -31q48 -23 66 -23q46 0 81 56l45 -71q-31 -41 -60 -58.5t-70 -17.5q-47 0 -106 31z" />
    <glyph glyph-name="odieresis.ss02" horiz-adv-x="734" 
d="M225 547q-46 -61 -46 -197t46 -197t142 -61t142 61t46 197t-46 197t-142 61t-142 -61zM666 526q23 -74 23 -176t-23 -177q-42 -129 -169 -170q-57 -17 -130 -17t-130 17q-127 41 -169 170q-23 75 -23 177t23 176q42 131 169 170q56 18 130 18q75 0 130 -18
q127 -39 169 -170zM287 897v-140h-106v140h106zM553 897v-140h-106v140h106z" />
    <glyph glyph-name="oslash.ss02" horiz-adv-x="734" 
d="M179 350q0 -123 37 -184l217 433q-30 9 -66 9q-97 0 -142.5 -61.5t-45.5 -196.5zM555 350q0 123 -37 184l-218 -433q30 -9 67 -9q97 0 142.5 61.5t45.5 196.5zM517 765h117l-55 -110q110 -86 110 -305q0 -209 -91 -289q-85 -75 -231 -75q-67 0 -118 14l-32 -65h-117
l55 109q-110 84 -110 306q0 209 91 289q85 75 231 75q66 0 117 -14z" />
    <glyph glyph-name="hyphenminus" horiz-adv-x="445" 
d="M371 312v-100h-297v100h297z" />
    <glyph glyph-name="afii10065.ss04.accented" horiz-adv-x="577" 
d="M401 114v270q-77 36 -123 36q-63 0 -90 -40t-27 -131t27 -131t90 -40q46 0 123 36zM405 498h112v-498h-112v31q-91 -45 -161 -45q-104 0 -153 64t-49 199t49 199t153 64q70 0 161 -45v31zM219 580l100 178h121l-129 -178h-92z" />
    <glyph glyph-name="germandbls.ss02" horiz-adv-x="643" 
d="M559 527l-141 -127q98 -15 139 -65t41 -137q0 -104 -61 -156q-59 -52 -211 -52q-1 0 -8 0.5t-21.5 1t-30.5 0.5v106q38 -2 54 -2q79 0 111.5 25t32.5 81t-33 81t-111 25h-54v87l159 144q-18 69 -110 69q-64 0 -91 -32t-27 -103v-473h-130v474q0 126 61.5 183t187.5 57
q122 0 179 -46t64 -141z" />
    <glyph glyph-name="igrave.ss02" horiz-adv-x="278" 
d="M204 700v-700h-130v700h130zM213 738h-98l-130 178h128z" />
    <glyph glyph-name="iacute.ss02" horiz-adv-x="278" 
d="M204 700v-700h-130v700h130zM165 916h128l-130 -178h-98z" />
    <glyph glyph-name="icircumflex.ss02" horiz-adv-x="278" 
d="M204 700v-700h-130v700h130zM220 738l-81 117l-81 -117h-90l99 178h144l99 -178h-90z" />
    <glyph glyph-name="idieresis.ss02" horiz-adv-x="278" 
d="M97 897v-140h-102v140h102zM283 897v-140h-102v140h102zM204 700v-700h-130v700h130z" />
    <glyph glyph-name="aacute.ss04" horiz-adv-x="577" 
d="M401 114v270q-77 36 -123 36q-63 0 -90 -40t-27 -131t27 -131t90 -40q46 0 123 36zM405 498h112v-498h-112v31q-91 -45 -161 -45q-104 0 -153 64t-49 199t49 199t153 64q70 0 161 -45v31zM219 580l100 178h121l-129 -178h-92z" />
    <glyph glyph-name="agrave.ss04" horiz-adv-x="577" 
d="M401 114v270q-77 36 -123 36q-63 0 -90 -40t-27 -131t27 -131t90 -40q46 0 123 36zM405 498h112v-498h-112v31q-91 -45 -161 -45q-104 0 -153 64t-49 199t49 199t153 64q70 0 161 -45v31zM289 580l-129 178h121l100 -178h-92z" />
    <glyph glyph-name="acircumflex.ss04" horiz-adv-x="577" 
d="M401 114v270q-77 36 -123 36q-63 0 -90 -40t-27 -131t27 -131t90 -40q46 0 123 36zM405 498h112v-498h-112v31q-91 -45 -161 -45q-104 0 -153 64t-49 199t49 199t153 64q70 0 161 -45v31zM209 758h140l95 -178h-87l-78 116l-78 -116h-87z" />
    <glyph glyph-name="adieresis.ss04" horiz-adv-x="577" 
d="M401 114v270q-77 36 -123 36q-63 0 -90 -40t-27 -131t27 -131t90 -40q46 0 123 36zM405 498h112v-498h-112v31q-91 -45 -161 -45q-104 0 -153 64t-49 199t49 199t153 64q70 0 161 -45v31zM208 740v-140h-106v140h106zM456 740v-140h-106v140h106z" />
    <glyph glyph-name="atilde.ss04" horiz-adv-x="577" 
d="M401 114v270q-77 36 -123 36q-63 0 -90 -40t-27 -131t27 -131t90 -40q46 0 123 36zM405 498h112v-498h-112v31q-91 -45 -161 -45q-104 0 -153 64t-49 199t49 199t153 64q70 0 161 -45v31zM259 632q-42 21 -62 21q-24 0 -40.5 -11.5t-34.5 -39.5l-41 65q51 71 120 71
q43 0 98 -29q42 -21 62 -21q24 0 40.5 11.5t34.5 39.5l41 -65q-51 -71 -120 -71q-43 0 -98 29z" />
    <glyph glyph-name="aring.ss04" horiz-adv-x="577" 
d="M401 114v270q-77 36 -123 36q-63 0 -90 -40t-27 -131t27 -131t90 -40q46 0 123 36zM405 498h112v-498h-112v31q-91 -45 -161 -45q-104 0 -153 64t-49 199t49 199t153 64q70 0 161 -45v31zM279 780q118 0 118 -114t-118 -114t-118 114t118 114zM239 712q-12 -14 -12 -46
t12 -46t40 -14t40 14t12 46t-12 46t-40 14t-40 -14z" />
    <glyph glyph-name="ae.ss04" horiz-adv-x="921" 
d="M401 114v270q-77 36 -123 36q-63 0 -90 -40t-27 -131t27 -131t90 -40q46 0 123 36zM645 420q-111 0 -126 -113h243q-8 113 -117 113zM676 78q86 0 177 28l20 -92q-108 -28 -211 -28q-96 0 -155 32v-18h-102v31q-91 -45 -161 -45q-104 0 -153 64t-49 199t49 199t153 64
q70 0 161 -45v31h102v-17q53 31 139 31q130 0 182 -69q52 -67 52 -194v-31h-363q5 -73 40.5 -106.5t118.5 -33.5z" />
    <glyph glyph-name="A.ss03" horiz-adv-x="665" 
d="M465 110v188q-73 18 -137 18q-97 0 -126 -38q-23 -29 -23 -74t23 -75q29 -37 126 -37q64 0 137 18zM310 422q66 0 155 -14v51q0 81 -32 115t-110 34q-81 0 -212 -48l-20 116q160 38 243 38q136 0 198.5 -62.5t62.5 -190.5v-434q-166 -41 -285 -41q-128 0 -194 48
q-73 59 -71 170q0 68 26 118q54 100 239 100z" />
    <glyph glyph-name="E.ss03" horiz-adv-x="707" 
d="M392 92q105 0 240 41l20 -106q-150 -41 -270 -41q-158 0 -239 68q-37 31 -60 80q-38 84 -38 216q0 184 76 274t241 90q155 0 227.5 -87.5t72.5 -268.5v-42h-482q3 -41 6 -68q5 -28 17 -59q18 -47 61.5 -70t127.5 -27zM362 608q-160 0 -180 -186h345q-6 94 -44.5 140
t-120.5 46z" />
    <glyph glyph-name="M.ss03" horiz-adv-x="1130" 
d="M630 0h-130v432q0 92 -40 134t-125 42q-59 0 -131 -12v-596h-130v683q133 31 268 31q117 0 187 -49q134 49 231 49q148 0 222 -73t74 -204v-437h-130v432q0 92 -40 134t-127 42q-71 0 -155 -34q26 -58 26 -137v-437z" />
    <glyph glyph-name="N.ss03" horiz-adv-x="721" 
d="M647 437v-437h-130v432q0 92 -42.5 134t-132.5 42q-62 0 -138 -12v-596h-130v683q137 31 276 31q147 0 222 -72t75 -205z" />
    <glyph glyph-name="U.ss03" horiz-adv-x="721" 
d="M74 263v437h130v-432q0 -92 42.5 -134t132.5 -42q61 0 138 12v596h130v-683q-137 -31 -276 -31q-147 0 -222 72t-75 205z" />
    <glyph glyph-name="Aacute.ss03" horiz-adv-x="665" 
d="M465 110v188q-73 18 -137 18q-97 0 -126 -38q-23 -29 -23 -74t23 -75q29 -37 126 -37q64 0 137 18zM310 422q66 0 155 -14v51q0 81 -32 115t-110 34q-81 0 -212 -48l-20 116q160 38 243 38q136 0 198.5 -62.5t62.5 -190.5v-434q-166 -41 -285 -41q-128 0 -194 48
q-73 59 -71 170q0 68 26 118q54 100 239 100zM356 916h128l-130 -178h-98z" />
    <glyph glyph-name="Agrave.ss03" horiz-adv-x="665" 
d="M465 110v188q-73 18 -137 18q-97 0 -126 -38q-23 -29 -23 -74t23 -75q29 -37 126 -37q64 0 137 18zM310 422q66 0 155 -14v51q0 81 -32 115t-110 34q-81 0 -212 -48l-20 116q160 38 243 38q136 0 198.5 -62.5t62.5 -190.5v-434q-166 -41 -285 -41q-128 0 -194 48
q-73 59 -71 170q0 68 26 118q54 100 239 100zM420 738h-98l-130 178h128z" />
    <glyph glyph-name="Acircumflex.ss03" horiz-adv-x="665" 
d="M465 110v188q-73 18 -137 18q-97 0 -126 -38q-23 -29 -23 -74t23 -75q29 -37 126 -37q64 0 137 18zM310 422q66 0 155 -14v51q0 81 -32 115t-110 34q-81 0 -212 -48l-20 116q160 38 243 38q136 0 198.5 -62.5t62.5 -190.5v-434q-166 -41 -285 -41q-128 0 -194 48
q-73 59 -71 170q0 68 26 118q54 100 239 100zM409 738l-81 117l-81 -117h-90l99 178h144l99 -178h-90z" />
    <glyph glyph-name="Adieresis.ss03" horiz-adv-x="665" 
d="M465 110v188q-73 18 -137 18q-97 0 -126 -38q-23 -29 -23 -74t23 -75q29 -37 126 -37q64 0 137 18zM310 422q66 0 155 -14v51q0 81 -32 115t-110 34q-81 0 -212 -48l-20 116q160 38 243 38q136 0 198.5 -62.5t62.5 -190.5v-434q-166 -41 -285 -41q-128 0 -194 48
q-73 59 -71 170q0 68 26 118q54 100 239 100zM249 897v-140h-106v140h106zM515 897v-140h-106v140h106z" />
    <glyph glyph-name="Atilde.ss03" horiz-adv-x="665" 
d="M465 110v188q-73 18 -137 18q-97 0 -126 -38q-23 -29 -23 -74t23 -75q29 -37 126 -37q64 0 137 18zM310 422q66 0 155 -14v51q0 81 -32 115t-110 34q-81 0 -212 -48l-20 116q160 38 243 38q136 0 198.5 -62.5t62.5 -190.5v-434q-166 -41 -285 -41q-128 0 -194 48
q-73 59 -71 170q0 68 26 118q54 100 239 100zM306 790q-48 23 -66 23q-46 0 -81 -56l-45 71q31 41 60 58.5t70 17.5q47 0 106 -31q48 -23 66 -23q46 0 81 56l45 -71q-31 -41 -60 -58.5t-70 -17.5q-47 0 -106 31z" />
    <glyph glyph-name="Aring.ss03" horiz-adv-x="665" 
d="M465 110v188q-73 18 -137 18q-97 0 -126 -38q-23 -29 -23 -74t23 -75q29 -37 126 -37q64 0 137 18zM310 422q66 0 155 -14v51q0 81 -32 115t-110 34q-81 0 -212 -48l-20 116q160 38 243 38q136 0 198.5 -62.5t62.5 -190.5v-434q-166 -41 -285 -41q-128 0 -194 48
q-73 59 -71 170q0 68 26 118q54 100 239 100zM328 945q118 0 118 -114t-118 -114t-118 114t118 114zM288 877q-12 -13 -12 -46t12 -46q12 -14 40 -14t40 14q12 13 12 46t-12 46q-12 14 -40 14t-40 -14z" />
    <glyph glyph-name="Eacute.ss03" horiz-adv-x="707" 
d="M392 92q105 0 240 41l20 -106q-150 -41 -270 -41q-158 0 -239 68q-37 31 -60 80q-38 84 -38 216q0 184 76 274t241 90q155 0 227.5 -87.5t72.5 -268.5v-42h-482q3 -41 6 -68q5 -28 17 -59q18 -47 61.5 -70t127.5 -27zM362 608q-160 0 -180 -186h345q-6 94 -44.5 140
t-120.5 46zM380 916h128l-130 -178h-98z" />
    <glyph glyph-name="Egrave.ss03" horiz-adv-x="707" 
d="M392 92q105 0 240 41l20 -106q-150 -41 -270 -41q-158 0 -239 68q-37 31 -60 80q-38 84 -38 216q0 184 76 274t241 90q155 0 227.5 -87.5t72.5 -268.5v-42h-482q3 -41 6 -68q5 -28 17 -59q18 -47 61.5 -70t127.5 -27zM362 608q-160 0 -180 -186h345q-6 94 -44.5 140
t-120.5 46zM449 738h-98l-130 178h128z" />
    <glyph glyph-name="Ecircumflex.ss03" horiz-adv-x="707" 
d="M392 92q105 0 240 41l20 -106q-150 -41 -270 -41q-158 0 -239 68q-37 31 -60 80q-38 84 -38 216q0 184 76 274t241 90q155 0 227.5 -87.5t72.5 -268.5v-42h-482q3 -41 6 -68q5 -28 17 -59q18 -47 61.5 -70t127.5 -27zM362 608q-160 0 -180 -186h345q-6 94 -44.5 140
t-120.5 46zM435 738l-81 117l-81 -117h-90l99 178h144l99 -178h-90z" />
    <glyph glyph-name="Edieresis.ss03" horiz-adv-x="707" 
d="M392 92q105 0 240 41l20 -106q-150 -41 -270 -41q-158 0 -239 68q-37 31 -60 80q-38 84 -38 216q0 184 76 274t241 90q155 0 227.5 -87.5t72.5 -268.5v-42h-482q3 -41 6 -68q5 -28 17 -59q18 -47 61.5 -70t127.5 -27zM362 608q-160 0 -180 -186h345q-6 94 -44.5 140
t-120.5 46zM274 897v-140h-106v140h106zM540 897v-140h-106v140h106z" />
    <glyph glyph-name="Ntilde.ss03" horiz-adv-x="721" 
d="M647 437v-437h-130v432q0 92 -42.5 134t-132.5 42q-62 0 -138 -12v-596h-130v683q137 31 276 31q147 0 222 -72t75 -205zM338 790q-48 23 -66 23q-46 0 -81 -56l-45 71q31 41 60 58.5t70 17.5q47 0 106 -31q48 -23 66 -23q46 0 81 56l45 -71q-31 -41 -60 -58.5t-70 -17.5
q-47 0 -106 31z" />
    <glyph glyph-name="Uacute.ss03" horiz-adv-x="721" 
d="M74 263v437h130v-432q0 -92 42.5 -134t132.5 -42q61 0 138 12v596h130v-683q-137 -31 -276 -31q-147 0 -222 72t-75 205zM376 916h128l-130 -178h-98z" />
    <glyph glyph-name="Ugrave.ss03" horiz-adv-x="721" 
d="M74 263v437h130v-432q0 -92 42.5 -134t132.5 -42q61 0 138 12v596h130v-683q-137 -31 -276 -31q-147 0 -222 72t-75 205zM440 738h-98l-130 178h128z" />
    <glyph glyph-name="Ucircumflex.ss03" horiz-adv-x="721" 
d="M74 263v437h130v-432q0 -92 42.5 -134t132.5 -42q61 0 138 12v596h130v-683q-137 -31 -276 -31q-147 0 -222 72t-75 205zM442 738l-81 117l-81 -117h-90l99 178h144l99 -178h-90z" />
    <glyph glyph-name="Udieresis.ss03" horiz-adv-x="721" 
d="M74 263v437h130v-432q0 -92 42.5 -134t132.5 -42q61 0 138 12v596h130v-683q-137 -31 -276 -31q-147 0 -222 72t-75 205zM281 897v-140h-106v140h106zM547 897v-140h-106v140h106z" />
    <glyph glyph-name="AE.ss03" horiz-adv-x="1122" 
d="M465 110v188q-73 18 -137 18q-97 0 -126 -38q-23 -29 -23 -74t23 -75q29 -37 126 -37q64 0 137 18zM777 608q-161 0 -180 -186h345q-6 94 -44.5 140t-120.5 46zM807 92q105 0 240 41l20 -106q-150 -41 -270 -41q-133 0 -210 48v-9q-165 -39 -277 -39q-128 0 -194 48
q-73 59 -71 170q0 68 26 118q54 100 239 100q66 0 155 -14v51q0 81 -32 115t-110 34q-81 0 -212 -48l-20 116q160 38 243 38q151 0 212 -79q76 79 231 79t227.5 -87.5t72.5 -268.5v-42h-482q3 -41 6 -68q5 -28 17 -59q18 -47 61.5 -70t127.5 -27z" />
    <glyph glyph-name="OE.ss03" horiz-adv-x="1217" 
d="M225 547q-46 -61 -46 -197t46 -197t142 -61t142 61t46 197t-46 197t-142 61t-142 -61zM872 608q-160 0 -180 -186h345q-6 94 -44.5 140t-120.5 46zM902 92q105 0 240 41l20 -106q-150 -41 -270 -41q-190 0 -270 102q-76 -102 -255 -102q-146 0 -231 75q-91 80 -91 289
t91 289q85 75 231 75q179 0 255 -102q76 102 250 102q155 0 227.5 -87.5t72.5 -268.5v-42h-482q3 -41 6 -68q5 -28 17 -59q18 -47 61.5 -70t127.5 -27z" />
    <glyph glyph-name="E.ss03.alt" horiz-adv-x="603" 
d="M42 192q0 132 117 176q-85 46 -85 157q0 95 61 142t195 47q86 0 217 -25l-19 -114q-122 33 -198 33q-128 0 -128 -99q0 -50 30.5 -73.5t102.5 -23.5q39 0 113 3v-111q-49 3 -113 3q-159 0 -159 -107q0 -108 155 -108q101 0 221 38l18 -114q-124 -30 -240 -30
q-85 0 -143 15t-89 44.5t-43.5 64.5t-12.5 82z" />
    <glyph glyph-name="Eacute.ss03.alt" horiz-adv-x="603" 
d="M42 192q0 132 117 176q-85 46 -85 157q0 95 61 142t195 47q86 0 217 -25l-19 -114q-122 33 -198 33q-128 0 -128 -99q0 -50 30.5 -73.5t102.5 -23.5q39 0 113 3v-111q-49 3 -113 3q-159 0 -159 -107q0 -108 155 -108q101 0 221 38l18 -114q-124 -30 -240 -30
q-85 0 -143 15t-89 44.5t-43.5 64.5t-12.5 82zM369 916h128l-130 -178h-98z" />
    <glyph glyph-name="Egrave.ss03.alt" horiz-adv-x="603" 
d="M42 192q0 132 117 176q-85 46 -85 157q0 95 61 142t195 47q86 0 217 -25l-19 -114q-122 33 -198 33q-128 0 -128 -99q0 -50 30.5 -73.5t102.5 -23.5q39 0 113 3v-111q-49 3 -113 3q-159 0 -159 -107q0 -108 155 -108q101 0 221 38l18 -114q-124 -30 -240 -30
q-85 0 -143 15t-89 44.5t-43.5 64.5t-12.5 82zM397 738h-98l-130 178h128z" />
    <glyph glyph-name="Ecircumflex.ss03.alt" horiz-adv-x="603" 
d="M42 192q0 132 117 176q-85 46 -85 157q0 95 61 142t195 47q86 0 217 -25l-19 -114q-122 33 -198 33q-128 0 -128 -99q0 -50 30.5 -73.5t102.5 -23.5q39 0 113 3v-111q-49 3 -113 3q-159 0 -159 -107q0 -108 155 -108q101 0 221 38l18 -114q-124 -30 -240 -30
q-85 0 -143 15t-89 44.5t-43.5 64.5t-12.5 82zM392 738l-81 117l-81 -117h-90l99 178h144l99 -178h-90z" />
    <glyph glyph-name="Edieresis.ss03.alt" horiz-adv-x="603" 
d="M42 192q0 132 117 176q-85 46 -85 157q0 95 61 142t195 47q86 0 217 -25l-19 -114q-122 33 -198 33q-128 0 -128 -99q0 -50 30.5 -73.5t102.5 -23.5q39 0 113 3v-111q-49 3 -113 3q-159 0 -159 -107q0 -108 155 -108q101 0 221 38l18 -114q-124 -30 -240 -30
q-85 0 -143 15t-89 44.5t-43.5 64.5t-12.5 82zM231 897v-140h-106v140h106zM497 897v-140h-106v140h106z" />
    <glyph glyph-name="afii10145.ss03" horiz-adv-x="721" 
d="M297 -180v133h128v-133h-128zM74 263v437h130v-432q0 -92 42.5 -134t132.5 -42q61 0 138 12v596h130v-683q-137 -31 -276 -31q-147 0 -222 72t-75 205z" />
    <glyph glyph-name="afii10022.ss03" horiz-adv-x="707" 
d="M392 92q105 0 240 41l20 -106q-150 -41 -270 -41q-158 0 -239 68q-37 31 -60 80q-38 84 -38 216q0 184 76 274t241 90q155 0 227.5 -87.5t72.5 -268.5v-42h-482q3 -41 6 -68q5 -28 17 -59q18 -47 61.5 -70t127.5 -27zM362 608q-160 0 -180 -186h345q-6 94 -44.5 140
t-120.5 46z" />
    <glyph glyph-name="afii10023.ss03" horiz-adv-x="707" 
d="M392 92q105 0 240 41l20 -106q-150 -41 -270 -41q-158 0 -239 68q-37 31 -60 80q-38 84 -38 216q0 184 76 274t241 90q155 0 227.5 -87.5t72.5 -268.5v-42h-482q3 -41 6 -68q5 -28 17 -59q18 -47 61.5 -70t127.5 -27zM362 608q-160 0 -180 -186h345q-6 94 -44.5 140
t-120.5 46zM274 897v-140h-106v140h106zM540 897v-140h-106v140h106z" />
    <glyph glyph-name="afii10017.ss03" horiz-adv-x="665" 
d="M465 110v188q-73 18 -137 18q-97 0 -126 -38q-23 -29 -23 -74t23 -75q29 -37 126 -37q64 0 137 18zM310 422q66 0 155 -14v51q0 81 -32 115t-110 34q-81 0 -212 -48l-20 116q160 38 243 38q136 0 198.5 -62.5t62.5 -190.5v-434q-166 -41 -285 -41q-128 0 -194 48
q-73 59 -71 170q0 68 26 118q54 100 239 100z" />
    <glyph glyph-name="afii10026.ss03" horiz-adv-x="721" 
d="M74 263v437h130v-432q0 -92 42.5 -134t132.5 -42q61 0 138 12v596h130v-683q-137 -31 -276 -31q-147 0 -222 72t-75 205z" />
    <glyph glyph-name="afii10027.ss03" horiz-adv-x="721" 
d="M74 263v437h130v-432q0 -92 42.5 -134t132.5 -42q61 0 138 12v596h130v-683q-137 -31 -276 -31q-147 0 -222 72t-75 205zM482 902l73 -61q-61 -97 -194 -97t-194 97l73 61q39 -64 121 -64t121 64z" />
    <glyph glyph-name="afii10033.ss03" horiz-adv-x="721" 
d="M647 437v-437h-130v432q0 92 -42.5 134t-132.5 42q-62 0 -138 -12v-596h-130v683q137 31 276 31q147 0 222 -72t75 -205z" />
    <glyph glyph-name="afii10040.ss03" horiz-adv-x="748" 
d="M517 104v596h130v-581h76v-249h-115l-10 138q-114 -22 -227 -22q-147 0 -222 72t-75 205v437h130v-432q0 -92 42.5 -134t132.5 -42q61 0 138 12z" />
    <glyph glyph-name="afii10042.ss03" horiz-adv-x="991" 
d="M432 700h129v-607q125 0 226 25v582h130v-664q-226 -50 -415 -50q-210 0 -315 65q-44 28 -72 73q-25 42 -33 81t-8 97v398h130v-393q0 -105 50 -157q49 -50 178 -55v605z" />
    <glyph glyph-name="afii10043.ss03" horiz-adv-x="1018" 
d="M502 -14q-210 0 -315 65q-44 28 -72 73q-25 42 -33 81t-8 97v398h130v-393q0 -105 50 -157q49 -50 178 -55v605h129v-607q125 0 226 25v582h130v-574h76v-256h-115l-10 154q-204 -38 -366 -38z" />
    <glyph glyph-name="afii10022.ss03.alt" horiz-adv-x="603" 
d="M42 192q0 132 117 176q-85 46 -85 157q0 95 61 142t195 47q86 0 217 -25l-19 -114q-122 33 -198 33q-128 0 -128 -99q0 -50 30.5 -73.5t102.5 -23.5q39 0 113 3v-111q-49 3 -113 3q-159 0 -159 -107q0 -108 155 -108q101 0 221 38l18 -114q-124 -30 -240 -30
q-85 0 -143 15t-89 44.5t-43.5 64.5t-12.5 82z" />
    <glyph glyph-name="afii10023.ss03.alt" horiz-adv-x="603" 
d="M42 192q0 132 117 176q-85 46 -85 157q0 95 61 142t195 47q86 0 217 -25l-19 -114q-122 33 -198 33q-128 0 -128 -99q0 -50 30.5 -73.5t102.5 -23.5q39 0 113 3v-111q-49 3 -113 3q-159 0 -159 -107q0 -108 155 -108q101 0 221 38l18 -114q-124 -30 -240 -30
q-85 0 -143 15t-89 44.5t-43.5 64.5t-12.5 82zM231 897v-140h-106v140h106zM497 897v-140h-106v140h106z" />
    <glyph glyph-name="afii10022.ss03.accented" horiz-adv-x="707" 
d="M392 92q105 0 240 41l20 -106q-150 -41 -270 -41q-158 0 -239 68q-37 31 -60 80q-38 84 -38 216q0 184 76 274t241 90q155 0 227.5 -87.5t72.5 -268.5v-42h-482q3 -41 6 -68q5 -28 17 -59q18 -47 61.5 -70t127.5 -27zM362 608q-160 0 -180 -186h345q-6 94 -44.5 140
t-120.5 46zM380 916h128l-130 -178h-98z" />
    <glyph glyph-name="afii10023.ss03.accented" horiz-adv-x="707" 
d="M227 911v-140h-106v140h106zM586 911v-140h-106v140h106zM337 926h128l-130 -178h-98zM392 92q105 0 240 41l20 -106q-150 -41 -270 -41q-158 0 -239 68q-37 31 -60 80q-38 84 -38 216q0 184 76 274t241 90q155 0 227.5 -87.5t72.5 -268.5v-42h-482q3 -41 6 -68
q5 -28 17 -59q18 -47 61.5 -70t127.5 -27zM362 608q-160 0 -180 -186h345q-6 94 -44.5 140t-120.5 46z" />
    <glyph glyph-name="afii10023.ss03.accented.alt" horiz-adv-x="603" 
d="M187 911v-140h-106v140h106zM546 911v-140h-106v140h106zM297 926h128l-130 -178h-98zM42 192q0 132 117 176q-85 46 -85 157q0 95 61 142t195 47q86 0 217 -25l-19 -114q-122 33 -198 33q-128 0 -128 -99q0 -50 30.5 -73.5t102.5 -23.5q39 0 113 3v-111q-49 3 -113 3
q-159 0 -159 -107q0 -108 155 -108q101 0 221 38l18 -114q-124 -30 -240 -30q-85 0 -143 15t-89 44.5t-43.5 64.5t-12.5 82z" />
    <glyph glyph-name="afii10026.ss03.accented" horiz-adv-x="721" 
d="M74 263v437h130v-432q0 -92 42.5 -134t132.5 -42q61 0 138 12v596h130v-683q-137 -31 -276 -31q-147 0 -222 72t-75 205zM376 916h128l-130 -178h-98z" />
    <glyph glyph-name="afii10022.ss03.accented.alt" horiz-adv-x="603" 
d="M42 192q0 132 117 176q-85 46 -85 157q0 95 61 142t195 47q86 0 217 -25l-19 -114q-122 33 -198 33q-128 0 -128 -99q0 -50 30.5 -73.5t102.5 -23.5q39 0 113 3v-111q-49 3 -113 3q-159 0 -159 -107q0 -108 155 -108q101 0 221 38l18 -114q-124 -30 -240 -30
q-85 0 -143 15t-89 44.5t-43.5 64.5t-12.5 82zM369 916h128l-130 -178h-98z" />
    <glyph glyph-name="afii10017.ss03.accented" horiz-adv-x="665" 
d="M465 110v188q-73 18 -137 18q-97 0 -126 -38q-23 -29 -23 -74t23 -75q29 -37 126 -37q64 0 137 18zM310 422q66 0 155 -14v51q0 81 -32 115t-110 34q-81 0 -212 -48l-20 116q160 38 243 38q136 0 198.5 -62.5t62.5 -190.5v-434q-166 -41 -285 -41q-128 0 -194 48
q-73 59 -71 170q0 68 26 118q54 100 239 100zM356 916h128l-130 -178h-98z" />
    </font>
</defs>
</svg>
